<svg width="48" height="50" fill="none" xmlns="http://www.w3.org/2000/svg">
  <g clip-path="url(#clip0_58_3225)">
    <path
      d="M23.9053 0C15.1627 0 8.07548 6.99627 8.07548 15.6266C8.07548 24.2569 15.1627 31.2532 23.9053 31.2532C32.6478 31.2532 39.7351 24.2569 39.7351 15.6266C39.7351 6.99627 32.6478 0 23.9053 0ZM23.9053 4.46475C30.1499 4.46475 35.2123 9.46208 35.2123 15.6266C35.2123 21.7911 30.1499 26.7885 23.9053 26.7885C17.6606 26.7885 12.5983 21.7911 12.5983 15.6266C12.5983 9.46208 17.6606 4.46475 23.9053 4.46475ZM37.7872 35.7798C43.3688 35.7798 47.9046 40.1999 47.9985 45.6878L48 45.8615V49.8941H42.8936V45.8615C42.8936 43.1247 40.6843 40.8973 37.9302 40.8225L37.7872 40.8206H10.2128C7.44039 40.8206 5.18403 43.0016 5.10834 45.7204L5.10638 45.8615V49.7286H0V45.8615C0 40.3515 4.47765 35.8739 10.0369 35.7812L10.2128 35.7798H37.7872Z"
      fill="#333333" />
  </g>
  <defs>
    <clipPath id="clip0_58_3225">
      <rect width="48" height="49.8941" fill="white" />
    </clipPath>
  </defs>
</svg>
