<svg width="48" height="42" fill="none" xmlns="http://www.w3.org/2000/svg">
  <path fill-rule="evenodd" clip-rule="evenodd"
    d="M37.7999 40.7804H10.2007C5.88013 40.7804 2.61393 39.2994 1.00529 36.6114C-0.60399 33.9235 -0.272478 30.5005 1.93739 26.9742L15.4264 5.44759C17.6279 1.93473 20.6726 6.10352e-05 24 6.10352e-05C27.3274 6.10352e-05 30.3721 1.93473 32.5736 5.44759L46.0626 26.9742C48.2725 30.5005 48.604 33.9235 46.9947 36.6114C45.3861 39.2994 42.1199 40.7804 37.7999 40.7804Z"
    fill="#FFDE00" />
  <path fill-rule="evenodd" clip-rule="evenodd"
    d="M21.5314 25.1436H26.3413V11.8734H21.5314V25.1436Z" fill="#333333" />
  <path fill-rule="evenodd" clip-rule="evenodd"
    d="M26.4773 32.3557C25.4461 33.6417 23.513 33.8905 22.1593 32.911C20.8049 31.932 20.543 30.0958 21.5742 28.8093C22.6048 27.5233 24.5385 27.2739 25.8929 28.2534C27.2459 29.233 27.5086 31.0692 26.4773 32.3557Z"
    fill="#333333" />
</svg>
