<svg width="48" height="43" fill="none" xmlns="http://www.w3.org/2000/svg">
  <path fill-rule="evenodd" clip-rule="evenodd"
    d="M23.8528 0C27.1596 0 30.185 2.03671 32.3729 5.73484L45.7789 28.3967C47.9751 32.109 48.3046 35.7125 46.7052 38.5423C45.1065 41.3721 41.8604 42.9311 37.5671 42.9311H10.1379C5.84391 42.9311 2.59783 41.3721 0.999099 38.5423C-0.600269 35.7125 -0.270799 32.109 1.92545 28.3967L15.3314 5.73484C17.5193 2.03671 20.5459 0 23.8528 0ZM23.8528 3.86228C21.9527 3.86228 20.0981 5.22888 18.6299 7.71039L5.22399 30.3723C3.7852 32.8036 3.46149 35.0862 4.33602 36.6337C5.21056 38.1812 7.32492 39.0689 10.1379 39.0689H37.5671C40.3794 39.0689 42.4944 38.1812 43.3683 36.6337C44.2428 35.0862 43.9191 32.8036 42.4803 30.3723L29.0744 7.71039C27.6068 5.22888 25.7522 3.86228 23.8528 3.86228ZM25.3192 29.7435C26.664 30.7747 26.925 32.7078 25.9001 34.0621C24.8752 35.4159 22.9541 35.6778 21.6087 34.6466C20.2627 33.616 20.0023 31.683 21.0272 30.3286C22.0514 28.9749 23.9732 28.7122 25.3192 29.7435ZM25.8613 12.1787V26.2869H21.0811V12.1787H25.8613Z"
    fill="white" />
</svg>
