<svg width="48" height="38" fill="none" xmlns="http://www.w3.org/2000/svg">
  <g clip-path="url(#clip0_121_3711)">
    <path
      d="M19.8742 37.786C20.3043 37.7868 20.7304 37.7028 21.128 37.5389C21.5257 37.375 21.8871 37.1343 22.1917 36.8307C22.4964 36.5271 22.7382 36.1664 22.9034 35.7693C23.0686 35.3722 23.1539 34.9464 23.1545 34.5163C23.1539 34.0862 23.0686 33.6604 22.9034 33.2633C22.7382 32.8662 22.4964 32.5056 22.1917 32.2019C21.8871 31.8983 21.5257 31.6577 21.128 31.4937C20.7304 31.3298 20.3043 31.2459 19.8742 31.2466C19.444 31.2459 19.0179 31.3299 18.6202 31.4939C18.2225 31.6578 17.861 31.8986 17.5563 32.2023C17.2517 32.5061 17.0099 32.8669 16.8448 33.2642C16.6796 33.6614 16.5944 34.0873 16.5939 34.5175C16.5955 35.3857 16.9418 36.2178 17.5568 36.8307C18.1717 37.4436 19.006 37.7872 19.8742 37.786ZM35.6452 37.786C36.0753 37.7868 36.5013 37.7028 36.8989 37.5389C37.2966 37.375 37.658 37.1343 37.9627 36.8307C38.2673 36.5271 38.5091 36.1664 38.6743 35.7693C38.8395 35.3722 38.9248 34.9464 38.9255 34.5163C38.9248 34.0862 38.8395 33.6604 38.6743 33.2633C38.5091 32.8662 38.2673 32.5056 37.9627 32.2019C37.658 31.8983 37.2966 31.6577 36.8989 31.4937C36.5013 31.3298 36.0753 31.2459 35.6452 31.2466C35.215 31.2459 34.7888 31.3299 34.3911 31.4939C33.9934 31.6578 33.6319 31.8986 33.3273 32.2023C33.0226 32.5061 32.7808 32.8669 32.6157 33.2642C32.4506 33.6614 32.3653 34.0873 32.3649 34.5175C32.3656 34.9475 32.4511 35.3731 32.6164 35.7701C32.7816 36.1671 33.0235 36.5276 33.3281 36.8311C33.6327 37.1346 33.9941 37.3752 34.3917 37.539C34.7892 37.7028 35.2152 37.7868 35.6452 37.786ZM0 0H9.86332L11.6688 5.91587H47.5891L41.6626 29.0716H13.8368L6.97387 3.30155H0.0850184L0 0ZM42.6155 9.76295H12.6937L16.81 25.2257H38.6598L42.6155 9.76295Z"
      fill="#333333" />
  </g>
  <defs>
    <clipPath id="clip0_121_3711">
      <rect width="48" height="37.786" fill="white" />
    </clipPath>
  </defs>
</svg>
