<svg width="48" height="36" fill="none" xmlns="http://www.w3.org/2000/svg">
  <g clip-path="url(#clip0_121_3848)">
    <path d="M26.5878 11.4587V13.6007H8.6897V11.4587H26.5878Z" fill="#333333" />
    <path d="M21.6859 15.5185V17.6605H8.69733V15.5185H21.6859Z" fill="#333333" />
    <path d="M18.5708 19.1953V21.3373H8.70078V19.1953H18.5708Z" fill="#333333" />
    <path fill-rule="evenodd" clip-rule="evenodd"
      d="M40.9427 24.9241L39.8387 25.9711L40.0307 27.4801L40.3802 30.2311L36.2117 28.3771L35.3941 28.0126L34.5106 28.1566C34.4431 28.1671 34.3066 28.1941 34.1086 28.2391C33.4981 28.3756 31.7266 28.7656 29.3086 28.8286C34.0366 26.3866 35.7856 22.2301 35.7856 15.8821C35.7856 10.8945 33.1036 6.44403 28.9921 3.53101C29.5726 3.47101 30.1576 3.43501 30.7351 3.43501C38.1272 3.43501 44.2292 8.28903 44.9327 14.7256C45.3362 18.4216 43.8812 22.1386 40.9427 24.9241ZM17.9686 28.2796C17.3881 28.2796 16.8961 28.2571 16.4716 28.2316C15.9151 28.1956 15.4846 28.1521 15.2266 28.1221C15.0226 28.0996 14.8831 28.0876 14.8126 28.0846L13.9216 28.0381L13.1491 28.4881L9.20704 30.7831L9.25504 28.0111L9.28354 26.4901L8.07153 25.5691C4.84802 23.1196 3.00001 19.5811 3.00001 15.8626C3.00001 8.77054 9.60754 3.00001 17.7316 3.00001C18.6931 3.00001 19.6351 3.08851 20.5516 3.24451C22.0246 3.49501 23.4286 3.93302 24.7246 4.53302C29.4736 6.72903 32.7871 11.043 32.7871 15.8821C32.7871 23.5636 30.0826 26.6056 22.0711 27.9406C22.0471 27.9451 22.0216 27.9466 21.9976 27.9511C20.6746 28.1671 19.3201 28.2796 17.9686 28.2796ZM30.7351 0.435002C30.0196 0.435002 29.2966 0.474002 28.5661 0.553502C27.2851 0.694503 26.0476 0.960004 24.8611 1.32451C22.6606 0.477002 20.2486 0 17.7316 0C7.93803 0 0 7.10253 0 15.8626C0 20.7091 2.42851 25.0486 6.25653 27.9571L6.14253 34.3231C6.13353 34.8946 6.59853 35.3266 7.12653 35.3266C7.24353 35.3266 7.36353 35.3041 7.48203 35.2591L14.6596 31.0801C14.8621 31.0906 16.0951 31.2796 17.9686 31.2796C19.0606 31.2796 20.3791 31.2061 21.8281 31.0051C23.3626 31.4176 25.1086 31.6831 27.1156 31.7971C27.6541 31.8271 28.1731 31.8406 28.6726 31.8406C32.2201 31.8406 34.6966 31.1656 34.9921 31.1176L42.5807 34.4926C42.6677 34.5166 42.7532 34.5271 42.8372 34.5271C43.4087 34.5271 43.8872 34.0216 43.8107 33.4171L43.0067 27.1021C46.4972 23.7931 48.4412 19.2166 47.9147 14.4001C47.0357 6.34353 39.5567 0.435002 30.7351 0.435002Z"
      fill="#333333" />
  </g>
  <defs>
    <clipPath id="clip0_121_3848">
      <rect width="48" height="35.3266" fill="white" />
    </clipPath>
  </defs>
</svg>
