<svg width="48" height="48" fill="none" xmlns="http://www.w3.org/2000/svg">
  <g clip-path="url(#clip0_121_3857)">
    <path fill-rule="evenodd" clip-rule="evenodd"
      d="M48 24C48 37.2555 37.2555 48 24 48C10.7445 48 0 37.2555 0 24C0 10.7445 10.7445 0 24 0C37.2555 0 48 10.7445 48 24Z"
      fill="#2D69AA" />
    <path fill-rule="evenodd" clip-rule="evenodd"
      d="M33.771 35.0535L33.4395 35.106L33.171 35.1615C31.079 35.6372 28.9303 35.815 26.7885 35.6895C18.9525 35.2455 15.738 32.3205 14.9265 24.8895C14.562 21.549 15.735 18.219 18.2265 15.51C20.7435 12.774 24.2565 11.034 28.119 10.6125C28.716 10.548 29.3085 10.5165 29.8935 10.5165C37.1235 10.5165 43.0995 15.3345 43.7985 21.723C44.202 25.4235 42.7635 29.13 39.8505 31.89L39.4305 32.286L40.1445 37.887L33.771 35.0535Z"
      fill="white" />
    <path fill-rule="evenodd" clip-rule="evenodd"
      d="M29.895 9.381C29.2695 9.381 28.635 9.4155 27.996 9.4845C19.476 10.4145 12.966 17.3925 13.8 25.014C14.631 32.634 17.9415 36.3255 26.727 36.8235C27.198 36.849 27.654 36.861 28.0905 36.861C31.1925 36.861 33.3585 36.27 33.618 36.228L40.26 39.183C40.3964 39.2191 40.5396 39.221 40.677 39.1887C40.8143 39.1565 40.9417 39.0909 41.0478 38.9979C41.1538 38.9048 41.2354 38.7871 41.2853 38.6552C41.3353 38.5232 41.352 38.381 41.334 38.241L40.632 32.7135C43.6845 29.8185 45.387 25.815 44.925 21.5985C44.157 14.55 37.614 9.381 29.895 9.381ZM29.895 11.652C36.543 11.652 42.0345 16.035 42.6675 21.846C43.0335 25.191 41.7225 28.551 39.069 31.065L38.235 31.8585L38.3805 33L38.763 36.0315L34.542 34.152L33.927 33.879L33.2595 33.9855C33.1459 34.0055 33.0329 34.0285 32.9205 34.0545C30.9321 34.5057 28.8899 34.6738 26.8545 34.554C19.5345 34.1415 16.809 31.6725 16.0575 24.7665C15.7275 21.7575 16.7955 18.741 19.062 16.2765C21.393 13.746 24.6525 12.1335 28.242 11.742C28.791 11.682 29.349 11.652 29.895 11.652Z"
      fill="#2D69AA" />
    <path fill-rule="evenodd" clip-rule="evenodd"
      d="M9.62097 32.907L9.16197 32.559C5.96697 30.129 4.13397 26.601 4.13397 22.881C4.13397 15.8535 10.587 10.134 18.516 10.134C26.4645 10.134 33.1785 15.9795 33.1785 22.8945C33.1785 30.369 30.2985 33.6285 22.5585 34.917C21.2985 35.127 20.01 35.235 18.7215 35.235C17.466 35.235 16.551 35.13 16.1565 35.088L15.8865 35.0595L15.549 35.0445L9.51897 38.5545L9.62097 32.907Z"
      fill="white" />
    <path fill-rule="evenodd" clip-rule="evenodd"
      d="M18.516 9C9.948 9 3 15.2145 3 22.881C3 27.1215 5.127 30.9165 8.475 33.4635L8.376 39.033C8.37372 39.1739 8.40607 39.3132 8.47018 39.4387C8.5343 39.5641 8.62823 39.672 8.74374 39.7527C8.85925 39.8334 8.99281 39.8845 9.13268 39.9016C9.27256 39.9186 9.41448 39.9011 9.546 39.8505L15.828 36.195C16.005 36.204 17.0835 36.3705 18.723 36.3705C19.839 36.3705 21.213 36.2925 22.746 36.0375C31.4235 34.5915 34.314 30.5625 34.314 22.8975C34.314 15.2295 27.084 9 18.516 9ZM18.516 11.271C25.848 11.271 32.043 16.596 32.043 22.896C32.043 29.841 29.6025 32.592 22.371 33.798C21.1755 33.9975 19.947 34.098 18.7215 34.098C17.5305 34.098 16.6575 34.0005 16.284 33.9585C16.1713 33.9452 16.0582 33.9347 15.945 33.927L15.27 33.8925L14.685 34.233L10.692 36.558L10.746 33.504L10.767 32.352L9.849 31.656C6.939 29.4435 5.271 26.244 5.271 22.881C5.271 16.479 11.2125 11.271 18.516 11.271Z"
      fill="#2D69AA" />
    <path
      d="M11.73 20.886C10.671 20.709 10.7325 19.026 11.916 19.026H27.576C28.827 19.026 28.827 20.901 27.576 20.901H11.9175L11.73 20.886ZM11.736 24.438C10.677 24.261 10.74 22.578 11.9235 22.578H23.289C24.5385 22.578 24.5385 24.453 23.289 24.453H11.925L11.736 24.438ZM11.739 27.6555C10.68 27.4785 10.743 25.7955 11.9265 25.7955H20.562C21.8115 25.7955 21.8115 27.6705 20.562 27.6705H11.9265L11.739 27.6555Z"
      fill="#2D69AA" />
  </g>
  <defs>
    <clipPath id="clip0_121_3857">
      <rect width="48" height="48" fill="white" />
    </clipPath>
  </defs>
</svg>
