<svg width="48" height="16" fill="none" xmlns="http://www.w3.org/2000/svg">
  <g clip-path="url(#clip0_121_3879)">
    <path fill-rule="evenodd" clip-rule="evenodd" d="M0 0V15.0583H14.4505H48V0H0Z" fill="#0099CC" />
    <path fill-rule="evenodd" clip-rule="evenodd"
      d="M16.2533 10.0387V5.38069H17.2477V9.22308H19.1495V10.0387H16.2533ZM19.8871 10.0387H20.8653V6.47644H19.8871V10.0387ZM19.8452 5.55537C19.8452 5.23965 20.0226 5.08103 20.3778 5.08103C20.733 5.08103 20.9103 5.23965 20.9103 5.55537C20.9103 5.70646 20.8658 5.82441 20.7774 5.90824C20.6885 5.99206 20.5551 6.03422 20.3778 6.03422C20.0226 6.03422 19.8452 5.8741 19.8452 5.55537ZM22.7447 10.0387L21.3785 6.47644H22.4016L23.0944 8.5063C23.1712 8.7633 23.2192 9.00624 23.2389 9.23563H23.2581C23.2687 9.03184 23.3167 8.7889 23.4021 8.5063L24.0917 6.47644H25.1149L23.7487 10.0387H22.7447ZM27.113 7.10111C26.9053 7.10111 26.7436 7.16636 26.6254 7.29737C26.5077 7.42737 26.4405 7.61309 26.4238 7.85302H27.7966C27.792 7.61309 27.7289 7.42737 27.6071 7.29737C27.4848 7.16636 27.3206 7.10111 27.113 7.10111ZM27.2504 10.1022C26.6734 10.1022 26.2222 9.94412 25.8978 9.6279C25.5724 9.31117 25.4102 8.86344 25.4102 8.28269C25.4102 7.68638 25.5603 7.22459 25.8604 6.89882C26.1611 6.57256 26.5764 6.40943 27.1064 6.40943C27.6132 6.40943 28.0078 6.55298 28.2897 6.83959C28.5722 7.12671 28.7131 7.52274 28.7131 8.0282V8.49953H26.401C26.4117 8.7761 26.4935 8.99193 26.6476 9.14653C26.8017 9.30163 27.018 9.37893 27.2959 9.37893C27.5116 9.37893 27.7157 9.35685 27.9083 9.31217C28.1008 9.2675 28.3018 9.19673 28.5115 9.09835V9.85076C28.3403 9.93559 28.1573 9.99883 27.9633 10.04C27.7683 10.0817 27.5308 10.1022 27.2504 10.1022ZM30.9651 10.1025C29.849 10.1025 29.2907 9.49363 29.2907 8.27691C29.2907 7.67107 29.4423 7.20878 29.7464 6.88954C30.0496 6.5698 30.4846 6.40968 31.0515 6.40968C31.4664 6.40968 31.8387 6.49049 32.1677 6.65162L31.8792 7.40353C31.7251 7.34229 31.5821 7.2916 31.4492 7.25244C31.3163 7.21329 31.1844 7.19372 31.0515 7.19372C30.5427 7.19372 30.2881 7.55261 30.2881 8.27039C30.2881 8.96709 30.5427 9.31544 31.0515 9.31544C31.2395 9.31544 31.4143 9.29084 31.574 9.24065C31.7347 9.19095 31.8948 9.11265 32.0555 9.00624V9.83796C31.8974 9.93785 31.7372 10.0071 31.576 10.0453C31.4143 10.0834 31.2107 10.1025 30.9651 10.1025ZM36.1959 10.0387H35.2172V7.95818C35.2172 7.44419 35.0252 7.18669 34.6402 7.18669C34.3668 7.18669 34.1688 7.27955 34.047 7.46426C33.9252 7.64898 33.8646 7.94864 33.8646 8.36275V10.0387H32.8859V5.08103H33.8646V6.09094C33.8646 6.16975 33.8565 6.35447 33.8419 6.64559L33.8191 6.9322H33.8702C34.0884 6.58385 34.435 6.40968 34.9095 6.40968C35.3309 6.40968 35.6507 6.52211 35.869 6.74749C36.0867 6.97286 36.1959 7.29561 36.1959 7.71624V10.0387ZM39.1914 8.38829L38.813 8.40084C38.5285 8.40938 38.3173 8.46057 38.1779 8.55394C38.0389 8.6478 37.9697 8.78985 37.9697 8.98109C37.9697 9.25515 38.1279 9.39168 38.4441 9.39168C38.671 9.39168 38.8519 9.32693 38.9878 9.19743C39.1232 9.06793 39.1914 8.89626 39.1914 8.68143V8.38829ZM39.4799 10.0387L39.291 9.55431H39.2652C39.1005 9.76011 38.9307 9.90367 38.7569 9.98297C38.5826 10.0628 38.3557 10.1024 38.0753 10.1024C37.7307 10.1024 37.4599 10.0051 37.2623 9.8093C37.0648 9.61354 36.9657 9.33597 36.9657 8.97457C36.9657 8.5966 37.0986 8.31752 37.3649 8.13833C37.6312 7.95913 38.0329 7.85925 38.5695 7.84017L39.1914 7.8211V7.66549C39.1914 7.30409 39.0055 7.12289 38.6336 7.12289C38.3466 7.12289 38.0101 7.20923 37.6231 7.38139L37.2992 6.72535C37.712 6.51052 38.1693 6.40361 38.672 6.40361C39.153 6.40361 39.5219 6.50751 39.7785 6.71531C40.0352 6.92362 40.1636 7.24035 40.1636 7.66549V10.0387H39.4799ZM42.6809 9.32798C42.8517 9.32798 43.0568 9.29134 43.2969 9.21655V9.93986C43.0528 10.0488 42.7542 10.1025 42.3985 10.1025C42.0074 10.1025 41.723 10.0046 41.5441 9.80784C41.3652 9.61108 41.2763 9.31694 41.2763 8.92342V7.20627H40.8079V6.79517L41.3465 6.47041L41.629 5.7185H42.2545V6.47644H43.2584V7.20627H42.2545V8.92342C42.2545 9.06195 42.2929 9.16385 42.3712 9.2296C42.4495 9.29536 42.5526 9.32798 42.6809 9.32798Z"
      fill="white" />
    <path fill-rule="evenodd" clip-rule="evenodd"
      d="M12.8351 10.9123H7.76076L5.63057 12.9035L5.74779 10.9123H4.22543C3.79545 10.9123 3.44379 10.5132 3.44379 10.0248V4.09185C3.44379 3.60396 3.79545 3.20441 4.22543 3.20441H12.8351C13.2646 3.20441 13.6168 3.60396 13.6168 4.09185V10.0243C13.6168 10.5132 13.2651 10.9123 12.8351 10.9123Z"
      fill="white" />
    <path fill-rule="evenodd" clip-rule="evenodd"
      d="M5.3866 9.20601H9.27813V8.5324H5.3866V9.20601ZM5.3866 7.43616H11.6463V6.76255H5.3866V7.43616ZM5.3866 5.6397H11.6463V4.96559H5.3866V5.6397Z"
      fill="#0099CC" />
  </g>
  <defs>
    <clipPath id="clip0_121_3879">
      <rect width="48" height="15.0583" fill="white" />
    </clipPath>
  </defs>
</svg>
