<svg width="48" height="48" fill="none" xmlns="http://www.w3.org/2000/svg">
  <g clip-path="url(#clip0_121_3865)">
    <path fill-rule="evenodd" clip-rule="evenodd"
      d="M42.5749 0C45.1137 0 47.2587 2.50866 47.2587 5.47848V32.0378C47.2587 34.9201 45.1577 37.2652 42.5749 37.2652H20.7376L9.44577 48L10.0676 37.2652H4.68408C2.10127 37.2652 0 34.9201 0 32.0378V5.47848C0 2.50866 2.14505 0 4.68408 0H42.5749ZM42.5749 2.51318H4.68408C3.55485 2.51318 2.4873 3.95424 2.4873 5.47848V32.0378C2.4873 33.5092 3.49341 34.752 4.68408 34.752H12.7044L12.294 41.8417L19.7514 34.752H42.5749C43.7655 34.752 44.7714 33.5092 44.7714 32.0378V5.47848C44.7714 3.95424 43.7038 2.51318 42.5749 2.51318ZM26.9509 24.914V27.4272H9.79524V24.914H26.9509ZM37.3436 17.8771V20.3902H9.79524V17.8771H37.3436ZM37.3436 10.8402V13.3533H9.79524V10.8402H37.3436Z"
      fill="#333333" stroke="#333333" stroke-width="0.5" />
  </g>
  <defs>
    <clipPath id="clip0_121_3865">
      <rect width="47.6279" height="48" fill="white" />
    </clipPath>
  </defs>
</svg>
