<svg width="48" height="48" fill="none" xmlns="http://www.w3.org/2000/svg">
  <g clip-path="url(#clip0_121_3776)">
    <path fill-rule="evenodd" clip-rule="evenodd"
      d="M24 0C37.2548 0 48 10.7452 48 24C48 37.2548 37.2548 48 24 48C10.7452 48 0 37.2548 0 24C0 10.7452 10.7452 0 24 0ZM24 4.36364C13.1551 4.36364 4.36364 13.1551 4.36364 24C4.36364 34.8449 13.1551 43.6364 24 43.6364C34.8449 43.6364 43.6364 34.8449 43.6364 24C43.6364 13.1551 34.8449 4.36364 24 4.36364ZM32.5614 13.8182L35.6364 16.8945L27.8016 24.7266L35.6364 32.56L32.5614 35.6364L24.7266 27.8016L16.8932 35.6364L13.8182 32.56L21.6516 24.7266L13.8182 16.8945L16.8932 13.8182L24.7266 21.6516L32.5614 13.8182Z"
      fill="#333333" />
  </g>
  <defs>
    <clipPath id="clip0_121_3776">
      <rect width="48" height="48" fill="white" />
    </clipPath>
  </defs>
</svg>
