<svg width="48" height="48" fill="none" xmlns="http://www.w3.org/2000/svg">
  <g clip-path="url(#clip0_121_3762)">
    <path fill-rule="evenodd" clip-rule="evenodd"
      d="M23.7037 0C36.7948 0 47.4074 10.6126 47.4074 23.7037C47.4074 36.7948 36.7948 47.4074 23.7037 47.4074C10.6126 47.4074 0 36.7948 0 23.7037C0 10.6126 10.6126 0 23.7037 0Z"
      fill="#333333" />
    <path fill-rule="evenodd" clip-rule="evenodd"
      d="M32.2394 30.5914L25.2342 23.5861L32.0039 16.8163C32.4749 16.3454 32.4749 15.639 32.0039 15.168C31.533 14.6971 30.8266 14.6971 30.3557 15.168L23.586 21.9378L17.0518 15.4035C16.5808 14.9326 15.8744 14.9326 15.4035 15.4035C14.9326 15.8744 14.9326 16.5809 15.4035 17.0518L21.9377 23.5861L15.168 30.3559C14.6971 30.8269 14.6971 31.5333 15.168 32.0042C15.639 32.3574 16.3454 32.3574 16.8163 32.0042L23.586 25.2344L30.5923 32.2385C31.0621 32.7106 31.7696 32.7106 32.2394 32.2385C32.7103 31.7687 32.7103 31.0611 32.2394 30.5914Z"
      fill="white" />
  </g>
  <defs>
    <clipPath id="clip0_121_3762">
      <rect width="48" height="48" fill="white" />
    </clipPath>
  </defs>
</svg>
