<svg width="48" height="30" fill="none" xmlns="http://www.w3.org/2000/svg">
  <path fill-rule="evenodd" clip-rule="evenodd"
    d="M24 26.5185C20.9341 26.5185 18.0008 25.6478 15.3386 24.3642L19.3167 20.774C20.652 21.8862 22.3632 22.5551 24.227 22.5551C28.4823 22.5551 31.9447 19.0672 31.9447 14.7806C31.9447 13.208 31.4756 11.7458 30.6754 10.5214L35.378 6.27688C40.048 9.17142 43.5491 12.983 44.902 14.5721C42.5915 17.2916 34.01 26.5185 24 26.5185ZM18.9305 14.7806C18.9305 11.8385 21.3064 9.4452 24.227 9.4452C25.3323 9.4452 26.3589 9.78911 27.2094 10.3751L19.5534 17.2855C19.1569 16.5379 18.9305 15.6855 18.9305 14.7806ZM29.5235 14.7806C29.5235 17.7227 27.1476 20.116 24.227 20.116C23.0799 20.116 22.0206 19.7435 21.1526 19.1166L28.8437 12.1745C29.2747 12.9458 29.5235 13.8343 29.5235 14.7806ZM3.09799 14.5709C5.40846 11.8519 13.99 2.62441 24 2.62441C27.2529 2.62441 30.3552 3.60552 33.1432 5.01895L29.0453 8.71776C27.7239 7.64946 26.0496 7.00616 24.227 7.00616C19.9717 7.00616 16.5093 10.494 16.5093 14.7806C16.5093 16.3117 16.9572 17.7367 17.7187 18.9416L13.0687 23.1386C8.17594 20.2154 4.49323 16.2105 3.09799 14.5709ZM47.4316 13.8282C47.3251 13.6885 44.7803 10.3824 40.6485 7.03787C39.5256 6.12932 38.3943 5.31224 37.2587 4.57931L40.3186 1.81709L38.7036 0L35.0699 3.27991C31.3237 1.24635 27.5719 0.185367 24 0.185367C18.6466 0.185367 12.8901 2.5549 7.35151 7.03787C3.21965 10.3824 0.674922 13.6885 0.568388 13.8282L0 14.5715L0.568388 15.3154C0.674922 15.4544 3.21965 18.7611 7.35151 22.1057C8.61903 23.1313 9.89806 24.0411 11.1813 24.8423L8.13539 27.5917L9.75036 29.4088L13.4004 26.1143C16.9899 27.9844 20.5776 28.9576 24 28.9576C29.3534 28.9576 35.1099 26.588 40.6485 22.1057C44.7803 18.7611 47.3251 15.4544 47.4316 15.3154L48 14.5715L47.4316 13.8282Z"
    fill="#8F8F8F" />
</svg>
