<svg width="48" height="30" fill="none" xmlns="http://www.w3.org/2000/svg">
  <g clip-path="url(#clip0_122_3929)">
    <path fill-rule="evenodd" clip-rule="evenodd"
      d="M23.8249 26.325C20.7813 26.325 17.8694 25.4606 15.2267 24.1864L19.1757 20.6224C20.5013 21.7264 22.2 22.3905 24.0502 22.3905C28.2745 22.3905 31.7116 18.9281 31.7116 14.6728C31.7116 13.1117 31.2459 11.6601 30.4515 10.4447L35.1199 6.23108C39.7558 9.10449 43.2313 12.8883 44.5743 14.4657C42.2807 17.1654 33.7618 26.325 23.8249 26.325ZM18.7924 14.6728C18.7924 11.7521 21.1509 9.37628 24.0502 9.37628C25.1474 9.37628 26.1665 9.71767 27.0108 10.2994L19.4107 17.1594C19.0171 16.4173 18.7924 15.571 18.7924 14.6728ZM29.308 14.6728C29.308 17.5934 26.9495 19.9692 24.0502 19.9692C22.9115 19.9692 21.8599 19.5994 20.9983 18.9771L28.6332 12.0857C29.0611 12.8514 29.308 13.7333 29.308 14.6728ZM3.07538 14.4645C5.36899 11.7654 13.8879 2.60526 23.8249 2.60526C27.0541 2.60526 30.1336 3.57921 32.9014 4.98232L28.8333 8.65414C27.5216 7.59363 25.8595 6.95503 24.0502 6.95503C19.8259 6.95503 16.3888 10.4174 16.3888 14.6728C16.3888 16.1927 16.8335 17.6073 17.5894 18.8034L12.9733 22.9698C8.11628 20.0679 4.46044 16.0922 3.07538 14.4645ZM47.0855 13.7273C46.9797 13.5886 44.4536 10.3066 40.3519 6.98651C39.2372 6.08459 38.1141 5.27348 36.9869 4.54589L40.0244 1.80383L38.4212 0L34.814 3.25597C31.0951 1.23726 27.3707 0.184015 23.8249 0.184015C18.5105 0.184015 12.796 2.53626 7.29786 6.98651C3.19616 10.3066 0.669997 13.5886 0.56424 13.7273L0 14.4651L0.56424 15.2036C0.669997 15.3416 3.19616 18.6242 7.29786 21.9444C8.55613 22.9625 9.82582 23.8656 11.0997 24.661L8.07602 27.3904L9.67921 29.1942L13.3026 25.9237C16.8659 27.7802 20.4274 28.7463 23.8249 28.7463C29.1392 28.7463 34.8537 26.394 40.3519 21.9444C44.4536 18.6242 46.9797 15.3416 47.0855 15.2036L47.6497 14.4651L47.0855 13.7273Z"
      fill="#333333" />
  </g>
  <defs>
    <clipPath id="clip0_122_3929">
      <rect width="48" height="29.1942" fill="white" />
    </clipPath>
  </defs>
</svg>
