<svg width="48" height="29" fill="none" xmlns="http://www.w3.org/2000/svg">
  <g clip-path="url(#clip0_122_3934)">
    <path fill-rule="evenodd" clip-rule="evenodd"
      d="M23.901 0C29.2323 0 34.9657 2.35224 40.4809 6.80249C44.5957 10.122 47.1299 13.4046 47.236 13.5426L47.8021 14.2811L47.236 15.0196C47.1299 15.1576 44.5957 18.4402 40.4809 21.7597C34.9657 26.21 29.2323 28.5622 23.901 28.5622C18.5697 28.5622 12.837 26.21 7.32119 21.7597C3.20638 18.4402 0.672139 15.1576 0.566044 15.0196L0 14.2811L0.566044 13.5426C0.672139 13.4046 3.20638 10.122 7.32119 6.80249C12.837 2.35224 18.5697 0 23.901 0ZM23.901 2.42125C13.9329 2.42125 5.38616 11.5814 3.08521 14.2805C5.39037 16.979 13.9504 26.141 23.901 26.141C33.8698 26.141 42.4159 16.9808 44.7174 14.2817C42.4123 11.5832 33.8517 2.42125 23.901 2.42125ZM24.1272 6.77089C28.365 6.77089 31.8131 10.2333 31.8131 14.4886C31.8131 18.744 28.365 22.2063 24.1272 22.2063C19.8894 22.2063 16.4413 18.744 16.4413 14.4886C16.4413 10.2333 19.8894 6.77089 24.1272 6.77089ZM24.1272 9.19214C21.2186 9.19214 18.8526 11.568 18.8526 14.4886C18.8526 17.4092 21.2186 19.7851 24.1272 19.7851C27.0358 19.7851 29.4018 17.4092 29.4018 14.4886C29.4018 11.568 27.0358 9.19214 24.1272 9.19214Z"
      fill="#333333" />
  </g>
  <defs>
    <clipPath id="clip0_122_3934">
      <rect width="48" height="28.5622" fill="white" />
    </clipPath>
  </defs>
</svg>
