<svg width="48" height="29" fill="none" xmlns="http://www.w3.org/2000/svg">
  <path fill-rule="evenodd" clip-rule="evenodd"
    d="M24 0C29.3534 0 35.1105 2.36198 40.6485 6.83066C44.7803 10.1639 47.3251 13.4601 47.4316 13.5987L48 14.3403L47.4316 15.0818C47.3251 15.2204 44.7803 18.5166 40.6485 21.8498C35.1105 26.3185 29.3534 28.6805 24 28.6805C18.6466 28.6805 12.8901 26.3185 7.35151 21.8498C3.21965 18.5166 0.674922 15.2204 0.568388 15.0818L0 14.3403L0.568388 13.5987C0.674922 13.4601 3.21965 10.1639 7.35151 6.83066C12.8901 2.36198 18.6466 0 24 0ZM24 2.43127C13.9906 2.43127 5.40846 11.6294 3.09798 14.3396C5.4127 17.0493 14.0081 26.2492 24 26.2492C34.01 26.2492 42.5915 17.0511 44.9026 14.3409C42.5879 11.6312 33.9919 2.43127 24 2.43127ZM24.2271 6.79893C28.4825 6.79893 31.9448 10.2757 31.9448 14.5486C31.9448 18.8216 28.4825 22.2983 24.2271 22.2983C19.9718 22.2983 16.5094 18.8216 16.5094 14.5486C16.5094 10.2757 19.9718 6.79893 24.2271 6.79893ZM24.2271 9.23021C21.3065 9.23021 18.9306 11.6159 18.9306 14.5486C18.9306 17.4813 21.3065 19.867 24.2271 19.867C27.1477 19.867 29.5236 17.4813 29.5236 14.5486C29.5236 11.6159 27.1477 9.23021 24.2271 9.23021Z"
    fill="#8F8F8F" />
</svg>
