<svg width="48" height="48" fill="none" xmlns="http://www.w3.org/2000/svg">
  <g clip-path="url(#clip0_121_3728)">
    <path fill-rule="evenodd" clip-rule="evenodd"
      d="M23.1664 34.2997C26.2287 34.2997 28.865 36.2294 29.7684 39.1158H47.8835V42.7231H29.8947C29.1597 45.8374 26.4136 48 23.1664 48C19.9192 48 17.1723 45.8374 16.4381 42.7231H7.42391e-05V39.1158H16.5643C17.4678 36.2294 20.104 34.2997 23.1664 34.2997ZM23.1664 37.4617C21.6378 37.4617 20.2421 38.4141 19.6905 39.8323C19.5242 40.26 19.4396 40.7038 19.4396 41.1499C19.4396 41.446 19.4804 41.7546 19.5613 42.0655C19.9852 43.6983 21.467 44.8387 23.1664 44.8387C24.865 44.8387 26.3475 43.6983 26.7707 42.0647C26.8516 41.7539 26.8932 41.446 26.8932 41.1499C26.8932 40.7038 26.8078 40.26 26.6422 39.8323C26.0906 38.4141 24.6942 37.4617 23.1664 37.4617ZM41.0794 16.5295C44.8953 16.5295 48 19.6019 48 23.3797C48 27.1567 44.8953 30.2291 41.0794 30.2291C37.9881 30.2291 35.3445 28.2781 34.4595 25.3586H0V21.7513H34.3623C35.1195 18.6694 37.8612 16.5295 41.0794 16.5295ZM41.0794 19.6908C39.4039 19.6908 37.9265 20.8114 37.487 22.4163C37.3979 22.7404 37.3526 23.0644 37.3526 23.3797C37.3526 23.8066 37.4313 24.2343 37.5857 24.6495C38.1255 26.0956 39.5286 27.0678 41.0794 27.0678C43.1344 27.0678 44.8062 25.413 44.8062 23.3797C44.8062 21.3457 43.1344 19.6908 41.0794 19.6908ZM6.94759 0C10.0998 0 12.8303 2.08546 13.635 5.08947H47.8837V8.69678H13.6098C12.7746 11.6494 10.0545 13.6995 6.94759 13.6995C3.13096 13.6995 0.027023 10.6272 0.027023 6.85014C0.027023 3.07235 3.13096 0 6.94759 0ZM6.94759 3.16126C4.89191 3.16126 3.22079 4.81611 3.22079 6.85014C3.22079 8.88343 4.89191 10.5383 6.94759 10.5383C9.00252 10.5383 10.6744 8.88343 10.6744 6.85014C10.6744 4.81611 9.00252 3.16126 6.94759 3.16126Z"
      fill="#333333" />
  </g>
  <defs>
    <clipPath id="clip0_121_3728">
      <rect width="48" height="48" fill="white" />
    </clipPath>
  </defs>
</svg>
