<svg width="48" height="42" fill="none" xmlns="http://www.w3.org/2000/svg">
  <g clip-path="url(#clip0_58_3576)">
    <path fill-rule="evenodd" clip-rule="evenodd"
      d="M13.1313 3.89189C13.1048 3.89189 13.0794 3.89189 13.0525 3.89266C7.99366 3.89266 3.89189 7.89385 3.89189 12.8122C3.89189 15.1536 4.81309 17.3646 6.48571 19.0372L24.0001 36.3243L41.5362 19.0155C43.1869 17.3646 44.1081 15.1536 44.1081 12.8122C44.1081 7.86813 39.9837 3.87166 34.8851 3.89189C28.1459 3.89189 25.1102 12.294 24.955 12.6799L23.9998 14.9295L23.0495 12.6221C22.8943 12.3092 19.8157 3.89189 13.1313 3.89189ZM24.0001 41.5135L3.76785 21.7373C1.33515 19.3281 0 16.1363 0 12.7408C0 5.71612 5.79492 0.000691242 12.9178 0.000691242C12.958 0 12.9987 0 13.0386 0C18.7747 0 22.1702 3.99603 23.9939 7.28528C25.8105 3.99469 29.2047 0 34.978 0C35.0185 0 35.0587 0.000691242 35.0998 0.000691242C42.2051 0.000691242 48 5.71612 48 12.7408C48 16.1363 46.6648 19.3281 44.2403 21.7292L44.1117 21.8524L24.0001 41.5135Z"
      fill="#333333" />
  </g>
  <defs>
    <clipPath id="clip0_58_3576">
      <rect width="48" height="41.5135" fill="white" />
    </clipPath>
  </defs>
</svg>
