<svg width="48" height="48" fill="none" xmlns="http://www.w3.org/2000/svg">
  <path
    d="M24 48C37.2548 48 48 37.2548 48 24C48 10.7452 37.2548 0 24 0C10.7452 0 0 10.7452 0 24C0 37.2548 10.7452 48 24 48Z"
    fill="#F4F4F4" />
  <path fill-rule="evenodd" clip-rule="evenodd"
    d="M21.7197 29.4485V28.1547C21.7197 27.0358 21.9687 26.0625 22.4668 25.235C22.9648 24.4074 23.8759 23.5274 25.2 22.595C26.4755 21.7208 27.3167 21.0098 27.7236 20.462C28.1306 19.9142 28.334 19.3023 28.334 18.6262C28.334 17.8686 28.0425 17.2917 27.4594 16.8954C26.8763 16.4991 26.0625 16.3009 25.0178 16.3009C23.1956 16.3009 21.1184 16.872 18.7861 18.0143L16.8 14.1854C19.5089 12.7285 22.3818 12 25.4186 12C27.921 12 29.9102 12.5769 31.3861 13.7309C32.862 14.8848 33.6 16.4233 33.6 18.3465C33.6 19.6286 33.2963 20.7359 32.6889 21.6683C32.0815 22.6008 30.9275 23.6498 29.2269 24.8154C28.0607 25.6429 27.3228 26.2723 27.013 26.7036C26.7032 27.1348 26.5484 27.7001 26.5484 28.3995V29.4485H21.7197ZM21.1366 35.4278C21.1366 34.4487 21.41 33.7086 21.9566 33.2074C22.5032 32.7062 23.2989 32.4556 24.3436 32.4556C25.3518 32.4556 26.1323 32.712 26.685 33.2249C27.2377 33.7377 27.5141 34.472 27.5141 35.4278C27.5141 36.3486 27.2347 37.0742 26.6759 37.6045C26.1171 38.1348 25.3397 38.4 24.3436 38.4C23.3232 38.4 22.5336 38.1407 21.9748 37.622C21.416 37.1033 21.1366 36.3719 21.1366 35.4278Z"
    fill="#8F8F8F" />
</svg>
