<svg width="48" height="48" fill="none" xmlns="http://www.w3.org/2000/svg">
  <g clip-path="url(#clip0_121_3808)">
    <path
      d="M24 48C37.2548 48 48 37.2548 48 24C48 10.7452 37.2548 0 24 0C10.7452 0 0 10.7452 0 24C0 37.2548 10.7452 48 24 48Z"
      fill="#21CDAB" />
    <path fill-rule="evenodd" clip-rule="evenodd"
      d="M20.4515 29.8746V28.5738C20.4515 27.4488 20.6918 26.4703 21.1722 25.6383C21.6527 24.8062 22.5316 23.9215 23.809 22.984C25.0394 22.1051 25.851 21.3902 26.2435 20.8394C26.6361 20.2887 26.8324 19.6734 26.8324 18.9937C26.8324 18.232 26.5512 17.6519 25.9886 17.2535C25.4261 16.8551 24.641 16.6559 23.6332 16.6559C21.8754 16.6559 19.8715 17.2301 17.6215 18.3785L15.7054 14.5289C18.3187 13.064 21.0902 12.3316 24.0199 12.3316C26.434 12.3316 28.3529 12.9117 29.7767 14.0719C31.2006 15.232 31.9125 16.7789 31.9125 18.7125C31.9125 20.0016 31.6195 21.1148 31.0336 22.0523C30.4476 22.9898 29.3344 24.0445 27.6937 25.2164C26.5687 26.0484 25.8568 26.6812 25.558 27.1148C25.2592 27.5484 25.1097 28.1168 25.1097 28.8199V29.8746H20.4515ZM19.889 35.8863C19.889 34.9019 20.1527 34.1578 20.6801 33.6539C21.2074 33.15 21.975 32.898 22.9828 32.898C23.9554 32.898 24.7084 33.1559 25.2416 33.6715C25.7748 34.1871 26.0414 34.9254 26.0414 35.8863C26.0414 36.8121 25.7719 37.5416 25.2328 38.0748C24.6937 38.608 23.9437 38.8746 22.9828 38.8746C21.9984 38.8746 21.2367 38.6139 20.6976 38.0924C20.1586 37.5709 19.889 36.8355 19.889 35.8863Z"
      fill="white" />
  </g>
  <defs>
    <clipPath id="clip0_121_3808">
      <rect width="48" height="48" fill="white" />
    </clipPath>
  </defs>
</svg>
