<svg width="48" height="48" fill="none" xmlns="http://www.w3.org/2000/svg">
  <g clip-path="url(#clip0_121_3820)">
    <path fill-rule="evenodd" clip-rule="evenodd"
      d="M24 0C37.2537 0 48 10.7463 48 24C48 37.2537 37.2537 48 24 48C10.7463 48 0 37.2537 0 24C0 10.7463 10.7463 0 24 0ZM24 3.9403C12.8955 3.9403 3.9403 12.8955 3.9403 24C3.9403 35.1045 12.8955 44.0597 24 44.0597C35.1045 44.0597 44.0597 35.1045 44.0597 24C44.0597 12.8955 35.1045 3.9403 24 3.9403ZM26.5967 21.3134V37.6119H21.9399V21.3134H26.5967ZM24.2685 10.7459C26.2458 10.7459 27.8506 12.3507 27.8506 14.328C27.8506 16.3053 26.2458 17.9101 24.2685 17.9101C22.2912 17.9101 20.6864 16.3053 20.6864 14.328C20.6864 12.3507 22.2912 10.7459 24.2685 10.7459Z"
      fill="#333333" />
  </g>
  <defs>
    <clipPath id="clip0_121_3820">
      <rect width="48" height="48" fill="white" />
    </clipPath>
  </defs>
</svg>
