<svg width="48" height="46" fill="none" xmlns="http://www.w3.org/2000/svg">
  <g clip-path="url(#clip0_121_3826)">
    <path fill-rule="evenodd" clip-rule="evenodd"
      d="M24 0C37.2537 0 48 10.2689 48 22.9339C48 35.5989 37.2537 45.8677 24 45.8677C10.7463 45.8677 0 35.5989 0 22.9339C0 10.2689 10.7463 0 24 0ZM24 3.76526C12.8955 3.76526 3.9403 12.3227 3.9403 22.9339C3.9403 33.5451 12.8955 42.1025 24 42.1025C35.1045 42.1025 44.0597 33.5451 44.0597 22.9339C44.0597 12.3227 35.1045 3.76526 24 3.76526ZM26.5967 20.3666V35.9411H21.9399V20.3666H26.5967ZM24.2685 10.2686C26.2458 10.2686 27.8506 11.802 27.8506 13.6915C27.8506 15.581 26.2458 17.1145 24.2685 17.1145C22.2912 17.1145 20.6864 15.581 20.6864 13.6915C20.6864 11.802 22.2912 10.2686 24.2685 10.2686Z"
      fill="#2D69AA" />
  </g>
  <defs>
    <clipPath id="clip0_121_3826">
      <rect width="48" height="45.8677" fill="white" />
    </clipPath>
  </defs>
</svg>
