<svg width="48" height="48" fill="none" xmlns="http://www.w3.org/2000/svg">
  <path fill-rule="evenodd" clip-rule="evenodd"
    d="M24 0C37.2537 0 48 10.7463 48 24C48 37.2537 37.2537 48 24 48C10.7463 48 0 37.2537 0 24C0 10.7463 10.7463 0 24 0ZM24 3.9403C12.8955 3.9403 3.9403 12.8955 3.9403 24C3.9403 35.1045 12.8955 44.0597 24 44.0597C35.1045 44.0597 44.0597 35.1045 44.0597 24C44.0597 12.8955 35.1045 3.9403 24 3.9403ZM26.5073 21.3136V37.6121H21.8506V21.3136H26.5073ZM24.1789 11.5823C25.9585 11.5823 27.4028 13.0801 27.4028 14.9256C27.4028 16.771 25.9585 18.2688 24.1789 18.2688C22.3977 18.2688 20.955 16.771 20.955 14.9256C20.955 13.0801 22.3977 11.5823 24.1789 11.5823Z"
    fill="white" />
</svg>
