<svg width="48" height="10" fill="none" xmlns="http://www.w3.org/2000/svg">
  <g clip-path="url(#clip0_122_3939)">
    <path
      d="M47.0974 0H0.902588C0.404102 0 0 0.404102 0 0.902588V8.51964C0 9.01812 0.404102 9.42222 0.902588 9.42222H47.0974C47.5959 9.42222 48 9.01812 48 8.51964V0.902588C48 0.404102 47.5959 0 47.0974 0Z"
      fill="#F4F4F4" />
    <path
      d="M17.0427 2.36829H15.9876C15.9876 3.21808 15.5901 3.99358 14.8994 4.50439L14.483 4.81087L16.1011 6.97484H17.4307L15.9403 4.98269C16.6453 4.29542 17.0427 3.36668 17.0427 2.36829ZM13.2717 2.36829H14.3505V6.97484H13.2717V2.36829ZM17.743 2.36829H18.7602V6.97484H17.743V2.36829ZM27.6837 3.70103C27.2958 3.70103 26.9267 3.81712 26.6807 4.14682V3.78926H25.7155V6.97484H26.6949V5.30311C26.6949 4.82016 27.0261 4.58333 27.4235 4.58333C27.8493 4.58333 28.0954 4.83409 28.0954 5.29846V6.97948H29.0653V4.95019C29.0653 4.20719 28.4644 3.70103 27.6837 3.70103ZM21.8357 3.78926V3.99358C21.5612 3.80783 21.23 3.70103 20.8705 3.70103C19.9242 3.70103 19.1577 4.45331 19.1577 5.38205C19.1577 6.31079 19.9242 7.06307 20.8705 7.06307C21.23 7.06307 21.5612 6.95626 21.8357 6.77052V6.97484H22.8056V3.78926H21.8357ZM20.9509 6.19934C20.4635 6.19934 20.0708 5.83249 20.0708 5.38205C20.0708 4.93161 20.4635 4.56476 20.9509 4.56476C21.4382 4.56476 21.8309 4.93161 21.8309 5.38205C21.8309 5.83249 21.4382 6.19934 20.9509 6.19934ZM24.3102 4.20255V3.78926H23.3166V6.97484H24.3149V5.48885C24.3149 4.98733 24.8685 4.718 25.2518 4.718C25.2565 4.718 25.2612 4.718 25.2612 4.718V3.78926C24.8685 3.78926 24.5042 3.95643 24.3102 4.20255ZM32.084 3.78926V3.99358C31.8096 3.80783 31.4784 3.70103 31.1188 3.70103C30.1725 3.70103 29.406 4.45331 29.406 5.38205C29.406 6.31079 30.1725 7.06307 31.1188 7.06307C31.4784 7.06307 31.8096 6.95626 32.084 6.77052V6.97484H33.054V3.78926H32.084ZM31.1992 6.19934C30.7119 6.19934 30.3192 5.83249 30.3192 5.38205C30.3192 4.93161 30.7119 4.56476 31.1992 4.56476C31.6866 4.56476 32.0793 4.93161 32.0793 5.38205C32.084 5.83249 31.6866 6.19934 31.1992 6.19934ZM33.7069 3.70567C33.8346 3.70567 33.9387 3.80783 33.9387 3.93321C33.9387 3.97875 33.925 4.02122 33.9014 4.05685L33.9328 4.1087L33.8538 4.10908C33.8137 4.14135 33.7626 4.16076 33.7069 4.16076C33.5791 4.16076 33.4798 4.05859 33.4751 3.93321C33.4751 3.80783 33.5791 3.70567 33.7069 3.70567ZM33.7861 3.99877H33.7046V4.1087L33.6463 4.10897C33.6652 4.11545 33.6855 4.11896 33.7069 4.11896C33.7531 4.11896 33.7962 4.10089 33.8292 4.07128L33.7861 3.99877ZM33.7069 3.74747C33.6075 3.74747 33.5224 3.83105 33.5224 3.93321C33.5224 4.00865 33.5662 4.07395 33.6311 4.10296L33.6312 3.80783H33.7861C33.8097 3.80783 33.8311 3.81025 33.8497 3.81486C33.8163 3.7738 33.7653 3.74747 33.7069 3.74747ZM33.7861 3.85412H33.7046V3.94669H33.7861C33.8431 3.94669 33.8595 3.92934 33.8595 3.90041C33.8595 3.87148 33.835 3.85412 33.7861 3.85412ZM34.0901 5.84642C33.7542 5.84642 33.4798 6.11575 33.4798 6.44546C33.4798 6.77516 33.7542 7.0445 34.0901 7.0445C34.4261 7.0445 34.7005 6.77516 34.7005 6.44546C34.7005 6.11111 34.4261 5.84642 34.0901 5.84642Z"
      fill="#333333" />
  </g>
  <defs>
    <clipPath id="clip0_122_3939">
      <rect width="48" height="9.52436" fill="white" />
    </clipPath>
  </defs>
</svg>
