<svg width="48" height="15" fill="none" xmlns="http://www.w3.org/2000/svg">
  <path
    d="M46.6667 0H1.33333C0.596954 0 0 0.596954 0 1.33333V12.728C0 13.4644 0.596954 14.0613 1.33333 14.0613H46.6667C47.403 14.0613 48 13.4644 48 12.728V1.33333C48 0.596954 47.403 0 46.6667 0Z"
    fill="white" />
  <path
    d="M16.2115 3.5343H14.7891C14.7891 4.69364 14.2533 5.75162 13.322 6.44849L12.7607 6.86661L14.9422 9.8188H16.7346L14.7253 7.10101C15.6757 6.1634 16.2115 4.89637 16.2115 3.5343ZM11.1277 3.5343H12.5821V9.8188H11.1277V3.5343ZM17.1556 3.5343H18.527V9.8188H17.1556V3.5343ZM30.5571 5.3525C30.0341 5.3525 29.5365 5.51088 29.2048 5.96068V5.47287H27.9036V9.8188H29.224V7.53814C29.224 6.87928 29.6705 6.55619 30.2063 6.55619C30.7804 6.55619 31.112 6.89828 31.112 7.5318V9.82514H32.4197V7.05666C32.4197 6.04304 31.6096 5.3525 30.5571 5.3525ZM22.6731 5.47287V5.75162C22.3031 5.49821 21.8566 5.3525 21.3719 5.3525C20.0961 5.3525 19.0628 6.3788 19.0628 7.64584C19.0628 8.91287 20.0961 9.93917 21.3719 9.93917C21.8566 9.93917 22.3031 9.79346 22.6731 9.54006V9.8188H23.9807V5.47287H22.6731ZM21.4803 8.76083C20.8233 8.76083 20.2939 8.26035 20.2939 7.64584C20.2939 7.03132 20.8233 6.53084 21.4803 6.53084C22.1373 6.53084 22.6667 7.03132 22.6667 7.64584C22.6667 8.26035 22.1373 8.76083 21.4803 8.76083ZM26.0091 6.0367V5.47287H24.6696V9.8188H26.0155V7.79155C26.0155 7.10735 26.7618 6.73991 27.2785 6.73991C27.2849 6.73991 27.2912 6.73991 27.2912 6.73991V5.47287C26.7618 5.47287 26.2707 5.70094 26.0091 6.0367ZM36.4892 5.47287V5.75162C36.1193 5.49821 35.6728 5.3525 35.188 5.3525C33.9123 5.3525 32.8789 6.3788 32.8789 7.64584C32.8789 8.91287 33.9123 9.93917 35.188 9.93917C35.6728 9.93917 36.1193 9.79346 36.4892 9.54006V9.8188H37.7969V5.47287H36.4892ZM35.2964 8.76083C34.6394 8.76083 34.11 8.26035 34.11 7.64584C34.11 7.03132 34.6394 6.53084 35.2964 6.53084C35.9534 6.53084 36.4829 7.03132 36.4829 7.64584C36.4892 8.26035 35.9534 8.76083 35.2964 8.76083ZM38.6771 5.35884C38.8001 5.35884 38.9068 5.42989 38.9578 5.53279C38.9973 5.55668 39.0195 5.59196 39.0195 5.63636C39.0195 5.67044 39.0081 5.69903 38.9851 5.72213C38.9788 5.75905 38.9656 5.79418 38.9469 5.82576L39.0195 5.9472H38.8994L38.8767 5.90792C38.8225 5.95271 38.7529 5.97968 38.6771 5.97968C38.5049 5.97968 38.3709 5.84031 38.3646 5.66926C38.3646 5.49821 38.5049 5.35884 38.6771 5.35884ZM38.6771 5.41585C38.5432 5.41585 38.4284 5.52988 38.4284 5.66926C38.4284 5.77216 38.4875 5.86124 38.5749 5.90082L38.5751 5.49821H38.8033C38.8254 5.49821 38.8461 5.49966 38.8653 5.50247C38.8202 5.44951 38.7534 5.41585 38.6771 5.41585ZM38.8033 5.56729H38.6832V5.70544H38.8033C38.8874 5.70544 38.9114 5.67953 38.9114 5.63636C38.9114 5.59319 38.8754 5.56729 38.8033 5.56729ZM39.1938 8.27936C38.7409 8.27936 38.3709 8.6468 38.3709 9.09659C38.3709 9.54639 38.7409 9.91383 39.1938 9.91383C39.6467 9.91383 40.0166 9.54639 40.0166 9.09659C40.0166 8.64046 39.6467 8.27936 39.1938 8.27936Z"
    fill="#333333" />
</svg>
