<svg width="48" height="48" fill="none" xmlns="http://www.w3.org/2000/svg">
  <path
    d="M24 48C10.7445 48 0 37.2555 0 24C0 10.7445 10.7445 0 24 0C37.2555 0 48 10.7445 48 24C48 37.2555 37.2555 48 24 48Z"
    fill="white" />
  <path
    d="M21.963 11.493C22.6518 10.8572 23.4591 10.3634 24.3388 10.0397C25.2185 9.71598 26.1533 9.56872 27.0899 9.60633C28.0265 9.64394 28.9465 9.86568 29.7974 10.2589C30.6483 10.6521 31.4134 11.209 32.049 11.898L32.4405 12.357C33.5893 13.8283 34.143 15.6776 33.9919 17.5382C33.8407 19.3987 32.9957 21.1344 31.6245 22.401L30.819 23.145C31.7527 24.6163 32.1406 26.3687 31.915 28.0966C31.6894 29.8246 30.8647 31.4186 29.5845 32.601L24.0525 37.707C23.3639 38.3428 22.5568 38.8368 21.6772 39.1606C20.7976 39.4844 19.8629 39.6317 18.9263 39.5941C17.9898 39.5565 17.0699 39.3347 16.2191 38.9414C15.3683 38.5481 14.6034 37.991 13.968 37.302L13.575 36.843C12.4264 35.3715 11.8729 33.522 12.0244 31.6615C12.1758 29.801 13.0211 28.0653 14.3925 26.799L15.1995 26.055C14.2656 24.5838 13.8774 22.8315 14.1028 21.1036C14.3281 19.3756 15.1525 17.7815 16.4325 16.599L21.963 11.493ZM28.9755 24.8475L26.0955 27.507C24.848 28.6585 23.231 29.3278 21.5347 29.3949C19.8383 29.462 18.1735 28.9224 16.839 27.873L16.053 28.596C15.0956 29.4788 14.5214 30.7012 14.4533 32.0017C14.3852 33.3023 14.8285 34.5779 15.6885 35.556L15.765 35.643C16.1828 36.096 16.6858 36.4622 17.2452 36.7206C17.8046 36.9791 18.4095 37.1247 19.0253 37.1493C19.641 37.1738 20.2556 37.0767 20.8338 36.8635C21.412 36.6504 21.9425 36.3253 22.395 35.907L27.924 30.804C28.7261 30.0624 29.263 29.0784 29.4527 28.0026C29.6423 26.9269 29.4757 25.8186 28.9755 24.8475ZM27.3435 23.0175C26.4682 22.4423 25.4257 22.1764 24.3819 22.2623C23.338 22.3482 22.353 22.7809 21.5835 23.4915L18.672 26.1795C19.5467 26.7558 20.5892 27.0226 21.6332 26.9372C22.6772 26.8519 23.6626 26.4193 24.432 25.7085L27.342 23.019L27.3435 23.0175ZM30.249 13.557C29.8316 13.1043 29.3291 12.7384 28.7702 12.4802C28.2113 12.2219 27.6069 12.0763 26.9917 12.0518C26.3765 12.0273 25.7625 12.1243 25.1848 12.3373C24.6071 12.5502 24.0771 12.875 23.625 13.293L18.09 18.393C17.2872 19.1344 16.7497 20.1186 16.56 21.1949C16.3704 22.2711 16.539 23.3798 17.04 24.351L19.92 21.6915C21.1669 20.5396 22.7836 19.8698 24.4798 19.8025C26.176 19.7351 27.8407 20.2746 29.175 21.324L29.961 20.601C30.9176 19.7177 31.4913 18.4956 31.5597 17.1954C31.628 15.8952 31.1857 14.6197 30.327 13.641L30.249 13.557Z"
    fill="#333333" />
</svg>
