<svg width="48" height="48" fill="none" xmlns="http://www.w3.org/2000/svg">
  <g clip-path="url(#clip0_121_3887)">
    <path
      d="M24 48C37.2548 48 48 37.2548 48 24C48 10.7452 37.2548 0 24 0C10.7452 0 0 10.7452 0 24C0 37.2548 10.7452 48 24 48Z"
      fill="#333333" />
    <path fill-rule="evenodd" clip-rule="evenodd"
      d="M27.0409 23.9846C26.9302 25.5657 26.6124 26.7073 26.0906 27.4093C25.5689 28.1113 24.8084 28.4638 23.8091 28.4638C21.8992 28.4638 20.9442 27.2954 20.9442 24.9633C20.9442 23.4708 21.33 22.2929 22.1016 21.4312C22.8731 20.5679 23.953 20.1363 25.3412 20.1363C26.0527 20.1363 26.6914 20.1979 27.2575 20.3197L27.0409 23.9846ZM36.4356 16.5377C35.3921 14.7021 33.9091 13.287 31.9881 12.291C30.067 11.2965 27.8851 10.8 25.4408 10.8C22.5427 10.8 19.9797 11.4324 17.7536 12.6973C15.5274 13.9653 13.8119 15.7124 12.6072 17.9386C11.4008 20.1679 10.8 22.647 10.8 25.3776C10.8 29.3145 11.9795 32.3865 14.3384 34.5984C16.699 36.8104 19.9892 37.9171 24.2076 37.9171C27.1073 37.9171 29.7445 37.4128 32.1209 36.4072V33.2229C30.7564 33.7193 29.3666 34.0988 27.9579 34.3581C26.546 34.619 25.2526 34.7486 24.0763 34.7486C20.9663 34.7486 18.5916 33.9328 16.9551 32.3027C15.3156 30.671 14.4966 28.3294 14.4966 25.278C14.4966 23.0123 14.9393 21.0138 15.8215 19.2825C16.7037 17.5528 17.9734 16.2279 19.6287 15.3108C21.2826 14.3922 23.2304 13.9337 25.474 13.9337C27.2069 13.9337 28.7484 14.2942 30.0971 15.012C31.4473 15.7314 32.4924 16.7733 33.2371 18.1378C33.9818 19.5038 34.3533 21.077 34.3533 22.8573C34.3533 24.5269 34.1431 25.8772 33.7209 26.9128C33.2988 27.9452 32.7327 28.4638 32.0213 28.4638C31.177 28.4638 30.7564 27.6938 30.7564 26.157L31.139 18.0477C30.3943 17.7915 29.4473 17.5734 28.2978 17.3915C27.1484 17.2097 26.0969 17.118 25.142 17.118C22.7435 17.118 20.7987 17.8311 19.3109 19.2572C17.8231 20.6849 17.08 22.5648 17.08 24.8969C17.08 26.9428 17.6461 28.554 18.7781 29.7303C19.9118 30.9098 21.4596 31.4979 23.4265 31.4979C25.2811 31.4979 26.8084 30.7849 28.0069 29.3571H28.2725C28.5508 29.9991 29.0061 30.5161 29.6402 30.9098C30.271 31.3019 30.9983 31.4979 31.822 31.4979C33.0537 31.4979 34.1367 31.1216 35.0696 30.3706C36.0024 29.618 36.725 28.5808 37.2357 27.2606C37.7463 25.9389 38.0025 24.4811 38.0025 22.8905C38.0025 20.4904 37.4791 18.3734 36.4356 16.5377Z"
      fill="white" />
  </g>
  <defs>
    <clipPath id="clip0_121_3887">
      <rect width="48" height="48" fill="white" />
    </clipPath>
  </defs>
</svg>
