<svg width="48" height="10" fill="none" xmlns="http://www.w3.org/2000/svg">
  <g clip-path="url(#clip0_122_3946)">
    <path fill-rule="evenodd" clip-rule="evenodd"
      d="M0.9 0H47.1C47.5971 0 48 0.402944 48 0.9V8.7C48 9.19706 47.5971 9.6 47.1 9.6H0.9C0.402944 9.6 0 9.19706 0 8.7V0.9C0 0.402944 0.402944 0 0.9 0Z"
      fill="#F4F4F4" />
    <path
      d="M17.5353 2.74138H16.191C16.099 2.74138 16.0208 2.81348 16.0065 2.91145L15.4628 6.63032C15.452 6.70369 15.5046 6.76986 15.5736 6.76986H16.2154C16.3074 6.76986 16.3856 6.69776 16.4 6.59957L16.5466 5.59654C16.5608 5.49835 16.6392 5.42625 16.731 5.42625H17.1565C18.0421 5.42625 18.5531 4.96397 18.6866 4.04787C18.7467 3.64708 18.6891 3.33217 18.5152 3.11163C18.3241 2.86946 17.9853 2.74138 17.5353 2.74138ZM17.6904 4.09961C17.6169 4.62001 17.2483 4.62001 16.892 4.62001H16.6891L16.8314 3.64814C16.8399 3.5894 16.8871 3.54614 16.9421 3.54614H17.0351C17.2778 3.54614 17.5068 3.54614 17.6252 3.69543C17.6957 3.7845 17.7173 3.91682 17.6904 4.09961Z"
      fill="#253B80" />
    <path
      d="M21.5477 4.04558H20.8852C20.8288 4.04558 20.78 4.08841 20.7713 4.14657L20.742 4.3389L20.6957 4.26919C20.5523 4.05314 20.2324 3.98091 19.9133 3.98091C19.1812 3.98091 18.556 4.55642 18.4342 5.36373C18.3709 5.76644 18.4609 6.15151 18.681 6.42006C18.8828 6.66698 19.1717 6.76986 19.5154 6.76986C20.1052 6.76986 20.4323 6.37618 20.4323 6.37618L20.4028 6.56724C20.3916 6.64031 20.4459 6.70582 20.5164 6.70582H21.1132C21.208 6.70582 21.2881 6.63443 21.3031 6.53722L21.6611 4.18374C21.6725 4.1113 21.6185 4.04558 21.5477 4.04558ZM20.6243 5.38389C20.5603 5.77673 20.26 6.04044 19.8768 6.04044C19.6845 6.04044 19.5307 5.97641 19.432 5.85505C19.3341 5.73453 19.2969 5.56299 19.3281 5.37192C19.3877 4.98244 19.6932 4.71011 20.0704 4.71011C20.2585 4.71011 20.4115 4.77499 20.5122 4.8974C20.6131 5.02107 20.6532 5.19366 20.6243 5.38389Z"
      fill="#253B80" />
    <path
      d="M25.0891 3.98091H24.4138C24.3493 3.98091 24.2888 4.01483 24.2523 4.07158L23.3208 5.52527L22.926 4.12832C22.9012 4.04092 22.8251 3.98091 22.7389 3.98091H22.0752C21.9946 3.98091 21.9386 4.0644 21.9642 4.14485L22.7081 6.4578L22.0088 7.50382C21.9538 7.58623 22.0092 7.69951 22.1042 7.69951H22.7787C22.8427 7.69951 22.9026 7.66646 22.939 7.6108L25.1851 4.17551C25.2389 4.09332 25.1837 3.98091 25.0891 3.98091Z"
      fill="#253B80" />
    <path
      d="M27.2803 2.74138H25.9357C25.8439 2.74138 25.7657 2.81348 25.7514 2.91145L25.2076 6.63032C25.1968 6.70369 25.2495 6.76986 25.3181 6.76986H26.0081C26.0722 6.76986 26.127 6.71939 26.137 6.65068L26.2913 5.59654C26.3055 5.49835 26.3839 5.42625 26.4757 5.42625H26.9011C27.7868 5.42625 28.2977 4.96397 28.4314 4.04787C28.4918 3.64708 28.4338 3.33217 28.2598 3.11163C28.0689 2.86946 27.7302 2.74138 27.2803 2.74138ZM27.4354 4.09961C27.3621 4.62001 26.9935 4.62001 26.6369 4.62001H26.4342L26.5768 3.64814C26.5852 3.5894 26.632 3.54614 26.6872 3.54614H26.7802C27.0228 3.54614 27.252 3.54614 27.3703 3.69543C27.4409 3.7845 27.4623 3.91682 27.4354 4.09961Z"
      fill="#0099CC" />
    <path
      d="M31.2918 4.04558H30.6297C30.5729 4.04558 30.5245 4.08841 30.516 4.14657L30.4867 4.3389L30.4402 4.26919C30.2968 4.05314 29.9772 3.98091 29.6579 3.98091C28.9259 3.98091 28.3008 4.55642 28.179 5.36373C28.1159 5.76644 28.2055 6.15151 28.4256 6.42006C28.6279 6.66698 28.9163 6.76986 29.26 6.76986C29.8499 6.76986 30.177 6.37618 30.177 6.37618L30.1475 6.56724C30.1364 6.64031 30.1906 6.70582 30.2616 6.70582H30.8581C30.9526 6.70582 31.0331 6.63443 31.0479 6.53722L31.4061 4.18374C31.417 4.1113 31.3628 4.04558 31.2918 4.04558ZM30.3684 5.38389C30.3049 5.77673 30.0041 6.04044 29.6209 6.04044C29.4289 6.04044 29.2748 5.97641 29.1761 5.85505C29.0782 5.73453 29.0414 5.56299 29.0721 5.37192C29.1322 4.98244 29.4372 4.71011 29.8145 4.71011C30.0026 4.71011 30.1556 4.77499 30.2563 4.8974C30.3577 5.02107 30.3977 5.19366 30.3684 5.38389Z"
      fill="#0099CC" />
    <path
      d="M31.9923 2.84359L31.409 6.63033C31.3975 6.7037 31.4532 6.76986 31.5257 6.76986H32.1122C32.2096 6.76986 32.2923 6.69776 32.3073 6.59958L32.8825 2.88112C32.8939 2.80775 32.8382 2.74138 32.7657 2.74138H32.109C32.0511 2.74159 32.0012 2.78485 31.9923 2.84359Z"
      fill="#0099CC" />
  </g>
  <defs>
    <clipPath id="clip0_122_3946">
      <rect width="48" height="9.6" fill="white" />
    </clipPath>
  </defs>
</svg>
