<svg width="48" height="15" fill="none" xmlns="http://www.w3.org/2000/svg">
  <g clip-path="url(#clip0_121_3749)">
    <path fill-rule="evenodd" clip-rule="evenodd"
      d="M1.33333 0H46.6667C47.403 0 48 0.596954 48 1.33333V12.8889C48 13.6253 47.403 14.2222 46.6667 14.2222H1.33333C0.596954 14.2222 0 13.6253 0 12.8889V1.33333C0 0.596954 0.596954 0 1.33333 0Z"
      fill="white" />
    <path
      d="M14.4227 4.06128H12.4312C12.2949 4.06128 12.179 4.16809 12.1577 4.31324L11.3522 9.82268C11.3362 9.93138 11.4143 10.0294 11.5165 10.0294H12.4673C12.6035 10.0294 12.7194 9.92258 12.7407 9.77712L12.9579 8.29114C12.9789 8.14569 13.0951 8.03887 13.2311 8.03887H13.8615C15.1734 8.03887 15.9305 7.354 16.1283 5.99683C16.2174 5.40306 16.132 4.93653 15.8743 4.6098C15.5913 4.25103 15.0892 4.06128 14.4227 4.06128ZM14.6524 6.07348C14.5435 6.84443 13.9975 6.84443 13.4696 6.84443H13.1691L13.3799 5.40463C13.3924 5.31761 13.4623 5.25352 13.5438 5.25352H13.6816C14.0412 5.25352 14.3805 5.25352 14.5558 5.47469C14.6603 5.60664 14.6923 5.80267 14.6524 6.07348Z"
      fill="#253B80" />
    <path
      d="M20.3669 5.99345H19.3855C19.3019 5.99345 19.2296 6.05691 19.2168 6.14307L19.1733 6.428L19.1047 6.32473C18.8922 6.00465 18.4184 5.89764 17.9455 5.89764C16.861 5.89764 15.9347 6.75025 15.7543 7.94627C15.6605 8.54287 15.7939 9.11335 16.1199 9.51119C16.419 9.877 16.8469 10.0294 17.3561 10.0294C18.2299 10.0294 18.7145 9.44618 18.7145 9.44618L18.6708 9.72925C18.6543 9.83749 18.7346 9.93454 18.8392 9.93454H19.7232C19.8638 9.93454 19.9824 9.82878 20.0046 9.68476L20.535 6.19813C20.5518 6.09081 20.4718 5.99345 20.3669 5.99345ZM18.9989 7.97613C18.9042 8.55812 18.4592 8.9488 17.8916 8.9488C17.6066 8.9488 17.3789 8.85393 17.2326 8.67414C17.0876 8.49559 17.0324 8.24146 17.0786 7.9584C17.167 7.38139 17.6195 6.97795 18.1784 6.97795C18.4571 6.97795 18.6836 7.07406 18.8329 7.25541C18.9824 7.43862 19.0417 7.69431 18.9989 7.97613Z"
      fill="#253B80" />
    <path
      d="M25.6135 5.89764H24.613C24.5175 5.89764 24.4279 5.94789 24.3737 6.03196L22.9938 8.18558L22.4089 6.11603C22.3721 5.98655 22.2594 5.89764 22.1317 5.89764H21.1485C21.029 5.89764 20.946 6.02133 20.984 6.14051L22.0861 9.56711L21.05 11.1168C20.9685 11.2389 21.0506 11.4067 21.1914 11.4067H22.1907C22.2855 11.4067 22.3743 11.3577 22.4281 11.2753L25.7558 6.18593C25.8354 6.06417 25.7536 5.89764 25.6135 5.89764Z"
      fill="#253B80" />
    <path
      d="M28.8597 4.06128H26.8677C26.7317 4.06128 26.6158 4.16809 26.5946 4.31324L25.7891 9.82268C25.7731 9.93138 25.8511 10.0294 25.9527 10.0294H26.9749C27.0698 10.0294 27.1511 9.95462 27.1659 9.85284L27.3945 8.29114C27.4155 8.14569 27.5317 8.03887 27.6677 8.03887H28.2979C29.6101 8.03887 30.367 7.354 30.565 5.99683C30.6544 5.40306 30.5685 4.93653 30.3108 4.6098C30.028 4.25103 29.5262 4.06128 28.8597 4.06128ZM29.0894 6.07348C28.9808 6.84443 28.4348 6.84443 27.9065 6.84443H27.6063L27.8174 5.40463C27.8299 5.31761 27.8992 5.25352 27.9811 5.25352H28.1188C28.4782 5.25352 28.8177 5.25352 28.993 5.47469C29.0976 5.60664 29.1293 5.80267 29.0894 6.07348Z"
      fill="#0099CC" />
    <path
      d="M34.8027 5.99345H33.8218C33.7376 5.99345 33.666 6.05691 33.6534 6.14307L33.6099 6.428L33.541 6.32473C33.3285 6.00465 32.855 5.89764 32.3821 5.89764C31.2975 5.89764 30.3715 6.75025 30.1911 7.94627C30.0976 8.54287 30.2303 9.11335 30.5564 9.51119C30.8561 9.877 31.2834 10.0294 31.7926 10.0294C32.6665 10.0294 33.1511 9.44618 33.1511 9.44618L33.1073 9.72925C33.0909 9.83749 33.1712 9.93454 33.2764 9.93454H34.1601C34.3001 9.93454 34.4194 9.82878 34.4413 9.68476L34.972 6.19813C34.9882 6.09081 34.9079 5.99345 34.8027 5.99345ZM33.4346 7.97613C33.3405 8.55812 32.8949 8.9488 32.3273 8.9488C32.0429 8.9488 31.8145 8.85393 31.6682 8.67414C31.5232 8.49559 31.4687 8.24146 31.5142 7.9584C31.6032 7.38139 32.0551 6.97795 32.6141 6.97795C32.8928 6.97795 33.1193 7.07406 33.2686 7.25541C33.4187 7.43862 33.4781 7.69431 33.4346 7.97613Z"
      fill="#0099CC" />
    <path
      d="M35.8404 4.2127L34.9763 9.82269C34.9593 9.93138 35.0418 10.0294 35.1493 10.0294H36.018C36.1624 10.0294 36.285 9.92259 36.3071 9.77714L37.1593 4.2683C37.1762 4.15961 37.0937 4.06128 36.9862 4.06128H36.0134C35.9275 4.06159 35.8536 4.12568 35.8404 4.2127Z"
      fill="#0099CC" />
  </g>
  <defs>
    <clipPath id="clip0_121_3749">
      <rect width="48" height="14.2222" fill="white" />
    </clipPath>
  </defs>
</svg>
