<svg width="48" height="48" fill="none" xmlns="http://www.w3.org/2000/svg">
  <g clip-path="url(#clip0_121_3913)">
    <path
      d="M24 48C37.2548 48 48 37.2548 48 24C48 10.7452 37.2548 0 24 0C10.7452 0 0 10.7452 0 24C0 37.2548 10.7452 48 24 48Z"
      fill="#0099CC" />
    <path fill-rule="evenodd" clip-rule="evenodd"
      d="M16.6292 10.2621C17.2744 10.7035 17.7987 11.2726 18.275 11.895C19.1334 13.018 19.8266 14.2381 20.3711 15.5574C20.828 16.6632 20.5964 17.5955 19.7933 18.4009C19.2524 18.9443 18.6829 19.4581 18.1181 19.9748C17.1387 20.8718 17.0188 21.4752 17.5246 22.8402C17.7756 23.5161 18.143 24.1662 18.5546 24.7563C19.9881 26.8153 21.7049 28.5797 23.8269 29.8885C24.4158 30.2517 25.0443 30.5158 25.7412 30.6006C26.4178 30.6826 26.9762 30.45 27.4405 29.9791C28.0478 29.3633 28.6127 28.7037 29.2173 28.085C29.7111 27.5798 30.2963 27.2023 31.019 27.2843C31.4556 27.3338 31.8959 27.4768 32.3011 27.6589C34.0003 28.4225 35.5445 29.43 36.762 30.8999C37.0029 31.1907 37.1847 31.5453 37.3389 31.8961C37.5355 32.3432 37.4819 32.7969 37.1506 33.163C36.1962 34.2163 35.2335 35.2582 34.1194 36.1409C32.8383 37.1552 31.3993 37.6575 29.7942 37.6804H29.2939C27.3233 37.8205 25.5326 37.1952 23.8315 36.2562C20.6517 34.5023 18.0091 32.0639 15.6407 29.2909C14.2543 27.6675 13.011 25.9354 12.016 24.0251C11.3441 22.7363 10.7441 21.4027 10.6038 19.93C10.5143 18.9805 10.5457 18.012 10.5937 17.0559C10.6934 15.0846 11.7059 13.5604 12.9584 12.1791C13.5639 11.5109 14.2073 10.8779 14.8469 10.244C15.326 9.76833 15.937 9.78835 16.6292 10.2621ZM23.1031 9.76944C27.48 8.04523 32.6489 9.24543 35.7981 13.1023C38.6461 16.5902 39.0693 21.3033 37.2726 25.1438L35.9105 24.2624C37.3507 21.0076 36.9561 17.0641 34.5628 14.1329C31.8654 10.829 27.438 9.80122 23.6884 11.2759L23.1031 9.76944ZM24.8969 13.932C27.4728 12.9269 30.5119 13.6297 32.3641 15.8864C33.9219 17.7839 34.2464 20.3018 33.436 22.4531L32.1098 21.5992C32.5929 20.0196 32.3039 18.2338 31.1818 16.8668C29.7617 15.1369 27.4327 14.5963 25.4565 15.365L24.8969 13.932Z"
      fill="white" />
  </g>
  <defs>
    <clipPath id="clip0_121_3913">
      <rect width="48" height="48" fill="white" />
    </clipPath>
  </defs>
</svg>
