<svg width="47" height="48" fill="none" xmlns="http://www.w3.org/2000/svg">
  <g clip-path="url(#clip0_121_3745)">
    <path fill-rule="evenodd" clip-rule="evenodd"
      d="M46.2667 24C46.2667 37.2538 35.9108 48 23.1333 48C10.3574 48 0 37.2523 0 24C0 10.7446 10.3574 0 23.1333 0C35.9108 0 46.2667 10.7446 46.2667 24Z"
      fill="#333333" />
    <path fill-rule="evenodd" clip-rule="evenodd"
      d="M33.6632 21.5982C33.4865 21.7381 33.2832 21.8407 33.0656 21.8997C32.848 21.9587 32.6208 21.9728 32.3976 21.9413C32.1744 21.9097 31.9599 21.8332 31.7672 21.7162C31.5745 21.5992 31.4075 21.4444 31.2765 21.2609C31.0023 20.8856 30.883 20.4192 30.9432 19.9582C31.0035 19.4973 31.2387 19.0772 31.6002 18.785C31.777 18.6448 31.9804 18.542 32.1981 18.4829C32.4158 18.4238 32.6433 18.4096 32.8667 18.4412C33.0901 18.4727 33.3047 18.5494 33.4975 18.6664C33.6904 18.7835 33.8574 18.9386 33.9884 19.1223C34.5586 19.8982 34.4119 21.0083 33.6632 21.5982ZM23.2468 32.3519C20.1099 32.3519 17.5674 29.7142 17.5674 26.4608C17.5674 23.206 20.1084 20.5682 23.2468 20.5682C26.3821 20.5682 28.9261 23.206 28.9261 26.4608C28.9261 29.7127 26.3821 32.3534 23.2468 32.3534M34.5752 16.176H29.7867L28.7749 13.6834H16.4936L15.4424 16.176H11.7595C10.8218 16.176 10.0565 16.9715 10.0565 17.9425V34.0807C10.0565 35.0532 10.8218 35.8488 11.7595 35.8488H34.5752C35.5115 35.8488 36.2783 35.0532 36.2783 34.0807V17.9425C36.2783 16.9715 35.5115 16.176 34.5752 16.176Z"
      fill="white" />
  </g>
  <defs>
    <clipPath id="clip0_121_3745">
      <rect width="46.5768" height="48" fill="white" />
    </clipPath>
  </defs>
</svg>
