<svg width="35" height="48" fill="none" xmlns="http://www.w3.org/2000/svg">
  <g clip-path="url(#clip0_121_3706)">
    <path fill-rule="evenodd" clip-rule="evenodd"
      d="M17.1968 12.6185C14.6956 12.6185 12.6609 14.6249 12.6609 17.0911C12.6609 19.5573 14.6956 21.5636 17.1968 21.5636C19.6979 21.5636 21.7326 19.5573 21.7326 17.0911C21.7326 14.6249 19.6979 12.6185 17.1968 12.6185ZM17.1968 25.3364C12.5856 25.3364 8.83458 21.6378 8.83458 17.0911C8.83458 12.5443 12.5856 8.84569 17.1968 8.84569C21.8079 8.84569 25.559 12.5443 25.559 17.0911C25.559 21.6378 21.8079 25.3364 17.1968 25.3364ZM17.1764 3.77286C13.3156 3.77286 9.65979 5.27111 7.1459 7.8836C4.80165 10.3196 3.66013 13.4394 3.84465 16.9054C4.14608 22.5621 12.4934 34.9082 17.1568 41.198C21.7297 34.8805 29.9562 22.4993 30.5136 16.8219C30.821 13.6963 29.7666 10.6458 27.5452 8.2328C24.974 5.44005 21.0979 3.77286 17.1764 3.77286ZM17.1972 47.5028L15.6582 45.5234C15.5051 45.3263 11.8654 40.6337 8.10928 34.8315C2.94589 26.8548 0.225809 20.8903 0.0238649 17.1032C-0.213791 12.6429 1.32991 8.44618 4.37055 5.28662C7.60336 1.92709 12.271 0 17.1764 0C22.1586 0 27.0937 2.12957 30.378 5.69702C33.334 8.90773 34.7349 12.9879 34.3225 17.1862C33.4641 25.9196 19.3119 44.7084 18.7099 45.5037L17.1972 47.5028Z"
      fill="#333333" />
  </g>
  <defs>
    <clipPath id="clip0_121_3706">
      <rect width="34.6263" height="48" fill="white" />
    </clipPath>
  </defs>
</svg>
