<svg width="47" height="48" fill="none" xmlns="http://www.w3.org/2000/svg">
  <path
    d="M19.0929 0C29.6376 0 38.1858 8.53183 38.1858 19.0564C38.1858 23.3344 36.7734 27.2832 34.3887 30.4635L46.6784 44.752L42.7756 48L30.8176 34.0975C27.5818 36.6138 23.5127 38.1128 19.0929 38.1128C8.54818 38.1128 0 29.5809 0 19.0564C0 8.53183 8.54818 0 19.0929 0ZM19.0929 5.01484C11.3231 5.01484 5.02445 11.3014 5.02445 19.0564C5.02445 26.8113 11.3231 33.0979 19.0929 33.0979C26.8627 33.0979 33.1614 26.8113 33.1614 19.0564C33.1614 11.3014 26.8627 5.01484 19.0929 5.01484Z"
    fill="#8F8F8F" />
</svg>
