<svg width="43" height="50" fill="none" xmlns="http://www.w3.org/2000/svg">
  <path
    d="M33.7218 1C37.9906 1 41.4535 4.40211 41.4535 8.60049C41.4535 12.7968 37.9927 16.201 33.7218 16.201C31.6811 16.201 29.8279 15.4252 28.4473 14.1581L15.2869 21.777C16.0324 22.9438 16.4634 24.3276 16.4634 25.8096C16.4634 27.2466 16.0574 28.5935 15.3494 29.7398L28.5035 37.4979C29.8549 35.3977 32.2392 34.0037 34.9546 34.0037C39.1671 34.0037 42.5822 37.3608 42.5822 41.5019C42.5822 45.6429 39.1671 49 34.9546 49C30.742 49 27.327 45.6429 27.327 41.5019C27.327 41.1395 27.352 40.7813 27.404 40.4313L13.1671 32.0345C11.9114 32.9004 10.3809 33.408 8.73171 33.408C4.46292 33.408 1 30.0059 1 25.8075C1 21.6112 4.46084 18.207 8.73171 18.207C10.333 18.207 11.8198 18.686 13.0526 19.5048L26.6356 11.6444C26.2212 10.713 25.9922 9.68336 25.9922 8.60254C25.9922 4.4062 29.453 1.00205 33.7239 1.00205L33.7218 1ZM34.9566 36.8716C32.3537 36.8716 30.2443 38.9452 30.2443 41.5039C30.2443 44.0626 32.3537 46.1363 34.9566 46.1363C37.5596 46.1363 39.669 44.0626 39.669 41.5039C39.669 38.9452 37.5575 36.8716 34.9566 36.8716ZM8.73379 21.2796C6.18918 21.2796 4.12559 23.3082 4.12559 25.8096C4.12559 28.3131 6.1871 30.3396 8.73379 30.3396C11.2784 30.3396 13.342 28.3131 13.342 25.8096C13.342 23.3082 11.2805 21.2796 8.73379 21.2796ZM33.7218 4.07049C31.1772 4.07049 29.1136 6.09702 29.1136 8.60049C29.1136 11.1019 31.1751 13.1305 33.7218 13.1305C36.2664 13.1305 38.33 11.104 38.33 8.60049C38.33 6.09907 36.2685 4.07049 33.7218 4.07049Z"
    fill="#333333" stroke="#333333" stroke-width="0.5" />
</svg>
