<svg width="48" height="48" fill="none" xmlns="http://www.w3.org/2000/svg">
  <path
    d="M22.9001 47.7273C35.3607 47.7273 45.4619 37.8068 45.4619 25.5692C45.4619 13.3317 35.3607 3.41116 22.9001 3.41116C10.4396 3.41116 0.338303 13.3317 0.338303 25.5692C0.338303 37.8068 10.4396 47.7273 22.9001 47.7273Z"
    fill="#E0E9F1" />
  <path fill-rule="evenodd" clip-rule="evenodd"
    d="M23.0161 2.79147C10.3251 2.79147 0 12.9318 0 25.3957C0 37.8597 10.3251 48 23.0161 48C35.7072 48 46.0323 37.8597 46.0323 25.3957C46.0323 12.9318 35.7074 2.79147 23.0161 2.79147ZM8.54952 39.6852C7.06652 38.237 5.80761 36.5679 4.82739 34.7336C3.33459 31.9402 2.48826 28.7635 2.48826 25.3957C2.48826 14.2792 11.697 5.23521 23.0161 5.23521C28.385 5.23521 33.2782 7.27084 36.94 10.5965C38.8385 12.3205 40.4063 14.391 41.5368 16.7053C42.8229 19.3382 43.544 22.2858 43.544 25.3957C43.544 36.5123 34.3352 45.5563 23.0161 45.5563C17.3776 45.5563 12.2633 43.3117 8.54952 39.6852Z"
    fill="#2D69AA" />
  <path
    d="M15.5534 23.262C16.9488 23.262 18.0799 22.151 18.0799 20.7807C18.0799 19.4103 16.9488 18.2993 15.5534 18.2993C14.158 18.2993 13.0269 19.4103 13.0269 20.7807C13.0269 22.151 14.158 23.262 15.5534 23.262Z"
    fill="#2D69AA" />
  <path
    d="M31.1862 23.262C32.5816 23.262 33.7128 22.151 33.7128 20.7807C33.7128 19.4103 32.5816 18.2993 31.1862 18.2993C29.7909 18.2993 28.6597 19.4103 28.6597 20.7807C28.6597 22.151 29.7909 23.262 31.1862 23.262Z"
    fill="#2D69AA" />
  <path fill-rule="evenodd" clip-rule="evenodd"
    d="M6.28777 17.7835L1.24788 12.9886C0.641898 12.4045 0.311768 11.6328 0.315817 10.8135C0.324505 9.11847 1.782 7.74603 3.56479 7.75409C3.57486 7.75409 3.58503 7.75409 3.59501 7.75409C5.03074 7.76071 5.87579 8.72871 6.32826 9.52452C6.78691 8.73258 7.64137 7.7726 9.08642 7.77917C9.09659 7.77926 9.10657 7.77944 9.11693 7.77944C10.8953 7.78763 12.3388 9.17331 12.3302 10.8683C12.3259 11.6876 11.9879 12.4563 11.3781 13.0329L11.3457 13.0624L6.28777 17.7835Z"
    fill="#FF4444" />
  <path fill-rule="evenodd" clip-rule="evenodd"
    d="M41.7748 43.8788L36.7349 39.0838C36.129 38.4998 35.7988 37.7281 35.8029 36.9088C35.8116 35.2137 37.2691 33.8413 39.0518 33.8494C39.0619 33.8494 39.0721 33.8494 39.0821 33.8494C40.5178 33.856 41.3629 34.824 41.8153 35.6198C42.274 34.8279 43.1284 33.8679 44.5735 33.8744C44.5837 33.8745 44.5936 33.8747 44.604 33.8747C46.3824 33.8829 47.8258 35.2686 47.8172 36.9636C47.813 37.7829 47.475 38.5515 46.8652 39.1282L46.8328 39.1577L41.7748 43.8788Z"
    fill="#FF4444" />
  <path fill-rule="evenodd" clip-rule="evenodd"
    d="M35.9399 17.6793L26.9312 9.22703C25.848 8.19742 25.2579 6.83715 25.2652 5.3929C25.2807 2.40503 27.886 -0.014215 31.0727 1.30053e-06C31.0907 1.30053e-06 31.1089 1.30053e-06 31.1267 1.30053e-06C33.693 0.0116601 35.2035 1.71799 36.0123 3.12081C36.8321 1.72482 38.3595 0.0326142 40.9425 0.0442025C40.9607 0.0443612 40.9785 0.0446787 40.997 0.0446787C44.1759 0.0591244 46.756 2.50171 46.7406 5.48957C46.7331 6.93382 46.1289 8.2887 45.0389 9.30513L44.9809 9.3572L35.9399 17.6793Z"
    fill="#FF4444" />
  <path fill-rule="evenodd" clip-rule="evenodd"
    d="M13.5134 29.9319C14.1712 34.7137 18.3545 38.4121 23.4009 38.4121C28.447 38.4121 32.63 34.7137 33.2878 29.9319H13.5134ZM23.4009 41.0497C16.4182 41.0497 10.7377 35.4705 10.7377 28.6131V27.2943H36.0635V28.6131C36.0635 35.4705 30.3829 41.0497 23.4009 41.0497Z"
    fill="#2D69AA" />
</svg>
