<svg width="52" height="47" fill="none" xmlns="http://www.w3.org/2000/svg">
  <path
    d="M26 45.6982C39.2548 45.6982 50 37.3884 50 27.1378C50 16.8873 39.2548 8.57751 26 8.57751C12.7452 8.57751 2 16.8873 2 27.1378C2 37.3884 12.7452 45.6982 26 45.6982Z"
    fill="#F4F4F4" />
  <path fill-rule="evenodd" clip-rule="evenodd"
    d="M26 9.82751C13.1177 9.82751 3.25 17.8574 3.25 27.1378C3.25 36.4183 13.1177 44.4482 26 44.4482C38.8823 44.4482 48.75 36.4183 48.75 27.1378C48.75 17.8574 38.8823 9.82751 26 9.82751ZM0.75 27.1378C0.75 15.9171 12.3727 7.32751 26 7.32751C39.6273 7.32751 51.25 15.9171 51.25 27.1378C51.25 38.3586 39.6273 46.9482 26 46.9482C12.3727 46.9482 0.75 38.3586 0.75 27.1378Z"
    fill="#2D69AA" />
  <path
    d="M19.8336 25.7324C21.2587 25.7324 22.4141 24.5771 22.4141 23.1519C22.4141 21.7267 21.2587 20.5714 19.8336 20.5714C18.4084 20.5714 17.2531 21.7267 17.2531 23.1519C17.2531 24.5771 18.4084 25.7324 19.8336 25.7324Z"
    fill="#2D69AA" />
  <path
    d="M33.1359 25.7324C34.5611 25.7324 35.7165 24.5771 35.7165 23.1519C35.7165 21.7267 34.5611 20.5714 33.1359 20.5714C31.7108 20.5714 30.5554 21.7267 30.5554 23.1519C30.5554 24.5771 31.7108 25.7324 33.1359 25.7324Z"
    fill="#2D69AA" />
  <path fill-rule="evenodd" clip-rule="evenodd"
    d="M31.2967 32.2181C29.3175 32.3009 27.2018 32.4824 26.0914 32.8265C25.6887 32.9513 25.2216 33.2442 24.7178 33.7017C24.2231 34.1509 23.7532 34.7034 23.3396 35.2592C22.9284 35.8116 22.5896 36.3445 22.3532 36.7403C22.2356 36.9374 22.1445 37.0985 22.0839 37.2084C22.0536 37.2633 22.031 37.3053 22.0165 37.3324L22.001 37.3617L21.9981 37.3673L21.4243 38.4778L19.2032 37.3303L19.777 36.2198L20.8876 36.7935C19.777 36.2198 19.7769 36.22 19.777 36.2198L19.7783 36.2172L19.7805 36.2131L19.7872 36.2002L19.8105 36.1563C19.8303 36.1192 19.8586 36.0667 19.8949 36.0007C19.9676 35.869 20.0728 35.6831 20.2067 35.4588C20.4735 35.0119 20.8593 34.4045 21.3341 33.7665C21.8064 33.132 22.3837 32.4442 23.0372 31.8508C23.6817 31.2656 24.464 30.7135 25.3515 30.4385C26.8216 29.983 29.2612 29.8011 31.1922 29.7203C32.1872 29.6787 33.0984 29.6625 33.7605 29.6568C34.0919 29.6539 34.3617 29.6536 34.5493 29.654L34.7668 29.655L34.8246 29.6555L34.8441 29.6556C34.8442 29.6556 34.8459 29.6557 34.8335 30.7704L34.8441 29.6556L36.0959 29.6696L36.068 32.1694L34.8018 32.1554L34.7494 32.1549L34.5435 32.154C34.3639 32.1536 34.1034 32.1539 33.7823 32.1567C33.1393 32.1623 32.2568 32.1779 31.2967 32.2181Z"
    fill="#2D69AA" />
  <path
    d="M23.8798 11.7759C23.8798 11.7759 27.684 17.0338 27.6476 18.7421C27.6113 20.4503 27.6961 13.0116 27.1388 11.8243C26.945 11.4124 33.8748 14.0777 34.1898 14.1383C34.5048 14.1989 30.4704 10.8188 30.4704 10.8188H37.158L33.6082 8.90459L36.9884 7.35386C36.9884 7.35386 31.1489 6.92983 30.5189 7.43867C29.8889 7.9475 35.8859 4.38566 39.4598 3.96164C41.4709 3.71933 35.6799 2.78647 31.5971 4.40989C27.5144 6.03332 27.2721 7.19637 27.2721 7.19637C27.2721 7.19637 28.4472 4.07067 29.3437 2.68955C30.2403 1.30843 31.2095 0 31.2095 0C31.2095 0 28.6168 1.13882 26.9328 3.96164C25.5154 6.32408 25.2973 7.12367 25.2973 7.12367C25.2973 7.12367 24.4371 4.82181 23.1408 3.48915C22.0626 2.36244 19.373 0.0726906 19.373 0.0726906C19.373 0.0726906 21.5658 3.31954 21.9778 4.21605C22.3897 5.11257 23.165 7.17214 23.165 7.17214C23.165 7.17214 20.3301 5.28218 17.7254 4.45835C16.6471 4.11913 15.7143 3.86471 14.1756 3.74356C12.2978 3.59818 10.7471 3.74356 10.7471 3.74356C10.7471 3.74356 16.8652 5.25795 18.0767 5.98486C19.2882 6.71176 20.0878 7.40232 20.0878 7.40232L13.6183 7.36598L17.0227 8.92882L20.318 9.94649L16.1262 14.3079L23.8677 11.7638L23.8798 11.7759Z"
    fill="#2D69AA" />
</svg>
