<svg width="47" height="48" fill="none" xmlns="http://www.w3.org/2000/svg">
  <path
    d="M23.3743 46.8C35.6382 46.8 45.5799 36.5921 45.5799 24C45.5799 11.4079 35.6382 1.20001 23.3743 1.20001C11.1105 1.20001 1.16872 11.4079 1.16872 24C1.16872 36.5921 11.1105 46.8 23.3743 46.8Z"
    fill="#E0E9F1" />
  <path fill-rule="evenodd" clip-rule="evenodd"
    d="M33.6492 34.6604C33.8399 35.0077 34.0157 35.3686 34.1719 35.7334L36.4484 34.7064C36.2591 34.2642 36.046 33.8267 35.8151 33.4062C33.1696 28.5888 27.9824 25.6598 22.6027 25.947C17.2591 26.2309 12.4133 29.6691 10.2574 34.7064L12.5339 35.7337C14.3151 31.572 18.3176 28.7314 22.7311 28.4969C27.1717 28.2597 31.463 30.6795 33.6492 34.6604Z"
    fill="#2D69AA" />
  <path fill-rule="evenodd" clip-rule="evenodd"
    d="M23.3743 0C10.4857 0 0 10.7664 0 24C0 37.2336 10.4857 48 23.3743 48C36.2629 48 46.7487 37.2336 46.7487 24C46.7487 10.7664 36.2631 0 23.3743 0ZM8.68258 39.1718C7.17649 37.6341 5.89799 35.862 4.90252 33.9144C3.38648 30.9486 2.52699 27.5757 2.52699 24C2.52699 12.197 11.8791 2.59463 23.3743 2.59463C28.8268 2.59463 33.7961 4.75596 37.5149 8.28692C39.443 10.1174 41.0351 12.3157 42.1832 14.773C43.4893 17.5684 44.2217 20.698 44.2217 24C44.2217 35.803 34.8696 45.4054 23.3743 45.4054C17.648 45.4054 12.4541 43.0222 8.68258 39.1718Z"
    fill="#2D69AA" />
  <path
    d="M15.3079 21.4593C16.6812 21.4593 17.7945 20.3162 17.7945 18.9061C17.7945 17.496 16.6812 16.3529 15.3079 16.3529C13.9345 16.3529 12.8212 17.496 12.8212 18.9061C12.8212 20.3162 13.9345 21.4593 15.3079 21.4593Z"
    fill="#2D69AA" />
  <path
    d="M30.6939 21.4593C32.0672 21.4593 33.1805 20.3162 33.1805 18.9061C33.1805 17.496 32.0672 16.3529 30.6939 16.3529C29.3206 16.3529 28.2073 17.496 28.2073 18.9061C28.2073 20.3162 29.3206 21.4593 30.6939 21.4593Z"
    fill="#2D69AA" />
  <path fill-rule="evenodd" clip-rule="evenodd"
    d="M35.489 15.0425L27.2646 17.5572L26.5549 15.1104L34.7793 12.5957L35.489 15.0425Z"
    fill="#2D69AA" />
  <path fill-rule="evenodd" clip-rule="evenodd"
    d="M10.8631 12.9386L10.2231 15.0124L18.404 17.6745L19.1551 15.2406L11.7743 12.8389L10.9742 12.5785L10.8631 12.9386Z"
    fill="#2D69AA" />
</svg>
