<svg width="52" height="47" fill="none" xmlns="http://www.w3.org/2000/svg">
  <path
    d="M26 45.6982C39.2548 45.6982 50 37.3884 50 27.1378C50 16.8873 39.2548 8.57751 26 8.57751C12.7452 8.57751 2 16.8873 2 27.1378C2 37.3884 12.7452 45.6982 26 45.6982Z"
    fill="#F4F4F4" />
  <path fill-rule="evenodd" clip-rule="evenodd"
    d="M26 9.82751C13.1177 9.82751 3.25 17.8574 3.25 27.1378C3.25 36.4183 13.1177 44.4482 26 44.4482C38.8823 44.4482 48.75 36.4183 48.75 27.1378C48.75 17.8574 38.8823 9.82751 26 9.82751ZM0.75 27.1378C0.75 15.9171 12.3727 7.32751 26 7.32751C39.6273 7.32751 51.25 15.9171 51.25 27.1378C51.25 38.3586 39.6273 46.9482 26 46.9482C12.3727 46.9482 0.75 38.3586 0.75 27.1378Z"
    fill="#2D69AA" />
  <path fill-rule="evenodd" clip-rule="evenodd"
    d="M21.9111 33.6298C20.9007 34.3317 20.4413 35.179 20.4413 35.9697V37.2197H17.9413V35.9697C17.9413 34.1315 19.0144 32.5981 20.4846 31.5767C21.9593 30.5521 23.9297 29.9585 26.0484 29.9585C28.1671 29.9585 30.1375 30.5521 31.6122 31.5767C33.0825 32.5981 34.1556 34.1315 34.1556 35.9697V37.2197H31.6556V35.9697C31.6556 35.179 31.1961 34.3317 30.1858 33.6298C29.1799 32.931 27.7218 32.4585 26.0484 32.4585C24.3751 32.4585 22.9169 32.931 21.9111 33.6298Z"
    fill="#2D69AA" />
  <path fill-rule="evenodd" clip-rule="evenodd"
    d="M16.8179 19.7168C17.0892 19.2358 17.6991 19.0657 18.1802 19.337L23.9591 22.596C24.4401 22.8673 24.6102 23.4772 24.3389 23.9582C24.0676 24.4393 23.4577 24.6094 22.9766 24.3381L17.1977 21.0791C16.7167 20.8078 16.5466 20.1979 16.8179 19.7168Z"
    fill="#2D69AA" />
  <path
    d="M23.8798 11.7759C23.8798 11.7759 27.684 17.0338 27.6476 18.7421C27.6113 20.4503 27.6961 13.0116 27.1388 11.8243C26.945 11.4124 33.8748 14.0777 34.1898 14.1383C34.5048 14.1989 30.4704 10.8188 30.4704 10.8188H37.158L33.6082 8.90459L36.9884 7.35386C36.9884 7.35386 31.1489 6.92983 30.5189 7.43867C29.8889 7.9475 35.8859 4.38566 39.4598 3.96164C41.4709 3.71933 35.6799 2.78647 31.5971 4.40989C27.5144 6.04543 27.2721 7.19637 27.2721 7.19637C27.2721 7.19637 28.4472 4.07067 29.3437 2.68955C30.2403 1.30843 31.2095 0 31.2095 0C31.2095 0 28.6168 1.13882 26.9328 3.96164C25.5154 6.32408 25.2973 7.12367 25.2973 7.12367C25.2973 7.12367 24.4371 4.82181 23.1408 3.48915C22.0626 2.36244 19.373 0.0726906 19.373 0.0726906C19.373 0.0726906 21.5658 3.31954 21.9778 4.21605C22.3897 5.11257 23.165 7.17214 23.165 7.17214C23.165 7.17214 20.3301 5.28218 17.7254 4.45835C16.6471 4.11913 15.7143 3.86471 14.1756 3.74356C12.2978 3.59818 10.7471 3.74356 10.7471 3.74356C10.7471 3.74356 16.8652 5.25795 18.0767 5.98486C19.2882 6.71176 20.0878 7.40232 20.0878 7.40232L13.6183 7.36598L17.0227 8.92882L20.318 9.94649L16.1262 14.3079L23.8677 11.7638L23.8798 11.7759Z"
    fill="#2D69AA" />
  <path
    d="M19.4337 26.5684C20.8588 26.5684 22.0142 25.4131 22.0142 23.9879C22.0142 22.5627 20.8588 21.4074 19.4337 21.4074C18.0085 21.4074 16.8531 22.5627 16.8531 23.9879C16.8531 25.4131 18.0085 26.5684 19.4337 26.5684Z"
    fill="#2D69AA" />
  <path fill-rule="evenodd" clip-rule="evenodd"
    d="M35.7755 19.5714C36.0468 20.0525 35.8768 20.6624 35.3957 20.9337L29.6168 24.1926C29.1358 24.4639 28.5259 24.2939 28.2546 23.8128C27.9833 23.3317 28.1533 22.7218 28.6344 22.4505L34.4133 19.1916C34.8944 18.9203 35.5043 19.0903 35.7755 19.5714Z"
    fill="#2D69AA" />
  <path
    d="M33.1601 26.411C34.5853 26.411 35.7406 25.2556 35.7406 23.8305C35.7406 22.4053 34.5853 21.2499 33.1601 21.2499C31.7349 21.2499 30.5796 22.4053 30.5796 23.8305C30.5796 25.2556 31.7349 26.411 33.1601 26.411Z"
    fill="#2D69AA" />
</svg>
