<svg width="52" height="47" fill="none" xmlns="http://www.w3.org/2000/svg">
  <path
    d="M26 45.6982C39.2548 45.6982 50 37.3884 50 27.1378C50 16.8873 39.2548 8.57751 26 8.57751C12.7452 8.57751 2 16.8873 2 27.1378C2 37.3884 12.7452 45.6982 26 45.6982Z"
    fill="#F4F4F4" />
  <path fill-rule="evenodd" clip-rule="evenodd"
    d="M26 9.82751C13.1177 9.82751 3.25 17.8574 3.25 27.1378C3.25 36.4183 13.1177 44.4482 26 44.4482C38.8823 44.4482 48.75 36.4183 48.75 27.1378C48.75 17.8574 38.8823 9.82751 26 9.82751ZM0.75 27.1378C0.75 15.9171 12.3727 7.32751 26 7.32751C39.6273 7.32751 51.25 15.9171 51.25 27.1378C51.25 38.3586 39.6273 46.9482 26 46.9482C12.3727 46.9482 0.75 38.3586 0.75 27.1378Z"
    fill="#2D69AA" />
  <path fill-rule="evenodd" clip-rule="evenodd"
    d="M15.0337 32.1392H36.8694V34.6392H15.0337V32.1392Z" fill="#2D69AA" />
  <path
    d="M23.8798 11.7759C23.8798 11.7759 27.684 17.0338 27.6476 18.7421C27.6113 20.4503 27.6961 13.0116 27.1388 11.8243C26.945 11.4124 33.8748 14.0777 34.1898 14.1383C34.5048 14.1989 30.4704 10.8188 30.4704 10.8188H37.158L33.6082 8.90459L36.9884 7.35386C36.9884 7.35386 31.1489 6.92983 30.5189 7.43867C29.8889 7.9475 35.8859 4.38566 39.4598 3.96164C41.4709 3.71933 35.6799 2.78647 31.5971 4.40989C27.5144 6.03332 27.2721 7.19637 27.2721 7.19637C27.2721 7.19637 28.4472 4.07067 29.3437 2.68955C30.2403 1.30843 31.2095 0 31.2095 0C31.2095 0 28.6168 1.13882 26.9328 3.96164C25.5154 6.32408 25.2973 7.12367 25.2973 7.12367C25.2973 7.12367 24.4371 4.82181 23.1408 3.48915C22.0626 2.36244 19.373 0.0726906 19.373 0.0726906C19.373 0.0726906 21.5658 3.31954 21.9778 4.21605C22.3897 5.11257 23.165 7.17214 23.165 7.17214C23.165 7.17214 20.3301 5.28218 17.7254 4.45835C16.6471 4.11913 15.7143 3.86471 14.1756 3.74356C12.2978 3.59818 10.7471 3.74356 10.7471 3.74356C10.7471 3.74356 16.8652 5.25795 18.0767 5.98486C19.2882 6.71176 20.0878 7.40232 20.0878 7.40232L13.6183 7.36598L17.0227 8.92882L20.318 9.94649L16.1262 14.3079L23.8677 11.7638L23.8798 11.7759Z"
    fill="#2D69AA" />
  <path
    d="M19.6031 25.8778C21.0283 25.8778 22.1836 24.7225 22.1836 23.2973C22.1836 21.8721 21.0283 20.7168 19.6031 20.7168C18.1779 20.7168 17.0226 21.8721 17.0226 23.2973C17.0226 24.7225 18.1779 25.8778 19.6031 25.8778Z"
    fill="#2D69AA" />
  <path
    d="M32.9055 25.8778C34.3306 25.8778 35.486 24.7225 35.486 23.2973C35.486 21.8721 34.3306 20.7168 32.9055 20.7168C31.4803 20.7168 30.325 21.8721 30.325 23.2973C30.325 24.7225 31.4803 25.8778 32.9055 25.8778Z"
    fill="#2D69AA" />
</svg>
