<svg width="48" height="48" fill="none" xmlns="http://www.w3.org/2000/svg">
  <path
    d="M22.8621 45.8122C35.4543 45.8122 45.6624 35.6865 45.6624 23.1957C45.6624 10.705 35.4543 0.579254 22.8621 0.579254C10.2698 0.579254 0.0617676 10.705 0.0617676 23.1957C0.0617676 35.6865 10.2698 45.8122 22.8621 45.8122Z"
    fill="#E0E9F1" />
  <path fill-rule="evenodd" clip-rule="evenodd"
    d="M23.9999 0.00012207C10.7664 0.00012207 -6.10352e-05 10.6797 -6.10352e-05 23.8066C-6.10352e-05 36.9335 10.7664 47.6131 23.9999 47.6131C37.2335 47.6131 47.9999 36.9335 47.9999 23.8066C47.9999 10.6797 37.2337 0.00012207 23.9999 0.00012207ZM8.91492 38.8561C7.36853 37.3308 6.0558 35.573 5.03368 33.6411C3.47707 30.6992 2.59457 27.3535 2.59457 23.8066C2.59457 12.0988 12.197 2.57383 23.9999 2.57383C29.5983 2.57383 34.7007 4.71773 38.519 8.22023C40.4987 10.036 42.1335 12.2166 43.3123 14.654C44.6534 17.4269 45.4053 20.5313 45.4053 23.8066C45.4053 35.5144 35.8029 45.0394 23.9999 45.0394C18.1203 45.0394 12.7874 42.6755 8.91492 38.8561Z"
    fill="#2D69AA" />
  <path
    d="M15.9726 21.233C17.4056 21.233 18.5673 20.0807 18.5673 18.6593C18.5673 17.2378 17.4056 16.0855 15.9726 16.0855C14.5396 16.0855 13.378 17.2378 13.378 18.6593C13.378 20.0807 14.5396 21.233 15.9726 21.233Z"
    fill="#2D69AA" />
  <path
    d="M32.0269 21.233C33.4599 21.233 34.6215 20.0807 34.6215 18.6593C34.6215 17.2378 33.4599 16.0855 32.0269 16.0855C30.5939 16.0855 29.4323 17.2378 29.4323 18.6593C29.4323 20.0807 30.5939 21.233 32.0269 21.233Z"
    fill="#2D69AA" />
  <path fill-rule="evenodd" clip-rule="evenodd"
    d="M19.2047 35.3887L16.865 34.655C16.9412 34.4149 18.7926 28.7713 23.9665 26.5813C27.2691 25.1841 31.1 25.5227 35.3517 27.5893L34.2693 29.7699C30.6965 28.0325 27.5601 27.7093 24.9484 28.8082C20.8145 30.5474 19.2203 35.3407 19.2047 35.3887Z"
    fill="#2D69AA" />
</svg>
