<svg width="48" height="48" fill="none" xmlns="http://www.w3.org/2000/svg">
  <path
    d="M23.9451 47.5283C36.4951 47.5283 46.6688 37.3202 46.6688 24.728C46.6688 12.1357 36.4951 1.92767 23.9451 1.92767C11.3952 1.92767 1.22143 12.1357 1.22143 24.728C1.22143 37.3202 11.3952 47.5283 23.9451 47.5283Z"
    fill="#E0E9F1" />
  <path fill-rule="evenodd" clip-rule="evenodd"
    d="M23.9193 0C10.7302 0 0 10.7664 0 24C0 37.2336 10.7302 48 23.9193 48C37.1085 48 47.8387 37.2336 47.8387 24C47.8387 10.7664 37.1086 0 23.9193 0ZM8.88503 39.1718C7.34382 37.6341 6.03552 35.862 5.01683 33.9144C3.46544 30.9486 2.58591 27.5757 2.58591 24C2.58591 12.197 12.156 2.59463 23.9193 2.59463C29.4989 2.59463 34.5841 4.75596 38.3896 8.28692C40.3627 10.1174 41.992 12.3157 43.1668 14.773C44.5034 17.5684 45.2528 20.698 45.2528 24C45.2528 35.803 35.6827 45.4054 23.9193 45.4054C18.0595 45.4054 12.7445 43.0222 8.88503 39.1718Z"
    fill="#2D69AA" />
  <path
    d="M15.919 21.4054C17.3472 21.4054 18.5049 20.2437 18.5049 18.8108C18.5049 17.3778 17.3472 16.2161 15.919 16.2161C14.4909 16.2161 13.3331 17.3778 13.3331 18.8108C13.3331 20.2437 14.4909 21.4054 15.919 21.4054Z"
    fill="#2D69AA" />
  <path
    d="M31.9193 21.4054C33.3475 21.4054 34.5053 20.2437 34.5053 18.8108C34.5053 17.3778 33.3475 16.2161 31.9193 16.2161C30.4912 16.2161 29.3334 17.3778 29.3334 18.8108C29.3334 20.2437 30.4912 21.4054 31.9193 21.4054Z"
    fill="#2D69AA" />
  <path fill-rule="evenodd" clip-rule="evenodd"
    d="M13.2546 28.01C13.0563 27.6571 12.8735 27.2903 12.711 26.9196L10.3436 27.9633C10.5405 28.4127 10.7621 28.8573 11.0022 29.2846C13.7533 34.1802 19.1477 37.1567 24.7421 36.8648C30.2991 36.5763 35.3384 33.0823 37.5804 27.9633L35.213 26.9193C33.3607 31.1485 29.1983 34.0352 24.6086 34.2736C19.9907 34.5146 15.5281 32.0555 13.2546 28.01Z"
    fill="#2D69AA" />
</svg>
