<svg width="48" height="48" fill="none" xmlns="http://www.w3.org/2000/svg">
  <path
    d="M23.538 46.4051C36.0879 46.4051 46.2617 36.197 46.2617 23.6048C46.2617 11.0125 36.0879 0.804443 23.538 0.804443C10.988 0.804443 0.814301 11.0125 0.814301 23.6048C0.814301 36.197 10.988 46.4051 23.538 46.4051Z"
    fill="#E0E9F1" />
  <path d="M35.8795 29.5141H12.2831V32.1087H35.8795V29.5141Z" fill="#2D69AA" />
  <path fill-rule="evenodd" clip-rule="evenodd"
    d="M23.9193 0.00012207C10.7302 0.00012207 0 10.7665 0 24.0001C0 37.2337 10.7302 48.0001 23.9193 48.0001C37.1085 48.0001 47.8387 37.2337 47.8387 24.0001C47.8387 10.7665 37.1086 0.00012207 23.9193 0.00012207ZM8.88503 39.1719C7.34382 37.6343 6.03552 35.8621 5.01683 33.9145C3.46544 30.9487 2.58591 27.5758 2.58591 24.0001C2.58591 12.1972 12.156 2.59475 23.9193 2.59475C29.4989 2.59475 34.5841 4.75608 38.3896 8.28704C40.3627 10.1176 41.992 12.3159 43.1668 14.7731C44.5034 17.5685 45.2528 20.6981 45.2528 24.0001C45.2528 35.8031 35.6827 45.4055 23.9193 45.4055C18.0595 45.4055 12.7445 43.0223 8.88503 39.1719Z"
    fill="#2D69AA" />
  <path
    d="M15.919 21.4056C17.3472 21.4056 18.505 20.2439 18.505 18.8109C18.505 17.378 17.3472 16.2163 15.919 16.2163C14.4909 16.2163 13.3331 17.378 13.3331 18.8109C13.3331 20.2439 14.4909 21.4056 15.919 21.4056Z"
    fill="#2D69AA" />
  <path
    d="M31.9193 21.4056C33.3475 21.4056 34.5053 20.2439 34.5053 18.8109C34.5053 17.378 33.3475 16.2163 31.9193 16.2163C30.4912 16.2163 29.3334 17.378 29.3334 18.8109C29.3334 20.2439 30.4912 21.4056 31.9193 21.4056Z"
    fill="#2D69AA" />
</svg>
