<svg width="48" height="48" fill="none" xmlns="http://www.w3.org/2000/svg">
  <path fill-rule="evenodd" clip-rule="evenodd"
    d="M23.4376 0H24.3431C24.7611 0.115807 25.1769 0.237314 25.5559 0.456623C25.8057 0.641094 26.036 0.847831 26.2548 1.06767C26.3639 1.22647 26.4729 1.38521 26.582 1.544C26.666 1.74126 26.7501 1.93857 26.8341 2.13582C26.9058 2.48564 26.9355 2.84031 26.9562 3.19604C26.9311 3.55092 26.9316 3.9058 26.956 4.26068C26.9272 4.61598 26.9279 4.97123 26.9561 5.32648C26.9312 5.68136 26.9315 6.03629 26.956 6.39117C26.9272 6.74642 26.9279 7.10173 26.9561 7.45698C26.9312 7.81186 26.9315 8.16679 26.956 8.52167C26.9356 8.87666 26.9152 9.23164 26.8948 9.58663C26.8096 9.87817 26.7018 10.1613 26.5765 10.4378C26.2498 10.9485 25.8272 11.359 25.3011 11.6618C25.2384 11.6618 25.1889 11.6921 25.1433 11.7308C25.0981 11.7229 25.0655 11.7444 25.0373 11.7762C24.8593 11.8285 24.6813 11.8809 24.5032 11.9332C24.1479 11.9753 23.7926 11.989 23.4369 11.9381C23.3313 11.9158 23.2257 11.8934 23.1201 11.8711C23.0931 11.8314 23.0542 11.8255 23.0107 11.8323C22.8695 11.7751 22.7281 11.7179 22.5868 11.6607C22.0595 11.3562 21.6343 10.9459 21.3112 10.4298C21.1839 10.156 21.0836 9.87215 20.9966 9.58338C20.9759 9.22962 20.9554 8.8758 20.9348 8.52204C20.9612 8.1669 20.9615 7.81175 20.935 7.45661C20.9652 7.10157 20.9652 6.74653 20.9348 6.39155C20.9612 6.0364 20.9615 5.68126 20.935 5.32611C20.9652 4.97107 20.9652 4.61609 20.9348 4.26105C20.9612 3.9059 20.9615 3.55076 20.935 3.19561C20.9608 2.84111 20.9845 2.48639 21.0567 2.13721C21.1404 1.94054 21.2242 1.74382 21.3079 1.54715C21.4167 1.38761 21.5255 1.22807 21.6343 1.06847C21.8639 0.836112 22.1092 0.622023 22.3741 0.430627C22.7092 0.239072 23.088 0.155812 23.4376 0Z"
    fill="white" />
  <path opacity="0.2" fill-rule="evenodd" clip-rule="evenodd"
    d="M0 24.2343V23.4354C0.149381 23.0833 0.240479 22.7076 0.428804 22.3712C0.62075 22.1059 0.83683 21.8614 1.06735 21.6294C1.22669 21.5212 1.38603 21.4132 1.54532 21.3051C1.74217 21.2203 1.93902 21.1356 2.13587 21.0508C2.48614 20.9828 2.84106 20.9549 3.19624 20.9297C3.5512 20.9553 3.90617 20.9554 4.26113 20.9297C4.61642 20.9593 4.97165 20.9592 5.32693 20.9297C5.6819 20.9552 6.03687 20.9555 6.39183 20.9297C6.74706 20.9593 7.10235 20.9592 7.45763 20.9297C7.8126 20.9552 8.16757 20.9555 8.52253 20.9297C8.87675 20.9506 9.23092 20.9716 9.58514 20.9926C10.852 21.342 11.6572 22.1365 11.94 23.4346C11.9917 23.7903 11.9779 24.1457 11.9346 24.5009C11.8406 24.8148 11.7461 25.1278 11.5811 25.4152C11.1307 26.1991 10.4438 26.6602 9.5854 26.8907C9.23108 26.9114 8.8768 26.9322 8.52253 26.9528C8.16757 26.9271 7.8126 26.9273 7.45763 26.953C7.10235 26.9232 6.74712 26.9237 6.39183 26.9528C6.03687 26.9271 5.6819 26.9273 5.32693 26.953C4.9717 26.9232 4.61642 26.9237 4.26113 26.9528C3.90617 26.9272 3.5512 26.9272 3.19624 26.9528C2.84143 26.926 2.48636 26.9017 2.13688 26.8294C1.93955 26.7453 1.74228 26.6613 1.54495 26.5772C1.38619 26.4682 1.22749 26.3591 1.06879 26.2501C0.852759 26.0285 0.640195 25.8038 0.45901 25.5517C0.231796 25.1385 0.0718668 24.7017 0 24.2343Z"
    fill="white" />
  <path opacity="0.4" fill-rule="evenodd" clip-rule="evenodd"
    d="M21.308 46.3353C21.2323 46.1591 21.1566 45.9829 21.0808 45.8067C20.9915 45.4568 20.9636 45.0985 20.9349 44.7404C20.9611 44.3853 20.9614 44.0301 20.935 43.675C20.9652 43.3199 20.9652 42.9649 20.9348 42.6098C20.9612 42.2547 20.9614 41.8996 20.935 41.5444C20.9652 41.1894 20.9652 40.8344 20.9348 40.4794C20.9612 40.1242 20.9614 39.7691 20.935 39.4139C20.9529 39.059 20.9707 38.7042 20.9886 38.3493C21.3168 37.0509 22.1296 36.2456 23.4368 35.9432C23.7925 35.8947 24.148 35.9052 24.5032 35.9493C24.8139 36.0319 25.1119 36.1495 25.4064 36.2766C25.8809 36.5813 26.2699 36.9716 26.576 37.4449C26.7035 37.7393 26.8251 38.0359 26.9021 38.3486L26.9561 39.4143C26.9312 39.7692 26.9315 40.1241 26.956 40.479C26.9272 40.8343 26.9279 41.1895 26.9561 41.5448C26.9312 41.8997 26.9315 42.2547 26.956 42.6096C26.9272 42.9648 26.9279 43.3201 26.9561 43.6753C26.9312 44.0302 26.9315 44.3851 26.956 44.74C26.9309 45.099 26.9047 45.4578 26.8082 45.8068C26.7328 45.9841 26.6575 46.1614 26.5821 46.3386C26.4565 46.5157 26.331 46.6929 26.2055 46.87C25.9934 47.0513 25.7814 47.2327 25.5693 47.414C24.7572 47.8767 23.9056 48.0312 23.0027 47.7241C22.7872 47.6508 22.5835 47.5429 22.3744 47.4508C22.1309 47.2729 21.8996 47.0803 21.6843 46.8689C21.5589 46.691 21.4334 46.5132 21.308 46.3353Z"
    fill="white" />
  <path opacity="0.6" fill-rule="evenodd" clip-rule="evenodd"
    d="M46.343 26.5794C46.1657 26.6547 45.9884 26.73 45.8112 26.8053C45.462 26.9011 45.1024 26.9218 44.7443 26.9528C44.3893 26.9272 44.0344 26.9273 43.6794 26.9531C43.3241 26.9232 42.9689 26.9238 42.6136 26.9529C42.2587 26.927 41.9037 26.9273 41.5487 26.9531C41.1935 26.9232 40.8382 26.9238 40.4829 26.9529C40.128 26.927 39.773 26.9273 39.418 26.9531C39.0628 26.9343 38.7077 26.9155 38.3525 26.8967C37.5273 26.7026 36.8732 26.2558 36.3842 25.5648C36.3737 25.4974 36.3457 25.4406 36.2864 25.4025C36.1547 25.1097 36.0374 24.8116 35.955 24.5007C35.9157 24.1456 35.9004 23.7904 35.9492 23.4348C35.9957 23.2736 36.0319 23.1087 36.0905 22.952C36.4884 21.8886 37.2643 21.2568 38.3525 20.9857C38.7077 20.9671 39.0628 20.9484 39.418 20.9297C39.773 20.9552 40.128 20.9556 40.4829 20.9297C40.8382 20.9593 41.1934 20.9592 41.5487 20.9297C41.9037 20.9552 42.2587 20.9556 42.6136 20.9297C42.9689 20.9593 43.3241 20.9592 43.6794 20.9297C44.0343 20.9554 44.3893 20.9554 44.7443 20.9299C45.1024 20.9608 45.462 20.9804 45.8113 21.0759L46.3691 21.3155C46.5198 21.4189 46.6706 21.5224 46.8213 21.6259C47.0544 21.8572 47.2735 22.1006 47.4628 22.3697C48.0492 23.4432 48.0355 24.509 47.4216 25.5671C47.2395 25.7798 47.0574 25.9925 46.8753 26.2053C46.6979 26.33 46.5204 26.4547 46.343 26.5794Z"
    fill="white" />
  <path opacity="0.6" fill-rule="evenodd" clip-rule="evenodd"
    d="M41.2523 40.4281C41.0303 40.726 40.7691 40.9858 40.4807 41.219C40.3369 41.3018 40.1932 41.3846 40.0494 41.4675C39.8393 41.538 39.6291 41.6086 39.419 41.6792C39.0653 41.741 38.7089 41.7449 38.3516 41.7287C37.5797 41.5988 36.9424 41.2297 36.4229 40.6483C36.365 40.5834 36.2925 40.5315 36.2268 40.4736L36.2286 40.4755C35.8905 40.1022 35.5373 39.7441 35.1595 39.4108C34.8243 39.0357 34.4681 38.6818 34.0938 38.3458C33.7565 37.9728 33.4037 37.6156 33.0254 37.2839C32.956 37.2057 32.8936 37.1199 32.8162 37.0507C32.2334 36.5296 31.7722 35.9313 31.5874 35.1531C31.5517 34.798 31.5144 34.4429 31.5618 34.0857C31.6234 33.7476 31.7337 33.425 31.8741 33.112C32.1648 32.6218 32.5563 32.2287 33.0287 31.9135C33.3691 31.7554 33.7181 31.6229 34.0886 31.5536C34.4459 31.5189 34.8015 31.541 35.1564 31.5845C35.8327 31.7575 36.3988 32.1087 36.8665 32.6266C36.9952 32.7691 37.1451 32.8924 37.2854 33.0245C37.6199 33.4001 37.9752 33.7551 38.3498 34.0907C38.6834 34.4691 39.0439 34.8208 39.415 35.1621C39.4323 35.1798 39.4496 35.1975 39.4669 35.2152C39.7695 35.5485 40.0851 35.8691 40.4202 36.1701C40.4377 36.1872 40.4552 36.2043 40.4728 36.2214C40.5563 36.3121 40.6336 36.4095 40.7242 36.4924C41.2737 36.9958 41.6032 37.6172 41.7329 38.348C41.7485 38.7053 41.7466 39.0618 41.6831 39.4153L41.4946 39.9998C41.4138 40.1426 41.3331 40.2853 41.2523 40.4281Z"
    fill="white" />
  <path opacity="0.200753" fill-rule="evenodd" clip-rule="evenodd"
    d="M14.8532 10.6031C14.8709 10.6204 14.8887 10.6377 14.9064 10.6551C15.0394 10.7953 15.1644 10.9443 15.3069 11.0743C15.8185 11.5408 16.1453 12.1127 16.3084 12.7822C16.3486 13.1374 16.3542 13.4931 16.3237 13.8494C16.2406 14.2089 16.1229 14.5558 15.9495 14.8827C15.6731 15.3163 15.3178 15.6714 14.8862 15.9504C14.5581 16.1215 14.2117 16.2415 13.8515 16.3236C13.4949 16.3606 13.1387 16.3484 12.7829 16.3121C12.7164 16.2908 12.6504 16.2676 12.5832 16.2486C12.1335 16.1214 11.7233 15.9204 11.3795 15.5985C11.1362 15.3708 10.8971 15.1387 10.6561 14.9085L10.6584 14.9107C10.3227 14.5351 9.9648 14.1817 9.59156 13.8435L9.59332 13.8453C9.2554 13.4722 8.90182 13.1149 8.52507 12.7808C8.19083 12.4041 7.83181 12.0523 7.45948 11.7137L7.46108 11.7153C7.39661 11.6439 7.33817 11.5657 7.26668 11.5021C6.68674 10.9857 6.3022 10.3575 6.16108 9.58824C6.13551 9.23229 6.1467 8.87715 6.18559 8.5227C6.38606 7.74348 6.79099 7.10579 7.46347 6.64539C7.78882 6.42267 8.15577 6.3059 8.52374 6.1869C8.93299 6.14833 9.34197 6.12639 9.74963 6.20395C10.4399 6.3506 10.9942 6.72241 11.4651 7.23497C11.5417 7.31844 11.632 7.38945 11.7159 7.46621C11.7333 7.48379 11.7506 7.50131 11.7679 7.51895C12.0884 7.87372 12.4259 8.21139 12.7812 8.53122C12.7985 8.54901 12.8158 8.56675 12.833 8.58449C13.1547 8.93809 13.4914 9.27661 13.8466 9.59665C13.8636 9.61434 13.8807 9.63202 13.8978 9.64971C14.2007 9.98307 14.5169 10.3032 14.8532 10.6031Z"
    fill="white" />
  <path fill-rule="evenodd" clip-rule="evenodd"
    d="M40.4796 6.6662C40.7708 6.90202 41.0342 7.16479 41.2575 7.46662C41.3363 7.60549 41.4152 7.74436 41.494 7.88323C41.5633 8.09679 41.6327 8.31045 41.702 8.52406C41.7394 8.87814 41.7543 9.2327 41.7256 9.58827C41.5875 10.4632 41.0646 11.1042 40.4482 11.6881C40.0947 12.0424 39.7407 12.3974 39.3872 12.7517C39.0325 13.1069 38.6779 13.4621 38.3232 13.8173C37.968 14.173 37.6127 14.5287 37.2576 14.8843C37.186 14.9499 37.1083 15.0101 37.0437 15.0819C36.5247 15.6589 35.9306 16.1183 35.1565 16.2998C34.8048 16.3414 34.4525 16.3645 34.0985 16.3333C33.7261 16.2583 33.3702 16.1351 33.0285 15.9699C33.0218 15.9376 33.0003 15.928 32.9701 15.9319C32.5717 15.6665 32.2414 15.332 31.9662 14.9417L31.9677 14.9216L31.9496 14.9126C31.7771 14.5744 31.6434 14.2222 31.5664 13.8495C31.5237 13.4932 31.54 13.1375 31.5771 12.782C31.6788 12.4226 31.805 12.073 31.993 11.7482C32.2709 11.3368 32.6639 11.0298 32.9831 10.6557C33.0246 10.6554 33.0381 10.6276 33.0447 10.5928C33.3752 10.2942 33.6921 9.98225 33.9896 9.65076C34.0649 9.61597 34.1175 9.55839 34.1549 9.48562C34.4718 9.20244 34.772 8.90259 35.0556 8.58612C35.1294 8.54974 35.185 8.49508 35.2213 8.42099C35.5373 8.13738 35.8388 7.83907 36.1216 7.52223C36.1953 7.48531 36.2507 7.43029 36.2874 7.35635C36.4214 7.2292 36.5567 7.10348 36.6892 6.97473C37.1549 6.52194 37.7214 6.27557 38.3515 6.15785C38.7085 6.14192 39.0646 6.14805 39.4186 6.20366L40.1102 6.44497C40.2333 6.51869 40.3564 6.59247 40.4796 6.6662Z"
    fill="white" />
  <path opacity="0.4" fill-rule="evenodd" clip-rule="evenodd"
    d="M10.6078 33.025C10.6399 33.0249 10.6561 33.0091 10.6558 32.9768C11.0322 32.6629 11.333 32.2652 11.7457 31.9916L11.752 31.9877C12.0756 31.7993 12.4241 31.6725 12.783 31.5717C13.1388 31.5325 13.4949 31.5213 13.8517 31.5591C14.2234 31.6388 14.5773 31.7676 14.9139 31.9442L14.9261 31.9635L14.9489 31.9629C15.3627 32.2505 15.7049 32.607 15.9779 33.0303C15.9911 33.0548 16.0045 33.0792 16.0177 33.1037C16.1598 33.4191 16.2638 33.747 16.3356 34.0852C16.3673 34.4426 16.3434 34.7982 16.3019 35.1533C16.2858 35.1745 16.259 35.1937 16.255 35.2169C16.1565 35.7906 15.8535 36.2513 15.4593 36.6616C15.2689 36.8596 15.0763 37.0556 14.8848 37.2524C14.5293 37.6068 14.1739 37.9612 13.8184 38.3156C13.4638 38.6698 13.1093 39.0241 12.7547 39.3783L12.7481 39.385C12.3951 39.7375 12.0423 40.0902 11.6893 40.4428L11.6869 40.4448C11.4884 40.6342 11.2957 40.8301 11.09 41.0115C10.7036 41.3522 10.2527 41.5695 9.74955 41.6789C9.34003 41.7496 8.93057 41.7507 8.52105 41.6789C7.29937 41.384 6.54554 40.6106 6.20453 39.4149C6.15264 39.0608 6.14337 38.7048 6.15792 38.3479C6.29009 37.5548 6.6783 36.9078 7.27747 36.3799C7.32957 36.334 7.37012 36.2748 7.41598 36.2218C7.46841 36.2041 7.5025 36.1681 7.52125 36.1168C7.83786 35.833 8.13859 35.5334 8.42084 35.2153C8.495 35.1799 8.55003 35.1252 8.58604 35.0514C8.90169 34.7664 9.20365 34.4678 9.48584 34.1495C9.53869 34.1318 9.573 34.0959 9.59058 34.0433C9.94794 33.7222 10.2887 33.3844 10.6078 33.025Z"
    fill="white" />
</svg>
