<svg width="48" height="44" fill="none" xmlns="http://www.w3.org/2000/svg">
  <path fill-rule="evenodd" clip-rule="evenodd"
    d="M14.1849 27.1712L9.23077 43.3846L9.39291 43.2782L9.16642 44L11.8213 42.2195L24 34.0519L36.1787 42.2195L38.8336 44L37.8765 40.95L33.6017 27.3271L45.3338 18.7558L48 16.808L44.6987 16.7429L29.9326 16.4519L25.063 2.94794L24 0L18 16.1538L0 16.6154L0.264081 16.8028L0 16.808L2.66617 18.7558L14.1849 27.1712ZM24 31.6438L25.114 32.3909L35.2217 39.1695L31.6934 27.9259L31.2642 26.5579L32.4219 25.7121L42.0326 18.6908L29.8932 18.4515L28.5178 18.4244L28.0512 17.1303L24 5.89587V31.6438Z"
    fill="#2D69AA" />
</svg>
