<svg width="48" height="48" viewBox="0 0 48 48" fill="none" xmlns="http://www.w3.org/2000/svg">
<g id="Functional">
<g id="Icon-Functional-Help-Filled-Black">
<path id="Oval (Stroke)" fill-rule="evenodd" clip-rule="evenodd" d="M24 44.25C35.1838 44.25 44.25 35.1838 44.25 24C44.25 12.8162 35.1838 3.75 24 3.75C12.8162 3.75 3.75 12.8162 3.75 24C3.75 35.1838 12.8162 44.25 24 44.25ZM48 24C48 37.2548 37.2548 48 24 48C10.7452 48 0 37.2548 0 24C0 10.7452 10.7452 0 24 0C37.2548 0 48 10.7452 48 24Z" fill="#2D69AA"/>
<path id="?" fill-rule="evenodd" clip-rule="evenodd" d="M20.4514 28.3746V27.0738C20.4514 25.9488 20.6916 24.9703 21.1721 24.1383C21.6526 23.3062 22.5315 22.4215 23.8088 21.484C25.0393 20.6051 25.8508 19.8902 26.2434 19.3394C26.636 18.7887 26.8323 18.1734 26.8323 17.4937C26.8323 16.732 26.551 16.1519 25.9885 15.7535C25.426 15.3551 24.6409 15.1559 23.6331 15.1559C21.8752 15.1559 19.8713 15.7301 17.6213 16.8785L15.7053 13.0289C18.3186 11.564 21.0901 10.8316 24.0198 10.8316C26.4339 10.8316 28.3528 11.4117 29.7766 12.5719C31.2004 13.732 31.9124 15.2789 31.9124 17.2125C31.9124 18.5016 31.6194 19.6148 31.0334 20.5523C30.4475 21.4898 29.3342 22.5445 27.6936 23.7164C26.5686 24.5484 25.8567 25.1812 25.5579 25.6148C25.259 26.0484 25.1096 26.6168 25.1096 27.3199V28.3746H20.4514ZM19.8889 34.3863C19.8889 33.4019 20.1526 32.6578 20.6799 32.1539C21.2073 31.65 21.9748 31.398 22.9827 31.398C23.9553 31.398 24.7082 31.6559 25.2415 32.1715C25.7747 32.6871 26.0413 33.4254 26.0413 34.3863C26.0413 35.3121 25.7717 36.0416 25.2327 36.5748C24.6936 37.108 23.9436 37.3746 22.9827 37.3746C21.9983 37.3746 21.2366 37.1139 20.6975 36.5924C20.1584 36.0709 19.8889 35.3355 19.8889 34.3863Z" fill="#2D69AA"/>
</g>
</g>
</svg>
