<svg width="40" height="48" fill="none" xmlns="http://www.w3.org/2000/svg">
  <g clip-path="url(#clip0_122_3919)">
    <path fill-rule="evenodd" clip-rule="evenodd"
      d="M2.58982 45.336H30.4016C31.1548 45.336 34.9241 45.1914 35.1372 42.3311C35.1343 42.0084 35.0396 41.4238 34.5912 41.0539L33.0106 39.7539L34.8205 38.8238C35.8757 38.2803 36.4573 37.3609 36.4573 36.2344C36.4573 35.283 35.8876 34.3011 35.007 33.7348L32.9396 32.4074L35.1668 31.389C35.448 31.2596 36.299 30.8715 36.4736 28.8925C36.4692 28.0248 35.6789 26.8344 34.97 26.3823L32.7117 24.9422L35.2068 23.9999C35.4007 23.9269 35.9941 23.7031 36.0977 23.6422L36.2575 23.522C36.7415 23.1688 36.7444 22.3178 36.6275 21.8322C36.484 21.2325 36.0459 19.4057 32.0161 19.1835C31.1267 19.1348 30.221 19.1409 29.3138 19.1424C27.2997 19.1546 25.219 19.1591 23.1737 18.6248L21.7412 18.2519L22.2902 16.8392C22.8955 15.2819 24.624 11.872 24.6966 11.7274C26.7743 6.81507 24.9082 4.20286 24.8268 4.09478C24.1993 3.1799 23.5704 2.71865 22.9177 2.66842C22.2296 2.60448 21.5666 2.98201 21.1256 3.30168C21.5444 5.23496 21.6776 7.733 20.5173 9.95094C19.9461 11.1277 19.03 12.0425 18.2235 12.8493L17.7928 13.2862C16.5867 14.3747 15.715 15.2713 14.7058 16.3095C13.7705 17.4131 12.7419 18.6218 11.8865 19.7954L11.5314 20.246C10.898 21.0513 10.1787 21.9647 8.92971 22.6071C7.74431 23.286 6.07647 23.8279 3.87882 24.2389C3.41117 24.3181 2.98792 24.3622 2.58982 24.3851V45.336ZM30.4016 48H0V21.747H1.29491C1.99638 21.747 2.6579 21.747 3.43337 21.6146C5.3306 21.2599 6.73946 20.8138 7.72211 20.2506C8.5183 19.8396 8.95931 19.2809 9.51723 18.57L9.85613 18.1438C10.7293 16.9427 11.7904 15.696 12.8159 14.4903C13.917 13.3547 14.8167 12.4292 16.0243 11.3408L16.418 10.9404C17.1417 10.2158 17.8254 9.53232 18.219 8.724C19.1647 6.91554 18.851 4.71587 18.4247 3.18295L18.2205 2.44769L18.7355 1.89511C18.9324 1.68351 20.7245 -0.166041 23.1131 0.0120639C24.5737 0.124712 25.8494 0.963481 26.9031 2.50401C26.9741 2.58774 29.8126 6.31273 27.0318 12.8752C26.9904 12.962 26.064 14.7918 25.3492 16.3323C26.613 16.4891 27.9287 16.4845 29.3035 16.4784C30.2625 16.4769 31.2155 16.4723 32.1553 16.5241C37.07 16.7935 38.6668 19.2124 39.1419 21.1944C39.4615 22.5294 39.312 24.4642 37.8706 25.6075C38.5617 26.5589 39.059 27.7645 39.059 29.0128C38.908 30.7573 38.3753 31.9096 37.7315 32.6738C38.5647 33.6816 39.0471 34.945 39.0471 36.2344C39.0471 37.8313 38.3989 39.2789 37.2624 40.3171C37.5643 40.9397 37.7241 41.6582 37.7241 42.4346C37.471 45.8551 34.5986 48 30.4016 48Z"
      fill="#333333" stroke="#333333" stroke-width="0.5" />
  </g>
  <defs>
    <clipPath id="clip0_122_3919">
      <rect width="39.8864" height="48" fill="white" />
    </clipPath>
  </defs>
</svg>
