<svg width="48" height="48" fill="none" xmlns="http://www.w3.org/2000/svg">
  <g clip-path="url(#clip0_121_3832)">
    <path fill-rule="evenodd" clip-rule="evenodd"
      d="M36 12C42.6274 18.6274 42.6274 29.3726 36 36C29.3726 42.6274 18.6274 42.6274 12 36C5.37264 29.3726 5.37264 18.6274 12 12C18.6274 5.37264 29.3726 5.37264 36 12Z"
      fill="#333333" />
    <path fill-rule="evenodd" clip-rule="evenodd"
      d="M24.8343 31.8081L24.8344 24.7153L31.6887 24.7152C32.1656 24.7152 32.5232 24.3576 32.5232 23.8808C32.5232 23.404 32.1656 23.0464 31.6887 23.0464L24.8344 23.0464L24.8344 16.4305C24.8344 15.9536 24.4768 15.596 24 15.596C23.5232 15.596 23.1655 15.9537 23.1655 16.4305L23.1655 23.0464L16.3111 23.0465C15.8343 23.0465 15.4767 23.4041 15.4767 23.8809C15.5363 24.2982 15.8939 24.6558 16.3111 24.7154L23.1655 24.7153L23.1666 31.8081C23.1654 32.2849 23.5236 32.6431 24.0004 32.6419C24.4767 32.6425 24.8349 32.2843 24.8343 31.8081Z"
      fill="white" />
  </g>
  <defs>
    <clipPath id="clip0_121_3832">
      <rect width="48" height="48" fill="white" />
    </clipPath>
  </defs>
</svg>
