<svg width="40" height="48" fill="none" xmlns="http://www.w3.org/2000/svg">
  <path fill-rule="evenodd" clip-rule="evenodd"
    d="M37.9979 0.340795C30.303 13.085 19.8499 23.6088 10.3931 35.0155C9.86918 32.6679 9.34216 30.3186 8.90713 28.0391C8.74497 27.0061 7.1639 26.326 6.47159 27.3605C2.89313 33.2237 0.808428 39.6973 0.0163334 46.5041C-0.150505 47.4175 0.995537 48.2869 1.86871 47.9097C8.88842 45.1803 15.7085 42.1692 21.7101 37.8858C22.5349 37.2118 22.2168 35.6699 21.0318 35.5533C18.3608 35.3442 15.76 35.579 13.1389 36.1909C22.5786 25.1582 33.6648 14.7269 39.7146 1.38287C40.0577 0.70128 39.2952 0 38.6372 0C38.3861 0 38.1523 0.0999665 37.9979 0.340795ZM7.34633 31.5606C7.62075 33.0783 7.97626 34.6581 8.18676 36.2606C8.09009 36.712 8.36451 37.0497 8.68104 37.1603C8.5984 38.2781 10.1639 39.202 11.0792 38.0615L11.2117 37.8994C13.0079 37.6919 14.7215 37.4193 16.6035 37.2739C12.2423 39.9927 7.74081 42.2131 2.98825 44.2412C3.85363 39.7867 5.20705 35.5714 7.34633 31.5606Z"
    fill="#333333" />
</svg>
