<svg width="37" height="47" fill="none" xmlns="http://www.w3.org/2000/svg">
  <path
    d="M12.968 0.202355C12.3814 0.202355 11.7948 0.202355 11.2081 0.348081C11.2081 0.348081 13.2613 1.22243 14.4345 2.38824C14.4345 2.38824 10.9148 1.80534 8.27503 2.82542C8.27503 2.82542 11.0615 3.69977 11.6481 4.13695C11.2081 4.13695 8.12838 3.69977 5.04863 5.30275C5.04863 5.30275 6.36852 5.88566 7.24845 6.90574C7.24845 6.90574 6.66183 10.9861 7.3951 12.8805C7.83507 13.9006 8.12838 14.4835 8.42169 14.7749V15.5035C7.54176 15.795 6.51517 16.6694 6.51517 18.4181C6.51517 18.5638 6.51517 20.6039 9.15496 22.2069C9.15496 22.2069 9.88824 22.7898 10.0349 23.8099C10.4749 25.8501 12.8213 29.7847 17.9543 30.2218H18.8342C23.9671 29.7847 26.3136 25.8501 26.7535 23.8099C26.9002 22.7898 27.6335 22.2069 27.6335 22.2069C30.4199 20.4582 30.4199 18.4181 30.4199 18.4181C30.4199 16.6694 29.3933 15.795 28.6601 15.5035V14.4835C28.9534 14.192 29.3933 13.4634 29.3933 12.7348C29.3933 11.569 29.6866 8.07154 29.1 7.48864C29.1 7.48864 27.7801 5.88566 27.0469 5.88566C26.6069 5.44848 26.1669 4.86558 25.5803 4.4284C25.4337 4.28267 25.287 4.28267 25.1403 4.13695C23.6738 2.82542 20.3007 -0.0890963 12.968 0.202355ZM22.7939 8.80017C23.9671 8.80017 25.1403 9.23734 25.8736 9.96597C25.8736 9.96597 26.4602 10.4032 27.0469 11.2775C27.0469 11.2775 27.0469 11.2775 27.0469 11.4232V16.2322C27.0469 16.6694 27.3402 16.9608 27.7801 16.9608C28.0734 16.9608 28.8067 17.1065 28.8067 18.4181C28.8067 18.4181 28.8067 19.7296 26.7535 21.0411C26.7535 21.0411 25.5803 21.9155 25.287 23.5185C25.287 23.5185 24.1138 28.3274 18.8342 28.7646H18.1009C12.8213 28.3274 11.6481 23.6642 11.6481 23.5185C11.3548 21.9155 10.1815 21.0411 10.0349 20.8954C8.12838 19.7296 7.98172 18.4181 7.98172 18.4181C7.98172 17.1065 8.86165 16.9608 9.00831 16.9608C9.44827 16.9608 9.74158 16.5236 9.74158 16.2322V11.569C9.74158 11.4232 9.74158 11.2775 9.74158 11.2775C10.7682 9.5288 11.6481 8.80017 14.4345 9.23734C17.3676 9.67452 19.7141 9.82025 21.6206 9.09162C21.9139 8.94589 22.3539 8.80017 22.7939 8.80017ZM10.3282 27.8902C0.648979 30.9505 1.38225 34.1564 0.795634 35.9051C0.209015 37.6538 0.209015 43.9201 0.209015 43.9201C4.75532 46.6888 14.7278 46.6888 18.3942 46.6888C22.0606 46.8346 32.0331 46.6888 36.4328 44.0658C36.4328 44.0658 36.4328 37.7996 35.8461 36.0509C35.2595 34.4479 35.9928 31.2419 26.3136 28.036C24.5537 30.2218 21.6206 31.6791 18.2476 31.6791C14.8745 31.6791 12.0881 30.0761 10.3282 27.8902Z"
    fill="#2D69AA" />
</svg>
