<svg width="48" height="57" fill="none" xmlns="http://www.w3.org/2000/svg">
  <g id="Group 74">
    <path id="Vector 368"
      d="M17.8274 9.68155C13.1164 10.8466 10.9571 14.0503 10.4664 15.5066C9.48491 17.9335 7.52197 24.2436 7.52197 30.0686C7.52197 37.3499 6.04976 35.8937 4.57755 40.2624C3.10535 44.6312 4.57755 46.0875 7.52197 47.5437C10.4664 49 16.3552 49 22.244 49C28.1329 49 35.4939 47.5437 41.3827 46.0875C47.2716 44.6312 41.3827 43.175 41.3827 37.3499C41.3827 31.5249 39.9105 27.1561 39.9105 22.7873C39.9105 18.4185 35.4939 12.5941 32.5495 9.68155C29.6051 6.76902 23.7163 8.22528 17.8274 9.68155Z"
      fill="#E0E9F1" />
    <path id="Vector 369"
      d="M20.4444 53.9091C18.4889 53.9091 18 51.4545 18 50.2273V49L29 50.2273C28.1852 50.6364 26.3111 51.9455 25.3333 53.9091C24.1111 56.3636 22.8889 53.9091 20.4444 53.9091Z"
      fill="#E0E9F1" />
    <path id="Vector 370"
      d="M24.5 3C22.6333 3 21.3889 3.88889 21 4.33333V7L28 5.66667C27.6111 4.77778 26.3667 3 24.5 3Z"
      fill="#E0E9F1" />
    <path id="Vector 20 (Stroke)" fill-rule="evenodd" clip-rule="evenodd"
      d="M11.5501 1.98684C12.0225 2.96284 11.617 4.13833 10.6444 4.61238C9.22156 5.3059 7.38544 6.46764 6.02197 8.29193C5.45639 9.04866 4.92242 10.2037 4.51614 11.3678C4.31906 11.9324 4.16522 12.4611 4.06026 12.8902C4.00779 13.1047 3.96982 13.285 3.94489 13.4256C3.91889 13.5722 3.91371 13.6388 3.91344 13.6423L3.91343 13.6424C3.862 14.7262 2.94476 15.563 1.86472 15.5114C0.78468 15.4598 -0.0491737 14.5393 0.00225681 13.4555C0.0388243 12.6849 0.373647 11.3496 0.820639 10.0689C1.28186 8.74749 1.97433 7.15884 2.88949 5.93439C4.76652 3.42296 7.20606 1.92006 8.93368 1.078C9.90629 0.603949 11.0777 1.01085 11.5501 1.98684Z"
      fill="#333333" />
    <path id="Vector 21 (Stroke)" fill-rule="evenodd" clip-rule="evenodd"
      d="M36.4499 2.05484C35.9775 3.03083 36.383 4.20632 37.3556 4.68038C38.7784 5.37389 40.6146 6.53564 41.978 8.35992C42.5436 9.11665 43.0776 10.2717 43.4839 11.4358C43.6809 12.0004 43.8348 12.5291 43.9397 12.9582C43.9922 13.1727 44.0302 13.353 44.0551 13.4936C44.0811 13.6402 44.0863 13.7068 44.0866 13.7103L44.0866 13.7104C44.138 14.7942 45.0552 15.631 46.1353 15.5794C47.2153 15.5278 48.0492 14.6073 47.9977 13.5235C47.9612 12.7529 47.6264 11.4176 47.1794 10.1369C46.7181 8.81548 46.0257 7.22683 45.1105 6.00238C43.2335 3.49096 40.7939 1.98805 39.0663 1.146C38.0937 0.671942 36.9223 1.07884 36.4499 2.05484Z"
      fill="#333333" />
    <path id="Vector 22 (Stroke)" fill-rule="evenodd" clip-rule="evenodd"
      d="M24.506 9.04041C21.421 8.89094 18.4625 9.43639 16.597 10.8975C14.095 12.857 12.5358 15.004 11.5737 17.6034C10.5932 20.2522 10.1941 23.4744 10.1941 27.6401C10.1941 33.5795 8.12198 38.1507 7.08341 40.4419C6.85128 40.954 6.67078 41.3522 6.57658 41.6264C5.90379 43.5843 5.87615 44.3053 5.96182 44.6922C6.02538 44.9792 6.14251 45.2336 6.42978 45.4642C6.74587 45.718 7.45602 46.0916 8.9912 46.2079C10.6056 46.3302 17.3483 46.4669 24.3341 46.4431C27.8103 46.4312 31.3121 46.3797 34.2264 46.2686C37.2089 46.155 39.3952 45.9835 40.3604 45.7729C41.1616 45.5982 41.3697 45.3318 41.4396 45.219C41.543 45.0521 41.6632 44.6846 41.5875 43.9141C41.4386 42.4012 40.6836 40.4586 39.7779 38.1288C39.7059 37.9435 39.6329 37.7557 39.5592 37.5655C38.5087 34.8548 38.1683 32.2689 38.0362 29.6621C37.9762 28.477 37.9585 27.2637 37.9407 26.0405C37.9391 25.9297 37.9375 25.8188 37.9358 25.7079C37.9158 24.3597 37.8909 22.981 37.8089 21.5177C37.5176 16.3148 34.3269 12.7217 31.1932 10.6509C30.7558 10.3618 29.8886 9.98543 28.6496 9.6618C27.4444 9.34697 26.0066 9.11312 24.506 9.04041ZM29.636 5.85928C31.0681 6.23338 32.4002 6.74375 33.3467 7.36927C37.1167 9.86056 41.3345 14.4415 41.7184 21.2973C41.8052 22.8487 41.8309 24.2983 41.851 25.6493C41.8526 25.757 41.8541 25.864 41.8557 25.9702C41.8738 27.2091 41.8905 28.3521 41.9468 29.4626C42.0678 31.852 42.3688 33.9745 43.2086 36.1414C43.2945 36.3632 43.383 36.5895 43.4729 36.8194C44.3135 38.9699 45.2786 41.4387 45.4841 43.5282C45.6024 44.7308 45.5075 46.095 44.7649 47.2936C43.9888 48.5463 42.7201 49.2792 41.1922 49.6125C39.8283 49.91 37.2843 50.0842 34.375 50.195C31.3977 50.3085 27.8463 50.3603 24.3474 50.3723C17.3833 50.396 10.4889 50.2617 8.69652 50.126C6.65364 49.9713 5.1022 49.4304 3.98371 48.5324C2.83639 47.6114 2.34593 46.477 2.13946 45.5446C1.79306 43.9804 2.19748 42.3168 2.87487 40.3455C3.06478 39.7928 3.34452 39.1646 3.66336 38.4487C4.74563 36.0184 6.27846 32.5764 6.27846 27.6401C6.27846 23.2698 6.68941 19.5142 7.90308 16.2353C9.13501 12.907 11.1539 10.1762 14.1878 7.80005C17.1414 5.48673 21.2378 4.94825 24.6948 5.11575C26.4652 5.20152 28.1702 5.47638 29.636 5.85928Z"
      fill="#333333" />
    <path id="Vector 23 (Stroke)" fill-rule="evenodd" clip-rule="evenodd"
      d="M30.3639 53.681C29.0441 55.209 27.1188 56.7085 24.4933 56.9646C21.8162 57.2258 19.5562 56.0011 18.0062 54.5291C16.494 53.093 15.374 51.1565 15.1406 49.4503L19.0199 48.916C19.1015 49.5131 19.649 50.6793 20.6977 51.6753C21.7086 52.6353 22.9029 53.172 24.1144 53.0538C25.3775 52.9306 26.4565 52.2057 27.405 51.1075C28.3579 50.0043 29.0321 48.6911 29.4906 47.7272L33.0243 49.4196C32.5376 50.4429 31.6793 52.158 30.3639 53.681Z"
      fill="#333333" />
    <path id="Vector 24 (Stroke)" fill-rule="evenodd" clip-rule="evenodd"
      d="M21.3036 5.04502C20.867 5.64544 20.7087 6.48958 20.7262 7.27237L16.8116 7.36064C16.7841 6.13365 16.9967 4.30185 18.1407 2.72876C19.3648 1.04564 21.4019 0 24.3048 0C26.9703 0 28.8037 1.20824 29.8896 2.83658C30.9013 4.35364 31.1908 6.10823 31.1908 7.31651H27.2752C27.2752 6.62791 27.0921 5.70656 26.6355 5.02189C26.2531 4.4485 25.6223 3.92924 24.3048 3.92924C22.4136 3.92924 21.6603 4.55465 21.3036 5.04502Z"
      fill="#333333" />
  </g>
</svg>
