<svg width="48" height="57" viewBox="0 0 48 57" fill="none" xmlns="http://www.w3.org/2000/svg">
<path fill-rule="evenodd" clip-rule="evenodd" d="M11.5501 1.97995C12.0225 2.95256 11.617 4.12397 10.6444 4.59638C9.22156 5.28749 7.38544 6.4452 6.02197 8.26316C5.45639 9.01727 4.92242 10.1683 4.51614 11.3283C4.31906 11.891 4.16522 12.4179 4.06026 12.8455C4.00779 13.0592 3.96982 13.2389 3.94489 13.379C3.91889 13.5251 3.91371 13.5915 3.91344 13.595L3.91343 13.5951C3.862 14.6751 2.94476 15.509 1.86472 15.4576C0.78468 15.4061 -0.0491737 14.4889 0.00225681 13.4088C0.0388243 12.6409 0.373647 11.3102 0.820639 10.034C1.28186 8.71714 1.97433 7.13401 2.88949 5.9138C4.76652 3.41109 7.20606 1.9134 8.93368 1.07426C9.90629 0.601856 11.0777 1.00735 11.5501 1.97995Z" fill="#333333"/>
<path fill-rule="evenodd" clip-rule="evenodd" d="M36.4499 2.0477C35.9775 3.02031 36.383 4.19172 37.3556 4.66413C38.7784 5.35524 40.6146 6.51295 41.978 8.33091C42.5436 9.08502 43.0776 10.2361 43.4839 11.3961C43.6809 11.9588 43.8348 12.4856 43.9397 12.9132C43.9922 13.127 44.0302 13.3066 44.0551 13.4467C44.0811 13.5929 44.0863 13.6593 44.0866 13.6627L44.0866 13.6628C44.138 14.7429 45.0552 15.5767 46.1353 15.5253C47.2153 15.4739 48.0492 14.5566 47.9977 13.4766C47.9612 12.7087 47.6264 11.378 47.1794 10.1018C46.7181 8.78489 46.0257 7.20176 45.1105 5.98155C43.2335 3.47884 40.7939 1.98114 39.0663 1.14201C38.0937 0.669605 36.9223 1.07509 36.4499 2.0477Z" fill="#333333"/>
<path fill-rule="evenodd" clip-rule="evenodd" d="M24.506 9.009C21.421 8.86005 18.4625 9.4036 16.5969 10.8597C14.095 12.8124 12.5358 14.9519 11.5736 17.5423C10.5932 20.1819 10.194 23.3929 10.194 27.5441C10.194 33.4629 8.12196 38.0183 7.08339 40.3016C6.85125 40.8119 6.67075 41.2087 6.57656 41.4819C5.90376 43.433 5.87612 44.1516 5.9618 44.5371C6.02536 44.8231 6.14249 45.0766 6.42976 45.3064C6.74585 45.5593 7.456 45.9317 8.99118 46.0475C10.6055 46.1694 17.3482 46.3056 24.3341 46.2819C27.8102 46.2701 31.312 46.2187 34.2264 46.108C37.2089 45.9948 39.3952 45.8239 40.3604 45.6141C41.1616 45.4399 41.3697 45.1745 41.4395 45.0621C41.543 44.8957 41.6632 44.5295 41.5874 43.7617C41.4386 42.254 40.6835 40.3182 39.7779 37.9964C39.7059 37.8118 39.6329 37.6247 39.5592 37.4351C38.5087 34.7338 38.1683 32.1569 38.0362 29.5591C37.9761 28.3782 37.9585 27.169 37.9407 25.9501C37.939 25.8397 37.9374 25.7292 37.9358 25.6187C37.9158 24.2751 37.8908 22.9012 37.8089 21.443C37.5176 16.2581 34.3268 12.6775 31.1932 10.6138C30.7558 10.3258 29.8885 9.95074 28.6496 9.62823C27.4444 9.31449 26.0066 9.08145 24.506 9.009ZM29.636 5.8389C31.0681 6.2117 32.4002 6.7203 33.3467 7.34365C37.1167 9.8263 41.3345 14.3913 41.7183 21.2233C41.8052 22.7694 41.8309 24.214 41.851 25.5603C41.8526 25.6676 41.8541 25.7742 41.8557 25.8801C41.8738 27.1147 41.8905 28.2537 41.9467 29.3603C42.0678 31.7414 42.3688 33.8565 43.2086 36.0159C43.2945 36.237 43.383 36.4625 43.4728 36.6916C44.3135 38.8346 45.2786 41.2948 45.4841 43.3771C45.6024 44.5756 45.5074 45.9351 44.7649 47.1295C43.9888 48.3778 42.72 49.1082 41.1922 49.4403C39.8282 49.7368 37.2842 49.9103 34.375 50.0208C31.3976 50.1339 27.8462 50.1856 24.3474 50.1974C17.3833 50.2211 10.4889 50.0873 8.69649 49.952C6.65362 49.7979 5.10218 49.2588 3.98368 48.364C2.83636 47.4461 2.34591 46.3157 2.13943 45.3865C1.79304 43.8277 2.19746 42.1699 2.87484 40.2055C3.06476 39.6547 3.3445 39.0287 3.66334 38.3152C4.7456 35.8934 6.27844 32.4633 6.27844 27.5441C6.27844 23.189 6.68938 19.4465 7.90306 16.1789C9.13499 12.8622 11.1538 10.1409 14.1878 7.77293C17.1414 5.46765 21.2378 4.93104 24.6948 5.09795C26.4652 5.18343 28.1702 5.45733 29.636 5.8389Z" fill="#333333"/>
<path fill-rule="evenodd" clip-rule="evenodd" d="M30.3639 53.4948C29.0441 55.0175 27.1188 56.5118 24.4933 56.767C21.8162 57.0273 19.5562 55.8069 18.0062 54.34C16.494 52.9088 15.374 50.979 15.1406 49.2787L19.0199 48.7463C19.1015 49.3414 19.649 50.5036 20.6977 51.496C21.7086 52.4527 22.9029 52.9876 24.1144 52.8698C25.3775 52.747 26.4565 52.0246 27.405 50.9302C28.3579 49.8308 29.0321 48.5222 29.4906 47.5616L33.0243 49.2482C32.5376 50.268 31.6793 51.9771 30.3639 53.4948Z" fill="#333333"/>
<path fill-rule="evenodd" clip-rule="evenodd" d="M21.3036 5.02752C20.867 5.62585 20.7087 6.46706 20.7262 7.24714L16.8116 7.33511C16.7841 6.11237 16.9967 4.28692 18.1407 2.7193C19.3647 1.04202 21.4018 0 24.3047 0C26.9703 0 28.8037 1.20405 29.8896 2.82674C30.9013 4.33853 31.1907 6.08704 31.1907 7.29112H27.2751C27.2751 6.60492 27.092 5.68677 26.6354 5.00447C26.253 4.43307 25.6223 3.91561 24.3047 3.91561C22.4136 3.91561 21.6602 4.53884 21.3036 5.02752Z" fill="#333333"/>
</svg>
