<svg width="48" height="46" fill="none" xmlns="http://www.w3.org/2000/svg">
  <path
    d="M15.022 0L15.9049 0.156017C19.7218 0.834492 22.5345 2.65425 24.2662 5.56743C24.8283 5.53203 25.3367 5.51499 25.8142 5.51499C37.5648 5.51499 47.1251 13.6305 47.1251 23.6077C47.1251 29.8411 43.4164 35.5456 37.1968 38.8934V45.3536H28.52V41.5509C26.9077 41.7266 25.355 41.7489 23.6988 41.6079V45.3536H15.022V39.1982C10.4389 36.9045 7.05818 33.2951 5.47736 29.0079H0.200958V16.2546H6.34845C7.21036 14.6151 8.35826 13.0929 9.76264 11.7268V3.905L10.6455 4.06168C12.2762 4.35142 13.7468 4.86208 15.022 5.58317V0ZM35.6921 39.6354C33.9099 40.4299 32.0063 41.0029 30.0267 41.3411V43.8269H35.6914L35.6921 39.6354ZM16.5274 39.8845V43.8269H22.1934V41.4355C20.2302 41.1491 18.3266 40.6279 16.5274 39.8845ZM25.8149 7.04041C25.5472 7.04041 25.2822 7.04631 25.0179 7.05615C26.522 10.6367 26.0871 14.151 26.0831 14.187L25.9985 14.8511H15.022V9.72744C13.6242 10.4918 12.3366 11.4108 11.1887 12.4636C10.8194 12.8032 10.4914 13.1277 10.1864 13.4554C9.26609 14.444 8.48486 15.5079 7.86499 16.6184C7.68395 16.9409 7.50947 17.2851 7.34417 17.6391L7.27858 17.7806H1.70635V27.4825H6.55704L6.60886 27.6562C6.70791 27.9853 6.82336 28.319 6.9611 28.6769C8.39696 32.4023 11.3867 35.5993 15.3788 37.6793C15.9941 37.9999 16.6185 38.289 17.2345 38.5381C18.8835 39.2028 20.6454 39.6728 22.4728 39.9343C22.8054 39.9815 23.1399 40.0222 23.4777 40.055C24.2905 40.1356 25.054 40.1749 25.8149 40.1749C26.7811 40.1749 27.7637 40.114 28.7345 39.9933C29.0723 39.9514 29.4081 39.9029 29.7407 39.8465C31.3517 39.5745 32.9181 39.1339 34.3939 38.5374C35.1148 38.2457 35.8436 37.9009 36.5631 37.5102C42.2344 34.4312 45.6204 29.2334 45.6204 23.6077C45.6204 14.4722 36.7357 7.04041 25.8149 7.04041ZM14.3405 17.2307L14.6455 17.2423C15.5578 17.3123 16.4211 17.6939 17.1059 18.3346C17.9527 19.1271 18.4394 20.2487 18.4394 21.411V21.6548H16.9341V21.411C16.9341 19.9472 15.7698 18.7561 14.3398 18.7561C12.9092 18.7561 11.7456 19.9472 11.7456 21.411V21.6548H10.2408V21.411C10.2408 20.2487 10.7269 19.1271 11.5743 18.3346C12.3352 17.6227 13.3172 17.2307 14.3405 17.2307ZM32.6163 10.9474L40.2777 19.1147L39.164 20.1576L31.5025 11.991L32.6163 10.9474ZM16.5274 1.84336V13.325H24.6414C24.6952 12.111 24.6315 9.49145 23.3833 7.01091C23.2186 6.68511 23.033 6.36194 22.831 6.05187C21.4469 3.93188 19.3276 2.51659 16.5274 1.84336ZM11.268 5.74836V10.4059C12.4179 9.49145 13.678 8.68908 15.022 8.0165V7.36097C13.9508 6.63267 12.6908 6.0912 11.268 5.74836Z"
    fill="#333333" />
</svg>
