<svg width="48" height="37" fill="none" xmlns="http://www.w3.org/2000/svg">
  <path fill-rule="evenodd" clip-rule="evenodd"
    d="M14.2736 1.14282C16.9979 1.14282 19.1077 1.98601 20.5477 3.65024C20.9367 4.10017 21.2471 4.5873 21.5064 5.08861L26.103 5.08923C34.1596 5.08923 40.7137 11.5796 40.7137 19.5589C40.7137 25.7331 36.7855 31.0145 31.2752 33.0879V36.5714H24.723V34.0277H20.6491V36.5714H14.0959V33.3368C9.68394 31.9356 6.08941 28.4991 4.62084 23.9998H1.14258V13.3324H5.33903C6.30764 11.3246 7.71272 9.61161 9.4031 8.27066V2.37014H10.2009C11.419 2.37014 12.5084 2.54905 13.477 2.88473L13.4767 1.14282H14.2736ZM15.6897 33.7398V35.2774H19.0553V34.0277H18.524C17.5581 34.0277 16.6127 33.9214 15.6897 33.7398ZM29.6815 33.6034L29.2897 33.6769C28.33 33.8895 27.3364 34.0082 26.3168 34.0224V35.2446L29.7056 35.2473L29.6815 33.6034ZM13.477 7.68699C10.4495 8.95176 7.94615 11.3281 6.58222 14.436L6.37293 14.9107H2.73637V22.4215H5.81931L5.98209 22.9998C7.541 28.5638 12.6989 32.4494 18.524 32.4494H26.103C33.2805 32.4494 39.1199 26.6657 39.1199 19.5589C39.1199 12.4503 33.2805 6.66755 26.103 6.66755H22.1338C22.0949 6.53491 22.0528 6.40222 22.0075 6.26973L22.1338 6.66755C22.8725 9.19179 22.5126 11.6428 22.4894 11.7872L22.3847 12.455H13.4767L13.477 7.68699ZM15.0713 2.75125V10.8767H20.9779C21.0592 9.5667 21.0226 6.61998 19.3322 4.67145C18.3475 3.53598 16.9165 2.89119 15.0713 2.75125ZM13.477 4.57907C12.7588 4.25136 11.9315 4.05031 10.9969 3.97856V7.16885C11.7831 6.70032 12.6113 6.29821 13.477 5.98113V4.57907Z"
    fill="#333333" />
  <path
    d="M22.1338 6.66755H26.103C33.2805 6.66755 39.1199 12.4503 39.1199 19.5589C39.1199 26.6657 33.2805 32.4494 26.103 32.4494H18.524C12.6989 32.4494 7.541 28.5638 5.98209 22.9998L5.81931 22.4215H2.73637V14.9107H6.37293L6.58222 14.436C7.94615 11.3281 10.4495 8.95176 13.477 7.68699L13.4767 12.455H22.3847L22.4894 11.7872C22.5126 11.6428 22.8725 9.19179 22.1338 6.66755ZM22.1338 6.66755C22.0949 6.53491 22.0528 6.40222 22.0075 6.26973L22.1338 6.66755ZM14.2736 1.14282C16.9979 1.14282 19.1077 1.98601 20.5477 3.65024C20.9367 4.10017 21.2471 4.5873 21.5064 5.08861L26.103 5.08923C34.1596 5.08923 40.7137 11.5796 40.7137 19.5589C40.7137 25.7331 36.7855 31.0145 31.2753 33.0879V36.5714H24.723V34.0277H20.6491V36.5714H14.0959V33.3368C9.68394 31.9356 6.08941 28.4991 4.62084 23.9998H1.14258V13.3324H5.33903C6.30764 11.3246 7.71272 9.61161 9.4031 8.27066V2.37014H10.2009C11.419 2.37014 12.5084 2.54905 13.477 2.88473L13.4767 1.14282H14.2736ZM15.6897 33.7398V35.2774H19.0553V34.0277H18.524C17.5581 34.0277 16.6127 33.9214 15.6897 33.7398ZM29.6815 33.6034L29.2897 33.6769C28.33 33.8895 27.3364 34.0082 26.3168 34.0224V35.2446L29.7056 35.2473L29.6815 33.6034ZM15.0713 2.75125V10.8767H20.9779C21.0592 9.5667 21.0226 6.61998 19.3322 4.67145C18.3475 3.53598 16.9165 2.89119 15.0713 2.75125ZM13.477 4.57907C12.7588 4.25136 11.9315 4.05031 10.9969 3.97856V7.16885C11.7831 6.70032 12.6113 6.29821 13.477 5.98113V4.57907Z"
    stroke="#333333" stroke-width="0.5" />
  <path
    d="M13.2 13.9565C15.1865 13.9565 16.8151 15.501 16.9251 17.4411L16.931 17.6504V17.9361H15.0768V17.6504C15.0768 16.6805 14.3209 15.881 13.3617 15.7996L13.2 15.7927L13.0384 15.7996C12.1356 15.8763 11.4129 16.5889 11.331 17.4811L11.3232 17.6504V17.9361H9.46902V17.6504C9.46902 15.6133 11.1427 13.9565 13.2 13.9565Z"
    fill="#333333" />
  <path fill-rule="evenodd" clip-rule="evenodd"
    d="M38.22 24.7974C32.9521 24.7974 28.6823 20.5691 28.6823 15.3523C28.6823 10.1356 32.9521 5.90723 38.22 5.90723C43.4871 5.90723 47.7578 10.1356 47.7578 15.3523C47.7578 20.5691 43.4871 24.7974 38.22 24.7974Z"
    fill="#333333" />
  <path fill-rule="evenodd" clip-rule="evenodd"
    d="M36.9745 17.499L34.8405 15.345L33.5106 16.6647L36.9745 20.1375L44.6779 12.4372L43.3479 11.1176L36.9745 17.499Z"
    fill="white" />
</svg>
