<svg width="47" height="52" fill="none" xmlns="http://www.w3.org/2000/svg">
  <path
    d="M2.39416 0.00109863C4.03202 0.0352525 12.8071 0.986118 23.4179 16.4755C23.7079 16.8988 23.9912 17.3199 24.2701 17.738C26.8029 15.1492 28.5109 13.3178 29.2132 12.4363C30.9987 10.1951 32.0567 9.0106 32.2507 8.79524C32.4875 8.52938 34.6419 6.20643 37.8335 6.13662L37.9789 6.13514C40.0675 6.13514 42.0691 7.12061 43.9306 9.06481C45.8355 11.0543 46.7305 13.1485 46.5918 15.2873C46.3793 18.5593 43.7926 20.6751 43.6827 20.7627C43.6807 20.7652 42.7908 21.5133 41.7918 22.3235L41.3592 22.6726C40.997 22.9633 40.635 23.2495 40.3088 23.5C39.6625 23.9961 36.8803 26.5567 32.0382 31.1105C36.295 39.6675 37.866 45.5045 38.0514 46.2235L38.0677 46.2873L38.1928 46.8045L37.8239 47.1498C37.7221 47.2456 36.7777 48.0759 34.7931 47.7788L34.2715 47.7008L34.166 48.2363C33.8414 49.8961 33.0519 50.6223 32.7273 50.8578C32.6498 50.9135 32.5952 50.9439 32.5716 50.9565L32.129 51.1994L31.7025 50.9075C31.6597 50.8778 27.371 47.9006 21.4045 41.6454C20.1746 42.9072 19.4243 43.701 19.1735 44.0077C18.0705 45.3556 16.3323 47.2991 16.3182 47.3147C16.1884 47.461 13.0558 50.9424 9.03631 51.0182C6.95797 51.0627 5.04637 50.1842 3.3598 48.4219C1.67396 46.6604 0.872729 44.7028 0.978232 42.6012C1.1826 38.5539 4.71954 35.489 4.86857 35.3606C4.99768 35.2499 6.19879 34.2325 8.60176 32.4354C9.19936 31.989 10.2087 31.1306 11.6016 29.8837C10.804 28.7942 10.0611 27.7449 9.33143 26.68C-1.92953 10.2407 1.1062 1.32279 1.39817 0.565122L1.41426 0.524574L1.6142 0.034439L2.13286 0.00399124C2.14187 0.00343427 2.1555 0.00271849 2.17369 0.00204896L2.39416 0.00109863ZM12.5828 31.2093C11.2076 32.4368 10.1968 33.2938 9.57711 33.758C7.25825 35.4913 6.05862 36.505 5.92877 36.6141C5.89704 36.6423 2.774 39.3797 2.61169 42.6918C2.53201 44.3174 3.18052 45.8606 4.53804 47.2805C5.8963 48.6982 7.40433 49.4059 9.0068 49.3718C11.7249 49.3205 14.0711 47.2434 14.8375 46.4863L15.0008 46.321C15.0637 46.2555 15.098 46.2174 15.1009 46.2141C15.1186 46.1948 16.8347 44.2766 17.9119 42.9599C18.1907 42.6198 18.9875 41.7754 20.2809 40.4483C17.6197 37.5729 15.0308 34.4657 12.5828 31.2093ZM2.60578 3.20992C2.25386 6.86886 2.96066 14.3664 10.7133 25.6856C11.423 26.7216 12.1601 27.7612 12.9672 28.8655C13.2373 29.2339 13.5058 29.5978 13.7744 29.9565C16.2607 33.276 18.8872 36.4322 21.5801 39.3374C21.8922 39.6745 22.2006 40.002 22.5046 40.3213C27.1032 45.1573 30.6409 47.9749 32.0611 49.0398C32.2109 48.8029 32.3872 48.4256 32.4986 47.8561C32.6314 47.1751 32.7037 46.8231 32.7421 46.6433L2.60578 3.20992ZM3.66155 1.92443L34.1881 45.9208C34.3844 45.949 34.6463 45.9876 35.0048 46.0418C35.5634 46.1235 35.9691 46.0804 36.2347 46.0143C35.6725 44.0501 34.0693 39.0418 30.6615 32.1494C30.4579 31.7373 30.2454 31.3162 30.03 30.8914C28.2003 27.3053 26.1293 23.7184 23.8732 20.2325C23.626 19.85 23.3729 19.4638 23.1169 19.0777C22.7643 18.5452 22.405 18.0105 22.0353 17.4706C16.3109 9.11457 11.2143 5.2826 7.94587 3.54113C6.12206 2.56903 4.65387 2.12568 3.66155 1.92443ZM11.2821 41.921C11.4422 41.9239 11.5942 41.9729 11.7233 42.0621C11.7713 42.0955 11.8141 42.1311 11.8524 42.1712C12.0022 42.3279 12.0834 42.5351 12.0789 42.7534C12.0752 42.9733 11.9875 43.176 11.8303 43.3275C11.6783 43.4753 11.4791 43.5562 11.2666 43.5562H11.2519C11.035 43.5525 10.8313 43.4634 10.6808 43.306C10.5311 43.1493 10.4499 42.9421 10.4543 42.723C10.4588 42.5047 10.5458 42.3004 10.703 42.1497C10.855 42.0019 11.0505 41.9284 11.246 41.9247L11.2821 41.921ZM13.4084 40.0287C13.4409 40.0362 13.4719 40.048 13.5021 40.0584C13.5213 40.0651 13.5397 40.0696 13.5582 40.077C13.5929 40.0919 13.6246 40.1119 13.6571 40.132C13.6703 40.1394 13.6851 40.1453 13.6976 40.1542C13.7419 40.1854 13.784 40.2211 13.8223 40.2604C13.9721 40.4179 14.0532 40.6243 14.0488 40.8434C14.0451 41.0625 13.9573 41.266 13.8002 41.4167C13.6482 41.5652 13.449 41.6462 13.2373 41.6462H13.221C13.0049 41.6417 12.8012 41.5534 12.6507 41.3952C12.6131 41.3558 12.5792 41.312 12.5511 41.2674C12.5415 41.2526 12.5356 41.2355 12.5268 41.2199L12.5008 41.1725L12.4781 41.1234C12.4722 41.1078 12.47 41.09 12.4648 41.0729C12.4537 41.0395 12.4427 41.006 12.436 40.9711C12.4301 40.9377 12.4301 40.9028 12.4286 40.8694C12.4279 40.8501 12.4242 40.8315 12.4242 40.813C12.4242 40.7877 12.4301 40.7617 12.4331 40.7357C12.436 40.709 12.436 40.6823 12.4419 40.6563C12.4515 40.6147 12.4655 40.5731 12.481 40.533C12.4847 40.5241 12.4862 40.5144 12.4899 40.5055C12.5069 40.4654 12.529 40.4275 12.5519 40.3904C12.5578 40.3822 12.5607 40.3726 12.5666 40.3652C12.5976 40.3191 12.633 40.2775 12.6729 40.2389C12.8743 40.0429 13.1524 39.973 13.4084 40.0287ZM9.36389 39.7703C9.38307 39.774 9.40152 39.7829 9.41996 39.7889C9.45169 39.7978 9.48341 39.806 9.51292 39.8186C9.54317 39.8319 9.57121 39.8498 9.59998 39.8668C9.61769 39.8772 9.63539 39.8847 9.65163 39.8958C9.69663 39.927 9.73795 39.9626 9.77631 40.0027C9.81468 40.0421 9.84788 40.0852 9.87739 40.1312L9.89657 40.1691C9.91575 40.2033 9.93493 40.2382 9.94895 40.2753L9.96149 40.3199C9.9733 40.3548 9.98437 40.3904 9.99101 40.4275C9.99691 40.4617 9.99765 40.4951 9.99912 40.5285C9.99986 40.5478 10.0035 40.5664 10.0035 40.585C10.0028 40.6124 9.99765 40.6384 9.99396 40.6652C9.99101 40.6904 9.99101 40.7164 9.9851 40.7424C9.97625 40.7832 9.96297 40.8226 9.94821 40.8627C9.94379 40.8731 9.94231 40.8828 9.93789 40.8932C9.92018 40.9325 9.89878 40.9697 9.87591 41.0068C9.87001 41.0157 9.86632 41.0253 9.86116 41.0335C9.82943 41.0781 9.79475 41.1204 9.75492 41.1598C9.59703 41.312 9.39414 41.3878 9.19125 41.3878C8.97729 41.3878 8.76481 41.3038 8.60545 41.1382C8.29484 40.813 8.30443 40.2931 8.62684 39.9812C8.829 39.7837 9.10788 39.7146 9.36389 39.7703ZM11.3338 37.8595C11.353 37.864 11.3714 37.8721 11.3898 37.8788C11.4216 37.887 11.4533 37.8952 11.4835 37.9085C11.5131 37.9219 11.5418 37.9397 11.5699 37.9561C11.5876 37.9665 11.6053 37.9739 11.6215 37.9858C11.6658 38.0162 11.7086 38.0511 11.7469 38.092C12.0568 38.4165 12.0472 38.9356 11.7248 39.249C11.5669 39.402 11.3633 39.4777 11.1611 39.4777C10.9472 39.4777 10.7347 39.3938 10.5753 39.2274C10.4256 39.07 10.3437 38.8636 10.3481 38.6445C10.3525 38.4254 10.4403 38.2219 10.596 38.0704C10.7989 37.8729 11.0778 37.8038 11.3338 37.8595ZM37.8689 7.78303C35.3132 7.83799 33.4902 9.87056 33.4717 9.89062L33.4456 9.91985C33.2356 10.1547 32.1878 11.3344 30.4889 13.4664C29.7171 14.4348 27.9361 16.3448 25.1931 19.143C27.4116 22.5628 29.4538 26.0747 31.2658 29.5844C34.5725 26.4765 38.4237 22.877 39.3165 22.1915C40.0793 21.6049 41.0525 20.811 41.7585 20.2273C42.182 19.8782 42.5096 19.6042 42.6365 19.4973C42.7368 19.4141 44.8019 17.6927 44.9605 15.1685C45.0638 13.5146 44.3209 11.846 42.7523 10.2077C41.1779 8.56279 39.5415 7.7563 37.8689 7.78303ZM32.8431 20.5748C33.1648 20.2614 33.6805 20.2703 33.9926 20.5956C34.0302 20.6357 34.0634 20.6788 34.0929 20.7248C34.1018 20.7397 34.1084 20.756 34.1166 20.7709C34.1335 20.8028 34.152 20.834 34.1645 20.8682L34.18 20.9201C34.1896 20.9543 34.2014 20.9862 34.2066 21.0211C34.2132 21.0553 34.2132 21.0887 34.2154 21.1229C34.2162 21.1422 34.2198 21.16 34.2198 21.1793C34.2191 21.2061 34.2132 21.2328 34.2095 21.2595C34.2073 21.2848 34.2066 21.31 34.2021 21.3353C34.1925 21.3769 34.1785 21.4177 34.1638 21.4571C34.1601 21.4667 34.1586 21.4771 34.1534 21.4868C34.138 21.5261 34.1158 21.5618 34.0937 21.5982C34.087 21.6078 34.0834 21.6182 34.0767 21.6279C34.0457 21.6724 34.0111 21.714 33.9712 21.7534C33.8133 21.9056 33.6104 21.9821 33.4068 21.9821C33.1936 21.9821 32.9804 21.8982 32.8217 21.7318C32.6712 21.5744 32.5901 21.3672 32.5938 21.1489C32.5982 20.9298 32.6867 20.7263 32.8431 20.5748ZM35.3914 18.4353C35.5995 18.4398 35.8068 18.5222 35.9625 18.6856C36.1123 18.843 36.1934 19.0502 36.1897 19.2685C36.186 19.4876 36.0975 19.6911 35.9411 19.8426C35.7884 19.9896 35.5892 20.0713 35.3767 20.0713C35.1443 20.0669 34.9414 19.9785 34.7916 19.8211C34.4803 19.4965 34.4899 18.9774 34.8123 18.664C34.8927 18.5861 34.9864 18.5274 35.0845 18.4895C35.1827 18.4516 35.2874 18.4331 35.3914 18.4353ZM31.3462 18.1776C31.5638 18.1813 31.766 18.2697 31.9165 18.4279C31.9548 18.4672 31.9873 18.5103 32.0168 18.5564C32.0264 18.5712 32.0323 18.5875 32.0412 18.6024C32.0589 18.6343 32.0766 18.6655 32.0884 18.6989C32.0958 18.7168 32.0987 18.7353 32.1046 18.7532C32.1142 18.7858 32.1253 18.8185 32.1312 18.8527C32.1371 18.8876 32.1386 18.9225 32.14 18.9581L32.1437 19.0101C32.1437 19.0398 32.1371 19.068 32.1334 19.0962L32.126 19.1668C32.1164 19.2091 32.1031 19.2492 32.0869 19.2886L32.0781 19.3183C32.0611 19.3577 32.039 19.394 32.0168 19.4304C32.0102 19.4401 32.0072 19.4497 32.0006 19.4587C31.9703 19.5032 31.9357 19.5455 31.8951 19.5849C31.7379 19.7371 31.5336 19.8129 31.3314 19.8129C31.1175 19.8129 30.905 19.729 30.7456 19.5626C30.5951 19.4052 30.5147 19.1987 30.5184 18.9797C30.5206 18.8735 30.5427 18.771 30.5833 18.6744C30.5914 18.6551 30.5995 18.6432 30.6062 18.6306C30.6468 18.5482 30.6999 18.471 30.7663 18.4056C30.8843 18.292 31.0378 18.2177 31.1912 18.1895C31.2429 18.1806 31.296 18.1761 31.3462 18.1776ZM32.7362 16.4948C33.0586 16.1822 33.575 16.1918 33.8871 16.5171C34.0369 16.6738 34.118 16.881 34.1136 17.0993C34.1099 17.3184 34.0214 17.5226 33.865 17.6741C33.7078 17.8271 33.5035 17.9021 33.3006 17.9021C33.0873 17.9028 32.8749 17.8189 32.7155 17.6526C32.4042 17.3273 32.4145 16.8082 32.7362 16.4948Z"
    fill="#333333" />
</svg>
