<svg width="48" height="60" fill="none" xmlns="http://www.w3.org/2000/svg">
  <path
    d="M10.4982 24.6192C10.4982 23.2018 11.7536 22.0679 13.2987 22.0679C14.8438 22.0679 16.0992 23.2018 16.0992 24.6192C16.0992 26.0366 14.7472 27.2651 13.2021 27.2651C11.7536 27.2651 10.4982 26.0366 10.4982 24.6192ZM23.1486 24.6192C23.1486 23.2018 24.404 22.0679 25.949 22.0679C27.4941 22.0679 28.7495 23.2018 28.7495 24.6192C28.7495 26.0366 27.3976 27.2651 25.949 27.2651C24.5005 27.2651 23.1486 26.0366 23.1486 24.6192ZM30.1015 34.9191C28.3632 38.6044 24.3074 41.0612 19.7687 41.0612C15.1335 41.0612 11.0777 38.6989 9.436 34.9191C9.1463 34.2576 9.436 33.5017 10.2085 33.3127C10.4017 33.2182 10.5948 33.2182 10.6914 33.2182C11.1742 33.2182 11.7536 33.5017 11.9468 33.9742C13.2021 36.809 16.2923 38.6044 19.8653 38.6044C23.3417 38.6044 26.4319 36.809 27.6873 33.9742C27.977 33.3127 28.7495 33.0292 29.4255 33.3127C30.1015 33.5017 30.3912 34.2576 30.1015 34.9191Z"
    fill="#333333" />
  <path fill-rule="evenodd" clip-rule="evenodd"
    d="M0 9.41809H39.5191V44.6898H36.7491V12.1881H2.77003V48.7526H32.3171V51.5226H0V9.41809Z"
    fill="#333333" />
  <path fill-rule="evenodd" clip-rule="evenodd"
    d="M12.1827 9.90996C12.1828 9.90937 12.1828 9.90875 10.8032 9.78745C9.42346 9.66615 9.42352 9.66546 9.42358 9.66475L9.42373 9.66314L9.42407 9.65935L9.425 9.64945C9.42573 9.64182 9.42669 9.63215 9.42789 9.6205C9.43031 9.59721 9.43374 9.56599 9.43839 9.52737C9.4477 9.45016 9.46193 9.34315 9.48285 9.21056C9.52463 8.94577 9.59342 8.57663 9.70361 8.13749C9.92263 7.26463 10.3125 6.08588 11 4.89411C12.4063 2.45659 15.0582 0 19.7596 0C24.4561 0 27.147 2.45064 28.5973 4.87526C29.3079 6.06326 29.7219 7.23911 29.9592 8.11086C30.0785 8.54931 30.155 8.91792 30.2023 9.18236C30.226 9.31476 30.2425 9.42162 30.2535 9.4987C30.2589 9.53726 30.263 9.56842 30.2659 9.59166L30.2667 9.59788C30.2678 9.60676 30.2687 9.61432 30.2694 9.62053L30.2705 9.6304L30.271 9.63417L30.2711 9.63577C30.2712 9.63648 30.2713 9.63717 28.8945 9.78745C27.5176 9.93773 27.5177 9.93835 27.5178 9.93894L27.5179 9.93996L27.5172 9.93504C27.5162 9.92648 27.5141 9.91046 27.5108 9.88747C27.5043 9.84147 27.4931 9.7678 27.4757 9.67046C27.4407 9.47539 27.3814 9.18756 27.2863 8.83828C27.0948 8.13457 26.766 7.20981 26.2201 6.29721C25.1574 4.52061 23.2808 2.77003 19.7596 2.77003C16.2433 2.77003 14.4169 4.51466 13.3994 6.27836C12.8751 7.18719 12.5666 8.10905 12.3904 8.81165C12.3029 9.16024 12.2498 9.44753 12.219 9.64226C12.2037 9.73942 12.1941 9.81293 12.1885 9.8588C12.1858 9.88173 12.184 9.89769 12.1832 9.90619L12.1825 9.91249L12.1827 9.91099L12.1827 9.90996Z"
    fill="#333333" />
  <path fill-rule="evenodd" clip-rule="evenodd"
    d="M28.3296 40.1445L48 45.9309L43.1093 50.5534L47.898 55.3117L43.3088 59.7144L38.8466 54.8583L34.0148 59.6593L28.3296 40.1445ZM31.3184 43.1412L35.0087 55.8082L38.9132 51.9285L43.4003 56.8117L44.9904 55.2862L40.1906 50.5169L44.0361 46.8823L31.3184 43.1412Z"
    fill="#333333" />
</svg>
