<svg width="43" height="48" fill="none" xmlns="http://www.w3.org/2000/svg">
  <path fill-rule="evenodd" clip-rule="evenodd"
    d="M20.9415 0L42.1139 10.8347V27.8337H39.7926V13.4221L22.1052 22.263V48L0 36.2934V10.8383L20.9415 0ZM20.9475 20.2466L38.3817 11.5323L20.9475 2.61059L3.70917 11.5323L20.9475 20.2466ZM2.32124 13.4317L19.7839 22.2593V44.144L2.32124 34.896V13.4317ZM17.2218 32.1879L3.95763 25.5558L4.99572 23.4796L18.2599 30.1117L17.2218 32.1879Z"
    fill="#333333" />
  <path fill-rule="evenodd" clip-rule="evenodd"
    d="M31.524 7.31751L11.6277 17.2657L10.5896 15.1895L30.4859 5.24133L31.524 7.31751Z"
    fill="#333333" />
  <path fill-rule="evenodd" clip-rule="evenodd"
    d="M38.3729 33.3622C38.9824 33.7685 39.1471 34.5921 38.7408 35.2016L32.1087 45.1498C31.9065 45.4531 31.5883 45.6598 31.229 45.7214C30.8697 45.7829 30.5008 45.6939 30.2092 45.4751L26.8931 42.9881C26.3071 42.5486 26.1883 41.7172 26.6279 41.1311C27.0674 40.5451 27.8988 40.4263 28.4848 40.8658L30.6792 42.5116L36.5335 33.7301C36.9398 33.1205 37.7634 32.9558 38.3729 33.3622Z"
    fill="#333333" />
</svg>
