<svg width="48" height="32" fill="none" xmlns="http://www.w3.org/2000/svg">
  <path fill-rule="evenodd" clip-rule="evenodd"
    d="M13.7329 6.61322V27.7548H11.519C11.4328 26.5655 10.899 25.4532 10.0251 24.6419C9.15133 23.8306 8.00248 23.3807 6.81012 23.3829C5.61776 23.3807 4.46892 23.8306 3.5951 24.6419C2.72129 25.4532 2.18747 26.5655 2.10122 27.7548H0V15.9409L2.49698 14.6968L6.86596 6.61322H13.7329ZM47.2183 0.394775V28.3758H43.9131C43.919 28.2798 43.922 28.1829 43.922 28.0849C43.922 25.488 41.809 23.3829 39.2023 23.3829C36.5946 23.3829 34.4816 25.488 34.4816 28.0849C34.4816 28.1829 34.4846 28.2808 34.4914 28.3768H15.3825V0.394775H47.2183Z"
    fill="#333333" />
  <path
    d="M6.79152 31.7417C8.81112 31.7417 10.4483 30.1045 10.4483 28.0849C10.4483 26.0653 8.81112 24.4281 6.79152 24.4281C4.77192 24.4281 3.1347 26.0653 3.1347 28.0849C3.1347 30.1045 4.77192 31.7417 6.79152 31.7417Z"
    fill="#333333" />
  <path
    d="M39.1837 31.7417C41.2033 31.7417 42.8405 30.1045 42.8405 28.0849C42.8405 26.0653 41.2033 24.4281 39.1837 24.4281C37.1641 24.4281 35.5269 26.0653 35.5269 28.0849C35.5269 30.1045 37.1641 31.7417 39.1837 31.7417Z"
    fill="#333333" />
</svg>
