<svg width="48" height="31" fill="none" xmlns="http://www.w3.org/2000/svg">
  <path fill-rule="evenodd" clip-rule="evenodd"
    d="M4.36378 1.09083C4.36382 0.488371 4.85222 0 5.45468 0H32.3999C33.0024 0 33.4908 0.488416 33.4908 1.09091V4.67474H40.4624C40.7985 4.67474 41.1159 4.82969 41.3226 5.09475L43.3624 7.71013C43.3897 7.74511 43.4148 7.78172 43.4376 7.81976L46.9583 13.6876C46.9791 13.7222 46.9996 13.7563 47.0198 13.79C47.4006 14.4237 47.694 14.9122 47.8475 15.4654C48.0006 16.0185 48.0004 16.5885 47.9999 17.3272C47.9999 17.367 47.9999 17.4073 47.9999 17.4481V22.9802C47.9999 24.0224 47.8882 24.9884 47.7784 25.6892C47.7233 26.0413 47.6679 26.3306 47.6257 26.5342C47.6046 26.6361 47.5868 26.7168 47.5739 26.7734L47.5584 26.8401L47.5539 26.8592L47.5524 26.8651L47.5517 26.868C47.5517 26.8681 47.5516 26.8686 46.4924 26.6075L47.5517 26.868C47.517 27.0089 47.4543 27.1421 47.3677 27.2586L45.6026 29.6313C45.3968 29.908 45.0722 30.0711 44.7273 30.0711H42.1091C41.5067 30.0711 41.0182 29.5827 41.0182 28.9802C41.0182 28.3777 41.5067 27.8893 42.1091 27.8893H44.1792L45.4786 26.1425C45.482 26.1265 45.4855 26.1097 45.4892 26.0921C45.5252 25.9182 45.5739 25.664 45.6229 25.3514C45.7214 24.7228 45.8181 23.8753 45.8181 22.9802V17.4481C45.8181 16.5349 45.809 16.2801 45.745 16.0486C45.6807 15.8167 45.5573 15.5933 45.0875 14.8102L41.601 8.99941L39.9298 6.85655H33.4908V24.0166C33.4908 24.6191 33.0024 25.1075 32.3999 25.1075C31.7974 25.1075 31.309 24.6191 31.309 24.0166V2.18293L6.54553 2.18181L6.54543 22.9788L5.45452 22.9802L4.36362 22.9801L4.36378 1.09083ZM6.54543 27.0711H10.6363C11.2388 27.0711 11.7272 27.5595 11.7272 28.162C11.7272 28.7645 11.2388 29.2529 10.6363 29.2529H5.45452C4.85203 29.2529 4.36362 28.7645 4.36362 28.162V22.9801L5.45452 22.9802L6.54543 22.9788V27.0711ZM19.909 28.162C19.909 27.5595 20.3975 27.0711 20.9999 27.0711H31.3636C31.9661 27.0711 32.4545 27.5595 32.4545 28.162C32.4545 28.7645 31.9661 29.2529 31.3636 29.2529H20.9999C20.3975 29.2529 19.909 28.7645 19.909 28.162Z"
    fill="#333333" />
  <path fill-rule="evenodd" clip-rule="evenodd" d="M16.3636 9.81817H0V7.63635H16.3636V9.81817Z"
    fill="#333333" />
  <path fill-rule="evenodd" clip-rule="evenodd"
    d="M15.2727 15.2728H1.09091V13.0909H15.2727V15.2728Z" fill="#333333" />
</svg>
