<svg width="48" height="33" fill="none" xmlns="http://www.w3.org/2000/svg">
  <path fill-rule="evenodd" clip-rule="evenodd"
    d="M47.4888 0.37793V28.5377H42.4384C41.9961 30.7237 40.017 32.3779 37.6475 32.3779C35.278 32.3779 33.2989 30.7237 32.8566 28.5377H15.836V0.37793H47.4888ZM14.167 5.53598V28.3535L11.8889 28.386C11.4238 30.5434 9.45803 32.1691 7.10916 32.1691C4.81024 32.1691 2.88216 30.6102 2.36526 28.5205L-0.00012207 28.554L0.0520027 15.481L2.89606 13.749L6.58281 5.75991L14.167 5.53598ZM37.6475 25.1321C36.7472 25.1321 35.9542 25.5796 35.493 26.2554C35.2267 26.6461 35.0703 27.1125 35.0703 27.614C35.0703 27.9405 35.1379 28.252 35.2573 28.5377C35.639 29.4495 36.5656 30.0957 37.6475 30.0957C38.7293 30.0957 39.6559 29.4495 40.0376 28.5377C40.1571 28.252 40.2247 27.9405 40.2247 27.614C40.2247 27.1125 40.0683 26.6461 39.802 26.2554C39.3407 25.5796 38.5477 25.1321 37.6475 25.1321ZM7.10916 24.9235C5.68821 24.9235 4.53197 26.0367 4.53197 27.4052C4.53197 28.7737 5.68821 29.8869 7.10916 29.8869C8.53037 29.8869 9.68635 28.7737 9.68635 27.4052C9.68635 26.0367 8.53037 24.9235 7.10916 24.9235ZM45.1811 2.66013H18.1436V26.2554H32.9677C33.5693 24.289 35.4379 22.8499 37.6475 22.8499C39.8571 22.8499 41.7257 24.289 42.3273 26.2554H45.1811V2.66013ZM11.8594 7.88746L8.08655 7.99861L4.70414 15.328L2.35445 16.7591L2.31699 26.2388L2.37883 26.238C2.91474 24.1747 4.82924 22.6413 7.10916 22.6413C9.33994 22.6413 11.2221 24.1089 11.8045 26.1046L11.8594 26.1037V7.88746ZM40.3267 15.896V18.044H23.113V15.896H40.3267ZM40.1839 9.81034V11.9583H22.9702V9.81034H40.1839Z"
    fill="#333333" />
</svg>
