<svg width="48" height="29" fill="none" xmlns="http://www.w3.org/2000/svg">
  <path fill-rule="evenodd" clip-rule="evenodd"
    d="M7.06178 20.2046C5.17457 20.2046 3.60639 21.5643 3.30031 23.3429H2.12458L2.15859 14.5258L4.24986 13.2348L7.1908 6.77631H12.2602V23.3429H10.8243C10.5182 21.5643 8.94953 20.2046 7.06178 20.2046ZM7.06178 26.4964C5.86176 26.4964 4.85877 25.6836 4.57591 24.5928C4.52463 24.3937 4.489 24.1892 4.489 23.9754C4.489 23.7557 4.52678 23.5463 4.58077 23.3429C4.86957 22.2602 5.86716 21.4545 7.06232 21.4545C8.25694 21.4545 9.25507 22.2602 9.54387 23.3429C9.59786 23.5463 9.63564 23.7557 9.63564 23.9754C9.63564 24.1892 9.59948 24.3937 9.54873 24.5928C9.26533 25.6836 8.26288 26.4964 7.06178 26.4964ZM7.06232 27.7463C8.95493 27.7463 10.5263 26.3784 10.8265 24.5928H13.5067V5.52693H6.38916L3.27332 12.3706L0.915387 13.8262L0.872742 24.5928H3.29815C3.59775 26.3784 5.16863 27.7463 7.06232 27.7463ZM38.5592 7.66445L22.7948 7.67798L22.7964 8.67792L38.5592 8.66385V12.2637L25.9517 12.3319L25.9598 13.3318L38.5592 13.2637V16.7905H33.1534V17.7899H38.5592V23.3431H35.669C35.2911 21.6538 33.7645 20.386 31.9415 20.386C30.118 20.386 28.5914 21.6538 28.2135 23.3431H16.4794V2.12206H38.5592V7.66445ZM29.3682 24.1564C29.3682 22.7663 30.5223 21.6354 31.9415 21.6354C33.3601 21.6354 34.5148 22.7663 34.5148 24.1564C34.5148 25.547 33.3601 26.6778 31.9415 26.6778C30.5223 26.6778 29.3682 25.547 29.3682 24.1564ZM42.8183 13.2404L42.8092 12.241L39.8061 12.2567V8.66277L47.6195 8.65627L47.6184 7.65634L39.8061 7.66337V0.872681H15.233V24.5925H28.1493C28.369 26.4668 29.9847 27.9272 31.9415 27.9272C33.8978 27.9272 35.5135 26.4668 35.7337 24.5925H39.8061V17.7899H40.9668V16.7905H39.8061V13.2566L42.8183 13.2404Z"
    fill="#333333" stroke="#333333" stroke-width="0.5" />
</svg>
