<svg width="48" height="43" fill="none" xmlns="http://www.w3.org/2000/svg">
  <path
    d="M42.4313 0L47.2302 22.243L40.1023 23.7406L37.2049 42.6667L0.675293 37.2193L4.24429 13.9098L7.773 14.4359L6.2963 7.59156L42.4313 0ZM5.42136 15.4862L2.27284 36.0571L36.0272 41.0902L38.6363 24.0486L38.8598 22.5852L39.1758 20.5187L27.2224 18.736L25.9214 18.5422L9.56757 16.1043L8.08458 15.8825L5.42136 15.4862ZM24.2684 27.8332C25.0508 27.9562 25.6117 28.3469 25.9516 29.0072C26.2915 29.6668 26.3721 30.5513 26.1933 31.6595C26.0082 32.8135 25.6583 33.6459 25.1434 34.1564C24.6291 34.6676 23.9675 34.8589 23.1587 34.7329C22.3857 34.6117 21.8343 34.2204 21.5032 33.5589C21.1715 32.898 21.096 32.0079 21.276 30.8892C21.6449 28.5972 22.6419 27.5786 24.2684 27.8332ZM23.6868 23.3846L25.1654 23.6157L17.2129 33.6471L15.7337 33.416L23.6868 23.3846ZM23.2544 29.4954C23.0467 29.8327 22.883 30.3756 22.7621 31.1228C22.6426 31.87 22.6274 32.4409 22.7175 32.8353C22.8075 33.2303 23.0209 33.4533 23.3557 33.5061C24.0223 33.6111 24.4749 32.9179 24.7141 31.4284C24.9508 29.9588 24.7355 29.1718 24.0695 29.0668C23.7353 29.0147 23.4621 29.1575 23.2544 29.4954ZM17.7114 22.2865C18.5089 22.4119 19.0754 22.8051 19.4097 23.4666C19.7433 24.1282 19.8213 25.0108 19.6438 26.1139C19.4582 27.268 19.1094 28.1016 18.5964 28.6153C18.0841 29.1289 17.4194 29.3215 16.6011 29.1942C15.8281 29.073 15.278 28.6786 14.95 28.0134C14.6214 27.3475 14.5465 26.458 14.7259 25.3437C15.0948 23.0517 16.0893 22.033 17.7114 22.2865ZM16.6999 23.9567C16.4934 24.2996 16.3304 24.8449 16.2108 25.5922C16.09 26.3394 16.0742 26.9077 16.163 27.2972C16.2511 27.6867 16.4632 27.9065 16.7987 27.9593C17.4703 28.0649 17.9254 27.3773 18.1627 25.8978C18.4 24.4182 18.1835 23.625 17.5131 23.5201C17.177 23.4679 16.9064 23.6132 16.6999 23.9567ZM41.3505 1.64291L7.9612 8.65806L9.25536 14.6564L26.2669 17.1931L28.5267 8.33258L29.9719 7.95307L27.5674 17.3869L30.0695 17.7602C29.8007 17.3323 29.5779 16.7999 29.4041 16.1583C28.7999 13.9154 29.294 12.5849 30.8846 12.1675C31.65 11.9662 32.3242 12.0992 32.9051 12.5669C33.4874 13.0346 33.9249 13.811 34.2169 14.8955C34.5209 16.0241 34.5424 16.9254 34.2818 17.5981C34.1716 17.882 34.0042 18.1149 33.799 18.3155L40.7739 19.3559L40.327 22.2772L45.5653 21.1771L41.3505 1.64291ZM32.7692 15.2751C32.3814 13.8371 31.8621 13.2036 31.21 13.3744C30.8827 13.4607 30.6926 13.7005 30.641 14.0918C30.5888 14.4837 30.6624 15.0446 30.8594 15.7763C31.0564 16.5074 31.2768 17.0354 31.5216 17.3602C31.7665 17.6851 32.0529 17.805 32.3808 17.718C33.0336 17.5472 33.162 16.7329 32.7692 15.2751ZM22.6123 9.71959C23.3929 9.51461 24.0714 9.64753 24.6486 10.119C25.2258 10.5898 25.6601 11.3656 25.9516 12.4451C26.255 13.5738 26.2789 14.4763 26.0202 15.1502C25.764 15.8254 25.2346 16.2676 24.434 16.4776C23.678 16.6763 23.0127 16.5372 22.4405 16.0589C21.8671 15.5819 21.4327 14.798 21.1388 13.7085C20.5345 11.4662 21.0255 10.1357 22.6123 9.71959ZM24.5076 12.8402C24.118 11.3923 23.5937 10.7544 22.9371 10.9265C22.6086 11.0128 22.421 11.2538 22.3731 11.6507C22.3259 12.0464 22.4008 12.6104 22.5979 13.3414C22.7955 14.0725 23.0133 14.5986 23.255 14.9191C23.4955 15.239 23.7793 15.357 24.1079 15.2701C24.7644 15.0974 24.8979 14.2874 24.5076 12.8402Z"
    fill="#333333" />
</svg>
