<svg width="47" height="38" fill="none" xmlns="http://www.w3.org/2000/svg">
  <path
    d="M28.0644 0C30.1286 0 31.8154 1.60371 31.9293 3.62436L31.9294 3.64917L35.1289 3.65028C36.6682 3.65028 37.9277 4.83935 38.026 6.3426L38.0322 6.53208L38.0312 6.81132L42.6119 6.81153C43.2987 6.81153 43.8556 7.37044 43.8556 8.05988L43.8555 9.4726L46.6977 9.4966L46.6816 11.4273L43.8555 11.4031L43.8556 12.8612C43.8556 13.5047 43.3705 14.0345 42.7474 14.1023L42.6119 14.1096L38.0312 14.1085L38.0322 14.7932C38.0322 16.3848 36.7323 17.675 35.1289 17.675L31.9306 17.6753C31.8296 19.708 30.1373 21.3253 28.0644 21.3253L24.1932 21.3249L24.1935 24.2408C24.1935 26.0791 22.7072 27.5728 20.8624 27.6025L19.6449 27.6023L19.6451 33.621C19.6451 35.6699 18.0295 37.3443 15.9938 37.4573L15.7742 37.4634H12.5806C10.4427 37.4634 8.70965 35.7431 8.70965 33.621L8.70907 21.3249L3.87096 21.3253C1.80681 21.3253 0.120005 19.7216 0.00612777 17.701L0 17.4829V3.8424C0 1.7203 1.73309 0 3.87096 0H28.0644ZM17.7096 21.3253H10.6451V33.621C10.6451 34.671 11.4937 35.5243 12.5473 35.5419L15.7742 35.5422C16.8431 35.5422 17.7096 34.6821 17.7096 33.621V21.3253ZM22.2579 21.3249H19.6449V25.6812L20.8064 25.6817C21.5979 25.6817 22.2415 25.0529 22.2577 24.271L22.258 24.2408L22.2579 21.3249ZM28.0644 1.9212H3.87096C2.80202 1.9212 1.93548 2.78135 1.93548 3.8424V17.4829C1.93548 18.544 2.80202 19.4041 3.87096 19.4041H28.0644C29.1334 19.4041 29.9999 18.544 29.9999 17.4829V3.8424C29.9999 2.78135 29.1334 1.9212 28.0644 1.9212ZM35.1289 5.57148H31.9354V15.7538H35.1289C35.6634 15.7538 36.0967 15.3238 36.0967 14.7932V6.53208C36.0967 6.00156 35.6634 5.57148 35.1289 5.57148ZM41.9422 8.73207L38.0312 8.73132V12.1885L41.9422 12.1891L41.9414 11.3867L41.9222 11.387L41.9383 9.45625L41.9422 8.73207ZM16.8972 9.99024V11.962H4.8769V9.99024H16.8972ZM16.8972 5.13921V7.11097H4.8769V5.13921H16.8972Z"
    fill="#333333" />
</svg>
