<svg width="36" height="48" fill="none" xmlns="http://www.w3.org/2000/svg">
  <path
    d="M28.0495 9.21053C27.7672 4.05263 23.3432 0 17.978 0C12.6129 0 8.28306 4.05263 8.00069 9.21053H0.282349V47.7105H35.7679V9.21053H28.0495ZM17.978 2.30263C22.0255 2.30263 25.3199 5.3421 25.6023 9.21053H10.3538C10.7303 5.3421 14.0248 2.30263 17.978 2.30263ZM33.4147 45.4079H2.6355V11.6053H33.3206V45.4079H33.4147Z"
    fill="#2D69AA" />
  <path
    d="M9.03608 24.1316C9.03608 22.75 10.2597 21.6448 11.7657 21.6448C13.2718 21.6448 14.4954 22.75 14.4954 24.1316C14.4954 25.5132 13.1776 26.7106 11.6716 26.7106C10.2597 26.7106 9.03608 25.5132 9.03608 24.1316ZM21.3666 24.1316C21.3666 22.75 22.5902 21.6448 24.0962 21.6448C25.6023 21.6448 26.8259 22.75 26.8259 24.1316C26.8259 25.5132 25.5081 26.7106 24.0962 26.7106C22.6844 26.7106 21.3666 25.5132 21.3666 24.1316ZM28.1437 34.1711C26.4494 37.7632 22.4961 40.1579 18.0722 40.1579C13.5541 40.1579 9.60083 37.8553 8.00069 34.1711C7.71831 33.5264 8.00069 32.7895 8.7537 32.6053C8.94195 32.5132 9.1302 32.5132 9.22433 32.5132C9.69496 32.5132 10.2597 32.7895 10.448 33.25C11.6716 36.0132 14.6836 37.7632 18.1663 37.7632C21.5548 37.7632 24.5669 36.0132 25.7905 33.25C26.0729 32.6053 26.8259 32.329 27.4848 32.6053C28.1437 32.7895 28.426 33.5264 28.1437 34.1711Z"
    fill="#2D69AA" />
</svg>
