<svg width="42" height="46" fill="none" xmlns="http://www.w3.org/2000/svg">
  <path
    d="M30.7614 0.411743L30.9758 0.41332L31.1873 0.425045L31.5716 0.47415L31.6938 0.763778C31.7042 0.788533 31.7152 0.815623 31.7267 0.845004L31.8005 1.04839C31.8267 1.12509 31.8541 1.21058 31.8823 1.30448L31.9685 1.61106L32.0122 1.78259C32.635 4.31333 32.4207 7.09059 30.7687 9.70737C30.5602 10.0377 30.331 10.3603 30.0807 10.675L40.4619 16.5879C40.771 16.7625 40.9712 17.0829 40.9936 17.439C41.0137 17.7595 40.8874 18.0696 40.6545 18.2831L40.573 18.3505L36.7842 21.1802L40.4619 23.2766C40.771 23.4512 40.9712 23.7716 40.9936 24.1277C41.0137 24.4482 40.8874 24.7583 40.6543 24.9719L40.5727 25.0394L36.7461 27.8932L40.452 30.0084C40.7612 30.183 40.9613 30.5034 40.9837 30.8595C41.0061 31.2156 40.8476 31.5588 40.5628 31.7713L22.3134 45.3813C21.9709 45.6362 21.5093 45.6581 21.1387 45.433L1.20584 32.9873C0.900477 32.795 0.715012 32.458 0.715012 32.0954C0.715012 31.7329 0.900477 31.3958 1.20572 31.2036L5.14654 28.719L1.20385 26.2609C0.899703 26.0675 0.715287 25.7307 0.715287 25.3686C0.715287 25.0427 0.864664 24.7373 1.1173 24.5378L1.20528 24.4754L5.1056 22.0117L1.20584 19.5768C0.900477 19.3845 0.715012 19.0475 0.715012 18.6849C0.715012 18.3586 0.865239 18.053 1.11735 17.8553L1.2051 17.7935L8.75967 13.0191C8.18882 12.4658 7.69377 11.8623 7.27147 11.2126C6.513 10.0458 6.03934 8.79891 5.79586 7.53656C5.63316 6.69296 5.59228 5.95952 5.61994 5.39655L5.62277 5.34477L5.65854 4.94445L5.96068 4.81643L6.09476 4.76541L6.27512 4.70819C6.30899 4.6983 6.34476 4.68829 6.38241 4.6782L6.63076 4.61734C8.91688 4.10482 11.8783 4.53639 15.3083 6.59322C15.9251 6.96193 16.4733 7.37123 16.9566 7.81654L20.3052 5.7111C20.6026 5.53211 20.9663 5.51421 21.2683 5.65235L21.3666 5.70418L21.7942 5.94671C22.0867 5.48416 22.4294 5.03812 22.8242 4.61009C25.6019 1.60912 28.4028 0.444163 30.7614 0.411743ZM35.782 28.6094L22.3239 38.6556C21.9796 38.9135 21.5126 38.9329 21.1487 38.7046L6.18265 29.3667L1.85365 32.095L21.6849 44.4773L39.8497 30.9307L35.782 28.6094ZM22.8914 15.54L22.6539 15.6279C22.429 16.6423 22.2614 17.6807 22.1443 18.7194C22.0726 19.3547 22.0254 19.9443 21.9979 20.4726L21.979 20.919L21.9747 21.125L21.9745 21.1413C21.9737 21.1608 21.972 21.1803 21.9692 21.1995L21.9691 21.1915L21.9581 21.2564L21.945 21.3003C21.939 21.3183 21.9321 21.3356 21.9243 21.3525C21.9171 21.3678 21.9092 21.3832 21.9006 21.3982C21.8905 21.4158 21.8794 21.4326 21.8676 21.4488C21.8608 21.458 21.8537 21.4671 21.8463 21.476C21.8318 21.4932 21.8164 21.5095 21.8 21.5248C21.7886 21.5357 21.776 21.5466 21.7629 21.5568C21.7472 21.5689 21.731 21.5802 21.7142 21.5907C21.7011 21.5988 21.6875 21.6064 21.6736 21.6135C21.6569 21.622 21.6397 21.6297 21.6221 21.6364C21.6151 21.6389 21.6081 21.6414 21.601 21.6438L21.5703 21.6534C21.5503 21.6588 21.5299 21.6631 21.5092 21.6662L21.5216 21.663L21.4616 21.6714L21.4431 21.6722L21.4237 21.6724L21.351 21.6671L21.3607 21.6673C21.3364 21.6652 21.3152 21.6612 21.2945 21.6561C21.2779 21.6518 21.2612 21.6467 21.2447 21.6408L21.1959 21.6209C21.1817 21.614 21.1683 21.607 21.1551 21.5994C21.1367 21.589 21.1188 21.5771 21.1017 21.5643C21.0906 21.5561 21.0794 21.5472 21.0687 21.5378C21.0542 21.5251 21.0406 21.5118 21.0276 21.4979C21.0141 21.4836 21.0019 21.4689 20.9904 21.4536C20.9811 21.4412 20.9725 21.4287 20.9644 21.4158C20.9544 21.3999 20.945 21.3831 20.9365 21.3656C20.9279 21.3485 20.9202 21.3304 20.9134 21.3119C20.9115 21.3063 20.9098 21.3013 20.9081 21.2963L20.81 21.0209L20.7297 20.8084C20.577 20.4111 20.3925 19.9675 20.1759 19.4893C19.7851 18.6266 19.342 17.7639 18.8464 16.925L19.1254 16.9504C14.9635 16.6239 11.8378 15.5078 9.62511 13.7732L1.85365 18.6843L6.65148 21.68L6.69566 21.7053L11.7883 24.8822L21.6878 31.0651L30.3361 24.6123L30.9882 25.4975L22.3147 31.9698C21.9984 32.2066 21.5796 32.2426 21.2316 32.0711L21.1386 32.0192L11.211 25.8185L6.14396 22.657L1.85073 25.3676L6.73178 28.4105L21.698 37.7507L35.1596 27.7025L35.1974 27.6772L39.86 24.1996L35.8222 21.8989L30.9882 25.4975L30.3361 24.6123L35.2004 20.9922L39.86 17.5104L29.3397 11.5193C27.8106 13.1045 25.6814 14.46 22.8914 15.54ZM20.8426 6.67221L17.7346 8.62911C18.7297 9.81091 19.3523 11.1901 19.6535 12.7003C19.8296 13.5828 19.8825 14.4533 19.8437 15.2803C19.8282 15.6084 19.8007 15.8944 19.7683 16.1311L19.746 16.2917C20.2254 17.0974 20.6574 17.9233 21.043 18.7511L21.0564 18.5952C21.181 17.4904 21.3607 16.3854 21.6039 15.3043C21.4563 15.0152 21.2704 14.5891 21.0859 14.0526C20.2897 11.7372 20.1873 9.28536 21.2392 6.97279L21.2667 6.91296L20.8426 6.67221ZM6.86881 5.69287L6.70671 5.73119L6.70711 5.79447C6.71068 6.16129 6.74557 6.59609 6.82636 7.08039L6.87064 7.32658C7.08835 8.45536 7.51141 9.56899 8.18767 10.6094C9.93977 13.3048 13.1168 15.1472 18.0954 15.742L17.9233 15.4826C16.3552 13.2215 14.5467 11.5129 12.5053 10.5719C12.2304 10.4452 12.1096 10.1182 12.2355 9.84158C12.3614 9.56494 12.6863 9.44338 12.9611 9.57008C15.1802 10.5929 17.1094 12.4044 18.7683 14.7761C18.768 14.2881 18.7264 13.7452 18.6273 13.171L18.5801 12.9172C18.1411 10.7163 16.9435 8.85229 14.7485 7.54021C11.5633 5.63014 8.88779 5.24024 6.86881 5.69287ZM30.7983 1.51316L30.5867 1.51875C28.559 1.60499 26.1168 2.66946 23.6259 5.36048C23.0261 6.01072 22.5663 6.70261 22.2347 7.43145C21.3749 9.32185 21.4008 11.3499 21.9944 13.3027L22.068 13.5313L22.14 13.2997C22.1646 13.2212 22.1896 13.1429 22.215 13.0649C23.0722 10.4297 24.3053 8.29252 25.9882 6.83813C26.2176 6.6399 26.5632 6.66634 26.7602 6.89719C26.9571 7.12804 26.9308 7.47587 26.7015 7.6741C25.1917 8.97885 24.0557 10.9477 23.2555 13.4077C23.1582 13.7067 23.067 14.0096 22.9815 14.3159C26.1933 12.9989 28.3847 11.3054 29.7071 9.32801L29.8446 9.11646C31.3152 6.7869 31.5064 4.31045 30.9495 2.0475C30.9196 1.92622 30.8888 1.8117 30.8575 1.70433L30.7983 1.51316Z"
    fill="#333333" />
  <path
    d="M30.3361 24.6123L21.6878 31.0651L11.7883 24.8822L6.69566 21.7053L6.65148 21.68L1.85365 18.6843L9.62511 13.7732C11.8378 15.5078 14.9635 16.6239 19.1254 16.9504L18.8464 16.925C19.342 17.7639 19.7851 18.6266 20.1759 19.4893C20.3925 19.9675 20.577 20.4111 20.7297 20.8084L20.81 21.0209L20.9081 21.2963C20.9098 21.3013 20.9115 21.3063 20.9134 21.3119C20.9202 21.3304 20.9279 21.3485 20.9365 21.3656C20.945 21.3831 20.9544 21.3999 20.9644 21.4158C20.9725 21.4287 20.9811 21.4412 20.9904 21.4536C21.0019 21.4689 21.0141 21.4836 21.0276 21.4979C21.0406 21.5118 21.0542 21.5251 21.0687 21.5378C21.0794 21.5472 21.0906 21.5561 21.1017 21.5643C21.1188 21.5771 21.1367 21.589 21.1551 21.5994C21.1683 21.607 21.1817 21.614 21.1959 21.6209L21.2447 21.6408C21.2612 21.6467 21.2779 21.6518 21.2945 21.6561C21.3152 21.6612 21.3364 21.6652 21.3607 21.6673L21.351 21.6671L21.4237 21.6724L21.4431 21.6722L21.4616 21.6714L21.5216 21.663L21.5092 21.6662C21.5299 21.6631 21.5503 21.6588 21.5703 21.6534L21.601 21.6438C21.6081 21.6414 21.6151 21.6389 21.6221 21.6364C21.6397 21.6297 21.6569 21.622 21.6736 21.6135C21.6875 21.6064 21.7011 21.5988 21.7142 21.5907C21.731 21.5802 21.7472 21.5689 21.7629 21.5568C21.776 21.5466 21.7886 21.5357 21.8 21.5248C21.8164 21.5095 21.8318 21.4932 21.8463 21.476C21.8537 21.4671 21.8608 21.458 21.8676 21.4488C21.8794 21.4326 21.8905 21.4158 21.9006 21.3982C21.9092 21.3832 21.9171 21.3678 21.9243 21.3525C21.9321 21.3356 21.939 21.3183 21.945 21.3003L21.9581 21.2564L21.9691 21.1915L21.9692 21.1995C21.972 21.1803 21.9737 21.1608 21.9745 21.1413L21.9747 21.125L21.979 20.919L21.9979 20.4726C22.0254 19.9443 22.0726 19.3547 22.1443 18.7194C22.2614 17.6807 22.429 16.6423 22.6539 15.6279L22.8914 15.54C25.6814 14.46 27.8106 13.1045 29.3397 11.5193L39.86 17.5104L35.2004 20.9922L30.3361 24.6123ZM30.3361 24.6123L30.9882 25.4975M30.9882 25.4975L22.3147 31.9698C21.9984 32.2066 21.5796 32.2426 21.2316 32.0711L21.1386 32.0192L11.211 25.8185L6.14396 22.657L1.85073 25.3676L6.73178 28.4105L21.698 37.7507L35.1596 27.7025L35.1974 27.6772L39.86 24.1996L35.8222 21.8989L30.9882 25.4975ZM30.7614 0.411743L30.9758 0.41332L31.1873 0.425045L31.5716 0.47415L31.6938 0.763778C31.7042 0.788533 31.7152 0.815623 31.7267 0.845004L31.8005 1.04839C31.8267 1.12509 31.8541 1.21058 31.8823 1.30448L31.9685 1.61106L32.0122 1.78259C32.635 4.31333 32.4207 7.09059 30.7687 9.70737C30.5602 10.0377 30.331 10.3603 30.0807 10.675L40.4619 16.5879C40.771 16.7625 40.9712 17.0829 40.9936 17.439C41.0137 17.7595 40.8874 18.0696 40.6545 18.2831L40.573 18.3506L36.7842 21.1802L40.4619 23.2766C40.771 23.4512 40.9712 23.7716 40.9936 24.1277C41.0137 24.4482 40.8874 24.7583 40.6543 24.9719L40.5727 25.0394L36.7461 27.8932L40.452 30.0084C40.7612 30.183 40.9613 30.5034 40.9837 30.8595C41.0061 31.2156 40.8476 31.5588 40.5628 31.7713L22.3134 45.3813C21.9709 45.6362 21.5093 45.6581 21.1387 45.433L1.20584 32.9873C0.900477 32.795 0.715012 32.458 0.715012 32.0954C0.715012 31.7329 0.900477 31.3958 1.20572 31.2036L5.14654 28.719L1.20385 26.2609C0.899703 26.0675 0.715287 25.7307 0.715287 25.3686C0.715287 25.0427 0.864664 24.7373 1.1173 24.5378L1.20528 24.4754L5.1056 22.0117L1.20584 19.5768C0.900477 19.3845 0.715012 19.0475 0.715012 18.6849C0.715012 18.3586 0.865239 18.053 1.11735 17.8553L1.2051 17.7935L8.75967 13.0191C8.18882 12.4658 7.69377 11.8623 7.27147 11.2126C6.513 10.0458 6.03934 8.79891 5.79586 7.53656C5.63316 6.69296 5.59228 5.95952 5.61994 5.39655L5.62277 5.34477L5.65854 4.94445L5.96068 4.81643L6.09476 4.76541L6.27512 4.70819C6.30899 4.6983 6.34476 4.68829 6.38241 4.6782L6.63076 4.61734C8.91688 4.10482 11.8783 4.53639 15.3083 6.59322C15.9251 6.96193 16.4733 7.37123 16.9566 7.81654L20.3052 5.7111C20.6026 5.53211 20.9663 5.51421 21.2683 5.65235L21.3666 5.70418L21.7942 5.94671C22.0867 5.48416 22.4294 5.03812 22.8242 4.61009C25.6019 1.60912 28.4028 0.444163 30.7614 0.411743ZM35.782 28.6094L22.3239 38.6556C21.9796 38.9135 21.5126 38.9329 21.1487 38.7046L6.18265 29.3667L1.85365 32.095L21.6849 44.4773L39.8497 30.9307L35.782 28.6094ZM20.8426 6.67221L17.7346 8.62911C18.7297 9.81091 19.3523 11.1901 19.6535 12.7003C19.8296 13.5828 19.8825 14.4533 19.8437 15.2803C19.8282 15.6084 19.8007 15.8944 19.7683 16.1311L19.746 16.2917C20.2254 17.0974 20.6574 17.9233 21.043 18.7511L21.0564 18.5952C21.181 17.4904 21.3607 16.3854 21.6039 15.3043C21.4563 15.0152 21.2704 14.5891 21.0859 14.0526C20.2897 11.7372 20.1873 9.28536 21.2392 6.97279L21.2667 6.91296L20.8426 6.67221ZM6.86881 5.69287L6.70671 5.73119L6.70711 5.79447C6.71068 6.16129 6.74557 6.59609 6.82636 7.08039L6.87064 7.32658C7.08835 8.45536 7.51141 9.56899 8.18767 10.6094C9.93977 13.3048 13.1168 15.1472 18.0954 15.742L17.9233 15.4826C16.3552 13.2215 14.5467 11.5129 12.5053 10.5719C12.2304 10.4452 12.1096 10.1182 12.2355 9.84158C12.3614 9.56494 12.6863 9.44338 12.9611 9.57008C15.1802 10.5929 17.1094 12.4044 18.7683 14.7761C18.768 14.2881 18.7264 13.7452 18.6273 13.171L18.5801 12.9172C18.1411 10.7163 16.9435 8.85229 14.7485 7.54021C11.5633 5.63014 8.88779 5.24024 6.86881 5.69287ZM30.7983 1.51316L30.5867 1.51875C28.559 1.60499 26.1168 2.66946 23.6259 5.36048C23.0261 6.01072 22.5663 6.70261 22.2347 7.43145C21.3749 9.32185 21.4008 11.3499 21.9944 13.3027L22.068 13.5313L22.14 13.2997C22.1646 13.2212 22.1896 13.1429 22.215 13.0649C23.0722 10.4296 24.3053 8.29252 25.9882 6.83813C26.2176 6.6399 26.5632 6.66634 26.7602 6.89719C26.9571 7.12804 26.9308 7.47587 26.7015 7.6741C25.1917 8.97885 24.0557 10.9477 23.2555 13.4077C23.1582 13.7067 23.067 14.0096 22.9815 14.3159C26.1933 12.9989 28.3847 11.3054 29.7071 9.32801L29.8446 9.11646C31.3152 6.7869 31.5064 4.31045 30.9495 2.0475C30.9196 1.92622 30.8888 1.8117 30.8575 1.70433L30.7983 1.51316Z"
    stroke="#333333" stroke-width="0.3" />
</svg>
