<svg width="48" height="40" fill="none" xmlns="http://www.w3.org/2000/svg">
  <path
    d="M45.8698 0.230713C46.4655 0.230713 46.9485 0.709661 46.9485 1.30047V38.5456C46.9485 39.1364 46.4655 39.6153 45.8698 39.6153H1.70209C1.10631 39.6153 0.623344 39.1364 0.623344 38.5456V10.5014C0.63123 10.1048 0.859739 9.74499 1.21711 9.56667C1.57448 9.38836 2.00201 9.42081 2.33301 9.65468L10.9956 15.9461C11.0287 15.9689 11.0718 15.9719 11.1079 15.954C11.1439 15.936 11.1672 15.8999 11.1682 15.8749L11.1683 10.3805C11.1782 10.0033 11.3877 9.65913 11.7197 9.47476C12.0516 9.2904 12.457 9.29311 12.7946 9.48669L23.783 16.072C23.8167 16.0914 23.8582 16.0916 23.8921 16.0726C23.926 16.0537 23.9473 16.0184 23.948 15.9898L23.9482 10.4017C23.9599 10.0255 24.1701 9.683 24.5018 9.49992C24.8334 9.31683 25.2377 9.32008 25.5817 9.51762L35.077 15.4355C35.1105 15.4547 35.1516 15.4551 35.1854 15.4366C35.2192 15.418 35.2407 15.3832 35.2418 15.3621V1.30047C35.2418 0.709661 35.7248 0.230713 36.3206 0.230713H45.8698ZM45.8698 1.19131H36.3206C36.2598 1.19131 36.2105 1.24019 36.2105 1.30047L36.2102 15.3792C36.1967 15.7545 35.9857 16.0953 35.6544 16.2771C35.3231 16.4589 34.9199 16.4551 34.5768 16.258L25.0816 10.3401C25.048 10.3209 25.0068 10.3206 24.9729 10.3392C24.9391 10.3579 24.9176 10.3929 24.9167 10.4165L24.9166 15.9999C24.9086 16.378 24.6998 16.7239 24.3675 16.9096C24.0352 17.0952 23.6287 17.093 23.2902 16.899L12.3018 10.3136C12.2682 10.2944 12.2268 10.2941 12.1929 10.3129C12.1591 10.3317 12.1377 10.3668 12.1369 10.3929L12.1366 15.8899C12.1242 16.2819 11.8966 16.6358 11.5433 16.812C11.19 16.9883 10.7678 16.9588 10.4331 16.7281L1.76584 10.4334C1.73259 10.4099 1.68897 10.4066 1.6525 10.4248C1.61603 10.443 1.59271 10.4797 1.59201 10.5108V38.5456C1.59201 38.6059 1.64129 38.6547 1.70209 38.6547H45.8698C45.9306 38.6547 45.9798 38.6059 45.9798 38.5456V1.30047C45.9798 1.24019 45.9306 1.19131 45.8698 1.19131ZM23.7666 21.5721C27.4269 21.5721 30.3942 24.5147 30.3942 28.1445C30.3942 31.7744 27.4269 34.7169 23.7666 34.7169C20.1063 34.7169 17.139 31.7744 17.139 28.1445C17.139 24.5147 20.1063 21.5721 23.7666 21.5721ZM23.7666 22.5327C20.6413 22.5327 18.1077 25.0452 18.1077 28.1445C18.1077 31.2438 20.6413 33.7563 23.7666 33.7563C26.8919 33.7563 29.4255 31.2438 29.4255 28.1445C29.4255 25.0452 26.8919 22.5327 23.7666 22.5327ZM22.3103 28.5643C22.5555 28.5643 22.7581 28.745 22.7902 28.9794L22.7946 29.0446C22.7946 29.0989 22.8212 29.2206 22.8984 29.3385C23.0342 29.5457 23.2894 29.6755 23.7666 29.6755C24.2436 29.6755 24.4972 29.5465 24.6311 29.341C24.6942 29.2442 24.7227 29.1444 24.7304 29.082L24.7326 29.0501C24.7312 28.7849 24.9469 28.5687 25.2144 28.5673C25.4596 28.566 25.6632 28.7456 25.6965 28.9805L25.7013 29.0459C25.7019 29.2712 25.6384 29.5651 25.4447 29.8624C25.1272 30.3495 24.5639 30.6361 23.7666 30.6361C22.9696 30.6361 22.4055 30.3491 22.0862 29.8619C21.8904 29.5631 21.826 29.2681 21.826 29.0446C21.826 28.7794 22.0428 28.5643 22.3103 28.5643ZM21.4628 26.2641C21.8056 26.2641 22.0835 26.5397 22.0835 26.8795C22.0835 27.2194 21.8056 27.4949 21.4628 27.4949C21.12 27.4949 20.8421 27.2194 20.8421 26.8795C20.8421 26.5397 21.12 26.2641 21.4628 26.2641ZM26.5509 26.2641C26.8937 26.2641 27.1716 26.5397 27.1716 26.8795C27.1716 27.2194 26.8937 27.4949 26.5509 27.4949C26.2081 27.4949 25.9303 27.2194 25.9303 26.8795C25.9303 26.5397 26.2081 26.2641 26.5509 26.2641Z"
    fill="#333333" stroke="#333333" stroke-width="0.3" />
</svg>
