<svg width="48" height="44" fill="none" xmlns="http://www.w3.org/2000/svg">
  <path
    d="M11.2157 15.1381L23.5188 21.0476L23.6151 21.0931L36.6729 15.1734V25.3351C23.5754 30.4207 13.4266 25.9097 11.2164 24.7732L11.2157 15.1381ZM23.6358 19.252L4.69498 10.1554L23.717 1.82463L43.0264 10.4597L38.0177 12.7307L23.6358 19.252ZM44.8536 21.5249C44.8536 20.8771 44.497 20.2881 43.9328 19.9856V11.8815L47.0903 10.4502L23.7251 0L0.694587 10.0847L9.54702 14.3363V25.7424L9.95209 25.9867C10.0766 26.0599 13.0493 27.8139 17.9447 28.7716C19.9984 29.1744 22.13 29.379 24.2824 29.379C28.8401 29.379 33.3946 28.4698 37.8202 26.6749L38.341 26.464V14.4164L42.2647 12.6379V19.9951C41.7099 20.3007 41.3589 20.886 41.3589 21.5249C41.3589 21.9795 41.5401 22.4151 41.8602 22.7428L41.1054 26.9899H45.1952L44.4278 22.6702C44.7033 22.3513 44.8536 21.9492 44.8536 21.5249ZM16.2848 38.5387C16.1074 37.2318 15.5325 36.0512 14.6922 35.2494L38.8744 31.9631C40.3739 31.8072 41.798 33.1842 42.0483 35.0372C42.2999 36.8909 41.2992 38.6 39.8198 38.8456L15.6269 42.1331C16.2231 41.1374 16.4628 39.845 16.2848 38.5387ZM14.533 41.2978C14.1682 41.9803 13.6298 42.4027 13.0184 42.4854C12.4014 42.5668 11.7724 42.3035 11.2415 41.7454C10.6792 41.1557 10.2993 40.3148 10.1704 39.3803C10.0452 38.4447 10.1886 37.5343 10.5723 36.8164C10.9365 36.1333 11.4743 35.7115 12.0863 35.6288C12.1611 35.6181 12.236 35.6137 12.3108 35.6137C12.8562 35.6137 13.3927 35.875 13.8632 36.3688C14.4249 36.9597 14.806 37.7994 14.9343 38.7338C15.0589 39.6695 14.9155 40.5799 14.533 41.2978ZM43.4006 34.8529C43.2283 33.5819 42.644 32.443 41.7546 31.6456C40.9602 30.9347 39.9858 30.5533 39.0021 30.5918L38.9996 30.5691L12.2058 34.212C12.1026 34.2152 12.0001 34.2203 11.8976 34.2341C9.83888 34.5145 8.45698 36.901 8.81676 39.554C8.98848 40.8179 9.52752 41.9607 10.3352 42.7726C11.0598 43.5006 11.912 43.8857 12.7989 43.8857C12.9316 43.8857 13.0681 43.8762 13.204 43.8586C13.309 43.844 13.4103 43.8207 13.4688 43.8036L39.9399 40.2049L40.3708 40.1329L40.4085 40.1241C42.4458 39.5584 43.7321 37.2931 43.4006 34.8529Z"
    fill="#333333" />
</svg>
