<svg width="32" height="48" fill="none" xmlns="http://www.w3.org/2000/svg">
  <path
    d="M17.2677 0.000599993L16.3468 0.80819C16.6845 1.20298 16.6821 1.60978 15.7696 2.97956C14.8821 4.31215 15.9882 5.66453 16.6976 6.19252L17.4243 5.20193C17.4124 5.19234 16.3241 4.35715 16.7828 3.66715C17.416 2.71857 18.3702 1.28278 17.2677 0.000599993ZM22.1675 0.80459L21.4408 1.79638C21.5307 1.86418 23.6078 3.44936 22.6142 4.94094C21.5635 6.52012 20.1256 8.68189 21.7684 10.5911L22.6905 9.78288C21.8101 8.75749 22.2676 7.6739 23.6269 5.62913C24.9432 3.65335 23.248 1.60858 22.1675 0.80459ZM11.7305 0.896389L10.8084 1.70578C11.6083 2.63517 11.3969 3.56696 9.87142 5.85953C8.55562 7.8359 10.2514 9.87948 11.3314 10.6841L12.0569 9.69108C12.0348 9.67488 9.88571 8.0489 10.8846 6.54772C11.9354 4.96974 13.3745 2.80856 11.7305 0.896389ZM16.2711 37.8571L10.2574 31.2614C12.0003 31.835 13.9225 32.1482 15.9787 32.1482C18.4048 32.1482 20.6861 31.7012 22.7215 30.9002L16.2711 37.8571ZM2.28875 21.3483C4.94775 23.5287 10.6833 24.7683 16.2824 24.7683C21.8601 24.7683 27.5742 23.5383 30.2469 21.3729C28.8388 26.9697 23.1742 30.9182 15.9787 30.9182C8.94458 30.9182 3.59025 27.0267 2.28875 21.3483ZM8.02072 14.65L2.91895 20.2719C2.30781 19.7308 1.97782 19.1674 1.97782 18.6178C1.97782 17.1676 4.26036 15.6142 8.02072 14.65ZM12.9605 13.84L5.57556 21.7971C4.93822 21.5415 4.37651 21.2661 3.89761 20.9787L10.0316 14.2186C10.9478 14.0566 11.927 13.9288 12.9605 13.84ZM16.2824 13.6978C16.6112 13.6978 16.9341 13.7038 17.2551 13.711L8.81116 22.7751C8.09399 22.6155 7.42328 22.4349 6.8038 22.2375L14.6992 13.7296C15.2162 13.7098 15.744 13.6978 16.2824 13.6978ZM21.1269 14.0038L12.422 23.3475C11.6459 23.2695 10.9043 23.1675 10.1978 23.0463L18.83 13.7818C19.6264 13.8334 20.393 13.9078 21.1269 14.0038ZM24.6871 14.6878L17.027 23.5311C16.781 23.5359 16.5338 23.5383 16.2824 23.5383C15.4801 23.5383 14.701 23.5143 13.9475 23.4705L22.5618 14.224C23.3147 14.3572 24.0242 14.5132 24.6871 14.6878ZM28.205 15.9976L22.2908 23.0595C21.1698 23.2479 19.9594 23.3877 18.671 23.4657L25.9499 15.0616C26.81 15.3454 27.5671 15.6604 28.205 15.9976ZM30.5877 18.6178C30.5877 20.1147 28.1544 21.7203 24.1754 22.6767L29.2373 16.6336C30.1117 17.2732 30.5877 17.956 30.5877 18.6178ZM31.8058 18.6178C31.8058 14.7688 23.9134 12.4678 16.283 12.4678C8.65212 12.469 0.759705 14.77 0.759705 18.619C0.759705 23.2539 2.99698 27.1359 6.64834 29.5358L15.4533 38.7385L7.62997 47.1756L8.50142 48L16.2848 39.6067L23.6149 47.268L24.4727 46.4286L17.1015 38.7253L26.1369 29.069C29.6203 26.6067 31.8058 22.8705 31.8058 18.6178Z"
    fill="#333333" />
</svg>
