<svg width="47" height="44" fill="none" xmlns="http://www.w3.org/2000/svg">
  <path fill-rule="evenodd" clip-rule="evenodd"
    d="M23.7386 0.370972V3.62672H36.7794V0.370972H38.5185V3.62672H45.8181V42.8853H0.371674V3.62672H7.32791V0.479808H9.06611V3.62672H21.9987V0.370972H23.7386ZM2.10988 16.9668V41.1507H44.079V17.0536L2.10988 16.9668ZM18.0491 22.0289C18.9062 22.0289 19.6612 22.1845 20.3181 22.4966C20.9742 22.8087 21.4837 23.2448 21.8459 23.8069C22.208 24.3672 22.3903 25.01 22.3903 25.7336C22.3903 26.3628 22.2787 26.9546 22.0572 27.5065C21.8348 28.0583 21.4914 28.6238 21.0262 29.2036C20.5601 29.7835 19.7396 30.6109 18.5646 31.6831L16.8025 33.3386V33.4695H22.7746V35.9022H13.194V33.8904L16.6338 30.4204C17.6529 29.378 18.3183 28.6569 18.631 28.2547C18.9437 27.8525 19.1678 27.4793 19.3059 27.1366C19.443 26.7939 19.5121 26.4385 19.5121 26.0703C19.5121 25.5219 19.3604 25.1129 19.0571 24.8451C18.7537 24.5764 18.349 24.4429 17.8429 24.4429C17.3129 24.4429 16.7957 24.5636 16.2964 24.8068C15.7962 25.05 15.2747 25.3969 14.7303 25.845L13.1565 23.9837C13.8314 23.4107 14.3903 23.0051 14.8334 22.7678C15.2782 22.5306 15.7613 22.3486 16.2879 22.2211C16.8119 22.0927 17.3998 22.0289 18.0491 22.0289ZM31.3137 22.2259V35.9019H28.4167V27.9874L28.4448 26.6873L28.4917 25.2656C28.0111 25.746 27.6763 26.0607 27.4888 26.2103L25.9142 27.473L24.5177 25.7333L28.933 22.2259H31.3137ZM7.32791 5.36215H2.10988V15.2314L44.079 15.319V5.36215H38.5185V9.48093H36.7794V5.36215H23.7386V9.48093H21.9987V5.36215H9.06611V9.58977H7.32791V5.36215Z"
    fill="#333333" stroke="#333333" stroke-width="0.5" />
</svg>
