<svg width="47" height="43" fill="none" xmlns="http://www.w3.org/2000/svg">
  <path fill-rule="evenodd" clip-rule="evenodd"
    d="M23.8294 0.143188V3.40937H36.9421V0.143188H38.6906V3.40937H46.0307V42.8099H0.333496V3.40937H7.32738V0.251161H9.07672V3.40937H22.0801V0.143188H23.8294ZM2.08284 16.7989V41.0684H44.2831V16.8859L2.08284 16.7989ZM21.4293 21.8596C23.0196 21.8596 24.2208 22.4604 25.0347 23.662C25.8486 24.8636 26.2551 26.6226 26.2551 28.9379C26.2551 31.335 25.8608 33.1096 25.0723 34.2608C24.2837 35.4128 23.0694 35.9883 21.4293 35.9883C19.8391 35.9883 18.6405 35.3945 17.8336 34.2042C17.0258 33.0156 16.6219 31.2602 16.6219 28.9379C16.6219 26.5155 17.0153 24.7304 17.8004 23.5819C18.5863 22.4334 19.7954 21.8596 21.4293 21.8596ZM33.322 21.8596C34.9122 21.8596 36.1134 22.4604 36.9273 23.662C37.7412 24.8636 38.1478 26.6226 38.1478 28.9379C38.1478 31.335 37.7535 33.1096 36.9649 34.2608C36.1764 35.4128 34.9621 35.9883 33.322 35.9883C31.7318 35.9883 30.5332 35.3945 29.7263 34.2042C28.9185 33.0156 28.5146 31.2602 28.5146 28.9379C28.5146 26.5155 28.908 24.7304 29.693 23.5819C30.479 22.4334 31.688 21.8596 33.322 21.8596ZM13.7546 22.075V35.8006H10.8425V27.8585L10.8705 26.5532L10.9177 25.1261C10.4334 25.6085 10.0968 25.9246 9.9097 26.0743L8.32558 27.3421L6.92156 25.5954L11.3609 22.075H13.7546ZM21.4293 24.2062C20.7439 24.2062 20.2543 24.5737 19.9589 25.3095C19.6634 26.0453 19.5156 27.2539 19.5156 28.9379C19.5156 30.6219 19.6625 31.8279 19.9545 32.5567C20.2465 33.2864 20.7378 33.6512 21.4293 33.6512C22.1077 33.6512 22.5982 33.2812 22.8998 32.5428C23.2014 31.8044 23.3526 30.6027 23.3526 28.9379C23.3526 27.2539 23.1996 26.0453 22.8945 25.3095C22.5903 24.5737 22.1016 24.2062 21.4293 24.2062ZM33.322 24.2062C32.6366 24.2062 32.147 24.5737 31.8515 25.3095C31.556 26.0453 31.4083 27.2539 31.4083 28.9379C31.4083 30.6219 31.5552 31.8279 31.8471 32.5567C32.1391 33.2864 32.6305 33.6512 33.322 33.6512C34.0004 33.6512 34.4908 33.2812 34.7924 32.5428C35.0941 31.8044 35.2453 30.6027 35.2453 28.9379C35.2453 27.2539 35.0923 26.0453 34.7872 25.3095C34.483 24.5737 33.9943 24.2062 33.322 24.2062ZM7.32738 5.15173H2.08284V15.0574L44.2831 15.1444V5.15173H38.6906V9.28518H36.9421V5.15173H23.8294V9.28518H22.0801V5.15173H9.07672V9.39402H7.32738V5.15173Z"
    fill="#333333" stroke="#333333" stroke-width="0.1" />
</svg>
