<svg width="48" height="39" fill="none" xmlns="http://www.w3.org/2000/svg">
  <path
    d="M4.9911 8.63593C5.53247 8.86477 6.53788 9.5513 6.53788 9.5513L10.7142 12.4499C10.9462 12.6025 11.1009 12.7551 11.1782 12.7551L15.3545 15.6537L18.3708 17.7896C18.6801 18.0184 18.9121 18.171 18.9121 18.171L22.7791 20.8408C22.8564 20.9171 23.0884 21.0696 23.0884 21.0696C23.2431 21.2222 23.3978 21.2985 23.3978 21.2985L27.2647 23.9683C27.3421 24.0446 27.5741 24.1971 27.8061 24.3497L35.076 29.3079C35.1533 29.3842 35.3853 29.5368 35.54 29.6893L35.8494 29.9182L39.639 32.5117C39.639 32.5117 40.6444 33.1982 41.1084 33.6559C42.2685 34.6475 42.5005 36.3257 41.6498 37.4699C40.7991 38.6141 39.175 38.9955 37.7829 38.309C37.3188 38.1564 36.4681 37.5462 36.2361 37.3936L32.0598 34.495C31.8277 34.3424 31.6731 34.2661 31.6731 34.1899L24.2485 29.0791C24.0165 28.9265 23.8618 28.7739 23.7845 28.7739L19.9175 26.1041C19.9175 26.1041 19.7629 26.0279 19.6082 25.8753C19.4535 25.7227 19.2988 25.6465 19.2988 25.6465L15.4319 22.9766L15.392 22.9504C15.3159 22.9004 15.1419 22.7859 14.9678 22.6715L7.62063 17.637C7.62063 17.637 7.46595 17.4845 7.23393 17.3319L6.84724 17.0268L3.05763 14.4332C3.05763 14.4332 2.05222 13.7467 1.58818 13.289C0.505437 12.2211 0.27342 10.6192 1.12415 9.47501C1.97488 8.33081 3.599 7.94941 4.9911 8.63593ZM1.8202 9.9327C1.27883 10.6955 1.43351 11.7634 2.2069 12.4499C2.51625 12.7551 3.2123 13.289 3.52166 13.5179L7.69797 16.4165C7.92998 16.5691 8.08466 16.7217 8.08466 16.7217L15.4319 21.8324C15.6639 21.985 15.8186 22.1376 15.8186 22.1376L19.7629 24.8074C19.7629 24.8074 19.9175 24.8836 20.0722 25.0362C20.3042 25.1888 20.3816 25.2651 20.3816 25.2651L24.3259 27.9349C24.3259 27.9349 24.5579 28.0874 24.7899 28.24L28.8115 30.9861L32.1371 33.2745L32.177 33.3007C32.2531 33.3508 32.4271 33.4652 32.6011 33.5796L33.4519 34.1899L36.7774 36.4783C37.2415 36.7834 37.8602 37.1648 38.1695 37.3174C39.175 37.775 40.2577 37.5462 40.7991 36.8597C41.3404 36.0969 41.1858 35.0289 40.4124 34.3424C40.103 34.0373 39.2523 33.4271 39.0976 33.2745L35.076 30.5284C34.7666 30.2996 34.6119 30.147 34.5346 30.147L27.2647 25.1125C26.9554 24.8836 26.8007 24.7311 26.7234 24.7311L22.7791 22.0613C22.7791 22.0613 22.6244 21.985 22.4697 21.8324C22.315 21.6799 22.1604 21.6036 22.1604 21.6036L18.2161 18.9338C18.2161 18.9338 17.9841 18.7812 17.6747 18.5524L13.7304 15.8826L10.4048 13.5942C10.4048 13.5942 10.1728 13.4416 9.86346 13.2128L9.16741 12.6788L5.84183 10.3904C5.60981 10.2378 4.83642 9.70386 4.44973 9.5513C3.44432 9.01733 2.36157 9.24617 1.8202 9.9327ZM9.86346 1.54186C10.4048 1.7707 11.4102 2.45722 11.4102 2.45722L15.5865 5.35587C15.8186 5.50844 15.9732 5.661 16.0506 5.661L20.2269 8.55965L23.2431 10.6955C23.5525 10.9243 23.7845 11.0769 23.7845 11.0769L27.6514 13.7467C27.7288 13.823 27.9608 13.9756 27.9608 13.9756C28.1155 14.1281 28.2702 14.2044 28.2702 14.2044L32.1371 16.8742C32.2144 16.9505 32.4465 17.1031 32.6785 17.2556L39.9483 22.2138C40.0257 22.2901 40.2577 22.4427 40.4124 22.5952L40.7217 22.8241L44.5113 25.4176C44.5113 25.4176 45.5168 26.1041 45.9808 26.5618C47.2956 27.6297 47.4502 29.2316 46.6768 30.3758C45.8261 31.52 44.202 31.9014 42.8099 31.2149C42.3459 31.0624 41.4951 30.4521 41.2631 30.2996L37.0868 27.4009C36.8548 27.2483 36.7001 27.1721 36.7001 27.0958L29.3529 21.985C29.1209 21.8324 28.9662 21.6799 28.8889 21.6799L25.0219 19.0101C25.0219 19.0101 24.8672 18.9338 24.7126 18.7812C24.5579 18.6287 24.4032 18.5524 24.4032 18.5524L20.5362 15.8826C20.5362 15.8826 20.3042 15.73 20.0722 15.5774L12.725 10.5429C12.725 10.5429 12.5703 10.3904 12.3383 10.2378L11.9516 9.9327L7.92999 7.33916C7.92999 7.33916 6.92458 6.65264 6.46054 6.19496C5.3778 5.12703 5.14578 3.52515 5.99651 2.38094C6.84724 1.23673 8.47136 0.855333 9.86346 1.54186ZM6.84724 2.9149C6.30586 3.67771 6.46054 4.74563 7.23393 5.43216C7.54329 5.73728 8.23934 6.27124 8.5487 6.50008L12.725 9.39873C12.957 9.5513 13.1117 9.70386 13.1117 9.70386L20.4589 14.8146C20.6909 14.9672 20.8456 15.1198 20.8456 15.1198L24.7899 17.7896C24.7899 17.7896 24.9446 17.8659 25.0993 18.0184C25.3313 18.171 25.4086 18.2473 25.4086 18.2473L29.3529 20.9171C29.3529 20.9171 29.5849 21.0696 29.8169 21.2222L33.8386 23.9683L37.1641 26.2567L37.204 26.2829C37.2801 26.333 37.4542 26.4474 37.6282 26.5618L38.4789 27.1721L41.8045 29.4605C42.2685 29.7656 42.8872 30.147 43.1966 30.2996C44.202 30.7572 45.2847 30.5284 45.8261 29.8419C46.3675 29.0791 46.2128 28.0111 45.4394 27.3246C45.1301 27.0195 44.2793 26.4093 44.1247 26.2567L40.103 23.4343C39.7937 23.2055 39.639 23.0529 39.5617 23.0529L32.2918 18.0184C31.9824 17.7896 31.8277 17.637 31.7504 17.637L27.8061 14.9672C27.8061 14.9672 27.6514 14.8909 27.4968 14.7384C27.3421 14.5858 27.1874 14.5095 27.1874 14.5095L23.2431 11.8397C23.2431 11.8397 23.0111 11.6871 22.7017 11.4583L18.7574 8.78849L15.4319 6.50008C15.4319 6.50008 15.1999 6.34752 14.8905 6.11868L14.1944 5.58472L10.8689 3.2963C10.6369 3.14374 9.86346 2.60978 9.47677 2.45722C8.47136 1.99954 7.38861 2.22838 6.84724 2.9149Z"
    fill="#333333" stroke="#333333" stroke-width="0.5" />
</svg>
