<svg width="47" height="47" fill="none" xmlns="http://www.w3.org/2000/svg">
  <path fill-rule="evenodd" clip-rule="evenodd"
    d="M22.7671 0.314941C16.7348 0.314941 11.2983 2.49676 7.05335 6.0604L1.61684 0.751305C1.02106 0.169487 0.574227 0.387669 0.499754 1.18767L0.0529175 14.9331C0.0529175 15.3695 0.350808 15.6604 0.797645 15.6604L14.873 15.224C15.6922 15.224 15.9156 14.7149 15.3198 14.1331L10.2557 9.18767C13.607 6.35131 18.0008 4.67858 22.7671 4.67858C33.4912 4.67858 42.13 13.1149 42.13 23.5877C42.13 34.0604 33.4912 42.4968 22.7671 42.4968C16.5859 42.4968 11.0004 39.6604 7.50019 35.224L4.22339 38.2058C8.61728 43.5149 15.2454 46.8604 22.7671 46.8604C35.9488 46.8604 46.5984 36.4604 46.5984 23.5877C46.5984 10.7149 35.9488 0.314941 22.7671 0.314941Z"
    fill="#333333" />
</svg>
