<svg width="46" height="48" fill="none" xmlns="http://www.w3.org/2000/svg">
  <path fill-rule="evenodd" clip-rule="evenodd"
    d="M45.1356 22.5148C45.1356 10.0993 35.0112 -0.000244141 22.5677 -0.000244141C10.1258 -0.000244141 -0.00012207 10.0993 -0.00012207 22.5148C-0.00012207 26.4058 1.01943 30.2248 2.93601 33.5983V36.1438C2.93601 37.2538 3.84212 38.1523 4.96151 38.1523H9.74011C10.858 38.1523 11.7641 37.2538 11.7641 36.1438V22.8493C11.7641 21.7393 10.858 20.8408 9.74011 20.8408H4.96151C4.65897 20.8408 4.37307 20.9113 4.1144 21.0313C4.87377 11.5213 12.8578 4.01526 22.5677 4.01526C32.2868 4.01526 40.2738 11.5348 41.0241 21.0538C40.7564 20.9218 40.4568 20.8423 40.1377 20.8423H35.3591C34.2397 20.8423 33.3336 21.7408 33.3336 22.8508V36.1468C33.3336 37.2568 34.2397 38.1553 35.3591 38.1553H37.1229C34.7782 41.2003 31.0313 43.4488 26.6278 44.2888C26.1967 43.6978 25.5024 43.3078 24.7143 43.3078H20.869C19.565 43.3078 18.5031 44.3608 18.5031 45.6538C18.5031 46.9468 19.565 47.9998 20.869 47.9998H24.7143C25.8064 47.9998 26.7186 47.2588 26.9893 46.2613C32.4517 45.2233 37.0261 42.2023 39.5719 38.1538H40.1362C41.2556 38.1538 42.1601 37.2553 42.1601 36.1453V33.6703C44.1009 30.2803 45.1341 26.4328 45.1341 22.5148H45.1356Z"
    fill="#2D69AA" />
</svg>
