<svg width="44" height="48" fill="none" xmlns="http://www.w3.org/2000/svg">
  <path fill-rule="evenodd" clip-rule="evenodd"
    d="M43.835 22.5151C43.835 10.0993 34.0019 0 21.9172 0C9.83429 0 0 10.0993 0 22.5151C0 26.4062 0.989833 30.225 2.85118 33.5988V36.144C2.85118 37.2542 3.73124 38.1525 4.81804 38.1525H9.45922C10.5448 38.1525 11.4249 37.2542 11.4249 36.144V22.8499C11.4249 21.7396 10.5448 20.8414 9.45922 20.8414H4.81804C4.52469 20.8414 4.24658 20.9118 3.99592 21.0315C4.73327 11.5219 12.4873 4.01579 21.9172 4.01579C31.3563 4.01579 39.1133 11.535 39.8421 21.0539C39.5817 20.9224 39.2908 20.8426 38.981 20.8426H34.3404C33.253 20.8426 32.373 21.7409 32.373 22.8511V36.1471C32.373 37.2574 33.253 38.1556 34.3404 38.1556H36.053C33.7757 41.2008 30.1371 43.4493 25.8601 44.289C25.4417 43.6981 24.7672 43.3078 24.0018 43.3078H20.2675C19.0014 43.3078 17.9701 44.3614 17.9701 45.6542C17.9701 46.9471 19.0014 48 20.2675 48H24.0018C25.063 48 25.9485 47.2594 26.212 46.2614C31.5167 45.2235 35.959 42.2026 38.4315 38.1544H38.9798C40.0666 38.1544 40.9454 37.2555 40.9454 36.1459V33.6711C42.8299 30.2811 43.835 26.433 43.835 22.5151Z"
    fill="white" />
</svg>
