<svg width="48" height="38" fill="none" xmlns="http://www.w3.org/2000/svg">
  <path
    d="M5.60425 11.1599C5.38218 11.1599 5.16011 11.1599 4.93804 11.217C4.93804 11.217 5.71528 11.5593 6.15942 12.0157C6.15942 12.0157 4.82701 11.7875 3.82769 12.1868C3.82769 12.1868 4.88252 12.5291 5.10459 12.7003C4.93804 12.7003 3.77217 12.5291 2.60631 13.1567C2.60631 13.1567 3.10596 13.3849 3.43907 13.7842C3.43907 13.7842 3.217 15.3816 3.49459 16.1232C3.66114 16.5226 3.77217 16.7508 3.88321 16.8649V17.1501C3.5501 17.2642 3.16148 17.6065 3.16148 18.2911C3.16148 18.3482 3.16148 19.1469 4.1608 19.7744C4.1608 19.7744 4.43838 20.0026 4.4939 20.402C4.66045 21.2007 5.54873 22.741 7.49184 22.9121H7.82495C9.76806 22.741 10.6563 21.2007 10.8229 20.402C10.8784 20.0026 11.156 19.7744 11.156 19.7744C12.2108 19.0898 12.2108 18.2911 12.2108 18.2911C12.2108 17.6065 11.8222 17.2642 11.5446 17.1501V16.7508C11.6557 16.6367 11.8222 16.3514 11.8222 16.0662C11.8222 15.6098 11.9332 14.2406 11.7112 14.0124C11.7112 14.0124 11.2115 13.3849 10.9339 13.3849C10.7674 13.2137 10.6008 12.9855 10.3788 12.8144C10.3232 12.7573 10.2677 12.7573 10.2122 12.7003C9.65702 12.1868 8.38012 11.0458 5.60425 11.1599ZM9.32392 14.5259C9.76806 14.5259 10.2122 14.697 10.4898 14.9823C10.4898 14.9823 10.7119 15.1534 10.9339 15.4957C10.9339 15.4957 10.9339 15.4957 10.9339 15.5528V17.4354C10.9339 17.6065 11.045 17.7206 11.2115 17.7206C11.3225 17.7206 11.6001 17.7777 11.6001 18.2911C11.6001 18.2911 11.6001 18.8046 10.8229 19.318C10.8229 19.318 10.3788 19.6603 10.2677 20.2879C10.2677 20.2879 9.82358 22.1705 7.82495 22.3416H7.54736C5.54873 22.1705 5.10459 20.3449 5.10459 20.2879C4.99356 19.6603 4.54942 19.318 4.4939 19.261C3.77217 18.8046 3.71666 18.2911 3.71666 18.2911C3.71666 17.7777 4.04976 17.7206 4.10528 17.7206C4.27183 17.7206 4.38287 17.5495 4.38287 17.4354V15.6098C4.38287 15.5528 4.38287 15.4957 4.38287 15.4957C4.77149 14.8111 5.10459 14.5259 6.15942 14.697C7.26977 14.8682 8.15805 14.9252 8.87978 14.64C8.99081 14.5829 9.15737 14.5259 9.32392 14.5259ZM4.60494 21.9993C0.940783 23.1974 1.21837 24.4525 0.996301 25.1371C0.774231 25.8217 0.774231 28.2748 0.774231 28.2748C2.49527 29.3587 6.27046 29.3587 7.6584 29.3587C9.04633 29.4158 12.8215 29.3587 14.487 28.3318C14.487 28.3318 14.487 25.8787 14.265 25.1941C14.0429 24.5666 14.3205 23.3115 10.6563 22.0564C9.99013 22.9121 8.87978 23.4826 7.60288 23.4826C6.32598 23.4826 5.27114 22.8551 4.60494 21.9993Z"
    fill="#2D69AA" />
  <path
    d="M38.383 11.9444C38.1609 11.9444 37.9389 11.9444 37.7168 12.0014C37.7168 12.0014 38.494 12.3437 38.9382 12.8001C38.9382 12.8001 37.6058 12.5719 36.6064 12.9713C36.6064 12.9713 37.6613 13.3136 37.8833 13.4847C37.7168 13.4847 36.5509 13.3136 35.3851 13.9411C35.3851 13.9411 35.8847 14.1693 36.2178 14.5686C36.2178 14.5686 35.9957 16.166 36.2733 16.9077C36.4399 17.307 36.5509 17.5352 36.662 17.6493V17.9346C36.3289 18.0487 35.9402 18.391 35.9402 19.0756C35.9402 19.1326 35.9402 19.9313 36.9395 20.5588C36.9395 20.5588 37.2171 20.787 37.2726 21.1864C37.4392 21.9851 38.3275 23.5254 40.2706 23.6966H40.6037C42.5468 23.5254 43.4351 21.9851 43.6016 21.1864C43.6572 20.787 43.9347 20.5588 43.9347 20.5588C44.9896 19.8742 44.9896 19.0756 44.9896 19.0756C44.9896 18.391 44.601 18.0487 44.3234 17.9346V17.5352C44.4344 17.4211 44.601 17.1359 44.601 16.8506C44.601 16.3942 44.712 15.025 44.4899 14.7968C44.4899 14.7968 43.9903 14.1693 43.7127 14.1693C43.5461 13.9981 43.3796 13.77 43.1575 13.5988C43.102 13.5418 43.0465 13.5418 42.9909 13.4847C42.4358 12.9713 41.1589 11.8303 38.383 11.9444ZM42.1027 15.3103C42.5468 15.3103 42.9909 15.4814 43.2685 15.7667C43.2685 15.7667 43.4906 15.9378 43.7127 16.2801C43.7127 16.2801 43.7127 16.2801 43.7127 16.3372V18.2198C43.7127 18.391 43.8237 18.5051 43.9903 18.5051C44.1013 18.5051 44.3789 18.5621 44.3789 19.0756C44.3789 19.0756 44.3789 19.589 43.6016 20.1024C43.6016 20.1024 43.1575 20.4447 43.0465 21.0723C43.0465 21.0723 42.6023 22.9549 40.6037 23.1261H40.3261C38.3275 22.9549 37.8833 21.1293 37.8833 21.0723C37.7723 20.4447 37.3282 20.1024 37.2726 20.0454C36.5509 19.589 36.4954 19.0756 36.4954 19.0756C36.4954 18.5621 36.8285 18.5051 36.884 18.5051C37.0506 18.5051 37.1616 18.3339 37.1616 18.2198V16.3942C37.1616 16.3372 37.1616 16.2801 37.1616 16.2801C37.5502 15.5955 37.8833 15.3103 38.9382 15.4814C40.0485 15.6526 40.9368 15.7096 41.6585 15.4244C41.7696 15.3673 41.9361 15.3103 42.1027 15.3103ZM37.3837 22.7838C33.7195 23.9818 33.9971 25.2369 33.775 25.9215C33.553 26.6061 33.553 29.0592 33.553 29.0592C35.274 30.1432 39.0492 30.1432 40.4371 30.1432C41.8251 30.2002 45.6003 30.1432 47.2658 29.1163C47.2658 29.1163 47.2658 26.6631 47.0437 25.9785C46.8217 25.351 47.0992 24.0959 43.4351 22.8408C42.7689 23.6966 41.6585 24.2671 40.3816 24.2671C39.1047 24.2671 38.0499 23.6395 37.3837 22.7838Z"
    fill="#2D69AA" />
  <path
    d="M21.9937 0.962312C21.7716 0.962312 21.5495 0.962312 21.3274 1.01936C21.3274 1.01936 22.1047 1.36166 22.5488 1.81805C22.5488 1.81805 21.2164 1.58986 20.2171 1.9892C20.2171 1.9892 21.2719 2.3315 21.494 2.50265C21.3274 2.50265 20.1616 2.3315 18.9957 2.95904C18.9957 2.95904 19.4954 3.18724 19.8285 3.58659C19.8285 3.58659 19.6064 5.18397 19.884 5.92562C20.0505 6.32496 20.1616 6.55316 20.2726 6.66726V6.95251C19.9395 7.06661 19.5509 7.4089 19.5509 8.0935C19.5509 8.15055 19.5509 8.94924 20.5502 9.57678C20.5502 9.57678 20.8278 9.80498 20.8833 10.2043C21.0499 11.003 21.9381 12.5434 23.8812 12.7145H24.2144C26.1575 12.5434 27.0457 11.003 27.2123 10.2043C27.2678 9.80498 27.5454 9.57678 27.5454 9.57678C28.6002 8.89219 28.6002 8.0935 28.6002 8.0935C28.6002 7.4089 28.2116 7.06661 27.934 6.95251V6.55316C28.0451 6.43906 28.2116 6.15381 28.2116 5.86857C28.2116 5.41217 28.3226 4.04298 28.1006 3.81479C28.1006 3.81479 27.6009 3.18724 27.3233 3.18724C27.1568 3.01609 26.9902 2.7879 26.7682 2.61675C26.7126 2.5597 26.6571 2.5597 26.6016 2.50265C26.0464 1.9892 24.7695 0.848213 21.9937 0.962312ZM25.7133 4.32823C26.1575 4.32823 26.6016 4.49938 26.8792 4.78463C26.8792 4.78463 27.1013 4.95578 27.3233 5.29807C27.3233 5.29807 27.3233 5.29807 27.3233 5.35512V7.23776C27.3233 7.4089 27.4344 7.523 27.6009 7.523C27.712 7.523 27.9895 7.58005 27.9895 8.0935C27.9895 8.0935 27.9895 8.60694 27.2123 9.12039C27.2123 9.12039 26.7682 9.46268 26.6571 10.0902C26.6571 10.0902 26.213 11.9729 24.2144 12.144H23.9368C21.9381 11.9729 21.494 10.1473 21.494 10.0902C21.383 9.46268 20.9388 9.12039 20.8833 9.06334C20.1616 8.60694 20.1061 8.0935 20.1061 8.0935C20.1061 7.58005 20.4392 7.523 20.4947 7.523C20.6612 7.523 20.7723 7.35185 20.7723 7.23776V5.41217C20.7723 5.35512 20.7723 5.29807 20.7723 5.29807C21.1609 4.61348 21.494 4.32823 22.5488 4.49938C23.6592 4.67053 24.5475 4.72758 25.2692 4.44233C25.3802 4.38528 25.5468 4.32823 25.7133 4.32823ZM20.9943 11.8017C17.3302 12.9998 17.6078 14.2548 17.3857 14.9394C17.1636 15.624 17.1636 18.0772 17.1636 18.0772C18.8847 19.1611 22.6599 19.1611 24.0478 19.1611C25.4357 19.2181 29.2109 19.1611 30.8764 18.1342C30.8764 18.1342 30.8764 15.6811 30.6544 14.9965C30.4323 14.3689 30.7099 13.1139 27.0457 11.8588C26.3795 12.7145 25.2692 13.285 23.9923 13.285C22.7154 13.285 21.6605 12.6575 20.9943 11.8017Z"
    fill="#2D69AA" />
  <path fill-rule="evenodd" clip-rule="evenodd"
    d="M27.6753 33.2711C25.5022 35.4442 21.9666 35.432 19.7784 33.2439C17.5903 31.0557 17.5781 27.5201 19.7512 25.347C21.9244 23.1738 25.46 23.186 27.6481 25.3742C29.8363 27.5623 29.8485 31.0979 27.6753 33.2711Z"
    fill="#2D69AA" />
  <path fill-rule="evenodd" clip-rule="evenodd"
    d="M24.1199 32.7726L24.1098 29.8359L26.9478 29.8457C27.1452 29.8464 27.2928 29.6988 27.2921 29.5014C27.2914 29.304 27.1428 29.1554 26.9454 29.1547L24.1074 29.145L24.098 26.4057C24.0973 26.2083 23.9488 26.0597 23.7513 26.059C23.5539 26.0584 23.4064 26.2059 23.407 26.4033L23.4165 29.1426L20.5785 29.1328C20.3811 29.1321 20.2335 29.2797 20.2342 29.4771C20.2595 29.6499 20.4081 29.7985 20.5809 29.8238L23.4188 29.8336L23.4294 32.7702C23.4296 32.9676 23.5785 33.1165 23.7759 33.1167C23.9731 33.1176 24.1209 32.9698 24.1199 32.7726Z"
    fill="white" />
</svg>
