<svg width="45" height="48" fill="none" xmlns="http://www.w3.org/2000/svg">
  <path fill-rule="evenodd" clip-rule="evenodd"
    d="M40.4774 1.1532L40.6624 1.20723C44.5917 2.3575 44.6315 6.50884 44.1034 8.54303L43.8442 9.54186H39.4951V46.8487H0.456088L0.454987 10.8821C0.462532 8.03259 0.662315 4.67756 3.76899 2.5801C5.14974 1.64824 6.63259 1.16994 8.07873 1.15624L40.4774 1.1532ZM8.18542 3.81672H8.15139C7.21266 3.81294 6.22957 4.1379 5.27172 4.78438C3.2994 6.11574 3.13986 8.26786 3.13168 10.7835L3.13271 44.1851H36.8184V9.54186H12.476L12.3782 8.31548C12.2283 6.43274 11.267 4.89168 9.80631 4.19345C9.29278 3.94802 8.74713 3.82398 8.18542 3.81672ZM21.1723 14.6415C22.8077 14.6415 24.5544 15.0437 26.4116 15.8481L25.2282 18.5771C24.5739 18.2708 23.9075 17.9953 23.2291 17.751C22.5508 17.5071 21.8361 17.385 21.0855 17.385C20.3059 17.385 19.7384 17.495 19.3824 17.7153C19.0264 17.9356 18.8483 18.2754 18.8483 18.735C18.8483 19.2042 19.0865 19.6163 19.5625 19.9702C20.0394 20.3248 20.8259 20.7175 21.9225 21.1482C23.4914 21.7612 24.6458 22.4724 25.3869 23.2813C26.1279 24.0903 26.4984 25.0172 26.4984 26.0606C26.4984 27.7553 25.897 29.0003 24.694 29.7948C25.2905 30.178 25.7402 30.6209 26.0434 31.1236C26.3466 31.6266 26.4984 32.232 26.4984 32.9405C26.4984 34.3579 25.9233 35.4853 24.7735 36.3232C23.6234 37.1615 22.0812 37.58 20.1472 37.58C18.194 37.58 16.5146 37.2018 15.1102 36.4454V33.4721C15.8894 33.8648 16.7551 34.1973 17.7084 34.4701C18.6609 34.7433 19.4738 34.8796 20.1472 34.8796C22.0143 34.8796 22.9477 34.3195 22.9477 33.1992C22.9477 32.826 22.8586 32.5242 22.6804 32.2944C22.5026 32.0646 22.1971 31.8275 21.7639 31.5832C21.331 31.3393 20.7295 31.0543 19.9598 30.7286C18.199 30.0201 16.9865 29.2899 16.3223 28.538C15.6585 27.7865 15.3266 26.8505 15.3266 25.7303C15.3266 24.9738 15.4998 24.2817 15.8458 23.6546C16.1927 23.0275 16.6588 22.5222 17.2465 22.1394C15.9663 21.3347 15.3266 20.2194 15.3266 18.7925C15.3266 17.5383 15.8627 16.5327 16.9356 15.7762C18.0086 15.0201 19.4207 14.6415 21.1723 14.6415ZM19.8443 23.4031C19.4883 23.5374 19.1824 23.7935 18.9278 24.1717C18.6727 24.5499 18.5454 24.9643 18.5454 25.4141C18.5454 26.056 18.8574 26.6256 19.4834 27.1233C20.1086 27.6214 20.9796 28.0909 22.0958 28.5312C22.8468 27.9852 23.2215 27.2862 23.2215 26.4338C23.2215 25.7828 22.9787 25.2322 22.4931 24.782C22.0071 24.3323 21.1238 23.8726 19.8443 23.4031ZM40.0732 3.81675H13.4511C14.121 4.68811 14.6051 5.72804 14.8625 6.87831H41.6608C41.7258 5.85018 41.5446 4.34832 40.0732 3.81675Z"
    fill="#333333" stroke="#333333" stroke-width="0.5" />
</svg>
