<svg width="45" height="48" fill="none" xmlns="http://www.w3.org/2000/svg">
  <path fill-rule="evenodd" clip-rule="evenodd"
    d="M40.6554 0.390137L40.8434 0.445986C44.8349 1.63495 44.8753 5.92591 44.3388 8.02852L44.0755 9.06094H39.6575V47.6226H0.000935328L-0.000183105 10.4463C0.00748158 7.50091 0.210426 4.03303 3.36625 1.86503C4.76885 0.901827 6.27516 0.407442 7.74418 0.393283L40.6554 0.390137ZM7.85255 3.14324H7.81798C6.8644 3.13934 5.86576 3.47522 4.89276 4.14345C2.70709 5.64469 2.71292 8.15556 2.71913 11.0625L2.71991 44.8694H36.9386V9.06094H12.2111L12.1116 7.79332C11.9594 5.84725 10.9829 4.25436 9.49909 3.53265C8.97743 3.27896 8.42315 3.15075 7.85255 3.14324ZM21.0449 14.3321C22.7062 14.3321 24.4806 14.7479 26.3671 15.5793L25.165 18.4001C24.5004 18.0835 23.8233 17.7987 23.1343 17.5462C22.4452 17.2941 21.7192 17.1679 20.9568 17.1679C20.1648 17.1679 19.5883 17.2815 19.2267 17.5093C18.8651 17.737 18.6841 18.0882 18.6841 18.5633C18.6841 19.0483 18.9261 19.4742 19.4097 19.84C19.894 20.2065 20.693 20.6124 21.807 21.0577C23.4007 21.6913 24.5734 22.4264 25.3262 23.2625C26.0789 24.0987 26.4553 25.0568 26.4553 26.1352C26.4553 27.887 25.8443 29.1739 24.6223 29.9951C25.2283 30.3912 25.6851 30.849 25.9931 31.3685C26.3011 31.8885 26.4553 32.5142 26.4553 33.2466C26.4553 34.7116 25.8711 35.877 24.7031 36.7431C23.5347 37.6095 21.9682 38.0422 20.0036 38.0422C18.0195 38.0422 16.3135 37.6512 14.8868 36.8693V33.796C15.6785 34.2019 16.5578 34.5457 17.5262 34.8277C18.4938 35.1101 19.3195 35.2509 20.0036 35.2509C21.9002 35.2509 22.8484 34.6719 22.8484 33.514C22.8484 33.1282 22.7579 32.8163 22.5769 32.5788C22.3963 32.3412 22.0859 32.0962 21.6458 31.8437C21.2061 31.5916 20.5951 31.297 19.8132 30.9603C18.0245 30.228 16.7928 29.4732 16.1182 28.696C15.4438 27.9193 15.1067 26.9517 15.1067 25.7938C15.1067 25.0119 15.2827 24.2965 15.6342 23.6484C15.9865 23.0002 16.46 22.4779 17.057 22.0822C15.7565 21.2504 15.1067 20.0976 15.1067 18.6227C15.1067 17.3264 15.6513 16.2869 16.7412 15.505C17.8311 14.7235 19.2656 14.3321 21.0449 14.3321ZM19.6959 23.3884C19.3343 23.5272 19.0236 23.7919 18.7649 24.1829C18.5058 24.5738 18.3765 25.0021 18.3765 25.467C18.3765 26.1305 18.6934 26.7193 19.3293 27.2337C19.9643 27.7486 20.8492 28.2339 21.983 28.689C22.7458 28.1246 23.1265 27.4021 23.1265 26.5211C23.1265 25.8481 22.8799 25.279 22.3866 24.8137C21.8929 24.3488 20.9956 23.8737 19.6959 23.3884ZM40.2449 3.14327H13.2015C13.8821 4.04394 14.3738 5.11885 14.6352 6.30781H41.8576C41.9236 5.2451 41.7395 3.69272 40.2449 3.14327Z"
    fill="#2D69AA" />
</svg>
