<svg width="48" height="48" fill="none" xmlns="http://www.w3.org/2000/svg">
  <path fill-rule="evenodd" clip-rule="evenodd"
    d="M23.8387 40.3004C32.5208 40.3004 39.5592 33.0179 39.5592 24.0345C39.5592 15.0511 32.5208 7.76862 23.8387 7.76862C15.1565 7.76862 8.11815 15.0511 8.11815 24.0345C8.11815 33.0179 15.1565 40.3004 23.8387 40.3004ZM23.8387 43.7686C34.3721 43.7686 42.9111 34.9333 42.9111 24.0345C42.9111 13.1357 34.3721 4.30042 23.8387 4.30042C13.3052 4.30042 4.76624 13.1357 4.76624 24.0345C4.76624 34.9333 13.3052 43.7686 23.8387 43.7686Z"
    fill="#333333" />
  <path fill-rule="evenodd" clip-rule="evenodd" d="M22.3273 12.9017V0H25.6792V12.9017H22.3273Z"
    fill="#333333" />
  <path fill-rule="evenodd" clip-rule="evenodd" d="M48 25.7341H35.5309V22.2659H48V25.7341Z"
    fill="#333333" />
  <path fill-rule="evenodd" clip-rule="evenodd" d="M12.4691 25.7341H0L0 22.2659H12.4691V25.7341Z"
    fill="#333333" />
  <path fill-rule="evenodd" clip-rule="evenodd" d="M22.3273 48V35.0983H25.6792V48H22.3273Z"
    fill="#333333" />
  <path
    d="M28.3197 24.0874C28.3197 26.556 26.3856 28.5572 23.9998 28.5572C21.6139 28.5572 19.6798 26.556 19.6798 24.0874C19.6798 21.6188 21.6139 19.6176 23.9998 19.6176C26.3856 19.6176 28.3197 21.6188 28.3197 24.0874Z"
    fill="#333333" />
</svg>
