<svg width="37" height="47" fill="none" xmlns="http://www.w3.org/2000/svg">
  <path fill-rule="evenodd" clip-rule="evenodd"
    d="M27.0173 18.3152H10.5065V11.2155C10.5065 7.40846 14.2098 4.30989 18.7623 4.30989C23.3149 4.30989 27.0173 7.40846 27.0173 11.2155V18.3152ZM20.4674 34.639V38.1492C20.4674 39.0339 19.7368 39.7583 18.8458 39.7583C17.9539 39.7583 17.2252 39.0339 17.2252 38.1492V34.6635C15.6331 34.036 14.504 32.5013 14.504 30.6972C14.504 28.3372 16.4301 26.4238 18.8069 26.4238C21.1838 26.4238 23.1109 28.3372 23.1109 30.6972C23.1109 32.4721 22.0188 33.9936 20.4674 34.639ZM31.325 18.3152V11.2155C31.325 5.04944 25.6898 0.0336914 18.7623 0.0336914C11.8349 0.0336914 6.19877 5.04944 6.19877 11.2155V18.3152H0.0445954V27.0484H0V46.5584H0.0445954V46.5791H36.9658V18.3152H31.325Z"
    fill="#333333" />
</svg>
