<svg width="47" height="39" fill="none" xmlns="http://www.w3.org/2000/svg">
  <path fill-rule="evenodd" clip-rule="evenodd"
    d="M7.86759 4.62976C11.0061 3.88003 14.0975 4.43598 17.5631 6.38018L17.9647 6.61068C20.867 8.31402 23.4272 10.0509 26.8008 12.6054C30.9382 15.8174 37.1815 20.6645 42.7255 26.1012C44.5526 27.8936 44.7193 28.8477 43.6156 31.2048C43.3576 31.7568 43.0723 32.2566 42.768 32.6912L42.7349 32.7384C40.5559 35.8047 39.0149 36.2151 35.8631 34.5682C27.0964 29.9851 17.8596 24.8303 9.70012 18.1996C6.56179 15.6485 4.8535 12.7934 4.47766 9.47018C4.14115 6.49825 4.96558 5.32263 7.86759 4.62976ZM6.00291 6.92829C5.656 7.42373 5.6269 8.14235 5.75855 9.30938C6.09959 12.3232 7.61217 14.8273 10.5185 17.1893C18.5903 23.7491 27.761 28.8658 36.4693 33.4175C39.0212 34.7517 39.899 34.5118 41.6883 31.9942C41.963 31.6126 42.2158 31.1655 42.4503 30.665C43.3175 28.8121 43.2522 28.4388 41.8191 27.0328C36.328 21.6471 30.1194 16.8274 26.011 13.6377C22.8934 11.2773 20.4799 9.62429 17.8363 8.04532L17.3046 7.73062C13.9767 5.77811 11.0684 5.19301 8.15211 5.88923C7.01397 6.16142 6.34983 6.43284 6.00291 6.92829ZM33.8748 27.77C34.1248 27.4129 34.6153 27.3238 34.9681 27.5708C35.3208 27.8177 35.4048 28.3091 35.1547 28.6662C34.9039 29.0244 34.4135 29.1135 34.0607 28.8665C33.708 28.6196 33.624 28.1282 33.8748 27.77ZM35.5323 25.4028C35.7828 25.045 36.2734 24.9558 36.6261 25.2028C36.9789 25.4497 37.0628 25.9413 36.8123 26.299C36.5621 26.6563 36.0716 26.7455 35.7188 26.4985C35.3661 26.2516 35.2822 25.76 35.5323 25.4028ZM31.7367 26.2729C31.9868 25.9159 32.4773 25.8267 32.83 26.0737C33.1827 26.3207 33.2667 26.8121 33.0167 27.1692C32.7659 27.5273 32.2754 27.6164 31.9227 27.3695C31.57 27.1225 31.486 26.6311 31.7367 26.2729ZM33.3943 23.9057C33.6448 23.548 34.1354 23.4587 34.4881 23.7057C34.8408 23.9527 34.9247 24.4442 34.6742 24.8019C34.4241 25.1592 33.9335 25.2484 33.5808 25.0015C33.2281 24.7545 33.1442 24.263 33.3943 23.9057ZM15.3599 14.8058C15.61 14.4487 16.1004 14.3595 16.4532 14.6065C16.8059 14.8535 16.8899 15.3449 16.6398 15.702C16.3891 16.0601 15.8986 16.1493 15.5459 15.9023C15.1931 15.6553 15.1091 15.1639 15.3599 14.8058ZM17.0175 12.4386C17.268 12.0808 17.7585 11.9915 18.1113 12.2385C18.464 12.4855 18.5479 12.977 18.2974 13.3348C18.0472 13.692 17.5567 13.7813 17.204 13.5343C16.8512 13.2873 16.7673 12.7958 17.0175 12.4386ZM13.2219 13.3087C13.4719 12.9516 13.9624 12.8624 14.3151 13.1094C14.6679 13.3564 14.7518 13.8478 14.5018 14.2049C14.251 14.563 13.7605 14.6522 13.4078 14.4052C13.0551 14.1582 12.9711 13.6668 13.2219 13.3087ZM14.8794 10.9415C15.1299 10.5837 15.6205 10.4944 15.9732 10.7414C16.3259 10.9884 16.4098 11.4799 16.1593 11.8377C15.9092 12.1949 15.4186 12.2842 15.0659 12.0372C14.7132 11.7902 14.6293 11.2987 14.8794 10.9415Z"
    fill="#404644" />
</svg>
