<svg width="40" height="48" fill="none" xmlns="http://www.w3.org/2000/svg">
  <path fill-rule="evenodd" clip-rule="evenodd"
    d="M31.818 24.3225L30.9 25.062L29.13 23.919L26.706 21.2265L27.6225 24.4575L25.1985 21.6975L24.8685 24.9285L22.5765 27.0135L21.5265 24.4575L22.0515 22.437L21.5265 20.889L18.708 24.6585L19.5615 26.8125L18.1185 25.2645L18.2505 24.12L17.2005 24.861L17.988 22.437L15.039 23.784L16.611 22.572L17.7915 21.3615L19.692 21.024L18.84 20.889L22.707 17.928C22.707 17.928 24.117 15.033 24.1485 15.033C24.345 15.168 26.0835 16.683 26.0835 16.683L26.3775 18.198L26.4435 17.322L27.885 18.669L27.36 19.005L29.655 22.572L28.8675 20.553L31.5225 23.313L33.1275 23.4135L34.5045 25.0635L31.818 24.3225ZM33.2895 22.2225L31.47 21.885L28.221 18.915L28.872 18.3765L23.8035 14.2605L22.0485 17.2965L18.021 20.6715L17.5005 20.2665L16.1355 22.02L15.4875 22.29L13.992 23.91L13.407 23.706L8.931 29.436C9.924 29.8605 12.414 30.795 15.234 30.873C15.468 30.8805 15.7035 30.882 15.942 30.8745C17.712 30.8295 19.5675 30.4125 21.234 29.301C22.614 28.446 25.71 25.281 28.425 26.5065C28.395 26.4735 25.575 26.9265 26.532 29.382C26.9865 30.201 28.7115 31.4805 31.9245 29.6205C33.309 28.758 37.359 26.9055 39.849 29.418L37.254 26.3385L34.914 24.4485L33.2895 22.2225Z"
    fill="#CCCCCC" />
  <path fill-rule="evenodd" clip-rule="evenodd"
    d="M23.703 48C20.5035 48 17.3985 47.3655 14.475 46.113C11.6529 44.9043 9.09362 43.1566 6.94055 40.968C4.77273 38.7762 3.04865 36.1862 1.86305 33.3405C0.627111 30.3819 -0.00624612 27.2064 4.64317e-05 24C4.64317e-05 20.76 0.627046 17.619 1.86305 14.6595C3.04849 11.8133 4.77257 9.22284 6.94055 7.03054C9.09375 4.84248 11.653 3.09537 14.475 1.88704C17.3905 0.636489 20.5307 -0.00562463 23.703 3.71173e-05V2.77504C18.1065 2.77504 12.843 4.98304 8.88605 8.99104C4.92755 13.0005 2.74805 18.33 2.74805 24C2.74805 29.67 4.92755 34.9995 8.88605 39.009C12.8445 43.017 18.1065 45.225 23.703 45.225V48Z"
    fill="#0099CC" />
</svg>
