<svg width="48" height="40" fill="none" xmlns="http://www.w3.org/2000/svg">
  <path fill-rule="evenodd" clip-rule="evenodd"
    d="M14.4485 33.1226C12.7184 33.1226 11.3164 34.51 11.3164 36.222C11.3164 37.9341 12.7184 39.3218 14.4485 39.3218C16.1786 39.3218 17.5806 37.9341 17.5806 36.222C17.5806 34.51 16.1786 33.1226 14.4485 33.1226Z"
    fill="#2D69AA" />
  <path fill-rule="evenodd" clip-rule="evenodd"
    d="M30.0545 33.1226C28.3244 33.1226 26.9221 34.51 26.9221 36.222C26.9221 37.9341 28.3244 39.3218 30.0545 39.3218C31.7843 39.3218 33.1866 37.9341 33.1866 36.222C33.1866 34.51 31.7843 33.1226 30.0545 33.1226Z"
    fill="#2D69AA" />
  <path fill-rule="evenodd" clip-rule="evenodd"
    d="M34.9648 28.3937H10.5133L8.1789 16.3106H37.8153L34.9648 28.3937ZM40.2537 5.97392L38.3617 13.9938H7.73141L6.01235 5.09521H0V7.41196H4.22206L8.72271 30.7104H36.6781L42.3821 6.53391L40.2537 5.97392Z"
    fill="#2D69AA" />
  <path fill-rule="evenodd" clip-rule="evenodd"
    d="M47.2505 10.3498C47.2505 15.8831 42.7174 20.3684 37.1264 20.3684C31.5348 20.3684 27.002 15.8831 27.002 10.3498C27.002 4.81639 31.5348 0.331177 37.1264 0.331177C42.7174 0.331177 47.2505 4.81639 47.2505 10.3498Z"
    fill="#2D69AA" />
  <path fill-rule="evenodd" clip-rule="evenodd"
    d="M35.4063 12.7444L33.1963 10.5153L31.8184 11.8806L35.4063 15.4755L43.3852 7.50557L42.0073 6.14001L35.4063 12.7444Z"
    fill="white" />
</svg>
