<svg width="48" height="41" fill="none" xmlns="http://www.w3.org/2000/svg">
  <path fill-rule="evenodd" clip-rule="evenodd"
    d="M39.7745 11.4372V31.6745H47.0396V29.6617H41.8274V13.4499H47.4932V11.4372H39.7745ZM36.6915 28.4746L38.011 30.0162L37.9003 30.1072L27.5821 38.5749C27.1916 38.9782 25.6163 40.3125 22.2267 40.1074L11.1613 40.1199C10.4393 40.121 9.70185 40.1425 8.98847 40.1634L8.94603 40.1645C8.21201 40.1854 7.45333 40.2074 6.69637 40.2074C6.06615 40.2074 5.50531 40.1922 4.98174 40.1617C3.28031 40.0611 1.80194 39.4087 0.925704 38.371C0.199711 37.5118 -0.108807 36.417 0.0345563 35.2053C0.0299687 34.8579 0.094769 33.5858 1.0771 32.5402C1.86674 31.6996 3.01078 31.2516 4.47711 31.2081L15.3395 31.0483L15.3745 33.061L4.5247 33.2203C3.64961 33.2463 3.00103 33.4717 2.59904 33.8908C2.07204 34.441 2.08637 35.2064 2.08637 35.2138L2.09096 35.2884L2.07892 35.3934C1.98889 36.0747 2.1334 36.6447 2.50729 37.0881C3.02283 37.6976 3.9696 38.0857 5.10504 38.1529C6.35975 38.2269 7.66494 38.1885 8.92654 38.1512C9.6554 38.1303 10.4083 38.1083 11.171 38.1077L22.2616 38.0953L22.3241 38.097C25.0217 38.2699 26.0602 37.2242 26.1044 37.1796L26.164 37.1141L36.6915 28.4746ZM37.4902 13.1163L37.9822 15.0703L37.8423 15.1042C35.9831 15.5533 34.3683 15.8465 33.1893 16.06C32.6399 16.16 32.2058 16.2385 31.9191 16.3029C31.1062 16.4853 30.868 16.5398 30.6725 16.6122L30.5668 16.6545L30.5112 16.6786C29.0615 17.3163 28.2145 18.158 27.3188 19.0488C27.1846 19.1822 27.0527 19.3138 26.9191 19.4437C26.4609 19.8911 25.9999 20.3362 25.5394 20.7819L25.443 20.8746L19.1758 26.946C18.5421 27.5567 17.944 28.1334 17.8161 28.8181C17.6504 29.71 18.034 30.2715 18.3855 30.5856C18.9986 31.1353 19.9643 31.3364 20.8468 31.0957C21.9473 30.7969 22.9124 29.8089 23.846 28.8531L23.8953 28.8023C24.0369 28.6577 24.1763 28.5153 24.3145 28.378C24.8759 27.8182 25.4299 27.2511 25.9838 26.6839L26.0113 26.6557C26.8067 25.8405 27.6285 24.9983 28.4651 24.1877L28.5672 24.0894L30.0112 25.5197L29.9085 25.6191C29.0925 26.4099 28.2811 27.2409 27.4966 28.0447L27.4679 28.0752C26.9071 28.6492 26.3462 29.2231 25.7779 29.7891C25.6306 29.936 25.4815 30.0891 25.3284 30.245C24.2554 31.3437 23.0386 32.5893 21.395 33.0356C20.969 33.1508 20.5291 33.2096 20.0876 33.2096C18.9171 33.2096 17.8207 32.8057 17.0007 32.0719C15.9776 31.1567 15.5395 29.8388 15.797 28.456C16.0413 27.1471 16.9399 26.2795 17.733 25.514L24.002 19.442C24.4917 18.9675 24.9826 18.4936 25.4711 18.0168C25.6002 17.8914 25.7275 17.7643 25.8559 17.6372C26.8004 16.6972 27.8705 15.6346 29.6711 14.8421C30.1333 14.6387 30.3616 14.5879 31.4603 14.3416C31.7522 14.2755 32.1886 14.197 32.7414 14.0964C33.9107 13.8846 35.5123 13.5942 37.3514 13.1502L37.4902 13.1163ZM10.6521 12.0498C14.0756 12.0498 16.8603 14.7783 16.8603 18.1315C16.8603 21.4847 14.0756 24.2125 10.6521 24.2125C7.22911 24.2125 4.44442 21.4847 4.44442 18.1315C4.44442 14.7783 7.22911 12.0498 10.6521 12.0498ZM10.6521 14.0625C8.36111 14.0625 6.49738 15.8877 6.49738 18.1315C6.49738 20.3746 8.36111 22.1998 10.6521 22.1998C12.943 22.1998 14.8067 20.3746 14.8067 18.1315C14.8067 15.8877 12.943 14.0625 10.6521 14.0625ZM11.781 15.405V20.8579H10.0773L10.0882 17.5578L9.47573 18.0424L8.55821 16.9132L10.4816 15.405H11.781ZM20.8387 0.561401C24.2622 0.561401 27.0469 3.28926 27.0469 6.64246C27.0469 9.99566 24.2622 12.7235 20.8387 12.7235C17.4152 12.7235 14.6305 9.99566 14.6305 6.64246C14.6305 3.28926 17.4152 0.561401 20.8387 0.561401ZM20.8387 2.57355C18.5478 2.57355 16.684 4.39871 16.684 6.64246C16.684 8.88621 18.5478 10.7114 20.8387 10.7114C23.1297 10.7114 24.994 8.88621 24.994 6.64246C24.994 4.39871 23.1297 2.57355 20.8387 2.57355ZM22.0147 3.91596V9.36886H20.3115L20.3224 6.06876L19.71 6.55343L18.7925 5.42422L20.7158 3.91596H22.0147Z"
    fill="#2D69AA" />
</svg>
