<svg width="45" height="47" fill="none" xmlns="http://www.w3.org/2000/svg">
  <path fill-rule="evenodd" clip-rule="evenodd"
    d="M20.873 1.67403C27.7118 -0.995938 35.7883 0.8626 40.7089 6.83498C45.159 12.2361 45.8202 19.5345 43.0129 25.4815L40.8847 24.1167C43.135 19.0766 42.5184 12.9699 38.7788 8.431C34.5641 3.3148 27.6463 1.72326 21.7874 4.0069L20.873 1.67403ZM23.3287 7.93474C27.5374 6.29845 32.5028 7.44251 35.529 11.1163C38.0742 14.2054 38.6044 18.3044 37.2804 21.8067L35.1135 20.4165C35.9028 17.845 35.4307 14.9378 33.5974 12.7123C31.2771 9.8962 27.4719 9.01615 24.2431 10.2676L23.3287 7.93474ZM30.2489 45.9985C27.0692 46.2178 24.18 45.2393 21.4352 43.7701C16.3046 41.0255 12.0407 37.21 8.21917 32.8709C5.98225 30.3307 3.97616 27.6205 2.3707 24.6313C1.28649 22.6147 0.318448 20.5279 0.0920752 18.2234C-0.0523867 16.7377 -0.00175057 15.2223 0.0756929 13.7262C0.236537 10.6416 1.8703 8.25648 3.89127 6.09515C4.86825 5.04953 5.90629 4.05911 6.93837 3.06719C7.71132 2.32288 8.69724 2.3542 9.81421 3.09553C10.8552 3.78614 11.7011 4.67663 12.4696 5.65065C13.8547 7.40776 14.9731 9.31701 15.8518 11.3814C16.589 13.1116 16.2152 14.5704 14.9195 15.8308C14.0468 16.6811 13.1279 17.485 12.2164 18.2935C10.6363 19.6971 10.4427 20.6413 11.2588 22.7772C11.6639 23.8348 12.2567 24.8521 12.9209 25.7754C15.2338 28.9972 18.0039 31.7582 21.4277 33.8062C22.3779 34.3745 23.3921 34.7876 24.5166 34.9204C25.6082 35.0487 26.5092 34.6847 27.2583 33.9479C28.2383 32.9843 29.1498 31.9521 30.1252 30.984C30.922 30.1935 31.8662 29.6028 33.0324 29.7311C33.7368 29.8087 34.4472 30.0324 35.101 30.3173C37.8428 31.5121 40.3344 33.0887 42.2988 35.3887C42.6875 35.8437 42.9809 36.3986 43.2296 36.9475C43.5468 37.647 43.4604 38.357 42.9258 38.9298C41.3858 40.578 39.8325 42.2084 38.0349 43.5896C35.9678 45.1767 33.6459 45.9627 31.0561 45.9985C30.7865 46.0015 30.5184 45.9985 30.2489 45.9985Z"
    fill="#424242" />
</svg>
