<svg width="48" height="39" fill="none" xmlns="http://www.w3.org/2000/svg">
  <path fill-rule="evenodd" clip-rule="evenodd"
    d="M44.7398 0V5.68727L47.3361 4.95281L47.385 31.6935L25.0685 38.098L24.5396 38.2588L23.9996 38.4L23.5105 38.267L23.1657 38.1718L0.572968 31.9799L0.623968 5.24406L2.96411 5.88431V0.0119853L23.9951 11.5234L44.7398 0ZM2.61675 7.89904L2.57374 30.4178L22.9269 35.9871L22.9701 13.4679L2.61675 7.89904ZM45.3434 7.63081L24.9707 13.3931L25.012 35.9073L45.3847 30.145L45.3434 7.63081ZM6.56115 25.7004L19.0403 29.0932V30.7066L6.56115 27.3141V25.7004ZM6.55473 19.6711L19.0339 23.0639V24.6773L6.55473 21.2845V19.6711ZM41.2927 13.6582V15.2717L28.8134 18.7699V17.1565L41.2927 13.6582ZM6.55473 13.6742L19.0339 17.067V18.6805L6.55473 15.2877V13.6742ZM4.96183 3.41773V6.43084L15.9697 9.44299L4.96183 3.41773ZM42.7419 3.42972L32.3902 9.18027L42.7419 6.25226V3.42972Z"
    fill="#333333" />
</svg>
