<svg width="48" height="39" fill="none" xmlns="http://www.w3.org/2000/svg">
  <path fill-rule="evenodd" clip-rule="evenodd"
    d="M44.367 -0.00012207V5.63049L46.9751 4.90335L47.0242 31.3776L24.6065 37.7183L24.0753 37.8775L23.5327 38.0173L23.0414 37.8856L22.6951 37.7914L-6.10352e-05 31.6612L0.0511706 5.19169L2.40192 5.82557V0.0117438L23.5283 11.4085L44.367 -0.00012207ZM2.05298 7.82023L2.00978 30.1146L22.4552 35.6285L22.4987 13.3336L2.05298 7.82023ZM44.9733 7.55467L24.5083 13.2596L24.5498 35.5494L45.0149 29.8445L44.9733 7.55467ZM6.01527 25.4442L18.551 28.8032V30.4006L6.01527 27.0418V25.4442ZM6.00882 19.475L18.5445 22.834V24.4314L6.00882 21.0724V19.475ZM40.9043 13.522V15.1194L28.3684 18.5828V16.9854L40.9043 13.522ZM6.00882 13.5378L18.5445 16.8968V18.4942L6.00882 15.1352V13.5378ZM4.40869 3.38356V6.36665L15.4665 9.34879L4.40869 3.38356ZM42.36 3.39543L31.9614 9.08869L42.36 6.18985V3.39543Z"
    fill="#2D69AA" />
</svg>
