<svg width="47" height="38" fill="none" xmlns="http://www.w3.org/2000/svg">
  <path fill-rule="evenodd" clip-rule="evenodd"
    d="M20.0732 -3.43323e-05H0V15.3802C0 21.0426 1.18438 25.5112 3.55318 28.7862C5.92198 32.0612 9.98272 34.9536 15.7355 37.4634L20.0732 29.2912C16.5353 27.6384 14.0897 25.9933 12.7361 24.3558C11.3825 22.7183 10.6288 20.7824 10.475 18.548H20.0732V-3.43323e-05ZM46.998 -3.43323e-05H26.9248V15.3802C26.9248 21.0426 28.1092 25.5112 30.478 28.7862C32.8468 32.0612 36.9075 34.9536 42.6603 37.4634L46.998 29.2912C43.4601 27.6384 41.0145 25.9933 39.6609 24.3558C38.3073 22.7183 37.5536 20.7824 37.3997 18.548H46.998V-3.43323e-05Z"
    fill="white" />
</svg>
