<svg width="48" height="48" fill="none" xmlns="http://www.w3.org/2000/svg">
  <g clip-path="url(#clip0_644_857)">
    <path fill-rule="evenodd" clip-rule="evenodd"
      d="M0 16.7218H11.475L17.829 27.3463L13.3905 24.5608L9.3735 31.7413H21.9705L21.9855 43.7983H12.207C11.637 43.8298 11.0025 43.7173 10.308 43.4608C8.928 42.9658 7.92 42.0328 7.287 40.6588C7.13128 40.3778 7.00559 40.0812 6.912 39.7738L0.78 27.8458C0.61976 27.494 0.514532 27.1196 0.468 26.7358C0.3435 25.8433 0.495 25.0333 0.9195 24.3043L3.894 19.1203L0 16.7218ZM8.0805 11.7958L13.095 2.45981C13.3545 2.07281 13.656 1.71881 13.998 1.39631C15.0975 0.376308 16.386 -0.0841918 17.859 0.0118082L18.762 0.173808L31.827 0.317808L32.9325 0.575808C33.7515 0.898308 34.365 1.42331 34.7685 2.15381L37.728 7.35281L41.6355 5.00231L36.093 15.3703L24.0105 15.9808L28.5255 13.3258L24.4455 6.16181L18.2955 17.6068L8.0805 11.7958ZM47.895 25.4308C48.1755 26.9323 47.895 28.3108 47.055 29.5678C46.92 29.8258 46.737 30.0883 46.509 30.3568C46.4902 30.3757 46.4745 30.3975 46.4625 30.4213L39.549 41.7538C39.372 42.0328 39.114 42.3118 38.7705 42.5908C38.076 43.1488 37.317 43.4233 36.4965 43.4128L30.6735 43.3318L30.5955 47.9998L24.8805 37.7293L30.627 26.7343L30.5025 32.0953L38.553 32.1598L32.262 20.8423L42.3525 14.8228L47.475 24.0778C47.6715 24.5188 47.8125 24.9688 47.895 25.4308Z"
      fill="#333333" />
  </g>
  <defs>
    <clipPath id="clip0_644_857">
      <rect width="48" height="48" fill="white" />
    </clipPath>
  </defs>
</svg>
