<svg width="48" height="41" fill="none" xmlns="http://www.w3.org/2000/svg">
  <path fill-rule="evenodd" clip-rule="evenodd"
    d="M32.1528 3.44184C31.6903 3.90742 31.2279 4.37251 30.738 4.86543C28.9578 3.13243 26.8006 2.19492 24.2916 2.18857C21.7762 2.18223 19.6123 3.10461 17.8215 4.8381C17.36 4.35787 16.8991 3.8796 16.4357 3.39743C20.2533 -0.802082 27.8345 -1.13834 32.1528 3.44184Z"
    fill="#333333" />
  <path fill-rule="evenodd" clip-rule="evenodd"
    d="M20.6751 7.77591C20.1967 7.29275 19.7353 6.82717 19.2733 6.36061C21.6554 3.7677 26.3622 3.38362 29.3641 6.4426C29.1121 6.6588 28.85 6.86573 28.6091 7.09608C28.3673 7.32692 28.1467 7.58118 27.9189 7.82324C25.5981 5.66859 22.5252 5.99215 20.6751 7.77591Z"
    fill="#333333" />
  <path fill-rule="evenodd" clip-rule="evenodd"
    d="M26.3684 9.28824C25.6608 10.0017 24.9546 10.7148 24.2673 11.4082C23.5813 10.7162 22.8752 10.0042 22.1666 9.28873C23.1001 8.10281 25.363 8.09744 26.3684 9.28824Z"
    fill="#333333" />
  <path fill-rule="evenodd" clip-rule="evenodd"
    d="M16.3982 14.2236V21.7832H13.6434V17.2782H7.73475V21.7832H4.73238V14.2236H3.65838L10.6889 7.46679L17.7193 14.2236H16.3982ZM10.6889 5.78455L0.640076 15.4432H3.5266V23.0023H8.94052V18.4973H12.4372V23.0023H17.6049V15.4432H20.7381L10.6889 5.78455Z"
    fill="#333333" />
  <path fill-rule="evenodd" clip-rule="evenodd"
    d="M27.0179 15.5941H29.9044V23.1532H35.3188V18.6486H38.8155V23.1532H43.9832V15.5941H47.1164L37.0676 5.93591L27.0179 15.5941ZM37.0676 7.61767L44.0976 14.375H42.7765V21.9346H40.0217V17.4291H34.113V21.9346H31.1111V14.375H30.0367L37.0676 7.61767Z"
    fill="#333333" />
  <path fill-rule="evenodd" clip-rule="evenodd"
    d="M12.3621 32.0098H15.6227V40.5474H21.737V35.4597H25.6869V40.5474H31.5227V32.0098H35.0618L23.7122 21.1013L12.3621 32.0098ZM23.7122 23.0012L31.6525 30.6326H30.1596V39.1712H27.0486V34.0825H20.3753V39.1712H16.9848V30.6326H15.7718L23.7122 23.0012Z"
    fill="#333333" />
</svg>
