<svg width="43" height="46" fill="none" xmlns="http://www.w3.org/2000/svg">
  <path fill-rule="evenodd" clip-rule="evenodd"
    d="M20.1431 0.412109C32.4402 0.412109 42.445 10.5452 42.445 23.0008C42.445 35.4555 32.4402 45.5886 20.1431 45.5886C13.1025 45.5886 6.62135 42.3268 2.36234 36.6379L4.40431 35.0697C8.17482 40.1055 13.9113 42.9937 20.1431 42.9937C31.0276 42.9937 39.883 34.0248 39.883 23.0008C39.883 11.9759 31.0276 3.00702 20.1431 3.00702C15.7748 3.00702 11.5311 4.49822 8.08856 7.19001L12.9625 11.9465L1.15732 12.7838L1.79015 1.04267L6.22509 5.37098C10.1647 2.17838 15.0813 0.412109 20.1431 0.412109ZM31.4381 15.0016V33.5474H10.3352V15.0016H31.4381ZM12.4703 21.5538V31.385H29.3031V21.7674L12.4703 21.5538ZM29.3031 17.1641H12.4703V19.8238L29.3031 20.0375V17.1641Z"
    fill="#333333" stroke="#333333" stroke-width="0.5" />
</svg>
