<svg width="45" height="47" fill="none" xmlns="http://www.w3.org/2000/svg">
  <path fill-rule="evenodd" clip-rule="evenodd"
    d="M20.266 0C33.3918 0 44.0709 10.4555 44.0709 23.3073C44.0709 36.1582 33.3918 46.6136 20.266 46.6136C12.751 46.6136 5.833 43.2481 1.28697 37.3782L3.46655 35.7601C7.49116 40.9562 13.6142 43.9362 20.266 43.9362C31.884 43.9362 41.3362 34.682 41.3362 23.3073C41.3362 11.9316 31.884 2.67746 20.266 2.67746C15.6033 2.67746 11.0737 4.2161 7.39909 6.99352L12.6015 11.9013L0.000732422 12.7652L0.676211 0.650622L5.41003 5.11662C9.61513 1.82246 14.8631 0 20.266 0ZM32.3222 15.0536V34.1894H9.79717V15.0536H32.3222ZM12.0761 21.8142V31.9582H30.0433V22.0347L12.0761 21.8142ZM30.0433 17.2849H12.0761V20.0293L30.0433 20.2497V17.2849Z"
    fill="#2D69AA" />
</svg>
