<svg width="44" height="48" fill="none" xmlns="http://www.w3.org/2000/svg">
  <path fill-rule="evenodd" clip-rule="evenodd"
    d="M20.1737 0.000610352C33.2396 0.000610352 43.87 10.767 43.87 24.0011C43.87 37.2342 33.2396 48.0006 20.1737 48.0006C12.6939 48.0006 5.80747 44.534 1.28127 38.4905L3.45 36.8243C7.45716 42.1758 13.5523 45.2435 20.1737 45.2435C31.7387 45.2435 41.1477 35.7132 41.1477 24.0011C41.1477 12.2871 31.7387 2.7577 20.1737 2.7577C15.5323 2.7577 11.0224 4.34119 7.36551 7.20213L12.5441 12.2559L0 13.1455L0.673304 0.670583L5.38461 5.26849C9.57053 1.87635 14.7963 0.000610352 20.1737 0.000610352ZM11.2928 24.3746C11.6763 24.8454 12.2548 25.1266 12.8722 25.1424H13.0696V32.1296H28.7611V25.081C28.9238 25.1209 29.0908 25.1415 29.2586 25.1424H29.4482C29.9583 25.1424 30.4505 24.9592 30.8301 24.628V35.1317C30.8301 35.7042 30.3528 36.1683 29.764 36.1683H12.3273C11.7478 36.1516 11.2883 35.6877 11.2928 35.1241V24.3746ZM20.5245 18.9V22.3245C20.5725 23.0883 20.1807 23.8149 19.5073 24.2109C18.8339 24.6069 17.9901 24.6069 17.3167 24.2109C16.6433 23.8149 16.2515 23.0883 16.2995 22.3245V18.9H20.5245ZM31.0907 18.9V22.4013C31.0047 23.4881 30.0619 24.3211 28.941 24.3007C27.8201 24.2803 26.9101 23.4137 26.8658 22.3245V18.9H31.0907ZM15.2176 18.9V22.3245C15.1493 23.4102 14.2239 24.2566 13.1052 24.2566C11.9865 24.2566 11.061 23.4102 10.9927 22.3245V18.9H15.2176ZM25.7681 18.8847V22.3245C25.6998 23.4102 24.7743 24.2566 23.6557 24.2566C22.537 24.2566 21.6115 23.4102 21.5432 22.3245V18.9L25.7681 18.8847ZM30.1984 13.9169L31.1223 17.8328H10.9927L11.9167 13.9169H30.1984Z"
    fill="#333333" />
</svg>
