<svg width="42" height="48" fill="none" xmlns="http://www.w3.org/2000/svg">
  <path
    d="M12.8302 16.7128L13.0009 33.143H2.57861C2.08365 26.8222 5.53292 19.7729 10.6243 16.7128H12.8302ZM14.6093 16.7128H28.0006V33.143H14.7806L14.6093 16.7128ZM10.7851 46.2532C10.6819 46.1987 10.5057 46.0719 10.4088 46.0022L10.3891 45.9885C10.293 45.9181 10.2073 45.8575 10.1427 45.8161C9.34447 45.3115 8.55955 44.6931 7.81044 43.979C5.44306 41.7227 3.75668 38.7523 2.93175 35.3868C2.89454 35.2338 2.85803 35.0704 2.82152 34.8891H39.7631C39.0723 37.9705 37.3037 42.4141 32.8091 46.2532H10.7851ZM29.7796 16.7128H32.0375C33.3321 17.3181 39.61 20.8331 40.1394 32.2282C40.1387 32.2509 40.1324 32.5839 40.0664 33.143H29.7796V16.7128ZM32.5634 15.0315L32.4152 14.9722L10.1371 14.9673L9.92929 15.0873C3.37195 18.8608 -0.622837 28.3436 1.20255 35.7942C2.10541 39.4809 3.96169 42.7443 6.57128 45.2315C7.40394 46.0257 8.28083 46.7164 9.17737 47.2838C9.20967 47.3044 9.24969 47.332 9.29462 47.3658L9.33323 47.3934C9.79098 47.7256 10.2094 48 10.6812 48H33.4627L33.7119 47.7932C41.844 41.0368 41.9171 32.5494 41.9164 32.1882C41.2901 18.6726 32.9193 15.1741 32.5634 15.0315ZM28.1298 3.88315L23.2342 11.2076H10.6517V13.0034H31.6415V11.2076H25.4226L30.6383 3.40612L39.2604 1.76338L38.9122 0L5.58277 6.34968L5.51397 6.36277L5.8629 8.12615L28.1298 3.88315Z"
    fill="#333333" />
</svg>
