<svg width="48" height="47" fill="none" xmlns="http://www.w3.org/2000/svg">
  <path
    d="M23.93 7.69348C14.99 7.69348 7.74261 14.8458 7.74261 23.6687L7.74767 24.0703C7.88224 29.4122 10.6953 34.2529 15.1539 37.0946L15.2271 37.1395L15.2282 42.4852H33.2079L33.2073 36.7589L33.3434 36.6666C37.5495 33.6971 40.1175 28.8989 40.1175 23.6687C40.1175 14.8458 32.8701 7.69348 23.93 7.69348ZM23.93 10.0948C31.5263 10.0948 37.6842 16.172 37.6842 23.6687C37.6842 28.3543 35.2609 32.6291 31.3352 35.1095L30.7746 35.4637L30.7741 40.0835H17.6604L17.6606 35.7738L17.0533 35.4271C12.8306 33.0162 10.1758 28.5713 10.1758 23.6687C10.1758 16.172 16.3338 10.0948 23.93 10.0948Z"
    fill="#2D69AA" />
  <path d="M31.9912 44.1442V46.5455H16.4446V44.1442H31.9912Z" fill="#2D69AA" />
  <path
    d="M25.3377 0V5.55678H22.5224V0H25.3377ZM47.8601 22.2271V25.0055H42.2295V22.2271H47.8601ZM5.63059 22.2271V25.0055H0V22.2271H5.63059ZM41.2318 5.9598L43.2908 7.85466L39.4507 11.9186L37.3918 10.0238L41.2318 5.9598ZM6.76413 6.06799L11.0136 9.71357L9.1666 11.8104L4.91713 8.16487L6.76413 6.06799ZM40.5477 33.8519L44.7972 37.4975L42.9502 39.5944L38.7007 35.9488L40.5477 33.8519ZM7.44826 33.7437L9.50723 35.6386L5.66718 39.7025L3.6082 37.8077L7.44826 33.7437Z"
    fill="#2D69AA" />
  <path
    d="M21.701 13.1201C28.9365 13.2268 33.393 16.5965 34.7864 23.0551L34.873 23.4807L32.6984 23.8855C31.6362 18.3286 28.2001 15.5294 22.1076 15.3148L21.6679 15.3038L21.701 13.1201Z"
    fill="#2D69AA" />
</svg>
