<svg width="43" height="48" fill="none" xmlns="http://www.w3.org/2000/svg">
  <path fill-rule="evenodd" clip-rule="evenodd"
    d="M0 9.49446H8.88952V16.7954C8.74581 19.1099 6.79854 20.9146 4.44476 20.9146C2.09098 20.9146 0.143713 19.1099 0 16.7954V9.49446ZM39.8063 23.7907H39.4075C39.0545 23.7887 38.703 23.7447 38.3607 23.6598V38.6872H5.34486V23.7907H4.92946C3.63029 23.757 2.41317 23.1574 1.60621 22.1537V45.0714C1.59671 46.2731 2.56366 47.2621 3.78296 47.2977H40.4709C41.7098 47.2977 42.7141 46.3083 42.7141 45.0878V22.6939C41.9152 23.4002 40.8797 23.7908 39.8063 23.7907ZM0 8.34858L1.94406 0H40.4099L42.354 8.34858H0ZM33.4839 9.5272V16.8281C33.577 19.1502 35.4919 20.9979 37.8503 21.0413C40.2087 21.0847 42.1923 19.3088 42.3734 16.9918C42.3734 16.9918 42.3734 16.8772 42.3734 16.8281V9.5272H33.4839ZM22.2848 9.5272V16.8281C22.4285 19.1427 24.3757 20.9473 26.7295 20.9473C29.0833 20.9473 31.0306 19.1427 31.1743 16.8281V9.49446L22.2848 9.5272ZM11.2518 9.5272V16.8281C11.1507 18.4564 11.975 20.0056 13.3919 20.8498C14.8088 21.6941 16.5842 21.6941 18.0011 20.8498C19.418 20.0056 20.2424 18.4564 20.1413 16.8281V9.5272H11.2684H11.2518Z"
    fill="#333333" />
</svg>
