<svg width="48" height="48" fill="none" xmlns="http://www.w3.org/2000/svg">
  <path fill-rule="evenodd" clip-rule="evenodd"
    d="M15.8005 37.75C15.8005 33.4698 19.3822 30 23.8005 30C28.2188 30 31.8005 33.4698 31.8005 37.75V46.5C31.8005 47.3284 31.1072 48 30.2521 48C29.3969 48 28.7037 47.3284 28.7037 46.5V37.75C28.7037 35.1266 26.5084 33 23.8005 33C21.0925 33 18.8972 35.1266 18.8972 37.75V46.5C18.8972 47.3284 18.204 48 17.3489 48C16.4937 48 15.8005 47.3284 15.8005 46.5V37.75Z"
    fill="#333333" />
  <path fill-rule="evenodd" clip-rule="evenodd"
    d="M7.28433 44.9999V21.4999H4.18756V47.9999H43.4134V21.4999H40.3166V44.9999H7.28433Z"
    fill="#333333" />
  <path fill-rule="evenodd" clip-rule="evenodd"
    d="M4.52797 0H43.0749L47.4515 16.9596C48.2489 20.0495 45.789 23 42.5474 23C39.7427 23 37.1877 21.654 35.6413 19.5395C34.4615 21.6236 32.1787 23 29.6079 23C27.1931 23 25.0325 21.7856 23.8014 19.9112C22.5703 21.7856 20.4097 23 17.995 23C15.4241 23 13.1413 21.6236 11.9616 19.5395C10.4152 21.654 7.86014 23 5.05539 23C1.81388 23 -0.646093 20.0495 0.151283 16.9596L4.52797 0ZM6.94585 3L3.15559 17.6873C2.85801 18.8404 3.78227 20 5.05539 20C7.65609 20 9.90044 18.1753 10.3238 15.7148C10.6748 13.6744 13.7022 13.6744 14.0533 15.7148L14.2637 16.9379C14.5677 18.7049 16.1458 20 17.995 20C19.8441 20 21.4222 18.7049 21.7262 16.9379L21.9366 15.7148C22.2877 13.6744 25.3151 13.6744 25.6662 15.7148L25.8766 16.9379C26.1806 18.7049 27.7587 20 29.6079 20C31.457 20 33.0351 18.7049 33.3391 16.9379L33.5495 15.7148C33.9006 13.6744 36.928 13.6744 37.2791 15.7148C37.7024 18.1753 39.9467 20 42.5474 20C43.8206 20 44.7448 18.8404 44.4472 17.6873L40.657 3H6.94585Z"
    fill="#333333" />
</svg>
