<svg width="42" height="48" fill="none" xmlns="http://www.w3.org/2000/svg">
  <path fill-rule="evenodd" clip-rule="evenodd"
    d="M39.8764 0L39.879 0.015L41.7959 0.015344V8.31646H0V0.015344L1.9155 0.015L1.91952 0H39.8764ZM0.619199 22.1414C1.43336 23.159 2.66818 23.7568 3.97835 23.7679H4.38083V38.5595H36.8888V23.6451C37.2282 23.7273 37.5765 23.7686 37.9259 23.7679H38.3284C39.3856 23.7657 40.405 23.3779 41.1922 22.6785V44.9426L41.1821 45.1539C41.0748 46.2666 40.1292 47.1368 38.9786 47.1368H2.77091C1.55434 47.1033 0.593198 46.1027 0.619199 44.8966V22.1414ZM19.8453 10.5567V17.7991C19.9422 19.4148 19.1275 20.9507 17.7298 21.7876C16.332 22.6244 14.5815 22.6244 13.1837 21.7876C11.786 20.9507 10.9713 19.4148 11.0682 17.7991V10.5567H19.8453ZM41.7959 10.5567V17.9832C41.7627 19.5483 40.8897 20.9769 39.5057 21.731C38.1217 22.485 36.437 22.4499 35.0862 21.6389C33.7354 20.8279 32.9237 19.3641 32.9569 17.7991V10.5567H41.7959ZM8.77714 10.5567V17.7991C8.63914 20.1013 6.71531 21.8983 4.38857 21.8983C2.06183 21.8983 0.138006 20.1013 0 17.7991V10.5567H8.77714ZM30.6813 10.526V17.7991C30.5433 20.1013 28.6195 21.8983 26.2927 21.8983C23.966 21.8983 22.0422 20.1013 21.9042 17.7991V10.5567L30.6813 10.526Z"
    fill="#2D69AA" />
</svg>
