<svg width="48" height="48" fill="none" xmlns="http://www.w3.org/2000/svg">
  <path fill-rule="evenodd" clip-rule="evenodd"
    d="M34.7614 0.124326C35.2716 -0.041442 35.8211 -0.041442 36.3313 0.124326C36.7064 0.24619 36.9892 0.45157 37.202 0.632229C37.3933 0.794603 37.6001 1.00148 37.8032 1.20469L46.7953 10.1967C46.9985 10.3999 47.2054 10.6067 47.3678 10.798C47.5484 11.0108 47.7538 11.2936 47.8757 11.6687C48.0414 12.1789 48.0414 12.7284 47.8757 13.2386C47.7538 13.6137 47.5484 13.8965 47.3678 14.1093C47.2054 14.3006 46.9985 14.5074 46.7953 14.7106L14.7105 46.7953C14.5074 46.9985 14.3006 47.2054 14.1093 47.3678C13.8965 47.5484 13.6137 47.7538 13.2386 47.8757C12.7284 48.0414 12.1789 48.0414 11.6687 47.8757C11.2936 47.7538 11.0108 47.5484 10.798 47.3678C10.6067 47.2054 10.3999 46.9985 10.1967 46.7953L1.20475 37.8033C1.00152 37.6001 0.794619 37.3933 0.632228 37.202C0.451569 36.9892 0.246189 36.7064 0.124326 36.3313C-0.041442 35.8211 -0.041442 35.2716 0.124326 34.7614C0.246189 34.3863 0.45157 34.1035 0.632229 33.8907C0.794603 33.6994 1.00148 33.4926 1.20469 33.2895L33.2895 1.2047C33.4926 1.00149 33.6994 0.794604 33.8907 0.632228C34.1035 0.451569 34.3863 0.246189 34.7614 0.124326ZM35.5463 2.87073C35.5344 2.88217 35.5218 2.89432 35.5084 2.90722C35.428 2.98517 35.3363 3.07681 35.2198 3.19336L30.5625 7.85059C30.6295 7.89711 30.6933 7.95022 30.753 8.00992L34.2169 11.4738C34.758 12.0149 34.758 12.8922 34.2169 13.4333C33.6758 13.9744 32.7985 13.9744 32.2574 13.4333L28.7935 9.9694C28.7338 9.9097 28.6807 9.84591 28.6342 9.77894L23.6347 14.7784C23.7017 14.8249 23.7655 14.878 23.8252 14.9377L27.2891 18.4016C27.8302 18.9427 27.8302 19.82 27.2891 20.3611C26.748 20.9022 25.8707 20.9022 25.3296 20.3611L21.8657 16.8972C21.806 16.8375 21.7529 16.7737 21.7064 16.7067L16.7069 21.7062C16.7739 21.7527 16.8377 21.8058 16.8974 21.8655L20.3613 25.3294C20.9024 25.8705 20.9024 26.7478 20.3613 27.2889C19.8202 27.83 18.9429 27.83 18.4018 27.2889L14.9379 23.825C14.8782 23.7653 14.8251 23.7015 14.7786 23.6346L9.77911 28.634C9.84609 28.6805 9.90988 28.7337 9.96958 28.7934L13.4335 32.2573C13.9746 32.7984 13.9746 33.6756 13.4335 34.2167C12.8924 34.7578 12.0151 34.7578 11.474 34.2167L8.01009 30.7528C7.9504 30.6931 7.89729 30.6293 7.85076 30.5624L3.19336 35.2198C3.07681 35.3363 2.98517 35.428 2.90722 35.5084C2.89432 35.5218 2.88217 35.5344 2.87073 35.5463C2.88217 35.5583 2.89432 35.5709 2.90722 35.5843C2.98517 35.6647 3.07681 35.7564 3.19336 35.8729L12.1271 44.8066C12.2436 44.9232 12.3353 45.0148 12.4157 45.0928C12.4291 45.1057 12.4417 45.1178 12.4536 45.1293C12.4656 45.1178 12.4782 45.1057 12.4916 45.0928C12.572 45.0148 12.6637 44.9232 12.7802 44.8066L44.8066 12.7802C44.9232 12.6637 45.0148 12.572 45.0928 12.4916C45.1057 12.4782 45.1178 12.4656 45.1293 12.4536C45.1178 12.4417 45.1057 12.4291 45.0928 12.4157C45.0148 12.3353 44.9232 12.2436 44.8066 12.1271L35.8729 3.19336C35.7564 3.07681 35.6647 2.98517 35.5843 2.90722C35.5709 2.89432 35.5583 2.88217 35.5463 2.87073Z"
    fill="#333333" />
</svg>
