<svg width="47" height="47" fill="none" xmlns="http://www.w3.org/2000/svg">
  <path fill-rule="evenodd" clip-rule="evenodd"
    d="M8.55107 36.972L4.17129 32.5547L0.273423 46.8597L14.6103 43.0829L10.4646 38.9018L20.7558 28.6962L18.8423 26.7667L8.55107 36.972ZM32.4725 4.49031L36.8522 8.90762L26.561 19.1126L28.4745 21.0423L38.7658 10.8371L42.9118 15.0182L46.8093 0.713212L32.4725 4.49031ZM0.267395 0.314209L4.044 14.6516L8.02154 10.707L18.2264 20.9991L20.1562 19.0858L9.95126 8.79382L14.5718 4.21188L0.267395 0.314209ZM25.8802 28.7179L36.0851 39.0099L32.1075 42.9537L46.4116 46.8517L42.635 32.5143L38.0145 37.0963L27.8099 26.8043L25.8802 28.7179Z"
    fill="#333333" />
</svg>
