<svg width="46" height="46" fill="none" xmlns="http://www.w3.org/2000/svg">
  <path fill-rule="evenodd" clip-rule="evenodd"
    d="M29.9143 39.5503L34.0272 35.4115L43.7392 44.9271L45.5361 43.1191L35.8244 33.6039L39.7175 29.6864L26.2123 26.1889L29.9143 39.5503ZM0.0358887 2.10844L9.14082 11.0288L5.02754 15.1676L18.5327 18.6654L14.8308 5.30372L10.9377 9.22086L1.83275 0.300806L0.0358887 2.10844ZM6.13894 29.4989L10.4991 33.771L0.915743 43.4135L2.73666 45.198L12.32 35.5554L16.0735 39.2327L19.5964 25.8236L6.13894 29.4989ZM44.0412 0.0214844L35.0569 9.06163L30.6964 4.78953L27.1735 18.1986L40.6309 14.523L36.8775 10.846L45.8622 1.80589L44.0412 0.0214844Z"
    fill="#333333" />
</svg>
