<svg width="48" height="40" fill="none" xmlns="http://www.w3.org/2000/svg">
  <path fill-rule="evenodd" clip-rule="evenodd"
    d="M4.68808 5.80439C6.66817 3.07903 10.9201 1.68658 15.577 5.07L40.5417 23.208C45.0003 26.4473 45.2356 31.029 43.1635 33.8811C41.1834 36.6064 36.9315 37.9989 32.275 34.6158L7.30982 16.4775C2.85126 13.2382 2.61593 8.65646 4.68808 5.80439ZM5.82779 6.63244C4.22572 8.83752 4.27007 12.4962 8.15285 15.3172L33.1181 33.4555C36.9913 36.2695 40.4497 35.2196 42.0238 33.053C43.6259 30.848 43.582 27.1896 39.6987 24.3683L14.734 6.23032C10.8603 3.41594 7.40188 4.46589 5.82779 6.63244ZM34.7524 29.7259C34.9831 29.4085 35.4248 29.3344 35.7367 29.561C36.0485 29.7876 36.1146 30.2306 35.8839 30.548C35.653 30.866 35.2115 30.9395 34.8997 30.713C34.5879 30.4864 34.5214 30.0439 34.7524 29.7259ZM36.6263 27.1467C36.8573 26.8288 37.2987 26.7552 37.6106 26.9818C37.9224 27.2083 37.9888 27.6509 37.7579 27.9688C37.5272 28.2863 37.0854 28.3603 36.7736 28.1338C36.4618 27.9072 36.3957 27.4642 36.6263 27.1467ZM32.4361 28.043C32.6667 27.7255 33.1085 27.6515 33.4203 27.8781C33.7321 28.1046 33.7982 28.5476 33.5676 28.8651C33.3366 29.183 32.8952 29.2566 32.5834 29.03C32.2715 28.8035 32.2051 28.3609 32.4361 28.043ZM34.31 25.4638C34.541 25.1459 34.9824 25.0723 35.2942 25.2989C35.606 25.5254 35.6725 25.968 35.4415 26.2859C35.2108 26.6034 34.7691 26.6774 34.4573 26.4508C34.1454 26.2243 34.0793 25.7813 34.31 25.4638ZM14.6935 15.1522C14.9241 14.8348 15.3659 14.7608 15.6777 14.9873C15.9895 15.2139 16.0556 15.6569 15.825 15.9743C15.594 16.2923 15.1526 16.3658 14.8407 16.1393C14.5289 15.9127 14.4625 15.4702 14.6935 15.1522ZM16.5674 12.573C16.7984 12.2551 17.2398 12.1815 17.5516 12.4081C17.8634 12.6347 17.9299 13.0772 17.6989 13.3951C17.4682 13.7126 17.0265 13.7866 16.7146 13.5601C16.4028 13.3335 16.3367 12.8905 16.5674 12.573ZM12.3771 13.4693C12.6078 13.1519 13.0495 13.0778 13.3613 13.3044C13.6732 13.5309 13.7393 13.9739 13.5086 14.2914C13.2776 14.6093 12.8362 14.6829 12.5244 14.4563C12.2126 14.2298 12.1461 13.7872 12.3771 13.4693ZM14.251 10.8901C14.482 10.5722 14.9234 10.4986 15.2352 10.7252C15.5471 10.9517 15.6135 11.3943 15.3825 11.7122C15.1519 12.0297 14.7101 12.1037 14.3983 11.8771C14.0865 11.6506 14.0204 11.2076 14.251 10.8901Z"
    fill="#333333" />
</svg>
