<svg width="45" height="47" fill="none" xmlns="http://www.w3.org/2000/svg">
  <path fill-rule="evenodd" clip-rule="evenodd"
    d="M23.3716 0.764526C23.6609 0.766596 23.8432 0.776252 23.882 0.778574C27.9742 0.909486 30.7361 1.97809 32.073 3.95211C33.0446 5.38787 32.9798 6.90279 32.8413 7.72053C33.8033 8.09804 34.7251 8.59976 35.542 9.19465C38.2481 11.1644 38.8191 13.8393 39.4806 16.9361L44.6422 41.0938L36.8399 42.2714L33.8465 30.4467L32.9912 46.4033H23.5617L13.433 46.3181L12.4452 30.4047L9.11168 42.1819L0.736603 41.0219L6.36537 16.8405C7.08688 13.74 7.71063 11.0621 10.6519 9.09784C11.7014 8.39518 12.8992 7.82952 14.1515 7.43983C14.0057 5.83662 14.4136 4.47941 15.366 3.39741C17.3883 1.1038 21.325 0.787986 23.0481 0.765537L23.3716 0.764526ZM31.3988 8.82993L24.2635 12.7274V44.8811H31.5716L31.9224 38.3349L26.503 35.5523L27.1795 34.1938L32.0112 36.6751L32.8778 20.5048L37.956 40.5634L42.8369 39.8273L38.0154 17.2588C37.3946 14.3538 36.9046 12.0601 34.6681 10.4313C33.7649 9.7737 32.7123 9.24458 31.6255 8.90117L31.3988 8.82993ZM15.0439 8.77086C13.764 9.1161 12.5333 9.66167 11.4759 10.3692C9.03251 12.001 8.49932 14.2917 7.82459 17.1912L2.57607 39.7402L8.01951 40.494L13.4462 20.8196L14.383 36.8657L19.3706 34.1129L20.0867 35.4506L14.4813 38.545L14.8472 44.8074L22.7641 44.8744V12.7402L15.0439 8.77086ZM19.2274 14.5931C19.754 14.5931 20.1823 15.0284 20.1823 15.563C20.1823 16.0976 19.754 16.5324 19.2274 16.5324C18.7008 16.5324 18.2726 16.0976 18.2726 15.563C18.2726 15.0284 18.7008 14.5931 19.2274 14.5931ZM27.6405 14.5931C28.1671 14.5931 28.5953 15.0284 28.5953 15.563C28.5953 16.0976 28.1671 16.5324 27.6405 16.5324C27.1139 16.5324 26.6857 16.0976 26.6857 15.563C26.6857 15.0284 27.1139 14.5931 27.6405 14.5931ZM23.816 2.29897C23.7441 2.2941 18.5777 2.03228 16.4822 4.41426C15.7828 5.20947 15.5129 6.20865 15.6611 7.45992L15.6965 7.40086L23.5036 11.4134L31.4114 7.09459C31.4582 6.49849 31.3928 5.62534 30.8261 4.79786C29.7831 3.27746 27.3588 2.41283 23.816 2.29897Z"
    fill="#333333" />
</svg>
