<svg width="47" height="39" fill="none" xmlns="http://www.w3.org/2000/svg">
  <path fill-rule="evenodd" clip-rule="evenodd"
    d="M4.08603 6.07983C5.38708 4.22174 6.93165 3.17003 8.67821 2.95301C11.353 2.62098 13.4769 4.39332 13.5661 4.46847C13.5711 4.47237 14.4015 5.14573 15.2721 5.87897L15.5989 6.15556C15.8702 6.3864 16.1359 6.61565 16.372 6.8247C16.8456 7.24397 18.9671 8.80933 21.1112 10.3721L21.7535 10.8397C23.1395 11.8476 24.4664 12.8059 25.2879 13.3992C25.9185 13.8545 26.3351 14.1556 26.4023 14.2065L26.4544 14.2419C26.8328 14.4993 29.1993 16.1104 31.5831 17.7115L32.1782 18.1107C34.2545 19.5019 36.2183 20.7983 36.7491 21.0863C36.9709 21.2066 37.2112 21.3402 37.4572 21.479L37.8286 21.6901C38.8834 22.2932 39.9202 22.9152 39.9345 22.9235C40.0741 23.0069 43.4127 25.0264 44.127 28.2814C44.4952 29.9598 44.0992 31.6437 42.9495 33.2857C41.8 34.9273 40.3501 35.8804 38.6402 36.1181C35.3262 36.58 32.2654 34.1693 32.1366 34.0664C32.0936 34.0325 31.046 33.1958 29.1214 31.4461C28.3746 30.7675 26.7159 29.4958 24.9793 28.2033L24.4293 27.7952C22.135 26.0972 19.8581 24.4677 19.4987 24.2109L19.4017 24.143C18.7326 23.6845 11.4079 18.6728 9.24593 17.5363C8.06643 16.9162 7.19081 16.4303 6.61087 16.0999L6.3455 15.9478C5.9843 15.7394 5.78865 15.6204 5.7551 15.6C5.73391 15.5873 5.67446 15.5512 5.58594 15.492L5.43252 15.3857C4.74088 14.8916 3.1688 13.5689 2.70481 11.4831C2.32031 9.75571 2.78498 7.93793 4.08603 6.07983ZM5.01906 6.73315C3.90639 8.32221 3.50072 9.84046 3.81342 11.2463C4.19183 12.9464 5.51761 14.0556 6.07817 14.4587L6.21078 14.551C6.26632 14.5883 6.30473 14.6123 6.32168 14.6227L6.34041 14.6338C6.35212 14.6409 7.50517 15.3446 9.76912 16.5349C11.9839 17.6996 19.1137 22.5757 20.0145 23.1938L20.1803 23.3098C21.0692 23.9445 28.0305 28.9289 29.8828 30.6121C31.7757 32.3323 32.8314 33.1758 32.8421 33.1844C32.8699 33.2066 35.6566 35.3923 38.4798 34.996C39.8643 34.8012 41.0544 34.0064 42.0165 32.6324C42.9789 31.258 43.3153 29.8727 43.0172 28.5152C42.4079 25.7386 39.3865 23.9119 39.3558 23.8938C39.3416 23.8853 38.4322 23.3398 37.4583 22.7797L37.0916 22.57C36.7863 22.3964 36.4848 22.2277 36.2125 22.0799C34.9233 21.3808 26.1175 15.3781 25.7432 15.1232C25.6542 15.0565 25.2452 14.7613 24.6263 14.3147L23.6462 13.6064L22.9944 13.1348C19.5286 10.6262 16.286 8.25705 15.6216 7.66921C15.3896 7.46376 15.1281 7.23809 14.8605 7.01055L14.5382 6.73778C13.6789 6.01428 12.8556 5.34686 12.8439 5.3371C12.8166 5.31413 10.9902 3.8031 8.81735 4.07845C7.40544 4.25679 6.12733 5.15038 5.01906 6.73315ZM33.8144 28.4886C34.0041 28.2177 34.3792 28.1516 34.6501 28.3413C34.921 28.531 34.9871 28.906 34.7974 29.1769C34.6075 29.4482 34.2327 29.5139 33.9618 29.3243C33.6909 29.1346 33.6245 28.7599 33.8144 28.4886ZM35.2544 26.4321C35.4444 26.1608 35.8192 26.0951 36.0901 26.2848C36.361 26.4744 36.4274 26.8491 36.2374 27.1204C36.0477 27.3913 35.6727 27.4574 35.4018 27.2677C35.1309 27.078 35.0647 26.703 35.2544 26.4321ZM31.9181 27.1608C32.1078 26.8899 32.4829 26.8238 32.7538 27.0135C33.0247 27.2032 33.0908 27.5782 32.9011 27.8491C32.7112 28.1204 32.3364 28.1861 32.0655 27.9965C31.7946 27.8068 31.7282 27.4321 31.9181 27.1608ZM33.3581 25.1043C33.5481 24.833 33.9229 24.7673 34.1938 24.957C34.4647 25.1466 34.5311 25.5213 34.3411 25.7926C34.1514 26.0635 33.7764 26.1296 33.5055 25.9399C33.2346 25.7503 33.1685 25.3752 33.3581 25.1043ZM30.0216 25.8329C30.2113 25.562 30.5864 25.4958 30.8573 25.6855C31.1286 25.8755 31.1943 26.2503 31.0046 26.5212C30.8147 26.7924 30.4403 26.8585 30.169 26.6685C29.8981 26.4788 29.8317 26.1042 30.0216 25.8329ZM31.4616 23.7763C31.6516 23.5051 32.0264 23.4393 32.2973 23.629C32.5686 23.819 32.6346 24.1933 32.4446 24.4646C32.2549 24.7355 31.8803 24.8019 31.609 24.612C31.3381 24.4223 31.2719 24.0472 31.4616 23.7763ZM17.0632 16.7593C17.2529 16.4884 17.628 16.4223 17.8989 16.612C18.1698 16.8016 18.2359 17.1767 18.0462 17.4476C17.8563 17.7189 17.4815 17.7846 17.2106 17.5949C16.9397 17.4053 16.8733 17.0306 17.0632 16.7593ZM18.5032 14.7028C18.6932 14.4315 19.068 14.3658 19.3389 14.5554C19.6098 14.7451 19.6762 15.1198 19.4862 15.3911C19.2965 15.662 18.9215 15.7281 18.6506 15.5384C18.3797 15.3487 18.3136 14.9737 18.5032 14.7028ZM15.167 15.4315C15.3566 15.1606 15.7317 15.0945 16.0026 15.2842C16.2735 15.4738 16.3396 15.8489 16.1499 16.1198C15.96 16.3911 15.5852 16.4568 15.3143 16.2671C15.0434 16.0775 14.977 15.7028 15.167 15.4315ZM16.607 13.375C16.7969 13.1037 17.1717 13.038 17.4426 13.2276C17.7135 13.4173 17.7799 13.792 17.5899 14.0633C17.4003 14.3342 17.0252 14.4003 16.7543 14.2106C16.4834 14.0209 16.4173 13.6459 16.607 13.375ZM13.2706 14.1037C13.4603 13.8328 13.8354 13.7667 14.1063 13.9563C14.3772 14.146 14.4433 14.5211 14.2536 14.792C14.0637 15.0633 13.6889 15.129 13.418 14.9393C13.1471 14.7496 13.0807 14.375 13.2706 14.1037ZM14.7106 12.0472C14.9006 11.7759 15.2754 11.7101 15.5463 11.8998C15.8172 12.0895 15.8836 12.4642 15.6936 12.7355C15.5039 13.0063 15.1289 13.0725 14.858 12.8828C14.5871 12.6931 14.5209 12.3181 14.7106 12.0472Z"
    fill="#333333" />
</svg>
