<svg width="42" height="48" fill="none" xmlns="http://www.w3.org/2000/svg">
  <path
    d="M39.7045 4.83187L40.3854 5.17207L41.1782 5.5765L41.1561 31.8531C41.1422 32.3413 41.0121 33.0078 40.6977 33.8136C40.2328 35.0051 39.4469 36.2672 38.2733 37.5645C35.1716 40.9929 29.851 44.1733 21.8175 46.8631L20.7691 47.2072L20.5769 47.2134L20.039 47.0736L19.5352 46.9295C19.4441 46.9024 19.3495 46.8737 19.2514 46.8435L18.6219 46.6422L17.9122 46.4005C17.7874 46.3568 17.6594 46.3113 17.5282 46.264C15.6423 45.5841 13.7046 44.7396 11.8081 43.7179C6.63329 40.9302 2.67163 37.3406 0.610713 32.8516L0.397205 32.3672L0.284052 32.0343L0.0891418 5.35464L1.16246 4.86786L1.65473 4.65854C1.7439 4.62174 1.83658 4.58403 1.9327 4.54549L2.55024 4.3047L3.24717 4.04709C3.36976 4.00294 3.49552 3.95822 3.62438 3.91302L4.43421 3.63641C4.5752 3.58951 4.71916 3.54225 4.86601 3.49471C7.67585 2.58504 10.7548 1.83873 14.0225 1.36065C22.9787 0.0503198 31.7379 0.948335 39.7045 4.83187ZM16.1892 4.06242C11.2201 4.6159 6.81595 5.79247 3.37282 7.1109L3.02428 7.24692L3.20137 31.4985L3.37885 31.8838C5.01785 35.2797 8.04258 38.1359 12.0258 40.482L12.5507 40.7851C15.2444 42.3101 17.9451 43.4005 20.1868 44.0892L20.5939 44.2103L21.1077 44.0395C32.0812 40.3356 36.9851 36.1166 38.0918 32.4477L38.1494 32.2444L38.1794 32.1241L38.2196 31.9235L38.2357 31.7927L38.2542 7.35868L37.7628 7.12605C31.128 4.0677 23.7982 3.21488 16.1892 4.06242Z"
    fill="#333333" />
  <path fill-rule="evenodd" clip-rule="evenodd"
    d="M24.4587 19.5054H16.488V16.1792C16.488 14.3956 18.2758 12.9439 20.4736 12.9439C22.6714 12.9439 24.4587 14.3956 24.4587 16.1792V19.5054ZM21.2967 27.1531V28.7976C21.2967 29.2121 20.944 29.5515 20.5139 29.5515C20.0833 29.5515 19.7316 29.2121 19.7316 28.7976V27.1646C18.9629 26.8706 18.4178 26.1516 18.4178 25.3064C18.4178 24.2007 19.3477 23.3043 20.4951 23.3043C21.6426 23.3043 22.5729 24.2007 22.5729 25.3064C22.5729 26.1379 22.0457 26.8508 21.2967 27.1531ZM26.5383 19.5054V16.1792C26.5383 13.2904 23.8179 10.9406 20.4736 10.9406C17.1293 10.9406 14.4084 13.2904 14.4084 16.1792V19.5054H11.4375V23.5969H11.4159V32.7374H11.4375V32.7471H29.2615V19.5054H26.5383Z"
    fill="#333333" />
</svg>
