<svg width="41" height="47" fill="none" xmlns="http://www.w3.org/2000/svg">
  <path fill-rule="evenodd" clip-rule="evenodd"
    d="M2.46059 30.7343C6.31845 39.4112 18.3717 43.2087 20.4662 43.8093C38.3777 37.9667 38.7156 31.0234 38.7134 30.9542L38.7326 6.15164C23.0222 -1.44241 5.84331 4.61006 2.27915 6.02215L2.46059 30.7343ZM20.5297 46.139L20.2077 46.0575C19.5828 45.8967 4.8125 42.0244 0.283316 31.3985L0.195999 31.1954L0.194865 30.9754L-0.000183105 4.56987L0.667742 4.26847C1.51824 3.88447 21.7079 -5.00892 40.3871 4.47164L41.0029 4.78308L40.9814 30.9286C40.9893 31.2512 40.9587 39.5674 20.845 46.0374L20.5297 46.139Z"
    fill="#2D69AA" />
  <path fill-rule="evenodd" clip-rule="evenodd"
    d="M24.3827 18.5898H16.2932V15.2429C16.2932 13.4481 18.1077 11.9874 20.3382 11.9874C22.5687 11.9874 24.3827 13.4481 24.3827 15.2429V18.5898ZM21.1736 26.2853V27.9402C21.1736 28.3572 20.8156 28.6988 20.3791 28.6988C19.9421 28.6988 19.5851 28.3572 19.5851 27.9402V26.2969C18.805 26.0011 18.2518 25.2776 18.2518 24.4271C18.2518 23.3145 19.1955 22.4125 20.3601 22.4125C21.5246 22.4125 22.4688 23.3145 22.4688 24.4271C22.4688 25.2638 21.9337 25.9811 21.1736 26.2853ZM26.4933 18.5898V15.2429C26.4933 12.336 23.7323 9.97144 20.3382 9.97144C16.9441 9.97144 14.1826 12.336 14.1826 15.2429V18.5898H11.1674V22.707H11.1455V31.9045H11.1674V31.9143H29.2571V18.5898H26.4933Z"
    fill="#2D69AA" />
</svg>
