<svg width="47" height="39" fill="none" xmlns="http://www.w3.org/2000/svg">
  <path fill-rule="evenodd" clip-rule="evenodd"
    d="M41.4814 30.1298C41.5525 30.2788 41.6302 30.4273 41.7073 30.5753C42.0126 31.1569 42.1987 31.5543 42.1258 31.9569L6.53495 7.0359C7.40355 6.9047 8.7584 6.80585 10.5326 7.00584C13.5371 7.34499 18.3823 8.63431 24.4045 12.8511C36.9157 21.6115 41.4438 30.0499 41.4814 30.1298ZM40.0739 32.9087C39.9081 32.8867 39.7425 32.8638 39.5777 32.8486C39.49 32.8403 30.0143 31.4736 17.5003 22.7112C8.57265 16.46 6.43987 10.3676 5.9313 7.91224L41.5154 32.8285C41.1616 33.0354 40.7246 32.9965 40.0739 32.9087ZM5.0496 6.27332L4.69755 6.39885L4.69951 6.7733C4.70117 7.11221 4.88094 15.174 16.89 23.5829C28.1237 31.4488 37.5718 33.7309 39.4868 33.9115C39.6373 33.926 39.7889 33.9464 39.9406 33.9669C40.8445 34.089 41.9703 34.2408 42.7894 33.071C43.6079 31.902 43.0803 30.896 42.6566 30.088C42.5849 29.9526 42.5142 29.8173 42.4494 29.6811C41.6238 27.9426 36.2461 19.8436 25.0148 11.9794C13.0058 3.57059 5.36888 6.15862 5.0496 6.27332Z"
    fill="#404644" />
</svg>
