<svg width="47" height="41" fill="none" xmlns="http://www.w3.org/2000/svg">
  <path fill-rule="evenodd" clip-rule="evenodd"
    d="M14.1471 0.918701C17.9866 0.936342 21.041 2.59477 23.3882 5.40925L23.637 5.7152L23.8847 6.0356L24.1236 5.73233C26.3809 2.92404 29.2567 1.21639 32.8921 1.02576L33.2991 1.01084L33.8204 1.00931C37.2828 1.02516 40.5389 2.33845 42.9848 4.70577C45.4319 7.07333 46.7711 10.2094 46.7539 13.5328C46.7385 16.7154 45.487 19.7123 43.219 22.0176L42.9175 22.3143L42.7877 22.4335L23.7201 40.3606L4.71392 22.1475C2.27362 19.7784 0.939425 16.6452 0.955766 13.323C0.973542 9.99828 2.34498 6.87496 4.8163 4.52943C7.16116 2.30544 10.2801 1.03829 13.5959 0.926688L14.0295 0.918701H14.1471ZM14.1246 3.774H13.967C11.3074 3.774 8.80388 4.76228 6.90855 6.56036C5.00112 8.36922 3.94438 10.7748 3.93078 13.3361C3.91902 15.7749 4.84976 18.0799 6.56044 19.8689L6.82287 20.1333L23.7391 36.3437L40.842 20.269C42.6308 18.5643 43.6646 16.3044 43.77 13.884L43.7789 13.5198C43.792 10.9591 42.7602 8.54355 40.8719 6.71614C39.0795 4.98076 36.7263 3.98064 34.2029 3.87463L33.6534 3.86383C30.0337 3.86383 27.3138 5.85326 25.3676 9.06608L25.1756 9.39141L23.8619 11.6781L22.5654 9.38242C20.6258 5.94494 17.859 3.79127 14.1246 3.774ZM19.1186 13.1778C20.3302 13.1778 21.2862 13.4116 21.9873 13.8801C22.6885 14.3486 23.039 14.9991 23.039 15.8346C23.039 16.5316 22.8183 17.1248 22.3752 17.6126C21.9329 18.1012 21.3113 18.4373 20.5112 18.6208V18.6665C21.455 18.778 22.1699 19.0522 22.6552 19.4874C23.1405 19.9226 23.3831 20.5087 23.3831 21.2467C23.3831 22.32 22.9757 23.1571 22.1594 23.7541C21.343 24.3527 20.1776 24.6516 18.6634 24.6516C17.3934 24.6516 16.2678 24.4495 15.2867 24.0484V22.0412C15.7403 22.2596 16.2394 22.4377 16.7831 22.5755C17.3276 22.7126 17.8657 22.7808 18.3996 22.7808C19.2152 22.7808 19.8173 22.6491 20.2069 22.3843C20.5964 22.1202 20.7911 21.6943 20.7911 21.1097C20.7911 20.5854 20.5672 20.2137 20.1192 19.9953C19.6713 19.7754 18.9563 19.6662 17.9752 19.6662H17.0874V17.8573H17.9914C18.8979 17.8573 19.5601 17.7442 19.9788 17.5181C20.3976 17.2912 20.6069 16.9033 20.6069 16.3535C20.6069 15.5086 20.0519 15.0866 18.9433 15.0866C18.5587 15.0866 18.1692 15.147 17.7707 15.2701C17.3739 15.3917 16.9332 15.6031 16.4471 15.9036L15.3037 14.2766C16.37 13.5441 17.6417 13.1778 19.1186 13.1778ZM29.178 13.1622C30.5284 13.1622 31.5476 13.6508 32.2382 14.6281C32.9288 15.6054 33.2753 17.0356 33.2753 18.9181C33.2753 20.868 32.9402 22.3106 32.2707 23.2468C31.6004 24.1838 30.5706 24.6516 29.178 24.6516C27.8293 24.6516 26.8117 24.1676 26.1259 23.2004C25.4418 22.234 25.0986 20.8068 25.0986 18.9181C25.0986 16.9489 25.4321 15.4977 26.0992 14.5638C26.7646 13.6299 27.792 13.1622 29.178 13.1622ZM29.178 15.0703C28.597 15.0703 28.1807 15.3699 27.9307 15.9678C27.6792 16.5656 27.555 17.549 27.555 18.9181C27.555 20.2872 27.6784 21.2683 27.9267 21.8615C28.175 22.4539 28.5921 22.7505 29.178 22.7505C29.7542 22.7505 30.1705 22.4508 30.4269 21.8499C30.6826 21.2497 30.8108 20.2725 30.8108 18.9181C30.8108 17.549 30.6818 16.5656 30.4221 15.9678C30.164 15.3699 29.7485 15.0703 29.178 15.0703Z"
    fill="#333333" />
</svg>
