<svg width="48" height="45" fill="none" xmlns="http://www.w3.org/2000/svg">
  <path fill-rule="evenodd" clip-rule="evenodd"
    d="M31.8709 8.72498L31.8735 8.72106C32.8763 8.01478 35.1627 7.20126 35.1627 7.20126C31.3316 6.65194 28.8703 7.27974 28.8703 7.27974C30.5834 4.95688 37.8617 3.57572 37.8617 3.57572C29.7752 3.18334 25.7091 7.04431 25.7091 7.04431C25.9428 4.72276 29.5428 -0.00012207 29.5428 -0.00012207C24.6201 3.41877 23.7922 6.96714 23.7922 6.96714C23.7922 6.96714 22.9644 3.41877 18.0404 -0.00012207C18.0404 -0.00012207 21.6417 4.72145 21.8754 7.04431C21.8754 7.04431 17.808 3.18334 9.72149 3.57572C9.72149 3.57572 17.001 4.95688 18.7129 7.27974C18.7129 7.27974 16.2515 6.65194 12.4166 7.20126C12.4166 7.20126 14.7382 8.02525 15.7305 8.73675L15.7345 8.7446C6.55766 11.3395 0.000183105 18.2139 0.000183105 26.2877C0.000183105 36.5862 10.6721 44.9359 23.8392 44.9359C37.0038 44.9359 47.677 36.5862 47.677 26.2877C47.677 18.193 41.0843 11.3042 31.8709 8.72498ZM23.8301 38.9692C13.2797 38.9692 4.7283 32.5042 4.7283 24.5298C4.7283 17.9013 10.6407 12.3204 18.6946 10.6228L14.8661 14.0129C14.8661 14.0129 17.3301 12.7612 19.0067 12.3715C20.2537 12.0824 21.1664 11.7005 22.399 11.5213C23.377 12.5454 26.1752 15.7171 26.1752 18.4663C26.6114 15.3862 25.8788 12.5781 25.5681 11.5736C26.6414 11.7672 27.4993 12.1086 28.6327 12.3715C30.3105 12.7612 32.7732 14.0129 32.7732 14.0129L28.8141 10.5901C31.1149 11.0491 33.3268 11.8718 35.369 13.028C35.1457 13.1327 34.9512 13.2909 34.8062 13.4897C34.0972 14.5086 34.8519 16.273 36.4907 17.4292C38.0954 18.5592 39.9417 18.6821 40.686 17.7365C42.1197 19.7612 42.9319 22.0736 42.9319 24.5298C42.9319 32.5042 34.3793 38.9692 23.8301 38.9692Z"
    fill="#2D69AA" />
</svg>
