<svg width="48" height="43" fill="none" xmlns="http://www.w3.org/2000/svg">
  <path fill-rule="evenodd" clip-rule="evenodd"
    d="M24.0196 39.9228C12.6551 39.9228 3.40915 33.2499 3.40915 25.0478C3.40915 17.9343 10.3643 11.975 19.6226 10.5165C19.6909 10.6248 19.7384 10.736 19.7457 10.8516H19.5633L15.6385 14.3188L23.1917 11.7993C23.1917 11.7993 26.3104 14.3525 27.234 18.869C27.234 18.869 27.7229 14.9223 26.6114 11.8273C26.6114 11.8273 30.4853 12.341 34.0007 14.3188C34.0007 14.3188 31.9448 11.5461 29.687 10.7781C29.687 10.7781 29.6937 10.7674 29.7038 10.7522C38.3115 12.5381 44.6295 18.2683 44.6295 25.0478C44.6295 33.2499 35.3835 39.9228 24.0196 39.9228ZM32.4063 8.60937C33.3808 8.12095 34.6563 7.67014 36.3116 7.40965C36.3116 7.40965 33.7489 6.50298 29.7514 7.59884C29.7514 7.59884 31.7457 4.99168 39.0729 3.68249C39.0729 3.68249 34.4213 2.26663 26.7563 7.19856L30.6861 0.000244141C30.6861 0.000244141 27.4673 1.1573 24.7899 7.11884C24.7899 7.11884 22.9567 2.19477 18.8937 0.000244141C18.8937 0.000244141 20.6598 1.4627 22.8247 7.19856C22.8247 7.19856 17.7698 2.96165 10.3649 3.65386C10.3649 3.65386 16.6521 4.57456 19.5829 7.43884C19.5829 7.43884 15.4606 6.72698 13.3432 7.43716C13.3432 7.43716 15.0528 7.99351 15.9764 8.50663C7.0554 10.9852 0.675293 17.4644 0.675293 25.0478C0.675293 34.7635 11.1469 42.6669 24.0196 42.6669C36.8917 42.6669 47.3634 34.7635 47.3634 25.0478C47.3634 17.5632 41.1455 11.1581 32.4063 8.60937Z"
    fill="#333333" />
  <path fill-rule="evenodd" clip-rule="evenodd"
    d="M21.0324 28.0385L17.3218 24.2428L15.0086 26.5682L21.0324 32.6886L34.4287 19.1184L32.1155 16.7936L21.0324 28.0385Z"
    fill="#333333" />
</svg>
