<svg width="48" height="43" fill="none" xmlns="http://www.w3.org/2000/svg">
  <g clip-path="url(#clip0_644_877)">
    <path fill-rule="evenodd" clip-rule="evenodd"
      d="M31.64 8.284L31.6427 8.28133C32.5973 7.61067 34.772 6.83733 34.772 6.83733C31.128 6.31733 28.7853 6.912 28.7853 6.912C30.416 4.70667 37.34 3.39467 37.34 3.39467C29.6467 3.02267 25.78 6.688 25.78 6.688C26 4.48533 29.4267 0 29.4267 0C24.7427 3.24667 23.956 6.616 23.956 6.616C23.956 6.616 23.168 3.24667 18.484 0C18.484 0 21.9107 4.48267 22.132 6.68933C22.132 6.68933 18.2627 3.02267 10.5707 3.396C10.5707 3.396 17.4947 4.70667 19.124 6.912C19.124 6.912 16.7827 6.316 13.1333 6.83733C13.1333 6.83733 15.3427 7.62 16.2867 8.296L16.2907 8.30267C7.56 10.7667 1.32267 17.2947 1.32267 24.96C1.32267 34.7387 11.4747 42.6667 24 42.6667C36.524 42.6667 46.6773 34.7387 46.6773 24.96C46.6773 17.2747 40.4053 10.7333 31.6413 8.284M23.992 37.0013C13.9547 37.0013 5.82 30.8627 5.82 23.2907C5.82 16.9973 11.444 11.6987 19.1067 10.0867L15.464 13.3053C15.464 13.3053 17.808 12.1173 19.4027 11.7467C20.5893 11.472 21.4573 11.1093 22.6293 10.94C23.56 11.912 26.2227 14.924 26.2227 17.5333C26.6373 14.6093 25.94 11.9427 25.6453 10.9893C26.6653 11.1733 27.4827 11.496 28.56 11.7467C30.156 12.1173 32.4987 13.3053 32.4987 13.3053L28.7333 10.056C30.9213 10.4907 33.0267 11.272 34.968 12.3707C34.756 12.4693 34.5707 12.62 34.4333 12.808C33.7587 13.776 34.476 15.4507 36.036 16.5493C37.5627 17.6227 39.3187 17.7387 40.0267 16.8413C41.3907 18.7627 42.1627 20.9587 42.1627 23.2907C42.1627 30.864 34.0267 37.0027 23.992 37.0027"
      fill="#333333" />
  </g>
  <defs>
    <clipPath id="clip0_644_877">
      <rect width="48" height="42.6667" fill="white" />
    </clipPath>
  </defs>
</svg>
