<svg width="32" height="48" fill="none" xmlns="http://www.w3.org/2000/svg">
  <path fill-rule="evenodd" clip-rule="evenodd"
    d="M15.845 0.456787C18.2788 0.456787 20.2752 2.5073 20.4478 5.09587H24.6092C28.1634 5.09587 31.0878 7.63273 31.2675 10.8713L31.2686 10.905L31.2946 47.5477L0.759888 47.4487L0.766524 10.9725C0.765418 7.6912 3.69087 5.09587 7.42427 5.09587H11.2423C11.4148 2.5073 13.4112 0.456787 15.845 0.456787ZM29.7097 41.454H2.33985V46.0487L29.7135 46.1364L29.7097 41.454ZM23.6459 19.5939H2.33985V40.0484H29.7091L29.6942 19.5939H25.2148V30.1568H25.9342V33.4151H25.2148V34.7071H23.6459V33.4151H22.8434V30.1568H23.6459V19.5939ZM8.9361 19.6083V30.1572H9.67991V33.4154H8.9361V34.672H7.36665V33.4154H6.58911V30.1572H7.36665V19.6083H8.9361ZM24.6092 6.50149H7.42427C4.5768 6.50149 2.34649 8.48003 2.34649 11.0051L2.3393 11.1558L2.33985 18.1883H29.6931L29.6881 10.9235C29.5415 8.44236 27.3134 6.50149 24.6092 6.50149ZM28.4493 11.3624V12.7681H6.61737V14.9934H4.67075V12.7681H3.70298V11.3624H28.4493ZM15.845 1.8624C14.1312 1.8624 12.7177 3.28263 12.5496 5.09587H19.1404C18.9723 3.28263 17.5588 1.8624 15.845 1.8624Z"
    fill="#333333" />
</svg>
