<svg width="48" height="32" fill="none" xmlns="http://www.w3.org/2000/svg">
  <path fill-rule="evenodd" clip-rule="evenodd"
    d="M47.0124 0V31.7193H0.460022V0H47.0124ZM44.6605 2.32308H2.81229V29.3962H11.8732V21.8173H14.2255V29.3962H44.6605V13.2747H22.9833V10.9516H44.6605V2.32308ZM15.1089 5.53519C16.8489 3.81711 19.4636 3.60372 20.9381 5.05996C22.4127 6.51653 22.1969 9.09912 20.4572 10.8172C19.6131 11.6509 17.9343 12.1858 16.4765 12.5111C17.9343 12.8366 19.6131 13.3713 20.4572 14.2052C22.1973 15.923 22.4127 18.5063 20.9381 19.9618C19.4636 21.4184 16.8489 21.205 15.1089 19.4873C14.2903 18.6785 13.7563 17.0955 13.4243 15.6877C13.0923 17.0955 12.5583 18.6785 11.7394 19.4873C9.99974 21.205 7.38469 21.4184 5.91049 19.9622C4.43596 18.5059 4.65169 15.923 6.39136 14.2052C7.23583 13.3713 8.91434 12.8366 10.3724 12.5111C8.91434 12.1858 7.23583 11.6509 6.39136 10.8169C4.65136 9.09913 4.43596 6.5162 5.91049 5.06029C7.38469 3.60372 9.99974 3.81711 11.7394 5.53519C12.5583 6.34362 13.0923 7.92697 13.4243 9.33475C13.7563 7.92697 14.2903 6.34362 15.1089 5.53519ZM14.7449 13.8455C15.0191 15.5092 15.5612 17.6218 16.2796 18.331C17.3738 19.4116 18.9387 19.625 19.7677 18.8059C20.1078 18.4701 20.2721 18.0121 20.2721 17.514C20.2721 16.7978 19.9324 15.9987 19.2868 15.3611C18.567 14.6503 16.4288 14.1153 14.7449 13.8455ZM12.104 13.8458C10.4191 14.1163 8.28023 14.6516 7.56178 15.3611C6.91626 15.9987 6.57652 16.7978 6.57652 17.514C6.57652 18.0121 6.74084 18.4701 7.08091 18.8063C7.90992 19.625 9.47485 19.4116 10.569 18.331C11.2888 17.6202 11.8308 15.5085 12.104 13.8458ZM19.7677 6.21586C18.9387 5.39747 17.3738 5.61053 16.2796 6.69109C15.5598 7.40228 15.0178 9.51363 14.7446 11.1766C16.4295 10.9058 18.5684 10.3705 19.2868 9.66098C19.9324 9.02346 20.2721 8.22432 20.2721 7.50815C20.2721 7.01002 20.1078 6.55204 19.7677 6.21586ZM10.569 6.69109C9.47485 5.61053 7.90992 5.39747 7.08091 6.21619C6.74084 6.55204 6.57652 7.01002 6.57652 7.50815C6.57652 8.22432 6.91626 9.02346 7.56178 9.66098C8.28158 10.3722 10.4198 10.9068 12.1037 11.177C11.8295 9.51297 11.2874 7.40062 10.569 6.69109Z"
    fill="#333333" />
</svg>
