<svg width="48" height="48" fill="none" xmlns="http://www.w3.org/2000/svg">
  <path fill-rule="evenodd" clip-rule="evenodd"
    d="M47.2727 23.8677C47.2727 36.7215 36.8538 47.1404 24 47.1404C11.1462 47.1404 0.727264 36.7215 0.727264 23.8677C0.727264 11.0139 11.1462 0.594971 24 0.594971C36.8538 0.594971 47.2727 11.0139 47.2727 23.8677Z"
    fill="#3B5998" />
  <path fill-rule="evenodd" clip-rule="evenodd"
    d="M25.6044 37.8184V25.1885H29.8429L30.4785 20.2678H25.6044V17.126C25.6044 15.7005 26 14.7289 28.0436 14.7289H30.6502V10.3231C29.3882 10.1896 28.1199 10.125 26.8509 10.1296C23.0938 10.1296 20.5222 12.4234 20.5222 16.6358V20.2664H16.272V25.1871H20.5222V37.8184H25.6044Z"
    fill="white" />
</svg>
