<svg width="47" height="47" fill="none" xmlns="http://www.w3.org/2000/svg">
  <path fill-rule="evenodd" clip-rule="evenodd"
    d="M25.7545 0.242188C29.9385 0.250813 30.824 0.28704 32.9654 0.37157C35.4309 0.50306 37.1402 0.864659 38.6195 1.45637C40.1317 2.04807 41.4466 2.86989 42.7286 4.15192C44.0435 5.43395 44.8324 6.71599 45.4241 8.261C46.0159 9.74027 46.4103 11.4496 46.5089 13.9151C46.5991 16.1993 46.6343 17.0545 46.6397 22.0081V25.0197C46.6343 29.9733 46.5991 30.8285 46.5089 33.1127C46.3775 35.5782 46.0159 37.2875 45.4241 38.7668C44.8324 40.2789 44.0106 41.5938 42.7286 42.8759C41.4466 44.1908 40.1645 44.9797 38.6195 45.5714C37.1402 46.1631 35.4309 46.5576 32.9654 46.6562C30.6812 46.7464 29.826 46.7816 24.8724 46.787H21.8608C16.9073 46.7816 16.052 46.7464 13.7678 46.6562C11.3024 46.5247 9.59298 46.1631 8.11371 45.5714C6.60157 44.9797 5.28667 44.1579 4.00464 42.8759C2.68973 41.5938 1.90079 40.3118 1.30908 38.7668C0.717373 37.2875 0.322902 35.5782 0.224284 33.1127C0.139754 30.9713 0.103528 30.0857 0.094902 25.9018V21.126C0.103528 16.9421 0.139754 16.0565 0.224284 13.9151C0.355775 11.4496 0.717373 9.74027 1.30908 8.261C1.90079 6.74886 2.7226 5.43395 4.00464 4.15192C5.28667 2.83702 6.5687 2.04807 8.11371 1.45637C9.59298 0.864659 11.3024 0.470187 13.7678 0.37157C15.9092 0.28704 16.7948 0.250813 20.9787 0.242188H25.7545ZM25.2936 4.44911H21.4396C16.959 4.45615 16.1196 4.49192 13.965 4.57927C11.664 4.67788 10.4477 5.03948 9.62586 5.36821C8.54106 5.79555 7.78499 6.28864 6.96317 7.11046C6.14136 7.8994 5.64827 8.68834 5.22092 9.77314C4.92507 10.595 4.5306 11.8441 4.43198 14.1123C4.34463 16.2669 4.30886 17.1063 4.30183 21.5869V25.4397C4.30886 29.9149 4.34463 30.7318 4.43198 32.9155C4.5306 35.2166 4.8922 36.4328 5.22092 37.2547C5.64827 38.3395 6.14136 39.0955 6.96317 39.9173C7.75212 40.7392 8.54106 41.2322 9.62586 41.6596C10.4477 41.9554 11.6968 42.3499 13.965 42.4485C16.1196 42.5359 16.959 42.5717 21.4396 42.5787H25.2924C29.7676 42.5717 30.5845 42.5359 32.7682 42.4485C35.0693 42.3499 36.2856 41.9883 37.1074 41.6596C38.1922 41.2322 38.9482 40.7392 39.7701 39.9173C40.5919 39.1284 41.085 38.3395 41.5123 37.2547C41.8082 36.4328 42.2026 35.1837 42.3012 32.9155C42.3886 30.7609 42.4244 29.9215 42.4314 25.4409V21.5881C42.4244 17.1129 42.3886 16.296 42.3012 14.1123C42.2026 11.8112 41.841 10.595 41.5123 9.77314C41.085 8.68834 40.5919 7.93227 39.7701 7.11046C38.9811 6.28864 38.1922 5.79555 37.1074 5.36821C36.2856 5.07235 35.0364 4.67788 32.7682 4.57927C30.6136 4.49192 29.7743 4.45615 25.2936 4.44911ZM23.3666 11.5813C29.974 11.5813 35.3322 16.9067 35.3322 23.5141C35.3322 30.1211 29.974 35.4794 23.3666 35.4794C16.7592 35.4794 11.401 30.1543 11.401 23.5466C11.401 16.9395 16.7592 11.5813 23.3666 11.5813ZM23.3666 15.789C19.0932 15.789 15.6087 19.2732 15.6087 23.5466C15.6087 27.8201 19.0932 31.3049 23.3666 31.3049C27.6401 31.3049 31.1246 27.8201 31.1246 23.5466C31.1246 19.2732 27.6401 15.789 23.3666 15.789ZM35.7924 8.32678C37.3354 8.32678 38.5866 9.57791 38.5866 11.121C38.5866 12.664 37.3354 13.9151 35.7924 13.9151C34.2494 13.9151 32.9982 12.664 32.9982 11.121C32.9982 9.57791 34.2494 8.32678 35.7924 8.32678Z"
    fill="#333333" />
</svg>
