<svg width="48" height="12" fill="none" xmlns="http://www.w3.org/2000/svg">
  <path fill-rule="evenodd" clip-rule="evenodd"
    d="M29.5267 9.64971C29.5267 9.78144 29.6371 9.88811 29.7715 9.88811H31.2418C31.3763 9.88811 31.487 9.78144 31.487 9.64971V6.07631C31.487 5.55737 31.9309 5.13479 32.4633 5.13479H32.9832C33.5177 5.13479 33.9507 5.55737 33.9507 6.07631L33.9569 9.64971C33.9569 9.78144 34.0668 9.88811 34.2022 9.88811H35.6715C35.8058 9.88811 35.9171 9.78144 35.9171 9.64971L35.92 6.07631C35.92 4.49015 34.6141 3.19982 32.9832 3.19982H32.4633C30.8341 3.19982 29.5256 4.49015 29.5256 6.07631L29.5267 9.64971ZM44.603 1.07445C44.5024 0.977561 44.3401 0.977561 44.2403 1.07445L44.1432 1.16867C44.0439 1.26592 44.0419 1.42646 44.1415 1.52317L44.7316 2.09758C44.8117 2.17563 44.8079 2.30203 44.728 2.37918L44.654 2.45279C44.5741 2.52976 44.4464 2.5335 44.368 2.45474L43.7755 1.87998C43.47 1.58397 43.4668 1.1045 43.7721 0.806891L43.8693 0.712489C44.1732 0.416484 44.6656 0.419507 44.9699 0.717112L45.5226 1.25454L45.5588 1.28992C45.6379 1.36672 45.6379 1.4933 45.5588 1.57153L45.484 1.64388C45.4049 1.72122 45.2714 1.72744 45.1921 1.64975L44.603 1.07445ZM47.2919 1.52548C47.3909 1.42823 47.3909 1.27108 47.2919 1.17454L47.1947 1.0789C47.0954 0.982894 46.9304 0.980583 46.8314 1.07801L46.2407 1.65188C46.1609 1.73011 46.0303 1.72584 45.9508 1.64851L45.8762 1.57597C45.7972 1.49757 45.7938 1.37455 45.873 1.29774L46.4644 0.720312C46.769 0.424129 47.2614 0.420929 47.5662 0.717112L47.6629 0.811336C47.968 1.10876 47.9643 1.58824 47.6604 1.88424L47.1071 2.42203L47.0706 2.45741C46.9905 2.53421 46.8619 2.53421 46.782 2.45741L46.7064 2.38363C46.6272 2.30683 46.6213 2.17758 46.7003 2.1006L47.2919 1.52548ZM44.1407 3.69921C44.0402 3.7961 44.0402 3.9545 44.1407 4.05086L44.2378 4.14597C44.3367 4.24233 44.5014 4.24464 44.6003 4.1481L45.1912 3.5728C45.2711 3.49547 45.4015 3.49903 45.4814 3.57583L45.5554 3.64961C45.6362 3.72676 45.6379 3.85103 45.5588 3.92801L44.9672 4.50402C44.6624 4.80145 44.1703 4.80447 43.865 4.50758L43.7678 4.41317C43.4639 4.11699 43.4668 3.63752 43.7721 3.34151L44.3243 2.80337L44.3606 2.76781C44.4402 2.6903 44.5707 2.6903 44.6499 2.76781L44.7246 2.84124C44.804 2.91804 44.811 3.04693 44.7312 3.1248L44.1407 3.69921ZM46.828 4.1433C46.9276 4.24019 47.0902 4.24019 47.1897 4.1433L47.2867 4.04908C47.3871 3.95077 47.3888 3.79148 47.2885 3.69458L46.698 3.11964C46.6179 3.04213 46.6221 2.91573 46.702 2.8375L46.7767 2.76497C46.8566 2.68781 46.9832 2.68443 47.0627 2.76177L47.6545 3.33813C47.96 3.63432 47.9628 4.11379 47.6584 4.41086L47.5625 4.50402C47.2571 4.80145 46.7644 4.79825 46.4605 4.501L45.9071 3.96321L45.8712 3.92801C45.7913 3.85103 45.7913 3.72463 45.8712 3.64658L45.9456 3.57352C46.0251 3.49689 46.1575 3.49031 46.2372 3.56818L46.828 4.1433ZM6.41273 7.6751C6.41273 6.93553 6.12416 6.26121 5.65262 5.75098C6.11204 5.24377 6.3915 4.57922 6.3915 3.8521V3.36889H6.3849C6.36493 3.25707 6.26523 3.17084 6.14343 3.17084H4.6744C4.55331 3.17084 4.45361 3.25707 4.43346 3.36889L4.40243 3.8521C4.40243 4.36997 3.96923 4.79256 3.43473 4.79256V4.79825H2.93751C2.59491 4.79825 2.2664 4.85638 1.95983 4.96092V0.770446C1.95983 0.639777 1.85032 0.532042 1.71442 0.532042H0.244688C0.109325 0.532042 0 0.639777 0 0.770446V9.64811C0 9.77931 0.109325 9.88705 0.244688 9.88705H1.71442C1.85032 9.88705 1.95983 9.77931 1.95983 9.64811V7.6751H1.97017C1.97017 7.15562 2.40337 6.73357 2.93751 6.73357H3.45649C3.9892 6.73357 4.42383 7.15562 4.42383 7.6751V8.15653H4.42972V9.64811C4.42972 9.77931 4.53975 9.88705 4.6744 9.88705H6.14343C6.28004 9.88705 6.38865 9.77931 6.38865 9.64811L6.41273 8.15653V7.6751ZM13.7568 5.03701C13.7568 4.90598 13.6453 4.79825 13.5107 4.79825H12.0416C11.9063 4.79825 11.7968 4.90598 11.7968 5.03701V8.60969C11.7968 9.12917 11.3523 9.55157 10.818 9.55157H10.2987C9.76631 9.55157 9.33133 9.12917 9.33133 8.60969L9.32705 5.03701C9.32705 4.90598 9.21558 4.79825 9.08165 4.79825H7.61209C7.47655 4.79825 7.36722 4.90598 7.36722 5.03701L7.3633 8.60969C7.3633 10.1964 8.66949 11.4867 10.2987 11.4867H10.818C12.4493 11.4867 13.7573 10.1964 13.7573 8.60969L13.7568 5.03701ZM14.7505 9.70002C14.7505 9.83087 14.8611 9.93878 14.9952 9.93878H16.4655C16.6001 9.93878 16.7116 9.83087 16.7116 9.70002L16.7103 6.12609C16.7103 5.60786 17.154 5.18545 17.688 5.18545H18.2065C18.741 5.18545 19.1743 5.60786 19.1743 6.12609L19.1802 9.70002C19.1802 9.83087 19.2904 9.93878 19.4249 9.93878H20.8952C21.0298 9.93878 21.1406 9.83087 21.1406 9.70002L21.144 6.12609C21.144 4.54047 19.8365 3.24907 18.2065 3.24907H17.688C16.0579 3.24907 14.7493 4.54047 14.7493 6.12609L14.7505 9.70002ZM28.5313 5.03701C28.5313 4.90598 28.4208 4.79825 28.2856 4.79825H26.8153C26.681 4.79825 26.5704 4.90598 26.5704 5.03701V8.60969C26.5704 9.12917 26.1267 9.55157 25.5942 9.55157H25.0747C24.54 9.55157 24.107 9.12917 24.107 8.60969L24.1006 5.03701C24.1006 4.90598 23.9911 4.79825 23.8571 4.79825H22.3854C22.2517 4.79825 22.1407 4.90598 22.1407 5.03701L22.1382 8.60969C22.1382 10.1964 23.4437 11.4867 25.0747 11.4867H25.5942C27.2234 11.4867 28.5322 10.1964 28.5322 8.60969L28.5313 5.03701ZM43.3057 5.03701C43.3057 4.90598 43.1959 4.79825 43.0612 4.79825H41.5908C41.4568 4.79825 41.3454 4.90598 41.3454 5.03701V8.60969C41.3454 9.12917 40.9022 9.55157 40.3689 9.55157H39.8491C39.3153 9.55157 38.8821 9.12917 38.8821 8.60969L38.876 5.03701C38.876 4.90598 38.7662 4.79825 38.6308 4.79825H37.1611C37.0271 4.79825 36.9157 4.90598 36.9157 5.03701L36.9125 8.60969C36.9125 10.1964 38.2188 11.4867 39.8491 11.4867H40.3689C41.9983 11.4867 43.3073 10.1964 43.3073 8.60969L43.3057 5.03701Z"
    fill="#FFFFFE" />
</svg>
