<svg width="48" height="48" fill="none" xmlns="http://www.w3.org/2000/svg">
  <path
    d="M24 48C37.2548 48 48 37.2548 48 24C48 10.7452 37.2548 0 24 0C10.7452 0 0 10.7452 0 24C0 37.2548 10.7452 48 24 48Z"
    fill="#1686B0" />
  <path
    d="M17.4 34.9007H12.7992V20.0999H17.4V34.9007ZM14.8992 18.1991C13.2 18.1991 12.1008 17.0999 12.1008 15.5999C12.1008 14.0999 13.2 13.0007 14.8992 13.0007C16.6008 13.0007 17.7 14.0999 17.7 15.5999C17.7 17.0999 16.6992 18.1991 14.8992 18.1991ZM35.8992 34.9007H30.6V27.1991C30.6 25.1999 29.8008 23.8007 28.0008 23.8007C26.5992 23.8007 25.9008 24.7007 25.5 25.6007C25.3992 25.9007 25.3992 26.3999 25.3992 26.8007V34.7999H20.2008C20.2008 34.7999 20.2992 21.1991 20.2008 19.9991H25.3992V22.3007C25.6992 21.2999 27.4008 19.7999 30 19.7999C33.3 19.7999 35.8992 21.8999 35.8992 26.5007V34.9007Z"
    fill="white" />
</svg>
