<svg width="47" height="48" fill="none" xmlns="http://www.w3.org/2000/svg">
  <path fill-rule="evenodd" clip-rule="evenodd"
    d="M23.3427 0.727295C10.4447 0.727295 0 11.1484 0 24.0175C0 33.8791 6.1336 42.3066 14.8258 45.6991C14.6155 43.8457 14.4403 41.048 14.8959 39.0198C15.3165 37.2013 17.6297 27.4442 17.6297 27.4442C17.6297 27.4442 16.9287 26.0454 16.9287 23.9825C16.9287 20.7303 18.8214 18.3174 21.1346 18.3174C23.1325 18.3174 24.0788 19.8211 24.0788 21.6046C24.0788 23.5979 22.817 26.6053 22.1511 29.3676C21.5903 31.676 23.3077 33.564 25.6209 33.564C29.7567 33.564 32.9462 29.1928 32.9462 22.8985C32.9462 17.3382 28.9156 13.4215 23.2025 13.4215C16.5783 13.4215 12.6527 18.3873 12.6527 23.5279C12.6527 25.5209 13.4238 27.6894 14.4052 28.8431C14.5805 29.0882 14.6155 29.2631 14.5805 29.5078C14.4052 30.2419 14.0197 31.8155 13.9496 32.1306C13.8444 32.5503 13.5991 32.6552 13.1785 32.4453C10.2694 31.0815 8.44685 26.8501 8.44685 23.423C8.44685 16.0793 13.8094 9.32999 23.8685 9.32999C31.9648 9.32999 38.2386 15.1001 38.2386 22.7586C38.2386 30.7664 33.1565 37.2359 26.1467 37.2359C23.7984 37.2359 21.5552 36.012 20.7842 34.5785C20.7842 34.5785 19.6275 39.0198 19.3471 40.1038C18.8214 42.1318 17.3844 44.65 16.4381 46.2236C18.6111 46.8881 20.9244 47.2728 23.3427 47.2728C36.2408 47.2728 46.6855 36.8516 46.6855 23.9825C46.6855 11.1484 36.2408 0.727295 23.3427 0.727295Z"
    fill="#FF4444" />
</svg>
