<svg width="48" height="48" fill="none" xmlns="http://www.w3.org/2000/svg">
  <path
    d="M24 48C37.2548 48 48 37.2548 48 24C48 10.7452 37.2548 0 24 0C10.7452 0 0 10.7452 0 24C0 37.2548 10.7452 48 24 48Z"
    fill="black" />
  <path fill-rule="evenodd" clip-rule="evenodd"
    d="M30.3729 19.7968C32.2712 21.1527 34.7119 21.9663 37.2881 21.9663V17.0849C36.7458 17.0849 36.339 17.0849 35.7966 16.9493V20.8815C33.2203 20.8815 30.7797 20.068 28.8814 18.7121V28.746C28.8814 33.7629 24.8136 37.8307 19.7966 37.8307C17.8983 37.8307 16.1356 37.2883 14.6441 36.3392C16.2712 38.1019 18.5763 39.051 21.1525 39.051C26.1695 39.051 30.2373 34.9832 30.2373 29.9663L30.3729 19.7968ZM32.1356 14.9154C31.1864 13.8307 30.5085 12.4748 30.3729 10.8476V10.1697H29.017C29.2881 12.2036 30.5085 13.8307 32.1356 14.9154ZM17.7627 32.5426C17.2203 31.8646 16.9492 30.9154 16.9492 29.9663C16.9492 27.6612 18.8475 25.7629 21.1525 25.7629C21.5593 25.7629 21.9661 25.7629 22.3729 25.8985V20.8815C21.8305 20.8815 21.4237 20.7459 20.8814 20.7459V24.6782C20.4746 24.5426 20.0678 24.5426 19.661 24.5426C17.3559 24.5426 15.4576 26.4409 15.4576 28.746C15.4576 30.3731 16.4068 31.729 17.7627 32.5426Z"
    fill="#FF1753" />
  <path fill-rule="evenodd" clip-rule="evenodd"
    d="M28.8814 18.712C30.7797 20.0679 33.2203 20.8814 35.7966 20.8814V16.9492C34.3051 16.6781 33.0847 15.8645 32.1356 14.9153C30.5085 13.8306 29.2881 12.2035 29.017 10.3052H25.3559V30.1018C25.3559 32.4069 23.4576 34.3052 21.1525 34.3052C19.7966 34.3052 18.5763 33.6272 17.7627 32.6781C16.4068 32.0001 15.4576 30.5086 15.4576 28.8814C15.4576 26.5764 17.3559 24.6781 19.661 24.6781C20.0678 24.6781 20.4746 24.8137 20.8814 24.8137V20.8814C15.8644 21.017 11.9322 25.0848 11.9322 29.9662C11.9322 32.4069 12.8814 34.712 14.5085 36.3391C16 37.2882 17.7627 37.8306 19.661 37.8306C24.678 37.8306 28.7458 33.7628 28.7458 28.7459V18.712H28.8814Z"
    fill="white" />
  <path fill-rule="evenodd" clip-rule="evenodd"
    d="M35.7966 16.9492V15.8645C34.4407 15.8645 33.2203 15.4577 32.1356 14.7797C33.0847 16.0001 34.3051 16.678 35.7966 16.9492ZM28.8814 10.1696C28.8814 10.034 28.8814 9.76278 28.7458 9.62718V8.94922H23.7288V28.7458C23.7288 31.0509 21.8305 32.9492 19.5254 32.9492C18.8475 32.9492 18.1695 32.8136 17.6271 32.5424C18.4407 33.4916 19.661 34.1696 21.017 34.1696C23.322 34.1696 25.2203 32.2713 25.2203 29.9662V10.1696H28.8814ZM21.017 20.8814V19.7967C20.6102 19.7967 20.2034 19.6611 19.7966 19.6611C14.7797 19.6611 10.7119 23.7289 10.7119 28.7458C10.7119 31.8645 12.339 34.7119 14.7797 36.3391C13.1525 34.7119 12.2034 32.4068 12.2034 29.9662C12.0678 24.9492 16 20.8814 21.017 20.8814Z"
    fill="#00C9D0" />
</svg>
