<svg width="48" height="48" fill="none" xmlns="http://www.w3.org/2000/svg">
  <path fill-rule="evenodd" clip-rule="evenodd"
    d="M24 48C10.7451 48 0 37.2549 0 24C0 10.7451 10.7451 0 24 0C37.2549 0 48 10.7451 48 24C48 37.2549 37.2549 48 24 48Z"
    fill="white" />
  <path
    d="M20.6939 21.0543V19.7967C20.2575 19.7349 19.8173 19.7028 19.3765 19.7007C13.9857 19.7007 9.60001 24.0871 9.60001 29.4779C9.60001 32.7847 11.2527 35.712 13.7738 37.4821C12.0857 35.6768 11.1472 33.2972 11.1486 30.8256C11.1486 25.5116 15.4095 21.1783 20.6939 21.0543Z"
    fill="#00F2EA" />
  <path
    d="M20.9243 35.2903C23.3295 35.2903 25.2916 33.377 25.3809 30.9925L25.3891 9.70633H29.2778C29.1948 9.2619 29.1528 8.81077 29.1523 8.35864H23.8412L23.8324 29.6455C23.7438 32.0293 21.7809 33.9419 19.3765 33.9419C18.6546 33.9422 17.9436 33.7663 17.3051 33.4294C18.1415 34.5963 19.4886 35.289 20.9243 35.2903ZM36.542 16.9314V15.7484C35.1129 15.7498 33.7144 15.334 32.5182 14.5521C33.567 15.7597 34.9784 16.5946 36.542 16.9314Z"
    fill="#00F2EA" />
  <path
    d="M32.5182 14.5513C31.3458 13.2099 30.7 11.4886 30.7008 9.70703H29.2778C29.6501 11.6969 30.8211 13.4475 32.5182 14.5513ZM19.3765 25.0124C16.9119 25.0152 14.9146 27.0125 14.9118 29.4771C14.9134 31.1367 15.8347 32.6586 17.3044 33.4294C16.7553 32.6722 16.4596 31.7608 16.4596 30.8256C16.462 28.3606 18.4594 26.3629 20.9243 26.3601C21.3844 26.3601 21.8253 26.4361 22.2417 26.5668V21.1443C21.8053 21.0825 21.3651 21.0504 20.9243 21.0483C20.8468 21.0483 20.7707 21.0528 20.6939 21.0542V25.2192C20.2679 25.0835 19.8236 25.0138 19.3765 25.0124Z"
    fill="#FF004F" />
  <path
    d="M36.542 16.9314V21.0594C33.7876 21.0594 31.2362 20.1784 29.1523 18.683V29.4771C29.1523 34.8679 24.7673 39.2536 19.3765 39.2536C17.2933 39.2536 15.3615 38.5964 13.7738 37.4813C15.6191 39.4713 18.2104 40.602 20.9243 40.6013C26.3151 40.6013 30.7008 36.2156 30.7008 30.8256V20.0315C32.8536 21.5795 35.439 22.4109 38.0906 22.4078V17.0953C37.5589 17.0953 37.042 17.0385 36.542 16.9314Z"
    fill="#FF004F" />
  <path
    d="M29.1523 29.4771V18.683C31.305 20.2313 33.8904 21.0627 36.542 21.0594V16.9314C34.9786 16.5942 33.5667 15.7591 32.5182 14.5513C30.8211 13.4475 29.6501 11.6969 29.2778 9.70703H25.3891L25.3809 30.9932C25.2916 33.3769 23.3295 35.2903 20.9243 35.2903C19.4887 35.2888 18.1416 34.5962 17.3051 33.4294C15.8351 32.6588 14.9135 31.1368 14.9118 29.4771C14.9146 27.0125 16.9119 25.0152 19.3765 25.0124C19.8358 25.0124 20.2767 25.0877 20.6939 25.2192V21.0542C15.4095 21.1783 11.1486 25.5116 11.1486 30.8256C11.1486 33.3954 12.147 35.7348 13.7738 37.482C15.4138 38.6366 17.3709 39.2554 19.3765 39.2536C24.7673 39.2536 29.1523 34.8679 29.1523 29.4771Z"
    fill="black" />
</svg>
