<svg width="48" height="41" fill="none" xmlns="http://www.w3.org/2000/svg">
  <path fill-rule="evenodd" clip-rule="evenodd"
    d="M47.2035 9.73442C46.9972 14.2832 43.8459 20.512 37.7504 28.4175C31.4492 36.6755 26.1176 40.8041 21.7561 40.8041C19.0553 40.8041 16.7679 38.2907 14.901 33.2606C13.6532 28.6502 12.4069 24.0403 11.1591 19.4304C9.77236 14.4031 8.285 11.8864 6.69474 11.8864C6.34805 11.8864 5.13461 12.6219 3.05722 14.0873L0.876465 11.2549C3.16382 9.22884 5.42059 7.20233 7.64074 5.1735C10.6915 2.51548 12.9816 1.11768 14.5079 0.976829C18.1153 0.627496 20.3355 3.11341 21.1688 8.43456C22.0689 14.1759 22.6923 17.7472 23.0427 19.145C24.0824 23.9083 25.2263 26.287 26.4763 26.287C27.4464 26.287 28.9037 24.7418 30.8466 21.6523C32.7873 18.5624 33.8274 16.2113 33.9674 14.5962C34.2441 11.9298 33.204 10.5926 30.8466 10.5926C29.7366 10.5926 28.5931 10.85 27.4163 11.3589C29.6939 3.83633 34.0462 0.183017 40.4702 0.391498C45.2327 0.532817 47.4779 3.6465 47.2035 9.73442Z"
    fill="#333333" />
</svg>
