<svg width="47" height="47" fill="none" xmlns="http://www.w3.org/2000/svg">
  <path fill-rule="evenodd" clip-rule="evenodd"
    d="M46.5525 23.532C46.5525 36.3852 36.1329 46.8047 23.2797 46.8047C10.4266 46.8047 0.00701904 36.3852 0.00701904 23.532C0.00701904 10.6788 10.4266 0.259277 23.2797 0.259277C36.1329 0.259277 46.5525 10.6788 46.5525 23.532Z"
    fill="#1AB7EA" />
  <path fill-rule="evenodd" clip-rule="evenodd"
    d="M36.5649 18.077C36.443 20.7411 34.5823 24.3894 30.9817 29.0207C27.2603 33.857 24.1107 36.2762 21.5352 36.2762C19.9393 36.2762 18.5884 34.8045 17.4857 31.8577C16.7487 29.1581 16.0129 26.4574 15.2759 23.7566C14.4558 20.8109 13.5781 19.337 12.6383 19.337C12.4333 19.337 11.7163 19.7681 10.4895 20.6259L9.20172 18.968C10.5526 17.7811 11.8847 16.5941 13.1969 15.405C14.9988 13.8491 16.352 13.0301 17.2541 12.947C19.3841 12.7431 20.6951 14.1982 21.1872 17.3156C21.7191 20.6791 22.0882 22.7703 22.2943 23.5893C22.9094 26.3798 23.5854 27.7739 24.3223 27.7739C24.8953 27.7739 25.7564 26.8685 26.9045 25.0577C28.0493 23.2479 28.6644 21.8704 28.7464 20.924C28.9104 19.3625 28.2964 18.5801 26.9045 18.5801C26.2484 18.5801 25.5724 18.7308 24.8776 19.0289C26.223 14.6226 28.794 12.4826 32.5875 12.6045C35.4013 12.6865 36.7278 14.5107 36.5649 18.077Z"
    fill="white" />
</svg>
