<svg width="48" height="48" fill="none" xmlns="http://www.w3.org/2000/svg">
  <path fill-rule="evenodd" clip-rule="evenodd"
    d="M34.6522 28.7556C34.0609 28.4584 31.1539 27.0212 30.6119 26.8228C30.0698 26.6245 29.6756 26.5254 29.2815 27.12C28.8873 27.7148 27.7542 29.0531 27.4091 29.4498C27.0643 29.8461 26.7193 29.8959 26.1282 29.5984C25.5368 29.301 23.6315 28.6737 21.373 26.6493C19.6151 25.074 18.4285 23.1285 18.0835 22.5335C17.7387 21.9389 18.0469 21.6173 18.3429 21.321C18.6089 21.0548 18.9342 20.627 19.2298 20.2802C19.5255 19.9332 19.624 19.6852 19.8211 19.289C20.0182 18.8924 19.9197 18.5454 19.7718 18.2481C19.624 17.9507 18.4414 15.0262 17.9487 13.8364C17.4688 12.6782 16.9813 12.835 16.6183 12.8166C16.2738 12.7994 15.8792 12.7957 15.4851 12.7957C15.0909 12.7957 14.4503 12.9444 13.9083 13.5391C13.3663 14.134 11.8388 15.5714 11.8388 18.4957C11.8388 21.4202 13.9576 24.2452 14.2533 24.6418C14.5489 25.0384 18.4227 31.0395 24.3543 33.6131C25.7651 34.2253 26.8665 34.5909 27.7251 34.8645C29.1417 35.3169 30.4307 35.2531 31.4494 35.1001C32.5854 34.9295 34.9478 33.6628 35.4405 32.275C35.9332 30.887 35.9332 29.6975 35.7854 29.4498C35.6376 29.2019 35.2435 29.0531 34.6522 28.7556ZM23.8633 43.5575H23.8554C20.326 43.5562 16.8643 42.6035 13.8443 40.8027L13.1262 40.3744L5.68184 42.3366L7.6688 35.0435L7.20119 34.2958C5.23228 31.1491 4.19245 27.5124 4.19392 23.778C4.19824 12.8812 13.0218 4.01592 23.8711 4.01592C29.1248 4.01775 34.0633 6.07628 37.7769 9.81195C41.4904 13.5475 43.5343 18.5132 43.5324 23.7939C43.5279 34.6916 34.7044 43.5575 23.8633 43.5575ZM40.6032 6.97334C36.1353 2.47878 30.1936 0.00250831 23.8631 0C10.8195 0 0.203563 10.6661 0.198344 23.7764C0.196642 27.9674 1.28628 32.058 3.35721 35.6641L0 47.9857L12.5449 44.6791C16.0014 46.5735 19.893 47.572 23.8537 47.5734H23.8633C36.9055 47.5734 47.5226 36.9061 47.5278 23.7955C47.5302 17.442 45.071 11.4678 40.6032 6.97334Z"
    fill="#2D69AA" />
</svg>
