<svg width="48" height="48" fill="none" xmlns="http://www.w3.org/2000/svg">
  <path fill-rule="evenodd" clip-rule="evenodd"
    d="M24 0C37.2548 0 48 10.7452 48 24C48 37.2548 37.2548 48 24 48C10.7452 48 0 37.2548 0 24C0 10.7452 10.7452 0 24 0Z"
    fill="#25D366" />
  <path fill-rule="evenodd" clip-rule="evenodd"
    d="M31.483 27.0253C31.1133 26.8356 29.2843 25.9406 28.9438 25.8141C28.6033 25.6876 28.3601 25.6293 28.1072 26.0038C27.8542 26.3784 27.1343 27.2101 26.9251 27.4631C26.716 27.716 26.4922 27.7452 26.1225 27.5555C25.0274 27.1171 24.0168 26.4916 23.1359 25.7071C22.3232 24.9552 21.625 24.0882 21.0637 23.1339C20.9794 23.0121 20.9494 22.8609 20.9807 22.7162C21.0121 22.5714 21.102 22.4462 21.2291 22.3702C21.3993 22.2048 21.5988 21.9373 21.7885 21.7184C21.9402 21.5291 22.0646 21.3195 22.1581 21.0957C22.2572 20.8871 22.2463 20.6429 22.129 20.4439C22.0317 20.2591 21.2874 18.4301 20.9859 17.681C20.6843 16.9319 20.3729 17.0584 20.1443 17.0438C19.9157 17.0292 19.6822 17.0438 19.4341 17.0438C19.0567 17.0649 18.7047 17.2409 18.4613 17.5302C17.6103 18.3358 17.1373 19.462 17.1577 20.6336C17.1577 22.4626 18.4905 24.2283 18.6753 24.4813C18.8602 24.7342 21.268 28.4603 25.0135 30.0655C25.7049 30.364 26.4112 30.627 27.1294 30.8535C27.8873 31.0841 28.6886 31.1341 29.4692 30.9994C30.1842 30.8973 31.6678 30.1044 31.9791 29.2337C32.2232 28.6792 32.2993 28.0653 32.198 27.468C32.1105 27.3026 31.8624 27.2101 31.4878 27.0204L31.483 27.0253ZM35.2285 13.4053C29.9491 8.13368 21.582 7.58663 15.6612 12.126C9.74033 16.6653 8.0964 24.8876 11.8167 31.3545L9.70557 39.0547L17.5954 36.9874C19.775 38.1728 22.2162 38.7948 24.6973 38.7969C30.7164 38.7987 36.1438 35.1741 38.4481 29.6135C40.7524 24.0529 39.4797 17.6518 35.2236 13.3956L35.2285 13.4053ZM24.707 36.2869C22.4828 36.2912 20.2984 35.6964 18.3835 34.5649L17.9311 34.2925L13.276 35.5038L14.5261 30.9411L14.2342 30.4546C11.2584 25.67 11.8951 19.4783 15.7824 15.3995C19.6698 11.3206 25.8236 10.387 30.7458 13.1294C35.6679 15.8718 38.1124 21.596 36.6895 27.048C35.2667 32.5 30.3367 36.2996 24.7022 36.2869H24.707Z"
    fill="white" />
</svg>
