<svg width="48" height="47" fill="none" xmlns="http://www.w3.org/2000/svg">
  <path
    d="M24 46.8047C11.1465 46.8047 0.727264 36.3855 0.727264 23.532C0.727264 10.6785 11.1465 0.259277 24 0.259277C36.8535 0.259277 47.2727 10.6785 47.2727 23.532C47.2727 36.3855 36.8535 46.8047 24 46.8047Z"
    fill="white" />
  <path
    d="M22.2708 20.5973L17.8025 28.3727C17.4883 28.894 17.1136 29.1593 16.6737 29.1593H12.5219C12.0308 29.1593 11.7492 28.6869 11.9796 28.2517L16.3782 20.6136C16.3921 20.6136 16.3921 20.6066 16.3782 20.595L13.5808 15.8357C13.3062 15.3446 13.5971 14.9443 14.123 14.9443H18.2726C18.738 14.9443 19.122 15.2027 19.4199 15.7123L22.2708 20.5996V20.5973Z"
    fill="#005A5F" />
  <path
    d="M36.0134 10.4527L26.944 26.2828V26.3015L32.7133 36.7276C32.96 37.1745 32.7272 37.612 32.178 37.612H28.0727C27.5933 37.612 27.2163 37.3607 26.937 36.8487L21.1188 26.3015L30.2371 10.3317C30.528 9.82436 30.8934 9.56836 31.3402 9.56836H35.4781C35.9831 9.56836 36.2531 9.98727 36.0134 10.4527Z"
    fill="#D4D600" />
</svg>
