<svg width="48" height="20" fill="none" xmlns="http://www.w3.org/2000/svg">
  <path fill-rule="evenodd" clip-rule="evenodd"
    d="M47.44 4.73538C47.44 4.73538 47.1627 2.87404 46.3165 2.05686C45.248 0.98545 44.0551 0.972413 43.5005 0.919079C39.5597 0.650635 33.6634 0.650635 33.6634 0.650635H33.6498C33.6498 0.650635 27.7535 0.650635 23.8139 0.918487C23.2587 0.98545 22.0658 0.98545 20.9973 2.05686C20.1511 2.87404 19.8738 4.73538 19.8738 4.73538C19.8738 4.73538 19.5965 6.91849 19.5965 9.10101V11.1502C19.5965 13.3327 19.8738 15.5158 19.8738 15.5158C19.8738 15.5158 20.1511 17.3772 20.9973 18.1943C22.0658 19.2657 23.4667 19.2391 24.0913 19.3457C26.3384 19.5472 33.6498 19.6136 33.6498 19.6136C33.6498 19.6136 39.5597 19.6006 43.4868 19.3327C44.0415 19.2657 45.2344 19.2657 46.3028 18.1943C47.149 17.3772 47.4264 15.5158 47.4264 15.5158C47.4264 15.5158 47.7037 13.3327 47.7037 11.1502V9.10101C47.7179 6.91849 47.44 4.73538 47.44 4.73538ZM18.1535 16.0112H16.3639V15.0204C15.6842 15.7706 15.1153 16.1452 14.4913 16.1452C13.936 16.1452 13.5609 15.8903 13.3671 15.4489C13.2563 15.168 13.1727 14.7389 13.1727 14.1096V6.83849H14.9624V14.2975C15.0039 14.5517 15.1153 14.6453 15.3369 14.6453C15.6842 14.6453 15.9888 14.3644 16.3639 13.8417V6.83789H18.1535V16.0112ZM9.28831 6.77093C10.0516 6.77093 10.8006 7.02575 11.2723 7.65449C11.6326 8.12323 11.8412 8.85982 11.8412 9.8376H11.8133V13.1052C11.8133 14.0699 11.6468 14.7526 11.2859 15.2077C10.8142 15.824 10.0237 16.1588 9.27408 16.1588C8.52505 16.1588 7.74816 15.8376 7.27705 15.2077C6.91557 14.7526 6.73542 14.0829 6.73542 13.1052V9.8376C6.73542 8.85982 6.94342 8.12323 7.30431 7.65449C7.79023 7.02515 8.44208 6.77152 9.28831 6.77152V6.77093ZM2.51794 3.74456L3.83586 8.52501L5.15379 3.74456H7.13779L4.77927 11.0163V16.0118H2.89245V11.0163C2.89245 11.0163 2.35082 9.3173 1.77838 7.5419L1.66401 7.18634C1.18579 5.70367 0.711121 4.24293 0.533936 3.74397H2.51853L2.51794 3.74456ZM9.30194 8.32412C8.74727 8.32412 8.45571 8.75315 8.5529 9.66338V13.293C8.45571 14.2032 8.74727 14.6589 9.30194 14.6589C9.85719 14.6589 10.1482 14.2032 10.0516 13.293V9.66338C10.1482 8.75315 9.85719 8.32412 9.30194 8.32412Z"
    fill="#333333" />
  <path fill-rule="evenodd" clip-rule="evenodd"
    d="M41.9739 9.38243C41.9739 8.53858 42.2098 8.29799 42.7787 8.29799C43.3476 8.29799 43.5698 8.55221 43.5698 9.39547V10.3869H41.9733L41.9739 9.38243ZM45.3594 11.7392V9.87784C45.3594 8.91369 45.165 8.20376 44.8041 7.73502C44.3324 7.11873 43.6527 6.78451 42.7923 6.78451C41.9188 6.78451 41.2385 7.11932 40.7532 7.73502C40.3923 8.19073 40.1843 8.94036 40.1843 9.91814V13.1051C40.1843 14.0692 40.4201 14.7525 40.781 15.1946C41.2806 15.8109 41.9461 16.119 42.848 16.119C43.7357 16.119 44.4433 15.7967 44.915 15.1276C45.1235 14.8331 45.2622 14.5113 45.3179 14.1362C45.3315 13.9762 45.373 13.6005 45.373 13.0654V12.8106H43.5834C43.5834 13.4672 43.5834 13.8684 43.5698 13.949C43.4726 14.391 43.2225 14.6049 42.8065 14.6049C42.224 14.6049 41.9739 14.1765 41.9739 13.3463V11.7125H45.3594V11.7392ZM37.2563 13.373C37.2563 14.2838 37.0347 14.6322 36.5487 14.6322C36.2714 14.6322 35.9384 14.4983 35.661 14.2168V8.69976C35.9526 8.43132 36.2714 8.28436 36.5487 8.28436C37.0347 8.28436 37.2563 8.55221 37.2563 9.46243V13.373ZM37.4643 6.78451C36.8403 6.78451 36.2157 7.15902 35.661 7.81562V3.85117H33.9686V16.0248H35.661V15.114C36.2299 15.7972 36.8539 16.1451 37.4507 16.1451C38.1304 16.1451 38.6299 15.7972 38.8521 15.114C38.963 14.7258 39.0459 14.1362 39.0459 13.2929V9.66332C39.0459 8.80643 38.9351 8.21739 38.8243 7.85591C38.5884 7.15902 38.1446 6.78451 37.4643 6.78451ZM29.3487 6.93147V14.2974C29.3902 14.5516 29.501 14.6452 29.7233 14.6452C30.0699 14.6452 30.3751 14.3644 30.7496 13.8417V6.93206H32.5393V16.0112H30.7638V15.0204C30.0841 15.7706 29.5153 16.1451 28.8913 16.1451C28.336 16.1451 27.9609 15.8903 27.7671 15.4488C27.6563 15.1679 27.5727 14.7389 27.5727 14.1095V6.93147H29.3487ZM27.8501 3.83813V5.56554H25.7695V16.0112H23.8969V5.56554H21.9123V3.83813H27.8501Z"
    fill="white" />
</svg>
