<svg width="47" height="47" fill="none" xmlns="http://www.w3.org/2000/svg">
  <path fill-rule="evenodd" clip-rule="evenodd"
    d="M23.5033 46.8042C10.651 46.8042 0.230591 36.3853 0.230591 23.5315C0.230591 10.6792 10.651 0.258789 23.5033 0.258789C36.3571 0.258789 46.776 10.6792 46.776 23.5315C46.776 36.3853 36.3571 46.8042 23.5033 46.8042Z"
    fill="#FF0000" />
  <path fill-rule="evenodd" clip-rule="evenodd"
    d="M20.891 26.7447L20.8895 19.7861L27.5805 23.2771L20.891 26.7447ZM35.5834 18.5803C35.5834 18.5803 35.3419 16.8741 34.5986 16.1221C33.6575 15.1345 32.6015 15.1301 32.1172 15.0734C28.6525 14.8218 23.4539 14.8218 23.4539 14.8218H23.4423C23.4423 14.8218 18.2423 14.8218 14.7775 15.0734C14.2932 15.1316 13.2372 15.1345 12.2961 16.1221C11.5543 16.8741 11.3099 18.5803 11.3099 18.5803C11.3099 18.5803 11.0641 20.5832 11.0641 22.589V24.4669C11.0641 26.4712 11.3114 28.4756 11.3114 28.4756C11.3114 28.4756 11.5528 30.1832 12.2961 30.9338C13.2372 31.9214 14.475 31.8894 15.0263 31.9927C17.0074 32.1818 23.4481 32.24 23.4481 32.24C23.4481 32.24 28.6525 32.2341 32.1172 31.9825C32.6015 31.9243 33.659 31.9214 34.5986 30.9352C35.3419 30.1832 35.5834 28.4756 35.5834 28.4756C35.5834 28.4756 35.8306 26.4712 35.8306 24.4669V22.589C35.8306 20.5832 35.5834 18.5803 35.5834 18.5803Z"
    fill="white" />
</svg>
