<svg width="82" height="16" viewBox="0 0 82 16" fill="none" xmlns="http://www.w3.org/2000/svg">
<path fill-rule="evenodd" clip-rule="evenodd" d="M17.7267 0.02378C18.0209 0.0625325 18.3133 0.150607 18.5687 0.288002C19.2398 0.652628 19.6044 1.22159 19.6925 1.98431C19.7242 2.26791 19.7312 2.5515 19.7295 2.8351C19.7295 4.81148 19.7259 6.7861 19.7242 8.76248C19.7242 9.08483 19.6255 9.18524 19.3102 9.18524H17.9011C17.621 9.18524 17.5136 9.07603 17.5136 8.79067L17.5153 3.49742C17.5153 3.32127 17.5118 3.14865 17.4871 2.9725C17.3903 2.26791 16.7967 1.92266 16.1484 2.20273C15.6799 2.40706 15.5038 2.81396 15.4492 3.29661C15.4157 3.57845 15.4086 3.86381 15.4086 4.1474V8.75191C15.4086 9.08659 15.3135 9.18524 14.9877 9.18524H13.5961C13.3037 9.18524 13.1998 9.07955 13.1998 8.78362L13.2016 3.74579C13.2128 3.42527 13.1772 3.10482 13.0959 2.79459C12.9726 2.37536 12.7119 2.14284 12.3349 2.11642C11.8259 2.08119 11.5018 2.25029 11.308 2.66248C11.1598 3.00691 11.0894 3.37982 11.1019 3.75459C11.0949 5.4051 11.0966 7.05385 11.0949 8.70435C11.0949 9.10949 11.0156 9.18524 10.6105 9.18524H9.27356C8.99173 9.18524 8.88428 9.07955 8.88428 8.79595V0.601545C8.88428 0.296809 8.9794 0.196405 9.27356 0.196405H10.6299C10.8765 0.196405 10.9874 0.307378 10.9874 0.55927C10.9892 0.890428 10.9874 1.21982 11.0139 1.55627C11.079 1.41887 11.1407 1.27795 11.2129 1.14408C11.3732 0.849914 11.5881 0.583931 11.8611 0.390168C12.4547 -0.0308259 13.2632 -0.103047 13.9343 0.147084C14.0964 0.208735 14.2514 0.291525 14.3888 0.395452C14.6919 0.6349 14.9339 0.942761 15.0951 1.29381L15.2307 1.55627L15.3065 1.38188C15.4597 1.05248 15.6852 0.754794 15.9653 0.525802C16.1446 0.385189 16.3442 0.272366 16.5571 0.191121C16.8108 0.0871933 17.0626 0.00792666 17.3374 0.00088074C17.466 -0.00264222 17.5964 0.00616518 17.7267 0.02378Z" fill="#343F48"/>
<path fill-rule="evenodd" clip-rule="evenodd" d="M4.75369 5.49372C4.75369 5.33695 4.75016 5.18017 4.75369 5.0234C4.75721 4.93533 4.74136 4.89481 4.63919 4.89834C4.32467 4.8999 4.01098 4.93057 3.70211 4.98993C2.75798 5.1925 2.29296 5.79317 2.36694 6.71442C2.42683 7.4472 2.94117 7.85938 3.59994 7.69733C3.93328 7.60675 4.21746 7.38839 4.39083 7.08962C4.70437 6.60345 4.76602 6.05739 4.75369 5.49372ZM4.3556 0.0348905C4.45776 0.0472209 4.56169 0.0648369 4.66385 0.0877361C5.17467 0.202232 5.69077 0.346673 6.11704 0.669024C6.71593 1.12172 6.96253 1.75586 6.99776 2.48863C7.0506 3.64592 7.00657 4.80674 7.0189 5.96579C7.02066 6.08557 7.0189 6.20711 7.02418 6.32866C7.03475 6.68624 7.13867 7.01563 7.33595 7.31332L7.52091 7.57755C7.79393 7.95979 7.78688 8.01263 7.43636 8.31737L6.46757 9.17169C6.23858 9.37426 6.10471 9.37426 5.87748 9.17697C5.60531 8.94078 5.37278 8.66245 5.18876 8.3526C5.1095 8.22049 5.06194 8.19407 4.93864 8.32089C4.50532 8.77007 4.01741 9.13998 3.39738 9.27914C2.82315 9.40949 2.24187 9.43943 1.67117 9.2809C1.23144 9.16787 0.838339 8.91955 0.547371 8.57102C0.406456 8.39487 0.295486 8.19583 0.212698 7.98621C0.170581 7.87754 0.135284 7.76635 0.107011 7.65329C-0.157204 6.61402 0.061214 5.499 0.836247 4.74333C1.39991 4.19374 2.10624 3.96475 2.84957 3.82383C3.42204 3.71462 3.99979 3.65649 4.5793 3.60541C4.70789 3.59484 4.76778 3.55961 4.75545 3.41165C4.74136 3.21436 4.75721 3.01531 4.74664 2.81627C4.72022 2.28782 4.48595 1.95138 4.04559 1.81575C3.86649 1.75984 3.67797 1.74054 3.49126 1.759C3.30455 1.77746 3.12346 1.8333 2.95878 1.9232C2.80703 2.00297 2.67489 2.11547 2.57193 2.25255C2.46896 2.38964 2.39774 2.54789 2.36341 2.71586C2.30529 2.9519 2.21017 3.04702 2.03931 3.02941C1.54303 2.98366 1.04743 2.93081 0.552655 2.87087C0.335998 2.84445 0.249688 2.70353 0.290201 2.48335C0.335999 2.24026 0.408218 2.00599 0.513904 1.78228C0.982447 0.774713 1.93186 0.292067 2.96406 0.101827C3.43261 0.0137529 3.89058 -0.0232383 4.3556 0.0348905ZM25.8804 5.54304C25.8804 5.37394 25.8751 5.20483 25.8804 5.03573C25.8839 4.93885 25.8628 4.89481 25.7536 4.89834C25.4453 4.90714 25.1371 4.92476 24.8341 4.98817C23.8565 5.19074 23.395 5.81607 23.5007 6.79193C23.587 7.58812 24.3215 7.97212 25.0085 7.58107C25.266 7.42567 25.4733 7.19941 25.6056 6.92932C25.8363 6.49424 25.8733 6.02216 25.8804 5.54304ZM25.4629 0.0366527C25.6285 0.0542675 25.7976 0.0824518 25.9632 0.121204C26.4916 0.239223 27.0007 0.440031 27.4075 0.811703C27.9518 1.31196 28.1192 1.969 28.1297 2.67535C28.1438 3.78156 28.1509 4.88777 28.1333 5.99221C28.1227 6.60169 28.2742 7.13365 28.6564 7.60045C28.7064 7.66061 28.7496 7.72619 28.785 7.79597C28.8554 7.94217 28.8431 8.07076 28.7145 8.1835C28.3288 8.51818 27.9501 8.85814 27.5661 9.19106C27.3565 9.37426 27.2155 9.36721 27.0024 9.1805C26.7186 8.93024 26.4755 8.63725 26.282 8.31209C26.2203 8.20992 26.1798 8.20287 26.0918 8.29271C25.6479 8.74717 25.1582 9.13822 24.5241 9.27737C23.8582 9.42358 23.1907 9.45352 22.5425 9.19635C21.7287 8.87576 21.3006 8.23634 21.1773 7.38026C21.0188 6.28814 21.2636 5.32638 22.1268 4.5936C22.6023 4.18846 23.1748 3.99294 23.7719 3.86259C24.4013 3.73792 25.0378 3.65262 25.6778 3.60717C25.8311 3.59484 25.8998 3.55433 25.8839 3.38346C25.8645 3.19146 25.8733 2.99594 25.8645 2.80394C25.8205 1.9003 25.1282 1.68364 24.5382 1.77523C23.9886 1.85978 23.6222 2.16452 23.4813 2.72996C23.4144 2.99418 23.3263 3.05054 23.0568 3.02412C22.6019 2.97869 22.1474 2.92878 21.6934 2.8744C21.4539 2.84621 21.364 2.69825 21.4169 2.45164C21.6811 1.2327 22.4597 0.528105 23.6081 0.202232C24.2229 0.0260836 24.8411 -0.0338065 25.4629 0.0366527ZM50.0596 0.0507452C50.958 0.212801 51.7841 0.906824 51.9585 1.90382C52.0289 2.30368 52.0606 2.70529 52.0606 3.11043C52.0642 5.01283 52.0642 6.91699 52.0642 8.82115C52.0642 9.06952 51.9532 9.18402 51.7048 9.18578H50.2076C49.968 9.18578 49.8536 9.06247 49.8536 8.81234V3.70053C49.8591 3.4104 49.8266 3.1208 49.7567 2.83917C49.651 2.44812 49.4396 2.16452 49.0204 2.10287C48.5924 2.03769 48.263 2.21208 48.0287 2.56614C47.7821 2.93605 47.694 3.36585 47.6799 3.8027C47.6306 5.36161 47.6676 6.92052 47.657 8.47943C47.657 8.59921 47.6606 8.72075 47.657 8.84053C47.6482 9.06071 47.539 9.18225 47.3259 9.18402C46.8098 9.1893 46.2919 9.1893 45.7758 9.18402C45.5539 9.18225 45.4535 9.05719 45.4535 8.80001L45.4517 5.77379L45.45 0.624986C45.45 0.283259 45.5345 0.196947 45.8692 0.196947H47.1691C47.4369 0.196947 47.5355 0.297351 47.5355 0.566857V1.69773C47.6148 1.67483 47.613 1.60261 47.6341 1.55505C47.7574 1.2785 47.8984 1.01427 48.0833 0.776474C48.5941 0.124727 49.348 -0.0796043 50.0596 0.0507452ZM39.3378 4.56013C39.3378 4.88601 39.3202 5.21364 39.3431 5.53775C39.3783 6.04506 39.4435 6.54708 39.6724 7.01035C39.8503 7.36793 40.1128 7.61278 40.5267 7.62687C40.9495 7.6392 41.2665 7.44367 41.4814 7.07552C41.5959 6.88176 41.6717 6.67215 41.721 6.45372C41.9077 5.62054 41.883 4.77503 41.8443 3.92952C41.833 3.42825 41.7475 2.93141 41.5906 2.45516C41.4268 1.99366 41.108 1.75409 40.6271 1.73472C40.1762 1.7171 39.8574 1.93024 39.646 2.32658C39.5729 2.46534 39.5156 2.61187 39.4752 2.76342C39.3149 3.35176 39.3166 3.95594 39.3378 4.56013ZM40.9671 0.0736436C42.1068 0.20047 43.1865 0.889209 43.7079 2.1152C44.4301 3.81679 44.4741 5.55361 43.7044 7.2552C43.1988 8.37021 42.3498 9.0977 41.1256 9.31613C40.4331 9.44064 39.7188 9.34045 39.0873 9.0302C38.4557 8.71995 37.9398 8.21589 37.6151 7.59164C37.1131 6.66158 36.9334 5.6593 36.9405 4.61122C36.9457 3.63359 37.1131 2.6912 37.5869 1.82456C37.9094 1.22666 38.4046 0.739806 39.0078 0.427481C39.6111 0.115157 40.2927 -0.00814765 40.9671 0.0736436Z" fill="#343F48"/>
<path fill-rule="evenodd" clip-rule="evenodd" d="M20.3425 15.9771C20.0571 15.9622 19.7722 15.9387 19.4882 15.9067C15.9459 15.5103 12.955 14.582 10.0821 12.7202C9.16173 12.1178 8.29061 11.4434 7.47692 10.7033C7.44078 10.6718 7.40829 10.6363 7.38004 10.5976C7.3131 10.5042 7.28668 10.4021 7.3589 10.2981C7.43112 10.1924 7.53857 10.1783 7.64601 10.2136C7.73409 10.2435 7.81863 10.2946 7.89966 10.3422C10.1373 11.6353 12.5519 12.5943 15.067 13.1887C16.7403 13.5886 18.4348 13.8281 20.154 13.9109C24.1665 14.0976 28.0206 13.3719 31.7302 11.8236C31.8358 11.7813 31.9362 11.7302 32.0525 11.7267C32.2427 11.7214 32.4118 11.8148 32.4788 11.968C32.5475 12.123 32.5087 12.3062 32.3467 12.4366C32.112 12.621 31.8693 12.795 31.6192 12.958C30.2805 13.8387 28.8361 14.4887 27.3178 14.9731C25.5546 15.5368 23.7368 15.9243 21.8837 15.9877C21.3729 16.0053 20.8568 16.0053 20.3425 15.9771Z" fill="#FE9901"/>
<path fill-rule="evenodd" clip-rule="evenodd" d="M62.5008 6.40057C62.1802 7.39933 61.4615 7.86788 60.4099 7.86084C59.6085 7.85555 58.9092 7.56138 58.2663 7.09283C58.1923 7.03998 58.1958 6.97833 58.1958 6.90611V4.64261C58.1958 3.89222 58.1958 3.14535 58.1923 2.39496C58.1923 2.28575 58.224 2.22234 58.3121 2.16069C58.9849 1.70094 59.7159 1.44024 60.5332 1.46314C61.5161 1.48956 62.1749 1.93345 62.4884 2.87761C62.8724 4.04195 62.8759 5.23447 62.5008 6.40057ZM62.0833 0.270618C61.0229 -0.0816776 59.9978 0.0627634 59.0166 0.577115C58.6815 0.759679 58.3673 0.978218 58.0795 1.22886L58.0285 0.936457C58.0144 0.848383 58.0038 0.756787 57.9862 0.668712C57.9386 0.43972 57.8329 0.346361 57.6057 0.342838C57.3697 0.339315 57.1301 0.339315 56.8941 0.342838C56.6193 0.342838 56.5207 0.443243 56.5207 0.730364V12.2046C56.5207 12.483 56.6228 12.5869 56.8994 12.5904C57.1953 12.5939 57.493 12.5922 57.7907 12.5904C58.1007 12.5886 58.1958 12.4935 58.1958 12.1782V8.23251L58.305 8.31882C58.9973 8.91596 59.7987 9.20837 60.7059 9.23303C62.1273 9.27002 63.3568 8.51082 63.931 7.18971C64.625 5.59029 64.6444 3.95211 64.0755 2.31746C63.7338 1.33103 63.0838 0.603537 62.0833 0.268856M32.8628 6.24908C33.4987 6.23499 34.0958 6.28431 34.6788 6.43227C35.0787 6.53444 35.4591 6.68064 35.8238 6.87264C36.0528 6.99595 36.162 7.18267 36.1602 7.44337V8.5848C36.1584 8.91068 35.9682 9.02517 35.6793 8.88778C33.9989 8.0775 32.2974 8.02641 30.5782 8.74686C30.4637 8.79618 30.3527 8.85255 30.24 8.90715C29.9987 9.02341 29.8155 8.91772 29.7996 8.64293C29.7891 8.47383 29.7961 8.30473 29.7961 8.13563C29.7996 7.8397 29.7996 7.54377 29.8067 7.24784C29.8159 6.9875 29.9031 6.73592 30.0568 6.52563C31.0573 5.07065 32.0543 3.61391 33.0513 2.15716C33.0847 2.1096 33.1164 2.05852 33.1499 2.00744C33.1023 1.95459 33.0442 1.97925 32.9967 1.97925H30.4848C30.1942 1.97749 30.1009 1.88237 30.0991 1.5882V0.518987C30.1026 0.28471 30.2083 0.170214 30.4391 0.170214C32.1794 0.168452 33.9197 0.166691 35.6617 0.170214C35.8907 0.170214 35.9946 0.282947 35.9981 0.520747C36.0034 0.834291 35.9999 1.1496 35.9981 1.46314C35.9981 1.69566 35.8678 1.87356 35.7463 2.04971C35.1896 2.86175 34.6295 3.67203 34.0711 4.48408L32.979 6.06941C32.9438 6.11873 32.9139 6.16981 32.8628 6.24908ZM71.0155 6.24732C71.0155 5.99367 71.012 5.74001 71.0191 5.48636C71.0191 5.39124 70.9926 5.35073 70.8975 5.32959C70.1683 5.1781 69.4355 5.07946 68.6887 5.16753C67.7322 5.28027 67.2566 5.85451 67.3236 6.8198C67.3658 7.41342 67.7129 7.82737 68.28 7.94539C68.4562 7.98062 68.6323 7.99294 68.812 7.98061C69.5923 7.92777 70.2828 7.63713 70.9151 7.1809C70.9926 7.1263 71.0208 7.06465 71.0173 6.96953C71.012 6.72996 71.0173 6.48864 71.0173 6.24732M71.079 8.15676C70.8024 8.39643 70.4999 8.60441 70.1771 8.7768C69.3422 9.21013 68.4685 9.38275 67.5402 9.19427C66.4429 8.97233 65.7048 8.07045 65.6449 6.92196C65.5586 5.23623 66.6542 4.28679 68.0052 4.04371C68.9459 3.87284 69.8724 3.99967 70.7936 4.20576C71.0173 4.25508 71.0173 4.25861 71.0155 4.03314C71.012 3.63504 71.0279 3.23695 70.9997 2.83885C70.938 1.95459 70.5276 1.53536 69.654 1.4649C68.6323 1.37683 67.6442 1.55474 66.6701 1.84714C66.6243 1.86123 66.5802 1.88061 66.5344 1.89118C66.3513 1.93346 66.235 1.86123 66.2244 1.67276C66.2103 1.44376 66.2156 1.21477 66.2244 0.985779C66.2332 0.788494 66.3724 0.696895 66.5327 0.624674C67.0028 0.424966 67.4965 0.285868 68.0017 0.210727C68.8208 0.0750934 69.6434 0.0240114 70.4677 0.163168C71.2199 0.291756 71.8804 0.582399 72.2732 1.30284C72.4899 1.7027 72.5903 2.13955 72.592 2.58873C72.6026 4.625 72.5991 6.66127 72.5991 8.69754C72.5991 8.93886 72.4987 9.04279 72.2662 9.04631C72.0231 9.04983 71.78 9.04983 71.5352 9.04631C71.3168 9.04279 71.2111 8.94943 71.1706 8.72924C71.1388 8.5531 71.1142 8.37342 71.079 8.15676Z" fill="#343F48"/>
<path fill-rule="evenodd" clip-rule="evenodd" d="M77.8921 7.4571L79.7998 1.88026C79.9301 1.49802 80.0587 1.11578 80.1943 0.737057C80.3159 0.402376 80.4057 0.344247 80.7474 0.342486C81.0504 0.338963 81.3534 0.338963 81.6563 0.342486C81.8853 0.344247 81.9646 0.439367 81.9029 0.663075C81.8466 0.865646 81.7655 1.06117 81.6916 1.25669L78.019 10.7458C77.8552 11.1685 77.6455 11.5666 77.3672 11.926C76.9551 12.4597 76.4073 12.7363 75.7467 12.7821C75.3369 12.8188 74.9238 12.7836 74.526 12.6781C74.2618 12.6024 74.1702 12.4914 74.1614 12.2201C74.1552 12.0505 74.1541 11.8808 74.1579 11.7111C74.1649 11.4433 74.2495 11.3641 74.5155 11.4011C74.7814 11.438 75.0457 11.4627 75.3152 11.4451C75.54 11.4395 75.7595 11.3749 75.9515 11.2577C76.1435 11.1406 76.3013 10.9749 76.409 10.7775C76.6979 10.2808 76.8459 9.72413 77.0537 9.19216C77.0854 9.11642 77.0414 9.05124 77.0167 8.98783L73.8267 0.97838C73.7782 0.861555 73.7399 0.740733 73.7123 0.617277C73.6753 0.441129 73.7475 0.346009 73.9219 0.344247C74.3023 0.338963 74.6828 0.342486 75.0633 0.344247C75.3064 0.346009 75.4156 0.508065 75.4895 0.714158C75.6903 1.28135 75.8947 1.84855 76.0937 2.41399L77.8199 7.27567C77.8375 7.32852 77.8604 7.37608 77.8921 7.4571Z" fill="#343F48"/>
<path fill-rule="evenodd" clip-rule="evenodd" d="M32.1106 10.7408C31.4324 10.7408 30.7613 10.8288 30.0884 10.8993C29.9775 10.9116 29.8418 10.9504 29.7872 10.82C29.7221 10.6685 29.8401 10.5717 29.9458 10.4941C30.4037 10.1648 30.9146 9.95866 31.4553 9.83007C32.4224 9.60108 33.3929 9.56232 34.3617 9.80365C34.8619 9.92871 34.9712 10.0573 34.9394 10.5769C34.8426 12.1517 34.3318 13.5538 33.1851 14.6671C33.1174 14.7438 33.0275 14.7974 32.9279 14.8203C32.794 14.8432 32.72 14.7798 32.7341 14.6424C32.7412 14.572 32.7676 14.5015 32.7923 14.4346C33.0952 13.649 33.4017 12.8669 33.5761 12.0372C33.6254 11.8047 33.6483 11.5722 33.6395 11.3361C33.6272 11.086 33.5021 10.9345 33.2731 10.8605C32.8944 10.7372 32.5016 10.7408 32.1106 10.7408Z" fill="#FE9901"/>
</svg>
