<svg width="48" height="30" fill="none" xmlns="http://www.w3.org/2000/svg">
  <path
    d="M44.0278 0.962402H3.1698C1.66925 0.962402 0.45282 2.17884 0.45282 3.67938V26.3209C0.45282 27.8214 1.66925 29.0379 3.1698 29.0379H44.0278C45.5283 29.0379 46.7447 27.8214 46.7447 26.3209V3.67938C46.7447 2.17884 45.5283 0.962402 44.0278 0.962402Z"
    fill="white" stroke="#EAEAEA" />
  <path fill-rule="evenodd" clip-rule="evenodd"
    d="M11.7863 12.313C11.9375 12.3329 12.0878 12.3782 12.2192 12.4489C12.5642 12.6363 12.7517 12.9289 12.797 13.321C12.8133 13.4668 12.8169 13.6126 12.816 13.7584C12.816 14.7746 12.8142 15.7898 12.8133 16.806C12.8133 16.9717 12.7626 17.0233 12.6004 17.0233H11.8759C11.7319 17.0233 11.6767 16.9672 11.6767 16.8205L11.6776 14.099C11.6776 14.0084 11.6758 13.9196 11.6631 13.8291C11.6133 13.4668 11.3081 13.2893 10.9748 13.4333C10.7339 13.5384 10.6433 13.7476 10.6152 13.9957C10.598 14.1406 10.5944 14.2873 10.5944 14.4332V16.8006C10.5944 16.9726 10.5455 17.0233 10.378 17.0233H9.66248C9.51214 17.0233 9.45871 16.969 9.45871 16.8169L9.45961 14.2267C9.4654 14.0619 9.4471 13.8971 9.40527 13.7376C9.34188 13.5221 9.20784 13.4025 9.01403 13.3889C8.75229 13.3708 8.58565 13.4578 8.48603 13.6697C8.4098 13.8468 8.37362 14.0385 8.38006 14.2312C8.37644 15.0798 8.37735 15.9275 8.37644 16.7761C8.37644 16.9844 8.33569 17.0233 8.12738 17.0233H7.43999C7.29508 17.0233 7.23984 16.969 7.23984 16.8232V12.6101C7.23984 12.4534 7.28874 12.4018 7.43999 12.4018H8.13735C8.26414 12.4018 8.3212 12.4588 8.3212 12.5883C8.3221 12.7586 8.3212 12.928 8.33478 13.1009C8.36829 13.0303 8.39999 12.9578 8.43712 12.889C8.51954 12.7378 8.63003 12.601 8.7704 12.5014C9.07561 12.2849 9.49131 12.2478 9.83637 12.3764C9.91969 12.4081 9.99938 12.4507 10.07 12.5041C10.2259 12.6272 10.3503 12.7855 10.4332 12.966L10.5029 13.1009L10.5419 13.0113C10.6207 12.8419 10.7366 12.6889 10.8806 12.5711C10.9728 12.4988 11.0754 12.4408 11.1849 12.399C11.3153 12.3456 11.4448 12.3049 11.5861 12.3012C11.6522 12.2994 11.7192 12.304 11.7863 12.313Z"
    fill="#343F48" />
  <path fill-rule="evenodd" clip-rule="evenodd"
    d="M5.11606 15.1253C5.11606 15.0447 5.11425 14.9641 5.11606 14.8835C5.11787 14.8382 5.10972 14.8173 5.05719 14.8192C4.89548 14.82 4.73419 14.8357 4.57538 14.8662C4.08995 14.9704 3.85085 15.2792 3.88889 15.7529C3.91968 16.1296 4.18413 16.3416 4.52285 16.2582C4.69424 16.2117 4.84035 16.0994 4.92949 15.9458C5.0907 15.6958 5.1224 15.4151 5.11606 15.1253ZM4.91138 12.3186C4.96391 12.325 5.01734 12.334 5.06987 12.3458C5.33251 12.4047 5.59787 12.4789 5.81704 12.6447C6.12496 12.8774 6.25176 13.2035 6.26987 13.5802C6.29704 14.1752 6.2744 14.7721 6.28074 15.368C6.28164 15.4296 6.28074 15.4921 6.28345 15.5545C6.28889 15.7384 6.34232 15.9078 6.44376 16.0608L6.53885 16.1967C6.67923 16.3932 6.67561 16.4204 6.49538 16.577L5.99727 17.0163C5.87953 17.1204 5.8107 17.1204 5.69387 17.019C5.55393 16.8976 5.43437 16.7545 5.33976 16.5952C5.299 16.5272 5.27455 16.5136 5.21115 16.5789C4.98836 16.8098 4.73749 17 4.4187 17.0715C4.12346 17.1385 3.82459 17.1539 3.53115 17.0724C3.30506 17.0143 3.10295 16.8867 2.95334 16.7075C2.88089 16.6169 2.82383 16.5145 2.78127 16.4068C2.75961 16.3509 2.74146 16.2937 2.72693 16.2356C2.59108 15.7013 2.70338 15.128 3.10187 14.7395C3.39168 14.4569 3.75485 14.3392 4.13704 14.2667C4.43138 14.2105 4.72844 14.1807 5.0264 14.1544C5.09251 14.149 5.1233 14.1309 5.11696 14.0548C5.10972 13.9533 5.11787 13.851 5.11244 13.7487C5.09885 13.477 4.9784 13.304 4.75198 13.2342C4.6599 13.2055 4.56297 13.1956 4.46697 13.2051C4.37097 13.2146 4.27786 13.2433 4.19319 13.2895C4.11516 13.3305 4.04723 13.3883 3.99429 13.4588C3.94135 13.5293 3.90473 13.6107 3.88708 13.697C3.85719 13.8184 3.80828 13.8673 3.72044 13.8582C3.46527 13.8347 3.21045 13.8076 2.95606 13.7767C2.84466 13.7632 2.80029 13.6907 2.82112 13.5775C2.84466 13.4525 2.88179 13.3321 2.93613 13.217C3.17704 12.699 3.66519 12.4508 4.19591 12.353C4.43681 12.3078 4.67228 12.2887 4.91138 12.3186ZM15.9785 15.1506C15.9785 15.0637 15.9758 14.9767 15.9785 14.8898C15.9804 14.84 15.9695 14.8173 15.9133 14.8192C15.7549 14.8237 15.5964 14.8327 15.4406 14.8653C14.9379 14.9695 14.7007 15.291 14.755 15.7927C14.7994 16.2021 15.177 16.3995 15.5302 16.1985C15.6626 16.1186 15.7692 16.0022 15.8373 15.8634C15.9559 15.6397 15.9749 15.397 15.9785 15.1506ZM15.7639 12.3195C15.849 12.3286 15.936 12.3431 16.0211 12.363C16.2928 12.4237 16.5545 12.5269 16.7638 12.718C17.0436 12.9752 17.1296 13.313 17.1351 13.6762C17.1423 14.245 17.1459 14.8137 17.1369 15.3816C17.1315 15.6949 17.2093 15.9684 17.4059 16.2084C17.4316 16.2394 17.4538 16.2731 17.472 16.309C17.5082 16.3841 17.5019 16.4502 17.4358 16.5082C17.2374 16.6803 17.0427 16.8551 16.8453 17.0262C16.7375 17.1204 16.665 17.1168 16.5555 17.0208C16.4095 16.8921 16.2845 16.7415 16.185 16.5743C16.1533 16.5218 16.1325 16.5182 16.0872 16.5644C15.859 16.798 15.6072 16.9991 15.2812 17.0706C14.9389 17.1458 14.5956 17.1612 14.2623 17.029C13.8439 16.8641 13.6238 16.5354 13.5604 16.0952C13.4789 15.5337 13.6048 15.0392 14.0486 14.6625C14.2931 14.4542 14.5875 14.3536 14.8945 14.2866C15.2181 14.2225 15.5453 14.1787 15.8744 14.1553C15.9532 14.149 15.9885 14.1281 15.9804 14.0403C15.9704 13.9416 15.9749 13.841 15.9704 13.7423C15.9478 13.2777 15.5918 13.1663 15.2884 13.2134C15.0059 13.2569 14.8175 13.4136 14.745 13.7043C14.7106 13.8401 14.6653 13.8691 14.5268 13.8555C14.2929 13.8322 14.0592 13.8065 13.8258 13.7785C13.7026 13.7641 13.6564 13.688 13.6836 13.5612C13.8195 12.9345 14.2198 12.5722 14.8102 12.4047C15.1263 12.3141 15.4442 12.2833 15.7639 12.3195ZM28.4106 12.3268C28.8724 12.4101 29.2972 12.7669 29.3869 13.2795C29.4231 13.4851 29.4394 13.6916 29.4394 13.8999C29.4412 14.878 29.4412 15.857 29.4412 16.8361C29.4412 16.9638 29.3841 17.0226 29.2564 17.0235H28.4866C28.3635 17.0235 28.3046 16.9601 28.3046 16.8315V14.2033C28.3075 14.0541 28.2907 13.9052 28.2548 13.7604C28.2004 13.5594 28.0918 13.4136 27.8762 13.3819C27.6561 13.3484 27.4868 13.438 27.3663 13.6201C27.2395 13.8102 27.1942 14.0312 27.187 14.2558C27.1616 15.0573 27.1807 15.8589 27.1752 16.6604C27.1752 16.7219 27.177 16.7844 27.1752 16.846C27.1707 16.9592 27.1146 17.0217 27.005 17.0226C26.7396 17.0253 26.4733 17.0253 26.208 17.0226C26.0939 17.0217 26.0422 16.9574 26.0422 16.8252L26.0413 15.2693L26.0404 12.622C26.0404 12.4463 26.0839 12.4019 26.256 12.4019H26.9244C27.062 12.4019 27.1127 12.4536 27.1127 12.5921V13.1736C27.1535 13.1618 27.1526 13.1247 27.1635 13.1002C27.2269 12.958 27.2993 12.8222 27.3944 12.6999C27.657 12.3648 28.0447 12.2598 28.4106 12.3268ZM22.8978 14.6453C22.8978 14.8128 22.8887 14.9813 22.9005 15.1479C22.9186 15.4087 22.9521 15.6669 23.0699 15.905C23.1613 16.0889 23.2963 16.2148 23.5091 16.222C23.7265 16.2284 23.8895 16.1278 24 15.9385C24.0589 15.8389 24.0978 15.7312 24.1232 15.6189C24.2192 15.1905 24.2065 14.7558 24.1866 14.321C24.1807 14.0633 24.1368 13.8079 24.0561 13.563C23.9719 13.3257 23.808 13.2025 23.5607 13.1926C23.3289 13.1835 23.165 13.2931 23.0563 13.4969C23.0187 13.5682 22.9892 13.6436 22.9684 13.7215C22.886 14.024 22.8869 14.3346 22.8978 14.6453ZM23.7355 12.3385C24.3215 12.4038 24.8767 12.7579 25.1447 13.3882C25.5161 14.2631 25.5387 15.1561 25.1429 16.0309C24.883 16.6042 24.4465 16.9782 23.817 17.0905C23.461 17.1546 23.0937 17.1031 22.769 16.9435C22.4443 16.784 22.179 16.5249 22.0121 16.2039C21.7539 15.7257 21.6616 15.2104 21.6652 14.6715C21.6679 14.1689 21.7539 13.6844 21.9976 13.2388C22.1634 12.9314 22.418 12.6811 22.7282 12.5205C23.0383 12.3599 23.3888 12.2965 23.7355 12.3385Z"
    fill="#343F48" />
  <path fill-rule="evenodd" clip-rule="evenodd"
    d="M13.1312 20.5157C12.9844 20.508 12.8379 20.4959 12.6919 20.4794C10.8706 20.2757 9.33283 19.7984 7.85569 18.8411C7.38248 18.5314 6.93459 18.1847 6.51622 17.8041C6.49764 17.7879 6.48094 17.7697 6.46641 17.7498C6.432 17.7018 6.41841 17.6493 6.45554 17.5958C6.49267 17.5415 6.54792 17.5342 6.60316 17.5523C6.64845 17.5677 6.69192 17.594 6.73358 17.6185C7.88406 18.2833 9.12557 18.7764 10.4187 19.082C11.2791 19.2876 12.1503 19.4108 13.0343 19.4533C15.0974 19.5493 17.0789 19.1762 18.9863 18.3801C19.0406 18.3584 19.0922 18.3321 19.152 18.3303C19.2498 18.3276 19.3368 18.3756 19.3712 18.4544C19.4065 18.5341 19.3866 18.6283 19.3032 18.6953C19.1826 18.7901 19.0578 18.8796 18.9292 18.9634C18.2409 19.4162 17.4983 19.7504 16.7176 19.9994C15.811 20.2893 14.8764 20.4885 13.9236 20.5211C13.661 20.5302 13.3956 20.5302 13.1312 20.5157Z"
    fill="#FE9901" />
  <path fill-rule="evenodd" clip-rule="evenodd"
    d="M34.8072 15.5915C34.6424 16.105 34.2729 16.3459 33.7322 16.3423C33.3201 16.3396 32.9606 16.1883 32.63 15.9474C32.592 15.9203 32.5938 15.8886 32.5938 15.8514V14.6877C32.5938 14.3018 32.5938 13.9178 32.592 13.532C32.592 13.4759 32.6083 13.4433 32.6536 13.4116C32.9995 13.1752 33.3754 13.0412 33.7956 13.0529C34.301 13.0665 34.6397 13.2947 34.8009 13.7802C34.9983 14.3788 35.0001 14.992 34.8072 15.5915ZM34.5926 12.4398C34.0474 12.2587 33.5203 12.3329 33.0158 12.5974C32.8435 12.6913 32.682 12.8036 32.534 12.9325L32.5078 12.7821C32.5005 12.7369 32.4951 12.6898 32.486 12.6445C32.4616 12.5267 32.4072 12.4787 32.2904 12.4769C32.1691 12.4751 32.0459 12.4751 31.9245 12.4769C31.7832 12.4769 31.7325 12.5286 31.7325 12.6762V18.5757C31.7325 18.7187 31.7851 18.7722 31.9272 18.774C32.0794 18.7758 32.2324 18.7749 32.3855 18.774C32.5449 18.7731 32.5938 18.7242 32.5938 18.5621V16.5334L32.65 16.5778C33.0059 16.8848 33.418 17.0351 33.8844 17.0478C34.6152 17.0668 35.2474 16.6765 35.5426 15.9972C35.8995 15.1749 35.9094 14.3326 35.6169 13.4922C35.4412 12.985 35.107 12.611 34.5926 12.4389M19.5686 15.5136C19.8955 15.5064 20.2026 15.5317 20.5023 15.6078C20.7079 15.6603 20.9035 15.7355 21.091 15.8342C21.2088 15.8976 21.2649 15.9936 21.264 16.1277V16.7145C21.2631 16.8821 21.1653 16.9409 21.0167 16.8703C20.1527 16.4537 19.2779 16.4274 18.394 16.7978C18.3351 16.8232 18.278 16.8522 18.2201 16.8803C18.096 16.94 18.0018 16.8857 17.9937 16.7444C17.9882 16.6575 17.9918 16.5705 17.9918 16.4836C17.9937 16.3314 17.9937 16.1793 17.9973 16.0271C18.002 15.8933 18.0468 15.7639 18.1259 15.6558C18.6403 14.9077 19.1529 14.1587 19.6655 13.4098C19.6827 13.3853 19.699 13.359 19.7162 13.3328C19.6918 13.3056 19.6619 13.3183 19.6374 13.3183H18.346C18.1965 13.3174 18.1485 13.2685 18.1476 13.1172V12.5675C18.1494 12.447 18.2038 12.3882 18.3224 12.3882C19.2172 12.3873 20.112 12.3864 21.0077 12.3882C21.1254 12.3882 21.1789 12.4461 21.1807 12.5684C21.1834 12.7296 21.1816 12.8917 21.1807 13.0529C21.1807 13.1725 21.1137 13.264 21.0512 13.3545C20.765 13.772 20.477 14.1886 20.1899 14.6061L19.6284 15.4212C19.6103 15.4466 19.5949 15.4729 19.5686 15.5136ZM39.1852 15.5127C39.1852 15.3823 39.1834 15.2519 39.187 15.1215C39.187 15.0726 39.1734 15.0517 39.1245 15.0409C38.7496 14.963 38.3728 14.9123 37.9888 14.9575C37.4971 15.0155 37.2525 15.3107 37.2869 15.8071C37.3087 16.1123 37.4871 16.3251 37.7787 16.3858C37.8693 16.4039 37.9598 16.4102 38.0522 16.4039C38.4534 16.3767 38.8084 16.2273 39.1336 15.9927C39.1734 15.9646 39.1879 15.9329 39.1861 15.884C39.1834 15.7609 39.1861 15.6368 39.1861 15.5127M39.2178 16.4944C39.0756 16.6177 38.9201 16.7246 38.7541 16.8132C38.3248 17.036 37.8756 17.1248 37.3983 17.0279C36.8341 16.9138 36.4546 16.4501 36.4238 15.8596C36.3795 14.9929 36.9428 14.5047 37.6374 14.3797C38.1211 14.2919 38.5974 14.3571 39.0711 14.463C39.1861 14.4884 39.1861 14.4902 39.1852 14.3743C39.1834 14.1696 39.1915 13.9649 39.1771 13.7603C39.1454 13.3056 38.9343 13.0901 38.4851 13.0538C37.9598 13.0086 37.4518 13.1 36.9509 13.2504C36.9274 13.2576 36.9048 13.2676 36.8812 13.273C36.787 13.2947 36.7272 13.2576 36.7218 13.1607C36.7146 13.043 36.7173 12.9252 36.7218 12.8075C36.7263 12.7061 36.7979 12.659 36.8803 12.6218C37.122 12.5192 37.3758 12.4476 37.6356 12.409C38.0568 12.3393 38.4797 12.313 38.9035 12.3846C39.2903 12.4507 39.6299 12.6001 39.8318 12.9705C39.9432 13.1761 39.9949 13.4007 39.9958 13.6317C40.0012 14.6786 39.9994 15.7255 39.9994 16.7725C39.9994 16.8966 39.9478 16.95 39.8282 16.9518C39.7032 16.9536 39.5783 16.9536 39.4524 16.9518C39.3401 16.95 39.2857 16.902 39.2649 16.7888C39.2486 16.6982 39.2359 16.6058 39.2178 16.4944Z"
    fill="#343F48" />
  <path fill-rule="evenodd" clip-rule="evenodd"
    d="M42.7209 16.1349L43.7017 13.2676C43.7688 13.0711 43.8349 12.8745 43.9046 12.6798C43.9671 12.5077 44.0133 12.4779 44.189 12.4769C44.3448 12.4751 44.5005 12.4751 44.6563 12.4769C44.774 12.4779 44.8148 12.5268 44.7831 12.6418C44.7541 12.7459 44.7125 12.8465 44.6744 12.947L42.7861 17.8258C42.7019 18.0431 42.5941 18.2478 42.451 18.4326C42.2391 18.707 41.9574 18.8492 41.6178 18.8727C41.4071 18.8916 41.1947 18.8735 40.9902 18.8193C40.8543 18.7803 40.8072 18.7233 40.8027 18.5838C40.7995 18.4966 40.7989 18.4093 40.8009 18.3221C40.8045 18.1844 40.848 18.1437 40.9848 18.1627C41.1215 18.1817 41.2574 18.1944 41.3959 18.1853C41.5115 18.1825 41.6244 18.1492 41.7231 18.089C41.8218 18.0287 41.9029 17.9436 41.9583 17.8421C42.1069 17.5867 42.1829 17.3005 42.2898 17.027C42.3061 16.988 42.2835 16.9545 42.2708 16.9219L40.6306 12.8039C40.6057 12.7438 40.586 12.6817 40.5718 12.6182C40.5528 12.5277 40.5899 12.4788 40.6795 12.4779C40.8752 12.4751 41.0708 12.4769 41.2664 12.4779C41.3914 12.4788 41.4475 12.5621 41.4856 12.668C41.5888 12.9597 41.6939 13.2513 41.7962 13.542L42.6838 16.0416C42.6928 16.0688 42.7046 16.0932 42.7209 16.1349Z"
    fill="#343F48" />
  <path fill-rule="evenodd" clip-rule="evenodd"
    d="M19.1819 17.823C18.8332 17.823 18.4881 17.8683 18.1422 17.9045C18.0851 17.9108 18.0154 17.9307 17.9873 17.8637C17.9538 17.7858 18.0145 17.736 18.0688 17.6962C18.3043 17.5268 18.5669 17.4209 18.845 17.3547C19.3422 17.237 19.8412 17.2171 20.3393 17.3412C20.5965 17.4055 20.6527 17.4716 20.6364 17.7387C20.5865 18.5484 20.3239 19.2693 19.7343 19.8417C19.6995 19.8811 19.6533 19.9087 19.6021 19.9205C19.5333 19.9323 19.4952 19.8996 19.5025 19.829C19.5061 19.7928 19.5197 19.7566 19.5324 19.7221C19.6881 19.3182 19.8457 18.9161 19.9354 18.4895C19.9607 18.37 19.9725 18.2504 19.968 18.1291C19.9616 18.0005 19.8973 17.9226 19.7796 17.8846C19.5849 17.8212 19.3829 17.823 19.1819 17.823Z"
    fill="#FE9901" />
</svg>
