<svg width="49" height="30" fill="none" xmlns="http://www.w3.org/2000/svg">
  <path
    d="M45.028 0.961914H4.1698C2.66925 0.961914 1.45282 2.17835 1.45282 3.67889V26.3204C1.45282 27.821 2.66925 29.0374 4.1698 29.0374H45.028C46.5286 29.0374 47.745 27.821 47.745 26.3204V3.67889C47.745 2.17835 46.5286 0.961914 45.028 0.961914Z"
    fill="white" stroke="#EAEAEA" />
  <path d="M11.8889 0.524902H40.1238V29.3472H11.8889V0.524902Z" fill="white" />
  <path
    d="M10.075 28.7507H9.82669C9.79522 28.6489 9.7896 28.4592 9.7896 28.4135C9.7896 28.3209 9.77499 28.2261 9.6053 28.2261H9.24007V28.7507H9.02094V27.4706H9.6053C9.80534 27.4706 10.0278 27.5426 10.0278 27.8272C10.0278 27.9884 9.96154 28.0661 9.89187 28.1152C9.94918 28.1484 9.99863 28.2032 10.0054 28.3484L10.0144 28.5701C10.0166 28.6341 10.0233 28.6467 10.075 28.6764V28.7507ZM9.80421 27.8444C9.80421 27.6832 9.69521 27.6695 9.61654 27.6695H9.24007V28.0261H9.58845C9.7042 28.0261 9.80421 27.9986 9.80421 27.8444ZM10.8381 28.1244C10.8381 27.3666 10.2335 26.7598 9.48843 26.7598C8.74336 26.7598 8.13989 27.3666 8.13989 28.1244C8.13989 28.8821 8.74336 29.4878 9.48843 29.4878C10.2335 29.4878 10.8381 28.8821 10.8381 28.1244ZM10.6336 28.1244C10.6336 28.7678 10.1481 29.289 9.48843 29.289C8.82989 29.289 8.34442 28.7678 8.34442 28.1244C8.34442 27.4809 8.82765 26.9598 9.48843 26.9598C10.1503 26.9598 10.6336 27.4809 10.6336 28.1244Z"
    fill="#1790CD" />
  <path
    d="M40.1238 16.2212H38.6528C38.2134 16.2212 37.8842 16.3252 37.6572 16.4921V16.2212H35.4883C35.1444 16.2212 34.7297 16.3058 34.5375 16.4921V16.2212H30.6616V16.4921C30.3514 16.2692 29.8323 16.2212 29.5873 16.2212H27.0284V16.4921C26.7834 16.2521 26.2463 16.2212 25.917 16.2212H23.048L22.3917 16.9435L21.7815 16.2212H17.5033V20.9322H21.7017L22.3749 20.1984L23.012 20.9299L25.5967 20.9322V19.8213H25.8541C26.1957 19.8213 26.6003 19.8133 26.9531 19.659V20.9322H29.0939V19.699H29.1985C29.3288 19.6979 29.3389 19.7093 29.3389 19.835V20.9322H35.8198C36.2277 20.9322 36.6671 20.8247 36.9042 20.6339V20.9322H38.9585C39.3844 20.9322 39.8058 20.8693 40.1238 20.7162V29.3472H11.8889V15.1218H13.2441L13.5498 14.3663H14.2331L14.5399 15.1218H17.2077V14.5469L17.4471 15.1229H18.8282L19.0687 14.5378V15.1218H25.6956L25.6945 13.8886H25.8237C25.9193 13.8886 25.9417 13.9 25.9417 14.0497V15.1218H29.3704L29.3693 14.8292C29.6423 14.9801 30.0716 15.1218 30.6425 15.1218H32.0843L32.3956 14.3663H33.0789L33.3857 15.1218H36.1569V14.4063L36.5828 15.1218H38.809V10.4108H36.6075V10.9663L36.2918 10.4108H34.0296V10.9663L33.752 10.4108H30.6965C30.1818 10.4108 29.7289 10.4805 29.3693 10.6817V10.4108H27.2633V10.6817C27.0239 10.476 26.7126 10.4108 26.3643 10.4108H18.6608L18.1393 11.6257L17.6123 10.4108H15.1883V10.9663L14.9141 10.4108H12.8452L11.8889 12.6451V0.524902H40.1238V16.2212ZM38.1055 14.4566H36.975L35.4725 11.9228L35.4736 14.4566H33.8588L33.5531 13.7H31.9011L31.5966 14.4566H30.6729C30.2829 14.4566 29.7952 14.3652 29.5187 14.0806C29.24 13.7915 29.0984 13.4063 29.0984 12.7914C29.0984 12.2897 29.1861 11.8314 29.5243 11.4714C29.7794 11.2028 30.1851 11.076 30.7324 11.076H31.491V11.8006L30.7481 11.7994C30.4548 11.7994 30.2896 11.844 30.1346 12.0017C29.9952 12.1423 29.9019 12.412 29.9019 12.7674C29.9019 13.1274 29.9716 13.3857 30.1278 13.5595C30.2447 13.6909 30.465 13.732 30.6785 13.732H31.0347L32.1529 11.076H33.3351L34.6803 14.2726V11.076H35.8928L37.2886 13.4292L37.2874 11.076H38.1055V14.4566ZM27.8982 14.4566H28.7107V11.0748H27.8982V14.4566ZM27.0329 11.2394C26.7767 11.0908 26.4789 11.076 26.0766 11.076H24.2482V14.4566H25.0416V13.2257H25.8934C26.1822 13.2257 26.3564 13.252 26.4699 13.3743C26.6171 13.5332 26.6003 13.828 26.6003 14.0292V14.4566H27.3993V13.7857C27.3993 13.492 27.3791 13.3366 27.2678 13.1732C27.2004 13.0749 27.0509 12.9537 26.8767 12.8863C27.0857 12.8029 27.442 12.5251 27.442 11.9891C27.442 11.6108 27.288 11.3891 27.0329 11.2394ZM23.6987 13.7503L21.8411 13.7526V13.0829L23.6537 13.084V12.3891H21.8411V11.78H23.6987V11.076H21.0477V14.4566H23.6987V13.7503ZM20.4554 11.076H19.1339L18.1787 13.3686L17.1437 11.076H15.8446L15.8457 14.2738L14.4994 11.076H13.3172L11.8956 14.4566H12.7609L13.0655 13.7H14.7174L15.0231 14.4566H16.638V11.8063L17.7921 14.4566H18.4899L19.6407 11.8097V14.4566H20.4554V11.076ZM33.2677 12.996L32.726 11.6531L32.1855 12.996H33.2677ZM26.398 12.4623C26.2912 12.5274 26.162 12.532 26.0092 12.532H25.0416V11.78H26.0204C26.1609 11.78 26.3036 11.7846 26.398 11.8383C26.4969 11.8943 26.5609 11.9983 26.5609 12.1411C26.5609 12.2863 26.4991 12.4029 26.398 12.4623ZM13.3498 12.996L13.8903 11.6531L14.432 12.996H13.3498ZM40.2969 19.2019C40.2969 19.9207 39.853 20.2659 39.0495 20.2659H37.5167V19.5413H39.0439C39.1911 19.5413 39.2967 19.5207 39.3631 19.459C39.4159 19.4087 39.4563 19.3333 39.4563 19.2384C39.4563 19.1378 39.4159 19.0624 39.3597 19.0144C39.3001 18.963 39.2192 18.9424 39.0832 18.939C38.3415 18.9184 37.4088 18.963 37.4088 17.891C37.4088 17.4064 37.7111 16.8852 38.5461 16.8852H40.1283V17.611H38.6798C38.5371 17.611 38.4415 17.6155 38.364 17.6681C38.2797 17.7241 38.246 17.8041 38.246 17.9127C38.246 18.0384 38.3179 18.1264 38.4202 18.163C38.5011 18.1915 38.5921 18.1984 38.7247 18.2007L39.1507 18.2121C39.5912 18.2224 39.8789 18.2967 40.0575 18.4841C40.2149 18.6521 40.2969 18.8498 40.2969 19.2019ZM36.9559 18.4841C36.7772 18.2978 36.4873 18.2224 36.0468 18.2121L35.622 18.2007C35.4894 18.1984 35.3995 18.1915 35.3174 18.163C35.2163 18.1264 35.1444 18.0384 35.1444 17.9127C35.1444 17.8041 35.1781 17.7241 35.2612 17.6681C35.3388 17.6155 35.4354 17.611 35.5793 17.611H37.0346V16.8852H35.4444C34.6095 16.8852 34.3072 17.4052 34.3072 17.891C34.3072 18.9641 35.2399 18.9184 35.9805 18.939C36.1164 18.9424 36.1985 18.963 36.2569 19.0144C36.3131 19.0624 36.3547 19.1378 36.3547 19.2384C36.3547 19.3333 36.3131 19.4087 36.2603 19.459C36.194 19.5207 36.0895 19.5413 35.9411 19.5413H34.4004V20.2659H35.9468C36.7503 20.2659 37.1942 19.9207 37.1942 19.2019C37.1942 18.8498 37.1132 18.6521 36.9559 18.4841ZM33.9284 19.563L32.0708 19.5619V18.8944H33.8846V18.1984L32.0708 18.1995V17.5904H33.9284V16.8852H31.2774V20.2659H33.9284V19.563ZM30.429 17.0498C30.1716 16.9001 29.875 16.8852 29.4738 16.8852H27.6443V20.2659H28.4365V19.0373L29.2906 19.0361C29.5794 19.0361 29.7525 19.0624 29.8671 19.1836C30.0143 19.3436 29.9963 19.6373 29.9963 19.8384V20.2659H30.7965V19.5961C30.7953 19.3024 30.7762 19.147 30.6639 18.9836C30.5976 18.8841 30.4481 18.763 30.275 18.6956C30.4818 18.6121 30.838 18.3356 30.838 17.7984C30.838 17.4212 30.6841 17.1995 30.429 17.0498ZM25.9361 16.8852H23.3986L22.3861 17.995L21.4129 16.8852H18.2169V20.2659H21.3635L22.3782 19.1516L23.3548 20.2659H24.9V19.1344H25.8867C26.58 19.1344 27.2678 18.939 27.2678 18.003C27.2678 17.0681 26.5621 16.8852 25.9361 16.8852ZM29.7952 18.2738C29.6873 18.3367 29.5581 18.3413 29.4052 18.3413L28.4365 18.3424V17.5904H29.4165C29.5569 17.5904 29.6997 17.595 29.7952 17.6475C29.8941 17.7047 29.957 17.8087 29.957 17.9515C29.957 18.0967 29.8952 18.2133 29.7952 18.2738ZM25.9271 18.4407H24.9V17.5904H25.9361C26.2204 17.5904 26.416 17.7104 26.416 18.003C26.416 18.2933 26.2294 18.4407 25.9271 18.4407ZM22.8907 18.5836L24.1066 17.2521V19.9573L22.8907 18.5836ZM20.9611 19.5619H19.0114V18.8944H20.7499V18.1984L19.0114 18.1995V17.5904H20.996L21.8669 18.5733L20.9611 19.5619Z"
    fill="url(#paint0_radial_123_5693)" />
  <defs>
    <radialGradient id="paint0_radial_123_5693" cx="0" cy="0" r="1" gradientUnits="userSpaceOnUse"
      gradientTransform="translate(474.04 423.54) scale(1411.75 1411.75)">
      <stop stop-color="#7FD3F3" />
      <stop offset="1" stop-color="#017CC2" />
    </radialGradient>
  </defs>
</svg>
