<svg width="48" height="48" viewBox="0 0 48 48" fill="none" xmlns="http://www.w3.org/2000/svg">
<path d="M44.5749 38.0757H3.71698C2.21643 38.0757 1 36.8592 1 35.3587V12.7172C1 11.2166 2.21643 10.0002 3.71698 10.0002H44.5749C46.0755 10.0002 47.2919 11.2166 47.2919 12.7172V35.3587C47.2919 36.8592 46.0755 38.0757 44.5749 38.0757Z" fill="white" stroke="#EAEAEA"/>
<path d="M13.85 19.676C13.475 20.1151 12.875 20.4615 12.275 20.412C12.2 19.8183 12.4937 19.1874 12.8375 18.7978C13.2125 18.3463 13.8687 18.0247 14.4 18C14.4625 18.6185 14.2187 19.2245 13.85 19.676ZM14.3937 20.5295C13.525 20.48 12.7812 21.0181 12.3687 21.0181C11.95 21.0181 11.3187 20.5542 10.6312 20.5666C9.7375 20.579 8.90625 21.0799 8.45 21.8777C7.5125 23.4734 8.20625 25.8359 9.1125 27.1346C9.55625 27.7778 10.0875 28.4829 10.7875 28.4581C11.45 28.4334 11.7125 28.0314 12.5125 28.0314C13.3187 28.0314 13.55 28.4581 14.25 28.4458C14.975 28.4334 15.4312 27.8026 15.875 27.1594C16.3812 26.4296 16.5875 25.7184 16.6 25.6813C16.5875 25.6689 15.2 25.1432 15.1875 23.5599C15.175 22.2364 16.2812 21.6056 16.3312 21.5685C15.7062 20.6532 14.7312 20.5542 14.3937 20.5295ZM19.4125 18.736V28.3777H20.925V25.0814H23.0187C24.9312 25.0814 26.275 23.7826 26.275 21.9025C26.275 20.0224 24.9562 18.736 23.0687 18.736H19.4125ZM20.925 19.9976H22.6687C23.9812 19.9976 24.7312 20.6903 24.7312 21.9087C24.7312 23.127 23.9812 23.8259 22.6625 23.8259H20.925V19.9976ZM29.0375 28.452C29.9875 28.452 30.8687 27.9757 31.2687 27.2212H31.3V28.3777H32.7V23.5785C32.7 22.187 31.575 21.2902 29.8437 21.2902C28.2375 21.2902 27.05 22.1993 27.0062 23.4486H28.3687C28.4812 22.8549 29.0375 22.4653 29.8 22.4653C30.725 22.4653 31.2437 22.892 31.2437 23.6775V24.2093L29.3562 24.3206C27.6 24.4258 26.65 25.137 26.65 26.3739C26.65 27.6232 27.6312 28.452 29.0375 28.452ZM29.4437 27.3078C28.6375 27.3078 28.125 26.9244 28.125 26.3368C28.125 25.7307 28.6187 25.3782 29.5625 25.3226L31.2437 25.2174V25.7617C31.2437 26.6646 30.4687 27.3078 29.4437 27.3078ZM34.5687 31C36.0437 31 36.7375 30.4434 37.3437 28.755L40 21.383H38.4625L36.6812 27.079H36.65L34.8687 21.383H33.2875L35.85 28.4025L35.7125 28.8292C35.4812 29.5528 35.1062 29.8311 34.4375 29.8311C34.3187 29.8311 34.0875 29.8187 33.9937 29.8064V30.9629C34.0812 30.9876 34.4562 31 34.5687 31Z" fill="black"/>
</svg>
