<svg width="48" height="30" fill="none" xmlns="http://www.w3.org/2000/svg">
  <path
    d="M44.4444 0.777832H3.55555C2.08279 0.777832 0.888885 1.97174 0.888885 3.4445V26.5556C0.888885 28.0284 2.08279 29.2223 3.55555 29.2223H44.4444C45.9172 29.2223 47.1111 28.0284 47.1111 26.5556V3.4445C47.1111 1.97174 45.9172 0.777832 44.4444 0.777832Z"
    fill="#1BA559" />
  <path
    d="M44.4444 0.777832H3.55555C2.08279 0.777832 0.888885 1.97174 0.888885 3.4445V26.5556C0.888885 28.0284 2.08279 29.2223 3.55555 29.2223H44.4444C45.9172 29.2223 47.1111 28.0284 47.1111 26.5556V3.4445C47.1111 1.97174 45.9172 0.777832 44.4444 0.777832Z"
    fill="url(#paint0_linear_123_5716)" />
  <path
    d="M44.4444 0.777832H3.55555C2.08279 0.777832 0.888885 1.97174 0.888885 3.4445V26.5556C0.888885 28.0284 2.08279 29.2223 3.55555 29.2223H44.4444C45.9172 29.2223 47.1111 28.0284 47.1111 26.5556V3.4445C47.1111 1.97174 45.9172 0.777832 44.4444 0.777832Z"
    fill="url(#paint1_linear_123_5716)" stroke="#CCCCCC" />
  <path
    d="M24.7174 14.8689C24.4229 14.882 24.115 14.9213 23.807 14.9213C21.5711 14.9345 19.3487 14.9345 17.1128 14.9345C16.912 14.9345 16.6844 14.8951 16.5237 14.9607C16.3764 15.0262 16.2425 15.2097 16.2158 15.3539C16.2024 15.4326 16.4166 15.6423 16.5371 15.6423C17.0726 15.6816 17.6082 15.6554 18.1437 15.6554C20.1252 15.6554 22.1067 15.6554 24.1016 15.6554C24.3024 15.6554 24.4898 15.6685 24.7576 15.6947C24.8647 16.7434 24.5969 17.7003 24.2221 18.6178C23.0573 21.4754 20.7411 22.8779 17.7554 23.3498C15.7472 23.6775 13.7791 23.5202 11.8377 22.8517C8.82535 21.8031 6.85725 19.1159 6.75014 15.9569C6.6832 13.9382 7.00452 12.0507 8.23626 10.386C9.49477 8.69503 11.262 7.77747 13.3105 7.38423C15.6267 6.93855 17.9161 7.04342 20.1118 7.96098C22.9502 9.15381 24.4095 11.356 24.7844 14.3053C24.7978 14.4101 24.7978 14.5281 24.7844 14.633C24.7844 14.6854 24.7576 14.7509 24.7174 14.8689Z"
    fill="white" />
  <path
    d="M31.7062 15.6815C33.3128 15.6815 34.9194 15.6683 36.526 15.6946C37.1419 15.7077 37.7712 15.7339 38.3737 15.865C40.1008 16.232 41.3191 18.0278 41.1049 19.7712C40.8907 21.6194 39.4313 22.9695 37.5837 22.9957C33.8885 23.0351 30.1799 23.0351 26.4847 23.0744C25.8555 23.0875 25.5743 22.9433 25.6011 22.2355C25.6546 20.2955 25.6546 18.3555 25.6145 16.4155C25.6011 15.7863 25.8287 15.6552 26.4178 15.6683C28.185 15.6946 29.9523 15.6683 31.7062 15.6815Z"
    fill="white" />
  <path
    d="M25.6546 7.67255C26.0027 7.64633 26.2839 7.62012 26.5784 7.62012C29.8988 7.62012 33.2191 7.62012 36.5394 7.64633C37.1821 7.64633 37.8381 7.68566 38.454 7.84295C40.1677 8.26241 41.3191 9.96646 41.0915 11.6574C40.8371 13.5187 39.4179 14.8295 37.557 14.8558C33.8617 14.8951 30.1665 14.8951 26.4579 14.9475C25.8287 14.9606 25.6145 14.7902 25.6278 14.1479C25.668 12.2341 25.6546 10.3073 25.6546 8.39349C25.6546 8.15755 25.6546 7.93471 25.6546 7.67255Z"
    fill="white" />
  <defs>
    <linearGradient id="paint0_linear_123_5716" x1="2311.63" y1="0.991493" x2="2311.63" y2="2845.44"
      gradientUnits="userSpaceOnUse">
      <stop stop-color="#098EC3" />
      <stop offset="1" stop-color="#098EC3" stop-opacity="0" />
    </linearGradient>
    <linearGradient id="paint1_linear_123_5716" x1="0.515608" y1="1423.21" x2="4622.74" y2="1423.21"
      gradientUnits="userSpaceOnUse">
      <stop stop-color="#002A63" stop-opacity="0" />
      <stop offset="1" stop-color="#002962" />
    </linearGradient>
  </defs>
</svg>
