<svg width="49" height="31" fill="none" xmlns="http://www.w3.org/2000/svg">
  <rect y="1" width="48" height="29.5385" rx="1" fill="#1BA559" />
  <rect y="1" width="48" height="29.5385" rx="1" fill="url(#paint0_linear_123_5995)" />
  <path
    d="M0.527466 2C0.527466 1.44772 0.975181 1 1.52747 1H47.5275C48.0798 1 48.5275 1.44772 48.5275 2V29.5385C48.5275 30.0907 48.0798 30.5385 47.5275 30.5385H1.52746C0.97518 30.5385 0.527466 30.0907 0.527466 29.5385V2Z"
    fill="url(#paint1_linear_123_5995)" stroke="#CCCCCC" stroke-width="0.5" />
  <path
    d="M24.7451 15.6329C24.4392 15.6465 24.1194 15.6874 23.7996 15.6874C21.4778 15.701 19.1698 15.701 16.848 15.701C16.6394 15.701 16.403 15.6601 16.2362 15.7282C16.0833 15.7963 15.9442 15.9868 15.9164 16.1366C15.9025 16.2182 16.125 16.436 16.2501 16.436C16.8062 16.4769 17.3624 16.4496 17.9185 16.4496C19.9762 16.4496 22.0339 16.4496 24.1055 16.4496C24.3141 16.4496 24.5087 16.4633 24.7868 16.4905C24.898 17.5795 24.6199 18.5732 24.2306 19.526C23.0211 22.4935 20.6158 23.95 17.5153 24.44C15.4298 24.7803 13.386 24.617 11.37 23.9227C8.24176 22.8338 6.19796 20.0433 6.08673 16.7627C6.01722 14.6665 6.3509 12.7063 7.63001 10.9775C8.93693 9.22157 10.7722 8.26872 12.8994 7.86035C15.3047 7.39754 17.6822 7.50644 19.9623 8.45929C22.9098 9.698 24.4253 11.9848 24.8146 15.0476C24.8285 15.1565 24.8285 15.279 24.8146 15.3879C24.8146 15.4423 24.7868 15.5104 24.7451 15.6329Z"
    fill="white" />
  <path
    d="M32.0026 16.4769C33.671 16.4769 35.3395 16.4633 37.0079 16.4905C37.6474 16.5041 38.3009 16.5314 38.9265 16.6675C40.7201 17.0486 41.9853 18.9135 41.7628 20.7239C41.5404 22.6432 40.0249 24.0453 38.1062 24.0725C34.2689 24.1134 30.4177 24.1134 26.5803 24.1542C25.9269 24.1678 25.6349 24.0181 25.6627 23.283C25.7183 21.2684 25.7183 19.2538 25.6766 17.2392C25.6627 16.5858 25.8991 16.4497 26.5108 16.4633C28.3461 16.4905 30.1813 16.4633 32.0026 16.4769Z"
    fill="white" />
  <path
    d="M25.7183 8.15992C26.0798 8.13269 26.3718 8.10547 26.6776 8.10547C30.1257 8.10547 33.5737 8.10547 37.0217 8.13269C37.6891 8.13269 38.3704 8.17353 39.0099 8.33688C40.7896 8.77247 41.9853 10.5421 41.7489 12.298C41.4847 14.231 40.011 15.5922 38.0784 15.6194C34.2411 15.6602 30.4037 15.6602 26.5525 15.7147C25.899 15.7283 25.6766 15.5513 25.6905 14.8843C25.7322 12.897 25.7183 10.896 25.7183 8.90859C25.7183 8.66357 25.7183 8.43216 25.7183 8.15992Z"
    fill="white" />
  <defs>
    <linearGradient id="paint0_linear_123_5995" x1="-0.00387669" y1="1.00222" x2="-0.00387669"
      y2="30.5407" gradientUnits="userSpaceOnUse">
      <stop stop-color="#098EC3" />
      <stop offset="1" stop-color="#098EC3" stop-opacity="0.01" />
    </linearGradient>
    <linearGradient id="paint1_linear_123_5995" x1="-0.00388309" y1="30.5407" x2="47.9961"
      y2="30.5407" gradientUnits="userSpaceOnUse">
      <stop stop-color="#002A63" stop-opacity="0.01" />
      <stop offset="1" stop-color="#002962" />
    </linearGradient>
  </defs>
</svg>
