<svg width="49" height="30" fill="none" xmlns="http://www.w3.org/2000/svg">
  <path
    d="M45.028 0.962402H4.16981C2.66926 0.962402 1.45283 2.17884 1.45283 3.67938V26.3209C1.45283 27.8214 2.66926 29.0379 4.16981 29.0379H45.028C46.5286 29.0379 47.745 27.8214 47.745 26.3209V3.67938C47.745 2.17884 46.5286 0.962402 45.028 0.962402Z"
    fill="white" stroke="#EAEAEA" />
  <path fill-rule="evenodd" clip-rule="evenodd"
    d="M38.0725 10.3073H10.3362V7.65074C10.3362 7.20132 10.6835 6.8354 11.111 6.8354H37.2972C37.7247 6.8354 38.0725 7.20132 38.0725 7.65074V10.3073ZM38.0725 23.467C38.0725 23.9169 37.7247 24.2823 37.2972 24.2823H11.111C10.6835 24.2823 10.3362 23.9169 10.3362 23.467V19.1965H20.5389V17.4798H10.3362V14.6375H38.0725V23.467ZM37.2972 5.97705H11.111C10.2342 5.97705 9.52054 6.72811 9.52054 7.65074V23.467C9.52054 24.3901 10.2342 25.1407 11.111 25.1407H37.2972C38.1745 25.1407 38.8882 24.3901 38.8882 23.467V7.65074C38.8882 6.72811 38.1745 5.97705 37.2972 5.97705Z"
    fill="#333333" />
</svg>
