<svg width="49" height="30" fill="none" xmlns="http://www.w3.org/2000/svg">
  <path
    d="M45.028 0.962402H4.16981C2.66926 0.962402 1.45283 2.17884 1.45283 3.67938V26.3209C1.45283 27.8214 2.66926 29.0379 4.16981 29.0379H45.028C46.5286 29.0379 47.745 27.8214 47.745 26.3209V3.67938C47.745 2.17884 46.5286 0.962402 45.028 0.962402Z"
    fill="white" stroke="#EAEAEA" />
  <path fill-rule="evenodd" clip-rule="evenodd"
    d="M28.3341 14.3845C28.3302 11.9601 26.8395 9.89214 24.7406 9.07339V19.6952C26.8395 18.8754 28.3302 16.8094 28.3341 14.3845ZM20.7345 19.6932V9.07437C18.6366 9.89606 17.1488 11.9611 17.1435 14.3845C17.1488 16.8075 18.6366 18.8725 20.7345 19.6932ZM22.7381 5.40662C17.8629 5.40858 13.9136 9.42645 13.9126 14.3845C13.9136 19.3421 17.8629 23.359 22.7381 23.36C27.6138 23.359 31.5645 19.3421 31.5659 14.3845C31.5645 9.42645 27.6138 5.40858 22.7381 5.40662ZM22.7169 24.2077C17.3818 24.2331 12.991 19.8376 12.991 14.4869C12.991 8.63953 17.3818 4.59472 22.7169 4.5957H25.2168C30.4888 4.59472 35.3005 8.63757 35.3005 14.4869C35.3005 19.8357 30.4888 24.2077 25.2168 24.2077H22.7169Z"
    fill="#003399" />
</svg>
