<svg width="50" height="31" fill="none" xmlns="http://www.w3.org/2000/svg">
  <path
    d="M45.7692 1.05127H4.23076C2.70136 1.05127 1.46153 2.2911 1.46153 3.8205V26.8974C1.46153 28.4268 2.70136 29.6667 4.23076 29.6667H45.7692C47.2986 29.6667 48.5385 28.4268 48.5385 26.8974V3.8205C48.5385 2.2911 47.2986 1.05127 45.7692 1.05127Z"
    fill="white" stroke="#EAEAEA" />
  <path fill-rule="evenodd" clip-rule="evenodd"
    d="M11.1838 14.9912V26.2825C11.1838 26.4206 11.1838 26.4206 11.322 26.4206C15.8929 26.4206 20.4639 26.4206 25.0349 26.4206C25.5852 26.4206 26.1351 26.4121 26.6848 26.382C27.7174 26.3252 28.74 26.2011 29.7496 25.9829C31.1284 25.6849 32.4421 25.224 33.6529 24.51C35.2259 23.5822 36.4374 22.3303 37.2664 20.7361C37.9945 19.3357 38.3515 17.8404 38.4789 16.2877C38.5647 15.2415 38.5518 14.1961 38.4229 13.1529C38.2776 11.977 37.9895 10.8375 37.4996 9.74927C36.8135 8.22502 35.795 6.9537 34.4122 5.96033C33.1933 5.08483 31.8268 4.51638 30.3665 4.14449C28.7495 3.73278 27.0995 3.5754 25.4329 3.57346C20.7262 3.56842 16.0195 3.57218 11.3127 3.56885C11.2003 3.56885 11.1814 3.59901 11.1814 3.69982C11.1842 7.46354 11.1838 11.2274 11.1838 14.9912Z"
    fill="#FDFDFD" />
  <path fill-rule="evenodd" clip-rule="evenodd"
    d="M12.295 14.9912C12.295 18.4057 12.2953 21.8203 12.2927 25.2348C12.2927 25.3252 12.3136 25.3475 12.4086 25.3475C16.69 25.3449 20.9713 25.3447 25.2526 25.3456C26.4483 25.346 27.6377 25.2709 28.8166 25.0702C30.1148 24.8491 31.3654 24.4869 32.5362 23.8902C33.8977 23.1964 35.0167 22.2437 35.8448 20.9824C36.6764 19.7157 37.1105 18.3171 37.3049 16.8402C37.4293 15.8946 37.4503 14.9453 37.3902 13.9946C37.3267 12.9907 37.1554 12.0051 36.8305 11.0474C36.301 9.48721 35.4125 8.15943 34.0939 7.1127C32.9797 6.22818 31.7043 5.64932 30.3278 5.26487C28.7715 4.83029 27.1768 4.65347 25.5629 4.65015C21.1743 4.64102 16.7858 4.6465 12.3972 4.64306C12.2962 4.64306 12.2937 4.68257 12.2937 4.75782C12.2951 8.16898 12.295 11.58 12.295 14.9912ZM25.433 3.57346C27.0995 3.57529 28.7496 3.73267 30.3665 4.1445C31.8268 4.51627 33.1933 5.08473 34.4121 5.96033C35.795 6.9537 36.8134 8.22502 37.4996 9.74917C37.9895 10.8374 38.2776 11.977 38.4229 13.1528C38.5518 14.196 38.5648 15.2415 38.4789 16.2877C38.3515 17.8404 37.9945 19.3356 37.2664 20.736C36.4375 22.3303 35.226 23.5822 33.653 24.51C32.4421 25.224 31.1284 25.6849 29.7496 25.9828C28.7401 26.2011 27.7174 26.3252 26.6848 26.3818C26.135 26.412 25.5852 26.4205 25.0349 26.4205C20.4639 26.4205 15.8929 26.4205 11.322 26.4205C11.1838 26.4205 11.1838 26.4205 11.1838 26.2824V14.9912C11.1838 11.2273 11.1842 7.46354 11.1814 3.69972C11.1814 3.59902 11.2004 3.56885 11.3126 3.56885"
    fill="#020202" />
  <path fill-rule="evenodd" clip-rule="evenodd"
    d="M20.2975 12.883C20.2975 13.242 20.2975 13.601 20.2975 13.96C20.2975 14.0074 20.2846 14.0579 20.3671 14.0555C20.6666 14.0466 20.9669 14.0703 21.266 14.0393C21.5918 14.0054 21.8236 13.8444 21.9243 13.5412C22.0655 13.1165 22.071 12.6842 21.9336 12.2575C21.8336 11.9472 21.6034 11.774 21.2701 11.7332C20.9821 11.6979 20.6923 11.7261 20.4037 11.7148C20.3211 11.7115 20.2941 11.7321 20.2954 11.8163C20.3005 12.1718 20.2975 12.5275 20.2975 12.883ZM13.5318 12.8835C13.5334 14.263 14.6931 15.3843 16.1183 15.3844C17.545 15.3845 18.7046 14.2657 18.7074 12.8861C18.7103 11.5031 17.5463 10.3782 16.1157 10.3815C14.6868 10.3849 13.5303 11.5049 13.5318 12.8835ZM18.2005 20.0722C18.2005 18.9145 18.1996 17.757 18.2023 16.5994C18.2026 16.5174 18.1873 16.4885 18.0942 16.4887C16.7793 16.4919 15.4642 16.4918 14.1494 16.4889C14.0621 16.4887 14.0363 16.5078 14.0364 16.5954C14.039 18.9141 14.0391 21.2328 14.0357 23.5516C14.0355 23.6496 14.0683 23.6611 14.156 23.661C15.4639 23.6584 16.7717 23.6583 18.0796 23.6612C18.1741 23.6614 18.2033 23.6428 18.203 23.5452C18.199 22.3875 18.2005 21.2299 18.2005 20.0722ZM20.2984 19.4349C20.2984 20.8035 20.2997 22.1721 20.2957 23.5407C20.2953 23.6441 20.3262 23.6634 20.4266 23.6632C22.0347 23.6599 23.643 23.6604 25.2512 23.6611C26.174 23.6616 27.094 23.6162 28.0087 23.4934C29.1213 23.344 30.2047 23.0898 31.2328 22.642C33.0691 21.8422 34.3648 20.5492 35.0621 18.7112C35.4768 17.6185 35.6343 16.4828 35.6738 15.3267C35.677 15.2349 35.6535 15.2115 35.5579 15.2118C34.6288 15.2156 33.6996 15.2131 32.7705 15.2158C32.6867 15.216 32.6623 15.1948 32.6624 15.1123C32.6651 13.6261 32.6652 12.14 32.6622 10.654C32.6619 10.5665 32.694 10.5527 32.7731 10.5537C33.0911 10.5574 33.4093 10.5598 33.7272 10.5526C33.8339 10.5503 33.8639 10.5747 33.8633 10.6818C33.8588 11.7669 33.8619 12.8522 33.8582 13.9374C33.8579 14.0337 33.8855 14.0576 33.9831 14.0568C34.494 14.052 35.0052 14.0517 35.5161 14.057C35.6177 14.0579 35.6409 14.0313 35.6318 13.9362C35.5703 13.2951 35.467 12.6613 35.2885 12.0403C34.9686 10.9281 34.4426 9.92309 33.6321 9.0667C32.7556 8.14064 31.677 7.51561 30.4662 7.09177C29.0262 6.58762 27.5295 6.38107 26.0076 6.35036C24.1355 6.31268 22.2626 6.34306 20.3899 6.33512C20.2973 6.33469 20.2974 6.37548 20.2975 6.44108C20.2986 7.77864 20.2994 9.11609 20.2961 10.4535C20.296 10.5437 20.3265 10.5591 20.4114 10.5591C20.7221 10.5591 21.0336 10.5397 21.3433 10.5753C22.1226 10.6645 22.6967 11.0366 23.0065 11.7443C23.2782 12.3646 23.2868 13.0103 23.1309 13.657C22.9187 14.5363 22.3277 15.0559 21.4062 15.1886C21.0833 15.2351 20.7567 15.2143 20.4318 15.2115C20.3278 15.2106 20.295 15.2303 20.2953 15.3395C20.2999 16.7046 20.2984 18.0698 20.2984 19.4349ZM12.295 14.9912C12.295 11.58 12.2951 8.16888 12.2937 4.75783C12.2936 4.68247 12.2961 4.64307 12.3973 4.64307C16.7858 4.6465 21.1743 4.64103 25.5628 4.65004C27.1767 4.65337 28.7714 4.83019 30.3278 5.26488C31.7042 5.64932 32.9798 6.22819 34.0939 7.1126C35.4125 8.15943 36.301 9.48722 36.8305 11.0474C37.1554 12.0051 37.3267 12.9907 37.3901 13.9946C37.4503 14.9453 37.4294 15.8945 37.3049 16.8402C37.1106 18.3171 36.6764 19.7157 35.8447 20.9825C35.0166 22.2437 33.8976 23.1964 32.5363 23.8902C31.3654 24.4868 30.1148 24.849 28.8166 25.0702C27.6377 25.2709 26.4484 25.3459 25.2525 25.3455C20.9712 25.3447 16.6899 25.3449 12.4086 25.3475C12.3137 25.3475 12.2927 25.3252 12.2927 25.2347C12.2954 21.8203 12.295 18.4057 12.295 14.9912Z"
    fill="#FEFDFD" />
  <path fill-rule="evenodd" clip-rule="evenodd"
    d="M23.9071 12.8804C23.9071 13.6234 23.9082 14.3666 23.9055 15.1096C23.9052 15.1872 23.9207 15.2166 24.0103 15.2162C24.9323 15.2129 25.8543 15.2132 26.7764 15.2159C26.8581 15.2162 26.8788 15.1926 26.8778 15.1161C26.8736 14.8017 26.8722 14.4871 26.8783 14.1727C26.8801 14.0789 26.8556 14.0512 26.7554 14.0521C26.2372 14.0573 25.719 14.0531 25.2008 14.056C25.1258 14.0565 25.1019 14.0355 25.1046 13.9627C25.1099 13.8143 25.111 13.6653 25.1042 13.5171C25.1006 13.4355 25.125 13.4123 25.2106 13.413C25.6716 13.4172 26.1327 13.4135 26.5936 13.4166C26.6674 13.417 26.6914 13.3987 26.6904 13.3247C26.6864 13.0034 26.6851 12.6817 26.6909 12.3605C26.6926 12.2709 26.6622 12.2531 26.576 12.2539C26.1222 12.2579 25.6683 12.2531 25.2145 12.258C25.1223 12.2588 25.0987 12.2312 25.1043 12.1471C25.1117 12.0369 25.1123 11.9256 25.1041 11.8156C25.0977 11.7292 25.1322 11.7138 25.2131 11.7143C25.6991 11.7176 26.1852 11.7143 26.6711 11.7176C26.7519 11.7182 26.7817 11.7024 26.7802 11.6167C26.7744 11.2988 26.7747 10.9809 26.78 10.6629C26.7814 10.5768 26.7561 10.5542 26.6673 10.5544C25.7846 10.5578 24.902 10.5583 24.0192 10.5539C23.9181 10.5534 23.9047 10.5868 23.9052 10.672C23.9084 11.4081 23.9071 12.1443 23.9071 12.8804ZM31.4282 15.2155C31.6032 15.2155 31.7784 15.2109 31.9532 15.2175C32.0477 15.2209 32.0565 15.1953 32.0309 15.1131C31.5641 13.6231 31.0997 12.1325 30.6368 10.6414C30.6175 10.5793 30.5931 10.5528 30.5209 10.5534C30.0102 10.5566 29.4992 10.5563 28.9885 10.5537C28.9235 10.5533 28.8958 10.5733 28.8772 10.6331C28.4123 12.1309 27.946 13.6283 27.4772 15.1248C27.4524 15.2045 27.4727 15.2175 27.55 15.2168C27.9036 15.2139 28.2574 15.2133 28.6109 15.2175C28.6842 15.2183 28.7084 15.19 28.726 15.1285C28.7961 14.8859 28.873 14.6451 28.9422 14.4021C28.9613 14.3349 28.9891 14.3086 29.066 14.3092C29.5268 14.3132 29.9876 14.3128 30.4484 14.3097C30.5184 14.3091 30.5483 14.3308 30.5667 14.3949C30.6382 14.6444 30.7164 14.8921 30.7885 15.1415C30.8047 15.1974 30.8302 15.2186 30.8924 15.2172C31.0708 15.2129 31.2496 15.2155 31.4282 15.2155ZM20.2984 19.4349C20.2984 18.0697 20.2999 16.7047 20.2953 15.3395C20.2949 15.2304 20.3278 15.2107 20.4318 15.2116C20.7568 15.2144 21.0834 15.2351 21.4062 15.1886C22.3276 15.0559 22.9187 14.5363 23.1309 13.657C23.2868 13.0103 23.2782 12.3647 23.0065 11.7443C22.6967 11.0367 22.1227 10.6646 21.3433 10.5753C21.0336 10.5398 20.7221 10.5591 20.4114 10.5591C20.3265 10.5591 20.2961 10.5438 20.2962 10.4536C20.2993 9.11618 20.2986 7.77862 20.2974 6.44117C20.2974 6.37547 20.2973 6.33467 20.39 6.3351C22.2626 6.34304 24.1355 6.31277 26.0077 6.35045C27.5295 6.38105 29.0262 6.58771 30.4663 7.09186C31.6771 7.5157 32.7557 8.14063 33.6321 9.06669C34.4426 9.92307 34.9686 10.928 35.2884 12.0403C35.467 12.6613 35.5703 13.295 35.6318 13.9362C35.6409 14.0314 35.6177 14.058 35.5161 14.057C35.0052 14.0517 34.494 14.0521 33.9831 14.0567C33.8855 14.0577 33.8579 14.0337 33.8582 13.9374C33.8619 12.8522 33.8588 11.767 33.8633 10.6819C33.8638 10.5747 33.8339 10.5503 33.7272 10.5526C33.4093 10.5598 33.091 10.5573 32.7731 10.5537C32.694 10.5528 32.662 10.5665 32.6622 10.654C32.6652 12.1401 32.6651 13.6261 32.6624 15.1123C32.6623 15.1948 32.6867 15.2161 32.7705 15.2158C33.6996 15.2131 34.6288 15.2155 35.558 15.2119C35.6535 15.2115 35.677 15.235 35.6739 15.3267C35.6343 16.4828 35.4768 17.6185 35.0622 18.7112C34.3648 20.5491 33.0692 21.8421 31.2328 22.642C30.2047 23.0897 29.1213 23.344 28.0088 23.4934C27.094 23.6162 26.1741 23.6616 25.2511 23.6611C23.643 23.6604 22.0347 23.66 20.4266 23.6631C20.3263 23.6633 20.2953 23.6441 20.2957 23.5406C20.2997 22.1721 20.2984 20.8035 20.2984 19.4349Z"
    fill="#D40272" />
  <path fill-rule="evenodd" clip-rule="evenodd"
    d="M18.2005 20.0722C18.2005 21.2299 18.199 22.3875 18.203 23.5452C18.2034 23.6428 18.1741 23.6615 18.0796 23.6613C16.7718 23.6583 15.4639 23.6584 14.1561 23.6611C14.0683 23.6612 14.0355 23.6496 14.0356 23.5516C14.0392 21.2329 14.039 18.9142 14.0364 16.5954C14.0363 16.5079 14.0621 16.4888 14.1493 16.489C15.4643 16.4918 16.7792 16.4919 18.0941 16.4888C18.1874 16.4886 18.2026 16.5174 18.2024 16.5993C18.1996 17.7571 18.2005 18.9146 18.2005 20.0722Z"
    fill="#010101" />
  <path fill-rule="evenodd" clip-rule="evenodd"
    d="M13.5318 12.8838C13.5302 11.5051 14.6868 10.3853 16.1157 10.3818C17.5463 10.3785 18.7104 11.5034 18.7075 12.8865C18.7046 14.266 17.5451 15.3849 16.1183 15.3848C14.6932 15.3847 13.5334 14.2633 13.5318 12.8838Z"
    fill="#010101" />
  <path fill-rule="evenodd" clip-rule="evenodd"
    d="M20.2975 12.8829C20.2975 12.5274 20.3005 12.1717 20.2954 11.8162C20.2942 11.732 20.3211 11.7115 20.4037 11.7147C20.6924 11.7261 20.9821 11.6978 21.2701 11.7331C21.6034 11.7739 21.8336 11.9471 21.9336 12.2574C22.071 12.6841 22.0655 13.1164 21.9243 13.5411C21.8236 13.8443 21.5918 14.0053 21.266 14.0392C20.9669 14.0702 20.6666 14.0465 20.3671 14.0554C20.2846 14.0578 20.2975 14.0073 20.2975 13.9599C20.2975 13.6009 20.2975 13.2419 20.2975 12.8829Z"
    fill="#D40272" />
  <path fill-rule="evenodd" clip-rule="evenodd"
    d="M29.7571 13.1527C29.8787 13.1527 30.0001 13.1521 30.1216 13.1529C30.1651 13.1532 30.1881 13.147 30.172 13.0944C30.0497 12.6936 29.9299 12.2921 29.809 11.8909C29.8011 11.8643 29.7944 11.8371 29.7551 11.838C29.7155 11.8389 29.7113 11.8681 29.7035 11.8937C29.5828 12.2915 29.4635 12.6895 29.3413 13.0868C29.3249 13.14 29.3388 13.1542 29.3927 13.1533C29.5141 13.1513 29.6356 13.1527 29.7571 13.1527ZM31.4282 15.2154C31.2495 15.2154 31.0709 15.2126 30.8925 15.217C30.8302 15.2184 30.8048 15.1972 30.7886 15.1412C30.7164 14.892 30.6382 14.6443 30.5668 14.3948C30.5483 14.3307 30.5184 14.309 30.4484 14.3094C29.9876 14.3127 29.5268 14.3131 29.066 14.3091C28.9892 14.3085 28.9613 14.3348 28.9422 14.402C28.873 14.6448 28.7961 14.8857 28.7261 15.1284C28.7084 15.1899 28.6842 15.2182 28.6109 15.2172C28.2574 15.2132 27.9037 15.2138 27.55 15.2167C27.4727 15.2174 27.4523 15.2044 27.4773 15.1247C27.9461 13.6282 28.4123 12.1307 28.8771 10.633C28.8957 10.5732 28.9234 10.5531 28.9885 10.5536C29.4993 10.556 30.0101 10.5565 30.5209 10.5532C30.5931 10.5527 30.6175 10.5792 30.6368 10.6413C31.0997 12.1323 31.564 13.623 32.0308 15.113C32.0565 15.1951 32.0478 15.2208 31.9532 15.2172C31.7785 15.2108 31.6033 15.2154 31.4282 15.2154Z"
    fill="#FEFCFD" />
  <path fill-rule="evenodd" clip-rule="evenodd"
    d="M23.9071 12.8807C23.9071 12.1446 23.9084 11.4084 23.9052 10.6723C23.9047 10.5871 23.9181 10.5537 24.0192 10.5542C24.902 10.5586 25.7846 10.5581 26.6673 10.5547C26.7561 10.5545 26.7814 10.5771 26.78 10.6632C26.7748 10.9812 26.7744 11.2992 26.7802 11.617C26.7817 11.7027 26.7519 11.7185 26.6711 11.718C26.1852 11.7146 25.6991 11.718 25.2131 11.7146C25.1322 11.7141 25.0977 11.7296 25.1041 11.8159C25.1123 11.9259 25.1117 12.0372 25.1043 12.1474C25.0987 12.2316 25.1223 12.2591 25.2145 12.2583C25.6683 12.2535 26.1222 12.2582 26.576 12.2542C26.6622 12.2535 26.6926 12.2712 26.6909 12.3608C26.6851 12.682 26.6864 13.0037 26.6904 13.325C26.6914 13.3991 26.6674 13.4173 26.5936 13.4169C26.1327 13.4138 25.6716 13.4175 25.2106 13.4133C25.125 13.4126 25.1006 13.4358 25.1042 13.5174C25.111 13.6656 25.1099 13.8146 25.1046 13.963C25.1019 14.0358 25.1258 14.0568 25.2008 14.0563C25.719 14.0534 26.2372 14.0576 26.7554 14.0524C26.8556 14.0515 26.8801 14.0792 26.8783 14.173C26.8722 14.4874 26.8736 14.802 26.8778 15.1164C26.8788 15.1929 26.8581 15.2165 26.7764 15.2162C25.8543 15.2135 24.9323 15.2132 24.0103 15.2165C23.9207 15.2169 23.9052 15.1875 23.9055 15.1099C23.9082 14.3669 23.9071 13.6238 23.9071 12.8807Z"
    fill="#FEFCFD" />
  <path fill-rule="evenodd" clip-rule="evenodd"
    d="M29.7571 13.1531C29.6356 13.1531 29.5141 13.1517 29.3927 13.1537C29.3388 13.1546 29.3248 13.1404 29.3413 13.0872C29.4635 12.69 29.5828 12.2919 29.7035 11.8941C29.7113 11.8686 29.7155 11.8394 29.7551 11.8384C29.7944 11.8375 29.8011 11.8647 29.809 11.8913C29.9299 12.2925 30.0496 12.694 30.172 13.0948C30.1881 13.1474 30.1651 13.1536 30.1216 13.1533C30.0001 13.1526 29.8787 13.1531 29.7571 13.1531Z"
    fill="#D40272" />
</svg>
