<svg width="49" height="30" fill="none" xmlns="http://www.w3.org/2000/svg">
  <path
    d="M45.028 0.962402H4.1698C2.66925 0.962402 1.45282 2.17884 1.45282 3.67938V26.3209C1.45282 27.8214 2.66925 29.0379 4.1698 29.0379H45.028C46.5286 29.0379 47.745 27.8214 47.745 26.3209V3.67938C47.745 2.17884 46.5286 0.962402 45.028 0.962402Z"
    fill="white" stroke="#EAEAEA" />
  <path fill-rule="evenodd" clip-rule="evenodd"
    d="M7.8082 10.1157H28.6077V8.74268H7.8082V10.1157ZM7.8082 16.1231H28.6077V14.7501H7.8082V16.1231ZM7.8082 21.9593H28.6077V20.5864H7.8082V21.9593Z"
    fill="#343434" />
  <path fill-rule="evenodd" clip-rule="evenodd"
    d="M42.2894 10.9837L36.869 16.4963L34.0105 13.5888L34.9633 12.6203L36.8694 14.5583L41.5366 9.8113C40.6013 8.71148 39.2205 8.01465 37.678 8.01465C34.8612 8.01465 32.5777 10.3369 32.5777 13.2021C32.5777 16.0669 34.8612 18.3892 37.678 18.3892C40.4954 18.3892 42.7788 16.0669 42.7788 13.2021C42.7788 12.4082 42.6029 11.656 42.2894 10.9837Z"
    fill="#FF6600" />
  <path fill-rule="evenodd" clip-rule="evenodd"
    d="M34.9637 12.6198L34.0104 13.5888L36.8688 16.4964L42.2893 10.9838L42.2978 10.9751C42.1011 10.5476 41.8481 10.1528 41.5493 9.79834L41.5365 9.81132L36.8693 14.5578L34.9637 12.6198Z"
    fill="white" />
</svg>
