<svg width="49" height="30" fill="none" xmlns="http://www.w3.org/2000/svg">
  <path
    d="M45.0278 0.962402H4.1698C2.66925 0.962402 1.45282 2.17884 1.45282 3.67938V26.3209C1.45282 27.8214 2.66925 29.0379 4.1698 29.0379H45.0278C46.5283 29.0379 47.7447 27.8214 47.7447 26.3209V3.67938C47.7447 2.17884 46.5283 0.962402 45.0278 0.962402Z"
    fill="white" stroke="#EAEAEA" />
  <path fill-rule="evenodd" clip-rule="evenodd"
    d="M8.14562 8.91123H41.3915V7.50293H8.14471L8.14562 8.91123ZM8.14562 15.0752H41.3915V13.6659H8.14471L8.14562 15.0752Z"
    fill="#999999" />
  <path fill-rule="evenodd" clip-rule="evenodd"
    d="M12.7618 24.4941H13.8105V19.4659H12.7618V24.4941ZM18.5336 24.4941H17.502V22.2481C17.502 21.971 17.454 21.7627 17.3571 21.625C17.2602 21.4864 17.1053 21.4167 16.8934 21.4167C16.6045 21.4167 16.3962 21.5145 16.2685 21.7101C16.139 21.9067 16.0747 22.2309 16.0747 22.6855V24.4941H15.0431V20.6496H15.8311L15.9705 21.1405H16.0276C16.141 20.9562 16.3065 20.8097 16.5031 20.7193C16.719 20.621 16.9541 20.5721 17.1914 20.5762C17.6306 20.5762 17.9639 20.6976 18.1921 20.9394C18.4185 21.1821 18.5336 21.5308 18.5336 21.9873V24.4941ZM20.5649 24.4941L19.124 20.6496H20.2027L20.9326 22.8395C21.0142 23.1175 21.0649 23.3802 21.0857 23.6274H21.1056C21.1165 23.4073 21.1681 23.1447 21.2578 22.8395L21.985 20.6496H23.0628L21.6228 24.4941H20.5649ZM24.4955 22.5651C24.4955 22.9454 24.5571 23.2334 24.6803 23.4282C24.8025 23.6229 25.0027 23.7207 25.2807 23.7207C25.5551 23.7207 25.7526 23.6238 25.8739 23.43C25.9944 23.2362 26.0551 22.9482 26.0551 22.5651C26.0551 22.1847 25.9935 21.8994 25.8721 21.7083C25.7508 21.5181 25.5506 21.423 25.2744 21.423C24.9982 21.423 24.7998 21.5172 24.6785 21.7074C24.5571 21.8958 24.4955 22.182 24.4955 22.5651ZM27.1102 22.5651C27.1102 23.1909 26.9471 23.6808 26.6229 24.034C26.2987 24.3873 25.8468 24.563 25.2662 24.563C24.904 24.563 24.5834 24.4824 24.3062 24.3211C24.0281 24.1582 23.8056 23.9151 23.6677 23.6238C23.5183 23.3213 23.444 22.969 23.444 22.5642C23.444 21.9365 23.6052 21.4484 23.9277 21.0997C24.2501 20.751 24.7029 20.5771 25.2871 20.5771C25.6502 20.5771 25.9699 20.6577 26.2471 20.818C26.5251 20.9784 26.7379 21.2075 26.8865 21.5091C27.0359 21.8097 27.1102 22.1611 27.1102 22.5651ZM28.0321 24.4941H29.0628V20.6487H28.0321V24.4941ZM27.9868 19.6552C27.9868 19.3137 28.1743 19.1426 28.5483 19.1426C28.9233 19.1426 29.1099 19.3137 29.1099 19.6552C29.1099 19.8182 29.0646 19.945 28.9704 20.0356C28.8771 20.1261 28.7358 20.1714 28.5492 20.1714C28.1743 20.1714 27.9868 19.9993 27.9868 19.6552ZM31.7499 24.5639C30.5734 24.5639 29.9838 23.9064 29.9838 22.5922C29.9838 21.9384 30.145 21.4393 30.4656 21.0952C30.7853 20.7501 31.2445 20.5771 31.8422 20.5771C32.2788 20.5771 32.6709 20.6641 33.0187 20.8389L32.7144 21.6504C32.5659 21.5887 32.4144 21.5343 32.2606 21.4873C32.1248 21.4453 31.9835 21.4239 31.8413 21.4239C31.3052 21.4239 31.0371 21.8107 31.0371 22.585C31.0371 23.3376 31.3052 23.7134 31.8413 23.7134C32.0397 23.7134 32.2235 23.6863 32.3929 23.6337C32.5622 23.5794 32.7307 23.4952 32.9 23.3802V24.2777C32.7334 24.3864 32.5649 24.4606 32.3947 24.5014C32.1829 24.547 31.9665 24.5686 31.7499 24.5639ZM35.4114 21.3234C35.1923 21.3234 35.022 21.394 34.897 21.5353C34.7729 21.6757 34.7023 21.8759 34.6842 22.1349H36.1314C36.1269 21.8759 36.0599 21.6757 35.9322 21.5353C35.8036 21.394 35.6297 21.3234 35.4114 21.3234ZM35.5563 24.5639C34.9477 24.5639 34.4723 24.3918 34.129 24.0504C33.7867 23.7089 33.6155 23.2253 33.6155 22.5995C33.6155 21.9547 33.774 21.4565 34.0901 21.1042C34.4071 20.7528 34.8454 20.5762 35.4042 20.5762C35.9385 20.5762 36.3551 20.732 36.6522 21.0417C36.9502 21.3506 37.0987 21.778 37.0987 22.3242V22.8331H34.6606C34.6715 23.1311 34.7585 23.3639 34.9206 23.5314C35.0836 23.699 35.31 23.7823 35.6034 23.7823C35.8317 23.7823 36.0472 23.7587 36.2501 23.7098C36.4529 23.6618 36.6649 23.5848 36.8859 23.4798V24.2913C36.7026 24.3841 36.5081 24.4529 36.3071 24.4959C36.06 24.5451 35.8083 24.5679 35.5563 24.5639Z"
    fill="#FF6600" />
</svg>
