<svg width="49" height="30" fill="none" xmlns="http://www.w3.org/2000/svg">
  <path
    d="M45.0278 0.962402H4.1698C2.66925 0.962402 1.45282 2.17884 1.45282 3.67938V26.3209C1.45282 27.8214 2.66925 29.0379 4.1698 29.0379H45.0278C46.5283 29.0379 47.7447 27.8214 47.7447 26.3209V3.67938C47.7447 2.17884 46.5283 0.962402 45.0278 0.962402Z"
    fill="white" stroke="#EAEAEA" />
  <path fill-rule="evenodd" clip-rule="evenodd"
    d="M9.36194 8.24381H40.5076V6.93604H9.36284V8.24381H9.36194ZM9.36194 13.9649H40.5076V12.6571H9.36284V13.9649H9.36194Z"
    fill="#999999" />
  <path fill-rule="evenodd" clip-rule="evenodd"
    d="M14.1683 22.7073H13.202V18.0396H15.8574V18.851H14.1683V20.0546H15.7396V20.8625H14.1683V22.7073ZM18.7156 21.0536L18.3416 21.0672C18.0608 21.0744 17.8525 21.126 17.7149 21.2202C17.5772 21.3135 17.5084 21.4557 17.5084 21.6477C17.5084 21.9221 17.6651 22.0589 17.9775 22.0589C18.2021 22.0589 18.3805 21.9937 18.5146 21.8642C18.582 21.7967 18.6347 21.716 18.6693 21.6272C18.7039 21.5383 18.7197 21.4432 18.7156 21.3479V21.0536ZM19.0009 22.7073L18.8134 22.2219H18.7881C18.626 22.4284 18.4584 22.5715 18.2872 22.6512C18.1143 22.7318 17.8906 22.7716 17.6134 22.7716C17.2729 22.7716 17.0057 22.6738 16.8101 22.4782C16.6145 22.2817 16.5167 22.0027 16.5167 21.6405C16.5167 21.2619 16.648 20.9829 16.9116 20.8036C17.1742 20.6234 17.5709 20.5229 18.1016 20.5048L18.7156 20.4857V20.3291C18.7156 19.9668 18.5318 19.7866 18.1641 19.7866C17.8815 19.7866 17.5482 19.8726 17.166 20.0447L16.8463 19.3872C17.2648 19.1696 17.7305 19.0589 18.2021 19.0648C18.6776 19.0648 19.0426 19.1689 19.2962 19.3781C19.5497 19.5864 19.6756 19.9034 19.6756 20.3291V22.7073H19.0009ZM22.2278 21.9955C22.3971 21.9955 22.5991 21.9583 22.8364 21.8841V22.6086C22.5955 22.7173 22.2993 22.7716 21.9488 22.7716C21.563 22.7716 21.2814 22.6729 21.1048 22.4764C20.9282 22.2789 20.8403 21.9837 20.8403 21.5897V19.869H20.3784V19.4569L20.91 19.1309L21.189 18.3792H21.8066V19.1381H22.7983V19.869H21.8066V21.5897C21.8066 21.7283 21.8456 21.8306 21.9217 21.8968C22.0085 21.9655 22.1172 22.0006 22.2278 21.9955ZM25.1096 21.9955C25.278 21.9955 25.4809 21.9583 25.7173 21.8841V22.6086C25.4764 22.7173 25.1811 22.7716 24.8297 22.7716C24.4448 22.7716 24.1632 22.6729 23.9866 22.4764C23.81 22.2789 23.7212 21.9837 23.7212 21.5897V19.869H23.2593V19.4569L23.7919 19.1309L24.0699 18.3792H24.6885V19.1381H25.6802V19.869H24.6885V21.5897C24.6885 21.7283 24.7265 21.8306 24.8035 21.8968C24.8903 21.9655 24.999 22.0006 25.1096 21.9955ZM29.0076 22.7073L28.878 22.2509H28.8273C28.7212 22.4192 28.5682 22.553 28.3872 22.6358C28.197 22.7263 27.9805 22.7716 27.7378 22.7716C27.3212 22.7716 27.0079 22.6593 26.7959 22.4338C26.5858 22.2101 26.4799 21.8868 26.4799 21.4657V19.1381H27.4462V21.2229C27.4462 21.4802 27.4915 21.674 27.582 21.8026C27.6726 21.9312 27.8175 21.9955 28.0168 21.9955C28.2866 21.9955 28.4814 21.904 28.6027 21.7229C28.7232 21.5399 28.7829 21.2392 28.7829 20.8172V19.1381H29.7493V22.7073H29.0076ZM32.8059 19.0711C32.9363 19.0711 33.045 19.0802 33.1319 19.1001L33.0595 20.013C32.9658 19.9902 32.8696 19.9795 32.7733 19.9813C32.4654 19.9813 32.2245 20.061 32.0524 20.2204C31.8803 20.3798 31.7943 20.6035 31.7943 20.8906V22.7082H30.8279V19.1381H31.5606L31.7028 19.7386H31.7508C31.8595 19.5393 32.008 19.3763 32.1955 19.254C32.3763 19.1339 32.5888 19.0703 32.8059 19.0711ZM35.8036 21.0545L35.4305 21.0672C35.1497 21.0744 34.9405 21.126 34.8029 21.2202C34.6661 21.3135 34.5973 21.4557 34.5973 21.6477C34.5973 21.9221 34.7531 22.0589 35.0655 22.0589C35.2901 22.0589 35.4685 21.9937 35.6026 21.8642C35.67 21.7967 35.7227 21.716 35.7573 21.6272C35.7919 21.5383 35.8077 21.4432 35.8036 21.3479V21.0545ZM36.0889 22.7073L35.9023 22.2219H35.877C35.714 22.4284 35.5473 22.5715 35.3752 22.6512C35.2032 22.7318 34.9786 22.7716 34.7014 22.7716C34.3618 22.7716 34.0937 22.6738 33.8981 22.4782C33.7025 22.2817 33.6047 22.0027 33.6047 21.6405C33.6047 21.2619 33.7369 20.9829 34.0005 20.8036C34.2631 20.6234 34.6598 20.5229 35.1896 20.5048L35.8036 20.4857V20.3291C35.8036 19.9668 35.6207 19.7866 35.2521 19.7866C34.9704 19.7866 34.6371 19.8726 34.254 20.0447L33.9343 19.3872C34.3531 19.1695 34.8191 19.0587 35.291 19.0648C35.7656 19.0648 36.1306 19.1689 36.3842 19.3781C36.6377 19.5864 36.7645 19.9034 36.7645 20.3291V22.7073H36.0889Z"
    fill="#FF6600" />
</svg>
