<svg width="48" height="30" fill="none" xmlns="http://www.w3.org/2000/svg">
  <path
    d="M44.9936 0.962402H3.02877C1.85621 0.962402 0.90567 1.91294 0.90567 3.0855V26.9148C0.90567 28.0873 1.85621 29.0379 3.02877 29.0379H44.9936C46.1662 29.0379 47.1167 28.0873 47.1167 26.9148V3.0855C47.1167 1.91294 46.1662 0.962402 44.9936 0.962402Z"
    fill="#EB6F93" stroke="#EAEAEA" />
  <path fill-rule="evenodd" clip-rule="evenodd"
    d="M33.5903 25.8931C33.9396 25.8931 34.2261 25.6076 34.2261 25.2584C34.2261 24.9097 33.9396 24.6237 33.5903 24.6237C33.241 24.6237 32.9545 24.9097 32.9545 25.2584C32.9545 25.6076 33.241 25.8931 33.5903 25.8931ZM31.5385 24.1146V23.2916C31.7481 23.5148 32.0485 23.6268 32.4258 23.6268V22.7201C31.9088 22.7057 31.5385 22.3639 31.5385 21.904V21.3735H30.5883V24.1634C30.5883 25.0701 31.1542 25.8373 32.314 25.8373H32.4537V24.9446C31.9227 24.9655 31.5385 24.7009 31.5385 24.1146ZM29.1164 22.8456V22.4616H28.1946V25.8373H29.1443V24.2959C29.1443 23.7384 29.4727 23.4241 30.046 23.4241V22.4058C29.6128 22.3923 29.3054 22.5387 29.1164 22.8456ZM25.8563 25.0353C26.3454 25.0353 26.7296 24.6516 26.7296 24.1495C26.7296 23.6477 26.3454 23.2641 25.8563 23.2641C25.3673 23.2641 24.983 23.6477 24.983 24.1495C24.983 24.6516 25.3673 25.0353 25.8563 25.0353ZM25.8563 25.928C24.8498 25.928 24.0328 25.1259 24.0328 24.1495C24.0328 23.1734 24.8498 22.3709 25.8563 22.3709C26.8624 22.3709 27.6798 23.1734 27.6798 24.1495C27.6798 25.1259 26.8624 25.928 25.8563 25.928ZM23.7835 21.8482V20.955H23.6438C22.484 20.955 21.9181 21.7227 21.9181 22.6294V25.8373H22.8683V24.4289C22.8683 23.9611 23.2316 23.6268 23.7556 23.6128V22.7057C23.3783 22.7057 23.0779 22.8173 22.8683 23.0405V22.6778C22.8683 22.0919 23.2525 21.8269 23.7835 21.8482ZM19.6082 25.0353C20.0969 25.0353 20.4815 24.6516 20.4815 24.1495C20.4815 23.6477 20.0969 23.2641 19.6082 23.2641C19.1187 23.2641 18.7349 23.6477 18.7349 24.1495C18.7349 24.6516 19.1187 25.0353 19.6082 25.0353ZM19.6082 25.928C18.6018 25.928 17.7843 25.1259 17.7843 24.1495C17.7843 23.1734 18.6018 22.3709 19.6082 22.3709C20.6138 22.3709 21.4313 23.1734 21.4313 24.1495C21.4313 25.1259 20.6138 25.928 19.6082 25.928ZM15.7679 25.928C16.718 25.928 17.4446 25.2933 17.4446 24.3587C17.4446 23.4938 16.8298 23.1172 16.0753 22.894C15.5932 22.755 15.2928 22.6503 15.2928 22.3081C15.2928 22.0222 15.5024 21.799 15.8307 21.799C16.1102 21.799 16.3198 21.9598 16.4665 22.2035L17.256 21.7083C17.0115 21.1643 16.4595 20.8857 15.8587 20.8857C14.9085 20.8857 14.3077 21.5688 14.3077 22.3574C14.3077 22.9847 14.685 23.4729 15.6212 23.7449C16.1312 23.8914 16.4525 23.989 16.4525 24.394C16.4525 24.7702 16.1801 25.0078 15.7818 25.0078C15.3557 25.0078 15.0343 24.7358 14.8387 24.4847L14.1819 25.1469C14.5313 25.6211 15.1042 25.928 15.7679 25.928ZM28.3056 3.16392C28.9825 3.36414 29.406 4.02271 29.3217 4.70533L29.2999 4.8335L27.9987 11.3075L28.5578 11.4384C28.7202 11.462 28.932 11.5579 29.1329 11.7719C29.4966 12.1599 29.673 12.802 29.594 13.7392C29.3467 16.678 27.9257 18.6289 24.6955 18.6922L24.5291 18.6922L24.4559 18.6934L24.4409 18.693C22.0766 18.6525 20.0866 16.9349 19.9808 14.485L19.9782 14.4039L19.4298 13.8614C18.7897 13.2203 18.6568 12.3456 19.1024 11.7807L19.187 11.6844L19.2459 11.6229C19.4799 11.3822 19.7876 11.2513 20.1018 11.2348C19.7446 10.537 19.8256 9.77587 20.3227 9.35112L20.4277 9.27077L20.5115 9.21585C21.151 8.84508 21.7087 8.98801 22.1844 9.45892L21.6373 4.96663C21.4531 4.18589 21.9334 3.33062 22.6648 3.17499C23.0407 3.09479 23.4333 3.16846 23.7542 3.37988C24.035 3.56449 24.2406 3.84122 24.3356 4.15253L24.3695 4.2879L25.3016 8.26357L26.4835 4.22234C26.6939 3.43376 27.5004 2.96035 28.3056 3.16392ZM24.2476 11.1869C23.9786 11.2462 23.8005 11.3957 23.7136 11.6873C23.5944 12.0839 23.6036 12.3863 23.8575 12.6287C23.9196 12.6496 23.9698 12.6906 24.0041 12.7419C24.1494 12.84 24.3456 12.927 24.6013 13.0063L24.762 13.0531L27.0819 13.5701C27.4675 13.656 27.3491 14.2318 26.961 14.1599C26.95 14.1577 26.9243 14.1538 26.8854 14.1498C26.5942 14.1189 26.2641 14.1416 25.9601 14.2558C25.3925 14.4689 25.0414 14.955 24.9973 15.8565C24.9895 16.0226 24.8484 16.1498 24.6816 16.142C24.5153 16.1337 24.3869 15.9929 24.3952 15.8268C24.44 14.8984 24.7823 14.2635 25.3375 13.899L25.4597 13.8251L24.6166 13.6368C24.326 13.5576 24.081 13.4641 23.8772 13.3577C23.8056 13.4696 23.7164 13.5712 23.6126 13.6586L23.5039 13.7411L23.4371 13.7856C23.3962 13.813 23.3544 13.838 23.3118 13.8604C23.5601 14.3252 23.5172 14.9061 23.1809 15.3326L23.0907 15.4359L23.0313 15.4978C22.5413 15.9984 21.7581 16.0412 21.2156 15.6157L21.1105 15.5244L20.6593 15.0785C21.017 16.8209 22.5324 18.008 24.3324 18.0879L24.521 18.0918L24.7439 18.0896C27.5666 18.0097 28.7699 16.3351 28.9927 13.6891C29.0586 12.9092 28.9281 12.4345 28.6923 12.183C28.6333 12.1198 28.5726 12.0775 28.5141 12.0513L28.4781 12.0371L28.4456 12.0291L24.9244 11.2091C24.9074 11.2039 24.8685 11.1947 24.8139 11.1852C24.6244 11.1525 24.4249 11.1472 24.2476 11.1869ZM19.7554 11.9736L19.6804 12.0401L19.6215 12.1015C19.349 12.3813 19.3864 12.8929 19.763 13.3348L19.856 13.4355L21.5323 15.0937C21.8072 15.3578 22.2308 15.3736 22.5215 15.1478L22.5973 15.0802L22.6549 15.0196C22.9191 14.7463 22.936 14.3253 22.7089 14.0331L22.6897 14.0118L22.6938 14.0169C22.2971 14.0212 21.9052 13.8524 21.6361 13.5331L21.5512 13.4212L20.5724 11.966C20.3255 11.7864 19.9921 11.7933 19.7554 11.9736ZM20.9245 9.67817L20.8303 9.72631L20.7656 9.76903C20.4441 9.98923 20.3805 10.4996 20.6614 11.0077L20.7324 11.1247L22.0511 13.0842C22.2661 13.3995 22.6781 13.5016 23.0123 13.3371L23.1013 13.2856L23.1659 13.2429C23.2577 13.18 23.3337 13.0978 23.3889 13.0029C23.0595 12.6623 22.9801 12.2426 23.0731 11.7644L22.4035 10.7699C22.3822 10.7474 22.3643 10.7215 22.3507 10.6931L22.0402 10.2285C21.6798 9.7047 21.3287 9.49927 20.9245 9.67817ZM27.0972 4.28492L27.0647 4.38406L25.5608 9.52923C25.5145 9.68877 25.3469 9.78032 25.1871 9.73367C25.1422 9.72074 25.1027 9.69831 25.0701 9.66922L25.0468 9.64641L25.0357 9.63305C25.0165 9.61036 25.0006 9.58431 24.9889 9.5556L24.9747 9.51066L23.78 4.41432C23.7372 4.19636 23.6079 4.00455 23.4219 3.88206C23.2363 3.75956 23.0089 3.71684 22.791 3.76349C22.4297 3.8404 22.1524 4.29881 22.2083 4.73876L22.2272 4.83977L22.2342 4.87639L22.9116 10.4444L23.3433 11.0855C23.5295 10.8302 23.7963 10.6702 24.1166 10.5993C24.3825 10.54 24.6572 10.547 24.9183 10.5923C24.9763 10.6028 25.0239 10.613 25.0533 10.6204L25.0764 10.6267L27.4109 11.1707L28.7095 4.711C28.8012 4.28685 28.5506 3.86401 28.1458 3.74413C27.7067 3.63322 27.2604 3.86886 27.0972 4.28492Z"
    fill="white" />
</svg>
