<svg width="48" height="48" fill="none" xmlns="http://www.w3.org/2000/svg">
  <path
    d="M45.8771 9.50928H2.12287C0.95044 9.50928 0 10.4597 0 11.6321V36.3675C0 37.54 0.95044 38.4904 2.12287 38.4904H45.8771C47.0496 38.4904 48 37.54 48 36.3675V11.6321C48 10.4597 47.0496 9.50928 45.8771 9.50928Z"
    fill="#FFA8CD" />
  <path
    d="M37.3533 26.4657C36.601 26.4657 36.0146 25.8436 36.0146 25.0881C36.0146 24.3327 36.601 23.7106 37.3533 23.7106C38.1056 23.7106 38.692 24.3327 38.692 25.0881C38.692 25.8436 38.1056 26.4657 37.3533 26.4657ZM36.977 27.921C37.6188 27.921 38.4375 27.6766 38.8913 26.7212L38.9354 26.7434C38.7364 27.2656 38.7364 27.5766 38.7364 27.6544V27.7766H40.3516V22.3996H38.7364V22.5219C38.7364 22.5996 38.7364 22.9107 38.9354 23.4328L38.8913 23.455C38.4375 22.4996 37.6188 22.2552 36.977 22.2552C35.4393 22.2552 34.355 23.4773 34.355 25.0881C34.355 26.699 35.4393 27.921 36.977 27.921ZM31.5447 22.2552C30.8144 22.2552 30.2391 22.5107 29.7743 23.455L29.7301 23.4328C29.9292 22.9107 29.9292 22.5996 29.9292 22.5219V22.3996H28.3139V27.7766H29.9736V24.9437C29.9736 24.1994 30.4051 23.7328 31.102 23.7328C31.7992 23.7328 32.1421 24.1327 32.1421 24.9326V27.7766H33.8017V24.3549C33.8017 23.1329 32.8501 22.2552 31.5447 22.2552ZM25.9129 23.455L25.8687 23.4328C26.0678 22.9107 26.0678 22.5996 26.0678 22.5219V22.3996H24.4525V27.7766H26.1121L26.1231 25.1881C26.1231 24.4327 26.5214 23.9772 27.1743 23.9772C27.3513 23.9772 27.4951 23.9994 27.6611 24.0439V22.3996C26.9308 22.2441 26.278 22.5219 25.9129 23.455ZM20.6353 26.4657C19.8829 26.4657 19.2965 25.8436 19.2965 25.0881C19.2965 24.3327 19.8829 23.7106 20.6353 23.7106C21.3877 23.7106 21.9741 24.3327 21.9741 25.0881C21.9741 25.8436 21.3877 26.4657 20.6353 26.4657ZM20.2591 27.921C20.9009 27.921 21.7196 27.6766 22.1732 26.7212L22.2175 26.7434C22.0183 27.2656 22.0183 27.5766 22.0183 27.6544V27.7766H23.6337V22.3996H22.0183V22.5219C22.0183 22.5996 22.0183 22.9107 22.2175 23.4328L22.1732 23.455C21.7196 22.4996 20.9009 22.2552 20.2591 22.2552C18.7212 22.2552 17.6369 23.4773 17.6369 25.0881C17.6369 26.699 18.7212 27.921 20.2591 27.921ZM15.3245 27.7766H16.9841V20H15.3245V27.7766ZM14.1074 20H12.4146C12.4146 21.3887 11.5627 22.6329 10.2682 23.5217L9.7592 23.8772V20H8V27.7766H9.7592V23.9216L12.6691 27.7766H14.8156L12.0163 24.0883C13.2887 23.1662 14.1185 21.7331 14.1074 20Z"
    fill="#0B051D" />
</svg>
