<svg width="48" height="30" fill="none" xmlns="http://www.w3.org/2000/svg">
  <path
    d="M45.1291 0.777832H2.97244C1.82173 0.777832 0.888885 1.71067 0.888885 2.86139V27.1387C0.888885 28.2894 1.82173 29.2223 2.97244 29.2223H45.1291C46.2799 29.2223 47.2127 28.2894 47.2127 27.1387V2.86139C47.2127 1.71067 46.2799 0.777832 45.1291 0.777832Z"
    fill="white" stroke="#EAEAEA" />
  <path
    d="M18.4082 25.9999V24.5355C18.4261 24.2868 18.3351 24.043 18.1603 23.8658C17.9848 23.6886 17.7418 23.5952 17.4931 23.6098C17.164 23.5887 16.8503 23.748 16.6723 24.0243C16.5106 23.7561 16.2147 23.5968 15.901 23.6098C15.628 23.596 15.3679 23.7276 15.2176 23.9568V23.6683H14.7096V26.0008H15.2216V24.7086C15.1997 24.5468 15.2501 24.3835 15.3606 24.2632C15.4719 24.1429 15.6304 24.0787 15.7938 24.0885C16.1302 24.0885 16.3017 24.3079 16.3017 24.7037V25.9999H16.8137V24.7086C16.7934 24.5468 16.8446 24.3843 16.9551 24.2648C17.0648 24.1454 17.2233 24.0803 17.3858 24.0885C17.7321 24.0885 17.8978 24.3079 17.8978 24.7037V25.9999H18.4082ZM21.2648 24.8353V23.6716H20.7529V23.9552C20.5773 23.7293 20.3051 23.6025 20.0198 23.6139C19.3453 23.6139 18.7991 24.16 18.7991 24.8337C18.7991 25.5083 19.3461 26.0544 20.0198 26.0544C20.3042 26.0658 20.5773 25.9382 20.752 25.7131V25.9959H21.26L21.2648 24.8353ZM19.3778 24.8353C19.4005 24.4526 19.7248 24.1576 20.1092 24.1722C20.492 24.186 20.7935 24.5054 20.7878 24.8882C20.7813 25.2726 20.4692 25.5806 20.0856 25.583C19.889 25.5871 19.6996 25.5091 19.5639 25.3668C19.429 25.2246 19.3591 25.032 19.3729 24.8353H19.3778ZM32.1152 23.6147C32.2818 23.6147 32.4484 23.6456 32.6028 23.7073C32.7515 23.7666 32.8872 23.8552 33.001 23.9666C33.1148 24.0771 33.2042 24.2088 33.2652 24.3542C33.3927 24.6679 33.3927 25.0182 33.2652 25.3311C33.2042 25.4774 33.114 25.609 33.001 25.7196C32.8872 25.8309 32.7515 25.9187 32.6028 25.978C32.281 26.1032 31.9242 26.1032 31.6024 25.978C31.4545 25.9187 31.3204 25.8309 31.2066 25.7196C31.0952 25.6082 31.0058 25.4766 30.9457 25.3311C30.8181 25.0182 30.8181 24.6679 30.9457 24.3542C31.0058 24.2096 31.0952 24.0779 31.2066 23.9666C31.3204 23.8552 31.4545 23.7666 31.6024 23.7073C31.7633 23.6407 31.9356 23.6065 32.1103 23.6073L32.1152 23.6147ZM32.1152 24.1031C32.0152 24.1015 31.9169 24.1194 31.8242 24.1567C31.7373 24.1917 31.6584 24.2437 31.5926 24.3112C31.5252 24.381 31.4732 24.4639 31.4382 24.555C31.3643 24.75 31.3643 24.9654 31.4382 25.1604C31.4732 25.2514 31.5252 25.3343 31.5926 25.4042C31.6584 25.4709 31.7373 25.5237 31.8242 25.5586C32.0112 25.6318 32.2168 25.6318 32.4029 25.5586C32.4939 25.5245 32.5776 25.4725 32.6467 25.4042C32.715 25.3343 32.767 25.2514 32.8011 25.1604C32.8759 24.9654 32.8759 24.75 32.8011 24.555C32.767 24.4639 32.715 24.3802 32.6467 24.3112C32.5776 24.2429 32.4939 24.1909 32.4029 24.1567C32.311 24.1145 32.2111 24.0917 32.1103 24.0885L32.1152 24.1031ZM24.024 24.8353C24.024 24.1031 23.5697 23.6147 22.9187 23.6147C22.2442 23.6244 21.7045 24.1787 21.7143 24.8524C21.724 25.5269 22.2783 26.0658 22.952 26.056C23.2998 26.0682 23.6396 25.952 23.9069 25.7293L23.6631 25.353C23.4697 25.5074 23.2308 25.5936 22.9837 25.5968C22.6342 25.6269 22.3254 25.3742 22.2856 25.0263H24.0166C24.024 24.9646 24.024 24.9044 24.024 24.8353ZM22.288 24.6305C22.3075 24.3087 22.5782 24.0592 22.9008 24.0665C23.0544 24.0633 23.2031 24.121 23.3137 24.2274C23.4242 24.3331 23.4884 24.4794 23.4916 24.633L22.288 24.6305ZM26.1605 24.2648C25.9371 24.1356 25.6851 24.0665 25.4275 24.0641C25.1495 24.0641 24.9838 24.1665 24.9838 24.3372C24.9838 24.5078 25.1593 24.5379 25.3787 24.5672L25.6225 24.6013C26.1313 24.6744 26.4385 24.889 26.4385 25.2994C26.4385 25.7098 26.0484 26.0609 25.3763 26.0609C25.0163 26.0706 24.6636 25.965 24.3685 25.7586L24.6124 25.3628C24.8367 25.5294 25.1097 25.6147 25.3885 25.6066C25.7355 25.6066 25.9208 25.5042 25.9208 25.3238C25.9208 25.1921 25.7891 25.119 25.5104 25.08L25.2666 25.0458C24.744 24.9727 24.4612 24.7378 24.4612 24.3567C24.4612 23.8934 24.8415 23.6098 25.4372 23.6098C25.7704 23.5984 26.1004 23.6829 26.3873 23.8536L26.1597 24.264L26.1605 24.2648ZM28.6019 24.1324H27.7729V25.1848C27.7729 25.4286 27.8566 25.5749 28.1102 25.5749C28.2687 25.57 28.4231 25.5245 28.5596 25.4432L28.7059 25.878C28.5157 25.9967 28.2955 26.0593 28.0712 26.0585C27.4698 26.0585 27.2601 25.7366 27.2601 25.1946V24.1324H26.7871V23.6691H27.2601V22.9604H27.7729V23.6683H28.6019V24.1324ZM30.3573 23.6098C30.48 23.6098 30.6028 23.6317 30.7182 23.6732L30.5621 24.1616C30.4613 24.121 30.3533 24.1015 30.2452 24.1031C29.9128 24.1031 29.7567 24.3177 29.7567 24.7037V26.0097H29.2488V23.6781H29.7519V23.9617C29.8786 23.7431 30.1143 23.6122 30.3671 23.6204L30.3573 23.6098ZM33.8682 25.661C33.8999 25.661 33.9316 25.6659 33.9608 25.6773C33.9885 25.6895 34.0145 25.7057 34.0364 25.7261C34.0575 25.748 34.0754 25.7724 34.0876 25.7992C34.112 25.8577 34.112 25.9227 34.0876 25.9804C34.0754 26.0081 34.0575 26.0324 34.0364 26.0536C34.0145 26.0747 33.9885 26.091 33.9608 26.1023C33.9316 26.1153 33.8999 26.1218 33.8682 26.1218C33.7739 26.1218 33.6878 26.0666 33.6487 25.9804C33.6236 25.9235 33.6236 25.8577 33.6487 25.8C33.6609 25.7724 33.678 25.748 33.6991 25.7269C33.7219 25.7057 33.7479 25.6895 33.7755 25.6781C33.8007 25.6675 33.8284 25.6619 33.856 25.661H33.8682ZM33.8682 26.0731C33.8926 26.0731 33.9169 26.0682 33.9389 26.0585C33.96 26.0495 33.9795 26.0357 33.995 26.0194C34.0372 25.9772 34.0551 25.917 34.0437 25.8585C34.0332 25.8 33.9933 25.7504 33.9381 25.7269C33.9161 25.7171 33.8926 25.7122 33.8682 25.7122C33.8438 25.7122 33.8194 25.7171 33.7975 25.7269C33.7755 25.735 33.7552 25.7488 33.739 25.7659C33.6756 25.835 33.6756 25.9406 33.739 26.0097C33.7731 26.0446 33.8194 26.0641 33.8682 26.0633V26.0731ZM33.8828 25.7829C33.9056 25.7821 33.9275 25.7886 33.9462 25.8025C33.9616 25.8146 33.9698 25.8341 33.9681 25.8537C33.9681 25.8699 33.9624 25.8862 33.9511 25.8975C33.9364 25.9105 33.9186 25.9179 33.8999 25.9195L33.9706 26.0008H33.9137L33.8487 25.9195H33.8267V26.0008H33.7804V25.7756L33.8828 25.7829ZM33.8292 25.8236V25.8829H33.8828C33.8926 25.8862 33.9023 25.8862 33.9121 25.8829C33.9153 25.8764 33.9153 25.8675 33.9121 25.861C33.9153 25.8537 33.9153 25.8455 33.9121 25.839C33.9023 25.8358 33.8926 25.8358 33.8828 25.839L33.8292 25.8236Z"
    fill="black" />
  <path d="M20.1783 5.87988H27.8688V19.7014H20.1783V5.87988Z" fill="#7673C0" />
  <path
    d="M20.6667 12.7921C20.6643 10.0939 21.902 7.54533 24.024 5.88011C20.4205 3.04785 15.2452 3.45989 12.1358 6.82771C9.02643 10.1947 9.02643 15.3862 12.1358 18.7533C15.2452 22.1211 20.4205 22.5331 24.024 19.7009C21.9028 18.0365 20.6643 15.4886 20.6667 12.7921Z"
    fill="#EB001B" />
  <path
    d="M37.4603 18.8377V18.0827H37.6107V17.9218H37.2303V18.0827H37.3807V18.8645L37.4603 18.8377ZM38.1999 18.8377V17.8949H38.0845L37.9504 18.5678L37.8155 17.8941H37.6976V18.8369H37.7805V18.1298L37.9057 18.7434H37.9918L38.117 18.1298V18.845L38.1999 18.8377ZM38.2429 12.792C38.2429 16.1566 36.3209 19.2245 33.2952 20.6947C30.2695 22.1657 26.6693 21.7796 24.024 19.7007C26.1443 18.0347 27.382 15.4869 27.382 12.7904C27.382 10.0938 26.1443 7.54603 24.024 5.88C26.6693 3.79949 30.2704 3.41346 33.2968 4.88363C36.3241 6.35461 38.2462 9.42418 38.2462 12.7896L38.2429 12.792Z"
    fill="#00A1DF" />
</svg>
