<svg width="48" height="30" fill="none" xmlns="http://www.w3.org/2000/svg">
  <path fill-rule="evenodd" clip-rule="evenodd"
    d="M2.38985 29.3853C1.28216 29.3853 0.375694 28.5194 0.375694 27.4625V2.53849C0.375694 1.48157 1.28216 0.615723 2.38985 0.615723H45.4551C46.5628 0.615723 47.4692 1.48157 47.4692 2.53849V27.4616C47.4692 28.5185 46.5628 29.3843 45.4551 29.3843H2.39077L2.38985 29.3853Z"
    fill="white" />
  <path fill-rule="evenodd" clip-rule="evenodd"
    d="M2.51354 1.15403C1.62738 1.15403 0.905538 1.83619 0.905538 2.67526V27.3251C0.905538 28.1651 1.62646 28.8463 2.51354 28.8463H45.4865C46.3726 28.8463 47.0945 28.1642 47.0945 27.3251V2.67526C47.0945 1.83526 46.3735 1.15403 45.4865 1.15403H2.51354ZM45.5778 29.7694H2.42215C1.08646 29.7694 0 28.7356 0 27.4626V2.53865C0 1.2648 1.08646 0.230957 2.42215 0.230957H45.5778C46.9135 0.230957 48 1.2648 48 2.53773V27.4617C48 28.7356 46.9135 29.7694 45.5778 29.7694Z"
    fill="#EAEAEA" />
  <path fill-rule="evenodd" clip-rule="evenodd"
    d="M42.0175 13.1364H42.1052C42.1385 13.1364 42.1717 13.1364 42.1939 13.1253C42.2151 13.1142 42.2262 13.0801 42.2262 13.0468C42.2262 13.0238 42.2151 12.9905 42.1939 12.9785C42.1717 12.9675 42.1274 12.9675 42.1052 12.9675H42.0286L42.0175 13.1364ZM42.0175 13.5185H41.8634V12.8327H42.1385C42.1939 12.8327 42.2585 12.8327 42.3028 12.8668C42.3582 12.9001 42.3803 12.9684 42.3803 13.0358C42.3803 13.1142 42.336 13.1816 42.2695 13.2038L42.3914 13.5075H42.2262L42.1274 13.2379H42.0166L42.0175 13.5185ZM42.1163 13.777C42.4237 13.777 42.6655 13.5075 42.6655 13.1816C42.6655 12.8558 42.4135 12.5853 42.1163 12.5853C41.8089 12.5853 41.5671 12.8558 41.5671 13.1816C41.5671 13.5075 41.8089 13.777 42.1163 13.777ZM41.3917 13.1705C41.3917 12.7432 41.7203 12.3942 42.1163 12.3942C42.5225 12.3942 42.8409 12.7432 42.8409 13.1696C42.8409 13.5979 42.5225 13.9459 42.1163 13.9459C41.7203 13.9579 41.3917 13.609 41.3917 13.1705ZM31.0098 7.98469L30.8123 9.31208C30.3831 9.07577 30.0646 8.98623 29.724 8.98623C28.824 8.98623 28.1862 9.93054 28.1862 11.269C28.1862 12.1921 28.6145 12.7542 29.3178 12.7542C29.6142 12.7542 29.9437 12.6527 30.3498 12.4385L30.1412 13.8333C29.6917 13.969 29.4055 14.0142 29.0649 14.0142C27.7578 14.0142 26.9455 13.0016 26.9455 11.3816C26.9455 9.19946 28.0652 7.66992 29.6806 7.66992C29.8892 7.66992 30.0757 7.69208 30.2298 7.73731L30.7348 7.873C30.8668 7.92838 30.9 7.93946 31.0098 7.98469ZM26.9778 8.89577C26.9446 8.88469 26.9012 8.88469 26.8578 8.88469C26.4609 8.88469 26.2302 9.09792 25.8572 9.69423L25.968 8.941H24.8677L24.12 13.9016H25.3403C25.7797 10.8647 25.8895 10.3468 26.4711 10.3468H26.5597C26.6695 9.75054 26.8126 9.313 27.0212 8.90685L26.9778 8.89577ZM19.7169 13.8342C19.3865 13.9459 19.1234 14.0022 18.8483 14.0022C18.2335 14.0022 17.8929 13.6201 17.8929 12.9112C17.8929 12.7764 17.9031 12.6185 17.9252 12.4616L18.0028 11.9779L18.0582 11.5838L18.5843 8.19884H19.7935L19.6505 8.92992H20.2763L20.1009 10.1336H19.4852L19.1668 12.2022C19.1557 12.2927 19.1455 12.3601 19.1455 12.4053C19.1455 12.6638 19.2766 12.7764 19.5628 12.7764C19.6745 12.782 19.7862 12.7666 19.8923 12.7312L19.7169 13.8342ZM14.9262 10.5047C14.9262 11.1342 15.2123 11.5616 15.8492 11.8875C16.3329 12.1358 16.4206 12.2142 16.4206 12.4395C16.4206 12.7432 16.2009 12.889 15.7283 12.889C15.3655 12.889 15.036 12.8336 14.6409 12.6859L14.4757 13.8342L14.5311 13.8453L14.7508 13.8905C14.8274 13.9016 14.9262 13.9238 15.0692 13.9348C15.3554 13.957 15.5862 13.9801 15.7394 13.9801C17.0132 13.9801 17.6068 13.4512 17.6068 12.3268C17.6068 11.6512 17.3649 11.2468 16.7492 10.9422C16.2443 10.6958 16.1898 10.6395 16.1898 10.4032C16.1898 10.1336 16.3874 9.99885 16.7825 9.99885C17.0243 9.99885 17.3437 10.0321 17.6502 10.0764L17.8265 8.92992C17.4743 8.87036 17.1183 8.83643 16.7612 8.82838C15.3877 8.82838 14.9151 9.58161 14.9262 10.5047ZM38.8985 12.7312C39.4689 12.7312 39.864 12.0453 39.864 11.0558C39.864 10.4253 39.6332 10.0773 39.216 10.0773C38.6668 10.0773 38.2717 10.7742 38.2717 11.7416C38.2717 12.3942 38.4812 12.7312 38.8985 12.7312ZM40.6883 13.8905H39.5345L39.5899 13.4059C39.2603 13.789 38.9086 13.9579 38.4692 13.9579C37.5794 13.9579 36.9969 13.1364 36.9969 11.8995C36.9969 10.2453 37.8979 8.85054 38.9742 8.85054C39.4468 8.85054 39.7985 9.06469 40.1391 9.52531L40.4022 7.78254H41.6003L40.6883 13.8905ZM22.8803 10.8305C22.8905 10.729 22.8905 10.6395 22.8905 10.5832C22.8905 10.1779 22.6828 9.94161 22.32 9.94161C21.9351 9.94161 21.6609 10.2573 21.5511 10.8305H22.8803ZM23.5615 13.789C23.1434 13.9238 22.7483 13.9921 22.3089 13.9921C20.9575 13.9921 20.244 13.2259 20.244 11.7647C20.244 10.0542 21.1449 8.80531 22.3634 8.80531C23.364 8.80531 24 9.51423 24 10.6164C24 10.9764 23.9566 11.3364 23.8468 11.8432H21.4302C21.4191 11.9216 21.4191 11.9558 21.4191 12.0001C21.4191 12.5853 21.7809 12.877 22.4843 12.877C22.9126 12.877 23.3086 12.7764 23.7489 12.5632L23.5615 13.789ZM10.0486 13.8905H8.83938L9.53169 9.19946L7.97169 13.8905H7.14831L7.04954 9.23361L6.31384 13.8905H5.18215L6.12646 7.79361H7.87384L7.91815 11.5727L9.10431 7.79361H10.9948L10.0486 13.8905ZM14.0585 13.8905H13.0477L13.0698 13.3727C12.7625 13.7881 12.3554 13.969 11.796 13.969C11.136 13.969 10.6855 13.4179 10.6855 12.6185C10.6855 11.4047 11.4766 10.7078 12.8178 10.7078C12.96 10.7078 13.1354 10.7179 13.3117 10.741C13.3449 10.5721 13.3551 10.5047 13.3551 10.4142C13.3551 10.0884 13.1465 9.96469 12.576 9.96469C12.2345 9.96469 11.8394 10.0201 11.5643 10.1105L11.4111 10.1668L11.3003 10.201L11.4665 9.08685C12.0702 8.89577 12.4763 8.81731 12.9157 8.81731C13.9588 8.81731 14.5089 9.32315 14.5089 10.2684C14.5089 10.5158 14.4868 10.6958 14.4102 11.2579L14.1683 13.0238L14.1249 13.3385L14.0917 13.5868L14.0695 13.7659L14.0585 13.8905ZM13.1797 11.6853C13.0477 11.6742 12.9932 11.6632 12.9046 11.6632C12.2123 11.6632 11.8726 11.9216 11.8726 12.4164C11.8726 12.721 12.048 12.9222 12.312 12.9222C12.7957 12.9222 13.1575 12.4164 13.1797 11.6853ZM33.9868 13.8905H32.976L32.9982 13.3727C32.6908 13.7881 32.2837 13.969 31.7243 13.969C31.0643 13.969 30.6138 13.4179 30.6138 12.6185C30.6138 11.4047 31.4049 10.7078 32.7462 10.7078C32.8772 10.7078 33.0646 10.7179 33.24 10.741C33.2732 10.5721 33.2834 10.5047 33.2834 10.4142C33.2834 10.0884 33.0748 9.96469 32.5043 9.96469C32.1628 9.96469 31.7677 10.0201 31.4926 10.1105L31.3172 10.1558L31.2074 10.1899L31.3726 9.07577C31.9763 8.88469 32.3834 8.80623 32.8218 8.80623C33.8658 8.80623 34.4151 9.31208 34.4151 10.2564C34.4151 10.5047 34.3929 10.6847 34.3163 11.2468L34.0634 13.0007L34.0311 13.3164L33.9978 13.5638L33.9757 13.7327L33.9868 13.8896V13.8905ZM33.108 11.6853C32.988 11.6742 32.9215 11.6632 32.8329 11.6632C32.1406 11.6632 31.7898 11.9216 31.7898 12.4164C31.7898 12.721 31.9652 12.9222 32.2292 12.9222C32.724 12.9222 33.0858 12.4164 33.108 11.6853ZM37.3819 8.89577C37.3486 8.88469 37.3043 8.88469 37.2609 8.88469C36.8649 8.88469 36.6342 9.09792 36.2612 9.69423L36.3711 8.941H35.2726L34.5249 13.9016H35.7443C36.1837 10.8647 36.2945 10.3468 36.876 10.3468H36.9646C37.0735 9.75054 37.2277 9.313 37.4262 8.90685L37.3819 8.89577Z"
    fill="#F81215" />
  <path fill-rule="evenodd" clip-rule="evenodd"
    d="M33.4818 18.7269C33.4818 17.4779 32.8772 16.4995 31.7465 16.4995C30.4385 16.4995 29.5929 17.681 29.5929 19.4247C29.5929 20.6727 30.0978 21.6964 31.3283 21.6964C32.5698 21.6964 33.4818 20.7964 33.4818 18.7269ZM32.2837 18.7158C32.2837 19.841 31.9431 20.5038 31.4058 20.5038C31.0089 20.5158 30.7791 20.0653 30.7791 19.4016C30.7791 18.6142 31.1298 17.7142 31.68 17.7142C32.1305 17.7142 32.2837 18.1979 32.2837 18.7158ZM29.9769 15.6336L29.7905 16.961C29.3843 16.7247 29.0982 16.6352 28.7797 16.6352C27.9342 16.6352 27.3397 17.5795 27.3397 18.9179C27.3397 19.841 27.7366 20.4032 28.3948 20.4032C28.6809 20.4032 28.9883 20.3016 29.3612 20.0875L29.1646 21.4822C28.7465 21.6179 28.4723 21.6632 28.1529 21.6632C26.9345 21.6632 26.1646 20.6505 26.1646 19.0305C26.1646 16.8484 27.2197 15.3198 28.7243 15.3198C28.9218 15.3198 29.0871 15.341 29.2302 15.3862L29.6917 15.5219C29.8449 15.5662 29.8782 15.5773 29.9778 15.6336M22.4742 16.5336C22.4409 16.5225 22.3966 16.5225 22.3532 16.5225C21.9794 16.5225 21.7708 16.7367 21.4191 17.3321L21.5289 16.5788H20.5071L19.8148 21.5395H20.9465C21.3526 18.5025 21.4634 17.9847 22.0006 17.9847C22.0338 17.9847 22.0338 17.9847 22.0892 17.9958C22.1642 17.4982 22.3083 17.0135 22.5175 16.5558L22.4742 16.5336ZM35.6012 20.3238C36.1403 20.3238 36.5022 19.6379 36.5022 18.6484C36.5022 18.0179 36.2935 17.681 35.8985 17.681C35.3815 17.681 35.0188 18.3669 35.0188 19.3462C35.0188 19.9979 35.2172 20.3238 35.6012 20.3238ZM37.2822 21.4942H36.2058L36.2612 21.0105C35.9538 21.3927 35.6243 21.5616 35.2062 21.5616C34.3828 21.5616 33.8326 20.7401 33.8326 19.5032C33.8326 17.8499 34.6791 16.4552 35.6788 16.4552C36.1182 16.4552 36.4588 16.6684 36.7662 17.141L37.0191 15.3973H38.1397L37.2822 21.4942ZM11.2015 18.5136C11.2015 18.4121 11.2126 18.3225 11.2126 18.2653C11.2126 17.861 11.0151 17.6247 10.6745 17.6247C10.3126 17.6247 10.0597 17.9395 9.94985 18.5136H11.2015ZM11.8385 21.4712C11.4554 21.6069 11.0815 21.6742 10.6754 21.6742C9.41077 21.6742 8.75262 20.909 8.75262 19.4468C8.75262 17.7484 9.59815 16.4884 10.7298 16.4884C11.6631 16.4884 12.2575 17.1862 12.2575 18.2995C12.2575 18.6595 12.2132 19.0195 12.1145 19.5253H9.86215C9.85108 19.6047 9.85108 19.6379 9.85108 19.6832C9.85108 20.2564 10.1917 20.549 10.8508 20.549C11.2569 20.549 11.6197 20.4475 12.0258 20.2352L11.8394 21.4721L11.8385 21.4712ZM24.6923 18.5136C24.7034 18.4121 24.7034 18.3225 24.7034 18.2653C24.7034 17.861 24.5058 17.6247 24.1662 17.6247C23.8034 17.6247 23.5505 17.9395 23.4406 18.5136H24.6923ZM25.3292 21.4712C24.9452 21.6069 24.5723 21.6742 24.1662 21.6742C22.8914 21.6742 22.2323 20.909 22.2323 19.4468C22.2323 17.7484 23.0778 16.4884 24.2095 16.4884C25.1428 16.4884 25.7474 17.1862 25.7474 18.2995C25.7474 18.6595 25.7031 19.0195 25.6043 19.5253H23.352C23.3418 19.6047 23.3418 19.6379 23.3418 19.6832C23.3418 20.2564 23.6825 20.549 24.3406 20.549C24.7477 20.549 25.1105 20.4475 25.5166 20.2352L25.3292 21.4712ZM40.5129 18.5136C40.5129 18.4121 40.5231 18.3225 40.5231 18.2653C40.5231 17.861 40.3255 17.6247 39.9849 17.6247C39.6231 17.6247 39.3702 17.9395 39.2603 18.5136H40.5129ZM41.1498 21.4712C40.7548 21.6069 40.38 21.6742 39.9849 21.6742C38.7212 21.6742 38.052 20.909 38.052 19.4468C38.052 17.7484 38.8975 16.4884 40.0394 16.4884C40.9735 16.4884 41.5671 17.1862 41.5671 18.2995C41.5671 18.6595 41.5228 19.0195 41.424 19.5253H39.1717C39.1615 19.6047 39.1615 19.6379 39.1615 19.6832C39.1615 20.2564 39.5022 20.549 40.1603 20.549C40.5674 20.549 40.9292 20.4475 41.3363 20.2352L41.1489 21.4721L41.1498 21.4712ZM8.47754 16.7589C8.25785 16.601 7.95046 16.4773 7.53323 16.4773C7.07169 16.4773 6.70892 16.5789 6.70892 17.0736C6.70892 17.9505 8.37877 17.6247 8.37877 19.5142C8.37877 21.2358 7.28031 21.6853 6.28062 21.6853C5.84123 21.6853 5.32523 21.5395 4.95139 21.3595L5.22554 20.0995C5.45631 20.3127 5.90677 20.4595 6.29169 20.4595C6.65446 20.4595 7.20277 20.3579 7.20277 19.7164C7.20277 18.7158 5.53385 19.0868 5.53385 17.3321C5.53385 15.7241 6.51139 15.2515 7.45569 15.2515C7.98369 15.2515 8.48862 15.3299 8.77385 15.533L8.47754 16.7589ZM15.1569 21.4712C14.9262 21.5838 14.6077 21.6632 14.1462 21.6632C13.1575 21.6632 12.5428 20.6505 12.5428 19.4136C12.5428 17.7936 13.4317 16.5115 14.7397 16.5115C15.0258 16.5115 15.4643 16.6352 15.8058 16.8373L15.5529 18.0189C15.3102 17.8499 15.0582 17.7484 14.7942 17.7484C14.1905 17.7484 13.7511 18.3225 13.7511 19.3342C13.7511 19.9195 14.0695 20.4032 14.5634 20.4032C14.8606 20.4032 15.0692 20.3358 15.3212 20.189L15.1569 21.4712ZM19.3975 20.2232C19.3422 20.6505 19.2868 21.0669 19.2545 21.5053H18.1671L18.2548 20.7068H18.2446C17.9031 21.2468 17.5523 21.6179 16.9255 21.6179C16.2443 21.6179 15.8714 20.8758 15.8714 19.9195C15.8714 19.5825 15.8926 19.4025 15.9591 18.8847L16.2665 16.5899H17.4858L17.1563 18.8958C17.1231 19.1432 17.0797 19.3905 17.0797 19.649C17.0797 19.9416 17.2117 20.2342 17.5412 20.2121C18.0351 20.2121 18.3323 19.5936 18.42 18.8625L18.7606 16.5899H19.9357L19.3975 20.2232ZM42.2806 21.449H42.0942V20.6275H41.8311V20.4475H42.5446V20.6275H42.2806V21.449ZM43.5009 21.449H43.3255V20.6164L43.1594 21.449H42.984L42.8197 20.6164V21.449H42.6443V20.4465H42.9185L43.0726 21.2339H43.0828L43.2369 20.4465H43.5009V21.449Z"
    fill="#F0AE14" />
</svg>
