<svg width="57" height="16" fill="none" xmlns="http://www.w3.org/2000/svg">
  <g id="Icon-Payment-PaypalDefault">
    <path id="Shape"
      d="M6.69272 0H2.35467C2.05781 0 1.80536 0.232658 1.75905 0.5488L0.0045541 12.5492C-0.0303329 12.786 0.139662 12.9995 0.362305 12.9995H2.43333C2.73018 12.9995 2.98264 12.7668 3.02894 12.45L3.50214 9.21328C3.54781 8.89645 3.8009 8.66379 4.09712 8.66379H5.4704C8.32797 8.66379 9.97717 7.17204 10.4079 4.21591C10.602 2.9226 10.4161 1.90643 9.85475 1.19477C9.2382 0.413311 8.14465 0 6.69272 0ZM7.19319 4.38288C6.95595 6.06212 5.76662 6.06212 4.61662 6.06212H3.96201L4.42125 2.92602C4.44853 2.73647 4.60076 2.59688 4.77837 2.59688H5.0784C5.86177 2.59688 6.60074 2.59688 6.98259 3.07862C7.21031 3.36602 7.28009 3.79302 7.19319 4.38288Z"
      fill="#253B80" />
    <path id="Shape_2"
      d="M19.6407 4.20966H17.5029C17.3208 4.20966 17.1634 4.34787 17.1354 4.53555L17.0407 5.15616L16.8912 4.93122C16.4284 4.23405 15.3964 4.00098 14.3664 4.00098C12.004 4.00098 9.98633 5.85808 9.59337 8.46319C9.38906 9.76269 9.67953 11.0053 10.3897 11.8718C11.0412 12.6686 11.9733 13.0006 13.0824 13.0006C14.9858 13.0006 16.0413 11.7302 16.0413 11.7302L15.946 12.3468C15.9101 12.5826 16.0851 12.794 16.3129 12.794H18.2385C18.5447 12.794 18.8032 12.5636 18.8515 12.2499L20.0069 4.65547C20.0434 4.42172 19.8691 4.20966 19.6407 4.20966ZM16.6608 8.52823C16.4545 9.79589 15.4852 10.6469 14.2489 10.6469C13.6281 10.6469 13.132 10.4402 12.8134 10.0486C12.4975 9.6597 12.3774 9.10616 12.4779 8.48961C12.6705 7.23279 13.6562 6.35404 14.8736 6.35404C15.4806 6.35404 15.9741 6.56339 16.2992 6.95839C16.6249 7.35746 16.7542 7.91439 16.6608 8.52823Z"
      fill="#253B80" />
    <path id="Shape_3"
      d="M31.0689 4.00098H28.8896C28.6817 4.00098 28.4863 4.11043 28.3685 4.29354L25.3627 8.98446L24.0886 4.47666C24.0085 4.19462 23.7628 4.00098 23.4847 4.00098H21.3431C21.0829 4.00098 20.9021 4.27039 20.9849 4.52998L23.3854 11.9936L21.1286 15.369C20.9511 15.6349 21.1299 16.0005 21.4365 16.0005H23.6132C23.8198 16.0005 24.0131 15.8938 24.1304 15.7142L31.3789 4.62891C31.5523 4.3637 31.3742 4.00098 31.0689 4.00098Z"
      fill="#253B80" />
    <path id="Shape_4"
      d="M38.1399 0H33.801C33.5048 0 33.2523 0.232658 33.206 0.5488L31.4515 12.5492C31.4166 12.786 31.5866 12.9995 31.808 12.9995H34.0345C34.2413 12.9995 34.4183 12.8366 34.4506 12.6149L34.9486 9.21328C34.9942 8.89645 35.2473 8.66379 35.5436 8.66379H36.9163C39.7746 8.66379 41.4232 7.17204 41.8546 4.21591C42.0493 2.9226 41.8622 1.90643 41.3008 1.19477C40.6849 0.413311 39.5919 0 38.1399 0ZM38.6404 4.38288C38.4038 6.06212 37.2144 6.06212 36.0637 6.06212H35.4097L35.8696 2.92602C35.8969 2.73647 36.0479 2.59688 36.2261 2.59688H36.5262C37.3089 2.59688 38.0486 2.59688 38.4304 3.07862C38.6582 3.36602 38.7273 3.79302 38.6404 4.38288Z"
      fill="#0099CC" />
    <path id="Shape_5"
      d="M51.0853 4.20966H48.9487C48.7652 4.20966 48.6092 4.34787 48.5818 4.53555L48.4871 5.15616L48.337 4.93122C47.8742 4.23405 46.8428 4.00098 45.8127 4.00098C43.4502 4.00098 41.4331 5.85808 41.0401 8.46319C40.8364 9.76269 41.1256 11.0053 41.8358 11.8718C42.4886 12.6686 43.4195 13.0006 44.5286 13.0006C46.4322 13.0006 47.4877 11.7302 47.4877 11.7302L47.3924 12.3468C47.3565 12.5826 47.5315 12.794 47.7606 12.794H49.6857C49.9905 12.794 50.2503 12.5636 50.298 12.2499L51.4541 4.65547C51.4893 4.42172 51.3144 4.20966 51.0853 4.20966ZM48.1053 8.52823C47.9003 9.79589 46.9296 10.6469 45.6932 10.6469C45.0737 10.6469 44.5763 10.4402 44.2577 10.0486C43.9418 9.6597 43.8229 9.10616 43.9222 8.48961C44.116 7.23279 45.1005 6.35404 46.3179 6.35404C46.925 6.35404 47.4185 6.56339 47.7436 6.95839C48.0707 7.35746 48.1999 7.91439 48.1053 8.52823Z"
      fill="#0099CC" />
    <path id="Shape_6"
      d="M53.3457 0.32981L51.4634 12.5492C51.4266 12.786 51.6063 12.9995 51.8403 12.9995H53.7327C54.0472 12.9995 54.314 12.7668 54.3623 12.45L56.2185 0.450923C56.2554 0.214171 56.0756 0 55.8416 0H53.7226C53.5355 0.000684254 53.3746 0.140272 53.3457 0.32981Z"
      fill="#0099CC" />
  </g>
</svg>
