<svg width="48" height="30" fill="none" xmlns="http://www.w3.org/2000/svg">
  <path
    d="M44.028 0.962402H3.16982C1.66927 0.962402 0.452835 2.17884 0.452835 3.67938V26.3209C0.452835 27.8214 1.66927 29.0379 3.16982 29.0379H44.028C45.5286 29.0379 46.745 27.8214 46.745 26.3209V3.67938C46.745 2.17884 45.5286 0.962402 44.028 0.962402Z"
    fill="white" stroke="#EAEAEA" />
  <path fill-rule="evenodd" clip-rule="evenodd"
    d="M33.1591 5.82324C33.9757 5.82324 34.6463 6.51988 34.7114 7.40283L34.7165 7.54371L34.6938 11.2312C34.3378 11.262 34.1185 11.2525 33.8318 11.2586L33.65 11.2645L33.6727 7.54371C33.6727 7.25159 33.4858 7.00814 33.2422 6.96237L33.1591 6.95464H10.2508C9.99625 6.95464 9.78468 7.16888 9.74491 7.44835L9.7382 7.54371V22.216C9.7382 22.5081 9.92431 22.7515 10.1677 22.7973L10.2508 22.805H33.1591C33.4137 22.805 33.6261 22.5908 33.666 22.3113L33.6727 22.216V20.2136H34.7165V22.216C34.7165 23.1171 34.0867 23.8588 33.2868 23.9307L33.1591 23.9364H10.2508C9.4352 23.9364 8.76412 23.2398 8.69905 22.3569L8.69388 22.216V7.54371C8.69388 6.64257 9.32419 5.90087 10.1233 5.82896L10.2508 5.82324H33.1591ZM41.5047 6.66422L44.7341 11.0655L42.0451 13.1589L34.3243 19.1687L34.2884 19.1199L34.3207 19.1651L28.6891 19.9349L31.1398 14.828L31.1368 14.8239L40.5306 7.4315L41.5047 6.66422ZM25.0735 18.7871V19.7933H14.6641V18.7871H25.0735ZM31.6569 15.5326L30.5959 17.6018L31.4781 18.84L33.8193 18.48L31.6569 15.5326ZM40.1508 11.6012L33.5052 16.7749L34.4717 18.0922L41.1174 12.919L40.1508 11.6012ZM38.799 9.75952L32.1806 14.9692L33.0552 16.1628L39.7014 10.9885L38.799 9.75952ZM29.0089 14.5973V15.6036H14.6641V14.5973H29.0089ZM41.4643 7.70164L41.3785 7.76891L39.403 9.30655L40.2978 10.5247L40.7472 11.1369L40.7462 11.1374L41.7098 12.4501L43.6843 10.9135L43.7711 10.8462L41.4643 7.70164ZM29.0089 10.2838V11.2901H14.6641V10.2838H29.0089Z"
    fill="#333333" />
</svg>
