<svg width="48" height="30" fill="none" xmlns="http://www.w3.org/2000/svg">
  <path
    d="M2.34262 0.919988H45.1541C45.6623 0.915768 46.1513 1.11353 46.5136 1.46983C46.876 1.82613 47.0819 2.31178 47.0862 2.81993V27.148C47.0773 28.2074 46.2136 29.0604 45.1541 29.0559H2.34262C1.28314 29.0604 0.41941 28.2074 0.410553 27.148V2.82798C0.41941 1.76852 1.28314 0.915586 2.34262 0.919988Z"
    fill="white" />
  <path
    d="M2.34264 1.31414C1.94123 1.30788 1.5537 1.46117 1.26533 1.74048C0.976964 2.0198 0.811384 2.40224 0.804834 2.80365V27.1478C0.798573 27.5492 0.951867 27.9367 1.23118 28.2251C1.51049 28.5135 1.89293 28.6791 2.29434 28.6856H45.1541C45.5555 28.6919 45.9431 28.5386 46.2314 28.2593C46.5198 27.98 46.6854 27.5975 46.6917 27.1961V2.8278C46.6917 1.99194 46.0141 1.31414 45.1783 1.31414H2.34264ZM45.1541 29.4905H2.34264C1.72346 29.4926 1.1288 29.2487 0.689473 28.8124C0.250143 28.376 0.00213139 27.7831 0 27.1639V2.8278C0.00886287 1.54158 1.0564 0.50484 2.34264 0.509292H45.1541C46.4386 0.509292 47.4835 1.54343 47.4968 2.8278V27.1478C47.4968 28.4385 46.4528 29.486 45.1622 29.4905H45.1541Z"
    fill="#EAEAEA" />
  <mask id="mask0_123_5955" style="mask-type:luminance" maskUnits="userSpaceOnUse" x="3" y="9"
    width="43" height="8">
    <path d="M3.22012 9.41602H45.0446V16.9914H3.22012V9.41602Z" fill="#EE7F00" />
  </mask>
  <g mask="url(#mask0_123_5955)">
    <path
      d="M28.6977 11.0792C29.3957 11.0792 29.5567 11.4849 28.9432 13.1618C28.3137 14.8854 27.8565 15.3193 27.169 15.3193H27.1673C26.4968 15.3193 26.2625 14.8943 26.8896 13.1787C27.3573 11.8987 27.9643 11.0792 28.6977 11.0792ZM16.516 11.0792C17.214 11.0792 17.375 11.4849 16.7615 13.1618C16.132 14.8854 15.6747 15.3193 14.9872 15.3193H14.9856C14.315 15.3193 14.08 14.8943 14.7071 13.1787C15.1756 11.8987 15.7826 11.0792 16.516 11.0792ZM34.5583 11.043H34.9335C35.6194 11.043 35.8754 11.2442 35.6435 11.8698C35.4253 12.4574 35.0333 12.8197 34.2878 12.8197H33.899L34.5583 11.043ZM37.7221 9.5255C37.867 9.63901 37.9902 9.76942 38.094 9.91755C38.3581 10.2983 38.4595 10.7516 38.3991 11.27H39.7516L37.7124 16.8762H39.7508L41.7915 11.27H44.4095L45.0455 9.5255H37.7221ZM33.061 9.5255L30.3851 16.873H32.6585L33.6309 14.2865C33.6784 14.3935 34.2524 16.873 34.2524 16.873H36.6417C36.6417 16.873 36.207 15.0512 35.8874 14.3146C35.8053 14.1254 35.7192 13.9137 35.6049 13.7358C36.2795 13.4854 37.2576 12.9469 37.6633 11.8561C37.9121 11.1855 37.8968 10.6429 37.6207 10.246C37.2858 9.76298 36.6039 9.5255 35.5356 9.52469L33.061 9.5255ZM22.6954 9.52147C21.4951 9.52147 20.6015 10.1285 20.1797 11.266L18.1397 16.869H20.3745L21.4218 13.9894L23.3966 13.9902L23.9585 12.4478L21.9902 12.4462L22.3074 11.5526C22.3842 11.3712 22.5655 11.2566 22.7622 11.2652L25.0904 11.266C25.1097 11.2386 25.1274 11.2088 25.1467 11.1814C25.6386 10.4835 26.3366 9.91997 26.9902 9.52147H22.6954ZM10.57 9.52147C9.90509 9.52147 9.26026 9.52147 8.68145 9.81451C8.10343 10.1083 7.59305 10.6952 7.20019 11.8698C7.12284 12.0817 7.07674 12.3038 7.06334 12.5291C7.0577 12.7183 7.09071 12.8793 7.16235 13.0193C7.25091 13.19 7.3942 13.3502 7.57292 13.4863C7.75325 13.6215 7.96738 13.7318 8.19923 13.8018L8.47697 13.8815C8.62348 13.9234 8.79576 13.9741 8.90363 14.0071C8.96804 14.0264 9.03807 14.0514 9.10087 14.09C9.16696 14.1266 9.22116 14.1814 9.25704 14.2478C9.28119 14.2945 9.29327 14.3452 9.29488 14.4C9.29599 14.46 9.28617 14.5197 9.2659 14.5763C9.21196 14.7357 9.12985 14.8379 8.97367 14.9007C8.81911 14.9635 8.58967 14.9836 8.2427 14.9868H3.9044L3.22012 16.8698H7.86193C8.29825 16.8698 9.09684 16.8698 9.86404 16.5438C10.6312 16.2177 11.367 15.5665 11.6786 14.2623C11.7961 13.772 11.7591 13.3736 11.5683 13.0596C11.3751 12.7456 11.0273 12.5186 10.5201 12.3729L10.273 12.3021L9.90751 12.1974C9.78872 12.1664 9.68588 12.092 9.61931 11.9889C9.55866 11.89 9.54286 11.77 9.57583 11.6588C9.61411 11.5341 9.70122 11.4301 9.81734 11.3706C9.9389 11.303 10.0991 11.266 10.2867 11.266H12.9843C13.0037 11.2386 13.0206 11.2088 13.0399 11.1814C13.5326 10.4835 14.1291 9.91997 14.7828 9.52147H10.57ZM29.2347 9.41682C28.6631 9.41682 28.1076 9.54804 27.5876 9.79358C26.8429 10.1454 26.1683 10.733 25.6177 11.5131C25.2402 12.0537 24.9362 12.6419 24.7136 13.2625C24.2604 14.5022 24.266 15.5069 24.7289 16.1686C24.9905 16.5438 25.5356 16.9906 26.6449 16.9922H26.6481C28.6671 16.9922 30.1741 15.6687 31.1281 13.0588C31.3809 12.3681 31.7134 11.0792 31.1056 10.2098C30.7377 9.68409 30.1097 9.41843 29.2347 9.41682ZM17.0538 9.41682C16.4814 9.41682 15.9267 9.54804 15.4059 9.79358C14.6612 10.1454 13.9866 10.733 13.4351 11.5131C13.0579 12.0537 12.7539 12.642 12.5311 13.2625C12.0787 14.5022 12.0843 15.5069 12.5464 16.1686C12.8088 16.5438 13.3538 16.9906 14.4624 16.9922H14.4664C16.4854 16.9922 17.9924 15.6687 18.9464 13.0588C19.1984 12.3681 19.5316 11.0792 18.9238 10.2098C18.5559 9.68409 17.928 9.41843 17.0538 9.41682Z"
      fill="#EE7F00" />
  </g>
  <path
    d="M8.20003 20.7132H8.64038C8.77563 20.7132 8.88028 20.7253 8.95676 20.7502C9.03163 20.7744 9.08959 20.809 9.12743 20.8549C9.16609 20.9023 9.18814 20.9611 9.19022 21.0223C9.18593 21.2675 9.05735 21.4937 8.84888 21.6229C8.78128 21.6654 8.70777 21.6977 8.63072 21.7187C8.5419 21.7417 8.45036 21.7525 8.35862 21.7509H7.82328L8.20003 20.7132ZM15.3109 19.236H15.6433C15.7279 19.236 15.7931 19.2392 15.839 19.244C15.8857 19.2496 15.9251 19.2577 15.9597 19.2666C16.0708 19.3012 16.1392 19.3583 16.1634 19.442C16.1875 19.5242 16.1779 19.6256 16.1344 19.7463C16.1066 19.8234 16.0669 19.8956 16.0169 19.9605C15.9668 20.025 15.9064 20.0807 15.8382 20.1255C15.7654 20.1729 15.6859 20.209 15.6023 20.2326C15.5137 20.2575 15.4171 20.2704 15.3125 20.2704H14.9341L15.3109 19.236ZM8.74182 19.2247H9.11696C9.23208 19.2247 9.31983 19.2352 9.38101 19.2553C9.43441 19.271 9.48219 19.3018 9.51867 19.3438C9.55091 19.3855 9.56795 19.4369 9.56697 19.4895C9.56685 19.557 9.5543 19.6239 9.52994 19.6868C9.50529 19.7535 9.47171 19.8166 9.43012 19.8743C9.34338 19.9942 9.22202 20.0847 9.08234 20.1336C8.99491 20.1612 8.90353 20.1743 8.81185 20.1722H8.39726L8.74182 19.2247ZM8.43671 18.6692C8.37353 18.6693 8.31183 18.6884 8.2596 18.724C8.1983 18.7682 8.15308 18.8312 8.1308 18.9035L6.97397 22.0834C6.94418 22.1663 6.94338 22.2258 6.97236 22.2621C7.00134 22.2991 7.04642 22.3176 7.10922 22.3176H8.07928C8.22499 22.3176 8.36104 22.3088 8.48743 22.2902C8.61189 22.2729 8.73468 22.2452 8.85452 22.2073C8.97366 22.1703 9.08798 22.122 9.19585 22.064C9.41505 21.9468 9.60365 21.7797 9.74649 21.5762C9.82136 21.4707 9.88174 21.3532 9.92923 21.2236C9.9712 21.1165 9.99356 21.0028 9.99525 20.8879C9.99571 20.7975 9.97532 20.7083 9.93568 20.6271C9.89834 20.5535 9.8426 20.4908 9.77386 20.4451C9.69807 20.396 9.61321 20.3627 9.5243 20.3469C9.79282 20.2588 10.0235 20.0823 10.1788 19.8462C10.2303 19.7681 10.2714 19.6852 10.3036 19.5966C10.3615 19.4388 10.3833 19.3012 10.3696 19.1852C10.3589 19.0752 10.3096 18.9725 10.2303 18.8954C10.1367 18.8114 10.023 18.7529 9.90025 18.7256C9.72087 18.6838 9.53695 18.6649 9.35283 18.6692H8.43671ZM23.9037 18.6692C23.8406 18.6694 23.7789 18.6884 23.7266 18.724C23.6655 18.768 23.6203 18.8307 23.5978 18.9027L22.4402 22.0825C22.4104 22.1663 22.4096 22.2258 22.4386 22.2621C22.4684 22.2991 22.5135 22.3184 22.5754 22.3184H24.4077C24.4263 22.318 24.4444 22.3124 24.46 22.3023C24.481 22.2896 24.4991 22.2726 24.5132 22.2524C24.5345 22.2251 24.5526 22.1953 24.5671 22.1639C24.5848 22.1268 24.6041 22.0817 24.6234 22.027C24.6436 21.9731 24.6581 21.9272 24.6669 21.8901C24.6743 21.8612 24.6778 21.8314 24.6774 21.8016C24.6766 21.7791 24.6709 21.7621 24.6605 21.7517C24.6494 21.7413 24.6346 21.7358 24.6194 21.7364H23.3056L23.68 20.7076H24.7828C24.801 20.7073 24.8187 20.7023 24.8344 20.6931C24.8547 20.6815 24.8726 20.6659 24.8867 20.6472C24.9071 20.6204 24.9247 20.5915 24.939 20.561C24.9809 20.4748 25.0135 20.3844 25.0364 20.2914C25.0445 20.2631 25.0483 20.2338 25.0477 20.2044C25.0461 20.1827 25.0396 20.1666 25.03 20.1561C25.0191 20.1454 25.0042 20.1396 24.9889 20.14H23.886L24.2105 19.2496H25.513C25.5291 19.2496 25.5468 19.2448 25.5645 19.2343C25.5844 19.2211 25.6019 19.2045 25.616 19.1852C25.637 19.1578 25.6549 19.1281 25.6692 19.0967C25.6877 19.0597 25.7062 19.0154 25.7255 18.9622C25.7465 18.9059 25.7601 18.8592 25.769 18.8222C25.7768 18.7928 25.7806 18.7624 25.7803 18.732C25.7803 18.7095 25.7746 18.6926 25.7642 18.6837C25.7532 18.6737 25.7387 18.6685 25.7239 18.6692H23.9037ZM14.9953 18.6692C14.8522 18.6687 14.7266 18.7645 14.6894 18.9027L13.4842 22.2162C13.4774 22.2323 13.4768 22.2504 13.4826 22.2669C13.4883 22.2822 13.5036 22.2943 13.5293 22.3031C13.5535 22.3128 13.5889 22.3208 13.6348 22.3265C13.6807 22.3313 13.7394 22.3345 13.8103 22.3345C13.8835 22.3345 13.9455 22.3313 13.9938 22.3265C14.0347 22.3222 14.0751 22.3144 14.1146 22.3031C14.1418 22.2965 14.1673 22.2841 14.1895 22.2669C14.2058 22.2535 14.2183 22.236 14.2257 22.2162L14.732 20.8259H14.9631C15.042 20.8259 15.1072 20.838 15.1587 20.8629C15.2084 20.8864 15.25 20.9242 15.2779 20.9716C15.3068 21.0199 15.3262 21.0787 15.3382 21.1503C15.3503 21.222 15.3584 21.3033 15.3648 21.3959L15.3954 22.2105C15.3943 22.2298 15.3964 22.2492 15.4018 22.2677C15.4083 22.2838 15.4228 22.2975 15.4461 22.308C15.4791 22.3204 15.5139 22.3275 15.5491 22.3289C15.6864 22.3371 15.8241 22.3371 15.9613 22.3289C16.0056 22.327 16.0496 22.3205 16.0925 22.3096C16.1172 22.3037 16.14 22.2915 16.1586 22.2741C16.1721 22.2589 16.1824 22.2411 16.1891 22.2218C16.1971 22.1965 16.2017 22.1702 16.2028 22.1437C16.2052 22.1115 16.2061 22.0592 16.2036 21.9876L16.1578 21.2687C16.1546 21.1906 16.1462 21.1129 16.1328 21.036C16.122 20.973 16.1042 20.9115 16.0797 20.8525C16.0396 20.7543 15.9676 20.6726 15.8752 20.6206C16.0016 20.5844 16.1191 20.5377 16.2286 20.4789C16.3381 20.421 16.4371 20.3525 16.5265 20.2728C16.615 20.1939 16.6931 20.1046 16.7607 20.004C16.8301 19.8998 16.8866 19.7876 16.929 19.6699C16.9821 19.525 17.0063 19.397 17.0046 19.2851C17.0043 19.1828 16.9759 19.0825 16.9225 18.9953C16.8664 18.9095 16.7879 18.8408 16.6955 18.7964C16.5831 18.741 16.4623 18.7046 16.3381 18.6885C16.206 18.6741 16.0732 18.6676 15.9404 18.6692H14.9953ZM11.9362 18.6692C11.873 18.6694 11.8113 18.6885 11.7591 18.724C11.6981 18.7682 11.6529 18.8308 11.6303 18.9027L10.4726 22.0825C10.4428 22.1663 10.442 22.2258 10.471 22.2621C10.5 22.2991 10.5459 22.3184 10.6079 22.3184H12.4401C12.4587 22.3178 12.4767 22.3122 12.4925 22.3023C12.5133 22.2894 12.5313 22.2724 12.5456 22.2524C12.5664 22.2247 12.5845 22.1951 12.5995 22.1639C12.6414 22.0761 12.6745 21.9844 12.6985 21.8901C12.7062 21.8613 12.71 21.8315 12.7098 21.8016C12.7106 21.7834 12.7045 21.7656 12.6929 21.7517C12.6818 21.7413 12.667 21.7358 12.6518 21.7364H11.338L11.7124 20.7076H12.8153C12.8334 20.7072 12.8511 20.7022 12.8668 20.6931C12.8868 20.6813 12.9043 20.6657 12.9183 20.6472C12.9389 20.6205 12.9565 20.5916 12.9706 20.561C12.9892 20.5256 13.0077 20.4805 13.027 20.4258C13.0463 20.3727 13.0608 20.3284 13.0689 20.2914C13.0767 20.2631 13.0802 20.2338 13.0793 20.2044C13.0785 20.1827 13.0721 20.1666 13.0616 20.1561C13.0509 20.1456 13.0364 20.1398 13.0214 20.14H11.9185L12.2429 19.2496H13.5454C13.5634 19.2495 13.581 19.2442 13.5961 19.2343C13.6163 19.2212 13.634 19.2046 13.6485 19.1852C13.6691 19.1576 13.6869 19.1279 13.7016 19.0967C13.7193 19.0597 13.7378 19.0154 13.758 18.9622C13.7781 18.9059 13.7926 18.8592 13.8014 18.8222C13.8092 18.7927 13.8133 18.7625 13.8135 18.732C13.8119 18.7095 13.8071 18.6926 13.7974 18.6837C13.7865 18.6736 13.772 18.6684 13.7572 18.6692H11.9362ZM38.2598 18.6579C38.1914 18.6579 38.1359 18.6604 38.0908 18.6652C38.0521 18.6685 38.014 18.6766 37.9773 18.6893C37.9515 18.6978 37.9275 18.7109 37.9064 18.728C37.8904 18.7419 37.8783 18.7596 37.871 18.7795L37.2479 20.491C37.2012 20.6198 37.1529 20.7567 37.103 20.8992C37.0547 21.0424 37.0088 21.1793 36.9662 21.3113H36.9637C36.9573 21.2357 36.9501 21.1608 36.9412 21.0859C36.9332 21.0102 36.9251 20.9338 36.9154 20.8557C36.906 20.7777 36.8952 20.6999 36.8832 20.6222L36.847 20.3831L36.6216 19.05C36.6152 18.9873 36.603 18.9253 36.5854 18.8648C36.5728 18.8213 36.5502 18.7813 36.5194 18.7481C36.4888 18.7186 36.4511 18.6975 36.4099 18.6869C36.3532 18.6736 36.295 18.6676 36.2368 18.6692H35.8391C35.6732 18.6698 35.5264 18.777 35.4752 18.9349L34.2814 22.213C34.2746 22.2293 34.273 22.2472 34.2766 22.2645C34.2806 22.279 34.2927 22.2919 34.3136 22.3015C34.343 22.3143 34.3743 22.3224 34.4062 22.3257C34.5158 22.3381 34.6266 22.3381 34.7362 22.3257C34.7743 22.3216 34.8118 22.3135 34.8481 22.3015C34.8729 22.2938 34.8959 22.2812 34.9158 22.2645C34.9304 22.25 34.9417 22.2324 34.9488 22.213L35.6443 20.305C35.7435 20.0338 35.8355 19.76 35.9204 19.4839H35.9261C35.9344 19.7087 35.9553 19.9329 35.9889 20.1553L36.2754 21.8612C36.2883 21.9545 36.3028 22.0318 36.3189 22.0906C36.335 22.1494 36.3568 22.1969 36.3841 22.2315C36.4112 22.266 36.4483 22.2913 36.4904 22.3039C36.5439 22.3184 36.5992 22.325 36.6546 22.3233H36.9702C37.048 22.3224 37.124 22.3001 37.19 22.2589C37.2623 22.2108 37.3169 22.1404 37.3453 22.0584L38.5392 18.7795C38.5462 18.7633 38.5478 18.7452 38.544 18.728C38.54 18.7135 38.5279 18.7006 38.5086 18.6885C38.4802 18.6746 38.4492 18.6664 38.4176 18.6644C38.3652 18.6594 38.3125 18.6572 38.2598 18.6579ZM31.9202 18.6523C31.8587 18.6517 31.7971 18.6543 31.7359 18.6604C31.6946 18.6645 31.6536 18.6721 31.6135 18.6829C31.5865 18.6899 31.5613 18.7026 31.5395 18.7199C31.5237 18.7337 31.5115 18.7511 31.504 18.7707L30.6966 20.9893C30.6121 21.2228 30.571 21.4264 30.5758 21.5995C30.5727 21.7545 30.6177 21.9067 30.7046 22.0351C30.7974 22.1583 30.9263 22.2494 31.0733 22.2959C31.2344 22.3538 31.43 22.382 31.6586 22.382C31.9033 22.382 32.1303 22.3498 32.3429 22.2862C32.5538 22.2218 32.7454 22.13 32.9177 22.0077C33.0899 21.8853 33.2405 21.7364 33.3709 21.5593C33.5048 21.3753 33.6116 21.173 33.6881 20.9587L34.4851 18.7707C34.4918 18.7545 34.4921 18.7363 34.4859 18.7199C34.4802 18.7046 34.4657 18.6926 34.4408 18.6829C34.4071 18.6715 34.3723 18.6639 34.3369 18.6604C34.2189 18.648 34.0999 18.648 33.9819 18.6604C33.9406 18.6644 33.8996 18.672 33.8596 18.6829C33.833 18.69 33.8083 18.7026 33.7871 18.7199C33.7713 18.7337 33.7592 18.7511 33.7517 18.7707L32.9523 20.9668C32.9056 21.0948 32.8468 21.2083 32.7752 21.3097C32.7043 21.4103 32.6238 21.4949 32.5353 21.5633C32.3571 21.7019 32.1371 21.776 31.9114 21.7734C31.8114 21.7759 31.712 21.7581 31.6192 21.7211C31.5429 21.6899 31.4786 21.6352 31.4356 21.5649C31.3919 21.4841 31.3723 21.3925 31.3793 21.3009C31.3809 21.1954 31.409 21.0698 31.4622 20.9249L32.2455 18.7707C32.2524 18.7545 32.2524 18.7361 32.2455 18.7199C32.2398 18.7046 32.2237 18.6926 32.1988 18.6829C32.1648 18.6715 32.1297 18.6639 32.0941 18.6604C32.0364 18.6543 31.9783 18.6516 31.9202 18.6523ZM4.56532 18.6523C4.49287 18.6523 4.43088 18.6555 4.38177 18.6604C4.33347 18.6668 4.29161 18.674 4.25941 18.6837C4.23228 18.69 4.20695 18.7024 4.18535 18.7199C4.1695 18.7336 4.15732 18.7511 4.14993 18.7707L3.34248 20.9893C3.25795 21.2228 3.2169 21.4264 3.22012 21.5995C3.21771 21.7547 3.26326 21.9068 3.35053 22.0351C3.44307 22.1581 3.57166 22.2493 3.71843 22.2959C3.87944 22.3538 4.07506 22.382 4.30449 22.382C4.54922 22.382 4.77704 22.3498 4.98796 22.2862C5.40126 22.1627 5.76266 21.907 6.01679 21.5585C6.1472 21.3822 6.25266 21.1825 6.33397 20.9587L7.13095 18.7707C7.13745 18.7544 7.13745 18.7362 7.13095 18.7199C7.12612 18.7046 7.11083 18.6926 7.08587 18.6837C7.05245 18.6723 7.01791 18.6645 6.98283 18.6604C6.86481 18.648 6.74582 18.648 6.62781 18.6604C6.58647 18.6649 6.54555 18.6727 6.50544 18.6837C6.47891 18.6903 6.45417 18.7027 6.43299 18.7199C6.41711 18.7336 6.40493 18.751 6.39757 18.7707L5.59817 20.9668C5.55461 21.0884 5.49505 21.2038 5.42107 21.3097C5.34942 21.4103 5.26972 21.4949 5.18036 21.5633C5.002 21.701 4.78262 21.775 4.55727 21.7734C4.45704 21.7762 4.35731 21.7584 4.26424 21.7211C4.18854 21.6897 4.12481 21.635 4.0823 21.5649C4.03824 21.4842 4.01813 21.3926 4.02434 21.3009C4.02756 21.1954 4.05493 21.0698 4.10806 20.9241L4.89216 18.7707C4.89892 18.7544 4.89892 18.7362 4.89216 18.7199C4.88492 18.7046 4.86962 18.6926 4.84386 18.6837C4.81016 18.6723 4.77535 18.6645 4.74001 18.6604C4.68199 18.6543 4.62366 18.6516 4.56532 18.6523ZM27.1223 18.6523C27.0498 18.6523 26.9902 18.6547 26.9411 18.6604C26.8928 18.666 26.851 18.674 26.8188 18.6829C26.7912 18.6897 26.7654 18.7024 26.7431 18.7199C26.7267 18.7335 26.714 18.7509 26.7061 18.7707L25.4526 22.2162C25.4457 22.2324 25.4457 22.2507 25.4526 22.2669C25.4591 22.2814 25.4744 22.2943 25.4993 22.3031C25.5337 22.3148 25.5694 22.3224 25.6056 22.3257C25.6515 22.3313 25.7102 22.3337 25.7811 22.3337C25.8543 22.3337 25.9155 22.3313 25.9654 22.3257C26.0063 22.3219 26.0467 22.3143 26.0862 22.3031C26.113 22.2961 26.1382 22.2838 26.1602 22.2669C26.1765 22.2534 26.1889 22.2359 26.1965 22.2162L27.4507 18.7707C27.4576 18.7545 27.4576 18.7361 27.4507 18.7199C27.4443 18.7046 27.4282 18.6926 27.4032 18.6829C27.3695 18.6717 27.3347 18.6641 27.2994 18.6604C27.2405 18.6543 27.1814 18.6516 27.1223 18.6523ZM18.3233 18.6523C18.2267 18.6523 18.1518 18.6547 18.0971 18.6596C18.0514 18.6612 18.0068 18.6742 17.9675 18.6974C17.9361 18.7182 17.9132 18.7497 17.9031 18.7859C17.8881 18.8381 17.8779 18.8914 17.8725 18.9453L17.5424 22.1284C17.5371 22.1646 17.5382 22.2014 17.5456 22.2371C17.5529 22.2645 17.573 22.2854 17.6052 22.2991C17.6374 22.3128 17.6857 22.3233 17.7485 22.3273C17.8121 22.3321 17.8974 22.3345 18.0061 22.3345C18.1108 22.3345 18.1937 22.3321 18.2589 22.3273C18.3136 22.3246 18.3678 22.3146 18.4199 22.2975C18.4583 22.2846 18.4932 22.2631 18.5221 22.2347C18.5525 22.2027 18.5787 22.167 18.6002 22.1284L19.9945 19.8164H20.0002L19.7425 22.1284C19.7353 22.1643 19.7353 22.2013 19.7425 22.2371C19.749 22.2645 19.7691 22.2854 19.8013 22.2991C19.8335 22.3128 19.8818 22.3233 19.9446 22.3273C20.0082 22.3321 20.0935 22.3345 20.2006 22.3345C20.2956 22.3345 20.3761 22.3321 20.4397 22.3273C20.4948 22.3241 20.5494 22.3147 20.6023 22.2991C20.6435 22.2868 20.6814 22.2657 20.7134 22.2371C20.7472 22.2052 20.7762 22.1686 20.7996 22.1284L22.7928 18.9542C22.8347 18.8842 22.8653 18.8294 22.8822 18.7892C22.8999 18.7489 22.9015 18.7183 22.8886 18.6974C22.8749 18.6765 22.8467 18.6644 22.8025 18.6596C22.7393 18.6535 22.6759 18.6509 22.6125 18.6515C22.5239 18.6515 22.4539 18.6547 22.4032 18.6596C22.3614 18.6621 22.3202 18.6705 22.2808 18.6845C22.2529 18.6948 22.2282 18.7123 22.2092 18.7352C22.1902 18.7596 22.1732 18.7854 22.1584 18.8125L20.5049 21.5979H20.4993L20.8213 18.8238C20.827 18.794 20.8275 18.7635 20.8229 18.7336C20.8169 18.7105 20.8005 18.6915 20.7786 18.6821C20.742 18.6672 20.703 18.659 20.6635 18.6579C20.5236 18.649 20.3832 18.6496 20.2433 18.6596C20.1994 18.6623 20.1562 18.6707 20.1145 18.6845C20.0837 18.6951 20.0561 18.713 20.034 18.7368C20.0105 18.7637 19.9897 18.7928 19.972 18.8238L18.2975 21.5987H18.2943L18.6711 18.8045C18.6781 18.7774 18.6809 18.7494 18.6791 18.7215C18.6767 18.7014 18.6646 18.6861 18.6421 18.6765C18.6068 18.6634 18.5694 18.6566 18.5318 18.6563C18.4623 18.6528 18.3928 18.652 18.3233 18.6523ZM41.3729 18.6064C40.8083 18.6064 40.2585 18.7869 39.8039 19.1216C39.5737 19.2926 39.3702 19.4969 39.2001 19.7278C39.023 19.9661 38.8805 20.2342 38.771 20.5329C38.6664 20.8227 38.6141 21.0811 38.6156 21.3097C38.6165 21.5375 38.6688 21.7316 38.7702 21.8901C38.8725 22.0495 39.023 22.1703 39.2235 22.254C39.4231 22.3377 39.6686 22.3796 39.9601 22.3796C40.1653 22.3796 40.3701 22.3607 40.5719 22.3233C40.7617 22.2893 40.9487 22.2414 41.1314 22.18C41.192 22.161 41.2464 22.1263 41.2892 22.0793C41.3252 22.0351 41.3532 21.985 41.3721 21.9312L41.901 20.4797C41.9134 20.4475 41.9207 20.4136 41.9227 20.3791C41.9248 20.3534 41.9201 20.3276 41.909 20.3042C41.8993 20.2845 41.8835 20.2684 41.864 20.2583C41.8407 20.2469 41.815 20.2414 41.7891 20.2422H40.5574C40.5393 20.2427 40.5217 20.2483 40.5067 20.2583C40.4869 20.2714 40.4694 20.2877 40.4552 20.3067C40.4348 20.3332 40.4173 20.3618 40.4028 20.392C40.3821 20.4349 40.3639 20.479 40.3481 20.524C40.3181 20.5922 40.3009 20.6653 40.2974 20.7398C40.3006 20.7824 40.3191 20.8042 40.3537 20.8042H41.0444L40.7361 21.6494C40.5751 21.7221 40.4008 21.7605 40.2241 21.7621C40.0551 21.7621 39.9102 21.7348 39.7894 21.68C39.6753 21.6308 39.5803 21.5457 39.5189 21.4377C39.4546 21.3151 39.4243 21.1775 39.4312 21.0392C39.4398 20.8502 39.4795 20.6639 39.5487 20.4878C39.6179 20.2978 39.7089 20.1247 39.82 19.9677C39.9269 19.8157 40.0552 19.6799 40.2008 19.5644C40.3433 19.4517 40.497 19.3664 40.6621 19.3052C40.8271 19.244 40.9978 19.2134 41.1741 19.2134C41.4172 19.2086 41.6578 19.264 41.8744 19.3744C41.9501 19.4139 42.0089 19.4501 42.0515 19.4839C42.0934 19.5177 42.1264 19.5346 42.1514 19.5346C42.1675 19.5346 42.1844 19.5298 42.1997 19.5209C42.2193 19.5076 42.2362 19.4907 42.2496 19.471C42.2699 19.4412 42.2876 19.4097 42.3027 19.3768C42.3249 19.331 42.3445 19.284 42.3615 19.236C42.3961 19.1418 42.4162 19.0709 42.4219 19.0226C42.4298 18.9851 42.425 18.946 42.4082 18.9115C42.3811 18.8744 42.3472 18.8427 42.3083 18.8181C42.2444 18.7763 42.1755 18.7427 42.1031 18.7183C42.002 18.6831 41.898 18.6567 41.7923 18.6394C41.6537 18.6164 41.5134 18.6048 41.3729 18.6064ZM29.6637 18.604C29.4953 18.6041 29.3276 18.6257 29.1646 18.6684C28.8357 18.7513 28.5409 18.9352 28.3218 19.1941C28.209 19.3277 28.1205 19.4815 28.0577 19.6562C28.0014 19.8091 27.9772 19.9379 27.9828 20.0474C27.9851 20.1462 28.0099 20.2431 28.0553 20.3308C28.0988 20.4113 28.1559 20.4797 28.2276 20.5369C28.2984 20.594 28.3749 20.6456 28.4562 20.6898C28.5367 20.7357 28.6172 20.7784 28.6945 20.8187C28.7718 20.8589 28.8386 20.9024 28.8933 20.9491C28.9497 20.995 28.9883 21.0473 29.0125 21.106C29.0359 21.1759 29.0324 21.2519 29.0028 21.3194C28.9515 21.4613 28.8536 21.5817 28.7251 21.6607C28.6607 21.7002 28.589 21.7308 28.5093 21.7525C28.4304 21.7734 28.3451 21.7847 28.2549 21.7847C28.0526 21.7891 27.8531 21.7372 27.6785 21.635C27.6269 21.6044 27.5776 21.57 27.5312 21.5319C27.4942 21.5013 27.4628 21.486 27.4362 21.486C27.4169 21.4863 27.3979 21.4919 27.3815 21.5021C27.3603 21.515 27.3422 21.5323 27.3283 21.5528C27.3077 21.5833 27.2899 21.6157 27.2752 21.6494C27.2249 21.7603 27.186 21.876 27.1593 21.9948C27.1528 22.0407 27.1577 22.0753 27.1738 22.1003C27.1979 22.1336 27.2279 22.1622 27.2623 22.1848C27.3058 22.217 27.3638 22.2476 27.4362 22.2766C27.5087 22.3055 27.5948 22.3305 27.6946 22.3514C27.7961 22.3724 27.9088 22.382 28.0352 22.382C28.2211 22.382 28.4055 22.3579 28.5858 22.3096C28.7677 22.2605 28.9368 22.1872 29.0946 22.0906C29.2516 21.994 29.3924 21.8732 29.5164 21.7283C29.6404 21.5834 29.7378 21.4152 29.8078 21.2236C29.861 21.0771 29.8843 20.9499 29.8787 20.842C29.8754 20.7436 29.8498 20.6473 29.8038 20.5602C29.7594 20.48 29.6992 20.4096 29.6267 20.3533C29.5538 20.2964 29.4765 20.2453 29.3957 20.2004C29.316 20.156 29.2354 20.113 29.1542 20.0716C29.0818 20.0354 29.0133 19.992 28.9497 19.942C28.8959 19.9012 28.8542 19.8467 28.8289 19.7842C28.8071 19.7151 28.8111 19.6404 28.8402 19.5741C28.9059 19.394 29.0567 19.2582 29.2427 19.2118C29.315 19.1913 29.3898 19.1813 29.4649 19.182C29.5679 19.182 29.6581 19.1949 29.7362 19.2207C29.8127 19.2456 29.8787 19.273 29.9326 19.3052C29.9874 19.3358 30.0324 19.3648 30.0679 19.3913C30.1041 19.4179 30.1323 19.43 30.1524 19.43C30.1721 19.4306 30.1916 19.4249 30.2079 19.4139C30.2274 19.3993 30.2439 19.3809 30.2562 19.3599C30.2715 19.3358 30.2868 19.3036 30.3037 19.2666C30.3516 19.1558 30.3903 19.0414 30.4197 18.9244C30.4226 18.9071 30.4234 18.8896 30.4221 18.8721C30.4183 18.8548 30.4112 18.8384 30.4011 18.8238C30.3764 18.7946 30.346 18.7708 30.3118 18.7537C30.2568 18.7226 30.1988 18.6969 30.1387 18.6773C29.9851 18.6286 29.8249 18.6033 29.6637 18.604ZM6.66162 17.6484C6.51671 17.6484 6.40964 17.6742 6.33961 17.7257C6.26796 17.778 6.20919 17.8706 6.16008 18.0035C6.1142 18.1323 6.10615 18.2208 6.13754 18.2715C6.16975 18.3222 6.25669 18.348 6.40159 18.348C6.5465 18.348 6.65437 18.3214 6.72683 18.2683C6.79847 18.216 6.85805 18.1234 6.90635 17.9922C6.95304 17.8626 6.96028 17.7732 6.92808 17.7233C6.89588 17.6734 6.80652 17.6484 6.66162 17.6484ZM5.42992 17.6484C5.28663 17.6484 5.18036 17.6742 5.10791 17.7257C5.03707 17.778 4.97669 17.8706 4.92839 18.0035C4.8817 18.1323 4.87445 18.2208 4.90746 18.2715C4.93966 18.3222 5.02821 18.348 5.17312 18.348C5.31722 18.348 5.42509 18.3214 5.49594 18.2683C5.56678 18.216 5.62635 18.1234 5.67385 17.9922C5.72134 17.8626 5.72939 17.7732 5.69719 17.7233C5.6658 17.6734 5.57644 17.6484 5.42992 17.6484Z"
    fill="#383A41" />
</svg>
