<svg width="48" height="30" fill="none" xmlns="http://www.w3.org/2000/svg">
  <path
    d="M44.028 0.962402H3.1698C1.66925 0.962402 0.45282 2.17884 0.45282 3.67938V26.3209C0.45282 27.8214 1.66925 29.0379 3.1698 29.0379H44.028C45.5286 29.0379 46.745 27.8214 46.745 26.3209V3.67938C46.745 2.17884 45.5286 0.962402 44.028 0.962402Z"
    fill="white" stroke="#EAEAEA" />
  <path fill-rule="evenodd" clip-rule="evenodd"
    d="M28.2601 12.4547C28.9457 12.4547 29.1018 12.884 28.5002 14.6585C27.8836 16.4847 27.4359 16.9434 26.7617 16.9434H26.7596C26.1018 16.9434 25.8726 16.4936 26.4866 14.6773C26.9461 13.3212 27.541 12.4547 28.2601 12.4547ZM16.3179 12.4547C17.0029 12.4547 17.1595 12.884 16.5589 14.6585C15.9403 16.4847 15.4932 16.9434 14.8179 16.9434C14.1606 16.9434 13.9298 16.4936 14.5443 14.6773C15.0038 13.3212 15.5972 12.4547 16.3179 12.4547ZM34.0046 12.416H34.3734C35.0456 12.416 35.297 12.6285 35.0688 13.2919C34.8555 13.9134 34.4708 14.2982 33.7403 14.2982H33.3597L34.0056 12.416H34.0046ZM37.1081 10.8091C37.2487 10.9295 37.3703 11.0682 37.4718 11.2243C37.7304 11.628 37.8298 12.1076 37.77 12.6573H39.0969L37.0978 18.5916H39.0954L41.0961 12.6573H43.6623L44.2856 10.8091H37.1081ZM32.5381 10.8091L29.9146 18.5901H32.142L33.0959 15.8522C33.1428 15.9638 33.7053 18.5901 33.7053 18.5901H36.048C36.048 18.5901 35.622 16.6607 35.3078 15.8805C35.228 15.681 35.144 15.4559 35.0312 15.2684C35.6931 15.003 36.6512 14.4333 37.0489 13.2778C37.2925 12.5673 37.2791 11.9934 37.0077 11.5719C36.6795 11.0614 36.0104 10.8112 34.9632 10.8091H32.5381ZM22.3755 10.8049C21.199 10.8049 20.3223 11.4484 19.9097 12.6516L17.909 18.5854H20.0998L21.1279 15.5355L23.0632 15.5365L23.6138 13.9035L21.6848 13.9014L21.9949 12.9563C22.0644 12.7678 22.2431 12.6453 22.4409 12.651L24.7229 12.6526C24.7419 12.6228 24.7594 12.5914 24.778 12.562C25.2612 11.8238 25.9452 11.2274 26.586 10.8049H22.3755ZM10.4868 10.8049C9.83574 10.8049 9.2037 10.8049 8.63554 11.1154C8.06995 11.4264 7.56926 12.0479 7.18345 13.2919C7.10051 13.5589 7.0557 13.7893 7.05055 13.9893C7.04385 14.1899 7.07682 14.36 7.14687 14.5082C7.23444 14.6894 7.37455 14.8595 7.5502 15.0019C7.72586 15.1464 7.93653 15.2627 8.16318 15.3365L8.4367 15.4213C8.57939 15.4653 8.74783 15.5192 8.85497 15.5543C8.92245 15.5747 8.98684 15.6046 9.04711 15.6418C9.10995 15.6821 9.16558 15.7344 9.20112 15.8088C9.2243 15.859 9.23667 15.9145 9.23718 15.9706C9.23821 16.0334 9.22894 16.0968 9.20885 16.1564C9.15631 16.3256 9.07595 16.4339 8.92297 16.5004C8.77049 16.5669 8.54642 16.5884 8.20594 16.591H3.95475L3.28305 18.5854H7.833C8.26054 18.5854 9.0435 18.5854 9.79607 18.2393C10.5486 17.8942 11.2703 17.2052 11.5758 15.825C11.6906 15.3061 11.6551 14.8836 11.4666 14.5517C11.278 14.2197 10.936 13.9783 10.4394 13.8244L10.1973 13.7485L9.83986 13.6375C9.72087 13.604 9.61939 13.5249 9.55552 13.4176C9.49628 13.3118 9.48134 13.1861 9.51379 13.0689C9.54934 12.9385 9.63433 12.8285 9.75023 12.7626C9.89137 12.6851 10.0495 12.6469 10.2097 12.6516H12.8553L12.9099 12.562C13.392 11.8238 13.9772 11.2274 14.618 10.8049H10.4868ZM28.786 10.6934C28.2256 10.6934 27.6811 10.8321 27.1712 11.0929C26.4413 11.4656 25.7799 12.0882 25.239 12.9144C24.8671 13.4909 24.5694 14.1129 24.353 14.7663C23.9085 16.0784 23.9141 17.1424 24.368 17.8434C24.625 18.2403 25.1586 18.7131 26.2466 18.7147H26.2491C28.2292 18.7147 29.7071 17.3136 30.642 14.5506C30.8897 13.8197 31.2148 12.4547 30.6198 11.5332C30.2592 10.9777 29.6437 10.6944 28.786 10.6934ZM16.8438 10.6934C16.2833 10.6934 15.7389 10.8321 15.2284 11.0929C14.4985 11.4656 13.8361 12.0882 13.2967 12.9144C12.9248 13.4909 12.6271 14.1129 12.4102 14.7663C11.9673 16.0784 11.9714 17.1424 12.4247 17.8434C12.6822 18.2403 13.2164 18.7131 14.3028 18.7147H14.3079C16.2869 18.7147 17.7638 17.3136 18.6997 14.5506C18.9464 13.8197 19.2735 12.4547 18.677 11.5332C18.317 10.9777 17.7009 10.6944 16.8438 10.6934Z"
    fill="#EE7F00" />
</svg>
