<svg width="48" height="31" fill="none" xmlns="http://www.w3.org/2000/svg">
  <path fill-rule="evenodd" clip-rule="evenodd"
    d="M2.39829 30.3035C1.29075 30.3035 0.384583 29.4044 0.384583 28.3055V2.39742C0.384583 1.29851 1.29075 0.399414 2.39829 0.399414H45.4478C46.5553 0.399414 47.4615 1.29851 47.4615 2.39742V28.3055C47.4615 29.4044 46.5553 30.3035 45.4478 30.3035H2.39829Z"
    fill="white" />
  <path fill-rule="evenodd" clip-rule="evenodd"
    d="M2.52995 0.961538C1.64376 0.961538 0.923077 1.67205 0.923077 2.54573V28.2235C0.923077 29.0972 1.64376 29.8077 2.52995 29.8077H45.4701C46.3562 29.8077 47.0769 29.0972 47.0769 28.2235V2.54573C47.0769 1.67205 46.3562 0.961538 45.4701 0.961538H2.52995ZM45.5776 30.7692H2.42239C1.08644 30.7692 0 29.6916 0 28.3665V2.40275C0 1.07763 1.08644 0 2.42239 0H45.5776C46.9132 0 48 1.07763 48 2.40275V28.3665C48 29.6916 46.9132 30.7692 45.5776 30.7692Z"
    fill="#EAEAEA" />
  <path fill-rule="evenodd" clip-rule="evenodd"
    d="M19.0359 16.8105L17.0244 22.4437L16.8101 21.2989C16.3092 19.8959 15.225 18.4233 13.9619 17.8263L15.8021 25.0599L17.977 25.0587L21.2112 16.8105H19.0359Z"
    fill="#1C2061" />
  <path fill-rule="evenodd" clip-rule="evenodd"
    d="M20.7593 25.0676L22.0455 16.8022H24.1L22.8134 25.0676H20.7593Z" fill="#1C2061" />
  <path fill-rule="evenodd" clip-rule="evenodd"
    d="M30.2675 17.0063C29.8612 16.8396 29.2206 16.6582 28.4261 16.6582C26.3939 16.6582 24.9657 17.7803 24.953 19.3855C24.9399 20.5743 25.9741 21.2372 26.7513 21.6324C27.5539 22.0364 27.822 22.2958 27.8194 22.6574C27.8117 23.2113 27.1776 23.4634 26.5882 23.4634C25.7667 23.4634 25.3293 23.3391 24.656 23.0314L24.389 22.9L24.1016 24.7493C24.5825 24.9799 25.4693 25.1793 26.3919 25.1897C28.5488 25.1897 29.9524 24.0804 29.9693 22.3673C29.9778 21.4242 29.4287 20.7106 28.2422 20.1211C27.5258 19.7379 27.0833 19.4842 27.0895 19.0958C27.0903 18.7529 27.4612 18.3853 28.2672 18.3853C28.9397 18.3737 29.4237 18.5339 29.8046 18.703L29.9878 18.7977L30.2675 17.0063Z"
    fill="#1C2061" />
  <path fill-rule="evenodd" clip-rule="evenodd"
    d="M33.0035 22.1369C33.1736 21.6626 33.8219 19.8264 33.8219 19.8264C33.8096 19.8492 33.9904 19.3485 34.095 19.0392L34.232 19.7517C34.232 19.7517 34.6267 21.7241 34.7095 22.1369H33.0035ZM35.5374 16.811H33.95C33.4579 16.811 33.0889 16.9565 32.8715 17.4967L29.8213 25.07H31.9793C31.9793 25.07 32.3325 24.051 32.4122 23.8272C32.6472 23.8272 34.7433 23.8324 35.043 23.8324C35.1065 24.1205 35.2927 25.07 35.2927 25.07H37.2011L35.5374 16.811Z"
    fill="#1C2061" />
  <path fill-rule="evenodd" clip-rule="evenodd"
    d="M11.8453 16.8066L11.826 16.9485C14.4023 17.633 16.1025 19.3137 16.81 21.3013L16.0898 17.5027C15.9663 16.9805 15.6054 16.825 15.1591 16.8066H11.8453Z"
    fill="#FF8900" />
  <path fill-rule="evenodd" clip-rule="evenodd"
    d="M5.62952 14.8089H4.31946L2.8078 7.73279L4.25598 7.48145L5.28979 13.0191L7.92413 7.55457H9.31499L5.62952 14.8089Z"
    fill="#1C2061" />
  <path fill-rule="evenodd" clip-rule="evenodd"
    d="M10.6046 10.4859C10.1206 10.4859 9.66848 10.8835 9.45533 11.7107H11.3906C11.4264 10.9255 11.1894 10.4859 10.6046 10.4859ZM12.4433 12.4959H9.31874C9.23371 13.4797 9.67386 13.9089 10.4199 13.9089C11.0447 13.9089 11.5941 13.6683 12.1859 13.2811L12.1816 14.2649C11.6014 14.6418 10.9308 14.8827 10.1444 14.8827C8.78395 14.8827 7.88557 14.0763 8.15527 12.2549C8.39882 10.6114 9.49342 9.61719 10.7635 9.61719C12.2251 9.61719 12.711 10.758 12.4987 12.1922C12.4833 12.2969 12.4544 12.4228 12.4433 12.4959Z"
    fill="#1C2061" />
  <path fill-rule="evenodd" clip-rule="evenodd"
    d="M14.4801 11.878L14.0503 14.7775H12.8407L13.5902 9.72139H14.6182L14.6186 10.7372C15.0284 10.1506 15.5851 9.65866 16.3473 9.6167L16.3542 10.8623C15.5905 10.915 14.9037 11.3338 14.4801 11.878Z"
    fill="#1C2061" />
  <path fill-rule="evenodd" clip-rule="evenodd"
    d="M17.8279 8.87375C17.425 8.87375 17.1461 8.58085 17.208 8.16207C17.2715 7.73289 17.639 7.4292 18.0422 7.4292C18.4354 7.4292 18.7128 7.73289 18.6493 8.16207C18.5874 8.58085 18.2211 8.87375 17.8279 8.87375ZM16.3381 14.7778L17.0876 9.72171H18.2973L17.5474 14.7778H16.3381Z"
    fill="#1C2061" />
  <path fill-rule="evenodd" clip-rule="evenodd"
    d="M21.6467 8.33974C21.2331 8.33974 20.9834 8.52795 20.9169 8.9783L20.8065 9.72156H21.7341L21.7333 10.7473H20.6549L20.0574 14.7777H18.8581L19.4556 10.7473H18.75L18.9016 9.72156H19.6072L19.7361 8.85243C19.9023 7.73235 20.6495 7.31396 21.6471 7.31396C21.8591 7.31396 22.0173 7.33474 22.1354 7.35552L22.1442 8.3813C22.0261 8.36052 21.848 8.33974 21.6467 8.33974Z"
    fill="#1C2061" />
  <path fill-rule="evenodd" clip-rule="evenodd"
    d="M23.1496 8.87375C22.7464 8.87375 22.4675 8.58085 22.5294 8.16207C22.5933 7.73289 22.9607 7.4292 23.3636 7.4292C23.7568 7.4292 24.0346 7.73289 23.9707 8.16207C23.9087 8.58085 23.5425 8.87375 23.1496 8.87375ZM21.6599 14.7778L22.409 9.72171H23.6186L22.8692 14.7778H21.6599Z"
    fill="#1C2061" />
  <path fill-rule="evenodd" clip-rule="evenodd"
    d="M26.4688 10.4859C25.9848 10.4859 25.5327 10.8835 25.32 11.7107H27.2548C27.2906 10.9255 27.0536 10.4859 26.4688 10.4859ZM28.3075 12.4959H25.183C25.098 13.4797 25.5381 13.9089 26.2841 13.9089C26.909 13.9089 27.4588 13.6683 28.0505 13.2811L28.0455 14.2649C27.4657 14.6418 26.7951 14.8827 26.0087 14.8827C24.6482 14.8827 23.7498 14.0763 24.0195 12.2549C24.2631 10.6114 25.3577 9.61719 26.6277 9.61719C28.0894 9.61719 28.5757 10.758 28.3629 12.1922C28.3475 12.2969 28.3187 12.4228 28.3075 12.4959Z"
    fill="#1C2061" />
  <path fill-rule="evenodd" clip-rule="evenodd"
    d="M32.2945 10.8941C32.014 10.7474 31.7928 10.6739 31.3796 10.6739C30.7447 10.6739 30.2018 11.2081 30.0376 12.3178C29.8917 13.3016 30.2265 13.7624 30.7609 13.7624C31.2045 13.7624 31.5873 13.4903 31.9717 13.0715L32.2945 10.8941ZM31.8901 14.7778L31.8936 14.0761C31.4869 14.5056 30.9575 14.8825 30.2823 14.8825C29.2642 14.8825 28.5644 14.0972 28.8172 12.391C29.0961 10.5068 30.2184 9.66928 31.3468 9.66928C31.8109 9.66928 32.1714 9.75319 32.448 9.85749L32.8096 7.41833L34.0485 7.21973L32.9282 14.7778H31.8901Z"
    fill="#1C2061" />
  <path fill-rule="evenodd" clip-rule="evenodd"
    d="M37.3094 11.7089C37.0039 11.7089 36.6976 11.9231 36.426 12.2084L36.1686 13.945C36.3494 14.0162 36.4741 14.0481 36.7338 14.0481C37.314 14.0481 37.7191 13.6833 37.8484 12.811C37.958 12.0737 37.7218 11.7089 37.3094 11.7089ZM36.6337 14.8254C36.0612 14.8254 35.5946 14.7303 35.1598 14.5716L35.9551 9.20338L36.8938 9.05273L36.5495 11.376C36.8238 11.1223 37.2051 10.8685 37.6706 10.8685C38.4494 10.8685 38.9707 11.4711 38.7806 12.7558C38.5713 14.1668 37.7333 14.8254 36.6337 14.8254Z"
    fill="#1C2061" />
  <path fill-rule="evenodd" clip-rule="evenodd"
    d="M40.9389 14.9841C40.471 15.9275 40.0074 16.2208 39.2972 16.2208C39.1371 16.2208 39.0482 16.2053 38.9674 16.1813L38.9617 15.3965C39.079 15.428 39.2052 15.4516 39.381 15.4516C39.6484 15.4516 39.8808 15.3249 40.0363 15.0476L40.1582 14.7935L39.381 11.0193L40.3544 10.8926L40.8054 13.6199L42.0258 10.9477H42.9345L40.9389 14.9841Z"
    fill="#1C2061" />
</svg>
