<svg width="48" height="30" fill="none" xmlns="http://www.w3.org/2000/svg">
  <path
    d="M44.028 0.962402H3.1698C1.66925 0.962402 0.45282 2.17884 0.45282 3.67938V26.3209C0.45282 27.8214 1.66925 29.0379 3.1698 29.0379H44.028C45.5286 29.0379 46.745 27.8214 46.745 26.3209V3.67938C46.745 2.17884 45.5286 0.962402 44.028 0.962402Z"
    fill="white" stroke="#EAEAEA" />
  <path
    d="M19.0803 9.77152L14.6466 20.4215H11.764L9.58631 11.9173C9.46097 11.3966 9.33564 11.2073 8.94397 10.9864C8.27031 10.6235 7.18931 10.2922 6.23364 10.0871L6.29631 9.77152H10.9493C11.5446 9.77152 12.0773 10.166 12.2026 10.8602L13.362 17.0135L16.2133 9.77152H19.0803ZM30.4073 16.9346C30.4229 14.1262 26.5533 13.9684 26.569 12.7219C26.5846 12.3433 26.945 11.9331 27.7283 11.8226C28.12 11.7753 29.2009 11.728 30.4229 12.2959L30.9086 10.0397C30.2506 9.80307 29.4046 9.56641 28.355 9.56641C25.6603 9.56641 23.749 11.018 23.7333 13.0848C23.7176 14.6153 25.0963 15.4673 26.1303 15.9879C27.1956 16.5086 27.556 16.8399 27.556 17.3133C27.5403 18.0232 26.71 18.3388 25.9266 18.3546C24.548 18.3704 23.749 17.9759 23.1223 17.6761L22.621 20.0112C23.2633 20.311 24.4383 20.5635 25.6603 20.5792C28.5273 20.5792 30.4073 19.1592 30.4073 16.9346ZM37.5513 20.4215H40.0736L37.8646 9.77152H35.5303C34.9976 9.77152 34.5589 10.0713 34.3709 10.5446L30.2663 20.4057H33.1333L33.6973 18.8121H37.2223L37.5513 20.4215ZM34.4963 16.6506L35.9376 12.6588L36.7679 16.6506H34.4963ZM22.997 9.77152L20.7253 20.4215H17.9993L20.2553 9.77152H22.997Z"
    fill="url(#paint0_linear_123_5989)" />
  <defs>
    <linearGradient id="paint0_linear_123_5989" x1="6.49528" y1="560.92" x2="3390.49" y2="560.92"
      gradientUnits="userSpaceOnUse">
      <stop stop-color="#0A0141" />
      <stop offset="1" stop-color="#0F218B" />
    </linearGradient>
  </defs>
</svg>
