<svg width="48" height="10" fill="none" xmlns="http://www.w3.org/2000/svg">
  <g clip-path="url(#clip0_58_3238)">
    <path fill-rule="evenodd" clip-rule="evenodd"
      d="M0.902588 0H47.0974C47.5959 0 48 0.404102 48 0.902588V8.72502C48 9.2235 47.5959 9.62761 47.0974 9.62761H0.902588C0.404102 9.62761 0 9.2235 0 8.72502V0.902588C0 0.404102 0.404102 0 0.902588 0Z"
      fill="#F4F4F4" />
    <path fill-rule="evenodd" clip-rule="evenodd"
      d="M13.2879 5.16297C13.2879 5.35429 13.292 5.51408 13.2016 5.68505C13.1279 5.82349 13.0113 5.90873 12.8811 5.90873C12.704 5.90873 12.6005 5.76511 12.6005 5.55194C12.6005 5.13328 12.9536 5.05722 13.2879 5.05722V5.1638V5.16297ZM13.7541 6.36142C13.7235 6.38944 13.6799 6.39411 13.6447 6.3731C13.4913 6.23716 13.4634 6.17461 13.38 6.04534C13.1258 6.32039 12.9462 6.40262 12.6176 6.40262C12.2284 6.40262 11.9257 6.14708 11.9257 5.63634C11.9257 5.23736 12.1302 4.96631 12.4166 4.83304C12.6675 4.71611 13.0178 4.69476 13.2858 4.66257V4.59902C13.2858 4.48192 13.2945 4.34365 13.2298 4.24223C13.1734 4.15166 13.0661 4.11463 12.9704 4.11463C12.7941 4.11463 12.6369 4.21088 12.5983 4.4097C12.5934 4.45607 12.5599 4.49327 12.5166 4.50027L12.0722 4.4484C12.0499 4.44506 12.03 4.43222 12.0171 4.4127C12.0041 4.39335 11.9991 4.36917 12.0035 4.34582C12.1061 3.76786 12.5972 3.59338 13.037 3.59338C13.2621 3.59338 13.556 3.65693 13.7327 3.83791C13.9574 4.06159 13.9373 4.36016 13.9373 4.68425V5.4497C13.9373 5.68038 14.0273 5.78129 14.112 5.90522C14.1415 5.94876 14.1481 6.00314 14.112 6.03566C14.0175 6.11973 13.8498 6.27469 13.7577 6.36209L13.7541 6.36142Z"
      fill="#333333" />
    <path fill-rule="evenodd" clip-rule="evenodd"
      d="M14.9925 6.40259H14.5003C14.4545 6.4002 14.4176 6.3641 14.4131 6.31777V3.74106C14.4148 3.68929 14.4565 3.64859 14.5072 3.6491H14.9663C15.0134 3.65165 15.051 3.68997 15.0535 3.73783V4.07418H15.0627C15.1822 3.74856 15.4074 3.59698 15.7109 3.59698C16.0144 3.59698 16.2118 3.74856 16.3502 4.07418C16.4422 3.82349 16.66 3.64314 16.9195 3.60209C17.1791 3.56122 17.4401 3.66613 17.6026 3.87645C17.7591 4.09325 17.7269 4.40951 17.7269 4.68421V6.30977C17.7264 6.33498 17.716 6.35882 17.6981 6.37636C17.6804 6.39373 17.6565 6.40327 17.6318 6.40259H17.1396C17.0912 6.40003 17.0531 6.35967 17.0524 6.31011V4.94444C17.0524 4.83612 17.0616 4.565 17.0385 4.46196C17.0018 4.28876 16.8915 4.23988 16.7489 4.23988C16.6184 4.24397 16.5026 4.32691 16.4548 4.45089C16.4041 4.58152 16.4085 4.79797 16.4085 4.94444V6.30977C16.408 6.33498 16.3978 6.35865 16.3801 6.37619C16.3624 6.39356 16.3385 6.4031 16.3139 6.40259H15.8204C15.7721 6.39969 15.734 6.3595 15.7332 6.31011V4.94444C15.7332 4.65696 15.7768 4.23375 15.428 4.23375C15.0792 4.23375 15.0879 4.64555 15.0879 4.94444V6.30977C15.0874 6.33498 15.0772 6.35882 15.0593 6.37636C15.0415 6.39373 15.0176 6.40327 14.9928 6.40259"
      fill="#333333" />
    <path fill-rule="evenodd" clip-rule="evenodd"
      d="M19.5591 5.68592C19.4858 5.82395 19.3687 5.90924 19.239 5.90924C19.0618 5.90924 18.9582 5.7657 18.9582 5.55272C18.9582 5.13328 19.3115 5.05767 19.6458 5.05767V5.16383C19.6458 5.35577 19.6491 5.51533 19.5591 5.68592ZM20.4679 5.90674C20.383 5.78256 20.2931 5.68158 20.2931 5.45124V4.6848C20.2931 4.36016 20.3148 4.0619 20.0883 3.83807C19.9112 3.65698 19.6173 3.59338 19.3924 3.59338C18.9524 3.59338 18.4613 3.76747 18.358 4.34614C18.3536 4.36968 18.3587 4.39404 18.3717 4.41357C18.3849 4.43327 18.405 4.44612 18.4272 4.44929L18.8755 4.5007C18.9189 4.49352 18.9523 4.45647 18.9575 4.41007C18.9962 4.21128 19.1527 4.11497 19.329 4.11497C19.4244 4.11497 19.5336 4.15236 19.5886 4.24299C19.6537 4.34397 19.6451 4.48251 19.6451 4.59951V4.66176C19.3769 4.69364 19.0262 4.71501 18.7756 4.83201C18.4858 4.96537 18.2824 5.2366 18.2824 5.63634C18.2824 6.14708 18.5853 6.40262 18.9746 6.40262C19.302 6.40262 19.483 6.32033 19.7367 6.0451C19.8211 6.17579 19.8486 6.23721 20.002 6.37291C20.037 6.39394 20.0807 6.38943 20.1114 6.36173C20.2034 6.2746 20.3713 6.11921 20.4657 6.03509C20.5056 6.00504 20.499 5.95197 20.4679 5.90674Z"
      fill="#333333" />
    <path fill-rule="evenodd" clip-rule="evenodd"
      d="M20.8608 4.02599V3.68055C20.8596 3.65707 20.8689 3.63407 20.8864 3.61746C20.9038 3.60085 20.9277 3.59223 20.9522 3.59351H22.5617C22.5863 3.59271 22.6099 3.60149 22.6275 3.61794C22.6449 3.63439 22.6547 3.65707 22.6544 3.68055V3.9768C22.6544 4.0263 22.6112 4.09146 22.5336 4.19383L21.6996 5.33795C22.009 5.33076 22.3364 5.37532 22.6177 5.52752C22.6697 5.55403 22.7026 5.60545 22.7044 5.66199V6.03202C22.7044 6.08281 22.6468 6.14158 22.5856 6.11108C22.0517 5.84741 21.4179 5.84852 20.885 6.11411C20.8292 6.1427 20.7705 6.08488 20.7705 6.0341V5.68211C20.7654 5.59907 20.7863 5.5165 20.8304 5.44495L21.7966 4.11175H20.954C20.9294 4.1127 20.9056 4.10392 20.888 4.08747C20.8704 4.07102 20.8604 4.04834 20.8608 4.02471"
      fill="#333333" />
    <path fill-rule="evenodd" clip-rule="evenodd"
      d="M24.0771 3.59338C24.8006 3.59338 25.1919 4.22143 25.1919 5.01948C25.1919 5.79096 24.7604 6.40262 24.0771 6.40262C23.3675 6.40262 22.9808 5.77474 22.9808 4.9929C22.9808 4.2109 23.3721 3.59338 24.0771 3.59338ZM24.0817 4.10976C23.7224 4.10976 23.6997 4.60424 23.6997 4.913C23.6997 5.22175 23.6952 5.88123 24.0771 5.88123C24.4589 5.88123 24.4732 5.34914 24.4732 5.02467C24.4732 4.81186 24.4641 4.55626 24.4002 4.35433C24.3455 4.17997 24.2363 4.10976 24.0817 4.10976Z"
      fill="#333333" />
    <path fill-rule="evenodd" clip-rule="evenodd"
      d="M26.0211 6.40262H25.5515C25.5053 6.40004 25.4689 6.35949 25.4683 6.31008V3.73208C25.4732 3.68318 25.5125 3.64637 25.5587 3.64774H25.9957C26.0355 3.64893 26.0695 3.67841 26.0789 3.71964V4.11392H26.0882C26.2199 3.76139 26.4047 3.59338 26.7299 3.59338C26.9409 3.59338 27.1469 3.67466 27.2799 3.89702C27.4029 4.10319 27.4029 4.45027 27.4029 4.69972V6.32166C27.396 6.36903 27.3572 6.40362 27.3123 6.40262H26.8387C26.7962 6.40055 26.7611 6.36665 26.7553 6.32166V4.92208C26.7553 4.64026 26.7862 4.22774 26.4606 4.22774C26.3396 4.23371 26.233 4.3143 26.1879 4.43392C26.1221 4.59136 26.1131 4.74863 26.1131 4.92276V6.31008C26.1114 6.36256 26.0706 6.40362 26.0216 6.40262"
      fill="#333333" />
    <path fill-rule="evenodd" clip-rule="evenodd"
      d="M28.9963 3.92896C29.123 3.82295 29.2678 3.7382 29.4244 3.6783C29.5725 3.62229 29.7305 3.59356 29.8899 3.59356C30.0483 3.5908 30.2053 3.62083 30.3503 3.68171C30.4869 3.74096 30.6064 3.83041 30.699 3.94243C30.8 4.06662 30.8746 4.20818 30.9188 4.35916C30.9724 4.53822 30.9982 4.72378 30.9957 4.90982C30.9981 5.09976 30.9703 5.28905 30.9135 5.4712C30.8659 5.62591 30.7878 5.77056 30.6834 5.89767C30.5865 6.01326 30.4636 6.10693 30.3236 6.17138C30.1763 6.23615 30.0154 6.26813 29.8533 6.26489C29.5499 6.26959 29.2567 6.16358 29.0338 5.96845V7.14413C29.0381 7.17172 29.0283 7.19981 29.0072 7.21945C28.9865 7.23926 28.9571 7.24851 28.928 7.24445H28.6152C28.5861 7.24851 28.5567 7.23926 28.5359 7.21945C28.5149 7.19981 28.5051 7.17172 28.5094 7.14413V3.7684C28.5055 3.7408 28.5151 3.71288 28.5361 3.69324C28.5568 3.67359 28.5861 3.66418 28.6152 3.66807H28.848C28.8783 3.66531 28.9085 3.67457 28.9316 3.69356C28.9547 3.71255 28.9684 3.7395 28.9699 3.7684L28.9963 3.92896ZM29.742 3.99405C29.4856 3.99616 29.2368 4.07717 29.0333 4.2249V5.6225C29.2589 5.78338 29.4917 5.86374 29.7314 5.86358C30.2179 5.86358 30.4612 5.55286 30.4612 4.93174C30.4612 4.31062 30.2213 3.99795 29.742 3.99373V3.99405Z"
      fill="#333333" />
    <path fill-rule="evenodd" clip-rule="evenodd"
      d="M31.8452 4.12596L31.81 4.13924C31.7973 4.14434 31.7839 4.14706 31.7704 4.14723C31.7308 4.14723 31.7092 4.11576 31.7092 4.05229V3.91157C31.7063 3.87601 31.713 3.84028 31.7283 3.80914C31.7485 3.78362 31.7743 3.76439 31.8033 3.75367C31.9224 3.69939 32.0465 3.66042 32.1735 3.63762C32.3189 3.60819 32.4665 3.59338 32.6142 3.59338C32.9113 3.59338 33.1302 3.66162 33.2709 3.79791C33.4117 3.93437 33.4821 4.14638 33.4824 4.43411V6.23008C33.4861 6.25901 33.4773 6.28811 33.4589 6.30887C33.4405 6.32945 33.4144 6.33915 33.3886 6.33524H33.1865C33.161 6.33796 33.1354 6.32894 33.1159 6.30989C33.0965 6.29117 33.0848 6.26412 33.0836 6.23536L33.0599 6.06163C32.9492 6.169 32.8232 6.25425 32.6872 6.3138C32.558 6.37199 32.4203 6.40194 32.2813 6.40262C32.0563 6.40262 31.878 6.3315 31.7467 6.18942C31.6151 6.04751 31.549 5.85745 31.5486 5.61923C31.5486 5.36349 31.6298 5.15931 31.7924 5.00668C31.9552 4.85388 32.1741 4.77782 32.4492 4.77799C32.6485 4.78157 32.8469 4.81117 33.04 4.86681V4.5214C33.04 4.33202 33.0025 4.19896 32.9275 4.12205C32.8527 4.04497 32.7214 4.00635 32.5334 4.00618C32.3001 4.00856 32.0683 4.04889 31.8452 4.12596ZM32.3941 6.00889C32.5047 6.00735 32.614 5.98438 32.7177 5.94099C32.834 5.89301 32.9429 5.8258 33.0413 5.74123V5.20457C32.96 5.18313 32.8777 5.16662 32.7949 5.15488C32.7118 5.14263 32.628 5.13634 32.5442 5.13617C32.1903 5.13617 32.0136 5.28879 32.0139 5.59388C32.0139 5.72711 32.0467 5.82954 32.1126 5.90152C32.1782 5.97332 32.2721 6.00923 32.3941 6.00889Z"
      fill="#333333" />
    <path fill-rule="evenodd" clip-rule="evenodd"
      d="M35.0873 6.59562C34.9949 6.82723 34.8886 6.99331 34.7678 7.09437C34.6471 7.19526 34.4889 7.24546 34.2934 7.24529C34.1953 7.2466 34.0973 7.2347 34.0024 7.21009C33.9704 7.20341 33.9416 7.18646 33.9204 7.16201C33.9011 7.1312 33.8922 7.09502 33.895 7.05916V6.92812C33.895 6.86423 33.9204 6.83244 33.9717 6.83244C33.9975 6.83358 34.0233 6.83684 34.0485 6.84222C34.0938 6.85005 34.1401 6.85331 34.1861 6.85233C34.2945 6.85917 34.4018 6.82706 34.4879 6.76187C34.5595 6.7014 34.6242 6.59073 34.682 6.42921L34.779 6.17429L33.795 3.77575C33.7764 3.73761 33.7645 3.69653 33.7596 3.65464C33.7596 3.61455 33.7832 3.59418 33.8307 3.59418H34.1373C34.1765 3.59059 34.216 3.59923 34.2499 3.61928C34.2787 3.65106 34.2995 3.68903 34.3107 3.73027L35.0262 5.68402L35.7162 3.73027C35.7273 3.68903 35.7481 3.65106 35.7769 3.61928C35.8107 3.59923 35.8501 3.59059 35.8896 3.59418H36.1754C36.2232 3.59418 36.247 3.61455 36.247 3.65464C36.2417 3.69653 36.2296 3.73761 36.2111 3.77575L35.0873 6.59562Z"
      fill="#333333" />
    <path fill-rule="evenodd" clip-rule="evenodd"
      d="M21.9979 6.91388C22.1132 7.06219 21.8706 7.67441 21.7617 7.94759C21.7285 8.03001 21.7994 8.06344 21.8736 8.00101C22.3559 7.59395 22.4806 6.74149 22.3826 6.61842C22.2846 6.49519 21.4411 6.39113 20.9262 6.75558C20.8469 6.81163 20.8604 6.88914 20.9487 6.87832C21.2384 6.84325 21.8838 6.76509 21.9987 6.91388M21.6238 7.34306C20.7243 8.01199 19.4185 8.36907 18.2971 8.36907C16.797 8.37677 15.3479 7.81944 14.2341 6.80655C14.1492 6.73002 14.2247 6.62514 14.3261 6.68479C15.4832 7.36306 16.9132 7.77175 18.3917 7.77175C19.4574 7.76585 20.5113 7.54807 21.4933 7.13052C21.6451 7.06563 21.7728 7.2313 21.6238 7.34437"
      fill="#FF9900" />
  </g>
  <defs>
    <clipPath id="clip0_58_3238">
      <rect width="48" height="9.62761" fill="white" />
    </clipPath>
  </defs>
</svg>
