<svg width="47" height="30" fill="none" xmlns="http://www.w3.org/2000/svg">
  <path
    d="M43.6929 0.962402H3.05214C1.91877 0.962402 1 1.91294 1 3.0855V26.9148C1 28.0873 1.91877 29.0379 3.05214 29.0379H43.6929C44.8262 29.0379 45.745 28.0873 45.745 26.9148V3.0855C45.745 1.91294 44.8262 0.962402 43.6929 0.962402Z"
    fill="white" stroke="#EAEAEA" />
  <path fill-rule="evenodd" clip-rule="evenodd"
    d="M13.7286 12.8153L9.49012 13.3261L4.57318 9.99289L8.79926 9.52139L13.7286 12.8153ZM14.9112 12.6713L9.99426 9.39697L14.1145 8.93856L19.0377 12.2129L14.9112 12.6713ZM19.629 12.8939V23.0318L9.73285 24.3416V14.0792L19.629 12.8939ZM8.98598 13.9155V24.1255L3.85742 20.7064V10.4316L8.98598 13.9155ZM20.3758 12.3373C20.3746 12.2057 20.3086 12.0845 20.2016 12.0164L14.4568 8.22476L14.3635 8.17892C14.3 8.13897 14.2253 8.1226 14.1519 8.13308L3.46531 9.33148C3.32278 9.34392 3.19955 9.44084 3.14789 9.58033C3.14462 9.60652 3.14462 9.63337 3.14789 9.65891V20.9094C3.14353 20.9468 3.14353 20.9841 3.14789 21.0208V21.0732C3.17777 21.1498 3.23005 21.214 3.29727 21.2572L9.09801 25.134H9.15402C9.21938 25.1746 9.29655 25.1903 9.37186 25.1791L20.0335 23.7391C20.1642 23.7227 20.2775 23.6356 20.3323 23.5092V23.4706C20.336 23.4352 20.336 23.3999 20.3323 23.3652V12.3373H20.3758ZM39.8818 19.449H43.0373V18.6114H40.6784V10.6411H43.2427V9.77665H39.8818V19.449ZM38.6313 18.0941L39.1485 18.749L34.4811 22.8419C33.8257 23.4378 32.9575 23.7024 32.1017 23.5681H25.1059V23.5288H24.3342C23.6651 23.5295 23.0228 23.2466 22.5541 22.743C22.2323 22.3291 22.0898 21.7928 22.1626 21.263C22.1626 20.8013 22.3238 20.3567 22.6164 20.0122C23.006 19.5852 23.5475 19.3482 24.1101 19.3574L28.9524 19.2788V20.117L24.1101 20.1962C23.7753 20.1772 23.4473 20.303 23.2014 20.5427C23.0502 20.7247 22.963 20.9559 22.9524 21.1975V21.2761C22.8989 21.5845 22.9736 21.9015 23.1578 22.1471C23.4852 22.4974 23.9352 22.6913 24.4026 22.6841C24.9752 22.7233 25.5665 22.6841 26.1391 22.6841H32.1963C32.8193 22.8006 33.4598 22.631 33.9571 22.2191L38.6313 18.0941ZM38.9917 10.6279L39.1411 11.4537C37.9025 11.7739 36.8694 11.9376 36.4648 12.0359C36.252 12.0745 36.0435 12.1367 35.8424 12.2199C35.2854 12.4975 34.7875 12.8918 34.3798 13.379L34.1993 13.5689L33.5333 14.263L30.6952 17.1968C30.4033 17.4391 30.1867 17.7672 30.0728 18.1392C30.0018 18.4758 30.1089 18.8268 30.3523 19.0566C30.6765 19.3507 31.1203 19.4489 31.5292 19.3186C32.0732 19.0822 32.5512 18.703 32.9172 18.2178L33.1288 17.9892L33.9005 17.1569C34.2659 16.7561 34.635 16.358 35.0084 15.9657L35.5686 16.5616C35.1951 16.9408 34.8279 17.3468 34.4731 17.7332L33.6951 18.5779L33.4891 18.8012C33.0273 19.3932 32.4242 19.8457 31.7408 20.111C31.5541 20.1647 31.3618 20.1909 31.1682 20.1889C30.6647 20.1941 30.1836 20.0049 29.8114 19.6585C29.3664 19.2341 29.1678 18.5943 29.288 17.9755C29.4249 17.4273 29.7267 16.9408 30.1475 16.5872L32.9856 13.6213L33.6516 12.933L33.8259 12.7503C34.3063 12.1989 34.8864 11.7543 35.5312 11.4406C35.7876 11.3312 36.0553 11.252 36.3279 11.2042C36.7262 11.106 37.747 10.9494 38.9917 10.6279ZM27.9067 10.334C29.4229 10.3229 30.6602 11.6071 30.6702 13.2016C30.6801 14.7969 29.4596 16.0988 27.9447 16.1092H27.9254C26.4155 16.1132 25.1875 14.8296 25.1806 13.2409C25.1707 11.6464 26.3906 10.3445 27.9067 10.334ZM27.9254 11.2043H27.9198C26.8493 11.2043 25.9804 12.1152 25.9773 13.2409C25.9742 14.3699 26.8406 15.2874 27.913 15.2907C28.9853 15.2946 29.8579 14.383 29.8611 13.254C29.8648 12.1257 28.9978 11.2082 27.9254 11.2043ZM28.3613 11.9902V14.4918H27.7389V12.8219L27.4153 13.0904L27.0792 12.6516L27.8821 11.9968L28.3613 11.9902ZM32.5311 4.78665C34.0467 4.78012 35.2815 6.06693 35.2884 7.66151C35.2952 9.25676 34.0716 10.5554 32.556 10.5626H32.5436C31.0337 10.5665 29.8057 9.28361 29.7988 7.69426V7.68771C29.792 6.09312 31.015 4.79453 32.5311 4.78665ZM32.5498 5.65109H32.5374C31.4675 5.65109 30.5986 6.562 30.5955 7.68771H30.5899C30.5824 8.81997 31.4488 9.74332 32.5249 9.75052C33.6004 9.75773 34.4786 8.84616 34.4855 7.7139C34.4923 6.5823 33.6253 5.65829 32.5498 5.65109ZM32.992 6.44354V8.93856H32.3696V7.26866L32.0459 7.53716L31.7098 7.0984L32.5127 6.44354H32.992Z"
    fill="#333333" />
</svg>
