<svg width="50" height="30" fill="none" xmlns="http://www.w3.org/2000/svg">
  <path
    d="M45.7692 0.692383H4.23078C2.70137 0.692383 1.46155 1.93221 1.46155 3.46161V26.5385C1.46155 28.0679 2.70137 29.3078 4.23078 29.3078H45.7692C47.2986 29.3078 48.5385 28.0679 48.5385 26.5385V3.46161C48.5385 1.93221 47.2986 0.692383 45.7692 0.692383Z"
    fill="white" stroke="#EAEAEA" />
  <path fill-rule="evenodd" clip-rule="evenodd"
    d="M41.332 11.3898C42.9419 11.0612 44.5526 11.964 45.2763 13.523C45.6797 14.4258 45.6797 15.492 45.2763 16.4769C44.9386 16.3462 44.615 16.1813 44.3108 15.9849C44.2305 15.9849 44.2305 15.7384 44.2305 15.6563C44.5526 14.5901 44.0689 13.4409 43.1034 12.8667C42.7803 12.6203 42.2985 12.5381 41.896 12.6203L42.1369 12.7846C42.4591 12.8667 42.6197 13.2766 42.5394 13.6052C42.4591 13.9329 42.1369 14.0972 41.8148 14.015H41.7345C41.0902 13.7695 40.4468 13.523 39.8025 13.1944C39.6683 13.1313 39.5617 13.0217 39.5025 12.8858C39.4432 12.75 39.4353 12.5972 39.4803 12.456C39.7222 11.8818 39.9631 11.2255 40.2049 10.6513C40.2852 10.3227 40.6877 10.1593 41.0099 10.2406C41.3329 10.3237 41.4935 10.7335 41.4123 11.0621C41.332 11.0621 41.332 11.1433 41.332 11.3898Z"
    fill="#FE701A" />
  <path fill-rule="evenodd" clip-rule="evenodd"
    d="M43.1034 18.6923C41.4936 19.0209 39.8025 18.1181 39.1582 16.5591C38.7557 15.6563 38.7557 14.5901 39.1582 13.6052C39.5606 13.7695 39.8828 13.9329 40.1246 14.0972C40.2049 14.0972 40.2049 14.3437 40.2049 14.4258C39.8828 15.492 40.3665 16.6412 41.332 17.2154C41.7345 17.4618 42.1369 17.544 42.5394 17.4618L42.2985 17.3788C41.9754 17.2975 41.8148 16.8868 41.896 16.5591C41.9763 16.2305 42.2985 16.0671 42.6197 16.1483H42.7009C43.3443 16.3948 43.9886 16.6412 44.6329 16.9698C44.7671 17.0329 44.8737 17.1426 44.9329 17.2785C44.9922 17.4143 45.0001 17.5671 44.9551 17.7083C44.7132 18.2825 44.4714 18.9388 44.2305 19.5129C44.1492 19.8406 43.7468 20.0049 43.4255 19.9228C43.1025 19.8406 42.9419 19.4308 43.0231 19.1021C43.0231 18.8566 43.1034 18.7745 43.1034 18.6923Z"
    fill="#009CB1" />
  <path
    d="M24.9096 12.7026C24.9096 13.2767 24.4268 13.6875 23.8628 13.6875C23.38 13.7697 22.9766 13.441 22.8972 12.949V12.7847C22.8948 12.6529 22.9214 12.5221 22.9751 12.4017C23.0289 12.2813 23.1085 12.1742 23.2084 12.088C23.3082 12.0018 23.4258 11.9387 23.5528 11.9031C23.6797 11.8675 23.813 11.8603 23.9431 11.882C24.4268 11.7998 24.8292 12.1284 24.9096 12.6204V12.7035V12.7026ZM24.6677 13.8518C24.4268 15.0823 24.1849 16.3949 23.9431 17.5441H22.2529L22.4948 16.0672C22.6554 15.41 22.7357 14.7537 22.8972 14.0152C22.8972 13.8518 22.9776 13.7697 23.1382 13.7697L24.6677 13.8518ZM20.4012 17.5441H18.7111C18.952 16.3127 19.1136 15.1644 19.3545 14.0152C19.3545 13.933 19.4348 13.8518 19.516 13.8518H20.9652C20.9652 14.0152 20.9652 14.0974 20.884 14.2617C21.2071 13.7697 21.7702 13.6054 22.2529 13.7697L22.0111 15.2466L21.5283 15.1635C21.2062 15.0001 20.884 15.1635 20.7234 15.41C20.7234 15.493 20.6431 15.5743 20.6431 15.6564C20.6431 16.3127 20.4816 16.8869 20.4012 17.5441ZM6.95755 15.3287C6.55509 15.0823 6.23294 15.0001 5.91078 15.3287C5.80317 15.4341 5.73613 15.5741 5.72144 15.724C5.70676 15.8739 5.74536 16.0242 5.83048 16.1484C6.0714 16.5592 6.47386 16.3949 6.79601 16.3127L6.55509 17.5441C6.47386 17.6254 6.47386 17.7075 6.31325 17.7075C5.58863 17.954 4.78371 17.7075 4.30094 17.1334C3.81725 16.477 3.73786 15.6564 4.21971 14.918C4.78371 13.933 5.99201 13.441 7.03786 13.8518C7.11817 13.933 7.19848 13.933 7.19848 14.0974L6.95755 15.3287ZM36.3409 14.1795L35.7779 15.1644C35.6163 15.0814 35.3745 14.918 35.2139 14.8358C35.1336 14.8358 35.0532 14.8358 34.8917 14.9189C34.972 15.0001 34.972 15.0823 35.0532 15.1644C35.1336 15.2466 35.2139 15.2466 35.2942 15.3287C35.6966 15.41 36.0188 15.8207 36.0188 16.3127C36.0991 16.8057 35.7769 17.2977 35.3745 17.5441C34.972 17.7897 34.4892 17.8718 34.0868 17.7897C33.604 17.7075 33.04 17.462 32.6376 17.2155L33.2819 16.1484C33.5237 16.3127 33.8449 16.477 34.168 16.6414C34.2474 16.6414 34.408 16.5583 34.4892 16.5583C34.4089 16.477 34.4089 16.3949 34.3286 16.3127C34.1671 16.2306 34.0056 16.1484 33.9262 16.0672C33.4425 15.7386 33.2016 15.0823 33.5237 14.5903C33.604 14.426 33.6843 14.3438 33.7646 14.2617C34.0252 14.0631 34.333 13.9359 34.6578 13.8926C34.9825 13.8494 35.3129 13.8917 35.6163 14.0152C35.8582 13.933 36.0991 14.0983 36.3409 14.1795ZM25.8751 12.8678H27.6474C27.5662 13.1955 27.5662 13.5241 27.4859 13.8527H27.9686L27.7268 15.0832C27.6465 15.1654 27.5662 15.1654 27.4859 15.1654C27.1628 15.1654 27.0834 15.2475 27.0834 15.5752C27.0022 16.2315 26.8416 16.8878 26.6809 17.6263H24.9899C25.1514 16.8066 25.2317 16.0681 25.3923 15.2475L24.9096 15.1644L25.1514 14.0161C25.1514 13.8527 25.312 13.8527 25.3923 13.8527C25.5539 13.8527 25.6342 13.7697 25.6342 13.6063C25.7747 13.384 25.8575 13.1302 25.8751 12.8678ZM11.7077 17.6254C12.0299 15.7386 12.4323 13.933 12.7545 12.0463H14.4446C14.3643 12.6204 14.2037 13.2767 14.1234 13.8518C13.8816 15.0001 13.72 16.1484 13.4791 17.3798C13.4791 17.6254 13.3176 17.6254 13.1569 17.6254H11.7077ZM9.85601 15.2466C9.85601 15.0001 9.77571 14.8358 9.61509 14.8358C9.37325 14.7537 9.1314 14.9189 9.05201 15.1644V15.2466H9.85601ZM11.3856 15.902H8.96986C8.88955 16.1484 9.05017 16.3127 9.21171 16.477C9.30845 16.5285 9.42148 16.5402 9.52668 16.5095C9.63188 16.4788 9.72091 16.4082 9.77478 16.3127C9.85509 16.2306 10.0166 16.1484 10.1772 16.2306C10.4994 16.3137 10.9019 16.3949 11.224 16.477C10.8216 17.3798 9.93632 17.8718 8.96986 17.7075C8.32555 17.7075 7.68217 17.2155 7.52063 16.5592C7.27971 15.7386 7.52063 14.918 8.08371 14.3438C8.64771 13.7697 9.45263 13.5232 10.2576 13.7697C11.1437 14.0152 11.6265 14.8358 11.4659 15.7386C11.4659 15.8207 11.4659 15.9029 11.3846 15.9029L11.3856 15.902ZM16.1357 15.2466H17.0219C17.0219 15.0001 16.9406 14.8358 16.6988 14.8358C16.3766 14.7537 16.216 14.9189 16.1357 15.2466ZM15.9742 15.902C15.9742 16.1484 16.0554 16.3949 16.2972 16.477C16.5372 16.5592 16.6988 16.477 16.8603 16.3127C16.9406 16.2306 17.0209 16.2306 17.1012 16.2306C17.5037 16.3137 17.8259 16.3949 18.2283 16.477C17.8259 17.3798 16.9406 17.8718 15.9742 17.7075C15.3308 17.7075 14.6865 17.2155 14.4446 16.5592C14.321 16.1936 14.3007 15.8009 14.386 15.4245C14.4714 15.048 14.659 14.7025 14.9283 14.426C15.4914 13.7697 16.4579 13.6044 17.2628 13.8518C18.0677 14.0974 18.5505 14.918 18.3889 15.8207C18.3889 15.985 18.2283 15.985 18.1489 15.985L15.9742 15.902ZM30.7065 15.7386C30.7065 15.4921 30.5459 15.3287 30.3843 15.2466C30.0622 15.2466 29.9016 15.4921 29.9016 15.8207C29.9016 16.0672 29.9819 16.2306 30.2237 16.2306H30.304C30.5459 16.2306 30.7065 15.985 30.7065 15.7386ZM30.9483 14.1795C31.1089 13.7697 31.1089 13.7697 31.5917 13.7697H32.7188C32.4779 15.0001 32.236 16.3127 31.9951 17.462H30.3843C30.3843 17.3789 30.3843 17.2155 30.4646 17.1334C30.2237 17.2977 29.9016 17.462 29.6597 17.5441C28.9351 17.7075 28.2105 17.2977 28.0499 16.5592V16.3127C27.9696 15.4921 28.2114 14.5903 28.8548 14.0974C29.021 13.9307 29.2248 13.8065 29.4491 13.7352C29.6733 13.6639 29.9115 13.6475 30.1434 13.6875C30.4646 13.8518 30.7065 14.0152 30.9483 14.1795Z"
    fill="#323232" />
</svg>
