<svg width="50" height="30" fill="none" xmlns="http://www.w3.org/2000/svg">
  <path
    d="M45.7692 0.692383H4.23078C2.70137 0.692383 1.46155 1.93221 1.46155 3.46161V26.5385C1.46155 28.0679 2.70137 29.3078 4.23078 29.3078H45.7692C47.2986 29.3078 48.5385 28.0679 48.5385 26.5385V3.46161C48.5385 1.93221 47.2986 0.692383 45.7692 0.692383Z"
    fill="white" stroke="#EAEAEA" />
  <path fill-rule="evenodd" clip-rule="evenodd"
    d="M31.3979 23.3724V22.4124L31.6434 22.3663C31.9419 22.3203 32.2101 22.1581 32.3896 21.9152C32.5691 21.6723 32.6453 21.3682 32.6015 21.0694V20.9909C32.5903 20.7103 32.4704 20.445 32.2671 20.2512C32.0638 20.0575 31.7932 19.9503 31.5123 19.9524C30.8154 19.9524 30.7923 19.9524 30.7923 20.6632V24.6537C30.7923 24.9038 30.724 24.9897 30.4711 24.9666C30.2182 24.9435 29.9726 24.9666 29.7049 24.9666V19.5767C29.6896 19.4933 29.7075 19.4072 29.7548 19.3367C29.7779 19.3019 29.8078 19.272 29.8427 19.2488C29.8776 19.2257 29.9167 19.2098 29.9579 19.202C30.5451 19.0092 31.1648 18.9349 31.7809 18.9832C32.1687 18.978 32.5487 19.0922 32.8695 19.3101C33.1903 19.528 33.4364 19.8393 33.5745 20.2017C33.7494 20.6038 33.8097 21.0465 33.7488 21.4808C33.6878 21.9151 33.508 22.3241 33.2292 22.6626C32.9999 22.9149 32.7151 23.1104 32.3973 23.2338C32.0795 23.3571 31.7373 23.404 31.3979 23.3724ZM8.89139 17.1555H9.98709V19.1087C10.3268 19.0515 10.6702 19.0127 11.0135 18.9915C11.4419 18.926 11.8757 19.0663 12.1886 19.3727C12.5006 19.6783 12.6557 20.1149 12.6077 20.5543V23.2247H11.5194V20.7251C11.5367 20.6189 11.5288 20.5101 11.4965 20.4075C11.4641 20.3049 11.4081 20.2113 11.3329 20.1343C11.2588 20.0582 11.1673 20.0012 11.0664 19.9681C10.9655 19.935 10.858 19.9268 10.7532 19.9441C10.0563 19.9441 9.98709 19.9903 9.98709 20.6789V23.2174H8.88309L8.89139 17.1555Z"
    fill="#3B3B3A" />
  <path
    d="M15.8191 21.171C15.7711 20.0171 16.6489 19.0424 17.7806 18.9916H17.9717C19.1034 18.9427 20.0606 19.8371 20.1105 20.991V21.1867C20.1105 22.394 19.1495 23.3734 17.9643 23.3734C16.7791 23.3734 15.8191 22.394 15.8191 21.1857V21.171ZM16.9295 21.171C16.8677 21.711 17.188 22.2214 17.6957 22.3894C17.9791 22.4707 18.2837 22.4236 18.5292 22.2584C18.6514 22.1757 18.7545 22.0679 18.8316 21.9421C18.9086 21.8163 18.9579 21.6755 18.976 21.5291C19.0819 21.2185 19.0603 20.8786 18.916 20.5839C18.8455 20.4392 18.7467 20.3102 18.6254 20.2044C18.5041 20.0986 18.3628 20.0183 18.2098 19.9682C17.4898 19.8353 16.9683 20.343 16.9683 21.171H16.9295ZM24.8615 21.171C24.8652 19.9627 25.8298 18.987 27.0151 18.9916C28.1994 18.9962 29.1566 19.9793 29.1529 21.1867C29.1483 22.394 28.1837 23.3697 26.9994 23.3651C25.8677 23.414 24.9114 22.5196 24.8615 21.3657C24.8564 21.3009 24.8564 21.2358 24.8615 21.171ZM25.9572 21.171C25.9 21.7045 26.2212 22.2048 26.7234 22.3654C27.0049 22.4476 27.3077 22.4024 27.5542 22.2408C27.8006 22.0793 27.9668 21.8171 28.0111 21.5217C28.117 21.2111 28.0954 20.8712 27.9511 20.5765C27.8807 20.4317 27.7819 20.3024 27.6606 20.1965C27.5393 20.0906 27.3979 20.0101 27.2449 19.9599H27.1831C26.4631 19.8427 25.9415 20.3587 25.9415 21.1867L25.9572 21.171ZM36.3631 18.9916C36.6359 18.9793 36.9084 19.0217 37.1646 19.1163C37.4208 19.211 37.6555 19.3559 37.8548 19.5427C38.26 19.9202 38.5009 20.4473 38.5249 21.0067V21.1636C38.548 21.7285 38.3495 22.2805 37.972 22.6959C37.5954 23.1122 37.072 23.3587 36.5172 23.3808H36.3714C35.2342 23.3116 34.3471 22.3516 34.3471 21.1904C34.3471 20.0291 35.2342 19.0682 36.3714 18.999L36.3631 18.9916ZM37.4597 21.17C37.4135 20.934 37.3417 20.7037 37.2455 20.4833C37.1837 20.365 37.099 20.2603 36.9963 20.175C36.8937 20.0897 36.7752 20.0255 36.6477 19.9863C36.5201 19.9471 36.3861 19.9335 36.2532 19.9464C36.1204 19.9593 35.9915 19.9984 35.8738 20.0614C35.7397 20.1331 35.6262 20.2379 35.5443 20.366C35.3805 20.6096 35.293 20.8964 35.293 21.1899C35.293 21.4834 35.3805 21.7702 35.5443 22.0137C35.6902 22.1817 35.8785 22.3064 36.0889 22.3737C36.8089 22.5768 37.3988 22.022 37.4366 21.171L37.4597 21.17Z"
    fill="#3B3B3A" />
  <path fill-rule="evenodd" clip-rule="evenodd"
    d="M21.7415 23.256H20.7151V19.5923C20.702 19.5108 20.7212 19.4273 20.7686 19.3597C20.7918 19.3265 20.8214 19.2981 20.8556 19.2764C20.8898 19.2547 20.928 19.24 20.968 19.2332C21.6014 19.0308 22.2666 18.9463 22.9305 18.984C23.1278 18.9669 23.3266 18.9933 23.5127 19.0612C23.6988 19.1292 23.8677 19.237 24.0077 19.3772C24.2938 19.6634 24.4434 20.0603 24.4166 20.4674V23.2172H23.2831V20.7877C23.3004 20.6815 23.2925 20.5727 23.2601 20.4701C23.2277 20.3675 23.1717 20.274 23.0966 20.1969C23.0224 20.1207 22.9308 20.0636 22.8297 20.0305C22.7286 19.9974 22.6209 19.9893 22.516 20.0068C21.8191 20.0068 21.7498 20.0529 21.7498 20.7877V23.256H21.7425H21.7415ZM43.5982 19.0846H45.0308V19.9911H43.6138V21.8742C43.6138 22.1862 43.8511 22.3579 44.1649 22.3892C44.3154 22.4012 44.4668 22.4012 44.6172 22.3892L45.0538 22.3265V23.3419C44.5692 23.3723 44.0828 23.3723 43.5982 23.3419C43.2675 23.2989 42.9666 23.1288 42.7591 22.8678C42.5517 22.6068 42.454 22.2752 42.4868 21.9434V17.7489C42.4868 17.5929 42.5486 17.5542 42.6862 17.5459C43.5751 17.4997 43.5751 17.484 43.5751 18.4052L43.5982 19.0846ZM41.6597 20.1471L40.7015 19.8425H40.6397C40.288 19.8425 40.0268 19.9366 39.9889 20.1554C39.9502 20.3742 40.1034 20.5375 40.4874 20.6391C40.7015 20.688 40.9138 20.748 41.1225 20.8191C41.6532 20.9899 41.98 21.5326 41.8886 22.0929C41.8917 22.3563 41.8056 22.613 41.6444 22.8213C41.4832 23.0296 41.2563 23.1772 41.0006 23.2403C40.3762 23.4319 39.7034 23.3903 39.1074 23.1231C39.0389 23.1038 38.9802 23.0592 38.9433 22.9984C38.9063 22.9377 38.8937 22.8651 38.908 22.7954V22.0292C39.0612 22.1215 39.2228 22.1982 39.3908 22.2563C39.6963 22.344 40.0092 22.4012 40.3258 22.428C40.3742 22.4382 40.4242 22.4385 40.4727 22.429C40.5212 22.4195 40.5673 22.4003 40.6083 22.3726C40.6922 22.3166 40.7506 22.2296 40.7708 22.1308C40.7762 22.0273 40.7432 21.9255 40.6781 21.8449C40.613 21.7643 40.5204 21.7106 40.4182 21.6942C40.2105 21.6314 39.9428 21.5843 39.7203 21.5142C39.4454 21.4613 39.2009 21.3061 39.0359 21.08C38.8709 20.8539 38.7978 20.5736 38.8314 20.2957C38.8053 19.9886 38.8994 19.6833 39.094 19.4443C39.2886 19.2053 39.5684 19.0512 39.8745 19.0145C40.4104 18.8672 40.9808 18.9086 41.4898 19.1317C41.6191 19.1723 41.7031 19.2997 41.6902 19.4363C41.6682 19.6726 41.6581 19.9098 41.6597 20.1471ZM8.25538 20.2874C7.35815 19.8268 6.72308 19.8508 6.29292 20.3502C6.12912 20.5751 6.03587 20.8437 6.02502 21.1218C6.01418 21.3999 6.08622 21.675 6.232 21.912C6.59938 22.4511 7.19015 22.5139 8.28585 22.092V22.9828C8.28585 23.0446 8.20185 23.1157 8.14 23.1545C7.73357 23.3476 7.28113 23.4229 6.83405 23.3718C6.38698 23.3208 5.96318 23.1454 5.61077 22.8655C5.28777 22.5397 5.06604 22.1273 4.97234 21.6781C4.87865 21.229 4.917 20.7623 5.08277 20.3345C5.22775 19.9272 5.49938 19.577 5.85786 19.3353C6.21634 19.0936 6.64281 18.9731 7.07477 18.9914C7.41631 19.0163 7.75415 19.0837 8.07908 19.1945C8.12688 19.224 8.16746 19.2639 8.19781 19.3112C8.22816 19.3585 8.24752 19.4119 8.25446 19.4677C8.27015 19.7409 8.25538 19.9985 8.25538 20.2874ZM13.2898 23.256V20.2099C13.2954 19.6191 13.7394 19.1299 14.3163 19.0772C14.7652 19.0349 15.217 19.0349 15.6658 19.0772C15.705 19.0834 15.7416 19.1005 15.7713 19.1267C15.8011 19.1528 15.8228 19.1869 15.8338 19.2249V20.0926C15.5892 20.0926 15.3742 20.0225 15.1517 20.0068C14.5849 20.0068 14.3394 20.2329 14.3246 20.7877V23.2708L13.2898 23.256Z"
    fill="#3B3B3A" />
  <path fill-rule="evenodd" clip-rule="evenodd"
    d="M26.5702 9.97852C26.469 10.027 26.3532 10.0351 26.2464 10.0011C26.1395 9.96717 26.0496 9.89372 25.9951 9.79575C25.9392 9.69732 25.9216 9.58169 25.9458 9.47109C25.97 9.3605 26.0342 9.26276 26.1262 9.19668L29.1908 7.40037L25.3138 5.08068C25.1996 5.00728 25.0666 4.96826 24.9308 4.96826C24.7949 4.96826 24.662 5.00728 24.5477 5.08068L20.6154 7.42344L25.36 10.2121V14.2182C25.36 14.4693 25.1606 14.6724 24.9151 14.6724C24.8561 14.6719 24.7978 14.6598 24.7435 14.6367C24.6892 14.6137 24.6399 14.5801 24.5986 14.538C24.5573 14.4959 24.5247 14.4461 24.5026 14.3914C24.4806 14.3367 24.4695 14.2781 24.4702 14.2191V10.7041L20.1871 8.18129V12.8133C20.1898 12.9433 20.2248 13.0706 20.289 13.1837C20.3531 13.2968 20.4443 13.3922 20.5545 13.4613L24.5468 15.781C24.6611 15.8544 24.794 15.8934 24.9298 15.8934C25.0657 15.8934 25.1986 15.8544 25.3129 15.781L29.3218 13.4382C29.4321 13.369 29.5234 13.2735 29.5876 13.1602C29.6517 13.0469 29.6866 12.9194 29.6892 12.7893V8.18129L26.5702 9.9776V9.97852Z"
    fill="#039ADD" />
</svg>
