<svg width="50" height="30" fill="none" xmlns="http://www.w3.org/2000/svg">
  <path
    d="M45.7692 0.692383H4.23076C2.70136 0.692383 1.46153 1.93221 1.46153 3.46161V26.5385C1.46153 28.0679 2.70136 29.3078 4.23076 29.3078H45.7692C47.2986 29.3078 48.5385 28.0679 48.5385 26.5385V3.46161C48.5385 1.93221 47.2986 0.692383 45.7692 0.692383Z"
    fill="white" stroke="#EAEAEA" />
  <path fill-rule="evenodd" clip-rule="evenodd"
    d="M26.9015 9.09231C26.7675 9.13902 26.6213 9.13684 26.4887 9.08617C26.3561 9.03549 26.2456 8.93959 26.1769 8.81539C26.1283 8.7032 26.1199 8.57768 26.153 8.45999C26.1861 8.34229 26.2588 8.23961 26.3588 8.16923L29.9809 6.04616L25.3618 3.27693C25.2281 3.18712 25.0706 3.13916 24.9095 3.13916C24.7484 3.13916 24.591 3.18712 24.4572 3.27693L19.8382 6.04616L25.4532 9.36923V14.0769C25.4532 14.3825 25.2095 14.6308 24.9086 14.6308C24.8366 14.63 24.7654 14.6151 24.6992 14.5869C24.633 14.5587 24.5729 14.5177 24.5225 14.4663C24.4721 14.4148 24.4323 14.354 24.4055 14.2872C24.3786 14.2204 24.3651 14.1489 24.3658 14.0769V9.92308L19.2954 6.96923V12.4154C19.2954 12.7292 19.4708 13.0154 19.7477 13.1538L24.4572 15.9231C24.7323 16.1077 25.0886 16.1077 25.3628 15.9231L30.0723 13.1538C30.3354 13.0006 30.5052 12.7228 30.5246 12.4154V6.96923L26.9015 9.09231Z"
    fill="#F09B29" />
  <path
    d="M41.6191 20.0299C42.6806 20.0299 43.6388 20.6825 44.0458 21.6822C44.2325 22.1417 44.29 22.6435 44.2119 23.1332C44.1338 23.623 43.9231 24.082 43.6028 24.4607L43.4754 24.6C43.2386 24.8637 42.943 25.0679 42.6127 25.1962C42.2824 25.3244 41.9265 25.3732 41.5738 25.3385C40.8985 25.3285 40.2517 25.0649 39.7618 24.6C39.3935 24.2219 39.1434 23.7446 39.0423 23.2265C38.9411 22.7084 38.9933 22.172 39.1923 21.6831C39.3861 21.1972 39.7207 20.7802 40.153 20.4856C40.5854 20.1911 41.0959 20.0324 41.6191 20.0299ZM12.9538 20.077C13.6231 20.101 14.2646 20.3622 14.7649 20.8154C15.2367 21.3327 15.4983 22.0076 15.4983 22.7077C15.4983 23.4079 15.2367 24.0828 14.7649 24.6C14.2251 25.0411 13.5594 25.2996 12.8634 25.3385C12.4076 25.3287 11.9627 25.198 11.574 24.9599C11.1852 24.7219 10.8666 24.3849 10.6508 23.9834C10.431 23.5782 10.3196 23.123 10.3276 22.6621C10.3355 22.2012 10.4624 21.7501 10.696 21.3526C10.9255 20.959 11.2555 20.6334 11.6523 20.4092C12.049 20.1851 12.4982 20.0704 12.9538 20.077ZM22.5538 19.9846C23.0626 19.964 23.5663 20.0923 24.0031 20.3539V21.5539C23.6144 21.2525 23.1361 21.09 22.6443 21.0923C22.192 21.0923 22.0101 21.3693 22.0101 21.5539C22.0101 21.7385 22.1911 21.9231 22.6443 22.0154C23.9126 22.2923 24.3649 22.7539 24.3649 23.677C24.3649 24.7847 23.5498 25.2462 22.4634 25.2462C21.8938 25.3119 21.3189 25.1816 20.8332 24.877L20.6523 23.5846C21.088 23.9419 21.6308 24.1385 22.1911 24.1385C22.6443 24.1385 22.9157 24.0462 22.9157 23.677C22.9157 23.3077 22.7348 23.2154 22.1911 23.1231C21.1046 22.9385 20.6523 22.6616 20.6523 21.5539C20.6523 20.4462 21.4674 19.9846 22.5538 19.9846ZM26.6292 19.9846C27.1379 19.964 27.6416 20.0923 28.0785 20.3539V21.5539C27.6898 21.2525 27.2115 21.09 26.7197 21.0923C26.2674 21.0923 26.0855 21.3693 26.0855 21.5539C26.0855 21.7385 26.2674 21.9231 26.7197 22.0154C27.988 22.2923 28.4403 22.7539 28.4403 23.677C28.4403 24.7847 27.6252 25.2462 26.5388 25.2462C25.9692 25.3119 25.3943 25.1816 24.9086 24.877L24.7277 23.5846C25.1643 23.9419 25.7061 24.1385 26.2674 24.1385C26.7197 24.1385 26.9911 24.0462 26.9911 23.677C26.9911 23.3077 26.8101 23.2154 26.2674 23.1231C25.18 22.9385 24.7277 22.6616 24.7277 21.5539C24.7277 20.4462 25.5428 19.9846 26.6292 19.9846ZM6.34368 21C6.72817 20.4484 7.31504 20.0709 7.97651 19.9499C8.63797 19.8289 9.32046 19.9741 9.87538 20.3539V20.4462H9.96584V21.6462C9.60418 21.3597 9.15962 21.1978 8.69845 21.1847H8.42614C8.08945 21.2568 7.78816 21.4434 7.57357 21.7126C7.35898 21.9819 7.24436 22.3173 7.24922 22.6616C7.27876 23.4499 7.92491 24.0674 8.69845 24.0462C9.15814 24.0333 9.60307 23.8717 9.96584 23.5846V24.877C9.52902 25.1385 9.02533 25.2669 8.51661 25.2462H8.15476C7.83196 25.2221 7.51722 25.1338 7.22903 24.9863C6.94085 24.8389 6.68503 24.6354 6.47661 24.3877C6.05046 23.8818 5.83997 23.2288 5.89045 22.5693C5.90089 22.0156 6.0578 21.4743 6.34368 21ZM17.3015 17.8616V23.3077C17.3001 23.4048 17.3179 23.5011 17.3539 23.5913C17.3898 23.6814 17.4433 23.7635 17.5111 23.833C17.6477 23.9714 17.8341 24.049 18.0261 24.0462V25.2462C16.7588 25.2462 15.9437 24.7847 15.9437 23.3077V17.8616H17.3015ZM19.9286 20.1693V25.2462H18.5698V20.1693H19.9286ZM30.3437 20.077V25.2462H28.9849L28.8945 20.077H30.3437ZM36.5015 19.9846C37.6794 19.9846 38.4031 20.4462 38.4031 21.9231V25.1539H37.0461V22.0154L37.1357 22.1077C37.1357 21.5539 36.9548 21.277 36.4111 21.277C36.2414 21.2359 36.065 21.2311 35.8934 21.2629C35.7217 21.2947 35.5587 21.3624 35.4151 21.4616C35.4806 21.6056 35.512 21.7643 35.5055 21.9231V25.1539H34.1477V22.0154C34.1477 21.4616 33.8763 21.1847 33.424 21.1847C33.149 21.1697 32.8735 21.2009 32.6089 21.277V25.1539H31.2492V20.4462C31.9396 20.161 32.6764 20.0046 33.4231 19.9846C33.9016 19.9761 34.3726 20.1042 34.7809 20.3539C35.3153 20.0911 35.9063 19.9643 36.5015 19.9846ZM13.0461 21.1847H12.8643C12.6911 21.1909 12.5209 21.2317 12.3636 21.3046C12.2064 21.3776 12.0653 21.4811 11.9486 21.6093C11.71 21.8708 11.5834 22.2155 11.596 22.5693V22.6616C11.5314 23.1231 11.7132 23.5847 12.0732 23.8727C12.4332 24.1607 12.9169 24.2317 13.3415 24.0573C13.5514 23.97 13.7347 23.8294 13.8734 23.6493C14.012 23.4692 14.1011 23.256 14.1317 23.0308V22.6616C14.1599 22.4916 14.1538 22.3178 14.1139 22.1502C14.074 21.9827 14.0009 21.8248 13.8991 21.6859C13.7986 21.5484 13.671 21.433 13.5241 21.3468C13.3772 21.2605 13.2143 21.2054 13.0452 21.1847H13.0461ZM41.7538 21.1847H41.5738C41.4006 21.1909 41.2304 21.2317 41.0732 21.3046C40.9159 21.3776 40.7748 21.4811 40.6581 21.6093C40.4196 21.8708 40.293 22.2155 40.3055 22.5693V22.6616C40.2409 23.1231 40.4228 23.5847 40.7828 23.8727C41.1428 24.1607 41.6264 24.2317 42.0511 24.0573C42.2609 23.97 42.4443 23.8294 42.5829 23.6493C42.7215 23.4692 42.8106 23.256 42.8412 23.0308V22.6616C42.8694 22.4916 42.8634 22.3178 42.8234 22.1502C42.7835 21.9827 42.7104 21.8248 42.6086 21.6859C42.5081 21.5484 42.3805 21.433 42.2336 21.3468C42.0868 21.2605 41.9229 21.2054 41.7538 21.1847ZM29.7095 18.1385C29.8757 18.1508 30.0317 18.2232 30.1484 18.3421C30.2651 18.461 30.3345 18.6183 30.3437 18.7846L30.3372 18.8723C30.318 19.0257 30.2438 19.1668 30.1283 19.2695C30.0129 19.3722 29.864 19.4295 29.7095 19.4308C29.6254 19.4301 29.5423 19.4128 29.4649 19.3799C29.3875 19.347 29.3174 19.2992 29.2585 19.2392C29.1996 19.1792 29.1531 19.1082 29.1217 19.0302C29.0903 18.9522 29.0745 18.8687 29.0754 18.7846C29.0754 18.4274 29.3597 18.1385 29.7095 18.1385ZM19.2945 18.1385C19.3787 18.136 19.4626 18.1511 19.5408 18.1827C19.619 18.2143 19.6897 18.2618 19.7486 18.3222C19.8686 18.444 19.9332 18.612 19.9286 18.7846L19.9212 18.8816C19.9055 18.9909 19.8619 19.0943 19.7946 19.1819C19.7274 19.2695 19.6387 19.3384 19.5372 19.3819C19.4213 19.4308 19.2932 19.4437 19.1698 19.4186C19.0465 19.3936 18.9335 19.3319 18.8458 19.2416C18.7569 19.1503 18.6965 19.035 18.6721 18.9099C18.6477 18.7848 18.6603 18.6553 18.7083 18.5373C18.7552 18.42 18.836 18.3194 18.9404 18.2483C19.0449 18.1773 19.1681 18.139 19.2945 18.1385Z"
    fill="#3C3C3B" />
</svg>
