<svg width="50" height="31" fill="none" xmlns="http://www.w3.org/2000/svg">
  <path
    d="M46.7939 1H3.20612C1.98771 1 1 1.99149 1 3.21456V28.0736C1 29.2966 1.98771 30.2881 3.20612 30.2881H46.7939C48.0123 30.2881 49 29.2966 49 28.0736V3.21456C49 1.99149 48.0123 1 46.7939 1Z"
    fill="white" stroke="#EAEAEA" />
  <path d="M48.1865 8.32202V18.7159H1.81357V8.32202H48.1865Z" fill="#FFCC00" />
  <path fill-rule="evenodd" clip-rule="evenodd"
    d="M9.96869 10.1672L8.48711 12.1882H16.5618C16.97 12.1882 16.9646 12.3439 16.7651 12.6153C16.667 12.7487 16.5368 12.9299 16.4053 13.113L16.4052 13.1131C16.2652 13.3081 16.1235 13.5053 16.0171 13.6496C15.9124 13.7916 15.723 14.0503 16.3505 14.0503H19.6525C19.6525 14.0503 20.1848 13.323 20.6308 12.7151C21.2378 11.8882 20.6835 10.1673 18.5137 10.1673L9.96869 10.1672ZM7.88763 16.7514L10.8635 12.6917H14.5563C14.9644 12.6917 14.9591 12.8474 14.7596 13.1188C14.6672 13.2444 14.5453 13.4112 14.4205 13.5821L14.4202 13.5825L14.42 13.5827C14.2712 13.7865 14.1182 13.9959 14.006 14.148C13.9012 14.29 13.712 14.5491 14.3393 14.5491H19.2866C18.8751 15.115 17.5405 16.7514 15.1441 16.7514H7.88763ZM23.3166 16.7513L24.9304 14.5485L20.674 14.549C20.6726 14.549 19.0597 16.7513 19.0597 16.7513H23.3166ZM31.4517 14.0503H21.0397L23.887 10.1672H28.1426L26.5106 12.3938H28.4101L30.0428 10.1672H34.2979L31.4517 14.0503ZM29.4717 16.7514L31.0862 14.5491H26.8307C26.8293 14.5491 25.2164 16.7514 25.2164 16.7514H29.4717ZM1.81357 15.4175H8.08475L7.74219 15.8854H1.81357V15.4175ZM8.72187 14.5491H1.81357V15.0163H8.37865L8.72187 14.5491ZM1.81357 16.2864H7.44797L7.10704 16.7514H1.81357V16.2864ZM41.9395 15.8854H48.1865V15.4176H42.2822L41.9395 15.8854ZM48.1865 16.7514L41.3043 16.752L41.6453 16.2864H48.1865V16.7514ZM48.1865 14.5491H42.9185L42.5761 15.017L48.1865 15.0166V14.5491ZM40.1916 10.1672L37.3447 14.0502H32.8354C32.8354 14.0502 35.6829 10.1672 35.6843 10.1672H40.1916ZM32.0084 15.1811C32.1595 14.9759 32.4705 14.5491 32.4705 14.5491H42.1394L40.5251 16.7514H33.6908C31.9464 16.7514 31.4739 15.9064 32.0084 15.1811Z"
    fill="#D2002E" />
  <path fill-rule="evenodd" clip-rule="evenodd"
    d="M1.81357 20.2676H48.1865V20.5003H1.81357V20.2676ZM1.81357 21.3537H48.1865V21.5864H1.81357V21.3537ZM48.1865 22.4396H1.81357V22.6723H48.1865V22.4396Z"
    fill="#FFCC00" />
  <path fill-rule="evenodd" clip-rule="evenodd"
    d="M30.83 20.3125C30.7018 20.2539 30.5256 20.2263 30.3615 20.2263C29.9118 20.2263 29.3949 20.4538 29.0809 20.881C28.7835 21.2855 28.9926 21.4277 29.1844 21.5583C29.3471 21.6689 29.4973 21.7712 29.316 22.0178C29.1084 22.3002 28.7418 22.4106 28.5385 22.4106C28.3564 22.4106 28.1929 22.3416 28.107 22.2933L27.8359 22.6137C27.9621 22.6654 28.098 22.7137 28.2729 22.7137C28.7725 22.7137 29.3324 22.5103 29.7096 21.997C30.0399 21.5477 29.8132 21.3875 29.617 21.2488C29.4672 21.143 29.3352 21.0497 29.4821 20.8499C29.6669 20.5984 29.9532 20.5294 30.153 20.5294C30.3387 20.5294 30.4157 20.5606 30.5471 20.6294L30.83 20.3125ZM23.9504 20.571H23.6471L23.0317 21.4081H23.3851C23.6064 21.4081 23.9633 21.3012 24.1962 20.9843C24.4191 20.6812 24.1718 20.571 23.9504 20.571ZM22.1025 22.6723H21.7456L23.5129 20.2677H24.1661C24.6764 20.2677 24.9745 20.44 24.5719 20.9877C24.1795 21.5217 23.6084 21.7112 23.1586 21.7112H22.8089L22.1025 22.6723ZM17.3853 22.6723H18.7809L19.0036 22.3692H17.965L18.5474 21.5768H19.4933L19.7161 21.2736H18.7702L19.2867 20.5709H20.3254L20.5482 20.2677H19.1526L17.3853 22.6723ZM19.098 22.6723H19.5263L20.9861 21.6526L20.9718 22.6723H21.4215L21.4249 21.415L23.1068 20.2677H22.6999L21.3611 21.191L21.3757 20.2677H20.9474L20.9344 21.4219L19.098 22.6723ZM23.8009 22.6723H24.1579L24.9428 21.6044H25.1569C25.3461 21.6044 25.4639 21.6044 25.4024 21.8386L25.1716 22.6723H25.5785L25.8112 21.7146C25.8417 21.5665 25.8261 21.5148 25.7458 21.4734L25.7509 21.4665C26.0755 21.4183 26.4522 21.2116 26.6675 20.9188C27.0903 20.3435 26.6713 20.2677 26.1787 20.2677H25.5684L23.8009 22.6723ZM25.7024 20.571H26.045C26.3734 20.571 26.4434 20.7088 26.2839 20.9257C26.1143 21.1566 25.8081 21.3012 25.469 21.3012H25.1656L25.7024 20.571ZM27.3436 22.6723H25.9481L27.7154 20.2677H29.111L28.8881 20.5709H27.8495L27.333 21.2736H28.2788L28.056 21.5768H27.1102L26.5278 22.3692H27.5664L27.3436 22.6723ZM32.1461 20.2263C32.3104 20.2263 32.4864 20.2539 32.6147 20.3125L32.3317 20.6294C32.2004 20.5606 32.1233 20.5294 31.9376 20.5294C31.7378 20.5294 31.4516 20.5984 31.2667 20.8499C31.1199 21.0497 31.2519 21.143 31.4017 21.2488C31.5979 21.3875 31.8246 21.5477 31.4943 21.997C31.117 22.5103 30.5572 22.7137 30.0575 22.7137C29.8827 22.7137 29.7468 22.6654 29.6206 22.6137L29.8917 22.2933C29.9775 22.3416 30.141 22.4106 30.3231 22.4106C30.5266 22.4106 30.8932 22.3002 31.1008 22.0178C31.282 21.7712 31.1317 21.6689 30.9691 21.5583C30.7773 21.4277 30.5682 21.2855 30.8656 20.881C31.1795 20.4538 31.6964 20.2263 32.1461 20.2263Z"
    fill="#D2002E" />
</svg>
