<svg width="48" height="30" fill="none" xmlns="http://www.w3.org/2000/svg">
  <path
    d="M45.2311 0.777832H2.97244C1.82173 0.777832 0.888885 1.71067 0.888885 2.86139V27.1387C0.888885 28.2894 1.82173 29.2223 2.97244 29.2223H45.2311C46.3818 29.2223 47.3147 28.2894 47.3147 27.1387V2.86139C47.3147 1.71067 46.3818 0.777832 45.2311 0.777832Z"
    fill="white" stroke="#EAEAEA" />
  <path
    d="M16.9396 14.4489C16.7421 14.3668 16.541 14.2938 16.3369 14.2302C15.9309 14.1014 15.5068 14.0384 15.0809 14.0436C14.9169 14.0428 14.754 14.0699 14.5991 14.1236C14.5048 14.1536 14.425 14.2176 14.3751 14.3031C14.3515 14.3439 14.3369 14.3893 14.3323 14.4361C14.3277 14.483 14.3331 14.5303 14.3483 14.575C14.3634 14.6196 14.3879 14.6604 14.4202 14.6948C14.4524 14.7292 14.4916 14.7562 14.5351 14.7742C14.7262 14.8631 14.9351 14.8773 15.1396 14.9058C15.5609 14.9644 15.9831 15.0169 16.3858 15.1609C16.9618 15.3662 17.2151 15.7031 17.248 16.312C17.2702 16.7058 17.2 17.0738 16.9182 17.3751C16.6942 17.6125 16.4062 17.7396 16.0951 17.8187C15.672 17.9271 15.2382 17.9467 14.8036 17.928C14.2365 17.8993 13.6749 17.8029 13.1307 17.6409C13.0951 17.6311 13.0693 17.6231 13.0702 17.5742C13.0729 17.2276 13.072 16.88 13.072 16.5325C13.072 16.5245 13.0756 16.5182 13.0773 16.504C13.2996 16.6107 13.5218 16.7013 13.7556 16.768C14.2356 16.9058 14.7253 16.9724 15.2267 16.9236C15.3716 16.9102 15.512 16.8782 15.6373 16.7991C15.7106 16.7556 15.7675 16.6892 15.7993 16.6102C15.8311 16.5312 15.836 16.4439 15.8133 16.3618C15.784 16.24 15.7031 16.1662 15.5893 16.1236C15.3822 16.0436 15.16 16.024 14.9422 15.9964C14.5653 15.9502 14.1929 15.8898 13.8347 15.7582C13.3049 15.5645 13.0409 15.1849 13.0089 14.6347C12.9881 14.3902 13.0224 14.1441 13.1093 13.9147C13.2578 13.5493 13.5449 13.3369 13.9093 13.2124C14.3716 13.0551 14.8516 13.0356 15.3316 13.056C15.8587 13.0791 16.3716 13.1778 16.88 13.3111C16.9093 13.32 16.9422 13.3182 16.9404 13.368V14.4489M33.8844 13.1689L33.6364 13.7982C33.1156 15.1156 32.5929 16.4338 32.0729 17.752C32.0516 17.8053 32.0258 17.8169 31.9733 17.8169C31.4756 17.8142 30.9769 17.8142 30.4782 17.8169C30.4293 17.8169 30.4036 17.808 30.3831 17.7564C29.7884 16.2453 29.1902 14.7342 28.5929 13.2222C28.5867 13.2071 28.5831 13.192 28.5769 13.1689H28.864C29.2391 13.1689 29.616 13.1707 29.9911 13.1671C30.0516 13.1671 30.0747 13.1867 30.0933 13.2409C30.4622 14.2649 30.8338 15.2871 31.2044 16.3093L31.2302 16.3769L31.4498 15.7689L32.3653 13.2329C32.3769 13.2027 32.3778 13.168 32.4302 13.168C32.912 13.1698 33.3938 13.1689 33.8844 13.1689ZM22.1467 14.5138C21.9149 14.3527 21.6559 14.235 21.3822 14.1662C21.089 14.0911 20.7821 14.0871 20.4871 14.1547C20.0818 14.2542 19.8027 14.4978 19.6649 14.8907C19.528 15.2871 19.5271 15.6907 19.6649 16.0862C19.8249 16.5467 20.1671 16.7947 20.6427 16.8551C21.1625 16.9282 21.6905 16.797 22.1156 16.4889C22.1218 16.4844 22.1289 16.4818 22.1458 16.4729V17.6213C22.1458 17.6569 22.1502 17.6871 22.1031 17.7031C21.3067 17.9582 20.5004 18.0196 19.688 17.7982C19.0898 17.6356 18.616 17.2987 18.3093 16.7493C18.1156 16.4009 18.0364 16.0213 18.0213 15.6285C18.0044 15.1698 18.0604 14.7236 18.2693 14.3084C18.5556 13.7378 19.0258 13.384 19.6276 13.1991C20.1342 13.0436 20.6524 13.0213 21.1769 13.0773C21.488 13.1093 21.792 13.1778 22.0889 13.2764C22.1218 13.2871 22.1476 13.2916 22.1467 13.3369C22.1449 13.7244 22.1467 14.112 22.1467 14.5138ZM41.9858 13.9271C42.0981 13.7481 42.2344 13.5854 42.3911 13.4436C42.6916 13.1804 43.0507 13.0702 43.4427 13.0524C43.6027 13.0436 43.76 13.0569 43.9173 13.0773C43.9591 13.0827 43.9707 13.0951 43.9707 13.1369C43.9689 13.5644 43.9707 13.9929 43.9707 14.4293C43.8136 14.359 43.6486 14.3082 43.4791 14.2782C43.2658 14.2389 43.0467 14.244 42.8355 14.2933C42.3733 14.4133 42.1378 14.7378 42.0356 15.1778C42.0007 15.3342 41.984 15.494 41.9858 15.6542C41.9858 16.3476 41.9849 17.0409 41.9876 17.7342C41.9876 17.8053 41.968 17.8169 41.9022 17.816C41.4569 17.8133 41.0107 17.8133 40.5644 17.816C40.5022 17.816 40.4907 17.8 40.4907 17.7404C40.4924 16.24 40.4924 14.7396 40.4907 13.2382C40.4907 13.1787 40.5022 13.1618 40.5644 13.1618C41.0124 13.1653 41.4622 13.1653 41.9102 13.1618C41.9689 13.1618 41.9884 13.1724 41.9876 13.2356C41.9831 13.4578 41.9858 13.68 41.9858 13.9262M11.8827 15.4996C11.8827 16.2444 11.8827 16.9885 11.8844 17.7333C11.8844 17.8009 11.8693 17.8169 11.8018 17.8169C11.3627 17.8132 10.9235 17.8132 10.4844 17.8169C10.424 17.8169 10.4098 17.8018 10.4098 17.7413C10.4116 16.2418 10.4116 14.7422 10.4098 13.2418C10.4098 13.1813 10.424 13.1662 10.4844 13.1671C10.9262 13.1698 11.368 13.1707 11.8107 13.1671C11.8702 13.1671 11.8844 13.1822 11.8844 13.2418C11.8818 13.9947 11.8827 14.7476 11.8827 15.4996Z"
    fill="black" />
  <path
    d="M28.6355 15.5226C28.6329 17.119 27.3484 18.4114 25.768 18.4052C25.0068 18.4 24.2788 18.093 23.7438 17.5515C23.2089 17.0101 22.9106 16.2784 22.9147 15.5172C22.9164 13.9199 24.1982 12.6328 25.7813 12.6372C26.1582 12.639 26.5311 12.715 26.8786 12.861C27.2261 13.007 27.5413 13.2202 27.8064 13.4881C28.0714 13.7561 28.281 14.0738 28.4231 14.4229C28.5652 14.772 28.638 15.1456 28.6355 15.5226Z"
    fill="#FE8533" />
  <path
    d="M11.1191 11.3465C11.3467 11.3465 11.5751 11.3483 11.8036 11.3447C11.8569 11.3447 11.8702 11.3581 11.8702 11.4123C11.8678 11.7746 11.8678 12.137 11.8702 12.4994C11.8702 12.5527 11.8569 12.5669 11.8027 12.5669C11.3467 12.5643 10.8907 12.5643 10.4347 12.5669C10.3813 12.5669 10.3671 12.5527 10.3671 12.4994C10.3704 12.137 10.3704 11.7746 10.3671 11.4123C10.3671 11.3589 10.3813 11.3447 10.4347 11.3447C10.6631 11.3483 10.8907 11.3456 11.1191 11.3456M7.45511 15.4274C7.26667 16.0185 6.84622 16.3607 6.25511 16.5109C6.03733 16.5661 5.81511 16.5909 5.59022 16.5918C5.39733 16.5945 5.20355 16.5918 5.00978 16.5954C4.952 16.5954 4.93778 16.5812 4.93778 16.5243C4.94044 15.9127 4.93955 15.3003 4.93955 14.6887L4.93867 12.8692C4.93867 12.8096 4.94667 12.7856 5.016 12.7874C5.34222 12.7963 5.67111 12.7741 5.99644 12.8221C6.46933 12.8905 6.88978 13.0594 7.19555 13.4461C7.39467 13.6976 7.49422 13.9909 7.53511 14.3065C7.58489 14.6852 7.57244 15.0621 7.45511 15.4265M9.16089 14.0247C8.95378 12.7607 7.98311 11.9136 6.83911 11.7101C6.28889 11.6123 5.73333 11.5865 5.17689 11.5821C4.59022 11.5794 4.00267 11.5821 3.41511 11.5803C3.34578 11.5803 3.33244 11.5972 3.33244 11.6638C3.33511 12.6709 3.33422 13.6772 3.33422 14.6834L3.33333 17.7287C3.33333 17.7803 3.336 17.8043 3.4 17.8034C4.05244 17.8007 4.70489 17.8061 5.35822 17.7989C5.88178 17.7927 6.40622 17.7678 6.91911 17.6532C7.89422 17.4363 8.608 16.8887 8.99111 15.9589C9.24711 15.3367 9.26933 14.6825 9.16089 14.0247ZM37.7947 14.9954C37.1653 14.9927 36.5351 14.9918 35.9049 14.9909L35.896 14.9865C35.9476 14.6665 36.0684 14.3847 36.3573 14.2025C36.6791 13.9998 37.2951 13.9563 37.6178 14.3465C37.7627 14.5216 37.824 14.7234 37.8347 14.9447C37.8356 14.9741 37.8373 14.9954 37.7947 14.9954ZM39.3191 14.9172C39.1413 14.0354 38.6382 13.4318 37.7636 13.1749C37.1167 12.9862 36.4258 13.0142 35.7964 13.2549C35.1547 13.4896 34.7156 13.9367 34.4987 14.5847C34.3307 15.0852 34.3209 15.5981 34.4187 16.1154C34.5013 16.5483 34.6871 16.9287 35.0053 17.2407C35.4524 17.6781 36.008 17.8612 36.6151 17.9154C37.4658 17.9909 38.2853 17.8443 39.0836 17.5509C39.1316 17.5332 39.1422 17.5101 39.1413 17.4629C39.1396 17.1278 39.1413 16.7918 39.1413 16.4558V16.3963C39.0107 16.4585 38.8907 16.5181 38.768 16.5741C38.1733 16.8354 37.5591 16.9874 36.9013 16.9296C36.3129 16.8763 35.9289 16.4967 35.8791 15.9047H39.1076C39.1787 15.9047 39.2489 15.9021 39.3191 15.9047C39.3582 15.9065 39.3698 15.8949 39.3698 15.8558C39.368 15.5421 39.3813 15.2265 39.3191 14.9172Z"
    fill="black" />
  <path
    d="M25.9529 18.2872C24.2604 18.2721 23.024 17.0552 23.032 15.5112C23.0409 13.9699 24.232 12.8997 25.5102 12.7708C25.8632 12.73 26.2208 12.7592 26.5624 12.8569C26.9041 12.9545 27.2232 13.1186 27.5013 13.3397C28.1555 13.8508 28.5235 14.5308 28.5707 15.3557C28.5982 15.7276 28.5476 16.1012 28.422 16.4524C28.2965 16.8036 28.0988 17.1246 27.8418 17.3948C27.2924 17.9815 26.6027 18.2739 25.9529 18.2872Z"
    fill="#FD883A" />
  <path
    d="M27.9867 13.9192C28.0898 14.0152 28.1502 14.1405 28.2142 14.2623C28.3458 14.5147 28.4391 14.7823 28.4809 15.0667C28.5013 15.2054 28.5111 15.3441 28.5164 15.4863C28.528 15.833 28.448 16.1601 28.3298 16.4792C28.2213 16.777 28.0453 17.0356 27.8356 17.2756C27.6631 17.4712 27.4622 17.6303 27.2462 17.7716C27.0428 17.8983 26.8225 17.9959 26.592 18.0614C26.366 18.1303 26.1314 18.1668 25.8951 18.1699C25.5035 18.1795 25.1145 18.1032 24.7556 17.9462C24.3967 17.7893 24.0766 17.5555 23.8178 17.2614C23.5634 16.978 23.3746 16.6421 23.2649 16.2774C23.0825 15.6741 23.1171 15.0259 23.3627 14.4454C23.5076 14.1112 23.7093 13.8125 23.9769 13.5636C24.3564 13.2081 24.8009 12.977 25.3129 12.873C25.4853 12.8383 25.6613 12.8081 25.8329 12.8143C26.2046 12.8229 26.5711 12.9026 26.9129 13.049C27.1262 13.1423 27.3173 13.2667 27.504 13.4027C27.5324 13.4232 27.5582 13.4472 27.5769 13.4783C27.5729 13.4825 27.568 13.4858 27.5627 13.4881C27.5573 13.4904 27.5516 13.4916 27.5458 13.4916C27.5169 13.4864 27.4901 13.4732 27.4684 13.4534C27.4462 13.4312 27.424 13.4081 27.3956 13.393C27.3093 13.345 27.2311 13.2827 27.1458 13.2321C27.1164 13.2107 27.0836 13.1965 27.0507 13.1814C27.0293 13.169 27.0062 13.1583 26.9849 13.1476C26.9574 13.1332 26.9296 13.1196 26.9013 13.1067L26.8827 13.0978C26.8533 13.0845 26.8222 13.0774 26.7929 13.0676L26.7716 13.0587C26.6999 13.0221 26.6227 12.9975 26.5431 12.9858C26.5191 12.9796 26.4951 12.9761 26.472 12.9698C26.3831 12.9405 26.2924 12.9272 26.2018 12.9076C26.1689 12.8952 26.1351 12.8978 26.1013 12.897C26.0798 12.8973 26.0584 12.8952 26.0373 12.8907C26.0044 12.8792 25.9689 12.8818 25.936 12.8738C25.8781 12.86 25.8178 12.86 25.76 12.8738C25.7262 12.8827 25.6916 12.8792 25.6578 12.8907C25.637 12.8952 25.6159 12.8973 25.5947 12.897C25.56 12.897 25.5262 12.8952 25.4933 12.9058C25.2251 12.9443 24.9647 13.025 24.7218 13.145C24.7033 13.1541 24.6843 13.1621 24.6649 13.169C24.4624 13.2669 24.2745 13.3926 24.1067 13.5423C24.0818 13.5636 24.0622 13.5903 24.032 13.6045C24.0164 13.6089 24.0022 13.6171 23.9907 13.6284C23.9792 13.6398 23.9708 13.6539 23.9662 13.6694C23.8329 13.8267 23.6996 13.9814 23.5956 14.161L23.5556 14.2321C23.5213 14.2803 23.4944 14.3333 23.4756 14.3894L23.4418 14.4587C23.4284 14.4839 23.4177 14.5104 23.4098 14.5378L23.392 14.5885C23.3712 14.6301 23.3562 14.6744 23.3476 14.7201L23.3413 14.7423C23.3273 14.7778 23.3175 14.8148 23.312 14.8525L23.3049 14.8765C23.196 15.3349 23.2138 15.8142 23.3564 16.2632C23.3653 16.2836 23.3689 16.3041 23.3751 16.3227C23.3859 16.3656 23.4008 16.4072 23.4196 16.4472L23.4276 16.4667C23.4364 16.5041 23.4542 16.5379 23.4729 16.5734C23.4797 16.5851 23.4857 16.5973 23.4907 16.6099C23.4996 16.6427 23.5164 16.6739 23.5369 16.7023L23.5573 16.7396C23.5822 16.7947 23.6142 16.8463 23.6524 16.8934C23.6756 16.9254 23.6969 16.9583 23.7173 16.9912C23.729 17.013 23.7434 17.0333 23.76 17.0516C23.7644 17.0561 23.768 17.0623 23.7716 17.0676C23.7858 17.0916 23.8062 17.1121 23.8249 17.1325L23.8382 17.1503C23.8676 17.1956 23.9093 17.2294 23.9467 17.2676C23.984 17.3067 24.0231 17.3441 24.0613 17.3814C24.1004 17.4196 24.1342 17.4614 24.1796 17.4899L24.1973 17.5032C24.2318 17.5362 24.2703 17.5645 24.312 17.5876L24.3298 17.601C24.3849 17.6454 24.4436 17.6854 24.5076 17.7183L24.528 17.7299C24.6702 17.8116 24.8142 17.8845 24.9724 17.9316L24.9964 17.9405C25.457 18.1043 25.9555 18.1293 26.4302 18.0125C26.5396 17.9743 26.6524 17.9459 26.7618 17.9112C26.7937 17.9081 26.8248 17.8991 26.8533 17.8845C27.4438 17.6388 27.9237 17.1849 28.2018 16.609C28.2109 16.5895 28.2219 16.5711 28.2347 16.5539C28.2551 16.5343 28.2613 16.5085 28.264 16.481C28.3067 16.3521 28.3476 16.2232 28.392 16.0952C28.4116 16.0694 28.4053 16.0401 28.4071 16.0116C28.4231 15.897 28.4382 15.7823 28.4604 15.6685C28.4764 15.6195 28.4773 15.5669 28.4631 15.5174C28.4582 15.4961 28.4582 15.4739 28.4631 15.4525C28.4765 15.4048 28.4765 15.3544 28.4631 15.3067C28.4311 15.1272 28.408 14.945 28.3573 14.7681C28.2752 14.4901 28.1489 14.2272 27.9831 13.9894C27.9796 13.9805 27.976 13.9734 27.9742 13.9654C27.9716 13.9476 27.9724 13.9316 27.9858 13.9183"
    fill="#FD8B3F" />
  <path
    d="M27.9867 13.8854V13.9325C27.9218 13.921 27.9102 13.8552 27.8738 13.8161C27.8577 13.7863 27.8367 13.7596 27.8115 13.737C27.7849 13.7068 27.7538 13.681 27.7315 13.6472C27.7209 13.6275 27.7052 13.611 27.6862 13.5992C27.6524 13.5761 27.6267 13.5459 27.5982 13.5165C27.5858 13.5005 27.5653 13.4881 27.576 13.4614H27.6071C27.7618 13.5752 27.8844 13.7219 27.9867 13.8854Z"
    fill="#FD8C40" />
  <path
    d="M27.5556 13.4847L27.6533 13.5665C27.6647 13.587 27.6816 13.604 27.7022 13.6153L27.784 13.7131C27.8027 13.7442 27.832 13.7665 27.8507 13.7949L27.9644 13.9265C28.0018 14.002 28.0533 14.0696 28.0951 14.1416C28.2711 14.4402 28.3742 14.7638 28.4249 15.1051C28.4338 15.1665 28.4338 15.2287 28.4542 15.2882C28.4588 15.3221 28.4597 15.3564 28.4569 15.3905C28.4489 15.4054 28.4444 15.422 28.4438 15.4389C28.4432 15.4559 28.4464 15.4727 28.4533 15.4882C28.4622 15.522 28.4578 15.5567 28.4569 15.5913C28.4213 15.6998 28.4178 15.8145 28.3982 15.9256C28.3716 16.0856 28.3244 16.2367 28.2649 16.386C28.0511 16.9439 27.6497 17.41 27.1298 17.7042C26.816 17.8873 26.4747 17.9887 26.1173 18.0331C25.6667 18.0891 25.2284 18.0198 24.8107 17.8411C24.1013 17.5371 23.6196 17.0189 23.3573 16.2971C23.2367 15.9657 23.1882 15.6123 23.2151 15.2607C23.25 14.715 23.4587 14.1947 23.8107 13.7762C24.0267 13.5167 24.2853 13.3113 24.5778 13.1469C24.5975 13.1371 24.6155 13.1242 24.6311 13.1087L24.68 13.0927C24.9084 12.9949 25.1387 12.9096 25.3849 12.8705C25.5084 12.8509 25.6338 12.8491 25.7547 12.8198C25.7631 12.8172 25.7717 12.8154 25.7804 12.8145H25.872C25.8809 12.8145 25.8889 12.8162 25.8969 12.8198C25.9618 12.8287 26.0267 12.8491 26.0924 12.842C26.1013 12.8403 26.1105 12.8409 26.1191 12.8438C26.2311 12.866 26.344 12.8829 26.4542 12.9122C26.4764 12.9149 26.5031 12.9042 26.5191 12.9282C26.6036 12.9505 26.6862 12.9762 26.7662 13.01C26.7964 13.0305 26.8329 13.0313 26.864 13.0429H26.8809C26.8987 13.0758 26.9351 13.0776 26.9627 13.0918C26.9893 13.0953 27.0116 13.1033 27.0293 13.1247C27.0587 13.1487 27.0942 13.1602 27.1271 13.1745L27.3902 13.3371C27.4062 13.3643 27.4288 13.3869 27.456 13.4029L27.472 13.4189C27.5022 13.4385 27.5253 13.4678 27.5556 13.4847Z"
    fill="#FC8E45" />
  <path
    d="M24.7013 13.167C24.6836 13.2417 24.608 13.2461 24.5591 13.2755C24.2169 13.4795 23.9271 13.7608 23.7129 14.0968C23.4987 14.4328 23.3659 14.8142 23.3253 15.2106C23.272 15.735 23.3627 16.2275 23.6098 16.6923C23.8084 17.066 24.0955 17.3853 24.446 17.6224C24.7965 17.8594 25.1997 18.0071 25.6204 18.0523C26.1304 18.111 26.6461 18.0127 27.0987 17.7706C27.6586 17.4814 28.0915 16.9949 28.3138 16.4052C28.4027 16.1777 28.4436 15.9377 28.4782 15.6977C28.48 15.6799 28.4889 15.6621 28.4942 15.6443C28.5236 15.6417 28.5209 15.6577 28.5102 15.6763L28.4613 16.0346C28.4409 16.0586 28.464 16.0915 28.4444 16.1155L28.3138 16.5075C28.3013 16.5279 28.2987 16.5537 28.2818 16.5723C28.1268 16.9105 27.9034 17.2128 27.6258 17.4603C27.4206 17.6407 27.1892 17.7887 26.9396 17.8995C26.9244 17.9057 26.9067 17.9057 26.8916 17.9083C26.8649 17.9217 26.8347 17.9261 26.8098 17.9403L26.4827 18.0381C26.2785 18.0884 26.0689 18.1126 25.8587 18.1101C25.5698 18.1062 25.2836 18.0545 25.0116 17.9572C24.8536 17.8989 24.7005 17.8282 24.5538 17.7457C24.488 17.7039 24.4204 17.6612 24.3582 17.615C24.3138 17.583 24.2693 17.5519 24.2276 17.5172C24.1787 17.4852 24.1458 17.4337 24.0969 17.4035C24.052 17.3726 24.0129 17.3341 23.9813 17.2897C23.9511 17.2399 23.8987 17.2079 23.8676 17.159C23.8498 17.1288 23.8204 17.1075 23.8018 17.0781C23.7876 17.0532 23.768 17.0346 23.7529 17.0123C23.7255 16.984 23.7035 16.9508 23.688 16.9146C23.6524 16.8612 23.6231 16.8061 23.5902 16.7519C23.576 16.7439 23.5724 16.7323 23.5724 16.7199C23.5502 16.6897 23.5396 16.6541 23.5244 16.6212C23.5102 16.6141 23.5076 16.6017 23.5076 16.5883L23.4587 16.4746C23.4391 16.4328 23.432 16.3857 23.4098 16.3448C23.3902 16.3323 23.3938 16.3128 23.3938 16.295C23.2431 15.8315 23.2259 15.335 23.344 14.8621C23.3591 14.8248 23.3627 14.7848 23.3769 14.7483C23.392 14.6986 23.4044 14.6479 23.4258 14.6008C23.4258 14.583 23.4231 14.5635 23.4418 14.5519C23.4578 14.5261 23.4613 14.4968 23.4747 14.471C23.4755 14.4585 23.4789 14.4464 23.4845 14.4352C23.4902 14.4241 23.498 14.4142 23.5076 14.4061C23.5316 14.3492 23.5556 14.2932 23.5884 14.2426C23.6489 14.0915 23.7529 13.9706 23.8507 13.8443C23.8969 13.7848 23.9484 13.7297 23.9973 13.6719C24.0146 13.646 24.037 13.6239 24.0631 13.607C24.2267 13.455 24.4062 13.3261 24.5973 13.2132C24.6302 13.1937 24.6622 13.1732 24.7013 13.167ZM28.4409 15.2843C28.4 15.1955 28.4124 15.0968 28.3964 15.0035C28.3612 14.8055 28.3061 14.6117 28.232 14.4248C28.1716 14.2757 28.0968 14.1328 28.0089 13.9981C27.9956 13.9777 27.984 13.9581 27.9867 13.9323C28.1547 14.1599 28.2658 14.415 28.3476 14.6861C28.4044 14.8763 28.4347 15.071 28.456 15.2683C28.4622 15.2852 28.4542 15.2888 28.4409 15.2843ZM25.8036 12.8248C25.7031 12.8657 25.5964 12.8595 25.4924 12.8755C25.2637 12.9105 25.0418 12.981 24.8347 13.0843C24.807 13.1008 24.7753 13.1091 24.7431 13.1083C24.8924 12.9972 25.064 12.9492 25.2347 12.8986C25.3253 12.871 25.4187 12.8452 25.5147 12.8426C25.544 12.8203 25.5813 12.8479 25.6107 12.8248H25.6764C25.7176 12.8104 25.7624 12.8104 25.8036 12.8248Z"
    fill="#FD8C41" />
  <path
    d="M24.9778 17.9335C25.1262 17.9691 25.2693 18.0251 25.4204 18.0491C25.6764 18.09 25.9307 18.1077 26.1876 18.0615C26.2756 18.0464 26.3644 18.0348 26.4533 18.0224C26.3556 18.074 26.2489 18.0766 26.1467 18.0908C25.7822 18.1424 25.424 18.0908 25.0711 17.9824C25.0391 17.9726 25.0018 17.9682 24.9778 17.9344M23.2836 14.874C23.2782 15.0011 23.2444 15.1237 23.2347 15.2508C23.2249 15.4126 23.2267 15.5726 23.2347 15.7344C23.2453 15.9237 23.2969 16.1024 23.3271 16.2864C23.2649 16.1442 23.2498 15.9877 23.2276 15.834C23.2075 15.6649 23.2034 15.4944 23.2151 15.3246C23.2213 15.1726 23.2329 15.0188 23.2836 14.874ZM24.5067 17.698L24.9778 17.9344C24.8059 17.8888 24.6461 17.8083 24.5067 17.698ZM26.5129 12.9566C26.3923 12.9452 26.2734 12.9204 26.1582 12.8828C26.1683 12.8764 26.18 12.873 26.192 12.873C26.204 12.873 26.2157 12.8764 26.2258 12.8828C26.3236 12.8935 26.4222 12.9095 26.5129 12.9566ZM26.8062 13.05C26.7209 13.0258 26.641 12.9857 26.5707 12.9317C26.616 12.9337 26.6605 12.9452 26.7011 12.9656C26.7417 12.986 26.7775 13.0147 26.8062 13.05ZM24.3298 17.5815C24.4187 17.61 24.4969 17.6491 24.5662 17.6988C24.4793 17.6787 24.3984 17.6385 24.3298 17.5815Z"
    fill="#FD8C41" />
  <path
    d="M25.8907 12.8971H25.7929C25.7813 12.8607 25.7582 12.8953 25.7449 12.8598C25.8036 12.7993 25.8631 12.7993 25.9227 12.8598C25.9147 12.8891 25.8978 12.8713 25.8898 12.8971M28.496 15.6393C28.496 15.6233 28.4889 15.61 28.4587 15.602V15.4687C28.4702 15.4607 28.4827 15.4607 28.496 15.4687C28.5564 15.5265 28.5564 15.5825 28.496 15.6393ZM28.4587 15.2989L28.496 15.2865C28.5564 15.3256 28.5564 15.3647 28.496 15.4038C28.4729 15.4038 28.4693 15.3958 28.4587 15.3913V15.2989Z"
    fill="#FD8C40" />
  <path
    d="M23.5627 16.6976C23.6177 16.7449 23.6586 16.8064 23.6809 16.8754C23.6231 16.8307 23.5816 16.7682 23.5627 16.6976ZM26.1582 12.8736C26.0764 12.9261 25.9991 12.879 25.9218 12.8354C25.9419 12.8211 25.966 12.8135 25.9907 12.8135C26.0153 12.8135 26.0394 12.8211 26.0595 12.8354H26.1395C26.144 12.8505 26.1573 12.8514 26.1582 12.8736ZM23.5627 14.2265C23.5371 14.2934 23.497 14.3539 23.4453 14.4034C23.4511 14.3671 23.4645 14.3325 23.4848 14.3018C23.505 14.2712 23.5316 14.2452 23.5627 14.2256M24.0347 17.3456C24.0907 17.3634 24.1182 17.4176 24.1529 17.463C24.0969 17.4452 24.0693 17.3919 24.0347 17.3456ZM23.8569 17.1101C23.904 17.1448 23.9582 17.1723 23.9751 17.2283C23.9307 17.1928 23.8747 17.1661 23.8569 17.1101ZM24.2115 17.463C24.2619 17.4896 24.3031 17.5308 24.3298 17.5812C24.277 17.5579 24.2348 17.5158 24.2115 17.463ZM23.4098 14.5794C23.3985 14.628 23.3689 14.6704 23.3271 14.6976C23.3271 14.6532 23.3467 14.6132 23.4098 14.5794ZM23.3858 16.3448C23.4083 16.356 23.4277 16.3727 23.4421 16.3934C23.4566 16.414 23.4656 16.4379 23.4684 16.463C23.446 16.4515 23.4268 16.4348 23.4124 16.4142C23.398 16.3935 23.3888 16.3697 23.3858 16.3448ZM23.4453 16.463C23.496 16.4959 23.528 16.5341 23.528 16.5803C23.4782 16.5474 23.4453 16.5092 23.4453 16.463ZM25.7653 12.8656C25.7795 12.8692 25.7947 12.8523 25.8035 12.9448H25.6862C25.7093 12.8025 25.7404 12.8914 25.7653 12.8656Z"
    fill="#FD8C41" />
  <path
    d="M23.7991 17.0515C23.8382 17.0808 23.8773 17.1092 23.8818 17.1688C23.8436 17.1395 23.8036 17.111 23.7991 17.0515ZM27.5742 13.5448C27.5138 13.5395 27.4853 13.5003 27.456 13.4612L27.5271 13.4817L27.5742 13.5448ZM28.4844 15.4035L28.5298 15.4275V15.5208H28.4844C28.4338 15.4817 28.4338 15.4426 28.4844 15.4035ZM23.504 16.5803C23.545 16.6084 23.5744 16.6504 23.5867 16.6986C23.5227 16.6719 23.5049 16.6292 23.504 16.5803ZM23.3973 14.6977C23.4 14.7395 23.3849 14.7803 23.3156 14.815C23.3129 14.7723 23.328 14.7315 23.3973 14.6977ZM27.1609 13.2506C27.112 13.2497 27.0684 13.2319 27.0427 13.167C27.0871 13.1786 27.1271 13.2035 27.1609 13.2506ZM26.0409 12.9439H25.9218C25.9289 12.8817 25.9396 12.8675 25.9511 12.8657C25.9813 12.8923 26.0133 12.8026 26.04 12.9448"
    fill="#FD8C41" />
  <path
    d="M24.0587 13.5796C24.0391 13.6144 24.0102 13.6431 23.9751 13.6623C23.9822 13.6134 24.0098 13.5849 24.0587 13.5796Z"
    fill="#FD8C40" />
  <path
    d="M26.9244 13.1199C26.88 13.1234 26.8373 13.1181 26.8062 13.0381C26.8498 13.0416 26.8907 13.0603 26.9244 13.1199Z"
    fill="#FD8C41" />
  <path
    d="M26.984 13.1324C26.9324 13.1279 26.8791 13.127 26.8658 13.0497C26.9049 13.0764 26.9529 13.0879 26.984 13.1324ZM27.4791 13.4257C27.4302 13.4212 27.4027 13.3928 27.3964 13.3439C27.4312 13.3632 27.4598 13.391 27.4791 13.4257ZM23.4578 14.4035C23.4596 14.4488 23.44 14.4906 23.3742 14.5208C23.3716 14.4746 23.392 14.4337 23.4578 14.4035ZM26.7476 17.9466C26.7778 17.8808 26.8196 17.8612 26.8658 17.8639C26.8347 17.9288 26.7947 17.9492 26.7476 17.9466ZM25.6276 12.8657C25.5929 12.999 25.5476 12.9164 25.5093 12.9395C25.5431 12.8061 25.5884 12.8906 25.6276 12.8657ZM26.1182 12.9439L26.0987 12.8657C26.1387 12.8924 26.1831 12.8026 26.2169 12.9448H26.1191L26.1182 12.9439ZM23.7404 16.9928C23.7849 17.0106 23.8213 17.0337 23.8231 17.0755C23.7787 17.0577 23.7413 17.0346 23.7404 16.9928Z"
    fill="#FD8C41" />
  <path
    d="M28.2702 16.5975C28.2773 16.562 28.3013 16.53 28.3591 16.5069C28.3635 16.546 28.352 16.5806 28.2702 16.5975ZM28.4018 16.1211C28.4222 16.0766 28.3449 16.0277 28.4871 15.9922C28.4658 16.0366 28.544 16.0846 28.4018 16.1211Z"
    fill="#FD8C40" />
  <path
    d="M27.9111 13.8356C27.8693 13.8045 27.8267 13.7734 27.8204 13.7085C27.8631 13.7405 27.9058 13.7707 27.9111 13.8365M27.7831 13.6703C27.7253 13.6676 27.6942 13.6374 27.6916 13.5796C27.7324 13.5991 27.7627 13.6294 27.7822 13.6703"
    fill="#FD8C41" />
  <path
    d="M28.3991 15.455C28.4222 16.8399 27.2702 18.0105 25.832 17.9928C25.4938 17.991 25.1594 17.9215 24.8486 17.7883C24.5377 17.6552 24.2567 17.4611 24.0221 17.2175C23.7875 16.974 23.604 16.6859 23.4826 16.3703C23.3612 16.0546 23.3042 15.7179 23.3151 15.3799C23.3259 15.0419 23.4044 14.7095 23.5459 14.4023C23.6873 14.0951 23.8889 13.8194 24.1387 13.5914C24.3884 13.3635 24.6814 13.1878 25.0001 13.0749C25.3189 12.962 25.6571 12.9141 25.9947 12.9341C27.2702 12.9857 28.4107 14.0523 28.3991 15.455Z"
    fill="#FC914A" />
  <path
    d="M28.0027 14.2001C28.0036 14.2135 28.0062 14.2259 28.0196 14.233C28.0667 14.3184 28.1102 14.4046 28.1493 14.4926C28.2916 14.8366 28.3538 15.1948 28.3369 15.5664C28.3369 15.5832 28.3413 15.5992 28.3298 15.6135V15.6304C28.3111 15.9584 28.2196 16.2668 28.0702 16.5575C27.9277 16.838 27.731 17.0876 27.4916 17.2917C27.2089 17.5317 26.8933 17.7095 26.5307 17.7957C26.424 17.8019 26.3218 17.833 26.2178 17.849C25.8978 17.9006 25.5849 17.8739 25.2756 17.7912C24.8471 17.6812 24.4572 17.4555 24.1484 17.1388C23.7573 16.7388 23.5262 16.2597 23.4613 15.7024C23.4133 15.2935 23.4702 14.8997 23.6267 14.5201C23.6409 14.4878 23.652 14.4542 23.6596 14.4197C23.6716 14.369 23.6936 14.3213 23.7244 14.2792C23.7494 14.2588 23.7689 14.2326 23.7813 14.2028L23.7929 14.185C23.8329 14.1228 23.8791 14.0668 23.9093 14.0001C23.9227 13.9744 23.9342 13.9468 23.9582 13.929C23.9828 13.9159 24.0015 13.894 24.0107 13.8677C24.0192 13.8517 24.0314 13.838 24.0462 13.8277C24.0865 13.8014 24.1188 13.7645 24.1396 13.721C24.1515 13.6975 24.1713 13.679 24.1956 13.6686C24.2316 13.6512 24.2622 13.6245 24.2844 13.5912C24.2942 13.5759 24.3081 13.5636 24.3244 13.5557C24.3465 13.5469 24.3665 13.5336 24.3831 13.5166L24.4 13.505C24.4267 13.4917 24.4444 13.4695 24.4649 13.4517C24.5964 13.3557 24.7333 13.2686 24.8853 13.209C24.9262 13.2046 24.9582 13.1824 24.992 13.1628C25.1804 13.0917 25.3707 13.0357 25.5707 13.0161C25.5947 13.0188 25.6142 13.0286 25.6258 13.0508C25.6062 13.0952 25.5609 13.0935 25.5244 13.0988C25.039 13.1718 24.5894 13.3976 24.2409 13.7432C23.8854 14.0827 23.6498 14.5285 23.5698 15.0135C23.4684 15.5535 23.5646 16.1119 23.8409 16.5868C24.2053 17.2179 24.7529 17.6001 25.464 17.745C25.9283 17.8377 26.4099 17.7833 26.8418 17.5895C27.4077 17.3483 27.8558 16.8939 28.0889 16.3246C28.1637 16.1578 28.2129 15.9807 28.2347 15.7992C28.2471 15.7637 28.2596 15.7281 28.2507 15.6899C28.2507 15.6775 28.2507 15.6659 28.2542 15.6544C28.2702 15.6001 28.2853 15.545 28.2622 15.4881C28.2574 15.436 28.2583 15.3836 28.2649 15.3317C28.2827 15.2739 28.2587 15.2179 28.2524 15.1619C28.2491 15.1503 28.2471 15.1384 28.2462 15.1264C28.2427 15.0952 28.2489 15.0624 28.2284 15.0348C28.2156 15.0089 28.2098 14.9801 28.2116 14.9512C28.2116 14.8152 28.1582 14.6935 28.1102 14.5708C28.0684 14.4615 28.0267 14.3486 27.9547 14.2526L27.9431 14.233C27.8578 14.0792 27.768 13.9308 27.6249 13.8206C27.5878 13.7893 27.5536 13.7548 27.5227 13.7175C27.5014 13.6783 27.4681 13.6471 27.4276 13.6286C27.4069 13.6191 27.3889 13.6048 27.3751 13.5868C27.3425 13.536 27.2931 13.4983 27.2356 13.4801C27.2209 13.4741 27.2074 13.4657 27.1956 13.4552C27.0482 13.3397 26.8779 13.2569 26.696 13.2126C26.6676 13.211 26.64 13.2021 26.616 13.1868C26.5996 13.1724 26.5804 13.1616 26.5596 13.155C26.5388 13.1484 26.5168 13.1462 26.4951 13.1486C26.45 13.1444 26.4054 13.136 26.3618 13.1237C26.2935 13.0906 26.218 13.0753 26.1422 13.0792C26.125 13.0809 26.1076 13.08 26.0907 13.0766C25.9633 13.045 25.8302 13.0437 25.7022 13.073C25.6933 13.0748 25.6844 13.0757 25.6756 13.0748C25.6578 13.0721 25.6436 13.0641 25.6356 13.0472C25.6356 13.0135 25.6667 13.0126 25.6871 13.0019C25.7138 12.9984 25.7413 12.993 25.7698 12.9975C25.8907 12.9859 26.0151 12.9868 26.1307 13.0037C26.4009 13.0446 26.6693 13.0988 26.9182 13.2259C27.112 13.3228 27.2978 13.4304 27.4667 13.5664C27.5707 13.6579 27.6684 13.7548 27.76 13.8597L27.776 13.8757C27.7902 13.8979 27.8098 13.9175 27.8249 13.9406L27.8738 14.0055C27.9218 14.0677 27.9573 14.137 28.0036 14.1992"
    fill="#FC944E" />
  <path
    d="M24.0382 13.7973C24.0235 13.8032 24.0117 13.8147 24.0053 13.8293C23.9902 13.8533 23.9716 13.8719 23.9564 13.895C23.9271 13.9075 23.9209 13.9359 23.9076 13.9608C23.8596 14.023 23.8187 14.0888 23.7778 14.1564C23.7564 14.1795 23.7476 14.2124 23.728 14.2373C23.6965 14.2752 23.6743 14.3199 23.6631 14.3679C23.4484 14.8279 23.3835 15.3437 23.4775 15.8426C23.5716 16.3415 23.82 16.7982 24.1876 17.1484C24.4267 17.3795 24.7031 17.551 25.0142 17.6693C25.496 17.8559 26.0254 17.8809 26.5227 17.7404C26.7875 17.679 27.0284 17.5617 27.2533 17.4115C27.3764 17.3322 27.4906 17.2398 27.5938 17.1359C27.9644 16.7501 28.216 16.3021 28.2915 15.7644C28.2995 15.7066 28.2898 15.6444 28.3209 15.5901C28.3627 15.6479 28.3236 15.7075 28.3155 15.7608C28.234 16.3495 27.9392 16.8879 27.4871 17.2737C27.1378 17.5759 26.7324 17.767 26.2729 17.8408C25.7637 17.9281 25.24 17.8528 24.776 17.6257C24.3438 17.4165 23.983 17.0844 23.7387 16.671C23.5592 16.3734 23.4453 16.041 23.4044 15.6959C23.3521 15.2617 23.4175 14.8215 23.5938 14.4213C23.7237 14.119 23.9132 13.846 24.1508 13.6185C24.3884 13.391 24.6693 13.2136 24.9769 13.0968C25.2027 13.0097 25.4391 12.9661 25.6791 12.935C25.7031 12.9315 25.7324 12.9253 25.7547 12.9501C25.7298 12.9661 25.7013 12.9679 25.6729 12.9661C25.6364 12.983 25.5964 12.9777 25.5591 12.983C25.3902 12.9937 25.2302 13.0453 25.0702 13.0986L24.9698 13.1297C24.9404 13.1528 24.9049 13.1626 24.872 13.1786C24.7138 13.2319 24.5858 13.3359 24.4471 13.4221C24.424 13.4373 24.4044 13.4568 24.3822 13.471C24.3582 13.4861 24.3387 13.5057 24.3164 13.5199C24.3091 13.5228 24.3024 13.5273 24.2969 13.5329C24.2914 13.5386 24.2871 13.5454 24.2844 13.5528C24.2471 13.575 24.2222 13.6124 24.1858 13.6346C24.1642 13.6446 24.1469 13.662 24.1369 13.6835C24.1102 13.7261 24.064 13.7546 24.0391 13.7973M28.3769 15.5804C28.3906 15.2889 28.3514 14.9974 28.2613 14.7199C28.2338 14.6328 28.168 14.5555 28.1636 14.4621C28.2462 14.5635 28.2747 14.6826 28.312 14.7973C28.3884 15.0373 28.4089 15.2817 28.3956 15.5288C28.3956 15.5475 28.3982 15.567 28.3769 15.5804ZM27.8089 13.8141C27.7041 13.7234 27.6057 13.6254 27.5147 13.5208C27.6329 13.5981 27.7316 13.6959 27.8089 13.8141ZM28.1636 14.4621C28.1114 14.3907 28.0714 14.3111 28.0453 14.2266C28.1031 14.295 28.1431 14.3741 28.1636 14.4621ZM27.9867 14.1679C27.9271 14.1066 27.8987 14.0186 27.8684 13.9324C27.9244 13.9973 27.9636 14.0746 27.9867 14.1679ZM27.8338 13.9564C27.7893 13.9377 27.752 13.9155 27.7502 13.8737C27.7947 13.8915 27.832 13.9146 27.8338 13.9564Z"
    fill="#FC924B" />
  <path
    d="M27.256 13.399C27.2693 13.399 27.2818 13.4025 27.2889 13.415C27.3475 13.4397 27.3984 13.4796 27.4364 13.5305L27.4853 13.5625C27.5244 13.5892 27.5564 13.6221 27.584 13.6603C27.6231 13.687 27.656 13.7198 27.6818 13.7581C27.8258 13.8754 27.9182 14.0292 28.0107 14.1847C28.1467 14.407 28.2329 14.6505 28.2898 14.9047C28.2942 14.9314 28.2791 14.9634 28.3058 14.9847C28.3129 15.0176 28.3058 15.0532 28.3227 15.0834V15.1163C28.3164 15.1732 28.344 15.2247 28.3387 15.2798V15.4594C28.3458 15.5163 28.3209 15.5687 28.3227 15.6238V15.6567C28.3191 15.6887 28.3049 15.7216 28.3058 15.7545V15.7705C28.2667 15.9483 28.2284 16.1243 28.1511 16.2905C28.0702 16.5038 27.952 16.6941 27.8089 16.871C27.4347 17.3332 26.9493 17.6123 26.368 17.7296C26.3413 17.735 26.3129 17.7314 26.2862 17.735C26.2569 17.7403 26.2267 17.7403 26.1982 17.7483C26.1804 17.751 26.1618 17.7501 26.144 17.7518C26.0284 17.7634 25.9129 17.7545 25.7973 17.7563C25.0347 17.703 24.4338 17.3545 23.9893 16.743C23.7412 16.3974 23.5958 15.9889 23.5698 15.5643C23.5279 15.086 23.6354 14.6065 23.8773 14.1918C24.1796 13.6736 24.6213 13.3154 25.1902 13.1181C25.2596 13.0941 25.3298 13.0701 25.4036 13.0612C25.5049 13.0345 25.6107 13.031 25.7138 13.0061H25.7298C25.8658 12.9865 26.0027 12.9847 26.1396 13.0061H26.1884C26.2613 13.0194 26.3351 13.023 26.4018 13.055L26.5502 13.071C26.5858 13.0958 26.6373 13.0807 26.6649 13.1207L26.7467 13.1367C26.9129 13.1936 27.0667 13.2718 27.216 13.359C27.2319 13.3698 27.2455 13.3828 27.256 13.399Z"
    fill="#FB9652" />
  <path
    d="M25.3564 13.1243C25.0027 13.2088 24.6809 13.3625 24.4053 13.5963C24.0818 13.8719 23.8267 14.199 23.6836 14.6079C23.5617 14.9468 23.5184 15.3091 23.5569 15.6672C23.5954 16.0254 23.7147 16.3701 23.9058 16.6754C24.1493 17.0532 24.4702 17.3448 24.8747 17.5403C25.144 17.6701 25.4284 17.7616 25.7333 17.7661C25.8578 17.7803 25.984 17.7803 26.1093 17.7661H26.1582C26.1831 17.7465 26.2151 17.7705 26.24 17.7501C26.4267 17.7296 26.6089 17.6799 26.7804 17.6079C27.0691 17.4933 27.3323 17.3228 27.5548 17.1062C27.7774 16.8896 27.955 16.6311 28.0773 16.3456C28.0791 16.3403 28.0844 16.3368 28.088 16.3323C28.0933 16.327 28.0996 16.327 28.104 16.3323C28.0773 16.4505 28.0151 16.5519 27.9529 16.6541C27.7749 16.9519 27.534 17.2072 27.247 17.4022C26.9601 17.5972 26.634 17.7271 26.2916 17.783C25.8342 17.8608 25.3641 17.8027 24.9396 17.6159C24.6421 17.4868 24.3741 17.2984 24.152 17.0621C23.8284 16.7163 23.6196 16.311 23.5413 15.8425C23.4606 15.4019 23.5067 14.9474 23.6743 14.5319C23.8419 14.1164 24.1241 13.7572 24.488 13.4959C24.7307 13.3172 24.9991 13.191 25.2924 13.1163C25.3138 13.111 25.336 13.111 25.3564 13.1074C25.3609 13.1119 25.3627 13.1163 25.3609 13.119C25.3591 13.1225 25.3582 13.1243 25.3564 13.1243Z"
    fill="#FB9651" />
  <path
    d="M26.5129 17.7763C26.3982 17.8314 26.2755 17.8411 26.1538 17.8563C25.8107 17.9016 25.4738 17.8651 25.144 17.762C24.8546 17.6727 24.585 17.5285 24.3502 17.3371C24.0817 17.1219 23.8625 16.8515 23.7075 16.5443C23.5483 16.2269 23.4588 15.8792 23.445 15.5245C23.4312 15.1697 23.4935 14.8161 23.6275 14.4874C23.6409 14.4571 23.6498 14.4251 23.6755 14.4038C23.656 14.5327 23.5884 14.6456 23.5538 14.7718C23.4595 15.1121 23.4401 15.4687 23.4968 15.8172C23.5536 16.1657 23.6852 16.4977 23.8827 16.7905C24.272 17.3594 24.8142 17.6945 25.4827 17.8225C25.8009 17.8829 26.1182 17.8651 26.432 17.7843C26.4587 17.778 26.4862 17.7789 26.5129 17.7763Z"
    fill="#FC934D" />
  <path
    d="M28.2818 14.9323C28.2347 14.8674 28.2311 14.7883 28.208 14.7154C28.1538 14.5448 28.0587 14.3901 27.9867 14.2266C28.0996 14.3314 28.1369 14.4737 28.192 14.6052C28.2364 14.7092 28.2853 14.8159 28.2818 14.9323ZM28.1218 16.2861H28.104C28.1787 16.1137 28.216 15.9306 28.2818 15.7563C28.2674 15.9424 28.2128 16.1232 28.1218 16.2861ZM27.2196 13.4026C27.0716 13.3195 26.9159 13.251 26.7547 13.1981C26.7298 13.1892 26.7058 13.1857 26.6889 13.167C26.7573 13.1643 26.816 13.1937 26.8738 13.2186C26.9724 13.2594 27.0693 13.3066 27.1671 13.351C27.1938 13.3626 27.2204 13.3723 27.2196 13.4026ZM26.0996 13.047C26.0729 13.0968 26.0444 13.0559 26.0169 13.0541C25.9369 13.0479 25.8587 13.0301 25.7804 13.0648C25.7476 13.0799 25.7164 13.0754 25.6862 13.047C25.7485 13.0095 25.8198 12.9897 25.8924 12.9897C25.9651 12.9897 26.0373 13.0095 26.0996 13.047ZM27.9271 14.167C27.832 14.0283 27.7458 13.8808 27.6329 13.7554C27.672 13.7581 27.6898 13.7928 27.7129 13.8194C27.7956 13.9128 27.8569 14.023 27.9227 14.1297C27.928 14.1386 27.9253 14.1546 27.9271 14.1679M25.3911 13.1083V13.0861C25.4684 13.0221 25.5636 13.0648 25.64 12.9972C25.6453 12.9883 25.6498 12.9883 25.656 12.9972L25.6862 13.0186C25.5938 13.0914 25.488 13.0701 25.3911 13.1083ZM26.3938 13.1323C26.3156 13.1074 26.2338 13.1021 26.1573 13.0523C26.2418 13.0443 26.3253 13.0443 26.3938 13.1323ZM28.304 15.639C28.2507 15.5768 28.3049 15.5199 28.3333 15.4621C28.3982 15.5261 28.3476 15.5821 28.304 15.639Z"
    fill="#FB9652" />
  <path
    d="M23.7991 14.1682C23.8195 14.0816 23.8596 14.001 23.9164 13.9326C23.8903 14.0169 23.8506 14.0965 23.7991 14.1682Z"
    fill="#FC934D" />
  <path
    d="M28.3404 15.2863C28.3076 15.2285 28.2471 15.1725 28.3058 15.1094C28.3378 15.1663 28.3991 15.2232 28.3404 15.2863ZM27.3964 13.5796L27.2791 13.4614C27.3333 13.4756 27.3769 13.5059 27.3964 13.5796Z"
    fill="#FB9652" />
  <path
    d="M24.0356 13.8141C24.0498 13.7572 24.1049 13.7297 24.1529 13.6968C24.1387 13.7537 24.0818 13.7812 24.0347 13.8141"
    fill="#FC934D" />
  <path
    d="M28.2889 15.816C28.2222 15.7689 28.2862 15.7351 28.3236 15.6978C28.3716 15.7423 28.336 15.7796 28.2889 15.816ZM27.5796 13.6969C27.531 13.6661 27.4887 13.6263 27.4551 13.5796C27.4848 13.5854 27.5123 13.5995 27.5343 13.6202C27.5564 13.641 27.572 13.6676 27.5796 13.6969Z"
    fill="#FB9652" />
  <path
    d="M25.6355 13.0622H25.6187L25.5689 13.0222C25.6044 12.9457 25.6471 12.9973 25.6862 12.9822L25.6355 13.0622Z"
    fill="#FC934D" />
  <path
    d="M26.6302 13.1911C26.5947 13.1511 26.5404 13.1751 26.512 13.1084C26.5573 13.1146 26.608 13.0986 26.6302 13.1911Z"
    fill="#FB9652" />
  <path
    d="M24.2115 13.6969C24.2435 13.6471 24.2711 13.5903 24.3298 13.5796C24.2969 13.6294 24.2702 13.6854 24.2115 13.6969Z"
    fill="#FC934D" />
  <path
    d="M28.3502 15.1095C28.2827 15.074 28.2364 15.0366 28.3013 14.9922C28.3893 15.026 28.3333 15.0704 28.3502 15.1095Z"
    fill="#FB9652" />
  <path
    d="M24.8604 13.2505C24.8879 13.2092 24.9297 13.1795 24.9778 13.167C24.952 13.2319 24.9093 13.2488 24.8604 13.2505ZM23.7404 14.2843C23.7493 14.2363 23.7671 14.1928 23.8231 14.1679C23.8133 14.2168 23.7956 14.2603 23.7404 14.2852M24.3298 13.5448C24.3476 13.5003 24.3707 13.463 24.4124 13.4612C24.3947 13.5057 24.3724 13.543 24.3298 13.5448ZM23.9751 13.9563C23.9778 13.9145 24.0142 13.8914 24.0587 13.8737C24.0569 13.9145 24.0204 13.9385 23.9751 13.9563Z"
    fill="#FC934D" />
  <path
    d="M24.3884 13.4855C24.4071 13.4411 24.4293 13.4055 24.4711 13.4028C24.4533 13.4473 24.4311 13.4828 24.3884 13.4855Z"
    fill="#FC934D" />
  <path
    d="M23.6213 15.3699C23.6194 15.0642 23.6783 14.7611 23.7947 14.4784C23.911 14.1956 24.0823 13.9389 24.2988 13.723C24.5153 13.5071 24.7725 13.3364 25.0556 13.2208C25.3386 13.1053 25.6418 13.0472 25.9475 13.0499C27.312 13.0623 28.2267 14.1059 28.2818 15.3859C28.2018 16.7388 27.2267 17.6926 25.9395 17.6988C25.6339 17.7 25.3311 17.6405 25.0487 17.5237C24.7662 17.4069 24.5098 17.2353 24.2942 17.0186C24.0786 16.802 23.9082 16.5447 23.7929 16.2616C23.6775 15.9786 23.6195 15.6755 23.6222 15.3699"
    fill="#FB9958" />
  <path
    d="M26.1316 17.7465C26.0027 17.8665 25.8738 17.8665 25.7449 17.7465H26.1316ZM26.3262 17.7483C26.2898 17.8905 26.2409 17.8132 26.1973 17.8336C26.2329 17.6914 26.2827 17.7696 26.3262 17.7483Z"
    fill="#FB9652" />
  <path
    d="M23.7404 15.3758C23.7399 14.8515 23.926 14.3441 24.2654 13.9444C24.6048 13.5448 25.0754 13.2789 25.5929 13.1945C26.2773 13.0941 26.896 13.2683 27.4187 13.7225C27.8347 14.0816 28.0711 14.5492 28.1422 15.0878C28.2311 15.7616 28.0356 16.3581 27.5813 16.8594C27.3787 17.0914 27.1278 17.2762 26.8462 17.4009C26.5646 17.5256 26.2591 17.5871 25.9511 17.5812C25.6611 17.582 25.3738 17.5256 25.1056 17.4152C24.8374 17.3047 24.5937 17.1425 24.3883 16.9377C24.183 16.7329 24.02 16.4896 23.9088 16.2218C23.7977 15.9539 23.7404 15.6659 23.7404 15.3758Z"
    fill="#FA9D5E" />
  <path
    d="M28.064 14.7803L28.1129 15.0105C28.1233 15.0305 28.1288 15.0528 28.1289 15.0754V15.1243C28.1413 15.1731 28.144 15.2229 28.1538 15.2727C28.1635 15.3438 28.1689 15.4149 28.1538 15.486C28.1244 15.7171 28.0915 15.9465 27.9991 16.1643C27.7155 16.8443 27.2169 17.2878 26.504 17.4567C25.744 17.6354 25.0675 17.4469 24.4995 16.902C24.1405 16.5644 23.917 16.1074 23.8711 15.6167C23.8124 15.0523 23.9422 14.5287 24.2907 14.0745C24.5227 13.7663 24.837 13.5297 25.1973 13.3918C25.2444 13.3483 25.3067 13.3456 25.3627 13.326C25.4915 13.2843 25.6275 13.2736 25.7547 13.2274H25.7875C25.8293 13.2629 25.8711 13.2265 25.912 13.2256C26.0115 13.2256 26.1111 13.2345 26.2098 13.2389C26.2247 13.2346 26.2406 13.2343 26.2557 13.238C26.2709 13.2418 26.2847 13.2494 26.296 13.2603C26.352 13.2505 26.4044 13.278 26.4587 13.2763C26.4942 13.3003 26.536 13.2967 26.5742 13.3083L26.7378 13.358C26.7555 13.3767 26.7813 13.3803 26.8035 13.3909C26.8302 13.406 26.8587 13.4105 26.8844 13.4229L26.9173 13.4398C26.9458 13.4389 26.9662 13.4531 26.9831 13.4718C27.1475 13.5447 27.2889 13.654 27.4258 13.7669C27.4364 13.7891 27.4578 13.7998 27.4747 13.8158C27.5078 13.8365 27.5358 13.8644 27.5564 13.8976L27.6222 13.9625C27.7138 14.0763 27.8027 14.1918 27.8675 14.3225C27.888 14.3403 27.8987 14.3634 27.9111 14.3847C27.9207 14.4078 27.9317 14.4304 27.944 14.4523C27.9538 14.4745 27.9662 14.4967 27.9724 14.5207C27.9742 14.55 27.9875 14.5758 27.9991 14.6016C28.0293 14.6585 28.0347 14.7234 28.064 14.7803Z"
    fill="#FAA063" />
  <path
    d="M25.1538 13.4025C25.0427 13.4639 24.9262 13.5181 24.8204 13.5874C24.5271 13.7785 24.2844 14.0194 24.1111 14.327C23.9742 14.5723 23.88 14.8337 23.8533 15.1137C23.8213 15.487 23.856 15.8532 24.0071 16.2043C24.1369 16.503 24.3271 16.7554 24.5689 16.9688C24.8507 17.215 25.1804 17.3777 25.5502 17.4443C26.0214 17.5372 26.5101 17.4679 26.9369 17.2479C27.2063 17.1044 27.4424 16.9056 27.6296 16.6645C27.8168 16.4233 27.9509 16.1454 28.0231 15.8488C28.0475 15.7453 28.0639 15.6401 28.072 15.5341C28.0729 15.519 28.0764 15.5074 28.0889 15.4985C28.0978 15.4994 28.0978 15.5101 28.1049 15.5145C28.064 15.9741 27.9156 16.391 27.6116 16.7457C27.2827 17.1279 26.8738 17.3777 26.376 17.4799C26.352 17.4985 26.3191 17.4763 26.2951 17.4968H26.2791C26.2436 17.5172 26.2009 17.4905 26.1644 17.5128H26.1484C26.0131 17.5258 25.8767 17.5258 25.7413 17.5128C25.6996 17.4897 25.6524 17.5172 25.6107 17.4968C25.5867 17.4763 25.5538 17.4985 25.5298 17.4799C25.3911 17.4754 25.2667 17.4221 25.1413 17.375C24.8636 17.267 24.6125 17.1003 24.4053 16.8861C24.1506 16.6269 23.9664 16.3068 23.8702 15.9563C23.8587 15.919 23.8569 15.8781 23.8498 15.839C23.8302 15.815 23.8533 15.7821 23.8338 15.7581C23.8133 15.7279 23.8382 15.6905 23.8178 15.6603C23.793 15.4772 23.793 15.2915 23.8178 15.1083V15.0914C23.8382 15.0621 23.8133 15.0248 23.8338 14.9937C23.8844 14.6425 24.0311 14.3305 24.2516 14.0532C24.4667 13.7812 24.7316 13.5679 25.0533 13.4283C25.0853 13.4141 25.1173 13.399 25.1538 13.4034M26.152 13.2239C26.0898 13.2639 26.0276 13.2061 25.9644 13.2221C25.9076 13.2372 25.8507 13.2079 25.7938 13.2452C25.7716 13.2612 25.7547 13.2328 25.7449 13.1963C25.8809 13.1465 26.0169 13.1714 26.1529 13.1963C26.1551 13.1988 26.1567 13.2019 26.1574 13.2051C26.1582 13.2084 26.1582 13.2118 26.1573 13.215C26.1556 13.2212 26.1538 13.2239 26.152 13.2239ZM25.7449 13.167C25.7404 13.1785 25.736 13.1981 25.7307 13.1999C25.5956 13.2159 25.4684 13.2799 25.3316 13.2852C25.4622 13.2079 25.6053 13.1937 25.7449 13.167Z"
    fill="#FA9E60" />
  <path
    d="M23.8702 15.1095C23.8441 15.2851 23.8441 15.4636 23.8702 15.6393C23.816 15.5237 23.7547 15.4064 23.808 15.2891C23.8373 15.2304 23.7724 15.1646 23.8702 15.1095ZM28.1484 15.5211L28.1093 15.5051V15.2455C28.0942 15.2277 28.1138 15.2251 28.1484 15.2295C28.1822 15.3273 28.216 15.4242 28.1484 15.5211ZM25.7449 17.5113H26.1582C26.0196 17.6215 25.8827 17.6215 25.7449 17.5113ZM28.0702 14.7557C28.025 14.707 27.9959 14.6455 27.9867 14.5797C28.0489 14.6286 28.048 14.6944 28.0702 14.7557ZM27.928 14.5148C27.8969 14.4988 27.8836 14.4766 27.8809 14.4517C27.8649 14.4393 27.8676 14.4251 27.8702 14.4108L27.8809 14.4028C27.9244 14.4357 27.952 14.4713 27.952 14.5148C27.9431 14.5237 27.9351 14.5237 27.9271 14.5148M28.1876 15.2126L28.1484 15.2268C28.0836 15.1904 28.1093 15.1495 28.1093 15.1095C28.1294 15.1196 28.1469 15.1341 28.1604 15.152C28.174 15.1698 28.1833 15.1906 28.1876 15.2126Z"
    fill="#FA9E60" />
  <path
    d="M27.8507 14.376C27.8379 14.3645 27.8277 14.3506 27.8207 14.335C27.8136 14.3194 27.8099 14.3025 27.8098 14.2853C27.872 14.2924 27.8809 14.3467 27.8924 14.3991C27.8684 14.4133 27.8613 14.3884 27.8507 14.376ZM27.5973 13.9564C27.5484 13.9502 27.5209 13.9227 27.5147 13.8738C27.5635 13.8791 27.592 13.9067 27.5973 13.9564ZM26.9484 13.4853C26.9311 13.4835 26.9146 13.4774 26.9001 13.4676C26.8857 13.4578 26.8739 13.4447 26.8658 13.4293C26.9227 13.3689 26.9378 13.4204 26.9493 13.4862M26.5129 13.3556C26.4693 13.3556 26.4258 13.368 26.3938 13.2738C26.4355 13.2827 26.4755 13.3004 26.512 13.3547M25.6275 17.4587C25.6667 17.4889 25.7084 17.3893 25.7449 17.528C25.7067 17.4978 25.664 17.5973 25.6275 17.4587ZM26.1582 13.2569V13.216C26.1991 13.2338 26.2613 13.1671 26.2764 13.2978L26.1582 13.2569ZM26.2169 17.5289C26.2524 17.392 26.296 17.4844 26.3351 17.4578C26.2995 17.5947 26.256 17.5022 26.2169 17.5289ZM23.8507 15.5804C23.9849 15.6142 23.9004 15.6587 23.9244 15.6978C23.7911 15.6631 23.8755 15.6196 23.8507 15.5804ZM26.8658 13.4738C26.8195 13.4764 26.7778 13.4578 26.7475 13.392C26.7947 13.3893 26.8347 13.408 26.8658 13.4738ZM27.9751 14.4622H28.016C28.0311 14.5013 28.0435 14.5404 28.0578 14.5796C27.9929 14.5493 27.9733 14.5084 27.9751 14.4622ZM27.4791 13.8382C27.4258 13.8364 27.3991 13.8089 27.3964 13.7556C27.432 13.776 27.4782 13.784 27.4791 13.8382ZM28.1413 15.0747C28.0702 15.0524 28.1004 15.0204 28.0924 14.992C28.1413 15.016 28.2231 15.0364 28.1413 15.0747ZM23.9253 14.9324C23.9004 14.9724 23.9849 15.016 23.8507 15.0507C23.8755 15.0116 23.7911 14.9671 23.9253 14.9324ZM25.5093 17.4542C25.5493 17.4738 25.5938 17.4036 25.6275 17.5324C25.5875 17.5129 25.5422 17.584 25.5093 17.4542Z"
    fill="#FA9E60" />
  <path
    d="M26.2756 17.5325C26.3093 17.4027 26.3547 17.4739 26.3938 17.4543C26.3609 17.5841 26.3156 17.513 26.2764 17.5325M26.7716 13.4152C26.736 13.4187 26.7049 13.4072 26.6889 13.3325C26.7209 13.3387 26.7511 13.361 26.7716 13.4143M23.8489 15.6987C23.9787 15.7307 23.9076 15.7761 23.9262 15.8161C23.7973 15.7823 23.8676 15.7387 23.8489 15.6987Z"
    fill="#FA9E60" />
  <path
    d="M27.0684 13.6133C27.1031 13.6169 27.1262 13.6409 27.1502 13.6622C27.2089 13.7022 27.2711 13.7351 27.3147 13.7938C27.3989 13.8508 27.4715 13.9232 27.5289 14.0071L27.5458 14.0231C27.5938 14.0649 27.6267 14.1182 27.6604 14.1707C27.6818 14.1956 27.7058 14.2178 27.7093 14.2524C27.7742 14.3244 27.8133 14.4107 27.8542 14.496C27.856 14.5253 27.872 14.5484 27.8862 14.5733C27.952 14.7333 27.9911 14.9022 28.0213 15.0711C28.024 15.1067 28.016 15.1422 28.032 15.1778C28.0409 15.2036 28.0373 15.2311 28.0391 15.2578C28.048 15.32 28.0462 15.3804 28.0418 15.4418C28.0373 15.464 28.04 15.488 28.0356 15.5093C28.0151 15.5458 28.024 15.5858 28.0222 15.6249C27.9681 16.0025 27.811 16.358 27.5681 16.6522C27.3252 16.9463 27.0059 17.1679 26.6453 17.2924L26.568 17.3191C26.3895 17.3717 26.2047 17.4004 26.0187 17.4044C25.488 17.4036 25.0142 17.2418 24.6142 16.8844C24.6069 16.8808 24.6001 16.8763 24.5938 16.8711C24.5467 16.8276 24.5049 16.7787 24.4542 16.7378C24.4448 16.7294 24.437 16.7195 24.4311 16.7084C24.2592 16.5097 24.1255 16.281 24.0364 16.0338C23.8773 15.5877 23.8773 15.1003 24.0364 14.6542C24.0373 14.6453 24.0409 14.6382 24.0436 14.6311C24.0564 14.6075 24.0671 14.5828 24.0756 14.5573C24.0773 14.5493 24.0809 14.5431 24.0844 14.536C24.12 14.4676 24.1529 14.3982 24.1884 14.3289C24.1909 14.3223 24.1942 14.316 24.1982 14.3102C24.2189 14.286 24.2337 14.2574 24.2418 14.2267C24.2612 14.1836 24.2883 14.1445 24.3218 14.1111C24.3459 14.0975 24.3646 14.0762 24.3751 14.0507C24.3801 14.0412 24.3867 14.0328 24.3947 14.0258C24.4223 14.0068 24.4439 13.9803 24.4569 13.9493C24.4877 13.9013 24.529 13.8608 24.5778 13.8311C24.6115 13.8147 24.6396 13.7888 24.6587 13.7564C24.9359 13.5309 25.2665 13.3803 25.6187 13.3191C25.648 13.3173 25.6773 13.3218 25.7049 13.3058C25.7173 13.3022 25.7307 13.3022 25.744 13.3022C25.7938 13.3004 25.8436 13.3076 25.8907 13.2871C25.9511 13.2871 26.0124 13.2809 26.0738 13.2907C26.1164 13.3102 26.1627 13.2996 26.2089 13.3022C26.4062 13.3262 26.5956 13.3796 26.7796 13.4533C26.8392 13.5011 26.9078 13.5365 26.9813 13.5573C27.0151 13.568 27.0436 13.5876 27.0684 13.6133Z"
    fill="#FAA369" />
  <path
    d="M24.3724 14.1156C24.3324 14.1441 24.3129 14.1867 24.2907 14.2294C24.2702 14.2543 24.2613 14.2854 24.2418 14.3112C24.1973 14.3832 24.16 14.4596 24.128 14.5387C24.1129 14.5627 24.1084 14.5921 24.0951 14.6196C23.8604 15.3085 23.9422 15.9521 24.3724 16.5458C24.4071 16.5947 24.4524 16.6338 24.4862 16.6827L24.5022 16.6987C24.5393 16.7483 24.5837 16.792 24.6338 16.8285C24.8939 17.0659 25.2114 17.2312 25.555 17.3082C25.8986 17.3852 26.2564 17.3712 26.5929 17.2676C26.728 17.2018 26.8729 17.1574 27.0044 17.0809C27.3102 16.9032 27.5547 16.6641 27.7396 16.3654C27.8777 16.1332 27.9704 15.8767 28.0124 15.6098C28.0356 15.5947 28.0009 15.5503 28.0453 15.5449C28.0391 15.7636 27.9742 15.9716 27.8853 16.1672C27.6364 16.7183 27.2249 17.1049 26.6498 17.2907C25.9342 17.5218 25.2693 17.4001 24.6782 16.9298C24.473 16.7679 24.3017 16.5671 24.1742 16.339C24.0467 16.1108 23.9654 15.8597 23.9351 15.6001C23.8685 15.1247 23.9769 14.6414 24.24 14.2401C24.5662 13.7307 25.0311 13.4241 25.6249 13.3085C25.6898 13.2961 25.7564 13.2792 25.8249 13.2872C25.8213 13.3316 25.776 13.2961 25.76 13.3192H25.7271C25.7031 13.3387 25.6702 13.3165 25.6462 13.3361C25.4409 13.3734 25.2427 13.4347 25.0578 13.5316C24.9298 13.6001 24.8053 13.6738 24.6996 13.7743C24.6684 13.7921 24.6471 13.8205 24.6178 13.8392C24.5732 13.8701 24.5344 13.9086 24.5031 13.9529C24.4853 13.9823 24.4551 14.0045 24.4382 14.0347L24.4222 14.0507C24.4053 14.0729 24.3858 14.0925 24.3724 14.1156ZM26.7751 13.4552C26.5929 13.3992 26.4133 13.3343 26.2213 13.3165C26.2062 13.2943 26.1627 13.3272 26.1591 13.2854C26.3867 13.2987 26.6036 13.3503 26.8062 13.4543C26.7964 13.4641 26.7858 13.4632 26.7751 13.4543M28.0098 15.0454C27.9795 14.8777 27.9349 14.713 27.8764 14.5529C27.8728 14.5497 27.8701 14.5454 27.8689 14.5407C27.8676 14.5359 27.8678 14.5309 27.8693 14.5263L27.8764 14.5209C27.9636 14.6561 27.9911 14.8098 28.0249 14.9609C28.0356 15.0098 28.0516 15.0587 28.0427 15.1094C27.9964 15.1049 28.0329 15.0614 28.0098 15.0454ZM28.0489 15.2605V15.1849C28.0391 15.1681 28.0516 15.1663 28.0756 15.1698C28.1298 15.2854 28.1609 15.4027 28.0756 15.5192C28.0516 15.5236 28.0391 15.5209 28.0489 15.5049V15.4436C28.071 15.3846 28.071 15.3195 28.0489 15.2605ZM27.5742 13.9912C27.4883 13.9202 27.4091 13.8413 27.3378 13.7556C27.3947 13.77 27.4467 13.7995 27.4883 13.841C27.5299 13.8824 27.5596 13.9343 27.5742 13.9912ZM27.8924 14.4845L27.7502 14.2267C27.8151 14.2312 27.8178 14.2916 27.8418 14.3289C27.88 14.3867 27.9236 14.4454 27.9271 14.5192C27.8933 14.5298 27.9084 14.4925 27.8924 14.4845ZM26.0818 13.2952H25.8951C25.8764 13.3147 25.8622 13.3218 25.8631 13.2632C25.9413 13.2089 26.0196 13.2187 26.0978 13.2632C26.1013 13.2916 26.0978 13.3076 26.0818 13.2952ZM27.3378 13.7556C27.2773 13.7183 27.2071 13.6907 27.1609 13.6383C27.24 13.6561 27.3067 13.6872 27.3378 13.7556ZM27.6916 14.1681C27.6442 14.1378 27.6041 14.0974 27.5742 14.0498C27.6427 14.0721 27.6791 14.1121 27.6916 14.1681ZM26.8062 13.4036H26.8444C26.9018 13.4485 26.9673 13.4817 27.0373 13.5014C27.0418 13.5058 27.0436 13.5103 27.0418 13.5138C27.04 13.5183 27.0391 13.5201 27.0373 13.5201C26.9497 13.5067 26.8687 13.4656 26.8062 13.4027"
    fill="#FAA267" />
  <path
    d="M25.896 13.2739C25.9013 13.3059 25.9111 13.3121 25.9227 13.313C25.8853 13.393 25.8427 13.3353 25.8036 13.353C25.8151 13.289 25.8444 13.337 25.8569 13.2739H25.896ZM26.984 13.5406V13.5201C27.0373 13.5317 27.0942 13.5406 27.1013 13.6028C27.0516 13.5993 27.0196 13.5681 26.984 13.5406ZM26.0987 13.313L26.1138 13.2739H26.1582C26.1707 13.337 26.2044 13.289 26.2169 13.353C26.1778 13.3353 26.1351 13.393 26.0987 13.313ZM28.0764 15.4641L28.1173 15.4793V15.513C28.0516 15.5273 28.1013 15.5664 28.0373 15.5806C28.0524 15.5415 28.0009 15.4979 28.0773 15.4624M28.1173 15.1486L28.0764 15.1681C28.0027 15.1344 28.0498 15.0899 28.0356 15.0508C28.1013 15.0668 28.0516 15.113 28.1173 15.129V15.1486Z"
    fill="#FAA267" />
  <path d="M27.8569 14.3442L27.9404 14.3656V14.4278C27.8862 14.4065 27.864 14.378 27.8569 14.3442Z"
    fill="#FA9E60" />
  <path
    d="M27.9867 15.3175C27.9869 15.585 27.9327 15.8497 27.8271 16.0955C27.7216 16.3413 27.5671 16.563 27.373 16.747C27.1789 16.931 26.9493 17.0736 26.6983 17.1659C26.4472 17.2581 26.18 17.2983 25.9129 17.2837C25.4064 17.2633 24.9276 17.0471 24.5772 16.6807C24.2269 16.3143 24.0324 15.8262 24.0347 15.3193C24.0332 15.054 24.0854 14.7911 24.1882 14.5465C24.291 14.3019 24.4423 14.0807 24.6329 13.8961C24.8235 13.7116 25.0495 13.5675 25.2973 13.4727C25.5451 13.3778 25.8095 13.3341 26.0747 13.3442C26.5879 13.3581 27.0753 13.5724 27.4325 13.9413C27.7897 14.3101 27.9883 14.8041 27.9858 15.3175"
    fill="#F9A66F" />
  <path
    d="M24.5067 16.6978C24.344 16.552 24.2373 16.3698 24.1458 16.1751C23.992 15.8489 23.9591 15.5022 23.9831 15.1494C23.9956 14.9742 24.0213 14.7965 24.112 14.6382C24.0907 14.76 24.0453 14.8756 24.0249 14.9974C23.9564 15.4089 24.0009 15.8036 24.1796 16.1822C24.2613 16.3565 24.3582 16.5218 24.4916 16.6622C24.5004 16.6702 24.5013 16.6862 24.5067 16.6978ZM26.6302 17.2471C26.5378 17.304 26.4311 17.3094 26.3289 17.3236C25.9973 17.3725 25.6693 17.3414 25.3538 17.2285C25.1161 17.1505 24.8979 17.0226 24.7138 16.8534C24.7022 16.8427 24.6942 16.8285 24.6836 16.816C24.7582 16.8427 24.808 16.9058 24.8702 16.9502C25.1707 17.1636 25.504 17.2765 25.872 17.3147C26.1102 17.3387 26.3378 17.3031 26.5662 17.2551C26.5867 17.2507 26.6089 17.2498 26.6302 17.2471ZM24.0933 14.5209C24.1111 14.4311 24.1502 14.3529 24.2116 14.2845C24.1835 14.3685 24.1437 14.4481 24.0933 14.5209ZM24.6249 16.816C24.5978 16.8063 24.5732 16.7908 24.5527 16.7705C24.5323 16.7502 24.5166 16.7248 24.5067 16.6978C24.5521 16.7304 24.592 16.7709 24.6249 16.816ZM28.0338 15.168C28.1449 15.2471 28.1449 15.3254 28.0338 15.4036V15.168ZM24.5662 13.8382C24.5956 13.8009 24.6231 13.7609 24.6836 13.7556C24.6542 13.7938 24.6258 13.8338 24.5662 13.8382ZM24.448 14.0498C24.4524 13.9902 24.4924 13.9609 24.5307 13.9325C24.5253 13.992 24.4862 14.0214 24.448 14.0498ZM24.2116 14.2845C24.2213 14.2365 24.2382 14.1929 24.2951 14.168C24.2853 14.2169 24.2684 14.2605 24.2116 14.2854M24.0818 14.6382C24.08 14.5929 24.0996 14.5511 24.1653 14.5209C24.168 14.5671 24.1476 14.608 24.0818 14.6382ZM24.3884 14.1325C24.3911 14.0907 24.4276 14.0676 24.4711 14.0498C24.4702 14.0925 24.4329 14.1147 24.3884 14.1325ZM27.8569 14.4614L27.9404 14.5031V14.5449C27.8649 14.5289 27.8542 14.4978 27.8569 14.4622M25.6276 13.3538C25.6596 13.224 25.7058 13.2951 25.7449 13.2765C25.7129 13.4054 25.6676 13.3351 25.6276 13.3538Z"
    fill="#FAA267" />
  <path
    d="M26.0444 17.1696C25.0062 17.1607 24.0978 16.3296 24.1547 15.1785C24.177 14.6957 24.3862 14.2405 24.738 13.9091C25.0898 13.5776 25.5567 13.396 26.04 13.4025C27.1422 13.4114 27.8996 14.2425 27.9262 15.2158C27.9573 16.3394 27.1004 17.1438 26.0453 17.1687"
    fill="#F9A974" />
  <path
    d="M26.9378 13.7351C26.9556 13.728 26.9707 13.7173 26.9911 13.7316C27.2009 13.8756 27.3893 14.0373 27.5396 14.2498C27.7262 14.5138 27.8089 14.808 27.8667 15.1156C27.8747 15.1538 27.8551 15.1956 27.8569 15.2347C27.8782 15.728 27.7147 16.1502 27.3813 16.5156C27.0979 16.8348 26.7081 17.0402 26.2844 17.0933C25.9227 17.1413 25.5733 17.0898 25.2444 16.9333C24.988 16.8104 24.7638 16.6295 24.5894 16.4048C24.4151 16.1802 24.2954 15.918 24.24 15.6391C24.2178 15.5253 24.2178 15.4116 24.2125 15.296C24.2062 15.1156 24.2302 14.9422 24.2818 14.7716C24.3576 14.5223 24.4854 14.292 24.6569 14.0958C24.8284 13.8997 25.0396 13.7422 25.2765 13.6338C25.4649 13.5422 25.6676 13.5031 25.8729 13.4738C25.9849 13.456 26.0933 13.4587 26.2044 13.4738C26.4089 13.5031 26.608 13.5467 26.7964 13.6276C26.8498 13.6498 26.9227 13.6587 26.9378 13.7351C26.9129 13.7547 26.8916 13.7369 26.8711 13.7271C26.6675 13.619 26.444 13.5537 26.2142 13.5351C25.7369 13.5022 25.3013 13.6187 24.9289 13.9307C24.7479 14.0776 24.5989 14.26 24.4911 14.4667C24.3834 14.6734 24.3191 14.9 24.3022 15.1324C24.2596 15.608 24.4 16.0284 24.7022 16.3938C25.0116 16.7671 25.4142 16.976 25.8951 17.016C26.1434 17.0417 26.3942 17.0124 26.6299 16.9302C26.8655 16.848 27.0802 16.7149 27.2587 16.5404C27.5267 16.2971 27.707 15.9722 27.7716 15.616C27.864 15.1004 27.7662 14.624 27.4382 14.2036C27.4116 14.1698 27.3876 14.1324 27.3511 14.1076C27.3193 14.0681 27.2836 14.0321 27.2444 14C27.1778 13.9182 27.0898 13.8658 27.0053 13.8062C26.9787 13.7867 26.9378 13.7796 26.9378 13.7351Z"
    fill="#F8AB77" />
  <path
    d="M26.9831 13.6811C27.0596 13.7353 27.1378 13.7895 27.2142 13.8455C27.248 13.8695 27.2871 13.8944 27.2942 13.9424L27.2818 13.946C27.2462 13.946 27.2231 13.922 27.1982 13.9006C26.9018 13.6537 26.528 13.5188 26.1422 13.5193C26 13.5229 25.8604 13.5211 25.7227 13.5558C25.4098 13.6349 25.136 13.7833 24.9102 14.0144C24.5573 14.3753 24.3867 14.8109 24.4133 15.3131C24.4347 15.6829 24.5733 16.0144 24.8151 16.2998C25.1031 16.6411 25.4747 16.8349 25.9138 16.8962C26.2622 16.9451 26.5947 16.874 26.9058 16.7095C27.2116 16.546 27.448 16.3113 27.6107 16.0064C27.7218 15.7975 27.7884 15.5744 27.8009 15.3318C27.8227 15.0423 27.7717 14.752 27.6524 14.4873C27.5923 14.3622 27.5183 14.2441 27.432 14.1353C27.4116 14.1104 27.3876 14.0864 27.3876 14.0509L27.3911 14.0393C27.4996 14.0926 27.5458 14.2002 27.6071 14.2935C27.7493 14.5131 27.8356 14.7575 27.8587 15.0144C27.9013 15.4758 27.8053 15.9069 27.5191 16.2811C27.2347 16.6535 26.8596 16.8918 26.3964 16.9673C25.9647 17.0432 25.5203 16.9534 25.152 16.7158C24.9215 16.57 24.728 16.3728 24.5867 16.1396C24.4455 15.9063 24.3602 15.6435 24.3378 15.3718C24.2989 14.9588 24.4096 14.5455 24.6498 14.2073C24.9316 13.7966 25.3342 13.5646 25.8196 13.4704C25.9262 13.45 26.0356 13.4793 26.1396 13.4669C26.3244 13.4455 26.4933 13.4971 26.664 13.5451C26.776 13.578 26.8773 13.6322 26.9831 13.6811Z"
    fill="#F8AD7B" />
  <path
    d="M27.2782 13.9326C27.3404 13.9486 27.3795 13.9886 27.3964 14.0499C27.3253 14.0428 27.2844 14.0037 27.2782 13.9326Z"
    fill="#F8AD7B" />
  <path
    d="M27.2658 13.962C27.2924 14.0011 27.3253 14.0331 27.3653 14.0597C27.4453 14.1815 27.5431 14.2908 27.6098 14.4206C27.6916 14.5806 27.7556 14.7424 27.7804 14.9211C27.7964 15.0277 27.8098 15.1317 27.8089 15.2375C27.8119 15.6333 27.6699 16.0165 27.4098 16.3148C27.1342 16.6366 26.7813 16.8455 26.3529 16.9104C26.0992 16.9534 25.8392 16.9389 25.5919 16.8678C25.3446 16.7967 25.1165 16.6709 24.9244 16.4997C24.6014 16.2261 24.3943 15.8401 24.3449 15.4197C24.2853 14.9922 24.4044 14.6064 24.6391 14.2553C24.8631 13.922 25.1876 13.706 25.5724 13.5824C25.7413 13.5273 25.9191 13.5202 26.1004 13.5211C26.2924 13.5211 26.4791 13.5442 26.6551 13.61C26.8507 13.6846 27.0418 13.7726 27.1973 13.9193C27.2169 13.9371 27.2436 13.9477 27.2658 13.962Z"
    fill="#F8AF7E" />
  <path
    d="M24.448 15.2295C24.4454 15.0118 24.4864 14.7958 24.5686 14.5943C24.6508 14.3927 24.7725 14.2096 24.9266 14.0558C25.0807 13.9021 25.264 13.7807 25.4658 13.6989C25.6676 13.6172 25.8837 13.5767 26.1013 13.5798C27.0107 13.5878 27.7644 14.2704 27.7502 15.2775C27.7464 15.4947 27.6991 15.7089 27.6112 15.9075C27.5232 16.1061 27.3964 16.2851 27.2381 16.4339C27.0799 16.5827 26.8934 16.6983 26.6898 16.7739C26.4862 16.8495 26.2694 16.8835 26.0524 16.874C25.6218 16.8681 25.211 16.6917 24.9103 16.3834C24.6095 16.0752 24.4432 15.6602 24.448 15.2295Z"
    fill="#F7B284" />
  <path
    d="M24.5662 15.1626C24.5662 14.3217 25.2516 13.6204 26.1244 13.639C26.9333 13.655 27.6676 14.2835 27.632 15.2408C27.6018 16.0426 26.9716 16.6915 26.0969 16.6986C25.8953 16.6992 25.6955 16.6598 25.5092 16.5828C25.3229 16.5057 25.1537 16.3925 25.0113 16.2497C24.869 16.1069 24.7564 15.9373 24.68 15.7507C24.6036 15.5641 24.5649 15.3642 24.5662 15.1626Z"
    fill="#F7B78C" />
  <path
    d="M26.1956 16.5803C26.0041 16.5825 25.8142 16.5463 25.637 16.474C25.4597 16.4017 25.2987 16.2948 25.1634 16.1594C25.0281 16.024 24.9212 15.8629 24.849 15.6856C24.7769 15.5083 24.7408 15.3184 24.7431 15.127C24.7431 14.4096 25.3218 13.6496 26.2916 13.6985C26.9876 13.7341 27.6427 14.3288 27.6329 15.1616C27.6231 15.9519 26.9627 16.5928 26.1956 16.5803Z"
    fill="#F6BB93" />
  <path
    d="M26.1867 16.4631C25.4329 16.4543 24.8596 15.8729 24.8604 15.1325C24.8588 14.9581 24.892 14.7852 24.9583 14.6239C25.0246 14.4626 25.1225 14.3162 25.2463 14.1934C25.3701 14.0706 25.5173 13.9739 25.6791 13.9089C25.8409 13.8439 26.0141 13.8121 26.1884 13.8151C26.9582 13.824 27.5076 14.3698 27.5147 15.1431C27.52 15.8445 26.9813 16.4534 26.1867 16.4631Z"
    fill="#F6BF9A" />
  <path
    d="M26.2133 16.3451C25.5467 16.3371 24.9778 15.8323 24.9778 15.1149C24.9787 14.4145 25.4871 13.8723 26.2178 13.874C26.9422 13.8758 27.4169 14.3834 27.4533 15.0296C27.4978 15.8127 26.8987 16.3407 26.2133 16.3451Z"
    fill="#F5C3A1" />
  <path
    d="M25.0969 15.1157C25.0874 14.8443 25.1798 14.5793 25.3557 14.3725C25.5317 14.1658 25.7786 14.0323 26.048 13.9983C26.9156 13.9219 27.3395 14.5201 27.3369 15.1094C27.336 15.745 26.88 16.2188 26.2009 16.2277C25.5893 16.2357 25.08 15.721 25.0969 15.1157Z"
    fill="#F5C6A6" />
  <path
    d="M26.7849 14.2002L26.8338 14.2331C26.8551 14.2482 26.8809 14.2598 26.896 14.282C26.9049 14.3051 26.9431 14.322 26.9111 14.3549C26.8755 14.3638 26.8551 14.3389 26.8311 14.3211C26.6053 14.1442 26.3511 14.0989 26.072 14.1487C25.5289 14.2465 25.1973 14.826 25.3635 15.3353C25.4827 15.7007 25.7351 15.9273 26.1147 15.9931C26.4213 16.0482 26.6835 15.9513 26.9075 15.7318C27.009 15.6361 27.0861 15.5176 27.1324 15.386C27.2427 15.0642 27.2 14.7638 26.9973 14.4882C26.9778 14.4616 26.944 14.4385 26.9609 14.3958C26.9982 14.3753 27.0151 14.4118 27.0391 14.4251C27.1742 14.6029 27.2569 14.802 27.2755 15.026C27.2805 15.223 27.2323 15.4177 27.136 15.5896C26.9449 15.906 26.672 16.0856 26.3004 16.1078C26.0107 16.1256 25.7582 16.0349 25.5475 15.8393C25.3828 15.6896 25.2721 15.4896 25.2329 15.2705C25.1698 14.9193 25.2684 14.6127 25.5049 14.3567C25.6578 14.1905 25.8551 14.0936 26.0791 14.0562C26.088 14.0527 26.0969 14.0518 26.1058 14.0509C26.1324 14.0482 26.1591 14.0553 26.1858 14.0536C26.3742 14.0411 26.5547 14.066 26.7191 14.1718C26.7387 14.1851 26.7635 14.1896 26.7849 14.2002Z"
    fill="#F4CAAE" />
  <path
    d="M27.2435 14.6669C27.3004 14.7344 27.3058 14.8216 27.3218 14.9024C27.3644 15.1336 27.3218 15.3558 27.2151 15.5638C27.1432 15.7131 27.0372 15.8434 26.9056 15.9442C26.7741 16.0451 26.6207 16.1136 26.4578 16.1442C26.096 16.2198 25.7804 16.1176 25.5067 15.8731C25.3297 15.7171 25.212 15.5049 25.1733 15.2722C25.144 15.1214 25.1472 14.9661 25.1827 14.8166C25.2183 14.6671 25.2854 14.527 25.3795 14.4056C25.5564 14.1718 25.7947 14.0411 26.0809 13.9913C26.0933 13.9904 26.1075 13.9949 26.12 13.9967C26.1262 14.026 26.1004 14.0287 26.0862 14.0411C25.996 14.055 25.9082 14.0819 25.8258 14.1211C25.792 14.1318 25.7555 14.138 25.728 14.162C25.7227 14.1673 25.7164 14.1709 25.7102 14.1744C25.673 14.1946 25.6389 14.2201 25.6089 14.25C25.5911 14.2685 25.5721 14.2857 25.552 14.3015C25.5203 14.3204 25.4942 14.3474 25.4764 14.3798C25.4693 14.3895 25.4622 14.3993 25.4533 14.4073C25.3231 14.5582 25.244 14.7465 25.2275 14.9451C25.192 15.2429 25.2729 15.5033 25.4587 15.7327C25.6409 15.9558 25.8818 16.0767 26.1671 16.0971C26.4115 16.1149 26.64 16.0642 26.8409 15.9149L26.8595 15.9007C26.8916 15.8849 26.9185 15.8602 26.9369 15.8296C26.9648 15.7926 26.9977 15.7597 27.0347 15.7318C27.0548 15.7201 27.0714 15.7032 27.0827 15.6829L27.0942 15.6669C27.1076 15.6524 27.1196 15.6367 27.1298 15.6198L27.1413 15.602C27.1543 15.584 27.162 15.5628 27.1635 15.5407C27.1662 15.5265 27.173 15.5135 27.1831 15.5033C27.2044 15.4873 27.2071 15.4624 27.2124 15.4384C27.2284 15.3816 27.2489 15.3256 27.2613 15.2678C27.2764 15.2411 27.2773 15.2136 27.2764 15.1842C27.2764 15.1673 27.2764 15.1495 27.2853 15.1335C27.3093 15.0002 27.2684 14.8767 27.2409 14.7496C27.2355 14.7211 27.2169 14.6927 27.2435 14.666"
    fill="#F5C6A7" />
  <path
    d="M27.2631 14.6961C27.2844 14.8019 27.3075 14.9068 27.3271 15.0125C27.336 15.0641 27.3502 15.1183 27.3164 15.1681C27.3067 15.1663 27.3004 15.161 27.2987 15.1521C27.303 14.8915 27.2152 14.6378 27.0507 14.4357C27.04 14.425 27.0391 14.4143 27.0507 14.4037C27.1404 14.4641 27.1751 14.5601 27.224 14.6472C27.2347 14.6659 27.2391 14.6872 27.2631 14.6961ZM26.8062 14.1681C26.7235 14.1619 26.6595 14.1041 26.5822 14.0792C26.4533 14.0372 26.3175 14.0203 26.1822 14.0294C26.1538 14.0303 26.1262 14.0277 26.0995 14.0268C26.096 13.9832 26.128 13.9957 26.1502 13.9912H26.3182C26.4418 13.9957 26.5582 14.0321 26.672 14.0801L26.8062 14.1681Z"
    fill="#F4C8AA" />
  <path
    d="M26.7218 14.1199L26.3351 13.9955C26.4747 13.9741 26.6018 14.0283 26.7218 14.1199ZM27.1093 14.4008V14.4417C27.0898 14.4301 27.0773 14.3972 27.0524 14.4008C27.0293 14.3919 27.0151 14.3715 27.008 14.3386C27.0115 14.303 26.9884 14.2852 26.9795 14.2586C26.9884 14.2443 27 14.2461 27.0089 14.2586C27.0355 14.3137 27.0702 14.3608 27.1093 14.4008ZM26.984 14.3386H26.9369C26.9036 14.3181 26.8785 14.2866 26.8658 14.2497C26.9227 14.2417 26.9591 14.2781 26.984 14.3386ZM26.1582 14.0212L26.0871 14.0817H26.0631C26.0507 14.0781 26.0427 14.0675 26.04 14.0515L26.0871 13.991C26.1138 13.991 26.1404 13.9857 26.1582 14.0212Z"
    fill="#F4C8AA" />
  <path
    d="M26.928 14.3422C26.9502 14.352 26.9662 14.368 26.9769 14.3894C26.9982 14.4551 27.0542 14.496 27.0871 14.5538C27.1938 14.7476 27.2418 14.9476 27.2089 15.1716C27.1828 15.3764 27.0898 15.5669 26.9443 15.7135C26.7988 15.8601 26.6091 15.9545 26.4044 15.9822C26.1013 16.0267 25.8427 15.9245 25.6258 15.7271C25.4558 15.5721 25.352 15.3575 25.336 15.128C25.312 14.8258 25.4089 14.5609 25.6355 14.3582C25.759 14.2389 25.9148 14.1585 26.0835 14.1271C26.2835 14.0916 26.4693 14.1076 26.656 14.1787C26.736 14.208 26.8018 14.256 26.8675 14.3058C26.8862 14.3209 26.9004 14.3414 26.928 14.3414"
    fill="#F4CCB1" />
  <path
    d="M26.1084 14.0498L26.1244 14.0658C25.976 14.1049 25.8311 14.1556 25.7031 14.2436C25.5913 14.3217 25.4961 14.4214 25.4232 14.5367C25.3502 14.652 25.301 14.7806 25.2783 14.9152C25.2557 15.0497 25.26 15.1874 25.2911 15.3203C25.3222 15.4531 25.3795 15.5784 25.4596 15.6889C25.6302 15.9165 25.8489 16.0578 26.1209 16.0996C26.2722 16.1274 26.4279 16.1195 26.5756 16.0764C26.7233 16.0334 26.8589 15.9564 26.9716 15.8516C27.1689 15.6711 27.2871 15.4516 27.3076 15.1822C27.3076 15.1751 27.3164 15.1689 27.3218 15.1618L27.3378 15.1778V15.2285C27.3173 15.2525 27.3413 15.2871 27.3218 15.3111L27.272 15.4942C27.2587 15.5156 27.2551 15.5414 27.2382 15.5609C27.224 15.5671 27.2222 15.5805 27.2222 15.5929C27.2089 15.6151 27.2053 15.6409 27.1884 15.6596C27.1724 15.6827 27.1529 15.7031 27.1378 15.7262C27.1236 15.7494 27.1031 15.7689 27.0889 15.792C27.0493 15.8185 27.0155 15.8527 26.9893 15.8925C26.9582 15.9102 26.936 15.9405 26.9058 15.9591C26.5707 16.1929 26.2107 16.2347 25.8409 16.0649C25.669 15.9925 25.5204 15.8744 25.4111 15.7232C25.3018 15.5721 25.2362 15.3939 25.2213 15.208C25.1884 14.9102 25.2729 14.648 25.4613 14.4151L25.4773 14.3982C25.4997 14.3657 25.5281 14.3376 25.5609 14.3156C25.5707 14.2936 25.588 14.276 25.6098 14.2658C25.648 14.2365 25.6898 14.2134 25.7262 14.1831C25.7564 14.16 25.7929 14.1494 25.8267 14.1325C25.9182 14.0969 26.008 14.0525 26.1084 14.0498Z"
    fill="#F4C8AA" />
  <path
    d="M25.4738 14.4036C25.4169 14.5023 25.352 14.5974 25.3076 14.704C25.239 14.8794 25.2224 15.0708 25.26 15.2552C25.2975 15.4397 25.3875 15.6095 25.5191 15.744C25.6613 15.8854 25.8213 15.9912 26.0187 16.0445C26.3271 16.1298 26.6116 16.0765 26.88 15.9165C26.8933 15.9085 26.9102 15.9049 26.9244 15.8987C26.8178 16.0143 26.6693 16.0587 26.5218 16.0854C26.2196 16.1423 25.9324 16.1023 25.6764 15.9254C25.5493 15.8436 25.4424 15.734 25.3636 15.6051C25.2848 15.4761 25.2361 15.3309 25.2213 15.1805C25.1886 14.9293 25.2542 14.6751 25.4044 14.4712C25.4218 14.4434 25.4456 14.4202 25.4738 14.4036ZM25.6862 14.1094C25.6755 14.1358 25.6596 14.1598 25.6394 14.1799C25.6193 14.2001 25.5953 14.216 25.5689 14.2267C25.5795 14.2003 25.5954 14.1762 25.6156 14.1561C25.6357 14.1359 25.6598 14.12 25.6862 14.1094ZM25.568 14.2845C25.5389 14.333 25.4987 14.3738 25.4507 14.4036C25.4547 14.3737 25.4684 14.3459 25.4898 14.3245C25.5112 14.3031 25.5389 14.2894 25.5689 14.2854"
    fill="#F4C8AA" />
  <path
    d="M26.8658 15.8987C26.8951 15.8596 26.9236 15.8205 26.984 15.816C26.9538 15.8543 26.9253 15.8934 26.8658 15.8987ZM25.8036 14.1094C25.7756 14.1499 25.7339 14.179 25.6862 14.1912C25.7129 14.128 25.7547 14.1103 25.8036 14.1094ZM27.0427 15.7805C27.0453 15.7396 27.0809 15.7156 27.1262 15.6978C27.1236 15.7396 27.0871 15.7627 27.0427 15.7805Z"
    fill="#F4C8AA" />
  <path
    d="M27.1022 15.7733C27.104 15.7289 27.144 15.7022 27.192 15.6826C27.1902 15.7289 27.1511 15.7537 27.1022 15.7733ZM27.2862 15.2969C27.3067 15.2533 27.2284 15.2044 27.3707 15.168C27.3502 15.2124 27.4276 15.2604 27.2862 15.2969ZM27.2178 15.5813C27.2249 15.5457 27.2489 15.5129 27.3084 15.4897C27.3129 15.5289 27.2996 15.5644 27.2178 15.5813ZM27.1493 15.6631C27.1564 15.6302 27.1778 15.6009 27.2311 15.5804C27.2347 15.616 27.224 15.648 27.1493 15.6631Z"
    fill="#F4C8AA" />
  <path
    d="M25.4507 14.9904C25.4468 14.7673 25.5291 14.5514 25.6804 14.3875C25.8318 14.2236 26.0405 14.1243 26.2631 14.1104C26.8196 14.0819 27.2142 14.4597 27.2196 14.9877C27.2249 15.4855 26.8409 15.8766 26.336 15.8748C26.2192 15.877 26.1032 15.8556 25.9949 15.8119C25.8865 15.7683 25.7881 15.7032 25.7055 15.6207C25.6228 15.5381 25.5577 15.4398 25.5139 15.3315C25.4701 15.2232 25.4486 15.1072 25.4507 14.9904Z"
    fill="#F3CFB7" />
  <path
    d="M26.3076 14.2266C26.7876 14.2515 27.1058 14.5803 27.1013 15.0275C27.0978 15.463 26.7778 15.8115 26.3022 15.8159C26.1932 15.8163 26.0854 15.7942 25.9853 15.7509C25.8853 15.7076 25.7953 15.6442 25.7211 15.5644C25.6468 15.4847 25.5897 15.3905 25.5536 15.2877C25.5175 15.1849 25.503 15.0757 25.5111 14.967C25.5265 14.7662 25.6171 14.5785 25.7647 14.4415C25.9123 14.3044 26.1061 14.2271 26.3076 14.2266Z"
    fill="#F3D2BC" />
  <path
    d="M27.0409 14.9644C27.0427 15.0612 27.025 15.1574 26.9888 15.2471C26.9525 15.3369 26.8986 15.4185 26.8301 15.487C26.7617 15.5554 26.6801 15.6094 26.5903 15.6456C26.5005 15.6818 26.4044 15.6995 26.3076 15.6977C26.2082 15.6984 26.1097 15.6789 26.018 15.6404C25.9264 15.6019 25.8436 15.5452 25.7745 15.4737C25.7054 15.4022 25.6516 15.3175 25.6163 15.2246C25.5809 15.1317 25.5648 15.0326 25.5689 14.9333C25.5796 14.5546 25.9191 14.2222 26.3191 14.2266C26.7244 14.2302 27.072 14.6008 27.0409 14.9644Z"
    fill="#F3D4C0" />
  <path
    d="M27.0418 14.9758C27.0385 15.1542 26.9648 15.3241 26.8367 15.4483C26.7087 15.5726 26.5366 15.6411 26.3582 15.639C26.2689 15.6398 26.1803 15.6227 26.0977 15.5885C26.0151 15.5544 25.9403 15.5039 25.8776 15.4402C25.815 15.3765 25.7658 15.3008 25.7331 15.2176C25.7004 15.1345 25.6847 15.0456 25.6871 14.9563C25.6942 14.5518 25.9884 14.287 26.368 14.2852C26.4582 14.2845 26.5476 14.3021 26.6308 14.3368C26.714 14.3714 26.7894 14.4225 26.8525 14.487C26.9156 14.5515 26.965 14.628 26.9978 14.712C27.0306 14.796 27.0462 14.8857 27.0436 14.9758"
    fill="#F2D8C6" />
  <path
    d="M26.3938 15.5211C26.3165 15.522 26.2399 15.5074 26.1683 15.4784C26.0967 15.4493 26.0316 15.4064 25.9768 15.3519C25.922 15.2975 25.8785 15.2327 25.8489 15.1614C25.8193 15.09 25.8042 15.0135 25.8044 14.9362C25.8151 14.5647 26.0569 14.3469 26.3956 14.3442C26.7422 14.3425 26.9787 14.6091 26.9831 14.9309C26.9843 15.0087 26.9699 15.0859 26.9407 15.158C26.9115 15.2301 26.8682 15.2956 26.8132 15.3506C26.7583 15.4057 26.6928 15.4491 26.6208 15.4784C26.5487 15.5077 26.4715 15.5222 26.3938 15.5211Z"
    fill="#F2DBCC" />
  <path
    d="M26.3671 15.4021C26.3022 15.407 26.237 15.3984 26.1756 15.3767C26.1143 15.3551 26.0581 15.3209 26.0107 15.2763C25.9632 15.2317 25.9256 15.1778 25.9002 15.1178C25.8748 15.0579 25.8622 14.9934 25.8631 14.9283C25.8649 14.6972 26.08 14.4501 26.392 14.4634C26.6293 14.4723 26.8702 14.6901 26.8658 14.939C26.8613 15.1941 26.6258 15.4305 26.3671 15.4021Z"
    fill="#F1DED1" />
  <path
    d="M26.8622 14.8737C26.8978 15.0737 26.6524 15.2923 26.4578 15.2861C26.2231 15.2772 26.0373 15.0834 26.04 14.8728C26.0427 14.6417 26.2222 14.4701 26.4587 14.4621C26.6498 14.455 26.8951 14.6577 26.8631 14.8737"
    fill="#F1E1D7" />
  <path
    d="M26.7458 14.9006C26.7698 15.0668 26.6035 15.2241 26.4302 15.2268C26.2658 15.2303 26.088 15.0579 26.0995 14.8952C26.1034 14.8108 26.1395 14.731 26.2003 14.6723C26.2611 14.6137 26.3421 14.5805 26.4267 14.5797C26.4689 14.5787 26.5108 14.5863 26.55 14.6021C26.5892 14.6178 26.6247 14.6414 26.6545 14.6713C26.6843 14.7013 26.7076 14.7369 26.7232 14.7762C26.7387 14.8155 26.7461 14.8575 26.7449 14.8997"
    fill="#F1E4DC" />
  <path
    d="M26.2178 14.8389C26.2053 14.7154 26.3244 14.5874 26.4444 14.5794C26.5724 14.5723 26.6933 14.7083 26.6889 14.8496C26.6844 14.9874 26.592 15.1109 26.4542 15.1091C26.3235 15.1083 26.2124 15.0131 26.2178 14.8389Z"
    fill="#F0E7E1" />
  <path
    d="M26.4755 14.6978C26.5689 14.6978 26.6311 14.7573 26.6302 14.8453C26.629 14.8851 26.6122 14.9228 26.5835 14.9502C26.5547 14.9777 26.5162 14.9927 26.4764 14.992C26.3938 14.992 26.3369 14.9324 26.3342 14.8453C26.3342 14.7502 26.3831 14.6978 26.4755 14.6978Z"
    fill="#F0EBE7" />
  <path
    d="M44.7964 12.4311C44.7963 12.5639 44.7434 12.6913 44.6494 12.7851C44.5554 12.879 44.428 12.9316 44.2951 12.9315C44.1623 12.9314 44.0349 12.8785 43.9411 12.7845C43.8472 12.6905 43.7945 12.563 43.7947 12.4302C43.7949 12.2973 43.8479 12.17 43.942 12.0763C44.0361 11.9825 44.1636 11.9299 44.2964 11.9302C44.4293 11.9304 44.5566 11.9834 44.6504 12.0775C44.7441 12.1716 44.7967 12.2991 44.7964 12.432"
    fill="white" />
  <path
    d="M44.2889 12.9813C44.1795 12.9813 44.0725 12.9488 43.9815 12.888C43.8906 12.8271 43.8197 12.7407 43.7779 12.6395C43.7361 12.5384 43.7253 12.4272 43.7467 12.3199C43.7682 12.2126 43.8211 12.114 43.8986 12.0368C43.9761 11.9595 44.0747 11.907 44.1821 11.8859C44.2895 11.8648 44.4007 11.876 44.5017 11.9181C44.6027 11.9602 44.6889 12.0313 44.7495 12.1225C44.81 12.2137 44.8421 12.3207 44.8418 12.4302C44.8418 12.7342 44.5938 12.9813 44.2889 12.9813Z"
    fill="black" />
  <path
    d="M44.56 12.4998C44.5467 12.5024 44.5316 12.5024 44.5182 12.5033C44.3031 12.5202 44.216 12.4278 44.2889 12.2571C44.3156 12.1949 44.3867 12.2429 44.4284 12.2251C44.4764 12.2269 44.5173 12.226 44.5591 12.2322C44.6524 12.2464 44.7129 12.2855 44.7102 12.3718C44.7076 12.4535 44.6462 12.4855 44.56 12.4998ZM44.8587 12.8047C44.8044 12.7353 44.7467 12.666 44.6907 12.5958C44.8658 12.5193 44.928 12.4393 44.9031 12.3202C44.88 12.2047 44.7787 12.1335 44.5849 12.1175C44.4551 12.1069 44.3236 12.1175 44.192 12.1087C44.0969 12.1024 44.0871 12.1353 44.088 12.2011C44.0924 12.4322 44.0907 12.6651 44.0898 12.8962C44.0898 12.9522 44.08 12.9949 44.184 12.9967C44.2969 12.9984 44.2907 12.9531 44.288 12.8918C44.2844 12.834 44.2951 12.7744 44.2853 12.7175C44.2667 12.6047 44.3476 12.6109 44.4364 12.6287C44.4871 12.6375 44.528 12.666 44.5573 12.7015C44.6071 12.762 44.6551 12.8233 44.7013 12.8864C44.792 13.0082 44.792 13.0082 44.9796 12.9753C44.9378 12.9184 44.9004 12.8607 44.8587 12.8064"
    fill="black" />
</svg>
