<svg width="49" height="30" fill="none" xmlns="http://www.w3.org/2000/svg">
  <path
    d="M45.6219 0.962158H3.57592C2.40336 0.962158 1.45282 1.9127 1.45282 3.08525V26.9145C1.45282 28.0871 2.40336 29.0376 3.57592 29.0376H45.6219C46.7945 29.0376 47.745 28.0871 47.745 26.9145V3.08525C47.745 1.9127 46.7945 0.962158 45.6219 0.962158Z"
    fill="white" stroke="#EAEAEA" />
  <path fill-rule="evenodd" clip-rule="evenodd"
    d="M10.5774 15.7885L9.23303 14.2109V14.5615L10.4913 15.7885" fill="url(#paint0_linear_123_4768)" />
  <path fill-rule="evenodd" clip-rule="evenodd"
    d="M14.8692 15.7885L15.2656 14.2109H14.5245L14.1281 15.7885" fill="url(#paint1_linear_123_4768)" />
  <path fill-rule="evenodd" clip-rule="evenodd"
    d="M13.8523 15.7885L14.2487 14.2109H9.25027L10.5774 15.7885" fill="url(#paint2_linear_123_4768)" />
  <path fill-rule="evenodd" clip-rule="evenodd"
    d="M8.64701 13.8956L7.35431 12.353V12.7387L8.56083 13.8956" fill="url(#paint3_linear_123_4768)" />
  <path fill-rule="evenodd" clip-rule="evenodd"
    d="M15.3346 13.8956L15.731 12.353H14.9898L14.5934 13.8956" fill="url(#paint4_linear_123_4768)" />
  <path fill-rule="evenodd" clip-rule="evenodd"
    d="M14.3349 13.8956L14.7141 12.353H7.35431L8.64701 13.8956" fill="url(#paint5_linear_123_4768)" />
  <path fill-rule="evenodd" clip-rule="evenodd"
    d="M14.4038 17.6468L14.8003 16.1042H14.0246L13.6454 17.6468" fill="url(#paint6_linear_123_4768)" />
  <path fill-rule="evenodd" clip-rule="evenodd"
    d="M12.5423 17.6468L11.1979 16.1042V16.4548L12.4562 17.6468" fill="url(#paint7_linear_123_4768)" />
  <path fill-rule="evenodd" clip-rule="evenodd"
    d="M13.3869 17.6468L13.7661 16.1042H11.1979L12.5423 17.6468" fill="url(#paint8_linear_123_4768)" />
  <path fill-rule="evenodd" clip-rule="evenodd"
    d="M41.5332 13.4047L41.4126 13.9306C41.3609 14.1409 41.2402 14.2286 40.9817 14.2286H40.2233C39.8786 14.2286 39.7752 14.2636 39.6718 14.3513C39.6028 14.4214 39.5683 14.5266 39.5683 14.6668C39.5683 14.7895 39.6201 14.8421 39.8096 14.8947L40.5853 15.1225C41.1023 15.2978 41.2747 15.4731 41.2747 15.8938C41.2747 16.297 41.1023 16.9456 40.8783 17.2611C40.6542 17.5415 40.3612 17.6818 39.9131 17.6818H38.0171C37.8792 17.6818 37.8447 17.5591 37.8447 17.4539L38.086 16.4898H38.1895C38.2584 16.6651 38.3963 16.7527 38.81 16.7527H39.5511C39.8269 16.7527 39.9648 16.7001 40.0337 16.5774C40.1199 16.5073 40.1716 16.3671 40.1716 16.2269C40.1716 16.0866 40.1199 16.0516 39.7579 15.9289L39.034 15.7536C38.6204 15.6134 38.448 15.403 38.448 15.0524C38.448 14.7019 38.6204 14.2286 38.7927 13.9306C38.9996 13.5449 39.3098 13.4047 39.8958 13.4047H41.5677H41.5332ZM23.1942 13.3697C22.3324 13.3697 21.8498 13.5449 21.4706 14.0708C21.0914 14.5441 20.7294 15.7536 20.7122 16.5249C20.7122 16.9806 20.8845 17.3487 21.2293 17.5065C21.4016 17.6292 21.7463 17.6818 22.3324 17.6818C22.9529 17.6818 23.3321 17.6292 23.5389 17.5065C23.7112 17.4188 23.7112 17.3662 23.8319 16.928L24.0043 16.3496H23.9008C23.6078 16.6651 23.2976 16.7878 22.5737 16.7878C22.229 16.7878 22.0566 16.7527 21.9532 16.6826C21.8153 16.6125 21.7808 16.5073 21.7808 16.332C21.7808 16.2444 21.7808 16.1568 21.8153 16.0691L21.8842 15.7185H23.6768C24.0732 15.7185 24.1939 15.7185 24.2628 15.5432C24.3834 15.3329 24.4869 14.807 24.4869 14.4915C24.5213 13.6852 24.1249 13.3346 23.1942 13.3346V13.3697ZM23.5389 15.0174H22.0566C22.2634 14.3513 22.4703 14.1409 23.0046 14.1409C23.401 14.1409 23.5906 14.2812 23.5906 14.5967L23.4872 15.0174H23.5389ZM36.4314 13.3697C35.5696 13.3697 35.087 13.5449 34.7078 14.0708C34.3286 14.5441 33.9666 15.7536 33.9494 16.5249C33.9494 16.9806 34.1218 17.3487 34.4148 17.5065C34.6389 17.6292 34.9836 17.6818 35.5524 17.6818C36.1556 17.6818 36.552 17.6292 36.7589 17.5065C36.8968 17.4188 36.9312 17.3662 37.0347 16.928L37.1725 16.3496H37.0691C36.8106 16.6651 36.552 16.7878 35.8109 16.7878C35.4662 16.7878 35.2421 16.7527 35.1559 16.6826C35.0353 16.6125 34.9836 16.5073 34.9836 16.332C34.9836 16.2444 34.9836 16.1568 35.018 16.0691L35.087 15.7185H36.8795C37.276 15.7185 37.3966 15.7185 37.4828 15.5432C37.5862 15.3329 37.6896 14.807 37.6896 14.4915C37.6896 13.7202 37.2932 13.3872 36.3625 13.3872L36.4314 13.3697ZM36.7761 15.0174H35.3283C35.5007 14.3513 35.7075 14.1409 36.2418 14.1409C36.6382 14.1409 36.8278 14.2812 36.8278 14.5967C36.8278 14.7019 36.8278 14.807 36.7416 15.0174H36.7761ZM28.0202 13.4047L27.8479 13.9656C27.8134 14.1935 27.71 14.2636 27.3997 14.2636H26.9688C26.5207 14.2636 26.4001 14.3863 26.2794 14.8947L25.6761 17.1384V17.3662C25.6761 17.4714 25.7279 17.5415 25.814 17.5415V17.6467H24.7799C24.6075 17.6467 24.573 17.524 24.6075 17.4188L25.521 13.7378V13.6852C25.521 13.58 25.4693 13.5099 25.3831 13.5099V13.4047H26.4173C26.5897 13.4047 26.6241 13.5274 26.5897 13.6326L26.5035 14.0182L26.8137 13.58C26.9344 13.4047 26.9516 13.4047 27.2101 13.4047H28.0202ZM20.8501 12.5633L19.7125 17.1208C19.678 17.2611 19.6091 17.4714 19.8159 17.5415C19.8159 17.5766 19.8159 17.6117 19.7814 17.6467H18.6439C18.4715 17.6467 18.437 17.524 18.4715 17.4188L19.0403 15.1401H17.4891L16.972 17.1033L16.9375 17.3487C16.9375 17.4188 16.972 17.4889 17.0754 17.524V17.6292H15.9206C15.7827 17.6292 15.7138 17.5065 15.7482 17.4013L16.8858 12.8438C16.8858 12.7036 16.972 12.4932 16.7651 12.4406C16.7651 12.4056 16.7651 12.3705 16.7996 12.3354H17.92C18.0923 12.3354 18.144 12.4406 18.1268 12.5458L17.6959 14.2987H19.2471L19.5918 12.8613L19.6436 12.6334C19.6436 12.5458 19.6091 12.4932 19.5057 12.4582V12.353H20.6777C20.8156 12.353 20.8845 12.4582 20.8501 12.5633ZM32.9153 13.3697H32.3637C32.0879 13.3697 31.9328 13.4398 31.7432 13.7202L31.5364 14.0708C31.5364 13.7202 31.364 13.3697 30.8469 13.3697H30.3299C29.899 13.3697 29.8128 13.5449 29.6921 13.6852L29.4508 14.0358L29.537 13.6326C29.537 13.5274 29.4853 13.4047 29.3646 13.4047H28.3305L28.296 13.4924C28.3994 13.4924 28.4339 13.5625 28.4339 13.6676V13.7378L27.5204 17.4188C27.5204 17.5065 27.5549 17.6292 27.6928 17.6292H28.7269V17.5415C28.658 17.5415 28.6063 17.4714 28.6063 17.3662C28.6063 17.3662 28.6063 17.2611 28.658 17.1559L29.2268 14.9122C29.3646 14.3513 29.5198 14.2812 29.8128 14.2461H30.0196C30.3126 14.2461 30.3988 14.4214 30.3643 14.5967L29.6749 17.4013C29.6404 17.524 29.6749 17.6467 29.8473 17.6467H30.8814V17.5415C30.7952 17.5415 30.7435 17.4714 30.7435 17.3662C30.7435 17.3662 30.7435 17.2611 30.7952 17.1559L31.364 14.9122C31.5364 14.3513 31.657 14.2812 31.95 14.2461H32.1569C32.4499 14.2461 32.5361 14.4214 32.5016 14.5967L31.8122 17.4013C31.7777 17.524 31.8466 17.6467 31.9845 17.6467H33.0187V17.5415C32.9325 17.5415 32.898 17.4714 32.898 17.3662V17.191L33.6392 14.2636C33.6909 14.0182 33.6909 13.4222 32.898 13.4222L32.9153 13.3697Z"
    fill="#2E3B42" />
  <defs>
    <linearGradient id="paint0_linear_123_4768" x1="10.113" y1="10.7052" x2="154.58" y2="147.133"
      gradientUnits="userSpaceOnUse">
      <stop stop-color="#E1F4FD" />
      <stop offset="0.2" stop-color="#B9DFF1" />
      <stop offset="0.5" stop-color="#57B7DB" />
      <stop offset="1" stop-color="#008ABD" />
    </linearGradient>
    <linearGradient id="paint1_linear_123_4768" x1="78.1763" y1="170.218" x2="50.9999" y2="16.4802"
      gradientUnits="userSpaceOnUse">
      <stop stop-color="#636466" />
      <stop offset="0.1" stop-color="#757679" />
      <stop offset="0.5" stop-color="#AFB1B4" />
      <stop offset="0.8" stop-color="#D7D8DA" />
      <stop offset="1" stop-color="#E6E7E8" />
    </linearGradient>
    <linearGradient id="paint2_linear_123_4768" x1="7.52668" y1="93.0911" x2="509.094" y2="93.0911"
      gradientUnits="userSpaceOnUse">
      <stop stop-color="#E1F4FD" />
      <stop offset="0.1" stop-color="#B2DBF0" />
      <stop offset="0.3" stop-color="#6CBEDF" />
      <stop offset="0.5" stop-color="#12A9D3" />
      <stop offset="0.6" stop-color="#009AC9" />
      <stop offset="0.8" stop-color="#0091C3" />
      <stop offset="0.9" stop-color="#008BBF" />
      <stop offset="1" stop-color="#008ABD" />
    </linearGradient>
    <linearGradient id="paint3_linear_123_4768" x1="-1.24436" y1="-10.4346" x2="152.783"
      y2="152.235" gradientUnits="userSpaceOnUse">
      <stop stop-color="#E1F4FD" />
      <stop offset="0.1" stop-color="#D6EEFA" />
      <stop offset="0.2" stop-color="#B9E1F4" />
      <stop offset="0.4" stop-color="#8ACEEC" />
      <stop offset="0.7" stop-color="#3EB8E1" />
      <stop offset="0.9" stop-color="#00A0D5" />
      <stop offset="1" stop-color="#0097D0" />
    </linearGradient>
    <linearGradient id="paint4_linear_123_4768" x1="78.9713" y1="166.608" x2="51.7749" y2="12.7564"
      gradientUnits="userSpaceOnUse">
      <stop stop-color="#636466" />
      <stop offset="0.1" stop-color="#757679" />
      <stop offset="0.5" stop-color="#AFB1B4" />
      <stop offset="0.8" stop-color="#D7D8DA" />
      <stop offset="1" stop-color="#E6E7E8" />
    </linearGradient>
    <linearGradient id="paint5_linear_123_4768" x1="188.332" y1="95.7175" x2="447.257" y2="-124.594"
      gradientUnits="userSpaceOnUse">
      <stop stop-color="#E1F4FD" />
      <stop offset="0.1" stop-color="#C1E4F5" />
      <stop offset="0.2" stop-color="#83CBEA" />
      <stop offset="0.3" stop-color="#43B9E2" />
      <stop offset="0.5" stop-color="#00ABDB" />
      <stop offset="0.6" stop-color="#00A2D6" />
      <stop offset="0.7" stop-color="#009BD2" />
      <stop offset="0.9" stop-color="#0098D0" />
      <stop offset="1" stop-color="#0097D0" />
    </linearGradient>
    <linearGradient id="paint6_linear_123_4768" x1="79.597" y1="170.359" x2="52.3867" y2="16.4291"
      gradientUnits="userSpaceOnUse">
      <stop stop-color="#636466" />
      <stop offset="0.1" stop-color="#757679" />
      <stop offset="0.5" stop-color="#AFB1B4" />
      <stop offset="0.8" stop-color="#D7D8DA" />
      <stop offset="1" stop-color="#E6E7E8" />
    </linearGradient>
    <linearGradient id="paint7_linear_123_4768" x1="14.2651" y1="16.1042" x2="164.975" y2="160.179"
      gradientUnits="userSpaceOnUse">
      <stop stop-color="#E1F4FD" />
      <stop offset="0.3" stop-color="#74BCDB" />
      <stop offset="0.7" stop-color="#0096C0" />
      <stop offset="0.9" stop-color="#0083B0" />
      <stop offset="1" stop-color="#007CAB" />
    </linearGradient>
    <linearGradient id="paint8_linear_123_4768" x1="4.30355" y1="75.5245" x2="240.778" y2="131.414"
      gradientUnits="userSpaceOnUse">
      <stop stop-color="#E1F4FD" />
      <stop offset="0.1" stop-color="#B6DCEF" />
      <stop offset="0.3" stop-color="#60B4D6" />
      <stop offset="0.6" stop-color="#0099C3" />
      <stop offset="0.8" stop-color="#0088B5" />
      <stop offset="0.9" stop-color="#007FAD" />
      <stop offset="1" stop-color="#007CAB" />
    </linearGradient>
  </defs>
</svg>
