<svg width="48" height="48" viewBox="0 0 48 48" fill="none" xmlns="http://www.w3.org/2000/svg">
<path d="M44 11H4V37H44V11Z" fill="#FFF48D"/>
<path d="M6.93631 18.8053V29.2097C6.93631 29.7078 7.34592 30.1151 7.84631 30.1151H14.0927C18.8151 30.1151 20.8617 27.4843 20.8617 23.9938C20.8617 20.5033 18.8144 17.8999 14.092 17.8999H7.84555C7.34516 17.8999 6.93631 18.3072 6.93631 18.8053Z" fill="white"/>
<path d="M11.1172 20.4539V28.142H14.4788C17.5314 28.142 18.8549 26.4258 18.8549 23.9993C18.8549 21.5729 17.5307 19.875 14.4788 19.875H11.6992C11.3765 19.875 11.1172 20.1366 11.1172 20.4539Z" fill="#CC0066"/>
<path fill-rule="evenodd" clip-rule="evenodd" d="M8.65952 29.2868H14.0913C17.9083 29.2868 20.0143 27.408 20.0143 23.9984C20.0143 22.0335 19.2454 18.7329 14.0913 18.7329H8.65952C8.17744 18.7329 7.78613 19.1219 7.78613 19.6025V28.418C7.78613 28.8978 8.17744 29.2868 8.65952 29.2868ZM8.07675 19.6025C8.07675 19.2813 8.3361 19.0228 8.65876 19.0228H14.0905C16.192 19.0228 19.7222 19.6704 19.7222 23.9984C19.7222 27.2219 17.7206 28.9969 14.0905 28.9969H8.65952C8.33686 28.9969 8.07752 28.7391 8.07752 28.4172L8.07675 19.6025Z" fill="#232323"/>
<path fill-rule="evenodd" clip-rule="evenodd" d="M12.7704 22.8808C12.6682 22.8442 12.5614 22.8259 12.4454 22.8259V22.8213H11.6758V24.6779H12.4546C12.5927 24.6779 12.7124 24.6505 12.8154 24.6047C12.9176 24.5544 13.0023 24.4903 13.0694 24.4079C13.1365 24.3255 13.1853 24.2248 13.2204 24.1104C13.2517 23.996 13.2692 23.8724 13.2692 23.7351C13.2692 23.5795 13.2471 23.4468 13.2067 23.3324C13.1625 23.2225 13.1045 23.1264 13.0335 23.0486C12.958 22.9754 12.8734 22.9159 12.7711 22.8793L12.7704 22.8808ZM12.5881 24.3126C12.5301 24.3309 12.4767 24.34 12.4187 24.34V24.3446H12.0671V23.1737H12.3516C12.4492 23.1737 12.5293 23.1874 12.5965 23.2149C12.6636 23.2424 12.717 23.2881 12.7566 23.3385C12.7963 23.3888 12.8276 23.4575 12.8459 23.5307C12.8634 23.6039 12.8726 23.6909 12.8726 23.7824C12.8726 23.8877 12.8589 23.9701 12.8329 24.0433C12.8062 24.1165 12.7704 24.1714 12.7307 24.2172C12.6911 24.263 12.6415 24.2943 12.5881 24.3126Z" fill="white"/>
<path d="M14.8759 22.8267V23.17H13.9232V23.5681H14.7997V23.8839H13.9232V24.337H14.8981V24.6803H13.5273V22.8237H14.8759V22.8282V22.8267Z" fill="white"/>
<path fill-rule="evenodd" clip-rule="evenodd" d="M16.9138 24.6833L16.2372 22.8267H15.8237L15.1426 24.6833H15.543L15.6857 24.2714H16.3623L16.5003 24.6833H16.9138ZM16.032 23.2836L16.2593 23.9647H15.7925L16.0282 23.2836H16.032Z" fill="white"/>
<path d="M17.5599 22.8262V24.3404H18.441V24.6836H17.1641V22.827L17.5599 22.8262Z" fill="white"/>
<path d="M9.55524 24.7107C10.0373 24.7107 10.4279 24.3201 10.4279 23.8373C10.4279 23.3545 10.0373 22.9639 9.55524 22.9639C9.07316 22.9639 8.68262 23.3545 8.68262 23.8373C8.68262 24.3201 9.07316 24.7107 9.55524 24.7107Z" fill="#232323"/>
<path d="M10.0738 28.2036C9.39802 28.2036 8.85645 27.6201 8.85645 26.9031V25.8878C8.85645 25.5293 9.12723 25.2349 9.46743 25.2349C9.80764 25.2349 10.0784 25.5247 10.0784 25.8878V28.2036H10.0738Z" fill="#232323"/>
<path d="M37.0342 24.0496C37.0342 23.029 37.7603 22.0991 39.0144 22.0991C40.2684 22.0991 40.9999 23.0297 40.9999 24.0496C40.9999 25.0694 40.2737 26 39.0144 26C37.7603 26 37.0342 25.0694 37.0342 24.0496ZM39.8977 24.0496C39.8977 23.5576 39.5735 23.1037 39.0144 23.1037C38.4552 23.1037 38.1311 23.5583 38.1311 24.0496C38.1311 24.5408 38.4606 24.9962 39.0144 24.9962C39.5681 24.9962 39.8977 24.5416 39.8977 24.0496Z" fill="#1D1C1C"/>
<path d="M36.2635 24.7741C36.6815 24.5361 36.9324 24.0815 36.9324 23.5796C36.9324 22.8344 36.3939 22.1997 35.5579 22.1997H33.8027V25.9H34.8897V24.9541H35.0934L35.715 25.9H36.995L36.2635 24.7741ZM35.339 24.1021H34.8897V23.0556H35.3443C35.6372 23.0556 35.8249 23.2936 35.8249 23.5788C35.8249 23.8641 35.6311 24.1021 35.339 24.1021Z" fill="#1D1C1C"/>
<path d="M28.8397 22.1953L28.1875 24.4005L27.5513 22.1953H26.6856L26.0441 24.4005L25.3972 22.1953H24.25L25.5643 25.8887H26.5078L27.1181 23.878L27.723 25.8887H28.6719L29.9861 22.1953H28.8397Z" fill="#1D1C1C"/>
<path d="M31.6327 24.9871H31.6305C31.2239 24.9871 30.9386 24.7415 30.8166 24.4166H33.5786C33.6007 24.2945 33.6122 24.1694 33.6122 24.0428C33.6122 23.0252 32.8883 22.0969 31.6327 22.0962V23.0985C32.0416 23.0992 32.3238 23.3448 32.4451 23.669H29.6869C29.6648 23.7911 29.6533 23.9162 29.6533 24.0428C29.6533 25.0611 30.378 25.9902 31.6297 25.9902H31.632L31.6327 24.9871Z" fill="#1D1C1C"/>
<path d="M31.6288 25.9891C31.6716 25.9891 31.7135 25.9876 31.7547 25.986C32.0087 25.9731 32.2398 25.9212 32.4458 25.8381C32.6517 25.7549 32.8325 25.6397 32.9858 25.5009C33.1399 25.3621 33.2665 25.1996 33.3649 25.0204C33.4542 24.8571 33.5198 24.6809 33.561 24.4971H32.4099C32.3863 24.5459 32.3588 24.5932 32.3275 24.6367C32.2848 24.6969 32.2345 24.7511 32.1773 24.7976C32.1201 24.8449 32.056 24.8846 31.9858 24.9151C31.9156 24.9456 31.8386 24.967 31.7555 24.9784C31.715 24.9837 31.6731 24.9868 31.6296 24.9868C31.371 24.9868 31.1613 24.8869 31.011 24.7305L30.2627 25.4872C30.5953 25.7946 31.0568 25.9891 31.6288 25.9891Z" fill="url(#paint0_linear_1521_737)"/>
<path d="M31.6299 22.0952C30.5681 22.0952 29.8854 22.7634 29.7031 23.5872H30.8504C30.9877 23.3035 31.2577 23.0975 31.6299 23.0975C31.9266 23.0975 32.157 23.2257 32.3073 23.4194L33.0624 22.6559C32.7253 22.3141 32.2393 22.0952 31.6299 22.0952Z" fill="url(#paint1_linear_1521_737)"/>
<path d="M22.5422 28.1213C22.4583 28.1213 22.3896 28.0527 22.3896 27.9688V20.0359C22.3896 19.952 22.4583 19.8833 22.5422 19.8833C22.6261 19.8833 22.6948 19.952 22.6948 20.0359V27.9688C22.6948 28.0527 22.6261 28.1213 22.5422 28.1213Z" fill="#1D1C1C"/>
<defs>
<linearGradient id="paint0_linear_1521_737" x1="32.9996" y1="23.8266" x2="31.2818" y2="25.9296" gradientUnits="userSpaceOnUse">
<stop offset="0.02" stop-color="#1D1C1C" stop-opacity="0"/>
<stop offset="0.68" stop-color="#1D1C1C"/>
</linearGradient>
<linearGradient id="paint1_linear_1521_737" x1="30.0044" y1="24.273" x2="31.7649" y2="22.5331" gradientUnits="userSpaceOnUse">
<stop offset="0.02" stop-color="#1D1C1C" stop-opacity="0"/>
<stop offset="0.68" stop-color="#1D1C1C"/>
</linearGradient>
</defs>
</svg>
