<svg width="48" height="36" fill="none" xmlns="http://www.w3.org/2000/svg">
  <mask id="mask0_97_4249" style="mask-type:luminance" maskUnits="userSpaceOnUse" x="0" y="0"
    width="48" height="36">
    <path d="M48 0H0V36H48V0Z" fill="white" />
  </mask>
  <g mask="url(#mask0_97_4249)">
    <path d="M48 0H0V36H48V0Z" fill="white" />
    <path fill-rule="evenodd" clip-rule="evenodd" d="M4.18469 0H43.5704V36H4.18469V0Z"
      fill="#F7FCFF" />
    <path
      d="M1.0011 2.24156L-1.6875 0.260254V3.60004V33.5999V36.9397L1.0011 34.9585L21.3558 19.9585L23.1994 18.6L21.3558 17.2416L1.0011 2.24156Z"
      fill="#F7FCFF" stroke="#E31D1C" stroke-width="1.6875" />
    <path
      d="M47.0252 2.22277L49.6876 0.338379V3.60017V33.6001V36.8619L47.0252 34.9777L25.832 19.9776L23.886 18.6002L25.832 17.2228L47.0252 2.22277Z"
      fill="#F7FCFF" stroke="#E31D1C" stroke-width="1.6875" />
    <path fill-rule="evenodd" clip-rule="evenodd"
      d="M21.0156 7.05475C21.0156 7.05475 19.9588 12.7522 23.6078 14.9404C23.6078 14.9404 27.111 12.6134 26.3242 7.05475C26.3242 7.05475 24.8196 6.44141 23.6234 6.44141C22.4272 6.44141 21.0156 7.05475 21.0156 7.05475Z"
      fill="#E31D1C" />
    <path fill-rule="evenodd" clip-rule="evenodd"
      d="M21.3944 8.24761C21.3944 8.24761 21.7846 8.03705 21.9778 8.24761C22.171 8.45817 22.3292 8.23017 22.3292 8.10315C22.3292 7.97613 22.636 7.54007 22.636 7.89385C22.636 8.24761 22.5406 8.44735 22.8102 8.44735C23.0798 8.44735 24.294 7.95867 24.5852 8.10315C24.8762 8.24761 25.099 8.21167 25.025 8.00439C24.951 7.79711 24.7608 7.66755 24.3946 7.78069C24.0282 7.89385 24.1148 8.00439 23.7982 8.00439C23.4816 8.00439 23.1292 7.89385 23.1292 7.89385C23.1292 7.89385 23.2282 7.70795 23.5896 7.84017C23.951 7.97241 24.4496 7.67643 24.5852 7.67643C24.7206 7.67643 25.0938 7.66755 25.1308 7.78069C25.1678 7.89385 25.393 7.99767 25.2214 8.10315C25.0496 8.20863 24.7664 8.27469 24.9612 8.40983C25.1562 8.54497 25.6042 8.51893 25.6258 8.65949C25.6474 8.80007 25.8598 9.00999 25.7744 9.00999C25.6892 9.00999 25.5352 9.20795 25.3918 9.14767C25.2484 9.08739 25.2316 9.03447 25.369 8.98563C25.5066 8.93681 25.5052 8.73145 25.3918 8.73145C25.2784 8.73145 25.3338 8.80339 25.0754 8.73145C24.8172 8.65949 24.4754 8.57951 24.496 8.73145C24.5164 8.88337 24.6846 9.11659 24.3744 9.14767C24.0642 9.17875 23.919 9.30355 23.8586 9.20305C23.7982 9.10257 23.5824 8.96865 23.752 8.92571C23.9218 8.88277 24.084 9.07167 24.145 9.04083C24.2062 9.00999 24.3448 8.99281 24.2288 8.86213C24.1126 8.73145 23.9214 8.65451 24.0988 8.55669C24.276 8.45887 24.1362 8.45687 23.7982 8.65949C23.4602 8.86213 23.2722 9.03433 22.9756 9.00999C22.6788 8.98563 22.5678 9.01849 22.4724 8.98563C22.377 8.95279 21.9126 9.34857 21.7788 9.24811C21.645 9.14767 21.2134 9.10915 21.291 8.98563C21.3688 8.86213 21.4732 8.79855 21.5894 8.86213C21.7056 8.92571 21.821 8.98931 21.8994 8.92571C21.9778 8.86213 22.2042 8.64393 22.1472 8.60031C22.0902 8.55669 22.1454 8.40983 21.823 8.40983C21.5006 8.40983 21.3874 8.57351 21.3108 8.47037C21.2342 8.36725 21.3944 8.24761 21.3944 8.24761Z"
      fill="#FFD100" />
    <path fill-rule="evenodd" clip-rule="evenodd"
      d="M21.7164 10.12C21.7164 10.12 22.0596 9.93486 22.2294 10.12C22.3992 10.3051 22.5384 10.1046 22.5384 9.99298C22.5384 9.8813 22.808 9.49794 22.808 9.80896C22.808 10.12 22.7242 10.2956 22.9612 10.2956C23.1982 10.2956 24.2656 9.86596 24.5216 9.99298C24.7776 10.12 24.9734 10.0884 24.9084 9.90616C24.8434 9.72392 24.6762 9.61002 24.354 9.7095C24.032 9.80896 24.108 9.90616 23.8298 9.90616C23.5514 9.90616 23.2418 9.80896 23.2418 9.80896C23.2418 9.80896 23.3288 9.64554 23.6464 9.76178C23.9642 9.87804 24.4024 9.61782 24.5216 9.61782C24.6408 9.61782 24.9688 9.61002 25.0014 9.7095C25.0338 9.80896 25.232 9.90024 25.081 9.99298C24.93 10.0857 24.681 10.1438 24.8524 10.2626C25.0236 10.3814 25.4176 10.3585 25.4366 10.4821C25.4556 10.6057 25.6422 10.7902 25.5672 10.7902C25.4924 10.7902 25.357 10.9643 25.2308 10.9113C25.1048 10.8583 25.09 10.8118 25.2108 10.7688C25.3318 10.7259 25.3306 10.5454 25.2308 10.5454C25.1312 10.5454 25.1798 10.6086 24.9528 10.5454C24.7256 10.4821 24.4252 10.4118 24.4432 10.5454C24.4612 10.6789 24.6092 10.884 24.3364 10.9113C24.0636 10.9386 23.936 11.0483 23.8828 10.96C23.8298 10.8716 23.64 10.7539 23.7892 10.7162C23.9384 10.6784 24.081 10.8445 24.1348 10.8174C24.1886 10.7902 24.3104 10.7751 24.2082 10.6602C24.1062 10.5454 23.938 10.4777 24.094 10.3917C24.25 10.3057 24.1268 10.304 23.8298 10.4821C23.5326 10.6602 23.3674 10.8116 23.1066 10.7902C22.8458 10.7688 22.748 10.7977 22.6642 10.7688C22.5804 10.74 22.172 11.0879 22.0544 10.9996C21.9368 10.9113 21.5572 10.8774 21.6256 10.7688C21.694 10.6602 21.7856 10.6043 21.8878 10.6602C21.99 10.7162 22.0916 10.7721 22.1604 10.7162C22.2294 10.6602 22.4284 10.4684 22.3784 10.4301C22.3282 10.3917 22.3766 10.2626 22.0932 10.2626C21.8098 10.2626 21.7102 10.4065 21.643 10.3158C21.5756 10.2252 21.7164 10.12 21.7164 10.12Z"
      fill="#FFD100" />
    <path fill-rule="evenodd" clip-rule="evenodd"
      d="M22.1718 12.0201C22.1718 12.0201 22.432 11.8797 22.5608 12.0201C22.6896 12.1604 22.795 12.0084 22.795 11.9237C22.795 11.8391 22.9996 11.5484 22.9996 11.7842C22.9996 12.0201 22.9358 12.1532 23.1156 12.1532C23.2954 12.1532 24.1048 11.8274 24.299 11.9237C24.493 12.0201 24.6416 11.9961 24.5922 11.8579C24.5428 11.7197 24.416 11.6334 24.1718 11.7088C23.9278 11.7842 23.9854 11.8579 23.7742 11.8579C23.5632 11.8579 23.3284 11.7842 23.3284 11.7842C23.3284 11.7842 23.3944 11.6603 23.6352 11.7484C23.8762 11.8366 24.2086 11.6393 24.299 11.6393C24.3894 11.6393 24.638 11.6334 24.6628 11.7088C24.6874 11.7842 24.8376 11.8534 24.723 11.9237C24.6086 11.9941 24.4198 12.0381 24.5498 12.1282C24.6796 12.2183 24.9784 12.2009 24.9926 12.2947C25.007 12.3884 25.1486 12.5283 25.0918 12.5283C25.035 12.5283 24.9324 12.6603 24.8368 12.6201C24.7412 12.5799 24.7298 12.5446 24.8216 12.5121C24.9132 12.4795 24.9124 12.3426 24.8368 12.3426C24.7612 12.3426 24.798 12.3906 24.6258 12.3426C24.4536 12.2947 24.2258 12.2413 24.2394 12.3426C24.2532 12.4439 24.3652 12.5994 24.1584 12.6201C23.9516 12.6408 23.8548 12.724 23.8146 12.657C23.7742 12.59 23.6304 12.5008 23.7436 12.4721C23.8566 12.4435 23.9648 12.5694 24.0056 12.5489C24.0464 12.5283 24.1386 12.5169 24.0614 12.4297C23.984 12.3426 23.8564 12.2913 23.9746 12.2261C24.093 12.1609 23.9996 12.1596 23.7742 12.2947C23.549 12.4297 23.4236 12.5445 23.2258 12.5283C23.028 12.5121 22.954 12.534 22.8904 12.5121C22.8268 12.4902 22.5172 12.754 22.428 12.6871C22.3388 12.6201 22.051 12.5944 22.1028 12.5121C22.1546 12.4297 22.2242 12.3873 22.3018 12.4297C22.3792 12.4721 22.4562 12.5145 22.5084 12.4721C22.5608 12.4297 22.7116 12.2843 22.6736 12.2552C22.6358 12.2261 22.6724 12.1282 22.4576 12.1282C22.2426 12.1282 22.167 12.2373 22.116 12.1686C22.065 12.0998 22.1718 12.0201 22.1718 12.0201Z"
      fill="#FFD100" />
    <g filter="url(#filter0_d_97_4249)">
      <path fill-rule="evenodd" clip-rule="evenodd"
        d="M20.069 4.52042C20.5768 4.86066 20.957 7.10654 20.957 7.10654C20.957 7.10654 22.4492 6.47382 23.6228 6.47338C24.7966 6.47338 26.29 7.10654 26.29 7.10654C26.29 7.10654 26.6702 4.86066 27.178 4.52042C27.3606 4.398 27.332 4.41438 27.208 4.48552C26.9872 4.61208 26.464 4.91198 26.29 4.91198C26.174 4.91198 26.1194 5.09184 26.0566 5.29802C25.9724 5.57494 25.8738 5.89936 25.5928 5.89936C25.304 5.89936 25.144 5.73584 25.0616 5.60162C25.2048 5.54518 25.3066 5.39996 25.3066 5.2297C25.3066 5.01042 25.1376 4.83264 24.929 4.83264C24.7204 4.83264 24.5514 5.01042 24.5514 5.2297C24.5514 5.37086 24.6214 5.49482 24.727 5.56524C24.608 5.61484 24.4598 5.659 24.3092 5.659C23.9652 5.659 23.812 5.42036 23.812 5.045C23.812 4.66964 24.483 4.52042 24.483 4.52042C24.483 4.52042 24.483 3.83586 23.812 4.17698C23.812 4.17698 23.9448 3.3909 23.624 3.00146C23.3034 3.3909 23.435 4.17698 23.435 4.17698C22.7638 3.83586 22.7638 4.52042 22.7638 4.52042C22.7638 4.52042 23.435 4.66964 23.435 5.045C23.435 5.42036 23.2818 5.659 22.9378 5.659C22.787 5.659 22.6388 5.61482 22.5198 5.5652C22.6254 5.49478 22.6954 5.37084 22.6954 5.2297C22.6954 5.01042 22.5264 4.83264 22.3178 4.83264C22.1092 4.83264 21.9402 5.01042 21.9402 5.2297C21.9402 5.4 22.0422 5.54526 22.1854 5.60166C22.1028 5.73588 21.943 5.89936 21.654 5.89936C21.3732 5.89936 21.2746 5.57494 21.1904 5.29802C21.1276 5.09184 21.073 4.91198 20.957 4.91198C20.783 4.91198 20.2598 4.61208 20.039 4.48552C19.9149 4.41438 19.8863 4.398 20.069 4.52042Z"
        fill="#FECA00" />
    </g>
  </g>
  <defs>
    <filter id="filter0_d_97_4249" x="19.939" y="3.00146" width="7.36902" height="4.10498"
      filterUnits="userSpaceOnUse" color-interpolation-filters="sRGB">
      <feFlood flood-opacity="0" result="BackgroundImageFix" />
      <feColorMatrix in="SourceAlpha" type="matrix"
        values="0 0 0 0 0 0 0 0 0 0 0 0 0 0 0 0 0 0 127 0" result="hardAlpha" />
      <feOffset />
      <feColorMatrix type="matrix"
        values="0 0 0 0 0.0313726 0 0 0 0 0.368627 0 0 0 0 0 0 0 0 0.28 0" />
      <feBlend mode="normal" in2="BackgroundImageFix" result="effect1_dropShadow_97_4249" />
      <feBlend mode="normal" in="SourceGraphic" in2="effect1_dropShadow_97_4249" result="shape" />
    </filter>
  </defs>
</svg>
