<svg width="49" height="30" fill="none" xmlns="http://www.w3.org/2000/svg">
  <path
    d="M45.0278 0.962402H4.1698C2.66925 0.962402 1.45282 2.17884 1.45282 3.67938V26.3209C1.45282 27.8214 2.66925 29.0379 4.1698 29.0379H45.0278C46.5283 29.0379 47.7447 27.8214 47.7447 26.3209V3.67938C47.7447 2.17884 46.5283 0.962402 45.0278 0.962402Z"
    fill="white" stroke="#EAEAEA" />
  <path fill-rule="evenodd" clip-rule="evenodd"
    d="M9.03591 8.00596H42.2818V6.59766H9.035L9.03591 8.00596ZM9.03591 14.1699H42.2818V12.7607H9.035L9.03591 14.1699Z"
    fill="#999999" />
  <path fill-rule="evenodd" clip-rule="evenodd"
    d="M9.91259 20.7926H10.2504C10.5828 20.7926 10.8273 20.7364 10.9849 20.6241C11.1425 20.5127 11.2222 20.3352 11.2222 20.0943C11.2222 19.8561 11.1407 19.6868 10.9804 19.5853C10.8192 19.4848 10.5683 19.4341 10.2305 19.4341H9.91349V20.7926H9.91259ZM9.91259 21.6593V23.5884H8.86383V18.5601H10.3047C10.9776 18.5601 11.4739 18.6851 11.7964 18.9333C12.1188 19.1823 12.28 19.56 12.28 20.0672C12.28 20.3633 12.2003 20.6259 12.04 20.8569C11.868 21.0965 11.6328 21.2837 11.3607 21.3976C11.8407 22.1311 12.3253 22.8617 12.8143 23.5893H11.6505L10.4705 21.6593H9.91259ZM14.9906 20.4176C14.7724 20.4176 14.6012 20.4883 14.4771 20.6296C14.353 20.7699 14.2815 20.9701 14.2634 21.2291H15.7115C15.707 20.9701 15.6391 20.7699 15.5123 20.6296C15.3828 20.4883 15.2098 20.4176 14.9906 20.4176ZM15.1355 23.6581C14.5278 23.6581 14.0515 23.486 13.7091 23.1455C13.3668 22.8032 13.1947 22.3195 13.1947 21.6937C13.1947 21.0489 13.3532 20.5508 13.6702 20.1994C13.9872 19.8471 14.4246 19.6714 14.9834 19.6714C15.5186 19.6714 15.9343 19.8253 16.2323 20.136C16.5302 20.4448 16.6788 20.8732 16.6788 21.4184V21.9283H14.2398C14.2507 22.2253 14.3385 22.4581 14.5007 22.6256C14.6628 22.7932 14.8901 22.8765 15.1835 22.8765C15.4109 22.8765 15.6273 22.853 15.8293 22.805C16.0321 22.7561 16.245 22.68 16.465 22.5749V23.3864C16.282 23.4789 16.0878 23.5474 15.8872 23.5902C15.6398 23.6394 15.3878 23.6622 15.1355 23.6581ZM19.1222 23.6581C17.9449 23.6581 17.3562 23.0006 17.3562 21.6865C17.3562 21.0335 17.5165 20.5336 17.8371 20.1894C18.1568 19.8444 18.616 19.6714 19.2137 19.6714C19.6502 19.6714 20.0433 19.7592 20.3902 19.9331L20.0859 20.7446C19.9376 20.683 19.7865 20.6286 19.633 20.5816C19.4972 20.5395 19.3559 20.5182 19.2137 20.5182C18.6767 20.5182 18.4077 20.9049 18.4077 21.6801C18.4077 22.4318 18.6767 22.8086 19.2137 22.8086C19.4112 22.8086 19.5959 22.7814 19.7644 22.728C19.9337 22.6736 20.1031 22.5894 20.2715 22.4744V23.3728C20.1049 23.4806 19.9364 23.5549 19.7662 23.5956C19.5547 23.6415 19.3386 23.6625 19.1222 23.6581ZM24.7065 23.5893H23.6759V21.3432C23.6759 20.7872 23.473 20.51 23.0664 20.51C22.7784 20.51 22.5692 20.6096 22.4415 20.8098C22.3129 21.009 22.2477 21.3324 22.2477 21.7798V23.5893H21.217V18.2368H22.2477V19.3272C22.2477 19.4115 22.2404 19.6116 22.2241 19.9259L22.2006 20.2356H22.2549C22.485 19.8589 22.8499 19.6714 23.3508 19.6714C23.7945 19.6714 24.1324 19.7927 24.3624 20.0364C24.5915 20.2791 24.7065 20.6278 24.7065 21.0815V23.5893ZM29.329 23.5893H28.2966V21.3432C28.2966 21.0661 28.2486 20.8569 28.1517 20.7192C28.0548 20.5807 27.8999 20.5109 27.688 20.5109C27.3991 20.5109 27.1908 20.6096 27.0631 20.8044C26.9345 21.0009 26.8693 21.326 26.8693 21.7798V23.5893H25.8386V19.7438H26.6265L26.7651 20.2356H26.8222C26.9356 20.0514 27.1011 19.9048 27.2976 19.8145C27.5136 19.7161 27.7487 19.6673 27.9859 19.6714C28.4252 19.6714 28.7594 19.7918 28.9867 20.0336C29.214 20.2764 29.3281 20.6259 29.3281 21.0815L29.329 23.5893ZM33.1382 23.5893L32.9997 23.0975H32.9453C32.8349 23.2759 32.6782 23.4145 32.4753 23.5123C32.2581 23.6119 32.0214 23.6614 31.7825 23.6572C31.3387 23.6572 31.0036 23.5367 30.7772 23.2949C30.5517 23.0531 30.4394 22.7053 30.4394 22.2516V19.7429H31.4718V21.989C31.4718 22.267 31.5198 22.4753 31.6167 22.6139C31.7136 22.7524 31.8676 22.8222 32.0795 22.8222C32.3684 22.8222 32.5767 22.7226 32.7053 22.5278C32.8339 22.3313 32.8982 22.0071 32.8982 21.5524V19.7438H33.9307V23.5893H33.1382ZM38.5713 23.5893H37.5398V21.3432C37.5398 21.0661 37.4918 20.8569 37.3949 20.7192C37.2979 20.5807 37.1431 20.5109 36.9312 20.5109C36.6422 20.5109 36.4339 20.6096 36.3062 20.8044C36.1767 21.0009 36.1124 21.326 36.1124 21.7798V23.5893H35.0809V19.7438H35.8688L36.0083 20.2356H36.0653C36.1788 20.0514 36.3442 19.9048 36.5408 19.8145C36.7567 19.7161 36.9919 19.6673 37.2291 19.6714C37.6684 19.6714 38.0016 19.7918 38.2299 20.0336C38.4563 20.2764 38.5713 20.6259 38.5713 21.0815V23.5893ZM40.4506 21.0027C40.4506 21.211 40.4958 21.3758 40.5909 21.4981C40.6842 21.6195 40.8264 21.6801 41.0184 21.6801C41.2122 21.6801 41.3535 21.6195 41.4441 21.4981C41.5346 21.3758 41.5799 21.211 41.5799 21.0027C41.5799 20.5399 41.3924 20.3081 41.0184 20.3081C40.6389 20.3081 40.4506 20.5399 40.4506 21.0027ZM40.0747 24.1318C40.0747 24.2767 40.1435 24.3908 40.2794 24.4732C40.4152 24.5547 40.6063 24.5973 40.8527 24.5973C41.2222 24.5973 41.512 24.5447 41.7221 24.4424C41.9313 24.3383 42.0364 24.1979 42.0364 24.0186C42.0364 23.8736 41.9748 23.7749 41.8498 23.7197C41.7257 23.6644 41.5346 23.6373 41.2747 23.6373H40.7404C40.5718 23.6312 40.4056 23.6788 40.2658 23.7731C40.2061 23.8117 40.1572 23.8649 40.1238 23.9277C40.0903 23.9904 40.0735 24.0607 40.0747 24.1318ZM42.9936 19.7438V20.2773L42.4013 20.4312C42.51 20.6033 42.5644 20.7962 42.5644 21.0099C42.5644 21.422 42.4231 21.7435 42.1387 21.9736C41.8561 22.2045 41.4631 22.3195 40.9613 22.3195L40.7748 22.3096L40.6226 22.2915C40.5167 22.3748 40.4641 22.4663 40.4641 22.5677C40.4641 22.7189 40.6534 22.7941 41.032 22.7941H41.675C42.0898 22.7941 42.405 22.8847 42.6232 23.0658C42.8406 23.2469 42.9493 23.5132 42.9493 23.8637C42.9493 24.3129 42.7645 24.6616 42.3968 24.9097C42.0282 25.157 41.4984 25.281 40.8092 25.281C40.2812 25.281 39.8782 25.1878 39.5992 25.0003C39.4673 24.9172 39.3594 24.801 39.2863 24.6632C39.2132 24.5254 39.1775 24.3709 39.1826 24.2151C39.1826 23.9832 39.2524 23.7894 39.3955 23.6336C39.5376 23.4779 39.7459 23.3665 40.0204 23.3004C39.9098 23.2503 39.8143 23.1723 39.7432 23.074C39.6683 22.9799 39.6269 22.8636 39.6255 22.7434C39.6255 22.5967 39.6672 22.4744 39.7496 22.3766C39.8338 22.2788 39.9542 22.1837 40.1118 22.0895C39.9142 22.003 39.7492 21.8558 39.6409 21.6693C39.5207 21.4628 39.4602 21.227 39.4661 20.9882C39.4661 20.5689 39.6001 20.2447 39.8682 20.0155C40.1363 19.7864 40.5203 19.6714 41.0184 19.6714C41.2388 19.6794 41.4582 19.7036 41.675 19.7438H42.9936Z"
    fill="#FF6600" />
</svg>
