<svg width="49" height="30" fill="none" xmlns="http://www.w3.org/2000/svg">
  <path
    d="M45.0278 0.962402H4.1698C2.66925 0.962402 1.45282 2.17884 1.45282 3.67938V26.3209C1.45282 27.8214 2.66925 29.0379 4.1698 29.0379H45.0278C46.5283 29.0379 47.7447 27.8214 47.7447 26.3209V3.67938C47.7447 2.17884 46.5283 0.962402 45.0278 0.962402Z"
    fill="white" stroke="#EAEAEA" />
  <path fill-rule="evenodd" clip-rule="evenodd"
    d="M9.03594 8.91123H42.2818V7.50293H9.03503L9.03594 8.91123ZM9.03594 15.0752H42.2818V13.6659H9.03503L9.03594 15.0752Z"
    fill="#999999" />
  <path fill-rule="evenodd" clip-rule="evenodd"
    d="M13.9328 24.494H12.9022V19.4658H15.7369V20.3398H13.9328V21.6349H15.6101V22.5061H13.9328V24.494ZM18.788 22.7126L18.3896 22.7262C18.0889 22.7353 17.8661 22.7896 17.7194 22.891C17.5727 22.9925 17.5002 23.1455 17.5002 23.3529C17.5002 23.6482 17.6659 23.7967 18.0001 23.7967C18.2392 23.7967 18.4303 23.7251 18.5725 23.5857C18.7165 23.4462 18.788 23.2605 18.788 23.0287V22.7117V22.7126ZM19.0923 24.494L18.8931 23.9715H18.8659C18.692 24.1943 18.5136 24.3482 18.3298 24.4334C18.1459 24.5203 17.9068 24.5629 17.6116 24.5629C17.2475 24.5629 16.9622 24.4578 16.753 24.2459C16.5456 24.0358 16.4406 23.7351 16.4406 23.3448C16.4406 22.9372 16.581 22.6365 16.8617 22.4427C17.1425 22.2489 17.5654 22.1411 18.1323 22.1212L18.788 22.1004V21.9319C18.788 21.5425 18.5924 21.3478 18.1994 21.3478C17.8978 21.3478 17.5419 21.4393 17.1343 21.6258L16.7929 20.9167C17.2389 20.6825 17.7364 20.5633 18.2401 20.5698C18.7473 20.5698 19.1367 20.6821 19.4075 20.9067C19.6774 21.1322 19.8123 21.4728 19.8123 21.9319V24.494H19.0923ZM22.4795 24.5629C21.3022 24.5629 20.7135 23.9054 20.7135 22.5922C20.7135 21.9383 20.8747 21.4393 21.1944 21.0942C21.515 20.75 21.9733 20.5771 22.571 20.5771C23.0084 20.5771 23.4006 20.664 23.7483 20.8379L23.4431 21.6494C23.2949 21.5878 23.1438 21.5334 22.9903 21.4863C22.8545 21.4443 22.7132 21.4229 22.571 21.423C22.0339 21.423 21.7659 21.8106 21.7659 22.5849C21.7659 23.3366 22.0339 23.7134 22.571 23.7134C22.7702 23.7134 22.9532 23.6862 23.1225 23.6328C23.291 23.5784 23.4603 23.4942 23.6297 23.3792V24.2776C23.4631 24.3863 23.2946 24.4605 23.1243 24.5013C22.9125 24.5468 22.6961 24.5675 22.4795 24.5629ZM26.1674 23.727C26.3485 23.727 26.564 23.6871 26.8158 23.6065V24.3872C26.5595 24.5049 26.2443 24.5629 25.8694 24.5629C25.4573 24.5629 25.1567 24.4569 24.9692 24.245C24.7799 24.0331 24.6857 23.7143 24.6857 23.2904V21.4365H24.1921V20.9928L24.7609 20.6423L25.0579 19.8308H25.7173V20.6486H26.7769V21.4365H25.7173V23.2904C25.7173 23.4399 25.7589 23.5494 25.8413 23.621C25.9228 23.6916 26.0315 23.727 26.1674 23.727ZM30.3289 24.494L30.1903 24.0023H30.136C30.0255 24.1816 29.8688 24.3193 29.6659 24.4171C29.4631 24.514 29.2312 24.5629 28.9731 24.5629C28.5284 24.5629 28.1942 24.4424 27.9678 24.2006C27.7432 23.9579 27.6309 23.6101 27.6309 23.1564V20.6486H28.6616V22.8946C28.6616 23.1718 28.7096 23.381 28.8074 23.5187C28.9034 23.6581 29.0582 23.727 29.2711 23.727C29.5591 23.727 29.7674 23.6282 29.896 23.4335C30.0255 23.237 30.0889 22.9119 30.0889 22.4581V20.6486H31.1213V24.494H30.3289ZM34.3817 20.5771C34.5221 20.5771 34.638 20.587 34.7304 20.6079L34.6525 21.5914C34.553 21.5668 34.4507 21.5552 34.3482 21.557C34.0194 21.557 33.7622 21.643 33.5793 21.8151C33.3954 21.9872 33.3031 22.2281 33.3031 22.5369V24.495H32.2715V20.6495H33.0531L33.2053 21.2962H33.256C33.3737 21.0806 33.5313 20.9067 33.7314 20.7736C33.9307 20.6432 34.148 20.5771 34.3817 20.5771ZM37.0525 21.3233C36.8333 21.3233 36.6631 21.3931 36.5381 21.5353C36.414 21.6747 36.3434 21.8749 36.3253 22.1348H37.7725C37.768 21.8749 37.7019 21.6747 37.5733 21.5353C37.4447 21.3931 37.2708 21.3233 37.0525 21.3233ZM37.1974 24.5629C36.5888 24.5629 36.1133 24.3917 35.7701 24.0503C35.4277 23.7088 35.2566 23.2252 35.2566 22.5994C35.2566 21.9546 35.4151 21.4565 35.732 21.1042C36.049 20.7528 36.4865 20.5762 37.0453 20.5762C37.5796 20.5762 37.9962 20.731 38.2933 21.0417C38.5921 21.3496 38.7407 21.778 38.7407 22.3241V22.8331H36.3017C36.3126 23.1301 36.4004 23.3638 36.5616 23.5304C36.7246 23.698 36.9511 23.7822 37.2454 23.7822C37.4718 23.7822 37.6883 23.7577 37.8911 23.7097C38.094 23.6617 38.3059 23.5848 38.5269 23.4797V24.2912C38.3458 24.3827 38.1538 24.4515 37.9491 24.4959C37.7426 24.5411 37.4927 24.5629 37.1974 24.5629Z"
    fill="#FF6600" />
</svg>
