<svg width="48" height="36" fill="none" xmlns="http://www.w3.org/2000/svg">
  <path fill-rule="evenodd" clip-rule="evenodd" d="M0 0V36H48V0H0Z" fill="#F7FCFF" />
  <mask id="mask0_123_5336" style="mask-type:luminance" maskUnits="userSpaceOnUse" x="0" y="0"
    width="48" height="36">
    <path fill-rule="evenodd" clip-rule="evenodd" d="M0 0V36H48V0H0Z" fill="white" />
  </mask>
  <g mask="url(#mask0_123_5336)">
    <path fill-rule="evenodd" clip-rule="evenodd"
      d="M23.6797 27.8572C28.8041 27.8572 32.9582 23.6032 32.9582 18.3555C32.9582 13.1078 28.8041 8.85376 23.6797 8.85376C18.5554 8.85376 14.4012 13.1078 14.4012 18.3555C14.4012 23.6032 18.5554 27.8572 23.6797 27.8572Z"
      fill="#3D58DB" />
    <mask id="mask1_123_5336" style="mask-type:luminance" maskUnits="userSpaceOnUse" x="14" y="8"
      width="19" height="20">
      <path fill-rule="evenodd" clip-rule="evenodd"
        d="M23.6797 27.8572C28.8041 27.8572 32.9582 23.6032 32.9582 18.3555C32.9582 13.1078 28.8041 8.85376 23.6797 8.85376C18.5554 8.85376 14.4012 13.1078 14.4012 18.3555C14.4012 23.6032 18.5554 27.8572 23.6797 27.8572Z"
        fill="white" />
    </mask>
    <g mask="url(#mask1_123_5336)">
      <path fill-rule="evenodd" clip-rule="evenodd"
        d="M33.2828 19.0833C33.2828 19.0833 32.762 14.6029 28.9049 14.3597C25.0479 14.1165 24.0079 17.6453 23.7853 18.5803C23.5627 19.5152 22.9994 22.0092 18.9383 22.0092C14.8773 22.0092 14.511 15.6674 14.511 15.6674V8.18945H33.2828V19.0833Z"
        fill="#E31D1C" />
    </g>
    <path fill-rule="evenodd" clip-rule="evenodd"
      d="M10.949 3.07837L12.3215 4.31966L5.96107 11.7475L4.58862 10.5062L10.949 3.07837ZM13.2123 5.08713L14.5848 6.32842L8.4524 13.6487L7.07996 12.4074L13.2123 5.08713ZM16.8379 8.36189L15.4655 7.12061L9.31604 14.4964L10.6885 15.7377L16.8379 8.36189Z"
      fill="#272727" />
    <path
      d="M12.3215 4.31966L12.3784 4.36844L12.4259 4.313L12.3718 4.26403L12.3215 4.31966ZM10.949 3.07837L10.9993 3.02274L10.9422 2.97105L10.892 3.02959L10.949 3.07837ZM5.96107 11.7475L5.91076 11.8031L5.96791 11.8548L6.01803 11.7963L5.96107 11.7475ZM4.58862 10.5062L4.53165 10.4574L4.48418 10.5129L4.53831 10.5618L4.58862 10.5062ZM14.5848 6.32842L14.6423 6.37658L14.6887 6.32123L14.6351 6.27279L14.5848 6.32842ZM13.2123 5.08713L13.2627 5.0315L13.2049 4.97925L13.1549 5.03896L13.2123 5.08713ZM8.4524 13.6487L8.40209 13.7043L8.45987 13.7565L8.50989 13.6968L8.4524 13.6487ZM7.07996 12.4074L7.02246 12.3592L6.97609 12.4146L7.02965 12.463L7.07996 12.4074ZM15.4655 7.12061L15.5158 7.06498L15.4579 7.0126L15.4079 7.07258L15.4655 7.12061ZM16.8379 8.36189L16.8955 8.40992L16.9417 8.35459L16.8882 8.30627L16.8379 8.36189ZM9.31604 14.4964L9.25843 14.4484L9.2123 14.5037L9.26573 14.552L9.31604 14.4964ZM10.6885 15.7377L10.6382 15.7933L10.6961 15.8457L10.7461 15.7857L10.6885 15.7377ZM12.3718 4.26403L10.9993 3.02274L10.8987 3.13399L12.2711 4.37528L12.3718 4.26403ZM6.01803 11.7963L12.3784 4.36844L12.2645 4.27088L5.9041 11.6987L6.01803 11.7963ZM4.53831 10.5618L5.91076 11.8031L6.01137 11.6919L4.63893 10.4506L4.53831 10.5618ZM10.892 3.02959L4.53165 10.4574L4.64559 10.555L11.006 3.12715L10.892 3.02959ZM14.6351 6.27279L13.2627 5.0315L13.162 5.14275L14.5345 6.38404L14.6351 6.27279ZM8.50989 13.6968L14.6423 6.37658L14.5273 6.28025L8.39491 13.6005L8.50989 13.6968ZM7.02965 12.463L8.40209 13.7043L8.50271 13.593L7.13026 12.3518L7.02965 12.463ZM13.1549 5.03896L7.02246 12.3592L7.13745 12.4555L13.2698 5.13529L13.1549 5.03896ZM15.4152 7.17623L16.7876 8.41752L16.8882 8.30627L15.5158 7.06498L15.4152 7.17623ZM9.37365 14.5444L15.5231 7.16863L15.4079 7.07258L9.25843 14.4484L9.37365 14.5444ZM10.7388 15.6821L9.36635 14.4408L9.26573 14.552L10.6382 15.7933L10.7388 15.6821ZM16.7803 8.31387L10.6309 15.6897L10.7461 15.7857L16.8955 8.40992L16.7803 8.31387Z"
      fill="#272727" />
    <path fill-rule="evenodd" clip-rule="evenodd"
      d="M36.8778 3.07837L35.5053 4.31966L41.8657 11.7475L43.2382 10.5062L36.8778 3.07837ZM34.6143 5.08713L33.2419 6.32842L39.3743 13.6487L40.7467 12.4074L34.6143 5.08713ZM30.9887 8.36189L32.3612 7.12061L38.5106 14.4964L37.1382 15.7377L30.9887 8.36189Z"
      fill="#272727" />
    <path
      d="M35.5053 4.31966L35.4484 4.36844L35.4009 4.313L35.455 4.26403L35.5053 4.31966ZM36.8778 3.07837L36.8275 3.02274L36.8846 2.97105L36.9347 3.02959L36.8778 3.07837ZM41.8657 11.7475L41.916 11.8031L41.8589 11.8548L41.8087 11.7963L41.8657 11.7475ZM43.2382 10.5062L43.2951 10.4574L43.3426 10.5129L43.2885 10.5618L43.2382 10.5062ZM33.2419 6.32842L33.1844 6.37658L33.138 6.32123L33.1916 6.27279L33.2419 6.32842ZM34.6143 5.08713L34.564 5.0315L34.6218 4.97925L34.6718 5.03896L34.6143 5.08713ZM39.3743 13.6487L39.4246 13.7043L39.3668 13.7565L39.3168 13.6968L39.3743 13.6487ZM40.7467 12.4074L40.8042 12.3592L40.8506 12.4146L40.797 12.463L40.7467 12.4074ZM32.3612 7.12061L32.3109 7.06498L32.3688 7.0126L32.4188 7.07258L32.3612 7.12061ZM30.9887 8.36189L30.9311 8.40992L30.885 8.35459L30.9384 8.30627L30.9887 8.36189ZM38.5106 14.4964L38.5682 14.4484L38.6144 14.5037L38.5609 14.552L38.5106 14.4964ZM37.1382 15.7377L37.1885 15.7933L37.1306 15.8457L37.0806 15.7857L37.1382 15.7377ZM35.455 4.26403L36.8275 3.02274L36.9281 3.13399L35.5556 4.37528L35.455 4.26403ZM41.8087 11.7963L35.4484 4.36844L35.5623 4.27088L41.9227 11.6987L41.8087 11.7963ZM43.2885 10.5618L41.916 11.8031L41.8154 11.6919L43.1879 10.4506L43.2885 10.5618ZM36.9347 3.02959L43.2951 10.4574L43.1812 10.555L36.8208 3.12715L36.9347 3.02959ZM33.1916 6.27279L34.564 5.0315L34.6646 5.14275L33.2922 6.38404L33.1916 6.27279ZM39.3168 13.6968L33.1844 6.37658L33.2994 6.28025L39.4318 13.6005L39.3168 13.6968ZM40.797 12.463L39.4246 13.7043L39.324 13.593L40.6964 12.3518L40.797 12.463ZM34.6718 5.03896L40.8042 12.3592L40.6892 12.4555L34.5568 5.13529L34.6718 5.03896ZM32.4115 7.17623L31.0391 8.41752L30.9384 8.30627L32.3109 7.06498L32.4115 7.17623ZM38.453 14.5444L32.3036 7.16863L32.4188 7.07258L38.5682 14.4484L38.453 14.5444ZM37.0879 15.6821L38.4603 14.4408L38.5609 14.552L37.1885 15.7933L37.0879 15.6821ZM31.0463 8.31387L37.1958 15.6897L37.0806 15.7857L30.9311 8.40992L31.0463 8.31387Z"
      fill="#272727" />
    <path fill-rule="evenodd" clip-rule="evenodd"
      d="M10.949 33.7378L12.3215 32.4965L5.96107 25.0686L4.58862 26.3099L10.949 33.7378ZM13.2123 31.729L14.5848 30.4877L8.4524 23.1675L7.07996 24.4088L13.2123 31.729ZM16.8379 28.4543L15.4655 29.6955L9.31604 22.3197L10.6885 21.0785L16.8379 28.4543Z"
      fill="#272727" />
    <path
      d="M12.3215 32.4965L12.3784 32.4477L12.4259 32.5032L12.3718 32.5521L12.3215 32.4965ZM10.949 33.7378L10.9993 33.7934L10.9422 33.8451L10.892 33.7866L10.949 33.7378ZM5.96107 25.0686L5.91076 25.013L5.96791 24.9613L6.01803 25.0199L5.96107 25.0686ZM4.58862 26.3099L4.53165 26.3587L4.48418 26.3033L4.53831 26.2543L4.58862 26.3099ZM14.5848 30.4877L14.6423 30.4396L14.6887 30.4949L14.6351 30.5434L14.5848 30.4877ZM13.2123 31.729L13.2627 31.7846L13.2049 31.8369L13.1549 31.7772L13.2123 31.729ZM8.4524 23.1675L8.40209 23.1119L8.45987 23.0596L8.50989 23.1193L8.4524 23.1675ZM7.07996 24.4088L7.02246 24.4569L6.97609 24.4016L7.02965 24.3531L7.07996 24.4088ZM15.4655 29.6955L15.5158 29.7512L15.4579 29.8035L15.4079 29.7436L15.4655 29.6955ZM16.8379 28.4543L16.8955 28.4062L16.9417 28.4616L16.8882 28.5099L16.8379 28.4543ZM9.31604 22.3197L9.25843 22.3678L9.2123 22.3124L9.26573 22.2641L9.31604 22.3197ZM10.6885 21.0785L10.6382 21.0228L10.6961 20.9704L10.7461 21.0304L10.6885 21.0785ZM12.3718 32.5521L10.9993 33.7934L10.8987 33.6822L12.2711 32.4409L12.3718 32.5521ZM6.01803 25.0199L12.3784 32.4477L12.2645 32.5453L5.9041 25.1174L6.01803 25.0199ZM4.53831 26.2543L5.91076 25.013L6.01137 25.1243L4.63893 26.3656L4.53831 26.2543ZM10.892 33.7866L4.53165 26.3587L4.64559 26.2612L11.006 33.689L10.892 33.7866ZM14.6351 30.5434L13.2627 31.7846L13.162 31.6734L14.5345 30.4321L14.6351 30.5434ZM8.50989 23.1193L14.6423 30.4396L14.5273 30.5359L8.39491 23.2156L8.50989 23.1193ZM7.02965 24.3531L8.40209 23.1119L8.50271 23.2231L7.13026 24.4644L7.02965 24.3531ZM13.1549 31.7772L7.02246 24.4569L7.13745 24.3606L13.2698 31.6809L13.1549 31.7772ZM15.4152 29.6399L16.7876 28.3986L16.8882 28.5099L15.5158 29.7512L15.4152 29.6399ZM9.37365 22.2717L15.5231 29.6475L15.4079 29.7436L9.25843 22.3678L9.37365 22.2717ZM10.7388 21.1341L9.36635 22.3754L9.26573 22.2641L10.6382 21.0228L10.7388 21.1341ZM16.7803 28.5023L10.6309 21.1265L10.7461 21.0304L16.8955 28.4062L16.7803 28.5023Z"
      fill="#272727" />
    <path fill-rule="evenodd" clip-rule="evenodd"
      d="M36.8778 33.7378L35.5053 32.4965L41.8657 25.0686L43.2382 26.3099L36.8778 33.7378ZM34.6143 31.729L33.2419 30.4877L39.3743 23.1675L40.7467 24.4088L34.6143 31.729ZM30.9887 28.4543L32.3612 29.6955L38.5106 22.3197L37.1382 21.0785L30.9887 28.4543Z"
      fill="#272727" />
    <path
      d="M35.5053 32.4965L35.4484 32.4477L35.4009 32.5032L35.455 32.5521L35.5053 32.4965ZM36.8778 33.7378L36.8275 33.7934L36.8846 33.8451L36.9347 33.7866L36.8778 33.7378ZM41.8657 25.0686L41.916 25.013L41.8589 24.9613L41.8087 25.0199L41.8657 25.0686ZM43.2382 26.3099L43.2951 26.3587L43.3426 26.3033L43.2885 26.2543L43.2382 26.3099ZM33.2419 30.4877L33.1844 30.4396L33.138 30.4949L33.1916 30.5434L33.2419 30.4877ZM34.6143 31.729L34.564 31.7846L34.6218 31.8369L34.6718 31.7772L34.6143 31.729ZM39.3743 23.1675L39.4246 23.1119L39.3668 23.0596L39.3168 23.1193L39.3743 23.1675ZM40.7467 24.4088L40.8042 24.4569L40.8506 24.4016L40.797 24.3531L40.7467 24.4088ZM32.3612 29.6955L32.3109 29.7512L32.3688 29.8035L32.4188 29.7436L32.3612 29.6955ZM30.9887 28.4543L30.9311 28.4062L30.885 28.4616L30.9384 28.5099L30.9887 28.4543ZM38.5106 22.3197L38.5682 22.3678L38.6144 22.3124L38.5609 22.2641L38.5106 22.3197ZM37.1382 21.0785L37.1885 21.0228L37.1306 20.9704L37.0806 21.0304L37.1382 21.0785ZM35.455 32.5521L36.8275 33.7934L36.9281 33.6822L35.5556 32.4409L35.455 32.5521ZM41.8087 25.0199L35.4484 32.4477L35.5623 32.5453L41.9227 25.1174L41.8087 25.0199ZM43.2885 26.2543L41.916 25.013L41.8154 25.1243L43.1879 26.3656L43.2885 26.2543ZM36.9347 33.7866L43.2951 26.3587L43.1812 26.2612L36.8208 33.689L36.9347 33.7866ZM33.1916 30.5434L34.564 31.7846L34.6646 31.6734L33.2922 30.4321L33.1916 30.5434ZM39.3168 23.1193L33.1844 30.4396L33.2994 30.5359L39.4318 23.2156L39.3168 23.1193ZM40.797 24.3531L39.4246 23.1119L39.324 23.2231L40.6964 24.4644L40.797 24.3531ZM34.6718 31.7772L40.8042 24.4569L40.6892 24.3606L34.5568 31.6809L34.6718 31.7772ZM32.4115 29.6399L31.0391 28.3986L30.9384 28.5099L32.3109 29.7512L32.4115 29.6399ZM38.453 22.2717L32.3036 29.6475L32.4188 29.7436L38.5682 22.3678L38.453 22.2717ZM37.0879 21.1341L38.4603 22.3754L38.5609 22.2641L37.1885 21.0228L37.0879 21.1341ZM31.0463 28.5023L37.1958 21.1265L37.0806 21.0304L30.9311 28.4062L31.0463 28.5023Z"
      fill="#272727" />
  </g>
</svg>
