<svg viewBox="0 0 566 162" fill="none" xmlns="http://www.w3.org/2000/svg">
  <path fill-rule="evenodd" clip-rule="evenodd"
    d="M354.483 82.9983V71.0821H342.566V82.9983H338.185V91.6721H342.566V102.594C342.566 106.061 342.894 108.575 343.559 110.13C344.242 111.669 345.284 112.82 346.684 113.576C348.088 114.337 350.267 114.717 353.229 114.717C355.779 114.717 358.524 114.395 361.462 113.753L360.583 105.546C359.009 106.052 357.786 106.305 356.906 106.305C355.933 106.305 355.253 105.975 354.863 105.311C354.607 104.883 354.483 104.008 354.483 102.685V91.6721H361.028V82.9983H354.483ZM197.669 104.231C196.675 103.026 196.178 101.087 196.178 98.4174C196.178 95.9869 196.684 94.1734 197.697 92.9873C198.73 91.7808 200.055 91.1764 201.67 91.1764C203.013 91.1764 204.152 91.7492 205.086 92.8987C206.04 94.047 206.52 95.8478 206.52 98.3036C206.52 101.087 206.033 103.072 205.059 104.26C204.102 105.427 202.913 106.013 201.493 106.013C199.955 106.013 198.682 105.421 197.669 104.231ZM196.268 71.1946H184.262V114.015H195.391V109.428C196.928 111.358 198.349 112.672 199.652 113.371C201.387 114.268 203.296 114.717 205.38 114.717C207.815 114.714 210.023 114.081 212.012 112.82C214.012 111.532 215.579 109.605 216.71 107.034C217.84 104.444 218.406 101.456 218.406 98.0671C218.406 92.9873 217.166 89.0923 214.695 86.3861C212.222 83.6609 209.096 82.2965 205.325 82.2965C203.492 82.3002 201.818 82.6075 200.294 83.2322C198.797 83.857 197.454 84.7877 196.268 86.0384V71.1946ZM235.23 114.017H223.313V71.1984H235.23V114.017ZM274.903 114.015H263.809V108.991C262.153 111.054 260.48 112.525 258.788 113.4C257.108 114.278 255.048 114.717 252.592 114.717C249.321 114.717 246.752 113.744 244.883 111.795C243.033 109.83 242.11 106.812 242.11 102.741V82.9983H254.052V100.053C254.052 102.001 254.411 103.383 255.132 104.203C255.855 105.02 256.865 105.427 258.172 105.427C259.593 105.427 260.754 104.883 261.649 103.792C262.561 102.703 263.018 100.747 263.018 97.9204V82.9983H274.903V114.015ZM300.8 90.8261C301.813 91.8201 302.437 93.4628 302.669 95.7618H290.959C291.148 93.9117 291.611 92.5194 292.329 91.5848C293.46 90.0838 294.969 89.3351 296.86 89.3351C298.494 89.3351 299.807 89.8347 300.8 90.8261ZM290.928 101.456H314.762V100.114C314.762 96.0223 314.09 92.704 312.75 90.1521C311.402 87.6027 309.446 85.6552 306.873 84.3109C304.303 82.968 300.8 82.2965 296.362 82.2965C290.889 82.3002 286.597 83.7963 283.482 86.7959C280.385 89.7955 278.838 93.7169 278.838 98.5641C278.838 101.972 279.61 104.944 281.143 107.473C282.698 109.986 284.661 111.826 287.013 112.993C289.369 114.143 292.604 114.717 296.711 114.717C301.443 114.717 305.075 114.043 307.608 112.701C310.137 111.339 312.3 109.099 314.09 105.983L302.378 104.902C301.639 105.838 300.948 106.489 300.304 106.859C299.252 107.444 298.142 107.735 296.974 107.735C295.123 107.735 293.626 107.065 292.479 105.72C291.662 104.788 291.145 103.366 290.928 101.456ZM317.944 103.003H335.236V93.8042H317.944V103.003ZM377.144 98.5641C377.144 101.332 377.702 103.376 378.812 104.697C379.936 106.023 381.351 106.684 383.046 106.684C384.758 106.684 386.162 106.03 387.252 104.728C388.36 103.423 388.914 101.332 388.914 98.449C388.914 95.7618 388.36 93.7663 387.252 92.4612C386.144 91.1372 384.77 90.4758 383.133 90.4758C381.404 90.4758 379.972 91.1473 378.84 92.4903C377.711 93.813 377.144 95.8402 377.144 98.5641ZM365.23 98.5919C365.23 93.8624 366.825 89.9712 370.022 86.9135C373.214 83.8367 377.525 82.3002 382.962 82.2965C389.168 82.2965 393.861 84.0972 397.039 87.6988C399.588 90.6035 400.86 94.1735 400.86 98.4174C400.86 103.19 399.274 107.104 396.103 110.16C392.948 113.197 388.571 114.717 382.986 114.717C378.004 114.717 373.972 113.451 370.897 110.919C367.117 107.785 365.23 103.677 365.23 98.5919ZM417.773 82.9983H406.673V114.015H418.59V98.186C418.59 95.8313 419.028 94.1355 419.902 93.1049C420.784 92.0742 421.896 91.5545 423.262 91.5545C424.102 91.557 424.829 91.7998 425.455 92.2816C426.077 92.7546 426.513 93.3755 426.769 94.1545C426.922 94.6414 427.003 95.5658 427.003 96.9303V114.015H438.918V98.0115C438.918 95.7706 439.347 94.1444 440.205 93.134C441.058 92.1223 442.186 91.6152 443.589 91.6152C444.777 91.6152 445.771 92.1514 446.567 93.22C447.115 93.9028 447.389 94.9436 447.389 96.3473V114.015H459.302V94.5364C459.302 90.3291 458.367 87.2448 456.499 85.2771C454.632 83.2892 452.032 82.2965 448.702 82.2965C446.447 82.3002 444.544 82.6682 443.005 83.4068C441.467 84.1288 439.763 85.5009 437.896 87.5243C436.982 85.793 435.803 84.488 434.362 83.6104C432.919 82.7353 430.962 82.2965 428.489 82.2965C426.194 82.3002 424.228 82.6973 422.588 83.4928C420.976 84.2945 419.37 85.6375 417.773 87.5243V82.9983ZM487.545 99.2963C485.911 99.878 484.206 100.396 482.436 100.842C480.018 101.485 478.493 102.119 477.847 102.741C477.187 103.383 476.857 104.117 476.857 104.931C476.857 105.865 477.178 106.636 477.822 107.239C478.479 107.822 479.448 108.116 480.712 108.116C482.033 108.116 483.261 107.793 484.391 107.152C485.542 106.509 486.345 105.729 486.812 104.814C487.302 103.884 487.545 102.675 487.545 101.196V99.2963ZM477.237 93.0442L465.876 91.8479C466.301 89.8625 466.918 88.3032 467.715 87.1752C468.532 86.0245 469.699 85.033 471.22 84.1959C472.312 83.5914 473.813 83.1248 475.721 82.7922C477.626 82.4659 479.684 82.3002 481.913 82.3002C485.47 82.3002 488.334 82.5001 490.494 82.9098C492.654 83.2993 494.462 84.1288 495.898 85.3922C496.913 86.2698 497.71 87.5179 498.295 89.1303C498.88 90.7312 499.169 92.2551 499.169 93.7169V107.415C499.169 108.876 499.258 110.025 499.432 110.862C499.627 111.679 500.038 112.729 500.659 114.015H489.501C489.052 113.218 488.765 112.615 488.629 112.204C488.49 111.774 488.354 111.116 488.217 110.217C486.661 111.717 485.113 112.789 483.574 113.429C481.47 114.289 479.028 114.714 476.243 114.717C472.544 114.717 469.732 113.863 467.8 112.147C465.893 110.432 464.942 108.319 464.942 105.809C464.942 103.45 465.631 101.517 467.016 99.9956C468.395 98.4781 470.947 97.3488 474.668 96.6065C479.123 95.715 482.016 95.0903 483.34 94.7413C484.668 94.3707 486.064 93.894 487.545 93.3085C487.545 91.8479 487.243 90.8261 486.643 90.2419C486.038 89.6576 484.977 89.363 483.458 89.363C481.513 89.363 480.051 89.6778 479.075 90.3013C478.316 90.7882 477.704 91.7012 477.237 93.0442ZM519.621 82.9983V71.0821H507.703V82.9983H503.323V91.6721H507.703V102.594C507.703 106.061 508.031 108.575 508.698 110.13C509.378 111.669 510.419 112.82 511.82 113.576C513.226 114.337 515.401 114.717 518.363 114.717C520.917 114.717 523.663 114.395 526.6 113.753L525.725 105.546C524.146 106.052 522.918 106.305 522.044 106.305C521.072 106.305 520.386 105.975 519.999 105.311C519.748 104.883 519.621 104.008 519.621 102.685V91.6721H526.164V82.9983H519.621Z"
    fill="#FFFFFE" />
  <path fill-rule="evenodd" clip-rule="evenodd"
    d="M542.285 98.5641C542.285 101.332 542.84 103.376 543.949 104.697C545.081 106.023 546.489 106.684 548.185 106.684C549.897 106.684 551.299 106.03 552.389 104.728C553.501 103.423 554.057 101.332 554.057 98.449C554.057 95.7618 553.501 93.7662 552.389 92.4612C551.28 91.1372 549.908 90.4758 548.272 90.4758C546.537 90.4758 545.107 91.1473 543.978 92.4903C542.85 93.813 542.285 95.8402 542.285 98.5641ZM530.367 98.5919C530.367 93.8624 531.964 89.9712 535.157 86.9135C538.352 83.8367 542.663 82.3002 548.097 82.2964C554.306 82.2964 559.002 84.0972 562.175 87.6988C564.72 90.6035 566 94.1734 566 98.4174C566 103.19 564.413 107.104 561.239 110.16C558.084 113.197 553.71 114.717 548.129 114.717C543.136 114.717 539.112 113.451 536.033 110.919C532.258 107.785 530.367 103.677 530.367 98.5919Z"
    fill="#FFFFFE" />
  <path fill-rule="evenodd" clip-rule="evenodd"
    d="M45.2469 31.842C41.2824 30.4408 41.7718 25.4469 45.9386 24.8539C48.5968 24.4757 51.0754 24.2532 53.3453 24.1406C45.4063 21.3016 36.7755 19.621 36.4808 19.5616C31.9511 18.7105 32.376 12.624 36.9765 12.4015C52.6068 11.6503 64.1563 15.2721 71.5832 18.8673C67.9399 12.4811 63.113 6.13418 62.9815 5.96472C60.2487 2.40491 64.2069 -1.76317 67.9007 0.784974C77.3244 7.28621 82.6913 13.9797 85.6871 18.9596C88.6792 13.9797 94.0486 7.28621 103.472 0.784974C107.166 -1.76064 111.123 2.40491 108.392 5.96472C108.257 6.13418 103.431 12.4811 99.7898 18.8673C107.213 15.2721 118.761 11.6503 134.394 12.4015C138.997 12.624 139.419 18.7105 134.886 19.5616C134.598 19.621 125.965 21.3016 118.028 24.1406C120.295 24.2532 122.771 24.4757 125.432 24.8539C129.595 25.4469 130.093 30.4408 126.122 31.842C126.088 31.8546 124.821 32.3035 123.118 32.9801C151.447 43.7253 171.692 66.5979 171.692 93.813C171.692 131.89 132.354 161.309 85.844 161.309C39.3375 161.309 0 131.89 0 93.813C0 66.6522 20.16 43.8151 48.4096 33.0446C46.6304 32.3314 45.2836 31.8546 45.2469 31.842Z"
    fill="#FFFFFE" />
  <path fill-rule="evenodd" clip-rule="evenodd"
    d="M113.96 33.0218L113.968 33.013C117.428 30.5887 125.326 27.8041 125.326 27.8041C112.099 25.9262 103.606 28.0735 103.606 28.0735C109.516 20.1205 134.62 15.3846 134.62 15.3846C106.732 14.0429 92.6993 27.2705 92.6993 27.2705C93.5048 19.3162 105.929 3.1333 105.929 3.1333C88.9422 14.8472 86.088 26.9998 86.088 26.9998C86.088 26.9998 83.2364 14.8472 66.253 3.1333C66.253 3.1333 78.6699 19.3162 79.4767 27.2705C79.4767 27.2705 65.4462 14.0429 37.5519 15.3846C37.5519 15.3846 62.6628 20.1205 68.5697 28.0735C68.5697 28.0735 60.0767 25.9262 46.8479 27.8041C46.8479 27.8041 54.8616 30.6292 58.2861 33.0635L58.2949 33.0926C26.6398 41.9789 4.01758 65.5293 4.01758 93.1871C4.01758 128.469 40.8322 157.069 86.2499 157.069C131.665 157.069 168.485 128.469 168.485 93.1871C168.485 65.4585 145.742 41.8575 113.96 33.0218Z"
    fill="#00A3DA" />
  <path fill-rule="evenodd" clip-rule="evenodd"
    d="M86.2499 154.702C42.2144 154.702 6.38489 127.106 6.38489 93.1871C6.38489 67.4312 27.5022 44.1944 58.9323 35.3702C59.562 35.1918 60.0957 34.7581 60.3992 34.1764C60.6964 33.5947 60.7432 32.9105 60.5219 32.2934C60.36 31.8369 60.0514 31.4145 59.6543 31.1351C58.8488 30.5584 57.8283 29.9742 56.7192 29.4051C56.9797 29.4051 57.2453 29.4013 57.5058 29.4013C64.0248 29.4013 67.9538 30.3586 67.9956 30.3687C68.184 30.4155 68.3762 30.4383 68.5634 30.4383C69.3436 30.4383 70.091 30.0538 70.5361 29.3849C71.0925 28.554 71.0647 27.4627 70.4729 26.6609C68.9465 24.6098 66.406 22.7825 63.3925 21.184C72.9085 24.4859 77.7797 28.9233 77.8593 28.9928C78.307 29.4127 78.8887 29.634 79.4767 29.634C79.8346 29.634 80.195 29.5518 80.5276 29.3849C81.4103 28.9448 81.93 28.0115 81.8327 27.0302C81.5747 24.4795 80.324 21.2915 78.6763 18.0466C82.7444 23.5248 83.7738 27.4855 83.7877 27.5537C84.0457 28.6122 84.9992 29.3596 86.0855 29.3596C86.0905 29.3596 86.0969 29.3596 86.0994 29.3596C87.1933 29.3558 88.1442 28.6059 88.3908 27.5411C88.4098 27.4791 89.4316 23.521 93.5048 18.0403C91.8545 21.2877 90.6064 24.4757 90.3433 27.0302C90.2485 28.014 90.7695 28.9549 91.6585 29.3899C91.9886 29.5543 92.3464 29.634 92.6993 29.634C93.2924 29.634 93.8753 29.4127 94.3255 28.9903C94.3989 28.9208 99.2688 24.4821 108.791 21.1802C105.778 22.7799 103.235 24.6098 101.709 26.6609C101.114 27.4665 101.083 28.5578 101.642 29.3887C102.088 30.0564 102.831 30.4408 103.606 30.4408C103.802 30.4408 103.996 30.4155 104.189 30.3687C104.226 30.3586 108.151 29.4013 114.673 29.4013C114.936 29.4013 115.196 29.4051 115.459 29.4051C114.393 29.9514 113.406 30.5179 112.61 31.0743C112.309 31.2843 112.065 31.5574 111.889 31.8799C111.542 32.5134 111.505 33.2722 111.784 33.9386C112.068 34.6038 112.633 35.1084 113.327 35.3031C144.903 44.0819 166.117 67.344 166.117 93.1871C166.117 127.106 130.289 154.702 86.2499 154.702Z"
    fill="#009FE3" />
  <path fill-rule="evenodd" clip-rule="evenodd"
    d="M86.2246 136.627C49.8272 136.627 20.3307 114.483 20.3307 87.1626C20.3307 64.4594 40.7235 45.3376 68.5014 39.5268L55.2978 51.1383C55.2978 51.1383 63.7984 46.8526 69.5839 45.5159C73.886 44.5245 77.0336 43.2131 81.2838 42.6061C84.6578 46.1141 94.3116 56.9769 94.3116 66.3955C95.8114 55.84 93.2873 46.2216 92.2187 42.787C95.9227 43.4483 98.8831 44.613 102.789 45.5159C108.579 46.8526 117.079 51.1383 117.079 51.1383L103.417 39.4143C111.783 41.1101 119.486 44.0123 126.191 47.8516C129.298 46.5757 134.099 47.495 138.381 50.4946C143.098 53.7952 145.659 58.5538 144.905 62.0428C144.789 62.6523 144.587 63.2315 144.268 63.7551L144.27 63.75C149.279 70.7191 152.113 78.6949 152.113 87.1626C152.113 114.483 122.617 136.627 86.2246 136.627ZM113.96 33.0218L113.968 33.013C117.428 30.5887 125.326 27.8041 125.326 27.8041C112.099 25.9262 103.606 28.0735 103.606 28.0735C109.516 20.1205 134.62 15.3846 134.62 15.3846C106.732 14.0429 92.6993 27.2705 92.6993 27.2705C93.5048 19.3162 105.929 3.1333 105.929 3.1333C88.9422 14.8472 86.088 26.9998 86.088 26.9998C86.088 26.9998 83.2364 14.8472 66.253 3.1333C66.253 3.1333 78.6699 19.3162 79.4767 27.2705C79.4767 27.2705 65.4462 14.0429 37.5519 15.3846C37.5519 15.3846 62.6628 20.1205 68.5697 28.0735C68.5697 28.0735 60.0767 25.9262 46.8479 27.8041C46.8479 27.8041 54.8616 30.6292 58.2861 33.0635L58.2949 33.0926C26.6398 41.9789 4.01758 65.5293 4.01758 93.1871C4.01758 128.469 40.8322 157.069 86.2499 157.069C131.665 157.069 168.485 128.469 168.485 93.1871C168.485 65.4585 145.742 41.8575 113.96 33.0218Z"
    fill="#1A1919" />
  <path fill-rule="evenodd" clip-rule="evenodd"
    d="M124.086 49.3439C126.528 45.8536 133.098 46.2317 138.756 50.1949C144.413 54.1543 147.018 60.2003 144.573 63.6906C142.131 67.1847 135.557 66.8027 129.9 62.8395C124.242 58.8788 121.638 52.8366 124.086 49.3439Z"
    fill="#FFFFFE" />
</svg>
