<svg viewBox="0 0 230 231" fill="none" xmlns="http://www.w3.org/2000/svg">
  <path fill-rule="evenodd" clip-rule="evenodd"
    d="M220.359 133.753C220.359 135.175 219.207 136.326 217.786 136.326C216.365 136.326 215.213 135.175 215.213 133.753C215.213 132.332 216.365 131.181 217.786 131.181C219.207 131.181 220.359 132.332 220.359 133.753Z"
    fill="#009EE2" />
  <path fill-rule="evenodd" clip-rule="evenodd"
    d="M15.0868 133.753C15.0868 135.175 13.9346 136.326 12.5141 136.326C11.0928 136.326 9.94067 135.175 9.94067 133.753C9.94067 132.332 11.0928 131.181 12.5141 131.181C13.9346 131.181 15.0868 132.332 15.0868 133.753Z"
    fill="#009EE2" />
  <mask id="mask0_47_4562" style="mask-type:luminance" maskUnits="userSpaceOnUse" x="0" y="89"
    width="25" height="20">
    <path fill-rule="evenodd" clip-rule="evenodd" d="M0 89.9111H24.578V108.48H0V89.9111Z"
      fill="white" />
  </mask>
  <g mask="url(#mask0_47_4562)">
    <path fill-rule="evenodd" clip-rule="evenodd"
      d="M10.2984 100.7L10.4701 99.603C10.7912 97.5577 10.0481 96.3933 8.2394 96.1098C6.74817 95.876 5.84491 96.762 5.53036 98.7676L5.34856 99.9234L10.2984 100.7ZM14.6999 101.39L22.5839 102.626L21.6662 108.48L-0.000244141 105.082L1.11367 97.9841C2.0364 92.0957 4.63216 89.4855 8.90024 90.155C11.4094 90.5489 13.1589 92.0784 14.148 94.7434L24.578 89.9111L23.5369 96.5499L14.9323 99.9082L14.6999 101.39Z"
      fill="#FEFEFE" />
  </g>
  <path fill-rule="evenodd" clip-rule="evenodd"
    d="M31.1474 73.7444L26.2669 85.815L5.93433 77.5948L10.8149 65.5236L15.2244 67.3055L12.5637 73.8837L15.7626 75.1772L18.2256 69.0861L22.6336 70.868L20.1706 76.9599L24.0094 78.5118L26.6694 71.9336L31.1474 73.7444Z"
    fill="#FEFEFE" />
  <path fill-rule="evenodd" clip-rule="evenodd"
    d="M46.032 51.5405L41.4285 57.8005L24.2357 55.1001L24.1556 55.2091C26.2262 56.4954 27.7773 57.5184 28.8082 58.2766L36.7723 64.1334L33.6614 68.3625L15.9932 55.3699L20.5794 49.1338L37.5853 51.7339L37.638 51.6617C35.7752 50.4648 34.3035 49.47 33.2242 48.6764L25.2356 42.8016L28.3638 38.548L46.032 51.5405Z"
    fill="#FEFEFE" />
  <path fill-rule="evenodd" clip-rule="evenodd"
    d="M58.1972 41.1347L53.6174 44.8942L42.7762 31.6881L38.6373 35.0861L35.5625 31.3411L48.41 20.795L51.4841 24.54L47.3567 27.9286L58.1972 41.1347Z"
    fill="#FEFEFE" />
  <path fill-rule="evenodd" clip-rule="evenodd"
    d="M79.6396 14.0729L80.5212 5.15004L86.5806 3.02899L84.1861 18.0279L87.0164 26.1124L81.3819 28.0848L78.6108 20.1698L67.3259 9.76947L73.4135 7.63831L79.6396 14.0729Z"
    fill="#009EE2" />
  <path fill-rule="evenodd" clip-rule="evenodd"
    d="M101.232 11.7011C101.607 15.9245 103.265 17.9056 106.203 17.6437C107.697 17.511 108.759 16.8999 109.39 15.8091C110.021 14.719 110.24 13.0885 110.047 10.9162C109.853 8.73528 109.344 7.15675 108.519 6.18063C107.694 5.20524 106.554 4.78175 105.1 4.91089C102.141 5.17422 100.851 7.43812 101.232 11.7011ZM116.263 10.3629C116.59 14.0386 115.937 16.9129 114.304 18.9863C112.672 21.059 110.117 22.2501 106.64 22.5596C103.213 22.8648 100.501 22.1376 98.5024 20.378C96.5032 18.6184 95.3403 15.9 95.0134 12.2242C94.6895 8.58882 95.3511 5.73189 96.9981 3.65196C98.6452 1.57276 101.202 0.378762 104.669 0.0699826C108.145 -0.239518 110.864 0.4776 112.827 2.22061C114.79 3.96363 115.934 6.67771 116.263 10.3629Z"
    fill="#009EE2" />
  <path fill-rule="evenodd" clip-rule="evenodd"
    d="M144.852 3.46475L142.505 16.4551C141.995 19.2796 140.8 21.3227 138.921 22.5838C137.041 23.8449 134.596 24.2027 131.585 23.6588C128.642 23.1278 126.517 21.9662 125.21 20.1749C123.903 18.3843 123.504 16.0764 124.014 13.2519L126.385 0.128784L132.245 1.18787L129.957 13.8529C129.682 15.3787 129.767 16.5374 130.213 17.3288C130.659 18.1209 131.439 18.618 132.551 18.8186C133.742 19.0336 134.667 18.8474 135.327 18.2602C135.986 17.6736 136.457 16.603 136.738 15.0476L139.021 2.41144L144.852 3.46475Z"
    fill="#009EE2" />
  <path fill-rule="evenodd" clip-rule="evenodd"
    d="M157.511 18.3224L158.518 18.7892C160.397 19.66 161.72 19.2653 162.489 17.6053C163.125 16.2353 162.522 15.1228 160.68 14.2693L159.618 13.7766L157.511 18.3224ZM155.636 22.364L152.28 29.6044L146.904 27.1118L156.129 7.21503L162.648 10.2379C168.055 12.7449 169.85 15.9582 168.033 19.8779C166.965 22.1822 165.013 23.4432 162.179 23.6611L163.956 35.0181L157.859 32.1915L156.998 22.9952L155.636 22.364Z"
    fill="#009EE2" />
  <path fill-rule="evenodd" clip-rule="evenodd"
    d="M189.203 39.8443L189.978 40.6394C191.423 42.1205 192.801 42.2229 194.111 40.9452C195.191 39.8912 195.023 38.6366 193.606 37.1836L192.789 36.346L189.203 39.8443ZM186.013 42.9552L180.3 48.5276L176.163 44.2855L191.863 28.9728L196.88 34.1168C201.041 38.3834 201.576 42.0245 198.483 45.0409C196.665 46.8149 194.392 47.299 191.666 46.4946L189.286 57.7405L184.595 52.9299L187.061 44.0287L186.013 42.9552Z"
    fill="#FEFEFE" />
  <path fill-rule="evenodd" clip-rule="evenodd"
    d="M191.634 61.8963L210.022 49.9456L213.268 54.9387L194.879 66.8895L191.634 61.8963Z"
    fill="#FEFEFE" />
  <path fill-rule="evenodd" clip-rule="evenodd"
    d="M213.594 80.3067C215.465 79.573 216.707 78.6582 217.319 77.5638C217.932 76.4694 217.943 75.1679 217.35 73.6601L216.721 72.0541L205.284 76.5415L205.766 77.7701C206.423 79.4461 207.392 80.4835 208.671 80.8839C209.951 81.2843 211.592 81.0924 213.594 80.3067ZM216.035 85.9557C212.628 87.2918 209.635 87.3841 207.055 86.232C204.476 85.0784 202.52 82.8037 201.186 79.4057L198.595 72.8001L219.011 64.7906L221.784 71.8564C223.069 75.1332 223.224 77.9916 222.248 80.4323C221.271 82.8722 219.201 84.7133 216.035 85.9557Z"
    fill="#FEFEFE" />
  <path fill-rule="evenodd" clip-rule="evenodd"
    d="M208.291 108.654L206.443 95.765L228.152 92.6527L230 105.541L225.293 106.216L224.285 99.1926L220.871 99.6825L221.803 106.186L217.096 106.861L216.164 100.357L212.065 100.945L213.073 107.968L208.291 108.654Z"
    fill="#FEFEFE" />
  <path fill-rule="evenodd" clip-rule="evenodd"
    d="M26.7706 167.267C26.355 166.56 25.806 166.186 25.1221 166.147C24.4381 166.108 23.5695 166.398 22.5176 167.015L21.8063 167.434C20.608 168.137 19.8432 168.806 19.5143 169.44C19.1846 170.074 19.2372 170.762 19.6737 171.503C20.0229 172.099 20.595 172.377 21.39 172.34C22.1858 172.301 23.1734 171.936 24.3559 171.242C26.71 169.86 27.5144 168.535 26.7706 167.267ZM31.8279 166.785C32.7651 168.38 32.8394 170.039 32.0523 171.759C31.2645 173.48 29.6895 175.034 27.3268 176.421C24.9467 177.818 22.8041 178.442 20.9002 178.289C18.9963 178.138 17.5505 177.22 16.5628 175.539C16.2439 174.995 16.0188 174.479 15.8875 173.987C15.7555 173.497 15.6956 173.024 15.7072 172.571C15.7194 172.117 15.8378 171.529 16.0629 170.806L15.8811 170.495L13.9743 170.536L11.657 166.59L31.7853 154.773L34.7548 159.83L30.201 162.504C29.6578 162.823 28.6867 163.312 27.2878 163.972L27.3946 164.153C28.4422 164.198 29.3223 164.443 30.0358 164.889C30.7493 165.334 31.3467 165.966 31.8279 166.785Z"
    fill="#FEFEFE" />
  <path fill-rule="evenodd" clip-rule="evenodd"
    d="M29.9927 192.871L26.1438 188.445L43.7579 173.129L47.6061 177.555L29.9927 192.871Z"
    fill="#FEFEFE" />
  <path fill-rule="evenodd" clip-rule="evenodd"
    d="M46.75 207.972L47.4837 205.856L47.2118 205.643C46.3446 205.951 45.4384 205.998 44.4948 205.782C43.5504 205.566 42.6154 205.092 41.6884 204.361C40.2202 203.203 39.4136 201.876 39.2701 200.38C39.1251 198.884 39.6654 197.358 40.8926 195.804L47.7485 187.112L52.3535 190.745L46.6029 198.035C45.9153 198.907 45.5185 199.663 45.4132 200.306C45.3071 200.949 45.5373 201.494 46.1029 201.94C46.895 202.565 47.7067 202.698 48.5371 202.341C49.3667 201.983 50.3674 201.062 51.5376 199.578L56.1462 193.737L60.7511 197.369L50.2245 210.713L46.75 207.972Z"
    fill="#FEFEFE" />
  <path fill-rule="evenodd" clip-rule="evenodd"
    d="M72.3772 207.667C71.7517 207.375 71.1363 207.328 70.531 207.526C69.9257 207.724 69.3904 208.227 68.925 209.037L73.4933 211.166C73.8215 210.415 73.8872 209.723 73.6909 209.09C73.4947 208.458 73.0568 207.983 72.3772 207.667ZM66.9411 220.144C64.3756 218.948 62.7011 217.338 61.9191 215.312C61.137 213.287 61.3326 211.014 62.5071 208.494C63.7198 205.893 65.3084 204.203 67.2708 203.424C69.2338 202.646 71.4342 202.825 73.8727 203.961C76.1929 205.043 77.7036 206.484 78.4034 208.283C79.1039 210.083 78.9236 212.12 77.863 214.395L76.76 216.76L67.2571 212.33C66.8913 213.208 66.8913 214.03 67.2571 214.796C67.6221 215.563 68.3176 216.184 69.342 216.662C70.2749 217.097 71.1752 217.409 72.0417 217.598C72.9082 217.787 73.8987 217.882 75.0126 217.882L73.2314 221.703C72.1983 221.74 71.2005 221.633 70.2366 221.382C69.2713 221.131 68.1733 220.718 66.9411 220.144Z"
    fill="#FEFEFE" />
  <path fill-rule="evenodd" clip-rule="evenodd"
    d="M84.499 220.168L85.6266 215.626L93.8519 217.667L92.725 222.209L84.499 220.168Z"
    fill="#FEFEFE" />
  <path fill-rule="evenodd" clip-rule="evenodd"
    d="M109.045 225.852C109.832 225.917 110.789 225.8 111.918 225.502L111.566 229.763C110.751 230.037 109.98 230.216 109.256 230.302C108.531 230.387 107.691 230.39 106.735 230.312C104.771 230.149 103.395 229.551 102.608 228.518C101.82 227.485 101.509 225.971 101.674 223.978L102.25 216.997L100.203 216.827L100.548 212.462L102.621 212.633L102.916 209.225L108.784 209.709L108.503 213.103L112.659 213.446L112.297 217.826L108.141 217.484L107.596 224.076C107.505 225.173 107.988 225.764 109.045 225.852Z"
    fill="#FEFEFE" />
  <path fill-rule="evenodd" clip-rule="evenodd"
    d="M125.213 221.311C125.385 222.76 125.711 223.842 126.188 224.556C126.666 225.269 127.361 225.571 128.275 225.463C129.179 225.356 129.772 224.9 130.054 224.096C130.336 223.292 130.391 222.165 130.218 220.715C130.047 219.275 129.729 218.21 129.264 217.52C128.8 216.83 128.11 216.54 127.197 216.649C126.303 216.755 125.706 217.195 125.405 217.972C125.105 218.748 125.041 219.86 125.213 221.311ZM136.146 220.01C136.475 222.771 135.988 225.012 134.688 226.732C133.387 228.453 131.401 229.472 128.729 229.79C126.167 230.095 124.035 229.547 122.333 228.148C120.631 226.749 119.62 224.705 119.3 222.013C118.972 219.263 119.461 217.037 120.764 215.336C122.067 213.636 124.059 212.626 126.741 212.306C128.399 212.109 129.906 212.288 131.261 212.841C132.616 213.396 133.716 214.289 134.563 215.523C135.41 216.757 135.938 218.252 136.146 220.01Z"
    fill="#FEFEFE" />
  <path fill-rule="evenodd" clip-rule="evenodd"
    d="M167.078 218.16L163.454 209.66C163.003 208.602 162.52 207.87 162.005 207.464C161.489 207.06 160.919 206.99 160.293 207.256C159.466 207.609 159.009 208.223 158.925 209.095C158.84 209.969 159.12 211.16 159.763 212.669L162.87 219.954L157.46 222.26L153.836 213.76C153.385 212.703 152.909 211.968 152.407 211.556C151.906 211.145 151.347 211.071 150.731 211.333C149.884 211.694 149.429 212.335 149.363 213.253C149.299 214.172 149.632 215.487 150.361 217.199L153.279 224.043L147.884 226.343L141.218 210.709L145.289 208.974L146.789 210.617L147.106 210.481C147.214 209.587 147.581 208.785 148.206 208.072C148.832 207.36 149.646 206.79 150.649 206.362C152.904 205.401 154.778 205.412 156.273 206.394L156.701 206.212C156.867 205.38 157.267 204.615 157.899 203.915C158.53 203.216 159.319 202.665 160.267 202.261C162.116 201.473 163.684 201.364 164.971 201.935C166.258 202.506 167.314 203.757 168.137 205.69L172.473 215.86L167.078 218.16Z"
    fill="#FEFEFE" />
  <path fill-rule="evenodd" clip-rule="evenodd"
    d="M184.625 202.019C185.176 201.571 185.505 201.013 185.613 200.345C185.72 199.677 185.546 199.064 185.092 198.506L184.259 197.482L183.25 198.381C181.797 199.653 181.497 200.814 182.349 201.86C183.006 202.667 183.765 202.72 184.625 202.019ZM190.423 202.251L188.13 201.216L188.038 201.292C188.043 202.551 187.842 203.579 187.433 204.375C187.025 205.172 186.316 205.981 185.308 206.802C184.068 207.812 182.786 208.235 181.467 208.072C180.148 207.908 178.938 207.151 177.839 205.802C176.697 204.398 176.335 202.955 176.753 201.474C177.172 199.992 178.274 198.454 180.058 196.859L182.199 195L182.047 194.813C181.164 193.727 180.187 193.621 179.116 194.491C178.155 195.274 177.198 196.594 176.248 198.452L172.49 196.52C173.381 194.479 174.998 192.505 177.34 190.599C179.031 189.223 180.681 188.576 182.29 188.659C183.898 188.742 185.315 189.536 186.54 191.041L193.576 199.684L190.423 202.251Z"
    fill="#FEFEFE" />
  <path fill-rule="evenodd" clip-rule="evenodd"
    d="M202.682 183.031C203.184 182.421 203.635 181.567 204.033 180.47L207.333 183.189C207.093 184.015 206.801 184.75 206.458 185.394C206.115 186.038 205.639 186.731 205.028 187.472C203.776 188.992 202.5 189.781 201.202 189.839C199.904 189.897 198.483 189.29 196.94 188.017L191.534 183.562L190.226 185.149L186.776 182.324L188.096 180.739L185.509 178.606L189.272 174.041L191.899 176.206L194.551 172.988L197.944 175.783L195.292 179.001L200.397 183.208C201.246 183.908 202.008 183.849 202.682 183.031Z"
    fill="#FEFEFE" />
  <path fill-rule="evenodd" clip-rule="evenodd"
    d="M208.162 167.138C209.454 167.82 210.528 168.168 211.386 168.18C212.245 168.193 212.889 167.793 213.319 166.98C213.745 166.175 213.707 165.428 213.206 164.739C212.705 164.05 211.809 163.365 210.518 162.682C209.237 162.004 208.179 161.661 207.347 161.651C206.515 161.641 205.884 162.042 205.454 162.856C205.034 163.652 205.057 164.394 205.525 165.082C205.992 165.771 206.872 166.456 208.162 167.138ZM213.308 157.404C215.766 158.703 217.333 160.377 218.009 162.425C218.685 164.474 218.395 166.688 217.137 169.066C215.932 171.347 214.269 172.79 212.151 173.395C210.032 174 207.776 173.669 205.38 172.403C202.931 171.109 201.376 169.441 200.718 167.402C200.06 165.363 200.361 163.15 201.623 160.763C202.404 159.286 203.407 158.149 204.633 157.349C205.859 156.549 207.22 156.152 208.716 156.156C210.213 156.161 211.743 156.577 213.308 157.404Z"
    fill="#FEFEFE" />
  <path fill-rule="evenodd" clip-rule="evenodd"
    d="M115.491 154.726C90.2344 154.726 69.7626 139.357 69.7626 120.4C69.7626 104.642 83.9145 91.3738 103.195 87.3394L94.0299 95.398C94.0299 95.398 99.9292 92.4235 103.944 91.4971C106.929 90.8081 109.115 89.8991 112.065 89.4749C114.406 91.9098 121.104 99.4504 121.104 105.984C122.147 98.6618 120.395 91.987 119.651 89.6019C122.22 90.0614 124.276 90.8702 126.989 91.4971C131.005 92.4235 136.904 95.398 136.904 95.398L127.423 87.2622C133.184 88.4288 138.488 90.4243 143.113 93.0569C142.577 93.3274 142.103 93.6723 141.766 94.1535C140.069 96.5768 141.877 100.77 145.802 103.52C149.639 106.205 154.059 106.5 155.844 104.252C159.272 109.064 161.218 114.561 161.218 120.4C161.218 139.357 140.747 154.726 115.491 154.726ZM134.741 82.8261L134.745 82.8188C137.147 81.1379 142.627 79.2051 142.627 79.2051C133.45 77.9007 127.556 79.3913 127.556 79.3913C131.657 73.8707 149.081 70.586 149.081 70.586C129.723 69.6539 119.989 78.8329 119.989 78.8329C120.547 73.3131 129.166 62.0845 129.166 62.0845C117.38 70.213 115.399 78.6474 115.399 78.6474C115.399 78.6474 113.417 70.213 101.631 62.0845C101.631 62.0845 110.252 73.3131 110.81 78.8329C110.81 78.8329 101.073 69.6539 81.717 70.586C81.717 70.586 99.1421 73.8707 103.241 79.3913C103.241 79.3913 97.3471 77.9007 88.1696 79.2051C88.1696 79.2051 93.7254 81.1646 96.1026 82.8549L96.1084 82.8751C74.1425 89.0413 58.4431 105.385 58.4431 124.579C58.4431 149.063 83.9917 168.911 115.511 168.911C147.028 168.911 172.58 149.063 172.58 124.579C172.58 105.337 156.798 88.9584 134.741 82.8261Z"
    fill="#FEFEFE" />
</svg>
