<svg viewBox="0 0 473 172" fill="none" xmlns="http://www.w3.org/2000/svg">
  <path fill-rule="evenodd" clip-rule="evenodd"
    d="M92.8201 149.161C51.7257 149.161 18.4169 124.416 18.4169 93.8934C18.4169 68.5217 41.4432 47.1591 72.8128 40.6625L57.9012 53.6384C57.9012 53.6384 67.4989 48.8488 74.0324 47.3571C78.8902 46.2486 82.4463 44.7844 87.2451 44.1019C91.053 48.0224 101.953 60.1626 101.953 70.6834C103.648 58.893 100.798 48.1467 99.5869 44.3056C103.768 45.0446 107.111 46.3476 111.528 47.3571C118.06 48.8488 127.659 53.6384 127.659 53.6384L112.232 40.5393C121.68 42.4317 130.38 45.6742 137.946 49.9631C141.457 48.5415 146.878 49.5671 151.712 52.919C157.039 56.6059 159.927 61.9238 159.079 65.8213C158.948 66.5039 158.722 67.1519 158.36 67.7332L158.366 67.732C164.015 75.5167 167.22 84.4271 167.22 93.8934C167.22 124.416 133.912 149.161 92.8201 149.161ZM124.14 33.3958L124.147 33.3843C128.054 30.6782 136.969 27.5668 136.969 27.5668C122.038 25.4661 112.45 27.8661 112.45 27.8661C119.122 18.9776 147.472 13.6896 147.472 13.6896C115.976 12.1875 100.137 26.966 100.137 26.966C101.044 18.0798 115.068 0 115.068 0C95.8911 13.0876 92.6699 26.6678 92.6699 26.6678C92.6699 26.6678 89.4441 13.0876 70.2685 0C70.2685 0 84.2954 18.0798 85.2031 26.966C85.2031 26.966 69.3607 12.1875 37.8674 13.6896C37.8674 13.6896 66.2192 18.9776 72.8867 27.8661C72.8867 27.8661 63.2983 25.4661 48.3659 27.5668C48.3659 27.5668 57.4069 30.7207 61.2737 33.443L61.2829 33.4752C25.5441 43.4032 0 69.7176 0 100.621C0 140.042 41.569 171.999 92.8512 171.999C144.131 171.999 185.705 140.042 185.705 100.621C185.705 69.6405 160.027 43.2696 124.14 33.3958Z"
    fill="#1D1D1B" />
  <path fill-rule="evenodd" clip-rule="evenodd"
    d="M158.36 67.7333C158.72 67.152 158.948 66.504 159.077 65.8214C159.927 61.9239 157.039 56.606 151.712 52.9191C146.876 49.5672 141.457 48.5416 137.946 49.9632C130.379 45.6743 121.68 42.4318 112.232 40.5394L127.659 53.6385C127.659 53.6385 118.062 48.849 111.528 47.3572C107.111 46.3477 103.767 45.0447 99.5869 44.3057C100.798 48.1468 103.648 58.892 101.952 70.6835C101.952 60.1628 91.053 48.0225 87.2451 44.102C82.4463 44.7846 78.889 46.2476 74.0324 47.3572C67.5 48.849 57.9012 53.6385 57.9012 53.6385L72.814 40.6626C41.4432 47.1592 18.4169 68.5206 18.4169 93.8935C18.4169 124.416 51.7257 149.161 92.8201 149.161C133.912 149.161 167.22 124.416 167.22 93.8935C167.22 84.4272 164.015 75.5168 158.366 67.7322L158.36 67.7333Z"
    fill="#009EE2" />
  <path fill-rule="evenodd" clip-rule="evenodd"
    d="M135.57 51.6346C138.331 47.7325 145.747 48.1573 152.137 52.5831C158.525 57.0101 161.466 63.7599 158.705 67.662C155.941 71.5653 148.526 71.1406 142.136 66.7147C135.75 62.2877 132.808 55.5367 135.57 51.6346Z"
    fill="#FEFEFE" />
  <path fill-rule="evenodd" clip-rule="evenodd" d="M219.928 172H224.548V36.4392H219.928V172Z"
    fill="#1D1D1B" />
  <path fill-rule="evenodd" clip-rule="evenodd"
    d="M273.635 60.7987H276.555C282.003 60.7987 284.727 58.3988 284.727 53.5988C284.727 49.6392 282.055 47.6582 276.714 47.6582H273.635V60.7987ZM273.635 72.4832V93.4141H258.042V35.8943H276.951C292.635 35.8943 300.478 41.5598 300.478 52.8909C300.478 59.5533 297.214 64.7077 290.689 68.352L307.505 93.4141H289.82L277.582 72.4832H273.635Z"
    fill="#1D1D1B" />
  <path fill-rule="evenodd" clip-rule="evenodd"
    d="M350.279 93.414H316.014V35.8942H350.279V48.366H331.607V57.4156H348.898V69.8874H331.607V80.7454H350.279V93.414Z"
    fill="#1D1D1B" />
  <path fill-rule="evenodd" clip-rule="evenodd"
    d="M418.334 93.414H397.886L376.806 52.8908H376.45C376.95 59.2642 377.201 64.1309 377.201 67.4874V93.414H363.384V35.8942H383.754L404.754 75.8672H404.991C404.623 70.0716 404.439 65.4155 404.439 61.9002V35.8942H418.334V93.414Z"
    fill="#1D1D1B" />
  <path fill-rule="evenodd" clip-rule="evenodd"
    d="M457.92 93.414H442.327V48.6019H428.234V35.8942H471.973V48.6019H457.92V93.414Z" fill="#1D1D1B" />
  <path fill-rule="evenodd" clip-rule="evenodd"
    d="M273.635 139.384H276.555C282.003 139.384 284.727 136.984 284.727 132.184C284.727 128.224 282.055 126.243 276.714 126.243H273.635V139.384ZM273.635 151.068V171.999H258.042V114.48H276.951C292.635 114.48 300.478 120.145 300.478 131.476C300.478 138.139 297.214 143.293 290.689 146.937L307.505 171.999H289.82L277.582 151.068H273.635Z"
    fill="#1D1D1B" />
  <path fill-rule="evenodd" clip-rule="evenodd" d="M326.272 172H341.943V114.48H326.272V172Z"
    fill="#1D1D1B" />
  <path fill-rule="evenodd" clip-rule="evenodd"
    d="M396.981 142.571C396.981 137.299 395.936 133.391 393.842 130.846C391.751 128.302 388.573 127.03 384.309 127.03H379.77V159.252H383.243C387.98 159.252 391.454 157.882 393.665 155.14C395.876 152.401 396.981 148.21 396.981 142.571ZM413.166 142.019C413.166 151.619 410.515 159.016 405.211 164.21C399.908 169.403 392.453 171.999 382.849 171.999H364.177V114.48H384.152C393.414 114.48 400.566 116.84 405.606 121.562C410.645 126.283 413.166 133.102 413.166 142.019Z"
    fill="#1D1D1B" />
  <path fill-rule="evenodd" clip-rule="evenodd"
    d="M466.198 171.999H431.933V114.479H466.198V126.951H447.526V136.001H464.817V148.473H447.526V159.331H466.198V171.999Z"
    fill="#1D1D1B" />
  <path fill-rule="evenodd" clip-rule="evenodd"
    d="M466.3 171.265C464.442 171.265 462.941 170.777 461.837 169.813C460.706 168.825 460.132 167.433 460.132 165.678C460.132 163.912 460.679 162.516 461.76 161.529C462.823 160.557 464.351 160.064 466.3 160.064C468.168 160.064 469.643 160.559 470.681 161.535C471.732 162.523 472.263 163.917 472.263 165.678C472.263 167.408 471.718 168.792 470.638 169.787C469.575 170.769 468.115 171.265 466.3 171.265Z"
    fill="#009EE2" />
  <path fill-rule="evenodd" clip-rule="evenodd"
    d="M466.3 159.331C464.16 159.331 462.466 159.889 461.263 160.988C460.025 162.12 459.396 163.698 459.396 165.678C459.396 167.654 460.054 169.231 461.351 170.365C462.593 171.449 464.258 172 466.3 172C468.306 172 469.934 171.436 471.137 170.326C472.374 169.185 473 167.622 473 165.678C473 163.707 472.39 162.134 471.187 161.002C470.006 159.893 468.363 159.331 466.3 159.331ZM466.3 160.797C467.984 160.797 469.275 161.222 470.176 162.068C471.077 162.916 471.529 164.119 471.529 165.678C471.529 167.203 471.065 168.394 470.138 169.25C469.212 170.104 467.932 170.533 466.3 170.533C464.617 170.533 463.29 170.109 462.321 169.262C461.352 168.415 460.867 167.22 460.867 165.678C460.867 164.119 461.33 162.916 462.258 162.068C463.184 161.222 464.532 160.797 466.3 160.797Z"
    fill="#FEFEFE" />
  <path fill-rule="evenodd" clip-rule="evenodd"
    d="M297.208 122.337V108.311L285.085 85.6303H297.107L302.726 97.7729L308.392 85.6303H320.372L308.242 108.023V122.337H297.208Z"
    fill="#009EE2" />
  <path fill-rule="evenodd" clip-rule="evenodd"
    d="M321.534 84.9387H319.211H308.834H307.95L307.577 85.7376L302.73 96.1294L297.922 85.7422L297.551 84.9387H296.664H286.238H283.93L285.015 86.9692L296.514 108.485V121.646V123.027H297.9H307.55H308.936V121.646V108.198L320.43 86.9761L321.534 84.9387ZM319.211 86.32L307.55 107.849V121.646H297.9V108.14L286.238 86.32H296.664L302.724 99.4168L308.834 86.32H319.211Z"
    fill="#FEFEFE" />
  <path fill-rule="evenodd" clip-rule="evenodd"
    d="M340.707 94.2839C336.328 94.2839 334.198 97.4412 334.198 103.936C334.198 110.364 336.312 113.491 340.658 113.491C342.863 113.491 344.442 112.772 345.487 111.293C346.569 109.76 347.119 107.285 347.119 103.936C347.119 100.57 346.561 98.0732 345.462 96.5146C344.401 95.0148 342.847 94.2839 340.707 94.2839ZM340.658 122.82C334.927 122.82 330.455 121.178 327.367 117.942C324.288 114.714 322.729 109.986 322.729 103.887C322.729 97.8533 324.281 93.1593 327.344 89.9409C330.415 86.711 334.91 85.0742 340.707 85.0742C346.52 85.0742 351.004 86.6995 354.036 89.9064C357.057 93.1017 358.589 97.8211 358.589 103.936C358.589 110.033 357.049 114.751 354.013 117.962C350.965 121.187 346.471 122.82 340.658 122.82Z"
    fill="#009EE2" />
  <path fill-rule="evenodd" clip-rule="evenodd"
    d="M340.659 112.798C338.184 112.798 334.893 111.88 334.893 103.935C334.893 95.9028 338.211 94.9751 340.707 94.9751C342.604 94.9751 343.975 95.6082 344.896 96.9135C345.91 98.3511 346.424 100.714 346.424 103.935C346.424 107.14 345.918 109.482 344.919 110.895C344.015 112.175 342.622 112.798 340.659 112.798ZM340.707 84.383C334.713 84.383 330.047 86.0935 326.84 89.4649C323.652 92.818 322.035 97.6686 322.035 103.887C322.035 110.169 323.66 115.059 326.865 118.418C330.089 121.797 334.729 123.511 340.659 123.511C346.67 123.511 351.332 121.804 354.517 118.437C357.679 115.095 359.282 110.214 359.282 103.935C359.282 97.6386 357.687 92.7593 354.541 89.4327C351.373 86.0831 346.719 84.383 340.707 84.383ZM340.659 114.179C343.083 114.179 344.881 113.351 346.052 111.691C347.225 110.032 347.81 107.447 347.81 103.935C347.81 100.407 347.217 97.8021 346.029 96.1181C344.841 94.4352 343.067 93.5926 340.707 93.5926C335.907 93.5926 333.507 97.0412 333.507 103.935C333.507 110.765 335.89 114.179 340.659 114.179ZM340.707 85.7654C346.348 85.7654 350.623 87.3032 353.532 90.38C356.441 93.4568 357.896 97.9747 357.896 103.935C357.896 109.879 356.433 114.397 353.508 117.49C350.582 120.583 346.3 122.129 340.659 122.129C335.099 122.129 330.836 120.575 327.87 117.466C324.904 114.357 323.421 109.831 323.421 103.887C323.421 98.007 324.896 93.5178 327.846 90.4157C330.794 87.3147 335.083 85.7654 340.707 85.7654Z"
    fill="#FEFEFE" />
  <path fill-rule="evenodd" clip-rule="evenodd"
    d="M382.447 122.82C377.453 122.82 373.544 121.512 370.829 118.933C368.104 116.344 366.724 112.6 366.724 107.801V85.6302H377.733V107.053C377.733 109.372 378.152 111.053 378.98 112.048C379.786 113.017 380.969 113.491 382.593 113.491C384.339 113.491 385.552 113.027 386.303 112.074C387.081 111.086 387.476 109.379 387.476 107.004V85.6302H398.438V107.583C398.438 112.38 397.041 116.16 394.288 118.819C391.539 121.474 387.556 122.82 382.447 122.82Z"
    fill="#009EE2" />
  <path fill-rule="evenodd" clip-rule="evenodd"
    d="M399.131 84.9387H397.745H388.169H386.783V86.32V107.003C386.783 109.765 386.224 111.053 385.756 111.648C385.148 112.422 384.113 112.798 382.592 112.798C381.186 112.798 380.18 112.409 379.514 111.608C378.802 110.751 378.426 109.177 378.426 107.052V86.32V84.9387H377.041H367.416H366.03V86.32V107.801C366.03 112.794 367.484 116.708 370.35 119.433C373.199 122.138 377.269 123.511 382.446 123.511C387.741 123.511 391.887 122.1 394.77 119.316C397.664 116.519 399.131 112.571 399.131 107.584V86.32V84.9387ZM397.745 86.32V107.584C397.745 112.206 396.432 115.786 393.805 118.324C391.179 120.86 387.393 122.13 382.446 122.13C377.614 122.13 373.901 120.897 371.307 118.432C368.713 115.968 367.416 112.424 367.416 107.801V86.32H377.041V107.052C377.041 109.548 377.509 111.361 378.447 112.488C379.383 113.616 380.766 114.179 382.592 114.179C384.548 114.179 385.965 113.62 386.847 112.5C387.728 111.381 388.169 109.548 388.169 107.003V86.32H397.745Z"
    fill="#FEFEFE" />
  <path fill-rule="evenodd" clip-rule="evenodd"
    d="M420.149 100.925C423.1 100.925 424.474 99.7393 424.474 97.1932C424.474 95.9235 424.036 94.2349 420.246 94.2349H419.047V100.925H420.149ZM427.897 122.337L420.381 109.482H419.047V122.337H408.087V85.6307H420.392C430.439 85.6307 435.533 89.3751 435.533 96.7592C435.533 100.873 433.61 104.14 429.811 106.478L440.453 122.337H427.897Z"
    fill="#009EE2" />
  <path fill-rule="evenodd" clip-rule="evenodd"
    d="M419.741 94.9263H420.245C423.782 94.9263 423.782 96.4008 423.782 97.1939C423.782 98.7731 423.341 100.234 420.148 100.234H419.741V94.9263ZM420.391 84.9385H408.779H407.393V86.3198V121.646V123.027H408.779H418.355H419.741V121.646V110.173H419.982L427.098 122.341L427.499 123.027H428.294H439.157H441.751L440.308 120.878L430.78 106.677C434.396 104.237 436.227 100.906 436.227 96.7588C436.227 86.9897 427.615 84.9385 420.391 84.9385ZM418.355 101.615H420.148C423.494 101.615 425.167 100.142 425.167 97.1939C425.167 94.7617 423.527 93.545 420.245 93.545H418.355V101.615ZM420.391 86.3198C430.024 86.3198 434.841 89.7994 434.841 96.7588C434.841 100.85 432.836 104.015 428.828 106.254L439.157 121.646H428.294L420.779 108.791H418.355V121.646H408.779V86.3198H420.391Z"
    fill="#FEFEFE" />
</svg>
