<svg width="49" height="30" fill="none" xmlns="http://www.w3.org/2000/svg">
  <path
    d="M45.028 0.962402H4.16982C2.66927 0.962402 1.45284 2.17884 1.45284 3.67938V26.3209C1.45284 27.8214 2.66927 29.0379 4.16982 29.0379H45.028C46.5286 29.0379 47.745 27.8214 47.745 26.3209V3.67938C47.745 2.17884 46.5286 0.962402 45.028 0.962402Z"
    fill="white" stroke="#EAEAEA" />
  <path d="M20.3508 5.03857H28.3512V19.0052H20.3508V5.03857Z" fill="#FF5F00" />
  <path
    d="M20.8587 12.0233C20.8558 9.29745 22.1436 6.72174 24.351 5.03876C20.6022 2.17686 15.2187 2.59372 11.984 5.99638C8.74929 9.39903 8.74929 14.6451 11.984 18.0477C15.2187 21.4504 20.6022 21.8673 24.351 19.0054C22.1443 17.3229 20.8565 14.7483 20.8587 12.0233Z"
    fill="#EB001B" />
  <path
    d="M39.1453 12.0233C39.1453 15.4239 37.1463 18.5259 33.9976 20.0119C30.8488 21.498 27.103 21.1071 24.351 19.0053C26.5567 17.3215 27.8445 14.7472 27.8445 12.022C27.8445 9.29692 26.5567 6.72262 24.351 5.03874C27.103 2.93699 30.8488 2.54613 33.9976 4.03217C37.1463 5.5182 39.1453 8.62023 39.1453 12.0208V12.0233Z"
    fill="#F79E1B" />
  <path
    d="M38.2732 17.7656V17.2801H38.3936V17.1797H38.0888V17.2801H38.2194V17.7656H38.2732ZM38.8651 17.7656V17.1797H38.7728L38.6652 17.5982L38.5576 17.1797H38.4756V17.7656H38.5422V17.3262L38.6422 17.707H38.7113L38.8113 17.3262V17.7698L38.8651 17.7656Z"
    fill="#F79E1B" />
  <path
    d="M14.941 25.3704V23.8902C14.959 23.6383 14.8645 23.3911 14.6817 23.2117C14.4989 23.0322 14.2455 22.9378 13.986 22.9526C13.6441 22.9309 13.3171 23.0916 13.1327 23.372C12.9645 23.0999 12.6565 22.939 12.3301 22.9526C12.0459 22.9387 11.7753 23.072 11.6189 23.303V23.0118H11.0907V25.3704H11.624V24.0727C11.6011 23.9094 11.6543 23.7447 11.7693 23.6235C11.8842 23.5022 12.0489 23.4372 12.2183 23.4461C12.5688 23.4461 12.7466 23.6681 12.7466 24.0678V25.3803H13.28V24.0727C13.2579 23.9096 13.3115 23.7454 13.4263 23.6244C13.541 23.5034 13.7051 23.4381 13.8743 23.4461C14.2349 23.4461 14.4076 23.6681 14.4076 24.0678V25.3803L14.941 25.3704ZM22.8322 23.0118H21.9636V22.2964H21.4302V23.0118H20.9476V23.4806H21.4404V24.5662C21.4404 25.1139 21.6588 25.4395 22.2836 25.4395C22.517 25.4403 22.7459 25.377 22.9439 25.257L22.7915 24.8178C22.6499 24.8999 22.4891 24.9457 22.3242 24.951C22.0702 24.951 21.9737 24.7931 21.9737 24.5563V23.4806H22.8373L22.8322 23.0118ZM27.3378 22.9526C27.0754 22.9451 26.8298 23.0777 26.6978 23.298V23.0118H26.1746V25.3704H26.7028V24.048C26.7028 23.6582 26.8755 23.4411 27.2108 23.4411C27.3238 23.4396 27.436 23.4597 27.541 23.5003L27.7035 23.0069C27.5829 22.965 27.4558 22.9433 27.3276 22.9428L27.3378 22.9526ZM20.526 23.1993C20.227 23.0266 19.8832 22.941 19.5355 22.9526C18.9209 22.9526 18.5196 23.2388 18.5196 23.7076C18.5196 24.0925 18.8142 24.3293 19.3577 24.4033L19.6117 24.4379C19.9012 24.4773 20.0384 24.5514 20.0384 24.6846C20.0384 24.8671 19.8454 24.9708 19.4847 24.9708C19.1946 24.9789 18.9101 24.892 18.6771 24.7241L18.4231 25.1237C18.7308 25.3325 19.0994 25.4397 19.4746 25.4297C20.1755 25.4297 20.5819 25.1089 20.5819 24.6599C20.5819 24.2109 20.2619 24.0283 19.7336 23.9543L19.4796 23.9198C19.2511 23.8902 19.0682 23.8457 19.0682 23.6878C19.0682 23.5299 19.2409 23.4115 19.5304 23.4115C19.798 23.4145 20.0604 23.4842 20.2924 23.6138L20.526 23.1993ZM34.6753 22.9526C34.4129 22.9451 34.1673 23.0777 34.0352 23.298V23.0118H33.512V25.3704H34.0403V24.048C34.0403 23.6582 34.213 23.4411 34.5483 23.4411C34.6613 23.4396 34.7735 23.4597 34.8785 23.5003L35.041 23.0069C34.9204 22.965 34.7932 22.9433 34.6651 22.9428L34.6753 22.9526ZM27.8686 24.1862C27.8559 24.5214 27.9892 24.8462 28.2357 25.081C28.4822 25.3158 28.8192 25.4388 29.1639 25.4198C29.4811 25.4355 29.7928 25.3351 30.0376 25.1385L29.7836 24.7241C29.601 24.8593 29.3783 24.9337 29.1487 24.9362C28.7437 24.9044 28.4318 24.5759 28.4318 24.1813C28.4318 23.7867 28.7437 23.4582 29.1487 23.4263C29.3783 23.4288 29.601 23.5032 29.7836 23.6385L30.0376 23.224C29.7928 23.0274 29.4811 22.9271 29.1639 22.9428C28.8192 22.9238 28.4822 23.0468 28.2357 23.2816C27.9892 23.5164 27.8559 23.8412 27.8686 24.1763V24.1862ZM32.8161 24.1862V23.0118H32.2879V23.298C32.1059 23.0705 31.8223 22.942 31.5259 22.9526C30.8246 22.9526 30.256 23.5049 30.256 24.1862C30.256 24.8675 30.8246 25.4198 31.5259 25.4198C31.8223 25.4304 32.1059 25.3019 32.2879 25.0744V25.3606H32.8161V24.1862ZM30.8503 24.1862C30.8738 23.799 31.2116 23.5011 31.6106 23.5157C32.0096 23.5302 32.3234 23.8519 32.317 24.2397C32.3105 24.6275 31.9861 24.9391 31.5869 24.9412C31.3836 24.9437 31.1884 24.8636 31.0486 24.7202C30.9087 24.5769 30.8369 24.3833 30.8503 24.1862ZM24.4754 22.9526C23.7741 22.9622 23.2135 23.5222 23.2233 24.2035C23.2331 24.8848 23.8096 25.4293 24.511 25.4198C24.8764 25.438 25.2357 25.3237 25.5193 25.0991L25.2653 24.7191C25.0648 24.8754 24.8163 24.9622 24.5592 24.9658C24.1961 24.9962 23.8741 24.7403 23.8329 24.3885H25.6361C25.6361 24.3244 25.6361 24.2602 25.6361 24.1911C25.6361 23.451 25.1637 22.9576 24.483 22.9576L24.4754 22.9526ZM24.4754 23.4115C24.6351 23.4082 24.7895 23.4667 24.9048 23.574C25.0201 23.6814 25.0867 23.8288 25.0901 23.9839H23.8202C23.8393 23.6545 24.1258 23.4003 24.4653 23.4115H24.4754ZM37.7103 24.1911V22.0645H37.2024V23.298C37.0204 23.0705 36.7368 22.942 36.4404 22.9526C35.7391 22.9526 35.1705 23.5049 35.1705 24.1862C35.1705 24.8675 35.7391 25.4198 36.4404 25.4198C36.7368 25.4304 37.0204 25.3019 37.2024 25.0744V25.3606H37.7103V24.1911ZM38.5916 25.0275C38.6247 25.0271 38.6574 25.033 38.6882 25.0448C38.7173 25.0563 38.744 25.0731 38.7669 25.0941C38.7892 25.1154 38.8073 25.1405 38.8202 25.1681C38.8462 25.2264 38.8462 25.2925 38.8202 25.3507C38.8073 25.3784 38.7892 25.4035 38.7669 25.4247C38.744 25.4458 38.7173 25.4625 38.6882 25.4741C38.6578 25.4871 38.6249 25.4938 38.5916 25.4938C38.4934 25.4931 38.4043 25.4374 38.3631 25.3507C38.3374 25.2924 38.3374 25.2264 38.3631 25.1681C38.376 25.1405 38.3941 25.1154 38.4164 25.0941C38.4393 25.0731 38.466 25.0563 38.4951 25.0448C38.5282 25.032 38.5637 25.0261 38.5993 25.0275H38.5916ZM38.5916 25.4445C38.617 25.4446 38.6421 25.4396 38.6653 25.4297C38.6872 25.4202 38.707 25.4068 38.7237 25.3902C38.7896 25.3204 38.7896 25.2133 38.7237 25.1435C38.707 25.1268 38.6872 25.1134 38.6653 25.104C38.6421 25.0942 38.617 25.0891 38.5916 25.0892C38.5663 25.0893 38.5413 25.0944 38.518 25.104C38.4952 25.1131 38.4744 25.1265 38.457 25.1435C38.3912 25.2133 38.3912 25.3204 38.457 25.3902C38.4745 25.4071 38.4952 25.4205 38.518 25.4297C38.5436 25.4404 38.5714 25.4455 38.5993 25.4445H38.5916ZM38.6069 25.1509C38.6306 25.1498 38.654 25.1567 38.6729 25.1706C38.6887 25.1833 38.6972 25.2026 38.6958 25.2224C38.6965 25.239 38.6901 25.2551 38.678 25.2668C38.6633 25.2798 38.6445 25.2876 38.6247 25.289L38.6983 25.3704H38.6399L38.5713 25.289H38.5485V25.3704H38.5002V25.1533L38.6069 25.1509ZM38.551 25.1928V25.252H38.6069C38.6168 25.2549 38.6274 25.2549 38.6374 25.252C38.641 25.245 38.641 25.2368 38.6374 25.2298C38.641 25.2228 38.641 25.2146 38.6374 25.2076C38.6274 25.2047 38.6168 25.2047 38.6069 25.2076L38.551 25.1928ZM35.7572 24.1911C35.7807 23.804 36.1185 23.506 36.5175 23.5206C36.9165 23.5351 37.2303 23.8568 37.2239 24.2446C37.2174 24.6324 36.893 24.9441 36.4938 24.9461C36.2905 24.9486 36.0953 24.8685 35.9555 24.7251C35.8156 24.5818 35.7437 24.3882 35.7572 24.1911ZM17.9202 24.1911V23.0118H17.3919V23.298C17.2099 23.0705 16.9264 22.942 16.63 22.9526C15.9286 22.9526 15.3601 23.5049 15.3601 24.1862C15.3601 24.8675 15.9286 25.4198 16.63 25.4198C16.9264 25.4304 17.2099 25.3019 17.3919 25.0744V25.3606H17.9202V24.1911ZM15.9544 24.1911C15.9779 23.804 16.3157 23.506 16.7147 23.5206C17.1136 23.5351 17.4275 23.8568 17.421 24.2446C17.4146 24.6324 17.0902 24.9441 16.6909 24.9461C16.4868 24.95 16.2903 24.8705 16.1493 24.727C16.0083 24.5835 15.9358 24.3891 15.9493 24.1911H15.9544Z"
    fill="#231F20" />
</svg>
