<svg width="48" height="36" fill="none" xmlns="http://www.w3.org/2000/svg">
  <path fill-rule="evenodd" clip-rule="evenodd" d="M0 0H48V36H0V0Z" fill="#E8AA00" />
  <path fill-rule="evenodd" clip-rule="evenodd" d="M4.8 4.80005H43.2V31.2001H4.8V4.80005Z"
    fill="#C51918" />
  <mask id="mask0_123_5383" style="mask-type:luminance" maskUnits="userSpaceOnUse" x="4" y="4"
    width="40" height="28">
    <path fill-rule="evenodd" clip-rule="evenodd" d="M4.8 4.80005H43.2V31.2001H4.8V4.80005Z"
      fill="white" />
  </mask>
  <g mask="url(#mask0_123_5383)">
    <path fill-rule="evenodd" clip-rule="evenodd"
      d="M30.3464 23.627C30.9581 23.627 31.4541 23.1187 31.4541 22.4918C31.4541 21.8649 30.9581 21.3567 30.3464 21.3567C29.7346 21.3567 29.2387 21.8649 29.2387 22.4918C29.2387 23.1187 29.7346 23.627 30.3464 23.627Z"
      fill="#1E5E91" />
    <path fill-rule="evenodd" clip-rule="evenodd"
      d="M15.9415 18.4977C13.0356 15.1205 17.2004 9.25977 17.2004 9.25977C17.2004 9.25977 17.823 12.7601 20.1275 15.1155C20.1275 15.2827 19.9099 15.5295 19.6896 15.7793C19.5357 15.9538 19.3805 16.1298 19.2972 16.2812C19.0946 16.6495 19.7902 16.8594 20.1275 16.8594C20.2789 16.8594 20.3626 17.079 20.4381 17.2772C20.5308 17.5205 20.6112 17.7316 20.7897 17.4642C21.1136 16.979 20.4659 15.9129 20.4659 15.9129L21.4912 14.8314L21.838 14.1323H21.4912V13.4126L21.2483 13.6121C21.2483 13.6121 20.9817 12.9685 20.4659 12.9685C19.9501 12.9685 19.7902 12.6742 19.7902 12.6742H20.4659C20.8042 12.6742 20.4118 12.2259 20.1275 11.9923C20.0001 11.8877 19.8068 11.9238 19.6323 11.9563C19.4174 11.9964 19.2311 12.0312 19.2311 11.7916C19.2311 11.529 19.4356 11.4942 19.6718 11.454C19.8262 11.4278 19.9942 11.3992 20.1275 11.3032C20.3481 11.1444 20.6453 11.1932 20.967 11.2461C21.1375 11.2741 21.3148 11.3032 21.4912 11.3032H22.3267C22.6283 11.3032 21.838 11.7916 21.838 11.7916L22.3267 12.2259L23.0534 12.9685L22.69 13.1842L23.4399 13.9114C23.4399 13.9114 23.1853 14.3253 23.4399 14.3253C23.5448 14.3253 23.6138 14.4113 23.6588 14.5124C23.7037 14.4113 23.7727 14.3253 23.8776 14.3253C24.1322 14.3253 23.8776 13.9114 23.8776 13.9114L24.6276 13.1842L24.2641 12.9685L24.9908 12.2259L25.4795 11.7916C25.4795 11.7916 24.6892 11.3032 24.9908 11.3032H25.8263C26.0027 11.3032 26.18 11.2741 26.3505 11.2461C26.6722 11.1932 26.9695 11.1444 27.19 11.3032C27.3233 11.3992 27.4913 11.4278 27.6457 11.454C27.8819 11.4942 28.0864 11.529 28.0864 11.7916C28.0864 12.0312 27.9001 11.9964 27.6852 11.9563C27.5107 11.9238 27.3174 11.8877 27.19 11.9923C26.9057 12.2259 26.5133 12.6742 26.8516 12.6742H27.5273C27.5273 12.6742 27.3674 12.9685 26.8516 12.9685C26.3358 12.9685 26.0692 13.6121 26.0692 13.6121L25.8263 13.4126V14.1323H25.4795L25.8263 14.8314L26.8516 15.9129C26.8516 15.9129 26.2039 16.979 26.5278 17.4642C26.7063 17.7316 26.7867 17.5205 26.8794 17.2772C26.9549 17.079 27.0386 16.8594 27.19 16.8594C27.5273 16.8594 28.2229 16.6495 28.0203 16.2812C27.937 16.1298 27.7818 15.9538 27.6279 15.7793C27.4076 15.5295 27.19 15.2827 27.19 15.1155C29.4945 12.7601 30.1171 9.25977 30.1171 9.25977C30.1171 9.25977 34.2819 15.1205 31.376 18.4977C28.4702 21.8749 26.3358 20.8565 26.3358 20.8565L27.5273 21.9249L27.19 22.2169H28.1827L27.8177 22.4609L28.0864 22.5786L28.3709 22.7032C28.3709 22.7032 27.604 23.2672 28.3709 23.2672C28.492 23.2672 28.6202 23.2636 28.7523 23.2599C28.8969 23.2559 29.0461 23.2518 29.1951 23.252C29.2353 23.2521 29.1455 23.0311 29.0565 22.8119C28.9687 22.5957 28.8816 22.3812 28.9209 22.3829C29.0037 22.3864 29.1666 22.583 29.33 22.7803C29.4603 22.9376 29.591 23.0953 29.6817 23.156C29.7402 23.1951 29.9685 23.1158 30.18 23.0423C30.3589 22.9802 30.5257 22.9222 30.5679 22.9435C30.7462 23.0335 30.7006 23.2156 30.6572 23.3891C30.646 23.4336 30.635 23.4777 30.628 23.5194C30.6216 23.5573 30.85 23.4091 31.0903 23.2533C31.3425 23.0896 31.6079 22.9175 31.6281 22.9435C31.6323 22.949 31.6369 22.9545 31.6417 22.9603C31.7275 23.0635 31.8657 23.2297 30.8457 24.0159C30.8457 24.167 30.851 24.2903 30.8554 24.3905C30.8694 24.7122 30.873 24.7955 30.6551 24.7955C30.558 24.7955 30.4222 24.8437 30.2649 24.8994C29.8615 25.0424 29.3166 25.2356 28.9209 24.7955C28.3709 24.1839 27.5273 23.2672 27.5273 23.2672V23.7177L26.5278 22.7032L26.3358 23.2672L24.9908 21.7223L24.6276 21.9249C24.6276 21.9249 25.8656 25.3415 26.5278 25.3653C26.8568 25.3771 26.3572 25.6964 25.6952 26.1194C25.0251 26.5477 24.1888 27.0822 23.8776 27.5115C23.785 27.6393 23.7135 27.4444 23.6588 27.0208C23.604 27.4444 23.5325 27.6393 23.4399 27.5115C23.1288 27.0822 22.2924 26.5477 21.6223 26.1194C20.9604 25.6964 20.4607 25.3771 20.7897 25.3653C21.4519 25.3415 22.69 21.9249 22.69 21.9249L22.3267 21.7223L20.9817 23.2672L20.7897 22.7032L19.7902 23.7177V23.2672C19.7902 23.2672 18.9466 24.1839 18.3966 24.7955C18.0009 25.2356 17.4561 25.0424 17.0526 24.8994C16.8953 24.8437 16.7595 24.7955 16.6624 24.7955C16.3164 24.7955 16.2005 24.3114 16.6624 23.7177C17.0513 23.2178 17.8612 23.2404 18.5653 23.2599C18.6973 23.2636 18.8255 23.2672 18.9466 23.2672C19.7135 23.2672 18.9466 22.7032 18.9466 22.7032L19.2311 22.5786L19.4998 22.4609L19.1348 22.2169H20.1275L19.7902 21.9249L20.9817 20.8565C20.9817 20.8565 18.8473 21.8749 15.9415 18.4977Z"
      fill="#F6C540" />
    <path fill-rule="evenodd" clip-rule="evenodd"
      d="M18.6496 25.5455L17.337 23.2442C17.337 23.2442 15.6207 19.2871 15.6207 18.8066C15.6207 18.3262 14.9298 16.9034 14.9298 17.3164C14.9298 17.7294 14.9298 18.8066 14.9298 18.8066L17.8255 25.3301V25.8441H18.2155L18.6496 25.5455Z"
      fill="#F6C540" />
    <path d="M29.1628 22.4473L29.3625 21.7844L31.8013 22.5192L31.6016 23.1821L29.1628 22.4473Z"
      fill="#F6C540" />
    <path d="M30.4619 21.2405L31.1214 21.4564L30.4771 23.5234L29.8176 23.3075L30.4619 21.2405Z"
      fill="#F6C540" />
    <path fill-rule="evenodd" clip-rule="evenodd"
      d="M31.0762 20.5665L30.9344 20.5342L30.8768 20.7622L30.6163 20.6982L30.5843 20.8374L30.8418 20.9006L30.7762 21.1605L30.9179 21.1929L30.983 20.9353L31.2393 20.9982L31.2713 20.8591L31.018 20.7969L31.0762 20.5665Z"
      fill="#F6C540" />
    <path fill-rule="evenodd" clip-rule="evenodd"
      d="M23.542 7.8335L23.6133 8.08223H23.8299L23.9012 7.8335C24.0814 7.88774 24.2449 7.94947 24.3914 8.01838L24.3965 7.9639C25.5542 8.06965 26.155 8.55427 26.0906 9.40633C26.0373 10.1116 25.6803 10.4811 25.085 10.4717V10.9985C25.085 10.9985 24.1158 11.3706 23.6312 11.3706C23.1466 11.3706 22.1773 10.9985 22.1773 10.9985V10.4628C21.687 10.4023 21.3943 10.0397 21.3464 9.40633C21.282 8.55427 21.8828 8.06965 23.0405 7.9639L23.0458 8.02116C23.1939 7.95113 23.3593 7.88847 23.542 7.8335ZM22.3163 9.99996C22.2511 10.0182 22.2052 10.0317 22.1866 10.0372C21.9206 9.98746 21.7908 9.77506 21.7607 9.37599C21.7302 8.97255 21.9198 8.69189 22.3668 8.53006C22.0619 8.92026 22.0395 9.41663 22.3163 9.99996ZM22.729 9.89245C22.9733 9.83377 23.2558 9.77543 23.4822 9.75536V8.29936C22.5526 8.62566 22.3293 9.12482 22.729 9.89245ZM23.8976 9.76841C24.2093 9.80925 24.5877 9.90287 24.8322 9.96872L24.7096 9.90104C25.1245 9.11136 24.8838 8.60469 23.8976 8.27777V9.76841ZM25.0788 8.5332C25.3898 8.93375 25.4039 9.44579 25.1031 10.0486C25.4694 10.0542 25.641 9.84277 25.6763 9.37599C25.7066 8.97515 25.5196 8.69551 25.0788 8.5332Z"
      fill="#F6C540" />
    <path fill-rule="evenodd" clip-rule="evenodd"
      d="M23.631 8.27856C23.8986 8.27856 24.1156 8.06159 24.1156 7.79394C24.1156 7.5263 23.8986 7.30933 23.631 7.30933C23.3634 7.30933 23.1464 7.5263 23.1464 7.79394C23.1464 8.06159 23.3634 8.27856 23.631 8.27856Z"
      fill="#3D58DB" />
    <path fill-rule="evenodd" clip-rule="evenodd"
      d="M23.6985 6.74725L23.5532 6.75019L23.5524 6.98536L23.2839 6.98632L23.2865 7.12909L23.552 7.12815L23.5512 7.39624L23.6965 7.3933L23.6973 7.12763L23.961 7.12669L23.9584 6.98392L23.6978 6.98484L23.6985 6.74725Z"
      fill="#F6C540" />
    <path fill-rule="evenodd" clip-rule="evenodd"
      d="M20.9309 15.5391C20.9309 15.5391 22.6375 15.217 23.5617 15.217C24.3913 15.217 26.1925 15.5391 26.1925 15.5391C26.1925 17.5792 26.7666 18.8281 26.1925 20.2215C25.6184 21.6149 24.2154 20.9451 23.5804 22.2785C22.7689 21.0138 21.673 21.7099 20.9309 19.909C20.1889 18.1081 21.3821 17.2786 20.9309 15.5391Z"
      fill="#1E5E91" />
    <mask id="mask1_123_5383" style="mask-type:luminance" maskUnits="userSpaceOnUse" x="20" y="15"
      width="7" height="8">
      <path fill-rule="evenodd" clip-rule="evenodd"
        d="M20.9309 15.5391C20.9309 15.5391 22.6375 15.217 23.5617 15.217C24.3913 15.217 26.1925 15.5391 26.1925 15.5391C26.1925 17.5792 26.7666 18.8281 26.1925 20.2215C25.6184 21.6149 24.2154 20.9451 23.5804 22.2785C22.7689 21.0138 21.673 21.7099 20.9309 19.909C20.1889 18.1081 21.3821 17.2786 20.9309 15.5391Z"
        fill="white" />
    </mask>
    <g mask="url(#mask1_123_5383)">
      <rect x="20.9311" y="19.7959" width="5.26154" height="2.55405" fill="#5EAA22" />
      <path fill-rule="evenodd" clip-rule="evenodd"
        d="M22.4866 16.5444C22.2855 16.1171 23.5431 16.0674 23.5431 16.0674C23.5431 16.0674 23.8142 16.5444 23.5431 17.2231C23.3459 17.7167 23.6748 17.6727 24.1286 17.612C24.2988 17.5892 24.4865 17.5641 24.6707 17.5641C24.9528 17.5641 25.1013 17.5434 25.2246 17.5897C25.3964 17.6543 25.5193 17.849 25.8869 18.4113C26.0548 18.668 26.0474 18.8371 25.9461 18.9382C25.9549 19.1994 25.6705 19.4159 25.1453 19.5545L25.0762 19.2797C25.3541 19.2063 25.5243 19.1362 25.6033 19.0587C25.2073 19.0829 24.6707 18.8871 24.6707 18.6357C24.6707 18.515 24.5372 18.4417 24.3307 18.3994V18.4597C24.3342 18.4597 24.3619 18.4325 24.3673 18.4153L24.3679 18.42C24.3695 18.432 24.3733 18.454 24.3804 18.4851C24.3845 18.5033 24.3997 18.5642 24.4085 18.5992L24.4085 18.5993L24.4085 18.5994L24.4145 18.6235C24.4508 18.7722 24.4691 18.8891 24.4691 19.0173C24.4691 19.3755 24.1641 19.586 23.6123 19.6671L23.573 19.3862C24.0052 19.3226 24.1922 19.1936 24.1922 19.0173C24.1922 18.9166 24.1771 18.8204 24.1459 18.6922L24.1415 18.6747L24.1415 18.6747C24.1332 18.6416 24.1157 18.5718 24.1107 18.5495C24.0978 18.493 24.0913 18.4506 24.0913 18.4101C24.0913 18.3949 24.0923 18.3802 24.0944 18.3661C23.7417 18.3337 23.2849 18.3518 22.8952 18.374C22.8182 19.0448 22.4714 19.4741 21.8637 19.6358L21.7941 19.3612C22.27 19.2345 22.5408 18.9189 22.6142 18.3909C22.4317 18.4022 22.2802 18.4113 22.1853 18.4113C21.9107 18.4113 21.9364 18.2036 22.0692 17.9284C21.5545 17.8903 21.4257 17.3218 21.6248 16.3214L21.8961 16.3781C21.7206 17.2603 21.8187 17.6466 22.1259 17.6466V17.8181C22.2024 17.677 22.2982 17.5242 22.3913 17.3758C22.4237 17.3242 22.4558 17.273 22.4866 17.2231C22.6456 16.9655 22.6971 16.8998 22.6848 16.8498C22.6719 16.7976 22.5893 16.7627 22.4866 16.5444ZM24.3695 18.4136L24.3695 18.4101C24.3695 18.4121 24.3693 18.4142 24.3688 18.4164L24.3695 18.4136ZM25.5031 16.4782C24.7433 16.3576 24.3171 16.4743 24.3171 16.8994C24.3171 17.304 24.7216 17.4795 25.4613 17.4768C25.4901 17.4862 25.5153 17.4954 25.537 17.5044C25.5093 17.5175 25.4756 17.5314 25.4359 17.5457L25.5279 17.8134C25.9942 17.6452 25.9942 17.3459 25.5221 17.199L25.5019 17.1927L25.4808 17.1929C24.8659 17.198 24.5941 17.0827 24.5941 16.8994C24.5941 16.7327 24.8521 16.6621 25.4607 16.7587L25.5031 16.4782Z"
        fill="#F6C540" />
    </g>
  </g>
</svg>
