<svg width="48" height="36" fill="none" xmlns="http://www.w3.org/2000/svg">
  <path fill-rule="evenodd" clip-rule="evenodd" d="M0 0H48V36H0V0Z"
    fill="url(#paint0_linear_123_5466)" />
  <path fill-rule="evenodd" clip-rule="evenodd"
    d="M20.5714 13.7143H0V20.5714H20.5714V36H27.4286V20.5714H48V13.7143H27.4286V0H20.5714V13.7143Z"
    fill="url(#paint1_linear_123_5466)" />
  <path fill-rule="evenodd" clip-rule="evenodd"
    d="M26.3234 21.1671L24 25.1428L21.6766 21.1671L17.0718 21.1428L19.3531 17.1428L17.0718 13.1428L21.6766 13.1185L24 9.14282L26.3234 13.1185L30.9282 13.1428L28.6468 17.1428L30.9282 21.1428L26.3234 21.1671Z"
    fill="url(#paint2_linear_123_5466)" />
  <path fill-rule="evenodd" clip-rule="evenodd"
    d="M21.83 16.0135C21.7661 15.3748 22.191 14.6982 22.7991 14.4955L24.0581 14.0758C24.6572 13.8761 25.1429 14.2201 25.1429 14.875V17.1428C25.1429 17.1428 25.8769 14.7735 26.2857 15.9999C26.6946 17.2264 25.9935 19.4889 25.9935 19.4889C25.8393 20.0867 25.2084 20.5714 24.5536 20.5714H23.4465C22.8054 20.5714 22.233 20.044 22.1701 19.415L21.83 16.0135Z"
    fill="url(#paint3_linear_123_5466)" />
  <path
    d="M23.9982 6.64795C22.831 6.64795 21.7905 7.34087 21.3294 8.39122L21.0997 8.91445L22.1461 9.37385L22.3758 8.85063C22.6562 8.21192 23.2886 7.79081 23.9982 7.79081C24.7028 7.79081 25.3315 8.20594 25.615 8.83786L25.8488 9.35924L26.8916 8.89153L26.6577 8.37015C26.1917 7.33106 25.1572 6.64795 23.9982 6.64795Z"
    fill="url(#paint4_linear_123_5466)" />
  <path
    d="M20.5714 8.57153L22.8571 9.14296L24 8.0001L25.1428 9.14296L27.4286 8.57153L26.5061 10.8778C26.3844 11.182 26.0399 11.4287 25.7252 11.4287H22.2748C21.9652 11.4287 21.6246 11.2045 21.4939 10.8778L20.5714 8.57153ZM24 6.85725C23.3688 6.85725 22.8571 6.34557 22.8571 5.71439C22.8571 5.08321 23.3688 4.57153 24 4.57153C24.6312 4.57153 25.1428 5.08321 25.1428 5.71439C25.1428 6.34557 24.6312 6.85725 24 6.85725Z"
    fill="url(#paint5_linear_123_5466)" />
  <mask id="mask0_123_5466" style="mask-type:luminance" maskUnits="userSpaceOnUse" x="20" y="4"
    width="8" height="8">
    <path
      d="M20.5714 8.57153L22.8571 9.14296L24 8.0001L25.1428 9.14296L27.4286 8.57153L26.5061 10.8778C26.3844 11.182 26.0399 11.4287 25.7252 11.4287H22.2748C21.9652 11.4287 21.6246 11.2045 21.4939 10.8778L20.5714 8.57153ZM24 6.85725C23.3688 6.85725 22.8571 6.34557 22.8571 5.71439C22.8571 5.08321 23.3688 4.57153 24 4.57153C24.6312 4.57153 25.1428 5.08321 25.1428 5.71439C25.1428 6.34557 24.6312 6.85725 24 6.85725Z"
      fill="white" />
  </mask>
  <g mask="url(#mask0_123_5466)">
    <path
      d="M24 12.5714C25.2624 12.5714 26.2857 11.5481 26.2857 10.2857C26.2857 9.02335 25.2624 8 24 8C22.7376 8 21.7143 9.02335 21.7143 10.2857C21.7143 11.5481 22.7376 12.5714 24 12.5714Z"
      fill="#5169E2" />
  </g>
  <mask id="mask1_123_5466" style="mask-type:luminance" maskUnits="userSpaceOnUse" x="20" y="4"
    width="8" height="8">
    <path
      d="M20.5714 8.57153L22.8571 9.14296L24 8.0001L25.1428 9.14296L27.4286 8.57153L26.5061 10.8778C26.3844 11.182 26.0399 11.4287 25.7252 11.4287H22.2748C21.9652 11.4287 21.6246 11.2045 21.4939 10.8778L20.5714 8.57153ZM24 6.85725C23.3688 6.85725 22.8571 6.34557 22.8571 5.71439C22.8571 5.08321 23.3688 4.57153 24 4.57153C24.6312 4.57153 25.1428 5.08321 25.1428 5.71439C25.1428 6.34557 24.6312 6.85725 24 6.85725Z"
      fill="white" />
  </mask>
  <g mask="url(#mask1_123_5466)">
    <path
      d="M26.2857 12.5714C27.5481 12.5714 28.5714 11.5481 28.5714 10.2857C28.5714 9.02335 27.5481 8 26.2857 8C25.0233 8 24 9.02335 24 10.2857C24 11.5481 25.0233 12.5714 26.2857 12.5714Z"
      fill="#D34D43" />
  </g>
  <mask id="mask2_123_5466" style="mask-type:luminance" maskUnits="userSpaceOnUse" x="20" y="4"
    width="8" height="8">
    <path
      d="M20.5714 8.57153L22.8571 9.14296L24 8.0001L25.1428 9.14296L27.4286 8.57153L26.5061 10.8778C26.3844 11.182 26.0399 11.4287 25.7252 11.4287H22.2748C21.9652 11.4287 21.6246 11.2045 21.4939 10.8778L20.5714 8.57153ZM24 6.85725C23.3688 6.85725 22.8571 6.34557 22.8571 5.71439C22.8571 5.08321 23.3688 4.57153 24 4.57153C24.6312 4.57153 25.1428 5.08321 25.1428 5.71439C25.1428 6.34557 24.6312 6.85725 24 6.85725Z"
      fill="white" />
  </mask>
  <g mask="url(#mask2_123_5466)">
    <path
      d="M21.7143 12.5714C22.9767 12.5714 24 11.5481 24 10.2857C24 9.02335 22.9767 8 21.7143 8C20.4519 8 19.4286 9.02335 19.4286 10.2857C19.4286 11.5481 20.4519 12.5714 21.7143 12.5714Z"
      fill="#D34D43" />
  </g>
  <defs>
    <linearGradient id="paint0_linear_123_5466" x1="2400" y1="0" x2="2400" y2="3600"
      gradientUnits="userSpaceOnUse">
      <stop stop-color="white" />
      <stop offset="1" stop-color="#F0F0F0" />
    </linearGradient>
    <linearGradient id="paint1_linear_123_5466" x1="2400" y1="0" x2="2400" y2="3428.57"
      gradientUnits="userSpaceOnUse">
      <stop stop-color="#E82739" />
      <stop offset="1" stop-color="#CA1A2B" />
    </linearGradient>
    <linearGradient id="paint2_linear_123_5466" x1="709.892" y1="9.14282" x2="709.892" y2="1609.14"
      gradientUnits="userSpaceOnUse">
      <stop stop-color="white" />
      <stop offset="1" stop-color="#F0F0F0" />
    </linearGradient>
    <linearGradient id="paint3_linear_123_5466" x1="251.332" y1="14.0193" x2="251.332" y2="669.228"
      gradientUnits="userSpaceOnUse">
      <stop stop-color="#E6101E" />
      <stop offset="1" stop-color="#CA0814" />
    </linearGradient>
    <linearGradient id="paint4_linear_123_5466" x1="310.695" y1="6.64795" x2="310.695" y2="279.238"
      gradientUnits="userSpaceOnUse">
      <stop stop-color="white" />
      <stop offset="1" stop-color="#F0F0F0" />
    </linearGradient>
    <linearGradient id="paint5_linear_123_5466" x1="363.429" y1="4.57153" x2="363.429" y2="690.286"
      gradientUnits="userSpaceOnUse">
      <stop stop-color="#FFD148" />
      <stop offset="1" stop-color="#FFCB2F" />
    </linearGradient>
  </defs>
</svg>
