<svg width="49" height="30" fill="none" xmlns="http://www.w3.org/2000/svg">
  <path
    d="M45.0278 0.962402H4.16981C2.66926 0.962402 1.45283 2.17884 1.45283 3.67938V26.3209C1.45283 27.8214 2.66926 29.0379 4.16981 29.0379H45.0278C46.5283 29.0379 47.7448 27.8214 47.7448 26.3209V3.67938C47.7448 2.17884 46.5283 0.962402 45.0278 0.962402Z"
    fill="white" stroke="#EAEAEA" />
  <path
    d="M16.1445 24.0566V23.3774H14.7561V22.3775H16.0475V21.7019H14.757V20.8506H16.1454V20.1768H13.9482V24.0566H16.1445ZM18.1523 24.0566L18.7682 23.0405L19.3804 24.0566H20.286L19.2916 22.5414L20.2426 21.0906H19.3387L18.7682 22.0352L18.2012 21.0906H17.2992L18.2383 22.5414L17.2494 24.0566H18.1523ZM22.2885 25.3617V24.1599C22.2885 24.1209 22.2749 23.9787 22.2468 23.7306H22.2885C22.4832 23.9832 22.7522 24.11 23.0945 24.11C23.3227 24.11 23.5202 24.0485 23.6895 23.9262C23.858 23.8048 23.9884 23.6273 24.0789 23.3937C24.1713 23.16 24.2166 22.8847 24.2166 22.5677C24.2166 22.0877 24.1197 21.7109 23.9241 21.4402C23.8342 21.3101 23.713 21.2047 23.5716 21.1338C23.4303 21.0629 23.2733 21.0287 23.1153 21.0344C22.7503 21.0344 22.475 21.1811 22.2885 21.4746H22.2522L22.1399 21.0906H21.4933V25.3617H22.2885ZM22.8708 23.4543C22.6688 23.4543 22.5212 23.3855 22.4279 23.2469C22.3355 23.1093 22.2885 22.8811 22.2885 22.5632V22.4753C22.2921 22.1919 22.3392 21.989 22.4297 21.8667C22.5203 21.7436 22.6634 21.682 22.8599 21.682C23.0474 21.682 23.186 21.7544 23.2738 21.9011C23.3617 22.046 23.4051 22.2652 23.4051 22.5577C23.4051 23.1555 23.2267 23.4543 22.8708 23.4543ZM26.4328 24.0566V22.5469C26.4328 22.3078 26.5043 22.1221 26.6456 21.9899C26.7878 21.8568 26.9852 21.7906 27.2397 21.7906C27.3187 21.7893 27.3976 21.7985 27.4743 21.8178L27.534 21.058C27.4455 21.0405 27.3553 21.0326 27.2651 21.0344C27.0839 21.0344 26.9173 21.0851 26.7633 21.1875C26.6094 21.2889 26.4871 21.4229 26.3965 21.5887H26.3585L26.2408 21.0906H25.6385V24.0566H26.4328ZM30.04 24.11C30.2682 24.11 30.4611 24.0919 30.6196 24.0575C30.7743 24.0243 30.924 23.9713 31.0652 23.8999V23.2741C30.7589 23.4298 30.4198 23.5099 30.0762 23.5078C29.8498 23.5078 29.675 23.4426 29.55 23.314C29.4242 23.1845 29.3571 23.0051 29.349 22.7751H31.23V22.382C31.23 21.9618 31.115 21.6312 30.8859 21.3931C30.6558 21.154 30.3352 21.0344 29.9232 21.0344C29.4912 21.0344 29.1534 21.1703 28.9088 21.442C28.6643 21.7137 28.5429 22.0977 28.5429 22.5949C28.5429 23.0776 28.6752 23.4507 28.9396 23.7143C29.2032 23.9778 29.5709 24.11 30.04 24.11ZM30.4838 22.2362H29.3671C29.3807 22.037 29.4359 21.883 29.5319 21.7734C29.5817 21.7187 29.6431 21.6757 29.7115 21.6475C29.7799 21.6193 29.8538 21.6067 29.9277 21.6104C30.0025 21.6068 30.0773 21.6195 30.1467 21.6476C30.2162 21.6758 30.2786 21.7187 30.3298 21.7734C30.4294 21.8821 30.4801 22.0361 30.4838 22.2362ZM33.4308 24.11C33.8447 24.11 34.1553 24.0303 34.3636 23.8709C34.5719 23.7116 34.6752 23.4797 34.6752 23.1754C34.6787 23.0449 34.653 22.9152 34.6 22.7959C34.5451 22.6848 34.4644 22.5885 34.3645 22.5152C34.209 22.4073 34.0408 22.3191 33.8637 22.2525C33.6083 22.1484 33.4426 22.0696 33.3665 22.0171C33.2913 21.9627 33.2533 21.9002 33.2533 21.8278C33.2533 21.6983 33.371 21.634 33.6056 21.634C33.7378 21.634 33.8673 21.6548 33.995 21.6956C34.1218 21.7354 34.2577 21.7879 34.4035 21.8513L34.6435 21.2681C34.3233 21.1151 33.9731 21.0353 33.6183 21.0344C33.2497 21.0344 32.9653 21.1069 32.7642 21.2509C32.6666 21.3192 32.5878 21.411 32.535 21.5179C32.4823 21.6247 32.4574 21.7432 32.4626 21.8622C32.4626 22.0162 32.4871 22.1457 32.5351 22.2516C32.5822 22.3567 32.6592 22.45 32.7642 22.5306C32.8693 22.6121 33.0341 22.7008 33.2587 22.7959C33.4154 22.8639 33.5395 22.9227 33.6346 22.9725C33.7069 23.008 33.7737 23.0537 33.8329 23.1084C33.8522 23.1292 33.8671 23.1535 33.8769 23.1801C33.8867 23.2067 33.8911 23.2349 33.89 23.2632C33.89 23.4335 33.7451 23.5177 33.4571 23.5177C33.3158 23.5177 33.1528 23.4942 32.968 23.4462C32.796 23.4033 32.6286 23.3439 32.4681 23.2687V23.9371C32.5985 23.9941 32.7389 24.0367 32.8883 24.0657C33.0377 24.0946 33.2189 24.11 33.4308 24.11ZM36.8497 24.11C37.2635 24.11 37.5742 24.0303 37.7825 23.8709C37.9908 23.7116 38.094 23.4797 38.094 23.1754C38.0975 23.0449 38.0719 22.9152 38.0189 22.7959C37.964 22.6848 37.8832 22.5885 37.7834 22.5152C37.6282 22.4074 37.4603 22.3192 37.2835 22.2525C37.0272 22.1484 36.8614 22.0696 36.7854 22.0171C36.7102 21.9627 36.6721 21.9002 36.6721 21.8278C36.6721 21.6983 36.7899 21.634 37.0254 21.634C37.1567 21.634 37.2862 21.6548 37.4139 21.6956C37.5407 21.7354 37.6765 21.7879 37.8232 21.8513L38.0632 21.2681C37.7431 21.1151 37.3929 21.0353 37.038 21.0344C36.6694 21.0344 36.3841 21.1069 36.1831 21.2509C36.0856 21.3193 36.007 21.4112 35.9544 21.518C35.9019 21.6249 35.8771 21.7432 35.8824 21.8622C35.8824 22.0162 35.906 22.1457 35.954 22.2516C36.002 22.3567 36.078 22.45 36.1831 22.5306C36.2891 22.6121 36.453 22.7008 36.6776 22.7959C36.8343 22.8639 36.9592 22.9227 37.0534 22.9725C37.1258 23.008 37.1926 23.0537 37.2518 23.1084C37.271 23.1292 37.286 23.1535 37.2958 23.1801C37.3056 23.2067 37.31 23.2349 37.3088 23.2632C37.3088 23.4335 37.1648 23.5177 36.8759 23.5177C36.7355 23.5177 36.5725 23.4942 36.3869 23.4462C36.2149 23.4033 36.0475 23.3439 35.8869 23.2687V23.9371C36.0174 23.9941 36.1577 24.0367 36.3072 24.0657C36.4566 24.0946 36.6368 24.11 36.8497 24.11Z"
    fill="#333333" />
  <path
    d="M13.3315 7.1914C12.9058 6.68513 12.136 6.46777 11.1534 6.46777H8.2969C8.19757 6.46952 8.10216 6.50687 8.02803 6.57302C7.9539 6.63917 7.90598 6.72973 7.89298 6.82823L6.70566 14.7057C6.69993 14.742 6.70189 14.7792 6.71141 14.8148C6.72092 14.8503 6.73778 14.8835 6.7609 14.9121C6.78347 14.9399 6.81192 14.9622 6.84419 14.9775C6.87646 14.9929 6.91174 15.0009 6.94747 15.0009H8.71079L9.15366 12.0684L9.14007 12.1598C9.15285 12.0616 9.20046 11.9712 9.27425 11.905C9.34804 11.8389 9.44311 11.8014 9.54219 11.7994H10.3799C12.0255 11.7994 13.3143 11.102 13.691 9.08151C13.7019 9.02174 13.7118 8.96377 13.72 8.90672C13.8314 8.16045 13.72 7.65238 13.3324 7.1923"
    fill="#003087" />
  <path
    d="M34.9143 10.9398C34.8056 11.6788 34.2658 11.6788 33.7432 11.6788H33.4462L33.6545 10.2995C33.6597 10.2598 33.6791 10.2233 33.709 10.1967C33.7389 10.1701 33.7775 10.1551 33.8175 10.1546H33.9534C34.3093 10.1546 34.6453 10.1546 34.8183 10.3665C34.9224 10.4933 34.9541 10.6808 34.9143 10.9398ZM34.6869 9.01074H32.7153C32.6484 9.01173 32.5841 9.03681 32.5342 9.0814C32.4843 9.12599 32.4521 9.18708 32.4436 9.25346L31.6475 14.5335C31.6439 14.5577 31.6453 14.5825 31.6517 14.6062C31.6581 14.6299 31.6693 14.652 31.6847 14.6711C31.6998 14.6897 31.7188 14.7048 31.7404 14.7151C31.762 14.7255 31.7857 14.7308 31.8097 14.7309H32.8213C32.9155 14.7309 32.9961 14.6593 33.0115 14.5624L33.2379 13.0654C33.2465 12.9995 33.2785 12.9388 33.328 12.8945C33.3775 12.8501 33.4413 12.825 33.5078 12.8236H34.1309C35.4305 12.8236 36.1795 12.167 36.3751 10.8664C36.4629 10.2977 36.3787 9.85029 36.1233 9.53784C35.8426 9.19369 35.3463 9.01074 34.6869 9.01074Z"
    fill="#009CDE" />
  <path
    d="M20.853 10.9398C20.7452 11.6788 20.2045 11.6788 19.682 11.6788H19.3849L19.5932 10.2995C19.5984 10.2598 19.6178 10.2233 19.6477 10.1967C19.6777 10.1701 19.7162 10.1551 19.7562 10.1546H19.8921C20.248 10.1546 20.584 10.1546 20.757 10.3665C20.8611 10.4933 20.8928 10.6808 20.853 10.9398ZM20.6257 9.01074H18.654C18.5873 9.01194 18.5232 9.03713 18.4735 9.08169C18.4237 9.12626 18.3917 9.18723 18.3832 9.25346L17.5863 14.5335C17.5827 14.5578 17.5842 14.5826 17.5907 14.6063C17.5973 14.63 17.6087 14.6521 17.6243 14.6711C17.6393 14.6896 17.6582 14.7046 17.6796 14.7149C17.7011 14.7253 17.7246 14.7307 17.7484 14.7309H18.6903C18.7568 14.7298 18.8206 14.7048 18.8703 14.6606C18.92 14.6164 18.9522 14.5559 18.9611 14.49L19.1757 13.0654C19.1844 12.9993 19.2165 12.9386 19.2662 12.8942C19.3159 12.8498 19.3799 12.8247 19.4465 12.8236H20.0705C21.3692 12.8236 22.1182 12.167 22.3138 10.8664C22.4026 10.2977 22.3174 9.85029 22.0629 9.53784C21.7822 9.19369 21.285 9.01074 20.6257 9.01074ZM25.2029 12.8353C25.1114 13.3987 24.683 13.7772 24.1369 13.7772C23.8634 13.7772 23.6442 13.6849 23.5029 13.511C23.3635 13.3389 23.3109 13.0926 23.3553 12.819C23.4405 12.2603 23.8752 11.8699 24.4131 11.8699C24.6812 11.8699 24.8986 11.9623 25.0426 12.1389C25.1875 12.3155 25.2436 12.5627 25.2029 12.8363M26.5179 10.9163H25.5742C25.5341 10.9168 25.4956 10.9317 25.4657 10.9583C25.4357 10.9849 25.4164 11.0214 25.4112 11.0612L25.3704 11.3374L25.3043 11.2378C25.0996 10.9271 24.6441 10.8239 24.1894 10.8239C23.1461 10.8239 22.2549 11.6489 22.082 12.8073C21.9914 13.3851 22.12 13.9366 22.4334 14.3215C22.7214 14.6756 23.1325 14.8233 23.6225 14.8233C24.4629 14.8233 24.9294 14.259 24.9294 14.259L24.8868 14.5335C24.8832 14.5578 24.8847 14.5826 24.8913 14.6063C24.8978 14.63 24.9093 14.6521 24.9248 14.6711C24.9398 14.6899 24.9588 14.7051 24.9804 14.7156C25.0021 14.7261 25.0258 14.7316 25.0498 14.7318H25.8993C25.9661 14.7308 26.0303 14.7059 26.0802 14.6615C26.1301 14.6171 26.1623 14.5562 26.171 14.49L26.6809 11.1146C26.6846 11.0901 26.6831 11.0651 26.6765 11.0413C26.67 11.0174 26.6585 10.9952 26.6429 10.976C26.6278 10.9574 26.6087 10.9424 26.5871 10.932C26.5655 10.9217 26.5419 10.9163 26.5179 10.9163Z"
    fill="#003087" />
  <path
    d="M39.2642 12.8357C39.1718 13.399 38.7443 13.7776 38.1982 13.7776C37.9247 13.7776 37.7046 13.6852 37.5642 13.5113C37.4248 13.3392 37.3722 13.0929 37.4166 12.8194C37.5008 12.2606 37.9365 11.8703 38.4744 11.8703C38.7425 11.8703 38.9599 11.9626 39.1039 12.1392C39.2488 12.3158 39.3049 12.5631 39.2632 12.8366M40.5792 10.9166H39.6355C39.5954 10.9171 39.5569 10.9321 39.527 10.9587C39.497 10.9853 39.4777 11.0218 39.4725 11.0615L39.4317 11.3377L39.3656 11.2381C39.1609 10.9275 38.7045 10.8242 38.2498 10.8242C37.2083 10.8242 36.3162 11.6493 36.1432 12.8076C36.0527 13.3854 36.1813 13.937 36.4946 14.3219C36.7826 14.676 37.1938 14.8236 37.6838 14.8236C38.5251 14.8236 38.9906 14.2594 38.9906 14.2594L38.949 14.5338C38.9451 14.558 38.9464 14.5827 38.9526 14.6064C38.9588 14.6301 38.97 14.6523 38.9852 14.6715C39.0002 14.6903 39.0192 14.7055 39.0408 14.716C39.0625 14.7265 39.0862 14.732 39.1102 14.7321H39.9606C40.0272 14.731 40.0912 14.7059 40.1409 14.6615C40.1906 14.6172 40.2227 14.5564 40.2314 14.4903L40.7413 11.1149C40.7451 11.0905 40.7437 11.0656 40.7373 11.0417C40.7309 11.0179 40.7196 10.9956 40.7042 10.9764C40.6891 10.9577 40.67 10.9427 40.6484 10.9324C40.6268 10.922 40.6031 10.9166 40.5792 10.9166Z"
    fill="#009CDE" />
  <path
    d="M31.5461 10.9165H30.597C30.5064 10.9165 30.4213 10.9636 30.3706 11.0424L29.0619 13.0557L28.5067 11.1212C28.4912 11.0631 28.4571 11.0118 28.4097 10.9748C28.3623 10.9379 28.3042 10.9174 28.2441 10.9165H27.3112C27.2848 10.9169 27.2589 10.9237 27.2358 10.9363C27.2126 10.9489 27.1928 10.967 27.1781 10.989C27.1631 11.0113 27.1534 11.0368 27.1496 11.0634C27.1458 11.0901 27.1482 11.1173 27.1564 11.1429L28.2006 14.3471L27.218 15.7953C27.2005 15.8214 27.1902 15.8516 27.1881 15.8829C27.186 15.9142 27.1923 15.9456 27.2062 15.9737C27.2194 16.0012 27.2401 16.0245 27.2659 16.0408C27.2916 16.0571 27.3215 16.0659 27.352 16.0661H28.3002C28.3451 16.0658 28.3891 16.0543 28.4285 16.0328C28.4678 16.0114 28.5012 15.9805 28.5257 15.9429L31.6811 11.1864C31.6982 11.1603 31.7083 11.1302 31.7102 11.0991C31.7121 11.0679 31.7058 11.0368 31.6919 11.0089C31.6787 10.9814 31.658 10.9581 31.6323 10.9418C31.6065 10.9255 31.5766 10.9167 31.5461 10.9165Z"
    fill="#003087" />
  <path
    d="M41.6913 9.15663L40.8826 14.5335C40.8789 14.5578 40.8803 14.5826 40.8867 14.6063C40.8931 14.6299 40.9043 14.6521 40.9197 14.6712C40.9347 14.69 40.9537 14.7052 40.9753 14.7157C40.9969 14.7262 41.0206 14.7317 41.0447 14.7319H41.8589C41.9253 14.7305 41.9891 14.7053 42.0386 14.661C42.0881 14.6166 42.1201 14.556 42.1288 14.4901L42.9266 9.21006C42.9306 9.18571 42.9295 9.16081 42.9232 9.13694C42.917 9.11307 42.9058 9.09078 42.8904 9.07149C42.8752 9.05275 42.8561 9.03765 42.8343 9.0273C42.8125 9.01696 42.7887 9.01163 42.7645 9.01172H41.8543C41.8143 9.01225 41.7758 9.02719 41.7458 9.0538C41.7159 9.08041 41.6965 9.11691 41.6913 9.15663Z"
    fill="#009CDE" />
  <path
    d="M13.3315 7.1914C12.9058 6.68513 12.136 6.46777 11.1534 6.46777H8.2969C8.19757 6.46952 8.10216 6.50687 8.02803 6.57302C7.9539 6.63917 7.90598 6.72973 7.89298 6.82823L6.70566 14.7057C6.69993 14.742 6.70189 14.7792 6.71141 14.8148C6.72092 14.8503 6.73778 14.8835 6.7609 14.9121C6.78347 14.9399 6.81192 14.9622 6.84419 14.9775C6.87646 14.9929 6.91174 15.0009 6.94747 15.0009H8.71079L9.15366 12.0684L9.14007 12.1598C9.15285 12.0616 9.20046 11.9712 9.27425 11.905C9.34804 11.8389 9.44311 11.8014 9.54219 11.7994H10.3799C12.0255 11.7994 13.3143 11.102 13.691 9.08151C13.7019 9.02174 13.7118 8.96377 13.72 8.90672C13.8314 8.16045 13.72 7.65238 13.3324 7.1923"
    fill="#003087" />
  <path
    d="M9.62823 8.91675C9.63951 8.83059 9.68139 8.75135 9.74623 8.69349C9.81107 8.63564 9.89455 8.60302 9.98143 8.60158H12.2202C12.4847 8.60158 12.7328 8.61969 12.9583 8.65773C13.0815 8.67766 13.2038 8.70664 13.3242 8.74286C13.4601 8.78271 13.5932 8.83796 13.7182 8.90679C13.8305 8.15962 13.7182 7.65245 13.3315 7.19147C12.9058 6.6852 12.136 6.46875 11.1534 6.46875H8.2969C8.1977 6.47047 8.10241 6.50769 8.0283 6.57365C7.95419 6.63962 7.90618 6.72996 7.89298 6.8283L6.70566 14.7048C6.69993 14.7412 6.70189 14.7784 6.71141 14.8139C6.72092 14.8495 6.73778 14.8827 6.7609 14.9113C6.80709 14.9684 6.87592 15.0019 6.94747 15.0019H8.71079L9.15366 12.0675L9.62913 8.91584L9.62823 8.91675Z"
    fill="#003087" />
  <path
    d="M13.7191 8.90667C13.7102 8.9651 13.7002 9.02338 13.6892 9.08146C13.3134 11.1011 12.0246 11.7984 10.379 11.7984H9.54038C9.44111 11.8003 9.34582 11.8378 9.27197 11.9042C9.19813 11.9705 9.15066 12.0613 9.13826 12.1598L8.70989 15L8.58762 15.806C8.58265 15.8379 8.58443 15.8705 8.59285 15.9017C8.60128 15.9329 8.61616 15.962 8.63653 15.9871C8.67728 16.036 8.73615 16.065 8.79955 16.065H10.2848C10.3717 16.0636 10.4552 16.0309 10.52 15.9731C10.5849 15.9152 10.6268 15.836 10.638 15.7498L10.6534 15.671L10.9333 13.8163L10.9514 13.7139C10.9627 13.6277 11.0046 13.5485 11.0694 13.4907C11.1342 13.4328 11.2177 13.4002 11.3046 13.3987H11.5265C12.9665 13.3987 14.094 12.7883 14.4228 11.0214C14.5605 10.2833 14.4889 9.66652 14.1257 9.23361C14.0112 9.10019 13.873 8.98904 13.7182 8.90576"
    fill="#009CDE" />
  <path
    d="M13.3242 8.74208C13.2045 8.70487 13.0822 8.67672 12.9583 8.65786C12.714 8.6185 12.4668 8.59972 12.2193 8.60171H9.98143C9.89454 8.60314 9.81107 8.63576 9.74623 8.69362C9.68139 8.75148 9.63951 8.83071 9.62822 8.91688L9.15275 12.0686L9.13826 12.1591C9.15105 12.061 9.1987 11.9706 9.27251 11.9046C9.34631 11.8387 9.44138 11.8014 9.54037 11.7996H10.379C12.0246 11.7996 13.3134 11.1013 13.6892 9.08171C13.7002 9.02362 13.7102 8.96535 13.7191 8.90691C13.5937 8.83823 13.4614 8.78236 13.3242 8.74208Z"
    fill="#012169" />
</svg>
