<svg width="49" height="30" fill="none" xmlns="http://www.w3.org/2000/svg">
  <path
    d="M45.0278 29.0381H4.16981C2.66926 29.0381 1.45283 27.8217 1.45283 26.3211V3.6796C1.45283 2.17905 2.66926 0.962616 4.16981 0.962616H45.0278C46.5283 0.962616 47.7448 2.17905 47.7448 3.6796V26.3211C47.7448 27.8217 46.5283 29.0381 45.0278 29.0381Z"
    fill="white" stroke="#EAEAEA" />
  <path
    d="M11.6578 9.30911C11.1724 8.74669 10.293 8.50488 9.16815 8.50488H5.90506C5.79299 8.50559 5.68486 8.54631 5.60017 8.61971C5.51547 8.69311 5.45979 8.79435 5.44317 8.90519L4.08468 17.6584C4.07827 17.6989 4.08061 17.7403 4.09155 17.7798C4.10248 17.8194 4.12176 17.8561 4.14808 17.8875C4.20242 17.9509 4.2794 17.9871 4.36181 17.9871H6.376L6.88317 14.7268L6.86687 14.8291C6.88307 14.7186 6.93825 14.6175 7.02246 14.5441C7.10666 14.4707 7.21433 14.4298 7.32604 14.4288H8.28423C10.1653 14.4288 11.6379 13.6536 12.0681 11.4093C12.0808 11.3432 12.0916 11.278 12.1016 11.2146C12.2284 10.3859 12.1007 9.82081 11.6578 9.31001"
    fill="#003087" />
  <path
    d="M36.3244 13.4743C36.2012 14.2958 35.5835 14.2958 34.9858 14.2958H34.6462L34.8844 12.7625C34.8909 12.7178 34.9132 12.677 34.9473 12.6474C34.9814 12.6178 35.0249 12.6015 35.07 12.6013H35.2258C35.6334 12.6013 36.0165 12.6013 36.2148 12.8368C36.3325 12.9771 36.3688 13.1863 36.3235 13.4743M36.0645 11.3315H33.8112C33.7359 11.332 33.6634 11.3594 33.6065 11.4087C33.5497 11.4581 33.5125 11.5261 33.5014 11.6005L32.5912 17.4665C32.5822 17.5208 32.5985 17.5779 32.6338 17.6204C32.67 17.6621 32.7217 17.6866 32.776 17.6866H33.9325C34.0403 17.6866 34.1318 17.6069 34.149 17.4991L34.4071 15.8354C34.4181 15.7611 34.4555 15.6931 34.5123 15.644C34.5691 15.5948 34.6417 15.5676 34.7168 15.5673H35.4296C36.914 15.5673 37.7698 14.8383 37.9935 13.3928C38.0949 12.7607 37.998 12.2635 37.7064 11.9166C37.3858 11.5335 36.8189 11.3315 36.0645 11.3315Z"
    fill="#009CDE" />
  <path
    d="M20.2543 13.4743C20.1312 14.2958 19.5135 14.2958 18.9158 14.2958H18.5762L18.8143 12.7625C18.8208 12.7178 18.8432 12.677 18.8772 12.6474C18.9113 12.6178 18.9549 12.6015 19 12.6013H19.1558C19.5633 12.6013 19.9464 12.6013 20.1448 12.8368C20.2625 12.9771 20.2987 13.1863 20.2543 13.4743ZM19.9944 11.3315H17.7411C17.6661 11.3322 17.5937 11.3597 17.5371 11.409C17.4805 11.4583 17.4433 11.5263 17.4323 11.6005L16.5212 17.4665C16.5122 17.5208 16.5285 17.5779 16.5638 17.6204C16.6 17.6621 16.6516 17.6866 16.7069 17.6866H17.7828C17.9368 17.6866 18.0672 17.5734 18.0916 17.4185L18.338 15.8354C18.349 15.7612 18.3862 15.6934 18.4428 15.6442C18.4994 15.5951 18.5718 15.5678 18.6468 15.5673H19.3595C20.8448 15.5673 21.7007 14.8383 21.9244 13.3928C22.024 12.7607 21.928 12.2635 21.6364 11.9166C21.3167 11.5335 20.7488 11.3315 19.9944 11.3315ZM25.2255 15.5809C25.1205 16.2058 24.6314 16.6269 24.0074 16.6269C23.6949 16.6269 23.4441 16.5246 23.2829 16.3308C23.1235 16.1397 23.0637 15.8662 23.1135 15.561C23.2113 14.9415 23.7085 14.5077 24.3226 14.5077C24.6296 14.5077 24.8777 14.6109 25.0426 14.8066C25.2074 15.0031 25.2726 15.2775 25.2255 15.5809ZM26.7289 13.4481H25.6503C25.605 13.4482 25.5614 13.4646 25.5271 13.4941C25.4929 13.5237 25.4704 13.5645 25.4637 13.6093L25.4166 13.9154L25.3414 13.8049C25.1078 13.4608 24.587 13.3448 24.0672 13.3448C22.8753 13.3448 21.8574 14.2623 21.6581 15.5483C21.5558 16.1913 21.7025 16.8035 22.0602 17.2328C22.3899 17.625 22.859 17.7889 23.4187 17.7889C24.3805 17.7889 24.9131 17.1622 24.9131 17.1622L24.8651 17.4665C24.856 17.5217 24.8714 17.5779 24.9076 17.6204C24.9438 17.663 24.9955 17.6875 25.0507 17.6875H26.0216C26.1755 17.6875 26.3069 17.5734 26.3313 17.4185L26.9146 13.6691C26.9188 13.6418 26.917 13.6139 26.9095 13.5874C26.902 13.5608 26.8889 13.5361 26.8711 13.5151C26.8536 13.4941 26.8317 13.4773 26.807 13.4657C26.7823 13.4541 26.7562 13.4481 26.7289 13.4481Z"
    fill="#003087" />
  <path
    d="M41.2946 15.5799C41.1905 16.2066 40.7014 16.6268 40.0774 16.6268C39.7641 16.6268 39.5132 16.5245 39.3529 16.3307C39.1926 16.1396 39.1328 15.8661 39.1835 15.5609C39.2805 14.9414 39.7777 14.5076 40.3926 14.5076C40.6987 14.5076 40.9478 14.6108 41.1117 14.8065C41.2774 15.003 41.3426 15.2774 41.2946 15.5808M42.798 13.448H41.7203C41.6751 13.4481 41.6314 13.4645 41.5972 13.494C41.5629 13.5236 41.5404 13.5645 41.5337 13.6092L41.4866 13.9153L41.4115 13.8048C41.1778 13.4607 40.6571 13.3447 40.1363 13.3447C38.9454 13.3447 37.9265 14.2622 37.7291 15.5482C37.6258 16.1912 37.7725 16.8034 38.1303 17.2327C38.4599 17.6249 38.9291 17.7888 39.4888 17.7888C40.4506 17.7888 40.9831 17.1621 40.9831 17.1621L40.9351 17.4664C40.926 17.5216 40.9414 17.5778 40.9777 17.6203C41.013 17.6629 41.0655 17.6874 41.1199 17.6874H42.0907C42.2447 17.6874 42.376 17.5733 42.4005 17.4184L42.9837 13.669C42.988 13.6417 42.9864 13.6139 42.9791 13.5874C42.9718 13.5608 42.9588 13.5361 42.9411 13.515C42.9236 13.494 42.9018 13.4772 42.877 13.4656C42.8523 13.454 42.8253 13.448 42.798 13.448Z"
    fill="#009CDE" />
  <path
    d="M32.4744 13.4478H31.3903C31.339 13.4478 31.2885 13.4605 31.2433 13.4849C31.1981 13.5092 31.1596 13.5444 31.1313 13.5872L29.6361 15.8242L29.0021 13.6751C28.9833 13.6098 28.9438 13.5523 28.8896 13.5113C28.8354 13.4703 28.7694 13.448 28.7014 13.4478H27.6355C27.6054 13.4477 27.5758 13.455 27.5492 13.4688C27.5225 13.4827 27.4996 13.5028 27.4824 13.5275C27.4652 13.5522 27.454 13.5807 27.4497 13.6106C27.4455 13.6405 27.4483 13.6709 27.458 13.6995L28.6516 17.2588L27.5286 18.8681C27.5085 18.8968 27.4967 18.9305 27.4943 18.9654C27.4919 19.0004 27.4991 19.0353 27.515 19.0665C27.5476 19.1299 27.6119 19.1697 27.6817 19.1697H28.7657C28.8681 19.1697 28.9641 19.1181 29.0229 19.033L32.6284 13.7475C32.6481 13.7188 32.6597 13.6853 32.662 13.6506C32.6642 13.6158 32.657 13.5811 32.6411 13.5501C32.6254 13.5194 32.6015 13.4935 32.5721 13.4755C32.5427 13.4574 32.5089 13.4478 32.4744 13.4478Z"
    fill="#003087" />
  <path
    d="M44.0696 11.4928L43.1458 17.4665C43.1368 17.5217 43.1522 17.5779 43.1875 17.6204C43.2237 17.663 43.2753 17.6875 43.3306 17.6875H44.2607C44.4146 17.6875 44.546 17.5734 44.5695 17.4185L45.4815 11.5516C45.4858 11.5244 45.4843 11.4966 45.4769 11.47C45.4696 11.4435 45.4566 11.4188 45.4389 11.3977C45.4214 11.3769 45.3994 11.3602 45.3747 11.3487C45.35 11.3373 45.3231 11.3315 45.2958 11.3315H44.2552C44.2101 11.3317 44.1666 11.3481 44.1325 11.3777C44.0984 11.4073 44.0761 11.4481 44.0696 11.4928Z"
    fill="#009CDE" />
  <path
    d="M11.6578 9.30911C11.1724 8.74669 10.293 8.50488 9.16815 8.50488H5.90506C5.79299 8.50559 5.68486 8.54631 5.60017 8.61971C5.51547 8.69311 5.45979 8.79435 5.44317 8.90519L4.08468 17.6584C4.07827 17.6989 4.08061 17.7403 4.09155 17.7798C4.10248 17.8194 4.12176 17.8561 4.14808 17.8875C4.20242 17.9509 4.2794 17.9871 4.36181 17.9871H6.376L6.88317 14.7268L6.86687 14.8291C6.88307 14.7186 6.93825 14.6175 7.02246 14.5441C7.10666 14.4707 7.21433 14.4298 7.32604 14.4288H8.28423C10.1653 14.4288 11.6379 13.6536 12.0681 11.4093C12.0808 11.3432 12.0916 11.278 12.1016 11.2146C12.2284 10.3859 12.1007 9.82081 11.6578 9.31001"
    fill="#003087" />
  <path
    d="M7.42566 11.2265C7.44013 11.1295 7.48879 11.0408 7.56286 10.9766C7.63692 10.9123 7.73152 10.8766 7.82959 10.876H10.3881C10.6906 10.876 10.9731 10.8959 11.2322 10.9376C11.3734 10.9611 11.5129 10.9919 11.6497 11.0327C11.8063 11.0779 11.9576 11.1386 12.1007 11.2147C12.2293 10.3851 12.1007 9.82088 11.6578 9.30918C11.1715 8.74767 10.293 8.50586 9.16815 8.50586H5.90415C5.79224 8.50678 5.68432 8.5476 5.59982 8.62098C5.51532 8.69436 5.45977 8.79548 5.44317 8.90616L4.08468 17.6576C4.07827 17.6981 4.08061 17.7395 4.09155 17.779C4.10248 17.8185 4.12176 17.8552 4.14808 17.8867C4.20151 17.9501 4.2794 17.9863 4.36091 17.9863H6.376L6.88226 14.7268L7.42566 11.2265Z"
    fill="#003087" />
  <path
    d="M12.1007 11.2148C12.0907 11.2796 12.0795 11.3443 12.0672 11.4087C11.637 13.6529 10.1653 14.429 8.28332 14.429H7.32604C7.21412 14.4296 7.10613 14.4703 7.0217 14.5438C6.93727 14.6173 6.88201 14.7186 6.86596 14.8293L6.376 17.9865L6.23653 18.8822C6.22566 18.9546 6.24559 19.0271 6.29268 19.0823C6.3155 19.1097 6.34402 19.1317 6.37625 19.1469C6.40848 19.162 6.44363 19.17 6.47925 19.1702H8.17736C8.37842 19.1702 8.54868 19.0216 8.58038 18.8197L8.59759 18.7318L8.91728 16.6714L8.93811 16.5573C8.9526 16.4604 9.0013 16.3719 9.07538 16.3078C9.14947 16.2437 9.24406 16.2082 9.34204 16.2077H9.59562C11.2412 16.2077 12.53 15.5285 12.9058 13.5659C13.0625 12.7454 12.981 12.0607 12.5662 11.5789C12.4346 11.4301 12.2768 11.3067 12.1007 11.2148Z"
    fill="#009CDE" />
  <path
    d="M11.6506 11.0336C11.5136 10.9917 11.3738 10.9599 11.2322 10.9385C10.953 10.8945 10.6707 10.8733 10.3881 10.8751H7.82868C7.73038 10.8754 7.63547 10.9111 7.56131 10.9756C7.48714 11.0401 7.43867 11.1292 7.42475 11.2265L6.88136 14.7278L6.86506 14.8292C6.8811 14.7185 6.93637 14.6171 7.0208 14.5437C7.10523 14.4702 7.21322 14.4295 7.32513 14.4289H8.28242C10.1635 14.4289 11.6361 13.6537 12.0663 11.4085C12.0798 11.3424 12.0898 11.2781 12.0998 11.2147C11.9566 11.1384 11.8057 11.0774 11.6497 11.0327"
    fill="#012169" />
</svg>
