<svg width="48" height="36" fill="none" xmlns="http://www.w3.org/2000/svg">
  <path fill-rule="evenodd" clip-rule="evenodd" d="M12 0H48V36H12V0Z" fill="#EF0000" />
  <path fill-rule="evenodd" clip-rule="evenodd" d="M0 0H18V36H0V0Z" fill="#2F8D00" />
  <mask id="mask0_123_5492" style="mask-type:luminance" maskUnits="userSpaceOnUse" x="6" y="6"
    width="24" height="24">
    <path fill-rule="evenodd" clip-rule="evenodd"
      d="M17.8571 29.7108C11.4663 29.7108 6.28564 24.4676 6.28564 17.9999C6.28564 11.5322 11.4663 6.28906 17.8571 6.28906C24.2478 6.28906 29.4285 11.5322 29.4285 17.9999C29.4285 24.4676 24.2478 29.7108 17.8571 29.7108Z"
      fill="white" />
  </mask>
  <g mask="url(#mask0_123_5492)">
    <path fill-rule="evenodd" clip-rule="evenodd" d="M17.1427 6H18.6427V10.0482H17.1427V6Z"
      fill="#FFE017" />
    <path fill-rule="evenodd" clip-rule="evenodd" d="M17.1427 26.241H18.6427V30H17.1427V26.241Z"
      fill="#FFE017" />
    <path
      d="M6.47174 18.6055L6.05237 17.5296C10.6801 15.6821 14.173 14.4906 16.543 13.9537C20.0202 13.1659 23.8408 12.583 28.0051 12.2046L28.1073 13.3566C23.9907 13.7306 20.2191 14.306 16.7926 15.0824C14.4932 15.6033 11.0489 16.7782 6.47174 18.6055Z"
      fill="#FFE017" />
    <path
      d="M28.7113 11.4956L28.3709 12.5998C24.8734 11.4956 22.0242 11.021 19.8342 11.168L19.7585 10.0139C22.1099 9.85608 25.0906 10.3526 28.7113 11.4956Z"
      fill="#FFE017" />
    <path
      d="M29.9214 17.6695L29.2749 18.6233C27.4919 17.3854 25.2952 16.7636 22.6699 16.7636V15.6069C25.516 15.6069 27.9381 16.2926 29.9214 17.6695Z"
      fill="#FFE017" />
    <path
      d="M28.953 18.0156L29.2485 19.1329C25.4046 20.1741 21.7956 20.7649 18.4215 20.904C15.024 21.044 11.0642 20.4512 6.5387 19.1299L6.85547 18.0186C11.271 19.3078 15.112 19.8828 18.3749 19.7483C21.6612 19.6128 25.1873 19.0356 28.953 18.0156Z"
      fill="#FFE017" />
    <path
      d="M28.5173 23.4536L26.7108 25.3056C23.2778 21.8758 20.2554 19.4233 17.6622 17.9498C15.0248 16.451 11.5853 14.9292 7.34912 13.3903L8.21784 10.9409C12.5789 12.5252 16.145 14.103 18.9212 15.6806C21.7417 17.2834 24.9343 19.8739 28.5173 23.4536Z"
      fill="#FFE017" />
    <path
      d="M8.18745 24.5028L7.50366 23.576C7.59915 23.5039 7.76953 23.3835 8.00428 23.231C8.39188 22.9792 8.82229 22.7278 9.28537 22.4929C10.5608 21.8459 11.8402 21.4419 13.0605 21.4048C13.1202 21.403 13.1796 21.4021 13.2388 21.4021V22.5587C13.1911 22.5587 13.1431 22.5595 13.0948 22.5609C12.0665 22.5922 10.9372 22.9488 9.79749 23.5269C9.37269 23.7424 8.97688 23.9736 8.62166 24.2044C8.49801 24.2847 8.38861 24.359 8.29487 24.4252C8.24021 24.4638 8.20394 24.4903 8.18745 24.5028Z"
      fill="#FFE017" />
    <path
      d="M8.71802 24.9038L9.00582 23.7845C12.816 24.7879 15.7534 25.2879 17.8035 25.2879C19.8458 25.2879 22.8857 24.6981 26.9034 23.5144L27.2228 24.6249C23.1101 25.8366 19.9769 26.4445 17.8035 26.4445C15.6376 26.4445 12.614 25.9298 8.71802 24.9038Z"
      fill="#FFE017" />
    <path d="M7.23376 14.5415L9.04438 12.6936L11.6954 15.3541L9.88475 17.202L7.23376 14.5415Z"
      fill="#FFE017" />
    <path d="M22.2539 23.7716L23.6007 21.5547L27.8061 24.1714L26.4594 26.3883L22.2539 23.7716Z"
      fill="#FFE017" />
  </g>
  <path fill-rule="evenodd" clip-rule="evenodd"
    d="M6.28564 17.9999C6.28564 24.4676 11.4663 29.7108 17.8571 29.7108C24.2478 29.7108 29.4285 24.4676 29.4285 17.9999C29.4285 11.5322 24.2478 6.28906 17.8571 6.28906C11.4663 6.28906 6.28564 11.5322 6.28564 17.9999ZM27.9999 18.1445C27.9999 23.7338 23.5227 28.2649 17.9999 28.2649C12.477 28.2649 7.99988 23.7338 7.99988 18.1445C7.99988 12.5551 12.477 8.02397 17.9999 8.02397C23.5227 8.02397 27.9999 12.5551 27.9999 18.1445Z"
    fill="#F9E813" />
  <path
    d="M11.485 10.7778V20.1689C12.1032 23.886 14.1859 25.7446 17.7331 25.7446C21.2803 25.7446 23.3629 23.886 23.9811 20.1689V10.7778H11.485Z"
    fill="white" />
  <path
    d="M9.12781 9H25.7383V20.1341L25.7244 20.2112C24.922 24.6595 22.0774 27 17.433 27C12.7886 27 9.9441 24.6595 9.14171 20.2112L9.12781 20.1341V9Z"
    fill="#C51918" />
  <path fill-rule="evenodd" clip-rule="evenodd"
    d="M24.0712 11.8591H21.3712V14.5591H24.0712V11.8591ZM13.5712 11.8591H10.8712V14.5591H13.5712V11.8591Z"
    fill="#F9E813" />
  <path fill-rule="evenodd" clip-rule="evenodd"
    d="M10.8712 17.8591H13.5712V20.5591H10.8712V17.8591ZM21.5206 17.9016H24.2206V20.6016H21.5206V17.9016ZM21.5616 22.274H18.8616V24.974H21.5616V22.274Z"
    fill="#F9E813" />
  <path fill-rule="evenodd" clip-rule="evenodd" d="M12.9725 22.262H15.6725V24.962H12.9725V22.262Z"
    fill="#F9E813" />
  <path
    d="M13.278 13.0659H22.1875V19.7273C22.1875 19.7273 21.5264 23.1672 17.7327 23.1672C13.9391 23.1672 13.278 19.7273 13.278 19.7273V13.0659Z"
    fill="#F7FCFF" />
  <path
    d="M16.8569 13.8071H18.8374V15.2493C18.8374 15.2493 18.6905 15.9941 17.8472 15.9941C17.0039 15.9941 16.8569 15.2493 16.8569 15.2493V13.8071Z"
    fill="#013399" />
  <path
    d="M16.8569 16.988H18.8374V18.4302C18.8374 18.4302 18.6905 19.175 17.8472 19.175C17.0039 19.175 16.8569 18.4302 16.8569 18.4302V16.988Z"
    fill="#013399" />
  <path
    d="M19.4285 16.988H21.409V18.4302C21.409 18.4302 21.262 19.175 20.4187 19.175C19.5754 19.175 19.4285 18.4302 19.4285 18.4302V16.988Z"
    fill="#013399" />
  <path
    d="M14.2854 16.988H16.2659V18.4302C16.2659 18.4302 16.1189 19.175 15.2756 19.175C14.4324 19.175 14.2854 18.4302 14.2854 18.4302V16.988Z"
    fill="#013399" />
  <path
    d="M16.8569 20.1687H18.8374V21.6109C18.8374 21.6109 18.6905 22.3557 17.8472 22.3557C17.0039 22.3557 16.8569 21.6109 16.8569 21.6109V20.1687Z"
    fill="#013399" />
</svg>
