<svg viewBox="0 0 473 180" fill="none" xmlns="http://www.w3.org/2000/svg">
  <mask id="mask0_47_4122" style="mask-type:luminance" maskUnits="userSpaceOnUse" x="0" y="0"
    width="191" height="180">
    <path fill-rule="evenodd" clip-rule="evenodd" d="M0.000244141 0H190.144V179.52H0.000244141V0Z"
      fill="white" />
  </mask>
  <g mask="url(#mask0_47_4122)">
    <path fill-rule="evenodd" clip-rule="evenodd"
      d="M50.1099 35.437C45.7194 33.8785 46.2612 28.3201 50.8751 27.6616C53.8189 27.2392 56.5645 26.9917 59.0776 26.8674C50.2863 23.7066 40.7265 21.8373 40.4012 21.7717C35.3841 20.8232 35.8549 14.0504 40.9498 13.8029C58.2598 12.9673 71.0509 16.996 79.2752 20.9982C75.2409 13.8904 69.8952 6.82753 69.7497 6.63876C66.7223 2.67683 71.107 -1.96193 75.1974 0.873121C85.6347 8.10866 91.5772 15.5594 94.8967 21.1006C98.2094 15.5594 104.155 8.10866 114.593 0.873121C118.682 -1.95848 123.064 2.67683 120.04 6.63876C119.891 6.82753 114.546 13.8904 110.514 20.9982C118.736 16.996 131.523 12.9673 148.837 13.8029C153.934 14.0504 154.402 20.8232 149.382 21.7717C149.062 21.8373 139.504 23.7066 130.711 26.8674C133.222 26.9917 135.964 27.2392 138.912 27.6616C143.522 28.3201 144.074 33.8785 139.677 35.437C139.639 35.4508 138.236 35.9504 136.349 36.7043C167.724 48.6627 190.144 74.1171 190.144 104.405C190.144 146.78 146.578 179.52 95.0697 179.52C43.5649 179.52 0.000244141 146.78 0.000244141 104.405C0.000244141 74.1781 22.3261 48.7617 53.6115 36.7757C51.6402 35.9826 50.15 35.4508 50.1099 35.437Z"
      fill="#FEFEFE" />
  </g>
  <path fill-rule="evenodd" clip-rule="evenodd"
    d="M94.669 152.494C54.3976 152.494 21.7559 127.871 21.7559 97.497C21.7559 72.252 44.3211 50.9909 75.0636 44.5277L60.4512 57.4391C60.4512 57.4391 69.8564 52.6726 76.2572 51.1889C81.0154 50.085 84.5021 48.6254 89.2064 47.9498C92.936 51.853 103.62 63.9322 103.62 74.4022C105.28 62.6695 102.488 51.975 101.3 48.1524C105.398 48.8867 108.675 50.1863 113.002 51.1889C119.405 52.6726 128.81 57.4391 128.81 57.4391L113.694 44.4034C122.878 46.2715 131.335 49.468 138.706 53.6901C142.151 51.9359 147.777 52.859 152.797 56.3893C159.057 60.7956 161.937 67.5131 159.231 71.3956C159.169 71.4843 159.075 71.5407 159.009 71.6247C164.473 79.3356 167.576 88.1424 167.576 97.497C167.576 127.871 134.936 152.494 94.669 152.494ZM125.363 37.2956L125.368 37.2875C129.198 34.5941 137.936 31.4977 137.936 31.4977C123.303 29.4086 113.907 31.7959 113.907 31.7959C120.441 22.9534 148.224 17.6885 148.224 17.6885C117.363 16.1956 101.838 30.9003 101.838 30.9003C102.727 22.0568 116.469 4.06577 116.469 4.06577C97.6781 17.0911 94.5213 30.6022 94.5213 30.6022C94.5213 30.6022 91.3633 17.0911 72.5689 4.06577C72.5689 4.06577 86.3142 22.0568 87.2053 30.9003C87.2053 30.9003 71.68 16.1956 40.8183 17.6885C40.8183 17.6885 68.5999 22.9534 75.1347 31.7959C75.1347 31.7959 65.7386 29.4086 51.1056 31.4977C51.1056 31.4977 59.9678 34.6344 63.7535 37.3428L63.7627 37.3762C28.7385 47.2568 3.71057 73.4422 3.71057 104.194C3.71057 143.424 44.446 175.225 94.7 175.225C144.951 175.225 185.689 143.424 185.689 104.194C185.689 73.3616 160.53 47.1199 125.363 37.2956Z"
    fill="#1D1D1B" />
  <path fill-rule="evenodd" clip-rule="evenodd"
    d="M148.461 54.0468C148.926 54.2333 149.392 54.4462 149.857 54.6753C149.39 54.4462 148.926 54.2321 148.461 54.0468Z"
    fill="#009EE2" />
  <path fill-rule="evenodd" clip-rule="evenodd"
    d="M142.997 70.4536C136.74 66.0462 133.856 59.3286 136.562 55.445C137.099 54.6749 137.855 54.1224 138.707 53.6885C138.707 53.6896 138.706 53.6896 138.706 53.6896C131.334 49.4687 122.877 46.2722 113.693 44.4041L128.81 57.4398C128.81 57.4398 119.404 52.6721 113.001 51.1895C108.675 50.187 105.398 48.8874 101.301 48.1519C102.489 51.9757 105.28 62.669 103.62 74.4029C103.62 63.9317 92.9367 51.8537 89.206 47.9505C84.5017 48.625 81.0161 50.0845 76.2568 51.1895C69.856 52.6721 60.4508 57.4398 60.4508 57.4398L75.0643 44.5272C44.3207 50.9904 21.7566 72.2516 21.7566 97.4977C21.7566 127.871 54.3983 152.494 94.6686 152.494C134.935 152.494 167.576 127.871 167.576 97.4977C167.576 88.1419 164.473 79.3363 159.009 71.6254C156.166 75.2282 149.116 74.7574 142.997 70.4536Z"
    fill="#009EE2" />
  <path fill-rule="evenodd" clip-rule="evenodd"
    d="M150.625 55.0559C151.355 55.4542 152.084 55.8882 152.797 56.39C152.083 55.887 151.355 55.4531 150.625 55.0559Z"
    fill="#009EE2" />
  <path fill-rule="evenodd" clip-rule="evenodd"
    d="M146.403 53.3644C146.763 53.4611 147.121 53.5624 147.486 53.6856C147.121 53.5636 146.763 53.46 146.403 53.3644Z"
    fill="#009EE2" />
  <path fill-rule="evenodd" clip-rule="evenodd"
    d="M144.754 53.0096C144.919 53.0361 145.079 53.0464 145.245 53.0798C145.079 53.0476 144.919 53.0349 144.754 53.0096Z"
    fill="#009EE2" />
  <mask id="mask1_47_4122" style="mask-type:luminance" maskUnits="userSpaceOnUse" x="0" y="0"
    width="473" height="180">
    <path fill-rule="evenodd" clip-rule="evenodd" d="M0 179.521H472.09V0H0V179.521Z" fill="white" />
  </mask>
  <g mask="url(#mask1_47_4122)">
    <path fill-rule="evenodd" clip-rule="evenodd"
      d="M221.101 175.495H225.683V39.9347H221.101V175.495Z" fill="#FEFEFE" />
    <path fill-rule="evenodd" clip-rule="evenodd"
      d="M274.365 64.2938H277.262C282.665 64.2938 285.366 61.8939 285.366 57.094C285.366 53.1344 282.717 51.1534 277.419 51.1534H274.365V64.2938ZM274.366 75.9782V96.909H258.901V39.3896H277.654C293.209 39.3896 300.988 45.0551 300.988 56.3861C300.988 63.0484 297.751 68.2028 291.279 71.8471L307.957 96.909H290.418L278.281 75.9782H274.366Z"
      fill="#FEFEFE" />
    <path fill-rule="evenodd" clip-rule="evenodd"
      d="M350.379 96.9089H316.396V39.3895H350.379V51.8612H331.86V60.9108H349.009V73.3825H331.86V84.2404H350.379V96.9089Z"
      fill="#FEFEFE" />
    <path fill-rule="evenodd" clip-rule="evenodd"
      d="M417.873 96.9089H397.593L376.687 56.386H376.334C376.83 62.7594 377.079 67.626 377.079 70.9825V96.9089H363.376V39.3895H383.578L404.405 79.3622H404.64C404.275 73.5666 404.093 68.9106 404.093 65.3953V39.3895H417.873V96.9089Z"
      fill="#FEFEFE" />
    <path fill-rule="evenodd" clip-rule="evenodd"
      d="M457.133 96.9089H441.668V52.0971H427.692V39.3895H471.071V52.0971H457.133V96.9089Z"
      fill="#FEFEFE" />
    <path fill-rule="evenodd" clip-rule="evenodd"
      d="M274.365 142.879H277.262C282.665 142.879 285.366 140.479 285.366 135.679C285.366 131.719 282.717 129.738 277.419 129.738H274.365V142.879ZM274.366 154.563V175.494H258.901V117.974H277.654C293.209 117.974 300.988 123.64 300.988 134.971C300.988 141.633 297.751 146.788 291.279 150.432L307.957 175.494H290.418L278.281 154.563H274.366Z"
      fill="#FEFEFE" />
    <path fill-rule="evenodd" clip-rule="evenodd"
      d="M326.569 175.495H342.112V117.975H326.569V175.495Z" fill="#FEFEFE" />
    <path fill-rule="evenodd" clip-rule="evenodd"
      d="M396.696 146.065C396.696 140.794 395.659 136.886 393.583 134.341C391.509 131.797 388.357 130.525 384.128 130.525H379.626V162.746H383.071C387.769 162.746 391.215 161.377 393.407 158.635C395.6 155.895 396.696 151.704 396.696 146.065ZM412.748 145.514C412.748 155.114 410.118 162.51 404.858 167.704C399.598 172.898 392.206 175.493 382.68 175.493H364.162V117.975H383.972C393.159 117.975 400.251 120.335 405.25 125.056C410.248 129.778 412.748 136.597 412.748 145.514Z"
      fill="#FEFEFE" />
    <path fill-rule="evenodd" clip-rule="evenodd"
      d="M465.343 175.494H431.36V117.974H465.343V130.446H446.825V139.496H463.973V151.967H446.825V162.825H465.343V175.494Z"
      fill="#FEFEFE" />
    <path fill-rule="evenodd" clip-rule="evenodd"
      d="M465.445 174.76C463.602 174.76 462.113 174.272 461.018 173.307C459.896 172.32 459.327 170.928 459.327 169.173C459.327 167.407 459.87 166.011 460.942 165.023C461.996 164.051 463.511 163.559 465.445 163.559C467.297 163.559 468.76 164.054 469.79 165.03C470.832 166.017 471.359 167.411 471.359 169.173C471.359 170.903 470.818 172.286 469.747 173.282C468.692 174.264 467.244 174.76 465.445 174.76Z"
      fill="#009EE2" />
    <path fill-rule="evenodd" clip-rule="evenodd"
      d="M465.445 162.825C463.322 162.825 461.642 163.384 460.449 164.483C459.221 165.614 458.597 167.193 458.597 169.172C458.597 171.149 459.25 172.726 460.536 173.859C461.768 174.944 463.419 175.494 465.445 175.494C467.434 175.494 469.048 174.93 470.242 173.82C471.468 172.68 472.089 171.116 472.089 169.172C472.089 167.202 471.485 165.628 470.291 164.497C469.12 163.387 467.49 162.825 465.445 162.825ZM465.445 164.292C467.115 164.292 468.395 164.717 469.289 165.563C470.182 166.411 470.63 167.614 470.63 169.172C470.63 170.697 470.171 171.889 469.251 172.744C468.332 173.598 467.063 174.027 465.445 174.027C463.776 174.027 462.46 173.604 461.499 172.757C460.538 171.91 460.056 170.715 460.056 169.172C460.056 167.614 460.516 166.411 461.436 165.563C462.354 164.717 463.691 164.292 465.445 164.292Z"
      fill="#1D1D1B" />
    <path fill-rule="evenodd" clip-rule="evenodd"
      d="M297.744 125.831V111.806L285.722 89.1252H297.645L303.217 101.268L308.837 89.1252H320.718L308.688 111.518V125.831H297.744Z"
      fill="#009EE2" />
    <path fill-rule="evenodd" clip-rule="evenodd"
      d="M321.87 88.4337H319.567H309.275H308.398L308.028 89.2325L303.221 99.6243L298.453 89.2371L298.085 88.4337H297.205H286.865H284.576L285.652 90.4641L297.056 111.98V125.141V126.522H298.431H308.001H309.376V125.141V111.693L320.775 90.4711L321.87 88.4337ZM319.567 89.8149L308.001 111.344V125.141H298.431V111.634L286.865 89.8149H297.205L303.215 102.912L309.275 89.8149H319.567Z"
      fill="#1D1D1B" />
    <path fill-rule="evenodd" clip-rule="evenodd"
      d="M340.885 97.7787C336.543 97.7787 334.431 100.936 334.431 107.43C334.431 113.859 336.527 116.985 340.837 116.985C343.024 116.985 344.589 116.267 345.626 114.788C346.699 113.255 347.245 110.78 347.245 107.43C347.245 104.065 346.691 101.568 345.601 100.009C344.549 98.5097 343.008 97.7787 340.885 97.7787ZM340.837 126.315C335.153 126.315 330.718 124.673 327.655 121.436C324.602 118.209 323.055 113.48 323.055 107.382C323.055 101.348 324.595 96.6542 327.632 93.4358C330.678 90.206 335.136 88.5692 340.885 88.5692C346.65 88.5692 351.098 90.1944 354.105 93.4013C357.101 96.5966 358.62 101.316 358.62 107.43C358.62 113.528 357.093 118.246 354.082 121.457C351.059 124.681 346.602 126.315 340.837 126.315Z"
      fill="#009EE2" />
    <path fill-rule="evenodd" clip-rule="evenodd"
      d="M340.838 116.293C338.383 116.293 335.12 115.374 335.12 107.43C335.12 99.3977 338.41 98.47 340.886 98.47C342.767 98.47 344.126 99.1031 345.04 100.408C346.046 101.846 346.556 104.209 346.556 107.43C346.556 110.634 346.054 112.977 345.063 114.39C344.166 115.67 342.785 116.293 340.838 116.293ZM340.886 87.878C334.941 87.878 330.313 89.5884 327.132 92.9599C323.971 96.3129 322.367 101.163 322.367 107.381C322.367 113.664 323.979 118.554 327.158 121.912C330.354 125.292 334.957 127.006 340.838 127.006C346.8 127.006 351.423 125.299 354.582 121.932C357.718 118.589 359.308 113.709 359.308 107.43C359.308 101.134 357.726 96.2542 354.606 92.9276C351.464 89.5781 346.848 87.878 340.886 87.878ZM340.838 117.674C343.242 117.674 345.025 116.845 346.187 115.186C347.349 113.527 347.93 110.942 347.93 107.43C347.93 103.902 347.341 101.297 346.164 99.613C344.985 97.9301 343.226 97.0876 340.886 97.0876C336.125 97.0876 333.745 100.536 333.745 107.43C333.745 114.26 336.108 117.674 340.838 117.674ZM340.886 89.2604C346.48 89.2604 350.719 90.7982 353.605 93.875C356.49 96.9517 357.933 101.47 357.933 107.43C357.933 113.374 356.482 117.892 353.581 120.985C350.679 124.078 346.432 125.623 340.838 125.623C335.323 125.623 331.096 124.069 328.154 120.96C325.213 117.851 323.742 113.326 323.742 107.381C323.742 101.502 325.205 97.0127 328.13 93.9106C331.054 90.8097 335.307 89.2604 340.886 89.2604Z"
      fill="#1D1D1B" />
    <path fill-rule="evenodd" clip-rule="evenodd"
      d="M382.282 126.315C377.329 126.315 373.452 125.007 370.759 122.427C368.057 119.839 366.688 116.094 366.688 111.296V89.1251H377.607V110.547C377.607 112.867 378.022 114.547 378.844 115.543C379.643 116.512 380.816 116.985 382.427 116.985C384.159 116.985 385.361 116.521 386.106 115.568C386.878 114.581 387.27 112.874 387.27 110.499V89.1251H398.141V111.078C398.141 115.875 396.756 119.655 394.025 122.314C391.299 124.969 387.349 126.315 382.282 126.315Z"
      fill="#009EE2" />
    <path fill-rule="evenodd" clip-rule="evenodd"
      d="M398.828 88.4337H397.454H387.957H386.582V89.815V110.498C386.582 113.26 386.028 114.548 385.564 115.143C384.96 115.916 383.934 116.293 382.425 116.293C381.031 116.293 380.034 115.904 379.373 115.102C378.667 114.246 378.294 112.671 378.294 110.547V89.815V88.4337H376.92H367.374H366V89.815V111.296C366 116.289 367.442 120.203 370.285 122.927C373.11 125.632 377.146 127.006 382.281 127.006C387.532 127.006 391.644 125.594 394.503 122.811C397.373 120.014 398.828 116.066 398.828 111.078V89.815V88.4337ZM397.454 89.8149V111.078C397.454 115.701 396.151 119.281 393.547 121.819C390.942 124.355 387.187 125.624 382.281 125.624C377.489 125.624 373.806 124.392 371.233 121.927C368.661 119.463 367.374 115.919 367.374 111.296V89.8149H376.92V110.547C376.92 113.043 377.384 114.856 378.314 115.983C379.243 117.111 380.614 117.674 382.425 117.674C384.366 117.674 385.771 117.115 386.645 115.995C387.519 114.876 387.957 113.043 387.957 110.498V89.8149H397.454Z"
      fill="#1D1D1B" />
    <path fill-rule="evenodd" clip-rule="evenodd"
      d="M419.673 104.42C422.6 104.42 423.963 103.234 423.963 100.688C423.963 99.4184 423.528 97.7299 419.77 97.7299H418.581V104.42H419.673ZM427.357 125.832L419.904 112.977H418.581V125.832H407.71V89.1257H419.914C429.878 89.1257 434.931 92.8701 434.931 100.254C434.931 104.368 433.024 107.635 429.256 109.972L439.81 125.832H427.357Z"
      fill="#009EE2" />
    <path fill-rule="evenodd" clip-rule="evenodd"
      d="M419.269 98.4212H419.769C423.277 98.4212 423.277 99.8957 423.277 100.689C423.277 102.268 422.839 103.729 419.673 103.729H419.269V98.4212ZM419.914 88.4334H408.397H407.023V89.8147V125.141V126.522H408.397H417.894H419.269V125.141V113.668H419.508L426.565 125.836L426.963 126.522H427.752H438.525H441.097L439.667 124.373L430.217 110.172C433.803 107.732 435.619 104.401 435.619 100.254C435.619 90.4846 427.078 88.4334 419.914 88.4334ZM417.894 105.11H419.673C422.991 105.11 424.65 103.637 424.65 100.689C424.65 98.2566 423.023 97.0399 419.769 97.0399H417.894V105.11ZM419.914 89.8147C429.468 89.8147 434.244 93.2944 434.244 100.254C434.244 104.344 432.256 107.51 428.281 109.749L438.525 125.141H427.752L420.298 112.286H417.894V125.141H408.397V89.8147H419.914Z"
      fill="#1D1D1B" />
  </g>
</svg>
