<svg width="230" height="229" fill="none" xmlns="http://www.w3.org/2000/svg">
  <path fill-rule="evenodd" clip-rule="evenodd"
    d="M220 132.778C220 134.312 218.756 135.556 217.223 135.556C215.688 135.556 214.444 134.312 214.444 132.778C214.444 131.243 215.688 130 217.223 130C218.756 130 220 131.243 220 132.778Z"
    fill="#009EE2" />
  <path fill-rule="evenodd" clip-rule="evenodd"
    d="M15.5556 132.778C15.5556 134.312 14.3117 135.556 12.7782 135.556C11.2438 135.556 10 134.312 10 132.778C10 131.243 11.2438 130 12.7782 130C14.3117 130 15.5556 131.243 15.5556 132.778Z"
    fill="#009EE2" />
  <mask id="mask0_47_4342" style="mask-type:luminance" maskUnits="userSpaceOnUse" x="0" y="90"
    width="25" height="18">
    <path fill-rule="evenodd" clip-rule="evenodd" d="M0 90H24.4444V107.778H0V90Z" fill="white" />
  </mask>
  <g mask="url(#mask0_47_4342)">
    <path fill-rule="evenodd" clip-rule="evenodd"
      d="M10.2424 100.329L10.4132 99.2791C10.7325 97.321 9.99345 96.2061 8.19461 95.9347C6.71149 95.7109 5.81315 96.5591 5.50031 98.4793L5.31949 99.5858L10.2424 100.329ZM14.6201 100.99L22.4612 102.173L21.5485 107.778L-0.000244141 104.525L1.10762 97.7292C2.02533 92.0915 4.60699 89.5925 8.85187 90.2335C11.3474 90.6106 13.0874 92.0749 14.0711 94.6264L24.4444 90L23.409 96.356L14.8511 99.5713L14.6201 100.99Z"
      fill="#1D1D1B" />
  </g>
  <path fill-rule="evenodd" clip-rule="evenodd"
    d="M32.2222 73.6584L27.2753 85.5555L6.66663 77.4534L11.6135 65.5555L16.0829 67.3119L13.386 73.7956L16.6284 75.0706L19.1248 69.0669L23.5928 70.8233L21.0963 76.8277L24.9872 78.3572L27.6833 71.8735L32.2222 73.6584Z"
    fill="#1D1D1B" />
  <path fill-rule="evenodd" clip-rule="evenodd"
    d="M46.6666 51.4781L42.069 57.5437L24.8985 54.9272L24.8185 55.0327C26.8864 56.2792 28.4355 57.2704 29.4651 58.0051L37.4188 63.68L34.312 67.7778L16.6666 55.1886L21.2469 49.1461L38.2309 51.6654L38.2835 51.5955C36.4231 50.4358 34.9532 49.4718 33.8754 48.7029L25.8971 43.0105L29.0213 38.8889L46.6666 51.4781Z"
    fill="#1D1D1B" />
  <path fill-rule="evenodd" clip-rule="evenodd"
    d="M57.7778 40.6311L53.2815 44.4444L42.6378 31.0492L38.5743 34.4959L35.5555 30.6972L48.169 20L51.187 23.7987L47.1348 27.2359L57.7778 40.6311Z"
    fill="#1D1D1B" />
  <path fill-rule="evenodd" clip-rule="evenodd"
    d="M79.5902 14.5975L80.4359 5.4967L86.2487 3.33334L83.9517 18.6314L86.6667 26.8771L81.2616 28.8889L78.6033 20.816L67.7778 10.2083L73.6176 8.03459L79.5902 14.5975Z"
    fill="#009EE2" />
  <path fill-rule="evenodd" clip-rule="evenodd"
    d="M101.765 11.4917C102.136 15.6394 103.77 17.585 106.667 17.3278C108.14 17.1975 109.187 16.5973 109.81 15.526C110.432 14.4555 110.648 12.8542 110.457 10.7208C110.266 8.5789 109.764 7.02863 108.951 6.06999C108.137 5.11206 107.013 4.69615 105.579 4.82298C102.662 5.08159 101.39 7.30496 101.765 11.4917ZM116.586 10.1773C116.908 13.7873 116.265 16.6101 114.655 18.6464C113.045 20.682 110.526 21.8518 107.098 22.1558C103.719 22.4555 101.045 21.7413 99.0743 20.0132C97.1032 18.2851 95.9565 15.6153 95.6343 12.0054C95.3149 8.43507 95.9672 5.62928 97.5912 3.58659C99.2152 1.5446 101.736 0.371981 105.155 0.0687298C108.582 -0.23523 111.263 0.46905 113.198 2.18086C115.133 3.89267 116.262 6.55817 116.586 10.1773Z"
    fill="#009EE2" />
  <path fill-rule="evenodd" clip-rule="evenodd"
    d="M144.444 3.27385L142.091 16.0223C141.58 18.7942 140.382 20.7993 138.497 22.0369C136.612 23.2745 134.16 23.6257 131.141 23.0919C128.19 22.5708 126.059 21.4309 124.748 19.6729C123.437 17.9156 123.037 15.6506 123.549 12.8788L125.926 0L131.803 1.03936L129.508 13.4685C129.232 14.966 129.318 16.1031 129.765 16.8798C130.212 17.6571 130.995 18.145 132.109 18.3418C133.304 18.5528 134.231 18.3701 134.893 17.7938C135.555 17.2182 136.027 16.1675 136.308 14.641L138.597 2.24015L144.444 3.27385Z"
    fill="#009EE2" />
  <path fill-rule="evenodd" clip-rule="evenodd"
    d="M156.931 17.7639L157.906 18.2303C159.724 19.1003 161.005 18.706 161.749 17.0475C162.364 15.6787 161.781 14.5672 159.998 13.7145L158.971 13.2222L156.931 17.7639ZM155.117 21.8018L151.869 29.0356L146.667 26.5453L155.594 6.66666L161.903 9.68676C167.136 12.1915 168.873 15.4019 167.114 19.318C166.08 21.6202 164.192 22.8801 161.448 23.0978L163.169 34.4444L157.268 31.6204L156.435 22.4325L155.117 21.8018Z"
    fill="#009EE2" />
  <path fill-rule="evenodd" clip-rule="evenodd"
    d="M188.674 40.4974L189.454 41.2651C190.907 42.6952 192.294 42.7942 193.612 41.5604C194.699 40.5427 194.53 39.3312 193.104 37.9282L192.282 37.1195L188.674 40.4974ZM185.465 43.5012L179.718 48.8819L175.556 44.7858L191.35 30L196.397 34.9669C200.583 39.0867 201.122 42.6026 198.011 45.5152C196.181 47.2281 193.895 47.6956 191.152 46.9188L188.758 57.7778L184.038 53.1327L186.519 44.5378L185.465 43.5012Z"
    fill="#1D1D1B" />
  <path fill-rule="evenodd" clip-rule="evenodd"
    d="M191.111 61.7552L209.056 50L212.222 54.9114L194.278 66.6667L191.111 61.7552Z" fill="#1D1D1B" />
  <path fill-rule="evenodd" clip-rule="evenodd"
    d="M212.876 79.9472C214.759 79.2141 216.009 78.3001 216.626 77.2066C217.242 76.1131 217.253 74.8128 216.657 73.3062L216.023 71.7017L204.511 76.1852L204.996 77.4128C205.658 79.0872 206.633 80.1238 207.921 80.5238C209.209 80.9239 210.86 80.7322 212.876 79.9472ZM215.333 85.5912C211.903 86.9262 208.891 87.0185 206.294 85.8673C203.698 84.7147 201.729 82.442 200.386 79.0469L197.778 72.447L218.329 64.4445L221.119 71.5042C222.413 74.7782 222.569 77.6341 221.586 80.0726C220.604 82.5104 218.52 84.35 215.333 85.5912Z"
    fill="#1D1D1B" />
  <path fill-rule="evenodd" clip-rule="evenodd"
    d="M208.497 107.778L206.667 94.3529L228.17 91.1111L230 104.536L225.338 105.239L224.34 97.9231L220.958 98.4333L221.881 105.208L217.219 105.91L216.296 99.1359L212.235 99.7484L213.234 107.064L208.497 107.778Z"
    fill="#1D1D1B" />
  <path fill-rule="evenodd" clip-rule="evenodd"
    d="M26.3788 166.829C25.959 166.129 25.4044 165.758 24.7134 165.72C24.0225 165.681 23.1451 165.968 22.0825 166.58L21.3639 166.995C20.1533 167.692 19.3808 168.355 19.0485 168.984C18.7154 169.612 18.7686 170.294 19.2095 171.029C19.5623 171.619 20.1402 171.895 20.9434 171.858C21.7472 171.82 22.745 171.457 23.9395 170.77C26.3175 169.4 27.1302 168.086 26.3788 166.829ZM31.4877 166.352C32.4344 167.933 32.5094 169.577 31.7143 171.282C30.9185 172.988 29.3275 174.528 26.9407 175.903C24.5364 177.289 22.3718 177.906 20.4485 177.756C18.5252 177.605 17.0647 176.696 16.0669 175.029C15.7448 174.49 15.5174 173.978 15.3848 173.491C15.2514 173.005 15.1909 172.536 15.2026 172.087C15.215 171.637 15.3345 171.054 15.5619 170.337L15.3782 170.029L13.452 170.07L11.1111 166.159L31.4447 154.444L34.4444 159.458L29.8442 162.108C29.2954 162.424 28.3145 162.909 26.9013 163.563L27.0092 163.742C28.0674 163.787 28.9565 164.03 29.6773 164.472C30.3981 164.913 31.0016 165.539 31.4877 166.352Z"
    fill="#1D1D1B" />
  <path fill-rule="evenodd" clip-rule="evenodd"
    d="M30.4526 191.111L26.6666 186.876L43.9925 172.222L47.7777 176.457L30.4526 191.111Z"
    fill="#1D1D1B" />
  <path fill-rule="evenodd" clip-rule="evenodd"
    d="M47.3659 207.29L48.0862 205.198L47.8191 204.987C46.9678 205.292 46.0782 205.338 45.1518 205.125C44.2247 204.911 43.3068 204.443 42.3967 203.72C40.9554 202.575 40.1635 201.263 40.0226 199.784C39.8802 198.305 40.4107 196.797 41.6155 195.26L48.3461 186.667L52.8669 190.258L47.2214 197.466C46.5464 198.327 46.1569 199.075 46.0534 199.711C45.9493 200.347 46.1753 200.885 46.7305 201.326C47.5082 201.944 48.305 202.076 49.1202 201.722C49.9347 201.369 50.9171 200.458 52.0659 198.991L56.5903 193.216L61.1111 196.807L50.7768 210L47.3659 207.29Z"
    fill="#1D1D1B" />
  <path fill-rule="evenodd" clip-rule="evenodd"
    d="M72.7061 206.692C72.106 206.416 71.5156 206.371 70.9348 206.559C70.3541 206.746 69.8405 207.223 69.394 207.99L73.7769 210.009C74.0919 209.296 74.1549 208.641 73.9666 208.041C73.7783 207.442 73.3582 206.992 72.7061 206.692ZM67.4905 218.516C65.0292 217.382 63.4226 215.857 62.6723 213.937C61.9219 212.018 62.1095 209.864 63.2364 207.476C64.4 205.011 65.9241 203.41 67.8069 202.672C69.6903 201.935 71.8014 202.104 74.141 203.181C76.3671 204.206 77.8165 205.572 78.4879 207.277C79.16 208.982 78.987 210.912 77.9695 213.069L76.9111 215.31L67.7937 211.111C67.4428 211.943 67.4428 212.723 67.7937 213.448C68.144 214.175 68.8112 214.763 69.7941 215.217C70.6891 215.629 71.553 215.924 72.3843 216.103C73.2156 216.282 74.1659 216.372 75.2347 216.373L73.5257 219.993C72.5345 220.028 71.5772 219.927 70.6524 219.689C69.7263 219.451 68.6728 219.06 67.4905 218.516Z"
    fill="#1D1D1B" />
  <path fill-rule="evenodd" clip-rule="evenodd"
    d="M84.4445 219.389L85.5161 215.556L93.3334 217.278L92.2624 221.111L84.4445 219.389Z"
    fill="#1D1D1B" />
  <path fill-rule="evenodd" clip-rule="evenodd"
    d="M108.676 224.379C109.448 224.444 110.387 224.327 111.495 224.03L111.15 228.284C110.35 228.558 109.594 228.737 108.883 228.822C108.172 228.908 107.348 228.911 106.409 228.832C104.482 228.67 103.132 228.073 102.36 227.041C101.587 226.01 101.282 224.499 101.443 222.508L102.009 215.537L100 215.368L100.339 211.009L102.373 211.18L102.662 207.778L108.42 208.261L108.144 211.65L112.222 211.993L111.867 216.366L107.789 216.024L107.254 222.606C107.165 223.701 107.639 224.292 108.676 224.379Z"
    fill="#1D1D1B" />
  <path fill-rule="evenodd" clip-rule="evenodd"
    d="M124.768 219.69C124.936 221.06 125.254 222.082 125.721 222.756C126.189 223.43 126.868 223.715 127.762 223.613C128.646 223.512 129.225 223.081 129.501 222.322C129.777 221.562 129.83 220.498 129.662 219.128C129.494 217.768 129.183 216.762 128.729 216.11C128.275 215.458 127.6 215.183 126.707 215.286C125.833 215.387 125.25 215.803 124.956 216.536C124.661 217.27 124.599 218.32 124.768 219.69ZM135.458 218.462C135.78 221.07 135.304 223.187 134.033 224.812C132.76 226.437 130.818 227.4 128.206 227.7C125.701 227.989 123.615 227.471 121.951 226.15C120.287 224.828 119.299 222.897 118.985 220.354C118.665 217.756 119.143 215.654 120.417 214.047C121.691 212.44 123.639 211.486 126.261 211.184C127.882 210.998 129.356 211.167 130.682 211.69C132.006 212.213 133.082 213.058 133.911 214.223C134.738 215.389 135.254 216.801 135.458 218.462Z"
    fill="#1D1D1B" />
  <path fill-rule="evenodd" clip-rule="evenodd"
    d="M166.851 216.368L163.244 207.979C162.795 206.935 162.314 206.213 161.802 205.812C161.288 205.413 160.721 205.343 160.098 205.607C159.274 205.955 158.82 206.56 158.736 207.422C158.652 208.284 158.931 209.459 159.57 210.949L162.663 218.139L157.278 220.415L153.67 212.026C153.222 210.982 152.748 210.256 152.248 209.851C151.749 209.445 151.193 209.371 150.579 209.631C149.737 209.987 149.284 210.619 149.219 211.525C149.155 212.432 149.486 213.73 150.212 215.419L153.117 222.174L147.746 224.444L141.111 209.015L145.163 207.302L146.656 208.924L146.972 208.79C147.079 207.907 147.444 207.115 148.067 206.412C148.69 205.709 149.5 205.146 150.498 204.724C152.742 203.776 154.608 203.786 156.096 204.756L156.522 204.576C156.688 203.755 157.086 202.999 157.715 202.31C158.343 201.62 159.129 201.076 160.072 200.677C161.913 199.899 163.473 199.792 164.754 200.355C166.036 200.919 167.086 202.154 167.906 204.06L172.222 214.098L166.851 216.368Z"
    fill="#1D1D1B" />
  <path fill-rule="evenodd" clip-rule="evenodd"
    d="M184.372 200.756C184.923 200.321 185.253 199.779 185.361 199.131C185.468 198.483 185.294 197.887 184.839 197.345L184.005 196.351L182.995 197.224C181.54 198.46 181.24 199.586 182.093 200.602C182.75 201.386 183.51 201.437 184.372 200.756ZM190.177 200.981L187.881 199.977L187.788 200.05C187.794 201.273 187.593 202.271 187.183 203.044C186.774 203.818 186.065 204.604 185.055 205.401C183.813 206.381 182.531 206.792 181.21 206.634C179.889 206.475 178.678 205.74 177.578 204.429C176.435 203.067 176.072 201.665 176.491 200.227C176.91 198.788 178.013 197.295 179.799 195.746L181.943 193.941L181.791 193.76C180.906 192.706 179.928 192.602 178.856 193.447C177.894 194.207 176.936 195.489 175.985 197.293L172.222 195.417C173.115 193.436 174.734 191.519 177.078 189.668C178.771 188.332 180.423 187.704 182.034 187.785C183.644 187.865 185.062 188.636 186.289 190.097L193.333 198.49L190.177 200.981Z"
    fill="#1D1D1B" />
  <path fill-rule="evenodd" clip-rule="evenodd"
    d="M203.042 181.042C203.554 180.439 204.013 179.595 204.418 178.51L207.778 181.199C207.534 182.015 207.236 182.742 206.887 183.379C206.538 184.016 206.053 184.701 205.431 185.433C204.156 186.936 202.857 187.717 201.535 187.774C200.213 187.831 198.767 187.231 197.196 185.973L191.69 181.567L190.359 183.136L186.846 180.343L188.19 178.776L185.556 176.666L189.387 172.152L192.063 174.294L194.763 171.111L198.217 173.875L195.517 177.057L200.716 181.217C201.58 181.909 202.356 181.851 203.042 181.042Z"
    fill="#1D1D1B" />
  <path fill-rule="evenodd" clip-rule="evenodd"
    d="M206.582 165.995C207.859 166.644 208.921 166.974 209.77 166.986C210.618 166.998 211.255 166.618 211.68 165.845C212.101 165.08 212.064 164.37 211.568 163.715C211.073 163.06 210.188 162.408 208.911 161.759C207.644 161.115 206.599 160.788 205.777 160.779C204.954 160.77 204.33 161.151 203.905 161.925C203.49 162.681 203.513 163.386 203.975 164.041C204.437 164.695 205.307 165.347 206.582 165.995ZM211.669 156.742C214.099 157.977 215.648 159.568 216.316 161.515C216.985 163.463 216.697 165.567 215.454 167.828C214.263 169.996 212.619 171.368 210.526 171.943C208.431 172.519 206.2 172.204 203.832 171C201.411 169.77 199.874 168.185 199.223 166.246C198.573 164.308 198.871 162.204 200.118 159.935C200.89 158.531 201.881 157.45 203.094 156.689C204.305 155.929 205.651 155.551 207.13 155.556C208.609 155.56 210.122 155.955 211.669 156.742Z"
    fill="#1D1D1B" />
  <path fill-rule="evenodd" clip-rule="evenodd"
    d="M114.98 153.762C89.6549 153.762 69.1277 138.576 69.1277 119.845C69.1277 104.273 83.3177 91.1639 102.651 87.177L93.461 95.14C93.461 95.14 99.3755 92.2008 103.402 91.2851C106.395 90.6046 108.587 89.7061 111.545 89.2873C113.891 91.6931 120.609 99.1442 120.609 105.601C121.653 98.3647 119.897 91.7691 119.15 89.4121C121.727 89.866 123.788 90.6655 126.509 91.2851C130.536 92.2008 136.45 95.14 136.45 95.14L126.944 87.101C132.766 88.2626 138.127 90.2525 142.79 92.8849C144.954 92.0115 148.294 92.6411 151.274 94.6983C154.556 96.9614 156.337 100.225 155.813 102.616C155.732 103.035 155.593 103.433 155.371 103.79L155.375 103.789C158.856 108.566 160.83 114.035 160.83 119.845C160.83 138.576 140.304 153.762 114.98 153.762ZM134.282 82.7168L134.286 82.7103C136.694 81.0496 142.188 79.1393 142.188 79.1393C132.987 77.8508 127.077 79.3236 127.077 79.3236C131.189 73.8689 148.661 70.6234 148.661 70.6234C129.25 69.702 119.489 78.7715 119.489 78.7715C120.049 73.3175 128.691 62.2222 128.691 62.2222C116.873 70.2541 114.887 78.5879 114.887 78.5879C114.887 78.5879 112.9 70.2541 101.082 62.2222C101.082 62.2222 109.726 73.3175 110.286 78.7715C110.286 78.7715 100.523 69.702 81.1148 70.6234C81.1148 70.6234 98.5865 73.8689 102.696 79.3236C102.696 79.3236 96.7867 77.8508 87.5842 79.1393C87.5842 79.1393 93.1554 81.0754 95.539 82.7455L95.5447 82.7656C73.5198 88.8592 57.7778 105.008 57.7778 123.973C57.7778 148.166 83.3958 167.778 115 167.778C146.601 167.778 172.222 148.166 172.222 123.973C172.222 104.96 156.398 88.7768 134.282 82.7168Z"
    fill="#1D1D1B" />
  <path fill-rule="evenodd" clip-rule="evenodd"
    d="M155.686 103.357C155.907 103 156.046 102.603 156.126 102.183C156.646 99.7916 154.877 96.528 151.615 94.2647C148.655 92.208 145.336 91.5783 143.187 92.4511C138.554 89.8185 133.227 87.8284 127.443 86.6667L136.888 94.7064C136.888 94.7064 131.011 91.7669 127.011 90.8511C124.307 90.2323 122.259 89.4319 119.7 88.978C120.442 91.3359 122.187 97.9314 121.148 105.168C121.148 98.7109 114.474 91.2592 112.143 88.8532C109.204 89.272 107.026 90.1706 104.052 90.8511C100.053 91.7669 94.1756 94.7064 94.1756 94.7064L103.307 86.7427C84.0985 90.73 70 103.841 70 119.413C70 138.147 90.3947 153.333 115.557 153.333C140.717 153.333 161.111 138.147 161.111 119.413C161.111 113.603 159.149 108.134 155.69 103.356L155.686 103.357Z"
    fill="#009EE2" />
  <path fill-rule="evenodd" clip-rule="evenodd"
    d="M140.64 92.7769C142.345 90.3424 146.92 90.6071 150.862 93.3689C154.805 96.1315 156.619 100.343 154.915 102.778C153.21 105.213 148.635 104.949 144.692 102.187C140.752 99.4241 138.936 95.2114 140.64 92.7769Z"
    fill="#FEFEFE" />
</svg>
