<svg width="473" height="175" fill="none" xmlns="http://www.w3.org/2000/svg">
  <path fill-rule="evenodd" clip-rule="evenodd" d="M219.472 174.064H225.148V37.84H219.472V174.064Z"
    fill="#1D1D1B" />
  <path fill-rule="evenodd" clip-rule="evenodd"
    d="M273.649 61.9454H276.569C282.017 61.9454 284.74 59.5339 284.74 54.7107C284.74 50.7319 282.069 48.7413 276.728 48.7413H273.649V61.9454ZM273.649 73.6864V94.7186H258.057V36.9205H276.964C292.648 36.9205 300.49 42.6135 300.49 53.9994C300.49 60.694 297.227 65.8734 290.702 69.5353L307.517 94.7186H289.833L277.596 73.6864H273.649Z"
    fill="#1D1D1B" />
  <path fill-rule="evenodd" clip-rule="evenodd"
    d="M350.288 94.7185H316.025V36.9204H350.288V49.4525H331.617V58.546H348.906V71.0781H331.617V81.9886H350.288V94.7185Z"
    fill="#1D1D1B" />
  <path fill-rule="evenodd" clip-rule="evenodd"
    d="M418.338 94.7185H397.891L376.812 53.9993H376.457C376.957 60.4035 377.207 65.2938 377.207 68.6665V94.7185H363.392V36.9204H383.76L404.759 77.0868H404.996C404.627 71.2632 404.444 66.5846 404.444 63.0522V36.9204H418.338V94.7185Z"
    fill="#1D1D1B" />
  <path fill-rule="evenodd" clip-rule="evenodd"
    d="M457.92 94.7185H442.329V49.6896H428.237V36.9204H471.973V49.6896H457.92V94.7185Z"
    fill="#1D1D1B" />
  <path fill-rule="evenodd" clip-rule="evenodd"
    d="M273.649 140.911H276.569C282.017 140.911 284.74 138.499 284.74 133.676C284.74 129.697 282.069 127.707 276.728 127.707H273.649V140.911ZM273.649 152.652V173.684H258.057V115.886H276.964C292.648 115.886 300.49 121.579 300.49 132.965C300.49 139.659 297.227 144.839 290.702 148.501L307.517 173.684H289.833L277.596 152.652H273.649Z"
    fill="#1D1D1B" />
  <mask id="mask0_47_4009" style="mask-type:luminance" maskUnits="userSpaceOnUse" x="0" y="0"
    width="473" height="175">
    <path fill-rule="evenodd" clip-rule="evenodd" d="M0 174.064H473V0H0V174.064Z" fill="white" />
  </mask>
  <g mask="url(#mask0_47_4009)">
    <path fill-rule="evenodd" clip-rule="evenodd"
      d="M326.283 173.685H341.953V115.887H326.283V173.685Z" fill="#1D1D1B" />
    <path fill-rule="evenodd" clip-rule="evenodd"
      d="M396.986 144.113C396.986 138.816 395.941 134.889 393.847 132.332C391.757 129.775 388.579 128.497 384.315 128.497H379.776V160.875H383.249C387.986 160.875 391.46 159.499 393.67 156.744C395.881 153.991 396.986 149.779 396.986 144.113ZM413.17 143.559C413.17 153.205 410.519 160.638 405.216 165.857C399.913 171.075 392.459 173.684 382.855 173.684H364.184V115.887H384.158C393.42 115.887 400.571 118.258 405.611 123.002C410.649 127.747 413.17 134.599 413.17 143.559Z"
      fill="#1D1D1B" />
    <path fill-rule="evenodd" clip-rule="evenodd"
      d="M466.198 173.684H431.936V115.886H466.198V128.418H447.528V137.512H464.817V150.044H447.528V160.954H466.198V173.684Z"
      fill="#1D1D1B" />
    <path fill-rule="evenodd" clip-rule="evenodd"
      d="M466.301 172.946C464.443 172.946 462.941 172.456 461.837 171.487C460.705 170.494 460.133 169.096 460.133 167.333C460.133 165.557 460.68 164.154 461.761 163.162C462.825 162.186 464.352 161.691 466.301 161.691C468.167 161.691 469.642 162.188 470.681 163.169C471.732 164.161 472.263 165.562 472.263 167.333C472.263 169.071 471.718 170.46 470.638 171.461C469.575 172.447 468.115 172.946 466.301 172.946Z"
      fill="#1D1D1B" />
    <path fill-rule="evenodd" clip-rule="evenodd"
      d="M466.301 160.954C464.161 160.954 462.466 161.514 461.264 162.619C460.026 163.757 459.397 165.343 459.397 167.332C459.397 169.318 460.055 170.901 461.352 172.041C462.595 173.131 464.259 173.684 466.301 173.684C468.307 173.684 469.934 173.118 471.138 172.001C472.374 170.856 473 169.286 473 167.332C473 165.352 472.39 163.772 471.187 162.634C470.007 161.519 468.363 160.954 466.301 160.954ZM466.301 162.428C467.984 162.428 469.275 162.854 470.176 163.705C471.077 164.557 471.529 165.766 471.529 167.332C471.529 168.865 471.066 170.062 470.138 170.921C469.212 171.779 467.932 172.211 466.301 172.211C464.618 172.211 463.291 171.784 462.322 170.933C461.353 170.083 460.868 168.882 460.868 167.332C460.868 165.766 461.331 164.557 462.259 163.705C463.185 162.854 464.532 162.428 466.301 162.428Z"
      fill="#FEFEFE" />
    <path fill-rule="evenodd" clip-rule="evenodd"
      d="M297.22 123.781V109.687L285.098 86.8968H297.119L302.738 99.0981L308.404 86.8968H320.383L308.254 109.398V123.781H297.22Z"
      fill="#1D1D1B" />
    <path fill-rule="evenodd" clip-rule="evenodd"
      d="M321.544 86.2025H319.222H308.845H307.962L307.589 87.0052L302.742 97.4473L297.934 87.0098L297.563 86.2025H296.676H286.251H283.943L285.028 88.2428L296.526 109.861V123.087V124.475H297.912H307.561H308.947V123.087V109.575L320.44 88.2497L321.544 86.2025ZM319.222 87.5904L307.561 109.223V123.087H297.912V109.514L286.251 87.5904H296.676L302.736 100.751L308.845 87.5904H319.222Z"
      fill="#FEFEFE" />
    <path fill-rule="evenodd" clip-rule="evenodd"
      d="M340.716 95.5922C336.338 95.5922 334.208 98.7649 334.208 105.291C334.208 111.75 336.322 114.892 340.667 114.892C342.872 114.892 344.451 114.17 345.496 112.684C346.578 111.143 347.128 108.656 347.128 105.291C347.128 101.909 346.57 99.3999 345.471 97.8338C344.41 96.3267 342.856 95.5922 340.716 95.5922ZM340.667 124.266C334.937 124.266 330.465 122.617 327.377 119.365C324.298 116.122 322.739 111.371 322.739 105.242C322.739 99.179 324.291 94.4622 327.354 91.2283C330.424 87.9839 334.92 86.3392 340.716 86.3392C346.528 86.3392 351.013 87.9723 354.044 91.1936C357.065 94.4044 358.597 99.1466 358.597 105.291C358.597 111.416 357.057 116.158 354.021 119.386C350.972 122.625 346.48 124.266 340.667 124.266Z"
      fill="#1D1D1B" />
    <path fill-rule="evenodd" clip-rule="evenodd"
      d="M340.668 114.197C338.193 114.197 334.903 113.274 334.903 105.291C334.903 97.2196 338.221 96.2874 340.716 96.2874C342.613 96.2874 343.984 96.9235 344.905 98.2352C345.919 99.6798 346.433 102.054 346.433 105.291C346.433 108.511 345.927 110.864 344.928 112.285C344.024 113.571 342.631 114.197 340.668 114.197ZM340.716 85.644C334.723 85.644 330.057 87.3628 326.85 90.7506C323.662 94.1199 322.046 98.9951 322.046 105.242C322.046 111.555 323.671 116.467 326.875 119.843C330.099 123.239 334.739 124.961 340.668 124.961C346.678 124.961 351.34 123.246 354.525 119.863C357.687 116.504 359.29 111.601 359.29 105.291C359.29 98.965 357.695 94.0609 354.549 90.7182C351.38 87.3512 346.726 85.644 340.716 85.644ZM340.668 115.585C343.092 115.585 344.89 114.752 346.061 113.084C347.233 111.417 347.819 108.819 347.819 105.291C347.819 101.746 347.225 99.1281 346.038 97.4359C344.85 95.7449 343.076 94.8983 340.716 94.8983C335.917 94.8983 333.517 98.3635 333.517 105.291C333.517 112.154 335.899 115.585 340.668 115.585ZM340.716 87.032C346.357 87.032 350.631 88.5784 353.54 91.6689C356.449 94.7618 357.904 99.3016 357.904 105.291C357.904 111.263 356.441 115.803 353.516 118.911C350.591 122.019 346.308 123.572 340.668 123.572C335.108 123.572 330.846 122.011 327.88 118.887C324.914 115.763 323.431 111.215 323.431 105.242C323.431 99.334 324.906 94.8231 327.856 91.706C330.804 88.59 335.092 87.032 340.716 87.032Z"
      fill="#FEFEFE" />
    <path fill-rule="evenodd" clip-rule="evenodd"
      d="M382.454 124.266C377.459 124.266 373.55 122.952 370.836 120.36C368.111 117.761 366.731 113.998 366.731 109.175V86.8967H377.739V108.423C377.739 110.753 378.159 112.442 378.987 113.443C379.793 114.416 380.974 114.892 382.599 114.892C384.345 114.892 385.558 114.426 386.309 113.469C387.087 112.476 387.482 110.76 387.482 108.374V86.8967H398.443V108.957C398.443 113.776 397.047 117.574 394.293 120.247C391.544 122.914 387.56 124.266 382.454 124.266Z"
      fill="#1D1D1B" />
    <path fill-rule="evenodd" clip-rule="evenodd"
      d="M399.136 86.2025H397.75H388.175H386.789V87.5904V108.374C386.789 111.148 386.23 112.443 385.763 113.04C385.154 113.818 384.119 114.196 382.598 114.196C381.193 114.196 380.187 113.806 379.522 112.999C378.809 112.14 378.433 110.558 378.433 108.423V87.5904V86.2025H377.048H367.423H366.037V87.5904V109.174C366.037 114.193 367.491 118.126 370.358 120.862C373.206 123.581 377.275 124.961 382.453 124.961C387.747 124.961 391.893 123.543 394.775 120.745C397.669 117.936 399.136 113.969 399.136 108.956V87.5904V86.2025ZM397.75 87.5904V108.956C397.75 113.602 396.437 117.199 393.811 119.748C391.185 122.298 387.399 123.573 382.453 123.573C377.621 123.573 373.908 122.335 371.314 119.858C368.72 117.382 367.423 113.821 367.423 109.174V87.5904H377.048V108.423C377.048 110.931 377.516 112.753 378.453 113.885C379.39 115.019 380.772 115.584 382.598 115.584C384.555 115.584 385.972 115.022 386.853 113.897C387.734 112.773 388.175 110.931 388.175 108.374V87.5904H397.75Z"
      fill="#FEFEFE" />
    <path fill-rule="evenodd" clip-rule="evenodd"
      d="M420.153 102.265C423.103 102.265 424.478 101.074 424.478 98.5168C424.478 97.2399 424.039 95.5431 420.25 95.5431H419.051V102.265H420.153ZM427.9 123.781L420.385 110.864H419.051V123.781H408.091V86.8973H420.395C430.442 86.8973 435.536 90.6598 435.536 98.0796C435.536 102.213 433.613 105.496 429.814 107.845L440.455 123.781H427.9Z"
      fill="#1D1D1B" />
    <path fill-rule="evenodd" clip-rule="evenodd"
      d="M419.744 96.2383H420.249C423.785 96.2383 423.785 97.72 423.785 98.5169C423.785 100.104 423.344 101.572 420.152 101.572H419.744V96.2383ZM420.395 86.2022H408.784H407.398V87.5902V123.087V124.475H408.784H418.359H419.744V123.087V111.559H419.986L427.101 123.786L427.502 124.475H428.297H439.159H441.753L440.31 122.316L430.783 108.046C434.399 105.594 436.229 102.247 436.229 98.0797C436.229 88.2634 427.618 86.2022 420.395 86.2022ZM418.359 102.96H420.152C423.498 102.96 425.17 101.478 425.17 98.5169C425.17 96.0718 423.53 94.8504 420.249 94.8504H418.359V102.96ZM420.395 87.5902C430.027 87.5902 434.843 91.0867 434.843 98.0797C434.843 102.19 432.838 105.371 428.831 107.621L439.159 123.087H428.297L420.783 110.17H418.359V123.087H408.784V87.5902H420.395Z"
      fill="#FEFEFE" />
    <path fill-rule="evenodd" clip-rule="evenodd"
      d="M92.8134 150.951C51.7219 150.951 18.4155 125.909 18.4155 95.0212C18.4155 69.344 41.4401 47.7253 72.8075 41.151L57.897 54.2823C57.897 54.2823 67.494 49.436 74.0271 47.9254C78.8833 46.8035 82.4403 45.3219 87.2388 44.6313C91.0464 48.5986 101.945 60.8855 101.945 71.5323C103.64 59.5993 100.791 48.7247 99.5797 44.8372C103.76 45.5856 107.105 46.9041 111.52 47.9254C118.053 49.436 127.65 54.2823 127.65 54.2823L112.226 41.0261C121.597 42.9265 130.227 46.1778 137.751 50.4666C136.88 50.9084 136.108 51.4705 135.56 52.2547C132.798 56.2035 135.741 63.0357 142.126 67.5153C148.368 71.8909 155.559 72.372 158.464 68.709C164.041 76.5486 167.208 85.5056 167.208 95.0212C167.208 125.909 133.902 150.951 92.8134 150.951ZM124.131 33.797L124.137 33.7854C128.045 31.0465 136.959 27.897 136.959 27.897C122.029 25.7711 112.442 28.2012 112.442 28.2012C119.113 19.2049 147.462 13.8532 147.462 13.8532C115.967 12.3345 100.13 27.2898 100.13 27.2898C101.037 18.2958 115.061 0.000175476 115.061 0.000175476C95.8842 13.2448 92.6621 26.9879 92.6621 26.9879C92.6621 26.9879 89.4377 13.2448 70.2634 0.000175476C70.2634 0.000175476 84.2893 18.2958 85.1971 27.2898C85.1971 27.2898 69.3557 12.3345 37.8647 13.8532C37.8647 13.8532 66.2145 19.2049 72.8815 28.2012C72.8815 28.2012 63.2938 25.7711 48.3625 27.897C48.3625 27.897 57.4028 31.0893 61.2693 33.8444L61.2785 33.8768C25.5423 43.9245 0 70.5548 0 101.829C0 141.722 41.5661 174.064 92.8446 174.064C144.121 174.064 185.692 141.722 185.692 101.829C185.692 70.4761 160.015 43.7891 124.131 33.797Z"
      fill="#1D1D1B" />
  </g>
</svg>
