<svg width="48" height="36" fill="none" xmlns="http://www.w3.org/2000/svg">
  <path fill-rule="evenodd" clip-rule="evenodd" d="M0 0V36H48V0H0Z" fill="#4857A1" />
  <mask id="mask0_123_5536" style="mask-type:luminance" maskUnits="userSpaceOnUse" x="0" y="0"
    width="48" height="36">
    <path fill-rule="evenodd" clip-rule="evenodd" d="M0 0V36H48V0H0Z" fill="white" />
  </mask>
  <g mask="url(#mask0_123_5536)">
    <path fill-rule="evenodd" clip-rule="evenodd" d="M0 0V12H48V0H0Z" fill="#C51918" />
    <path fill-rule="evenodd" clip-rule="evenodd" d="M0 24V36H48V24H0Z" fill="#F7FCFF" />
    <path fill-rule="evenodd" clip-rule="evenodd"
      d="M15.7815 4.04355L15.5875 3.31104C15.747 3.35718 15.9197 3.40449 16.1017 3.45309L16.0961 3.42509C18.3585 3.63449 21.8618 4.76368 22.521 5.94164C22.7759 6.39694 22.5287 6.78182 22.2047 7.28621L22.2047 7.28622L22.2047 7.28629C22.1563 7.36164 22.1062 7.43965 22.0558 7.52096C21.8929 7.78364 21.7454 8.0348 21.6064 8.27151C21.0988 9.13574 20.7045 9.80722 20.0919 10.1425L20.1038 12.0608L9.99721 11.9789L9.98429 10.0461C9.45974 9.68703 9.09144 9.05995 8.6293 8.27308L8.62929 8.27307L8.62928 8.27305C8.49026 8.03635 8.34275 7.7852 8.17995 7.52254C8.12953 7.4412 8.07941 7.36316 8.031 7.28779L8.031 7.28778C7.70704 6.78339 7.45984 6.39851 7.71466 5.94321C8.21244 5.05383 10.4516 4.1767 12.4926 3.7102C12.8775 3.58238 13.2782 3.46251 13.6755 3.34752L13.8393 3.45924C14.0161 3.43459 14.1871 3.41453 14.3505 3.39941L14.5913 3.91267H15.3818C15.3818 3.91267 15.8787 5.30279 15.8787 6.07479C15.8787 6.8468 15.3818 7.48521 15.3818 7.48521V8.0181C15.4686 8.02491 15.5596 8.03322 15.6542 8.04286C15.6542 7.99578 15.6585 7.94619 15.6674 7.89546C15.7123 7.64079 15.8583 7.45366 15.9934 7.47748C16.1286 7.50131 16.2017 7.72707 16.1568 7.98174C16.1496 8.02236 16.1399 8.06126 16.128 8.09785C16.6607 8.16615 17.2574 8.26143 17.8226 8.35942C18.0381 7.96579 18.3009 7.57689 18.5518 7.20556L18.5518 7.20555L18.5518 7.20553L18.5518 7.20552L18.5518 7.2055C19.2003 6.24563 19.7695 5.40322 19.2383 4.90034C19.1368 4.80425 18.9525 4.71491 18.7148 4.63223C17.9336 4.44301 17.0826 4.29529 16.2562 4.2188L16.2345 4.1114C16.076 4.08716 15.9237 4.06455 15.7815 4.04355ZM19.6267 8.69597C19.9112 8.75246 20.0835 8.78835 20.0835 8.78835L20.0854 9.08469C21.0878 8.36876 21.7899 6.74841 21.8501 6.21807C21.8859 5.90301 21.3591 5.53628 20.5322 5.20045C20.9102 5.90444 20.3815 6.60468 19.7193 7.48153C19.4682 7.81394 19.1981 8.17173 18.9508 8.56473C19.0375 8.58118 19.1207 8.59713 19.2001 8.61244C19.1963 8.53813 19.2051 8.45443 19.2282 8.36855C19.2951 8.11876 19.4568 7.94506 19.5893 7.98058C19.7219 8.01609 19.775 8.24737 19.7081 8.49715C19.6883 8.57129 19.66 8.63872 19.6267 8.69597ZM14.4577 8.0217V7.42822C14.4577 7.42822 14.0275 6.97513 13.9608 6.03151C13.9123 5.34485 14.066 4.53555 14.1533 4.14571C13.5527 4.22226 12.9218 4.33605 12.3066 4.47426C11.8107 4.5977 11.4091 4.73957 11.2393 4.90034C10.7081 5.40322 11.2773 6.24564 11.9258 7.20551L11.9258 7.20551L11.9258 7.20552L11.9258 7.20555C12.1682 7.56421 12.4216 7.93928 12.6328 8.31916C12.9977 8.24471 13.3644 8.17579 13.7068 8.12094C13.6924 8.07134 13.6822 8.01722 13.6773 7.96025C13.6547 7.70264 13.7473 7.48411 13.8839 7.47215C14.0206 7.46019 14.1497 7.65933 14.1723 7.91694C14.1764 7.9641 14.1767 8.00995 14.1735 8.05346C14.2721 8.04099 14.3672 8.03032 14.4577 8.0217ZM11.5244 8.56096C11.2778 8.16945 11.0086 7.81289 10.7583 7.48155L10.7583 7.48154C10.0808 6.58433 9.54288 5.87203 9.97323 5.15142C9.00258 5.51461 8.34988 5.90502 8.38558 6.21964C8.44222 6.71885 9.06764 8.18386 9.97697 8.95124L9.9769 8.94057C9.9769 8.94057 10.3486 8.84227 10.898 8.70912C10.8616 8.65361 10.8298 8.5876 10.806 8.51443C10.7261 8.26849 10.7671 8.03475 10.8976 7.99235C11.0281 7.94995 11.1987 8.11495 11.2786 8.36088C11.3068 8.4476 11.3199 8.5328 11.3194 8.60863C11.3863 8.59294 11.4547 8.57702 11.5244 8.56096Z"
      fill="#F6C540" />
    <path fill-rule="evenodd" clip-rule="evenodd"
      d="M12.8898 4.02629C12.9591 4.07382 13.0444 4.10185 13.1367 4.10185C13.3686 4.10185 13.5565 3.92471 13.5565 3.7062C13.5565 3.48769 13.3686 3.31055 13.1367 3.31055C12.9722 3.31055 12.8299 3.39963 12.761 3.52938C12.6917 3.48186 12.6064 3.45383 12.5141 3.45383C12.3662 3.45383 12.2361 3.52591 12.1613 3.63482C12.0888 3.57848 11.9958 3.54465 11.8945 3.54465C11.6626 3.54465 11.4746 3.72179 11.4746 3.9403C11.4746 3.95244 11.4752 3.96446 11.4763 3.97632C11.3994 3.88635 11.2814 3.82878 11.1492 3.82878C10.9391 3.82878 10.765 3.97424 10.7342 4.16414C10.6573 4.07204 10.538 4.01289 10.404 4.01289C10.2025 4.01289 10.0341 4.14666 9.99349 4.3251C9.92454 4.27834 9.83993 4.25079 9.74849 4.25079C9.56244 4.25079 9.40466 4.36481 9.34954 4.52274C9.29305 4.49609 9.22929 4.48109 9.16182 4.48109C8.95463 4.48109 8.78249 4.62251 8.74817 4.80849C8.72125 4.80338 8.69339 4.8007 8.66487 4.8007C8.4352 4.8007 8.24859 4.97447 8.24505 5.1901C8.22005 5.18573 8.19427 5.18344 8.16792 5.18344C7.93603 5.18344 7.74805 5.36058 7.74805 5.57909C7.74805 5.60681 7.75107 5.63386 7.75683 5.65997C7.72911 5.65454 7.7004 5.65169 7.67097 5.65169C7.43908 5.65169 7.2511 5.82883 7.2511 6.04734C7.2511 6.21331 7.35955 6.35541 7.51332 6.41415C7.50423 6.44653 7.49939 6.48052 7.49939 6.51559C7.49939 6.68167 7.60799 6.82385 7.76193 6.88252C7.75287 6.91484 7.74805 6.94878 7.74805 6.98379C7.74805 7.19706 7.92713 7.37092 8.15133 7.37914C8.05675 7.45168 7.99634 7.56226 7.99634 7.68613C7.99634 7.90465 8.18432 8.08179 8.41621 8.08179C8.6481 8.08179 8.83609 7.90465 8.83609 7.68613C8.83609 7.47286 8.65701 7.299 8.43281 7.29079C8.52739 7.21824 8.5878 7.10766 8.5878 6.98379C8.5878 6.8177 8.4792 6.67552 8.32526 6.61685C8.33432 6.58453 8.33914 6.55059 8.33914 6.51559C8.33914 6.34962 8.23069 6.20751 8.07692 6.14877C8.08601 6.1164 8.09085 6.0824 8.09085 6.04734C8.09085 6.01962 8.08783 5.99258 8.08207 5.96647C8.10979 5.97189 8.1385 5.97475 8.16792 5.97475C8.3976 5.97475 8.5842 5.80098 8.58775 5.58535C8.61275 5.58972 8.63853 5.59201 8.66487 5.59201C8.87206 5.59201 9.0442 5.4506 9.07852 5.26461C9.10544 5.26972 9.1333 5.2724 9.16182 5.2724C9.34786 5.2724 9.50565 5.15838 9.56077 5.00045C9.61726 5.0271 9.68101 5.0421 9.74849 5.0421C9.84061 5.0421 9.92581 5.01414 9.99504 4.96674C10.0081 5.01964 10.0324 5.06848 10.0655 5.11087C10.0143 5.17643 9.98413 5.25738 9.98413 5.34499C9.98413 5.55827 10.1632 5.73213 10.3874 5.74034C10.2928 5.81289 10.2324 5.92347 10.2324 6.04734C10.2324 6.21343 10.341 6.35562 10.495 6.41428C10.4859 6.44661 10.4811 6.48057 10.4811 6.51559C10.4811 6.68155 10.5895 6.82365 10.7433 6.8824C10.7342 6.91475 10.7294 6.94874 10.7294 6.98379C10.7294 7.2023 10.9174 7.37944 11.1492 7.37944C11.3811 7.37944 11.5691 7.2023 11.5691 6.98379C11.5691 6.81782 11.4607 6.67572 11.3069 6.61698C11.316 6.58462 11.3208 6.55063 11.3208 6.51559C11.3208 6.3495 11.2122 6.20731 11.0583 6.14865C11.0673 6.11631 11.0722 6.08236 11.0722 6.04734C11.0722 5.83406 10.8931 5.6602 10.6689 5.65199C10.7635 5.57944 10.8239 5.46887 10.8239 5.34499C10.8239 5.25738 10.7937 5.17643 10.7425 5.11087C10.7937 5.04531 10.8239 4.96435 10.8239 4.87675C10.8239 4.78915 10.7937 4.7082 10.7425 4.64265C10.7817 4.59243 10.8086 4.53319 10.819 4.46884C10.8959 4.56094 11.0152 4.62009 11.1492 4.62009C11.3811 4.62009 11.5691 4.44295 11.5691 4.22443C11.5691 4.21229 11.5685 4.20027 11.5674 4.18841C11.6444 4.27839 11.7623 4.33595 11.8945 4.33595C12.0424 4.33595 12.1725 4.26387 12.2473 4.15495C12.3198 4.21129 12.4128 4.24513 12.5141 4.24513C12.6786 4.24513 12.8209 4.15604 12.8898 4.02629ZM10.4053 4.8042C10.5437 4.8038 10.6663 4.74031 10.7425 4.64265C10.6665 4.54522 10.5443 4.4818 10.4063 4.4811C10.4477 4.47991 10.4809 4.44789 10.4809 4.40856C10.4809 4.36848 10.4465 4.33598 10.4039 4.33598C10.3614 4.33598 10.3269 4.36848 10.3269 4.40856C10.3269 4.4479 10.3601 4.47993 10.4016 4.4811C10.3104 4.48159 10.2261 4.50947 10.1575 4.55645C10.1341 4.46176 10.0746 4.38012 9.99349 4.3251C9.98736 4.352 9.98413 4.37992 9.98413 4.40855C9.98413 4.49614 10.0143 4.57709 10.0655 4.64265C10.0143 4.7082 9.98413 4.78915 9.98413 4.87675C9.98413 4.9077 9.9879 4.93783 9.99504 4.96674C10.0772 4.91045 10.1369 4.82676 10.159 4.7299C10.2276 4.7764 10.3117 4.8039 10.4025 4.8042C10.3606 4.80489 10.3269 4.83711 10.3269 4.87676C10.3269 4.91684 10.3614 4.94933 10.4039 4.94933C10.4465 4.94933 10.4809 4.91684 10.4809 4.87676C10.4809 4.83712 10.4472 4.8049 10.4053 4.8042ZM10.4053 4.8042L10.4039 4.80418L10.4025 4.8042L10.404 4.8042L10.4053 4.8042ZM10.159 4.7299C10.1232 4.70561 10.0916 4.67614 10.0655 4.64265C10.0912 4.60964 10.1223 4.58054 10.1575 4.55645C10.1646 4.58536 10.1684 4.61549 10.1684 4.64645C10.1684 4.67507 10.1651 4.70299 10.159 4.7299ZM10.4016 4.4811L10.4039 4.48113L10.4063 4.4811L10.404 4.48109L10.4016 4.4811ZM11.3069 6.61698C11.2582 6.59838 11.205 6.58813 11.1492 6.58813C10.9545 6.58813 10.7908 6.71301 10.7433 6.8824C10.792 6.901 10.8452 6.91124 10.901 6.91124C11.0957 6.91124 11.2594 6.78637 11.3069 6.61698ZM11.0583 6.14865C11.0097 6.13013 10.9566 6.11993 10.901 6.11993C10.7062 6.11993 10.5425 6.24485 10.495 6.41428C10.5436 6.4328 10.5967 6.44299 10.6523 6.44299C10.847 6.44299 11.0108 6.31808 11.0583 6.14865ZM10.6689 5.65199C10.6634 5.65179 10.6579 5.65169 10.6523 5.65169C10.5519 5.65169 10.4597 5.68492 10.3874 5.74034C10.3929 5.74054 10.3984 5.74065 10.404 5.74065C10.5044 5.74065 10.5966 5.70742 10.6689 5.65199ZM10.7425 5.11087C10.6661 5.01291 10.5429 4.94934 10.404 4.94934C10.2651 4.94934 10.1419 5.01291 10.0655 5.11087C10.1419 5.20883 10.2651 5.2724 10.404 5.2724C10.5429 5.2724 10.6661 5.20883 10.7425 5.11087ZM8.43281 7.29079C8.4273 7.29058 8.42177 7.29048 8.41621 7.29048C8.31578 7.29048 8.22358 7.32371 8.15133 7.37914C8.15683 7.37934 8.16236 7.37944 8.16792 7.37944C8.26836 7.37944 8.36055 7.34621 8.43281 7.29079ZM8.32526 6.61685C8.27779 6.7863 8.11401 6.91124 7.91927 6.91124C7.86363 6.91124 7.81052 6.90104 7.76193 6.88252C7.8094 6.71307 7.97318 6.58813 8.16792 6.58813C8.22356 6.58813 8.27667 6.59833 8.32526 6.61685ZM8.07692 6.14877C8.02939 6.31814 7.86566 6.44299 7.67097 6.44299C7.61522 6.44299 7.56199 6.43275 7.51332 6.41415C7.56085 6.24479 7.72458 6.11993 7.91927 6.11993C7.97502 6.11993 8.02825 6.13018 8.07692 6.14877ZM7.75683 5.65997C7.79068 5.81358 7.91906 5.93455 8.08207 5.96647C8.04821 5.81286 7.91984 5.69188 7.75683 5.65997ZM8.58775 5.58535C8.39269 5.55123 8.245 5.39004 8.245 5.19636L8.24505 5.1901C8.4401 5.22422 8.5878 5.38541 8.5878 5.57909L8.58775 5.58535ZM9.07852 5.26461C8.88653 5.2282 8.74194 5.06839 8.74194 4.87675C8.74194 4.85347 8.74408 4.83066 8.74817 4.80849C8.94016 4.8449 9.08475 5.00472 9.08475 5.19636C9.08475 5.21963 9.08261 5.24244 9.07852 5.26461ZM9.56077 5.00045C9.42312 4.93551 9.32861 4.80138 9.32861 4.64645C9.32861 4.60324 9.33596 4.56166 9.34954 4.52274C9.48719 4.58768 9.58169 4.72182 9.58169 4.87675C9.58169 4.91995 9.57435 4.96153 9.56077 5.00045ZM10.819 4.46884C10.7629 4.40155 10.7294 4.31668 10.7294 4.22443C10.7294 4.20393 10.731 4.1838 10.7342 4.16414C10.7904 4.23143 10.8239 4.3163 10.8239 4.40855C10.8239 4.42905 10.8222 4.44918 10.819 4.46884ZM11.4763 3.97632C11.484 4.05625 11.5169 4.12932 11.5674 4.18841C11.5597 4.10848 11.5269 4.03541 11.4763 3.97632ZM12.2473 4.15495C12.1538 4.08239 12.0942 3.97249 12.0942 3.84948C12.0942 3.77035 12.1189 3.69665 12.1613 3.63482C12.2548 3.70739 12.3144 3.81729 12.3144 3.9403C12.3144 4.01942 12.2897 4.09313 12.2473 4.15495ZM12.8898 4.02629C12.785 3.95436 12.7168 3.83778 12.7168 3.7062C12.7168 3.64265 12.7327 3.5826 12.761 3.52938C12.8658 3.60132 12.934 3.7179 12.934 3.84948C12.934 3.91303 12.9181 3.97308 12.8898 4.02629ZM8.66479 5.26895C8.70732 5.26895 8.74181 5.23645 8.74181 5.19637C8.74181 5.15629 8.70732 5.12379 8.66479 5.12379C8.62225 5.12379 8.58777 5.15629 8.58777 5.19637C8.58777 5.23645 8.62225 5.26895 8.66479 5.26895ZM8.16784 5.65168C8.21038 5.65168 8.24486 5.61919 8.24486 5.57911C8.24486 5.53902 8.21038 5.50653 8.16784 5.50653C8.1253 5.50653 8.09082 5.53902 8.09082 5.57911C8.09082 5.61919 8.1253 5.65168 8.16784 5.65168ZM7.67089 6.11993C7.71343 6.11993 7.74791 6.08743 7.74791 6.04735C7.74791 6.00727 7.71343 5.97478 7.67089 5.97478C7.62835 5.97478 7.59387 6.00727 7.59387 6.04735C7.59387 6.08743 7.62835 6.11993 7.67089 6.11993ZM7.91955 6.58813C7.96208 6.58813 7.99657 6.55564 7.99657 6.51555C7.99657 6.47547 7.96208 6.44298 7.91955 6.44298C7.87701 6.44298 7.84253 6.47547 7.84253 6.51555C7.84253 6.55564 7.87701 6.58813 7.91955 6.58813ZM8.16784 7.05637C8.21038 7.05637 8.24486 7.02388 8.24486 6.9838C8.24486 6.94372 8.21038 6.91122 8.16784 6.91122C8.1253 6.91122 8.09082 6.94372 8.09082 6.9838C8.09082 7.02388 8.1253 7.05637 8.16784 7.05637ZM8.49351 7.68615C8.49351 7.72623 8.45903 7.75872 8.4165 7.75872C8.37396 7.75872 8.33948 7.72623 8.33948 7.68615C8.33948 7.64606 8.37396 7.61357 8.4165 7.61357C8.45903 7.61357 8.49351 7.64606 8.49351 7.68615ZM9.16174 4.94933C9.20427 4.94933 9.23875 4.91684 9.23875 4.87676C9.23875 4.83668 9.20427 4.80418 9.16174 4.80418C9.1192 4.80418 9.08472 4.83668 9.08472 4.87676C9.08472 4.91684 9.1192 4.94933 9.16174 4.94933ZM9.74841 4.71899C9.79094 4.71899 9.82542 4.68649 9.82542 4.64641C9.82542 4.60633 9.79094 4.57384 9.74841 4.57384C9.70587 4.57384 9.67139 4.60633 9.67139 4.64641C9.67139 4.68649 9.70587 4.71899 9.74841 4.71899ZM11.1492 4.29698C11.1917 4.29698 11.2262 4.26448 11.2262 4.2244C11.2262 4.18432 11.1917 4.15182 11.1492 4.15182C11.1066 4.15182 11.0721 4.18432 11.0721 4.2244C11.0721 4.26448 11.1066 4.29698 11.1492 4.29698ZM11.8944 4.01289C11.9369 4.01289 11.9714 3.98039 11.9714 3.94031C11.9714 3.90023 11.9369 3.86774 11.8944 3.86774C11.8519 3.86774 11.8174 3.90023 11.8174 3.94031C11.8174 3.98039 11.8519 4.01289 11.8944 4.01289ZM12.5144 3.92202C12.5569 3.92202 12.5914 3.88953 12.5914 3.84945C12.5914 3.80936 12.5569 3.77687 12.5144 3.77687C12.4719 3.77687 12.4374 3.80936 12.4374 3.84945C12.4374 3.88953 12.4719 3.92202 12.5144 3.92202ZM13.137 3.77879C13.1795 3.77879 13.214 3.74629 13.214 3.70621C13.214 3.66613 13.1795 3.63364 13.137 3.63364C13.0944 3.63364 13.0599 3.66613 13.0599 3.70621C13.0599 3.74629 13.0944 3.77879 13.137 3.77879ZM10.4039 5.41758C10.4465 5.41758 10.4809 5.38509 10.4809 5.34501C10.4809 5.30492 10.4465 5.27243 10.4039 5.27243C10.3614 5.27243 10.3269 5.30492 10.3269 5.34501C10.3269 5.38509 10.3614 5.41758 10.4039 5.41758ZM10.6522 6.11993C10.6948 6.11993 10.7292 6.08743 10.7292 6.04735C10.7292 6.00727 10.6948 5.97478 10.6522 5.97478C10.6097 5.97478 10.5752 6.00727 10.5752 6.04735C10.5752 6.08743 10.6097 6.11993 10.6522 6.11993ZM10.9009 6.58813C10.9434 6.58813 10.9779 6.55564 10.9779 6.51555C10.9779 6.47547 10.9434 6.44298 10.9009 6.44298C10.8583 6.44298 10.8239 6.47547 10.8239 6.51555C10.8239 6.55564 10.8583 6.58813 10.9009 6.58813ZM11.1492 7.05637C11.1917 7.05637 11.2262 7.02388 11.2262 6.9838C11.2262 6.94372 11.1917 6.91122 11.1492 6.91122C11.1066 6.91122 11.0721 6.94372 11.0721 6.9838C11.0721 7.02388 11.1066 7.05637 11.1492 7.05637ZM22.0809 7.75872C22.1235 7.75872 22.1579 7.72623 22.1579 7.68615C22.1579 7.64606 22.1235 7.61357 22.0809 7.61357C22.0384 7.61357 22.0039 7.64606 22.0039 7.68615C22.0039 7.72623 22.0384 7.75872 22.0809 7.75872ZM21.6611 7.68613C21.6611 7.90465 21.8491 8.08179 22.081 8.08179C22.3129 8.08179 22.5009 7.90465 22.5009 7.68613C22.5009 7.56226 22.4405 7.45168 22.3459 7.37914C22.5701 7.37092 22.7492 7.19706 22.7492 6.98379C22.7492 6.94878 22.7444 6.91484 22.7353 6.88252C22.8892 6.82385 22.9978 6.68167 22.9978 6.51559C22.9978 6.48052 22.993 6.44653 22.9839 6.41415C23.1377 6.35541 23.2461 6.21331 23.2461 6.04734C23.2461 5.82883 23.0581 5.65169 22.8262 5.65169C22.7968 5.65169 22.7681 5.65454 22.7404 5.65997C22.7461 5.63386 22.7492 5.60681 22.7492 5.57909C22.7492 5.36058 22.5612 5.18344 22.3293 5.18344C22.303 5.18344 22.2772 5.18573 22.2522 5.1901C22.2486 4.97447 22.062 4.8007 21.8324 4.8007C21.8038 4.8007 21.776 4.80338 21.7491 4.80849C21.7147 4.62251 21.5426 4.48109 21.3354 4.48109C21.2679 4.48109 21.2042 4.49609 21.1477 4.52274C21.0926 4.36481 20.9348 4.25079 20.7487 4.25079C20.6573 4.25079 20.5727 4.27834 20.5037 4.3251C20.4631 4.14666 20.2947 4.01289 20.0932 4.01289C19.9592 4.01289 19.8399 4.07204 19.763 4.16414C19.7322 3.97424 19.5581 3.82878 19.348 3.82878C19.2158 3.82878 19.0979 3.88635 19.0209 3.97633C19.022 3.96446 19.0226 3.95244 19.0226 3.9403C19.0226 3.72179 18.8346 3.54465 18.6027 3.54465C18.5014 3.54465 18.4084 3.57849 18.3359 3.63483C18.2611 3.52591 18.131 3.45383 17.9831 3.45383C17.8909 3.45383 17.8055 3.48186 17.7363 3.52939C17.6674 3.39964 17.525 3.31055 17.3605 3.31055C17.1287 3.31055 16.9407 3.48769 16.9407 3.7062C16.9407 3.92471 17.1287 4.10185 17.3605 4.10185C17.4528 4.10185 17.5381 4.07382 17.6074 4.02629C17.6763 4.15604 17.8187 4.24513 17.9831 4.24513C18.0845 4.24513 18.1774 4.2113 18.25 4.15495C18.3248 4.26387 18.4548 4.33595 18.6027 4.33595C18.7349 4.33595 18.8529 4.27839 18.9298 4.18841C18.9287 4.20027 18.9281 4.21229 18.9281 4.22443C18.9281 4.44295 19.1161 4.62009 19.348 4.62009C19.482 4.62009 19.6013 4.56094 19.6782 4.46884C19.6886 4.53319 19.7155 4.59243 19.7547 4.64265C19.7036 4.7082 19.6733 4.78915 19.6733 4.87675C19.6733 4.96435 19.7036 5.04531 19.7547 5.11087C19.7036 5.17643 19.6733 5.25738 19.6733 5.34499C19.6733 5.46887 19.7338 5.57944 19.8283 5.65199C19.6041 5.6602 19.425 5.83406 19.425 6.04734C19.425 6.08236 19.4299 6.11631 19.4389 6.14865C19.285 6.20731 19.1764 6.3495 19.1764 6.51559C19.1764 6.55063 19.1812 6.58462 19.1903 6.61698C19.0365 6.67572 18.9281 6.81782 18.9281 6.98379C18.9281 7.2023 19.1161 7.37944 19.348 7.37944C19.5799 7.37944 19.7679 7.2023 19.7679 6.98379C19.7679 6.94874 19.763 6.91475 19.7539 6.8824C19.9077 6.82365 20.0161 6.68155 20.0161 6.51559C20.0161 6.48057 20.0113 6.44661 20.0023 6.41428C20.1562 6.35562 20.2648 6.21343 20.2648 6.04734C20.2648 5.92347 20.2044 5.81289 20.1098 5.74034C20.334 5.73213 20.5131 5.55827 20.5131 5.34499C20.5131 5.25738 20.4829 5.17643 20.4317 5.11087C20.4648 5.06848 20.4891 5.01964 20.5022 4.96674C20.5714 5.01414 20.6566 5.0421 20.7487 5.0421C20.8162 5.0421 20.88 5.0271 20.9365 5.00045C20.9916 5.15838 21.1494 5.2724 21.3354 5.2724C21.3639 5.2724 21.3918 5.26972 21.4187 5.26461C21.453 5.4506 21.6252 5.59201 21.8324 5.59201C21.8587 5.59201 21.8845 5.58972 21.9095 5.58535C21.913 5.80098 22.0996 5.97475 22.3293 5.97475C22.3587 5.97475 22.3874 5.97189 22.4152 5.96647C22.4094 5.99257 22.4064 6.01962 22.4064 6.04734C22.4064 6.0824 22.4112 6.1164 22.4203 6.14877C22.2665 6.20751 22.1581 6.34962 22.1581 6.51559C22.1581 6.55059 22.1629 6.58453 22.172 6.61685C22.018 6.67552 21.9094 6.8177 21.9094 6.98379C21.9094 7.10766 21.9698 7.21824 22.0644 7.29079C21.8402 7.299 21.6611 7.47286 21.6611 7.68613ZM20.3382 4.7299C20.3603 4.82676 20.42 4.91045 20.5022 4.96674C20.5093 4.93783 20.5131 4.9077 20.5131 4.87675C20.5131 4.78915 20.4829 4.7082 20.4317 4.64265C20.4829 4.57709 20.5131 4.49614 20.5131 4.40855C20.5131 4.37992 20.5099 4.352 20.5037 4.3251C20.4226 4.38012 20.3631 4.46177 20.3398 4.55646C20.2712 4.50953 20.187 4.48166 20.096 4.4811C20.1374 4.47987 20.1705 4.44786 20.1705 4.40856C20.1705 4.36848 20.136 4.33598 20.0935 4.33598C20.051 4.33598 20.0165 4.36848 20.0165 4.40856C20.0165 4.44788 20.0497 4.4799 20.0911 4.4811C19.953 4.48174 19.8307 4.54518 19.7547 4.64265C19.8309 4.74034 19.9536 4.80384 20.0921 4.8042C20.0502 4.80492 20.0165 4.83713 20.0165 4.87676C20.0165 4.91684 20.051 4.94933 20.0935 4.94933C20.136 4.94933 20.1705 4.91684 20.1705 4.87676C20.1705 4.83668 20.136 4.80418 20.0935 4.80418L20.0921 4.8042L20.0932 4.8042C20.1847 4.8042 20.2693 4.77666 20.3382 4.7299ZM20.3382 4.7299C20.374 4.70561 20.4056 4.67614 20.4317 4.64265C20.406 4.60964 20.3749 4.58054 20.3398 4.55646C20.3326 4.58537 20.3289 4.61549 20.3289 4.64645C20.3289 4.67507 20.3321 4.70299 20.3382 4.7299ZM20.096 4.4811L20.0935 4.48113L20.0932 4.48109L20.096 4.4811ZM19.7539 6.8824C19.7064 6.71301 19.5427 6.58813 19.348 6.58813C19.2922 6.58813 19.239 6.59838 19.1903 6.61698C19.2378 6.78637 19.4016 6.91124 19.5963 6.91124C19.652 6.91124 19.7053 6.90099 19.7539 6.8824ZM20.0023 6.41428C19.9548 6.24485 19.791 6.11993 19.5963 6.11993C19.5406 6.11993 19.4875 6.13013 19.4389 6.14865C19.4864 6.31808 19.6502 6.44299 19.8449 6.44299C19.9006 6.44299 19.9537 6.4328 20.0023 6.41428ZM20.1098 5.74034C20.0376 5.68492 19.9454 5.65169 19.8449 5.65169C19.8394 5.65169 19.8338 5.65179 19.8283 5.65199C19.9006 5.70742 19.9928 5.74065 20.0932 5.74065C20.0988 5.74065 20.1043 5.74054 20.1098 5.74034ZM20.4317 5.11087C20.3553 5.01291 20.2321 4.94934 20.0932 4.94934C19.9543 4.94934 19.8311 5.01291 19.7547 5.11087C19.8311 5.20883 19.9543 5.2724 20.0932 5.2724C20.2321 5.2724 20.3553 5.20883 20.4317 5.11087ZM17.6074 4.02629C17.7123 3.95436 17.7804 3.83778 17.7804 3.7062C17.7804 3.64265 17.7645 3.5826 17.7363 3.52939C17.6314 3.60132 17.5632 3.7179 17.5632 3.84948C17.5632 3.91303 17.5791 3.97308 17.6074 4.02629ZM18.25 4.15495C18.3434 4.08239 18.403 3.97249 18.403 3.84948C18.403 3.77035 18.3783 3.69666 18.3359 3.63483C18.2424 3.70739 18.1829 3.81729 18.1829 3.9403C18.1829 4.01942 18.2075 4.09312 18.25 4.15495ZM19.0209 3.97633C19.0132 4.05625 18.9804 4.12932 18.9298 4.18841C18.9375 4.10848 18.9704 4.03542 19.0209 3.97633ZM19.6782 4.46884C19.7343 4.40155 19.7679 4.31668 19.7679 4.22443C19.7679 4.20393 19.7662 4.1838 19.763 4.16414C19.7068 4.23142 19.6733 4.3163 19.6733 4.40855C19.6733 4.42905 19.675 4.44918 19.6782 4.46884ZM20.9365 5.00045C21.0741 4.93551 21.1686 4.80138 21.1686 4.64645C21.1686 4.60324 21.1613 4.56166 21.1477 4.52274C21.01 4.58769 20.9155 4.72182 20.9155 4.87675C20.9155 4.91995 20.9229 4.96153 20.9365 5.00045ZM21.4187 5.26461C21.6107 5.2282 21.7553 5.06839 21.7553 4.87675C21.7553 4.85347 21.7531 4.83066 21.7491 4.80849C21.5571 4.8449 21.4125 5.00472 21.4125 5.19636C21.4125 5.21963 21.4146 5.24244 21.4187 5.26461ZM22.4152 5.96647C22.5782 5.93455 22.7065 5.81357 22.7404 5.65997C22.5774 5.69188 22.449 5.81286 22.4152 5.96647ZM22.2522 5.1901L22.2522 5.19636C22.2522 5.39004 22.1045 5.55123 21.9095 5.58535L21.9094 5.57909C21.9094 5.38541 22.0571 5.22423 22.2522 5.1901ZM22.4203 6.14877C22.469 6.13018 22.5222 6.11993 22.578 6.11993C22.7726 6.11993 22.9364 6.24479 22.9839 6.41415C22.9352 6.43275 22.882 6.44299 22.8262 6.44299C22.6316 6.44299 22.4678 6.31814 22.4203 6.14877ZM22.172 6.61685C22.2206 6.59833 22.2737 6.58813 22.3293 6.58813C22.524 6.58813 22.6878 6.71307 22.7353 6.88252C22.6867 6.90104 22.6336 6.91124 22.578 6.91124C22.3832 6.91124 22.2194 6.7863 22.172 6.61685ZM22.3293 7.37944C22.2289 7.37944 22.1367 7.34621 22.0644 7.29079C22.0699 7.29058 22.0755 7.29048 22.081 7.29048C22.1814 7.29048 22.2736 7.32371 22.3459 7.37914C22.3404 7.37934 22.3349 7.37944 22.3293 7.37944ZM22.3292 7.05637C22.3718 7.05637 22.4062 7.02388 22.4062 6.9838C22.4062 6.94372 22.3718 6.91122 22.3292 6.91122C22.2867 6.91122 22.2522 6.94372 22.2522 6.9838C22.2522 7.02388 22.2867 7.05637 22.3292 7.05637ZM22.5779 6.58813C22.6204 6.58813 22.6549 6.55564 22.6549 6.51555C22.6549 6.47547 22.6204 6.44298 22.5779 6.44298C22.5353 6.44298 22.5009 6.47547 22.5009 6.51555C22.5009 6.55564 22.5353 6.58813 22.5779 6.58813ZM22.8262 6.11993C22.8687 6.11993 22.9032 6.08743 22.9032 6.04735C22.9032 6.00727 22.8687 5.97478 22.8262 5.97478C22.7836 5.97478 22.7491 6.00727 22.7491 6.04735C22.7491 6.08743 22.7836 6.11993 22.8262 6.11993ZM22.3292 5.65168C22.3718 5.65168 22.4062 5.61919 22.4062 5.57911C22.4062 5.53902 22.3718 5.50653 22.3292 5.50653C22.2867 5.50653 22.2522 5.53902 22.2522 5.57911C22.2522 5.61919 22.2867 5.65168 22.3292 5.65168ZM21.8326 5.26895C21.8752 5.26895 21.9097 5.23645 21.9097 5.19637C21.9097 5.15629 21.8752 5.12379 21.8326 5.12379C21.7901 5.12379 21.7556 5.15629 21.7556 5.19637C21.7556 5.23645 21.7901 5.26895 21.8326 5.26895ZM21.3357 4.94933C21.3782 4.94933 21.4127 4.91684 21.4127 4.87676C21.4127 4.83668 21.3782 4.80418 21.3357 4.80418C21.2931 4.80418 21.2587 4.83668 21.2587 4.87676C21.2587 4.91684 21.2931 4.94933 21.3357 4.94933ZM20.749 4.71899C20.7916 4.71899 20.826 4.68649 20.826 4.64641C20.826 4.60633 20.7916 4.57384 20.749 4.57384C20.7065 4.57384 20.672 4.60633 20.672 4.64641C20.672 4.68649 20.7065 4.71899 20.749 4.71899ZM19.3479 4.29698C19.3904 4.29698 19.4249 4.26448 19.4249 4.2244C19.4249 4.18432 19.3904 4.15182 19.3479 4.15182C19.3054 4.15182 19.2709 4.18432 19.2709 4.2244C19.2709 4.26448 19.3054 4.29698 19.3479 4.29698ZM18.6027 4.01289C18.6452 4.01289 18.6797 3.98039 18.6797 3.94031C18.6797 3.90023 18.6452 3.86774 18.6027 3.86774C18.5601 3.86774 18.5256 3.90023 18.5256 3.94031C18.5256 3.98039 18.5601 4.01289 18.6027 4.01289ZM17.983 3.92202C18.0256 3.92202 18.06 3.88953 18.06 3.84945C18.06 3.80936 18.0256 3.77687 17.983 3.77687C17.9405 3.77687 17.906 3.80936 17.906 3.84945C17.906 3.88953 17.9405 3.92202 17.983 3.92202ZM17.3605 3.77879C17.403 3.77879 17.4375 3.74629 17.4375 3.70621C17.4375 3.66613 17.403 3.63364 17.3605 3.63364C17.3179 3.63364 17.2834 3.66613 17.2834 3.70621C17.2834 3.74629 17.3179 3.77879 17.3605 3.77879ZM20.0935 5.41758C20.136 5.41758 20.1705 5.38509 20.1705 5.34501C20.1705 5.30492 20.136 5.27243 20.0935 5.27243C20.051 5.27243 20.0165 5.30492 20.0165 5.34501C20.0165 5.38509 20.051 5.41758 20.0935 5.41758ZM19.8448 6.11993C19.8874 6.11993 19.9219 6.08743 19.9219 6.04735C19.9219 6.00727 19.8874 5.97478 19.8448 5.97478C19.8023 5.97478 19.7678 6.00727 19.7678 6.04735C19.7678 6.08743 19.8023 6.11993 19.8448 6.11993ZM19.5965 6.58813C19.6391 6.58813 19.6736 6.55564 19.6736 6.51555C19.6736 6.47547 19.6391 6.44298 19.5965 6.44298C19.554 6.44298 19.5195 6.47547 19.5195 6.51555C19.5195 6.55564 19.554 6.58813 19.5965 6.58813ZM19.3479 7.05637C19.3904 7.05637 19.4249 7.02388 19.4249 6.9838C19.4249 6.94372 19.3904 6.91122 19.3479 6.91122C19.3054 6.91122 19.2709 6.94372 19.2709 6.9838C19.2709 7.02388 19.3054 7.05637 19.3479 7.05637Z"
      fill="white" />
    <path fill-rule="evenodd" clip-rule="evenodd"
      d="M15.3312 1.38206L14.6746 1.40118L14.661 2.4251L13.4495 2.44091L13.455 3.06233L14.6528 3.04669L14.6374 4.21365L15.294 4.19453L15.3093 3.03812L16.5015 3.02256L16.496 2.40115L15.3175 2.41653L15.3312 1.38206Z"
      fill="#F6C540" />
    <path fill-rule="evenodd" clip-rule="evenodd"
      d="M6.05981 12.009H23.8884V26.2785C23.8884 26.2785 23.3492 33.3864 14.9741 33.3864C6.59896 33.3864 6.05981 26.2785 6.05981 26.2785V12.009Z"
      fill="#C51918" />
    <path fill-rule="evenodd" clip-rule="evenodd"
      d="M11.4405 12.5027C11.277 12.5027 11.0254 12.6133 10.6918 12.7386C10.3582 12.8639 10.0079 13.1344 10.3498 13.4053C10.6918 13.6763 11.1813 14.2709 11.1813 14.0486C11.1813 13.8262 11.7661 13.6107 11.7661 13.7185C11.7661 13.8262 11.5851 14.0486 12.06 14.0486C12.5349 14.0486 12.7796 14.1808 12.2728 14.1808C11.7661 14.1808 11.7111 14.3992 11.3817 14.3992C11.0524 14.3992 10.3498 14.1791 10.3498 14.0486C10.3498 13.918 10.7567 14.6905 11.1813 14.6905C11.6059 14.6905 11.8471 15.0664 12.06 14.8784C12.2728 14.6905 12.2476 14.6905 12.5915 14.6905C12.9354 14.6905 12.8099 13.9315 12.8099 13.9315C12.8099 13.9315 11.604 12.5027 11.4405 12.5027Z"
      fill="#E8AA00" />
    <path fill-rule="evenodd" clip-rule="evenodd"
      d="M18.3207 12.5027C18.4842 12.5027 18.7358 12.6133 19.0694 12.7386C19.403 12.8639 19.7533 13.1344 19.4114 13.4053C19.0694 13.6763 18.5799 14.2709 18.5799 14.0486C18.5799 13.8262 17.9951 13.6107 17.9951 13.7185C17.9951 13.8262 18.1762 14.0486 17.7013 14.0486C17.2263 14.0486 16.9817 14.1808 17.4884 14.1808C17.9951 14.1808 18.0502 14.3992 18.3795 14.3992C18.7088 14.3992 19.4114 14.1791 19.4114 14.0486C19.4114 13.918 19.0045 14.6905 18.5799 14.6905C18.1553 14.6905 17.9141 15.0664 17.7013 14.8784C17.4884 14.6905 17.5136 14.6905 17.1697 14.6905C16.8258 14.6905 16.9513 13.9315 16.9513 13.9315C16.9513 13.9315 18.1572 12.5027 18.3207 12.5027Z"
      fill="#E8AA00" />
    <path fill-rule="evenodd" clip-rule="evenodd"
      d="M9.00134 14.0541C8.65958 14.8051 11.2789 17.595 11.2789 17.595H11.5722C11.6954 17.595 11.9246 17.3092 12.2014 16.9642C12.3911 16.7277 12.6031 16.4634 12.8187 16.2442C13.2242 15.8317 13.0093 15.4852 12.8089 15.1622C12.7474 15.063 12.6872 14.9659 12.6468 14.8699C12.5594 14.6619 12.5469 14.5789 12.5327 14.4841C12.519 14.3927 12.5036 14.2902 12.4177 14.0541C12.2915 13.707 11.8514 13.2592 11.5462 12.9487C11.4284 12.8288 11.3306 12.7294 11.2789 12.6641C11.1155 12.4582 11.2394 12.4594 11.5805 12.4627C11.6273 12.4631 11.6782 12.4636 11.733 12.4636C12.1871 12.4636 13.0545 12.6641 13.3138 12.8984C13.5731 13.1326 13.845 13.1826 14.2445 13.1826C14.644 13.1826 14.3976 13.4361 14.0338 13.6073C14.4255 13.6779 14.6031 14.2932 14.6836 14.8396C14.8312 14.2932 15.0823 13.6779 15.474 13.6073C15.1102 13.4361 14.8638 13.1826 15.2633 13.1826C15.6628 13.1826 15.9347 13.1326 16.194 12.8984C16.4533 12.6641 17.3207 12.4636 17.7748 12.4636C17.8296 12.4636 17.8805 12.4631 17.9273 12.4627C18.2684 12.4594 18.3923 12.4582 18.2289 12.6641C18.1772 12.7294 18.0795 12.8288 17.9616 12.9487C17.6565 13.2592 17.2163 13.707 17.0901 14.0541C17.0042 14.2902 16.9888 14.3927 16.9751 14.4841C16.9609 14.5789 16.9485 14.6619 16.861 14.8699C16.8206 14.9659 16.7604 15.063 16.6989 15.1622C16.4985 15.4852 16.2836 15.8317 16.6891 16.2442C16.9047 16.4634 17.1167 16.7277 17.3064 16.9642C17.5832 17.3092 17.8124 17.595 17.9357 17.595H18.2289C18.2289 17.595 20.8482 14.8051 20.5065 14.0541C20.3744 13.7638 20.1613 13.4902 19.985 13.2639C19.7051 12.9046 19.5178 12.6641 19.8937 12.6641C20.5065 12.6641 22.9491 14.1236 22.9491 17.4145C22.9491 20.7054 22.7235 22.5771 22.1997 23.8884C21.8423 24.7832 22.1697 25.6522 22.4137 26.2998C22.5272 26.6012 22.6227 26.8547 22.6227 27.0405C22.6227 27.6256 21.661 27.1129 21.661 26.7465C21.661 26.5723 21.5293 26.8318 21.3912 27.1039C21.2389 27.404 21.0788 27.7195 21.0788 27.4859C21.0788 27.2367 20.9255 26.9735 20.7904 26.7416C20.6841 26.559 20.589 26.3959 20.589 26.2743C20.589 26.1527 20.4541 26.1572 20.3031 26.1622C20.1114 26.1686 19.8937 26.1759 19.8937 25.9267C19.8937 25.7585 19.8245 25.7249 19.7383 25.6831C19.5961 25.6142 19.4077 25.5229 19.4077 24.7688C19.4077 24.21 19.289 24.408 19.1528 24.6351C19.0274 24.8441 18.8873 25.0778 18.8113 24.7688C18.8039 24.7387 18.7252 24.6092 18.628 24.449C18.4864 24.2159 18.3055 23.9179 18.2476 23.7674C18.241 23.7432 18.2348 23.719 18.2289 23.6948C18.2289 23.7114 18.2356 23.7363 18.2476 23.7674C18.426 24.4256 18.8541 25.1115 19.1259 25.4382C19.4077 25.777 19.8937 26.5124 19.8937 26.5124C19.8937 26.5124 19.4405 26.7506 19.1259 26.5124C18.9502 26.3794 18.9383 26.5046 18.9254 26.641C18.9152 26.7488 18.9043 26.8637 18.8113 26.8637C18.7529 26.8637 18.698 26.8727 18.649 26.8807C18.6128 26.8866 18.5799 26.892 18.5513 26.8928C18.4945 26.7565 18.4346 26.6644 18.4346 26.7465C18.4346 26.8677 18.4791 26.8948 18.5513 26.8928C18.6563 27.1448 18.7505 27.5479 18.4346 27.2786C18.2089 27.0863 18.0507 27.0082 17.9459 26.9565C17.8246 26.8967 17.7748 26.8721 17.7748 26.7465C17.7748 26.6212 17.7256 26.6637 17.6483 26.7302C17.5813 26.7879 17.4933 26.8637 17.3982 26.8637C17.2757 26.8637 17.2502 26.7029 17.2131 26.469C17.1882 26.3123 17.1581 26.1227 17.0901 25.9267C17.0743 25.881 17.0594 25.8371 17.0453 25.7955C16.9085 25.392 16.8447 25.2038 16.6891 25.7128C16.6164 25.9507 16.4881 26.1191 16.3763 26.2657C16.2241 26.4653 16.1027 26.6245 16.194 26.8637C16.2297 26.9573 16.2745 27.0631 16.3225 27.1764C16.4872 27.5651 16.6891 28.0418 16.6891 28.4172C16.6891 28.6404 16.9047 28.9445 17.1073 29.2304C17.3448 29.5655 17.5645 29.8754 17.3982 30.0002C17.0901 30.2316 17.463 31.0107 17.7748 31.4103C17.7748 32.578 14.509 32.7273 14.509 32.7273V32.7171C14.5028 32.7239 14.4965 32.7273 14.49 32.7273C14.0338 32.7273 11.4211 31.81 11.733 31.4103C12.0449 31.0107 12.4177 30.2316 12.1096 30.0002C11.9433 29.8754 12.163 29.5655 12.4005 29.2304C12.6031 28.9445 12.8187 28.6404 12.8187 28.4172C12.8187 28.0418 13.0206 27.5651 13.1853 27.1764C13.2333 27.0631 13.2781 26.9573 13.3138 26.8637C13.4051 26.6245 13.2837 26.4653 13.1316 26.2657C13.0198 26.1191 12.8914 25.9507 12.8187 25.7128C12.6632 25.2038 12.5994 25.392 12.4625 25.7955C12.4484 25.8371 12.4336 25.881 12.4177 25.9267C12.3497 26.1227 12.3196 26.3123 12.2947 26.469C12.2576 26.7029 12.2321 26.8637 12.1096 26.8637C12.0145 26.8637 11.9265 26.7879 11.8595 26.7302C11.7823 26.6637 11.733 26.6212 11.733 26.7465C11.733 26.8721 11.6832 26.8967 11.5619 26.9565C11.4571 27.0082 11.2989 27.0863 11.0733 27.2786C10.7573 27.5479 10.8515 27.1448 10.9565 26.8928C11.0287 26.8948 11.0733 26.8677 11.0733 26.7465C11.0733 26.6644 11.0133 26.7565 10.9565 26.8928C10.9279 26.892 10.895 26.8866 10.8588 26.8807C10.8098 26.8727 10.7549 26.8637 10.6965 26.8637C10.6035 26.8637 10.5926 26.7488 10.5824 26.641C10.5695 26.5046 10.5576 26.3794 10.3819 26.5124C10.0673 26.7506 9.61409 26.5124 9.61409 26.5124C9.61409 26.5124 10.1001 25.777 10.3819 25.4382C10.6537 25.1115 11.0818 24.4256 11.2602 23.7674C11.2722 23.7363 11.2789 23.7114 11.2789 23.6948C11.273 23.719 11.2668 23.7432 11.2602 23.7674C11.2023 23.9179 11.0214 24.2159 10.8798 24.449C10.7826 24.6092 10.7039 24.7387 10.6965 24.7688C10.6205 25.0778 10.4804 24.8441 10.355 24.6351C10.2188 24.408 10.1001 24.21 10.1001 24.7688C10.1001 25.5229 9.91174 25.6142 9.76956 25.6831C9.68334 25.7249 9.61409 25.7585 9.61409 25.9267C9.61409 26.1759 9.39643 26.1686 9.20467 26.1622C9.05371 26.1572 8.9188 26.1527 8.9188 26.2743C8.9188 26.3959 8.82376 26.559 8.71742 26.7416C8.58234 26.9735 8.42902 27.2367 8.42902 27.4859C8.42902 27.7195 8.26892 27.404 8.11663 27.1039C7.97852 26.8318 7.84683 26.5723 7.84683 26.7465C7.84683 27.1129 6.88511 27.6256 6.88511 27.0405C6.88511 26.8547 6.98059 26.6012 7.09414 26.2998C7.33812 25.6522 7.6655 24.7832 7.30809 23.8884C6.78434 22.5771 6.55872 20.7054 6.55872 17.4145C6.55872 14.1236 9.00134 12.6641 9.61409 12.6641C9.98999 12.6641 9.80269 12.9046 9.52283 13.2639C9.34651 13.4902 9.13344 13.7638 9.00134 14.0541Z"
      fill="#F7FCFF" />
    <path fill-rule="evenodd" clip-rule="evenodd"
      d="M11.6523 17.8247H18.2961V22.7728C18.2961 22.7728 17.5829 25.2375 14.9742 25.2375C12.3656 25.2375 11.6523 22.7728 11.6523 22.7728V17.8247Z"
      fill="#C51918" />
    <path fill-rule="evenodd" clip-rule="evenodd"
      d="M15.87 17.7529H14.1309V20.5935H11.6465V21.608H14.1309V25.2602H15.87V21.608H18.3546V20.5935H15.87V17.7529Z"
      fill="#F7FCFF" />
    <path fill-rule="evenodd" clip-rule="evenodd"
      d="M10.3109 28.9904C11.1183 28.0615 11.8751 27.2354 11.2018 26.6501C10.5285 26.0648 9.72464 26.5722 8.91716 27.5011C8.10968 28.43 7.60434 29.4287 8.27766 30.014C8.95098 30.5993 9.50337 29.9193 10.3109 28.9904Z"
      fill="#E8AA00" />
    <path fill-rule="evenodd" clip-rule="evenodd"
      d="M19.1041 28.9904C18.2966 28.0615 17.5398 27.2354 18.2131 26.6501C18.8864 26.0648 19.6903 26.5722 20.4978 27.5011C21.3052 28.43 21.8106 29.4287 21.1373 30.014C20.4639 30.5993 19.9115 29.9193 19.1041 28.9904Z"
      fill="#E8AA00" />
  </g>
</svg>
