<svg width="48" height="30" fill="none" xmlns="http://www.w3.org/2000/svg">
  <path
    d="M44.6815 0.777832H2.97266C1.82183 0.777832 0.888885 1.71077 0.888885 2.86161V26.7118C0.888885 27.8626 1.82183 28.7956 2.97266 28.7956H44.6815C45.8323 28.7956 46.7653 27.8626 46.7653 26.7118V2.86161C46.7653 1.71077 45.8323 0.777832 44.6815 0.777832Z"
    fill="white" stroke="#EAEAEA" />
  <path fill-rule="evenodd" clip-rule="evenodd"
    d="M2.51071 12.3079C3.65598 12.3086 4.8012 12.3093 5.94641 12.3101C5.94499 12.359 5.94239 12.408 5.94239 12.4571C5.94188 14.3036 5.94165 16.1501 5.94137 17.9968C4.79785 17.9961 3.65428 17.9954 2.51071 17.9946V12.3079Z"
    fill="#BDD0EC" />
  <path fill-rule="evenodd" clip-rule="evenodd"
    d="M11.0754 12.3116C11.1146 12.3105 11.1539 12.3085 11.1932 12.3085C15.1132 12.3083 19.0332 12.3088 22.9532 12.3059C23.0629 12.3059 23.0931 12.3301 23.0929 12.4409C23.089 14.2512 23.0894 16.0615 23.0921 17.8718C23.0922 17.9647 23.0724 17.9949 22.9708 17.9948C19.0365 17.9907 15.1022 17.9898 11.1679 17.9881C11.136 17.9881 11.104 17.9841 11.0721 17.982C11.0725 16.7744 11.0728 15.5668 11.0733 14.3592C11.0737 13.6767 11.0747 12.9942 11.0754 12.3116Z"
    fill="#015FB1" />
  <path fill-rule="evenodd" clip-rule="evenodd"
    d="M11.0754 12.3119C11.0747 12.996 11.0737 13.6801 11.0733 14.3641C11.0728 15.5745 11.0725 16.7848 11.0721 17.9952C10.4188 17.9963 9.7654 17.9983 9.11203 17.9982C8.05517 17.998 6.99826 17.9965 5.94141 17.9955C5.94163 16.1493 5.94186 14.3032 5.94237 12.457C5.94237 12.408 5.94498 12.3591 5.94639 12.3102C7.6454 12.3098 9.3444 12.3095 11.0434 12.3093C11.0541 12.3093 11.0647 12.311 11.0754 12.3119Z"
    fill="#6C9AD3" />
  <path fill-rule="evenodd" clip-rule="evenodd"
    d="M29.5535 15.2161C29.5535 16.132 29.5547 17.0479 29.5517 17.9638C29.5514 18.0544 29.566 18.0886 29.6689 18.0884C31.031 18.0843 32.393 18.0845 33.755 18.0882C33.853 18.0885 33.8697 18.0583 33.8686 17.9691C33.8638 17.5837 33.8624 17.1981 33.8692 16.8127C33.871 16.7075 33.8392 16.6856 33.7393 16.6862C32.9419 16.6904 32.1444 16.6874 31.347 16.6901C31.2673 16.6904 31.2365 16.6746 31.2395 16.587C31.2464 16.3821 31.2458 16.1768 31.2397 15.9718C31.2372 15.8856 31.2585 15.8583 31.3493 15.8587C32.0797 15.8626 32.8101 15.859 33.5405 15.8632C33.6378 15.8637 33.6737 15.8466 33.6712 15.7387C33.6635 15.3923 33.6641 15.0456 33.671 14.6991C33.673 14.5982 33.6403 14.5794 33.5474 14.5799C32.81 14.5836 32.0725 14.5809 31.335 14.5835C31.2622 14.5838 31.238 14.5664 31.2399 14.4906C31.2452 14.2856 31.2462 14.0802 31.2397 13.8753C31.2368 13.7827 31.2569 13.7511 31.3581 13.7517C32.1379 13.7566 32.9178 13.7531 33.6976 13.7562C33.7798 13.7566 33.8046 13.7366 33.8037 13.6517C33.7991 13.2556 33.7987 12.8595 33.8038 12.4635C33.805 12.3727 33.7766 12.3541 33.6912 12.3542C32.3503 12.3569 31.0094 12.3571 29.6685 12.3541C29.5784 12.3538 29.5505 12.3712 29.551 12.4683C29.5553 13.3842 29.5535 14.3002 29.5535 15.2161ZM34.1055 14.3563H34.1251C34.1251 14.9573 34.1257 15.5583 34.1247 16.1593C34.1245 16.2944 34.1421 16.4267 34.1703 16.5584C34.3325 17.318 34.7701 17.8355 35.5193 18.0565C36.2622 18.2755 37.0184 18.2761 37.7669 18.0942C38.7428 17.8568 39.2589 17.149 39.2912 16.1375C39.3306 14.9076 39.306 13.6769 39.3122 12.4467C39.3126 12.3691 39.2864 12.3542 39.2155 12.3547C38.7217 12.3575 38.2278 12.3595 37.7339 12.3533C37.6343 12.3521 37.6203 12.385 37.6207 12.4729C37.6234 13.0456 37.6223 13.6184 37.6191 14.1912C37.6156 14.831 37.6276 15.471 37.5997 16.1106C37.5831 16.4915 37.3456 16.7779 36.9855 16.844C36.8499 16.8689 36.7114 16.8618 36.5738 16.8554C36.1893 16.8377 35.9339 16.6296 35.8406 16.2552C35.8019 16.0995 35.8054 15.9393 35.8047 15.7807C35.7994 14.6741 35.7961 13.5675 35.7954 12.4609C35.7953 12.3795 35.7769 12.3533 35.6911 12.354C35.1972 12.3583 34.7033 12.3579 34.2095 12.3544C34.1288 12.3537 34.1029 12.3716 34.1034 12.4577C34.1074 13.0906 34.1055 13.7234 34.1055 14.3563Z"
    fill="#FEFDFD" />
  <path fill-rule="evenodd" clip-rule="evenodd"
    d="M41.3199 14.2293C41.3199 14.3956 41.3246 14.562 41.3179 14.7279C41.3145 14.8112 41.3444 14.8277 41.4204 14.8259C41.6885 14.8193 41.9569 14.8129 42.2248 14.8192C42.4068 14.8234 42.5648 14.7637 42.7115 14.6701C42.9432 14.5222 42.9989 14.299 42.9575 14.0411C42.9213 13.8159 42.7567 13.7324 42.5612 13.6845C42.5305 13.677 42.4992 13.6709 42.4678 13.6676C42.1091 13.6303 41.7485 13.6556 41.3892 13.635C41.3295 13.6316 41.3185 13.6577 41.3191 13.7095C41.3211 13.8827 41.3199 14.056 41.3199 14.2293ZM44.6494 18.0841C44.1133 18.0846 43.5771 18.0839 43.041 18.0872C42.9717 18.0877 42.9525 18.0682 42.9532 17.999C42.9574 17.6031 42.9387 17.2077 42.9158 16.8124C42.8892 16.353 42.6206 16.079 42.1608 16.0463C41.9108 16.0285 41.6603 16.0304 41.4102 16.0227C41.3323 16.0202 41.3184 16.0477 41.3183 16.1184C41.3169 16.7335 41.3102 17.3485 41.31 17.9635C41.31 18.0518 41.2947 18.0848 41.1963 18.0837C40.7132 18.0784 40.23 18.0802 39.7467 18.0836C39.6613 18.0842 39.6256 18.0704 39.6247 17.9697C39.6064 16.1281 39.6185 14.2864 39.6127 12.4447C39.6125 12.3659 39.6408 12.3536 39.7102 12.354C40.8423 12.3627 41.9746 12.3574 43.1064 12.3811C43.5973 12.3914 44.0349 12.572 44.3645 12.9615C44.4446 13.0562 44.5091 13.1634 44.5554 13.2786C44.5882 13.3604 44.6078 13.4446 44.6259 13.5306C44.638 13.5883 44.6494 13.6408 44.6494 13.6999C44.6494 13.9508 44.6603 14.1952 44.6002 14.4414C44.5908 14.4799 44.5801 14.5182 44.5681 14.5561C44.545 14.6286 44.5169 14.6997 44.483 14.7679C44.4177 14.899 44.3306 15.0187 44.2234 15.1184C44.108 15.2257 43.9716 15.308 43.8261 15.3675C43.7936 15.3808 43.75 15.381 43.7334 15.4247C43.8761 15.4471 44.0081 15.4954 44.1309 15.5654C44.293 15.6578 44.4273 15.7949 44.496 15.9706C44.5889 16.2082 44.5772 16.4691 44.6011 16.7189C44.6286 17.0065 44.6493 17.2897 44.6494 17.5784C44.6494 17.6139 44.6494 18.0841 44.6494 18.0841Z"
    fill="#E84A23" />
  <path fill-rule="evenodd" clip-rule="evenodd"
    d="M27.1373 12.1742C27.316 12.1934 27.4912 12.2269 27.6716 12.2722C28.1157 12.3836 28.512 12.5798 28.8029 12.949C29.0432 13.2541 29.1448 13.609 29.1718 13.9908C29.1768 14.06 29.151 14.0723 29.0885 14.0721C28.5664 14.0698 28.0442 14.0709 27.522 14.0706C27.4813 14.0706 27.4353 14.0826 27.4338 14.0138C27.4274 13.7022 27.1959 13.5513 26.9026 13.4861C26.7006 13.4411 26.495 13.456 26.294 13.5036C26.1545 13.5367 26.0487 13.6138 26.0227 13.7663C25.9958 13.9242 26.0474 14.0516 26.1806 14.1431C26.3747 14.2765 26.6013 14.3197 26.8242 14.3701C27.3288 14.4842 27.8411 14.5673 28.3274 14.7535C28.4924 14.8167 28.6501 14.8943 28.7966 14.9942C29.1952 15.2663 29.4006 15.6459 29.4217 16.1264C29.4607 17.0123 29.0614 17.6638 28.2359 17.9844C27.2782 18.3564 26.3008 18.3884 25.3339 18.0177C24.7367 17.7888 24.3139 17.3727 24.1443 16.7335C24.1042 16.5826 24.0922 16.4274 24.0705 16.2736C24.0589 16.1914 24.0867 16.1595 24.1693 16.1597C24.3845 16.1605 24.5997 16.1555 24.8149 16.1549C25.1324 16.1538 25.45 16.158 25.7675 16.1522C25.8503 16.1508 25.8787 16.1785 25.8823 16.2556C25.8851 16.3153 25.897 16.3746 25.9048 16.4341C25.9376 16.6824 26.0777 16.8364 26.3161 16.9036C26.6042 16.9847 26.8946 16.9901 27.1826 16.9111C27.4341 16.842 27.5557 16.6825 27.5625 16.4513C27.5674 16.2844 27.4905 16.1753 27.343 16.112C27.0604 15.9907 26.7611 15.9214 26.4672 15.8358C25.9976 15.699 25.5191 15.5883 25.0768 15.3705C24.6694 15.1698 24.3682 14.8694 24.2888 14.4093C24.1541 13.6288 24.4492 12.9107 25.1832 12.5039C25.6792 12.229 26.2349 12.155 26.7932 12.1555C26.9107 12.1556 27.0247 12.1621 27.1373 12.1742Z"
    fill="#E84A23" />
  <path fill-rule="evenodd" clip-rule="evenodd"
    d="M34.1056 14.3563C34.1056 13.7234 34.1074 13.0906 34.1034 12.4578C34.1028 12.3716 34.1288 12.3538 34.2095 12.3544C34.7033 12.3579 35.1973 12.3584 35.6911 12.3541C35.7769 12.3533 35.7953 12.3795 35.7953 12.461C35.7961 13.5675 35.7994 14.6742 35.8047 15.7807C35.8054 15.9393 35.8018 16.0994 35.8407 16.2553C35.9339 16.6296 36.1893 16.8378 36.5738 16.8555C36.7113 16.8618 36.8499 16.8689 36.9855 16.844C37.3456 16.7779 37.5831 16.4915 37.5997 16.1107C37.6276 15.4711 37.6156 14.831 37.6191 14.1912C37.6223 13.6185 37.6234 13.0457 37.6207 12.473C37.6203 12.385 37.6343 12.3521 37.734 12.3533C38.2277 12.3596 38.7217 12.3575 39.2156 12.3548C39.2864 12.3543 39.3126 12.3692 39.3122 12.4467C39.306 13.677 39.3306 14.9077 39.2913 16.1374C39.2589 17.149 38.7428 17.8568 37.7668 18.0942C37.0184 18.2762 36.2622 18.2756 35.5194 18.0565C34.7701 17.8356 34.3326 17.318 34.1703 16.5585C34.1422 16.4267 34.1245 16.2944 34.1247 16.1593C34.1257 15.5584 34.1056 14.9573 34.1056 14.3563C34.1121 14.3563 34.099 14.3563 34.1056 14.3563Z"
    fill="#E84A23" />
  <path fill-rule="evenodd" clip-rule="evenodd"
    d="M29.5535 15.216C29.5535 14.3001 29.5553 13.3841 29.551 12.4682C29.5505 12.3711 29.5784 12.3538 29.6685 12.354C31.0094 12.357 32.3503 12.3568 33.6912 12.3542C33.7766 12.354 33.805 12.3726 33.8038 12.4634C33.7987 12.8594 33.7991 13.2556 33.8037 13.6516C33.8046 13.7365 33.7798 13.7565 33.6976 13.7562C32.9178 13.753 32.1379 13.7565 31.3581 13.7517C31.2569 13.751 31.2368 13.7827 31.2397 13.8753C31.2462 14.0801 31.2452 14.2855 31.2399 14.4905C31.238 14.5663 31.2622 14.5838 31.335 14.5835C32.0725 14.5809 32.81 14.5835 33.5474 14.5798C33.6403 14.5794 33.673 14.5981 33.671 14.6991C33.6641 15.0455 33.6635 15.3923 33.6712 15.7386C33.6737 15.8466 33.6378 15.8636 33.5405 15.8631C32.8101 15.8589 32.0797 15.8626 31.3493 15.8587C31.2585 15.8582 31.2372 15.8855 31.2397 15.9718C31.2458 16.1767 31.2464 16.382 31.2395 16.587C31.2365 16.6745 31.2673 16.6903 31.347 16.6901C32.1444 16.6873 32.9419 16.6903 33.7393 16.6861C33.8392 16.6856 33.871 16.7074 33.8692 16.8126C33.8624 17.198 33.8637 17.5836 33.8686 17.969C33.8697 18.0582 33.853 18.0884 33.755 18.0881C32.393 18.0844 31.031 18.0843 29.6689 18.0883C29.566 18.0886 29.5514 18.0543 29.5517 17.9638C29.5547 17.0479 29.5535 16.1319 29.5535 15.216Z"
    fill="#E84A23" />
  <path fill-rule="evenodd" clip-rule="evenodd"
    d="M41.3199 14.2292C41.3199 14.0559 41.3211 13.8825 41.3191 13.7093C41.3185 13.6576 41.3295 13.6315 41.3892 13.6348C41.7485 13.6554 42.1091 13.6302 42.4678 13.6675C42.4992 13.6708 42.5305 13.6768 42.5612 13.6843C42.7567 13.7322 42.9213 13.8157 42.9575 14.041C42.9989 14.2989 42.9432 14.522 42.7115 14.6699C42.5648 14.7636 42.4068 14.8232 42.2248 14.819C41.9569 14.8128 41.6885 14.8192 41.4204 14.8257C41.3444 14.8276 41.3145 14.8111 41.3179 14.7278C41.3246 14.5618 41.3199 14.3954 41.3199 14.2292Z"
    fill="#FEFDFD" />
</svg>
