<svg width="48" height="30" fill="none" xmlns="http://www.w3.org/2000/svg">
  <path
    d="M44.6815 0.777832H2.97269C1.82186 0.777832 0.888916 1.71077 0.888916 2.86161V26.7118C0.888916 27.8626 1.82186 28.7956 2.97269 28.7956H44.6815C45.8324 28.7956 46.7653 27.8626 46.7653 26.7118V2.86161C46.7653 1.71077 45.8324 0.777832 44.6815 0.777832Z"
    fill="white" stroke="#EAEAEA" />
  <path fill-rule="evenodd" clip-rule="evenodd"
    d="M8.99805 15.9587C10.6632 15.9599 12.3284 15.9609 13.9935 15.962C13.9915 16.0347 13.9877 16.1075 13.9877 16.1801C13.987 18.9218 13.9866 21.6634 13.9862 24.4052L8.99805 24.4021V15.9587Z"
    fill="#BDD0EC" />
  <path fill-rule="evenodd" clip-rule="evenodd"
    d="M21.1302 15.9601C26.9921 15.9599 32.8538 15.9606 38.7157 15.9563C38.8798 15.9562 38.9249 15.9921 38.9245 16.1567C38.9187 18.8456 38.9193 21.5344 38.9234 24.2234C38.9236 24.3614 38.8939 24.4061 38.7419 24.4061C32.8588 24.4 26.9756 24.3986 21.0925 24.3962C21.0447 24.3962 20.9969 24.3903 20.9492 24.3871C20.9497 22.5935 20.9501 20.7997 20.951 19.006C20.9516 17.9923 20.953 16.9785 20.9541 15.9647C21.0127 15.9632 21.0715 15.9601 21.1302 15.9601Z"
    fill="#015FB1" />
  <path fill-rule="evenodd" clip-rule="evenodd"
    d="M21.69 15.9648C21.6889 16.9807 21.6875 17.9966 21.6869 19.0125C21.6859 20.81 21.6855 22.6074 21.6851 24.4048C20.7047 24.4064 19.7242 24.4095 18.7439 24.4094C17.158 24.4091 15.5721 24.4068 13.9863 24.4054C13.9866 21.6636 13.987 18.922 13.9877 16.1803C13.9877 16.1077 13.9916 16.0349 13.9937 15.9622C16.5432 15.9618 19.0926 15.9612 21.642 15.9609C21.6579 15.9609 21.6739 15.9635 21.69 15.9648Z"
    fill="#6C9AD3" />
  <path fill-rule="evenodd" clip-rule="evenodd"
    d="M16.9741 10.1781C16.9741 11.5099 16.9757 12.8416 16.9714 14.1734C16.971 14.3051 16.9921 14.3549 17.1418 14.3544C19.1222 14.3487 21.1027 14.3489 23.0831 14.3542C23.2256 14.3546 23.2498 14.3108 23.2481 14.181C23.2412 13.6206 23.2392 13.06 23.249 12.4997C23.2517 12.3467 23.2054 12.3149 23.0601 12.3156C21.9007 12.3217 20.7412 12.3175 19.5817 12.3214C19.466 12.3218 19.4211 12.2987 19.4254 12.1715C19.4354 11.8736 19.4347 11.575 19.4258 11.2769C19.4221 11.1517 19.4531 11.1119 19.5851 11.1125C20.647 11.1183 21.7091 11.113 22.7711 11.119C22.9126 11.1198 22.9647 11.0949 22.9612 10.9381C22.9499 10.4344 22.9509 9.9302 22.9609 9.42646C22.9638 9.27974 22.9163 9.25254 22.7812 9.25313C21.7089 9.25854 20.6366 9.25469 19.5643 9.25847C19.4585 9.25891 19.4232 9.23356 19.426 9.12324C19.4336 8.82515 19.4352 8.52661 19.4257 8.22866C19.4214 8.0941 19.4507 8.04806 19.5979 8.04895C20.7318 8.056 21.8657 8.05103 22.9995 8.05548C23.119 8.056 23.1552 8.02694 23.1538 7.90343C23.1471 7.32769 23.1465 6.75166 23.154 6.17586C23.1557 6.0439 23.1144 6.01683 22.9902 6.01706C21.0406 6.02099 19.0909 6.02114 17.1412 6.01683C17.0102 6.01654 16.9696 6.04167 16.9703 6.18283C16.9766 7.51459 16.9741 8.84635 16.9741 10.1781ZM23.5927 8.92805H23.6212C23.6212 9.80188 23.622 10.6758 23.6206 11.5496C23.6203 11.7461 23.6459 11.9384 23.6868 12.1299C23.9227 13.2343 24.5589 13.9869 25.6484 14.3081C26.7284 14.6267 27.828 14.6275 28.9162 14.3628C30.3353 14.0177 31.0857 12.9886 31.1327 11.5178C31.1899 9.72974 31.1541 7.94027 31.163 6.15147C31.1636 6.03863 31.1256 6.01706 31.0226 6.01765C30.3046 6.02173 29.5864 6.0247 28.8684 6.01567C28.7235 6.01387 28.7031 6.06176 28.7037 6.18957C28.7077 7.02241 28.706 7.85516 28.7014 8.68792C28.6963 9.61824 28.7138 10.5489 28.6732 11.4788C28.6491 12.0327 28.3037 12.4491 27.7802 12.5452C27.583 12.5813 27.3815 12.571 27.1814 12.5617C26.6224 12.536 26.2511 12.2334 26.1155 11.6891C26.0591 11.4626 26.0643 11.2297 26.0632 10.9992C26.0556 9.39013 26.0508 7.78118 26.0496 6.17215C26.0496 6.05368 26.0228 6.01567 25.8981 6.01669C25.1801 6.02306 24.4619 6.0224 23.7438 6.01721C23.6265 6.01632 23.5888 6.04219 23.5896 6.16748C23.5954 7.08764 23.5927 8.00788 23.5927 8.92805Z"
    fill="#FEFDFD" />
  <path fill-rule="evenodd" clip-rule="evenodd"
    d="M34.0824 8.74351C34.0824 8.98519 34.0893 9.22716 34.0795 9.4684C34.0746 9.58954 34.1179 9.61356 34.2286 9.61089C34.6183 9.60132 35.0086 9.59198 35.3982 9.60103C35.6627 9.60718 35.8925 9.52052 36.1058 9.38433C36.4426 9.16934 36.5236 8.84478 36.4634 8.46988C36.4108 8.14235 36.1715 8.02099 35.8872 7.9513C35.8426 7.9404 35.7972 7.93151 35.7514 7.92676C35.2299 7.8725 34.7055 7.90927 34.1831 7.87932C34.0963 7.87435 34.0804 7.91238 34.0812 7.98763C34.0842 8.23954 34.0824 8.49152 34.0824 8.74351ZM38.9234 14.3484C38.1439 14.3491 37.3644 14.3481 36.585 14.3529C36.4841 14.3535 36.4562 14.3252 36.4572 14.2247C36.4633 13.6489 36.4361 13.0741 36.4029 12.4993C36.3642 11.8312 35.9737 11.4328 35.305 11.3854C34.9415 11.3595 34.5773 11.3623 34.2135 11.3511C34.1004 11.3475 34.0803 11.3874 34.08 11.4902C34.078 12.3845 34.0683 13.2788 34.068 14.173C34.068 14.3015 34.0458 14.3494 33.9027 14.3478C33.2003 14.34 32.4976 14.3427 31.7951 14.3477C31.6708 14.3485 31.619 14.3284 31.6176 14.182C31.5909 11.5042 31.6086 8.82646 31.6001 6.14871C31.5997 6.03409 31.6409 6.01608 31.7419 6.01687C33.3879 6.02942 35.0343 6.02171 36.6799 6.05619C37.3937 6.07116 38.0299 6.33382 38.5093 6.90007C38.6258 7.03766 38.7196 7.19371 38.7868 7.36119C38.8345 7.48017 38.8629 7.60235 38.8893 7.72764C38.907 7.81141 38.9234 7.88777 38.9234 7.97376C38.9234 8.33851 38.9394 8.69384 38.852 9.05184C38.8382 9.10788 38.8228 9.16356 38.8053 9.21849C38.7718 9.32413 38.7308 9.42748 38.6815 9.52667C38.5867 9.71727 38.46 9.89127 38.3041 10.0362C38.1364 10.1923 37.938 10.312 37.7265 10.3983C37.6792 10.4176 37.6158 10.4181 37.5916 10.4815C37.7991 10.5142 37.991 10.5844 38.1696 10.6861C38.4053 10.8206 38.6006 11.0198 38.7005 11.2753C38.8356 11.6209 38.8186 12 38.8533 12.3633C38.8933 12.7814 38.9234 13.1933 38.9235 13.6131C38.9235 13.6647 38.9234 14.3484 38.9234 14.3484Z"
    fill="#E84A23" />
  <path fill-rule="evenodd" clip-rule="evenodd"
    d="M13.4609 5.75534C13.7207 5.78329 13.9753 5.832 14.2377 5.89783C14.8834 6.05974 15.4597 6.34501 15.8826 6.88197C16.232 7.32552 16.3797 7.84157 16.4191 8.39685C16.4262 8.49737 16.3888 8.51531 16.298 8.51494C15.5387 8.51168 14.7794 8.51316 14.0202 8.51279C13.9611 8.51279 13.8941 8.53014 13.8921 8.43013C13.8826 7.97717 13.5459 7.75773 13.1196 7.66283C12.8258 7.59752 12.5269 7.61924 12.2347 7.68841C12.0318 7.73645 11.8781 7.84854 11.8402 8.07035C11.8011 8.29988 11.8761 8.48507 12.0697 8.61821C12.3521 8.81215 12.6814 8.87494 13.0055 8.94819C13.7392 9.1141 14.4842 9.23502 15.1912 9.50568C15.4312 9.59746 15.6604 9.71037 15.8734 9.85568C16.4529 10.2513 16.7516 10.8033 16.7823 11.5019C16.839 12.7901 16.2584 13.7372 15.0583 14.2034C13.6658 14.7443 12.2445 14.7908 10.8387 14.2518C9.97025 13.9189 9.35554 13.3139 9.10892 12.3846C9.0507 12.1652 9.03332 11.9395 9.00173 11.7159C8.98479 11.5964 9.02518 11.55 9.14531 11.5504C9.45829 11.5514 9.77112 11.5442 10.084 11.5432C10.5458 11.5418 11.0075 11.5478 11.4691 11.5394C11.5896 11.5373 11.6309 11.5777 11.6361 11.6896C11.6402 11.7765 11.6573 11.8627 11.6687 11.9492C11.7164 12.3104 11.9202 12.5342 12.2668 12.6319C12.6857 12.75 13.1079 12.7577 13.5267 12.6427C13.8923 12.5424 14.0693 12.3106 14.0791 11.9743C14.0861 11.7316 13.9744 11.5731 13.7599 11.4809C13.3489 11.3046 12.9138 11.2038 12.4865 11.0793C11.8037 10.8804 11.108 10.7196 10.4648 10.4027C9.87246 10.1111 9.43462 9.67419 9.31915 9.0052C9.12312 7.87034 9.55231 6.82622 10.6196 6.23477C11.3407 5.83504 12.1487 5.72747 12.9604 5.72828C13.1314 5.72843 13.2971 5.73777 13.4609 5.75534Z"
    fill="#E84A23" />
  <path fill-rule="evenodd" clip-rule="evenodd"
    d="M23.5927 8.92805C23.5927 8.00788 23.5954 7.08772 23.5896 6.16755C23.5888 6.04219 23.6265 6.01639 23.7438 6.01721C24.4618 6.02247 25.18 6.02306 25.8981 6.01669C26.0229 6.01567 26.0496 6.05376 26.0497 6.17215C26.0508 7.78118 26.0556 9.39013 26.0632 10.9992C26.0643 11.2297 26.0591 11.4626 26.1155 11.6891C26.2512 12.2334 26.6224 12.536 27.1815 12.5618C27.3815 12.571 27.583 12.5813 27.7802 12.5452C28.3038 12.4491 28.6491 12.0327 28.6732 11.4788C28.7138 10.5489 28.6963 9.61832 28.7015 8.688C28.706 7.85516 28.7076 7.02241 28.7038 6.18965C28.7031 6.06176 28.7235 6.01387 28.8684 6.01567C29.5864 6.0247 30.3046 6.02173 31.0226 6.01765C31.1256 6.01706 31.1637 6.03863 31.1631 6.15147C31.1542 7.94035 31.1899 9.72974 31.1328 11.5179C31.0857 12.9886 30.3353 14.0177 28.9162 14.3629C27.828 14.6275 26.7285 14.6267 25.6484 14.3081C24.559 13.9869 23.9227 13.2343 23.6868 12.1299C23.6459 11.9384 23.6203 11.7461 23.6206 11.5496C23.622 10.6758 23.5927 9.80188 23.5927 8.92805C23.6022 8.92805 23.5832 8.92805 23.5927 8.92805Z"
    fill="#E84A23" />
  <path fill-rule="evenodd" clip-rule="evenodd"
    d="M16.9741 10.1781C16.9741 8.84636 16.9766 7.5146 16.9703 6.18284C16.9696 6.04169 17.0102 6.01655 17.1412 6.01685C19.0909 6.02115 21.0406 6.021 22.9902 6.01707C23.1144 6.01685 23.1557 6.04391 23.154 6.17587C23.1465 6.75168 23.1471 7.32771 23.1538 7.90344C23.1552 8.02695 23.119 8.05601 22.9995 8.05549C21.8657 8.05104 20.7318 8.05601 19.5979 8.04897C19.4507 8.04808 19.4214 8.09412 19.4257 8.22867C19.4352 8.52662 19.4336 8.82516 19.426 9.12326C19.4232 9.23357 19.4585 9.25892 19.5643 9.25848C20.6366 9.2547 21.7089 9.25855 22.7812 9.25314C22.9163 9.25255 22.9638 9.27976 22.9609 9.42647C22.9509 9.93022 22.9499 10.4344 22.9612 10.9381C22.9647 11.095 22.9126 11.1198 22.7711 11.119C21.7091 11.113 20.647 11.1183 19.5851 11.1125C19.4531 11.1119 19.4221 11.1517 19.4258 11.277C19.4347 11.575 19.4354 11.8736 19.4254 12.1715C19.4211 12.2988 19.466 12.3218 19.5817 12.3214C20.7412 12.3175 21.9007 12.3217 23.0601 12.3157C23.2054 12.3149 23.2517 12.3467 23.249 12.4997C23.2392 13.0601 23.2412 13.6207 23.2481 14.181C23.2498 14.3108 23.2256 14.3546 23.0831 14.3542C21.1027 14.3489 19.1222 14.3487 17.1418 14.3545C16.9921 14.3549 16.971 14.3051 16.9714 14.1734C16.9757 12.8416 16.9741 11.5099 16.9741 10.1781Z"
    fill="#E84A23" />
  <path fill-rule="evenodd" clip-rule="evenodd"
    d="M34.0824 8.74353C34.0824 8.49155 34.0841 8.23956 34.0812 7.98765C34.0804 7.9124 34.0963 7.87437 34.1831 7.87934C34.7054 7.90929 35.2298 7.87252 35.7514 7.92678C35.7971 7.93153 35.8426 7.94043 35.8871 7.95132C36.1714 8.02101 36.4108 8.14237 36.4634 8.4699C36.5236 8.8448 36.4426 9.16936 36.1058 9.38435C35.8925 9.52054 35.6626 9.6072 35.3982 9.60105C35.0086 9.59201 34.6183 9.60135 34.2286 9.61091C34.1179 9.61358 34.0745 9.58956 34.0795 9.46842C34.0893 9.22719 34.0824 8.98521 34.0824 8.74353Z"
    fill="#FEFDFD" />
</svg>
