<svg width="48" height="36" fill="none" xmlns="http://www.w3.org/2000/svg">
  <path fill-rule="evenodd" clip-rule="evenodd" d="M0 0V36H48V0H0Z" fill="#2E42A5" />
  <mask id="mask0_123_5666" style="mask-type:luminance" maskUnits="userSpaceOnUse" x="0" y="0"
    width="48" height="36">
    <path fill-rule="evenodd" clip-rule="evenodd" d="M0 0V36H48V0H0Z" fill="white" />
  </mask>
  <g mask="url(#mask0_123_5666)">
    <path fill-rule="evenodd" clip-rule="evenodd" d="M0 0V12H48V0H0Z" fill="#F7FCFF" />
    <path fill-rule="evenodd" clip-rule="evenodd" d="M0 24V36H48V24H0Z" fill="#C51918" />
    <path fill-rule="evenodd" clip-rule="evenodd"
      d="M20.6103 7.55438C20.6103 7.55438 17.4532 6.06348 13.5265 6.06348C9.59983 6.06348 6.44272 7.55438 6.44272 7.55438C6.44272 7.55438 6.79406 13.5465 7.34936 16.7208C7.58646 18.0761 8.72606 20.0528 9.75776 20.9885C10.9337 22.0549 13.5265 23.3183 13.5265 23.3183C14.2768 22.8013 15.6797 22.5688 17.4729 20.9885C19.266 19.4081 19.7117 16.7208 19.7117 16.7208L20.6103 7.55438Z"
      fill="#2E42A5" />
    <path
      d="M20.193 7.3584L21.5078 8.01498L20.6052 17.0489C20.2891 18.9609 19.4981 20.4687 18.2332 21.5835C17.547 22.1882 16.8772 22.6401 16.1591 23.0155C15.7538 23.2275 14.0583 24.1008 14.0731 24.0937C13.9032 24.1756 13.7744 24.2473 13.6697 24.3194L13.5057 24.4324L13.3287 24.3461C11.5725 23.4904 9.93408 22.3388 9.11986 21.6004C8.00839 20.5924 6.83646 18.5299 6.58661 17.1016C6.21304 14.9662 5.87803 12.0248 5.64291 8.01498L6.82401 7.39708C7.05736 11.3767 7.33903 14.5491 7.70586 16.646C7.92289 17.8866 9.00357 19.7886 9.98942 20.6826C10.718 21.3434 11.8918 22.076 13.5057 22.8729C13.602 22.8164 13.7087 22.7606 13.8307 22.7018C13.8342 22.7001 14.932 22.2126 15.3136 22.0131C15.9828 21.6632 16.6049 21.2436 17.2453 20.6791C18.3682 19.6895 19.069 18.3568 19.3524 16.6638L20.193 7.3584Z"
      fill="#C51918" />
    <path fill-rule="evenodd" clip-rule="evenodd"
      d="M8.31303 16.5362C8.31303 16.5362 8.59921 17.4117 9.12826 18.3949C9.90518 18.5998 10.3806 18.589 10.5308 18.4208C10.9655 17.9343 12.5121 17.7264 12.8006 18.142C12.9787 18.3984 13.6044 18.5757 14.2887 18.3411L14.2124 18.3547C14.3312 18.3114 14.6096 18.2011 14.7812 18.1331L14.7812 18.1331C14.8529 18.1046 14.906 18.0836 14.9209 18.078C15.1785 17.9808 15.3678 17.9298 15.5606 17.9154C15.8023 17.8975 16.0341 17.9425 16.2797 18.0594C16.8196 18.3165 17.4857 18.4363 17.9393 18.3584C18.4938 17.3927 18.8892 16.5362 18.8892 16.5362L16.2562 14.0093L15.2098 15.1449L13.471 12.666L12.0153 15.1449L10.8991 14.0093L8.31303 16.5362ZM9.8352 19.5217C9.71364 19.3578 9.59877 19.1884 9.4908 19.0175C10.1647 19.1404 10.6223 19.0758 10.8768 18.7909C10.9971 18.6563 11.3538 18.5258 11.7597 18.4712C11.949 18.4458 12.1305 18.4394 12.2697 18.4527C12.3336 18.4588 12.3851 18.4688 12.4198 18.4808C12.431 18.4847 12.4306 18.4842 12.419 18.4675L12.4169 18.4645C12.7272 18.9083 13.5699 19.1461 14.365 18.8571L14.2887 18.8706C14.5037 18.8044 14.891 18.6522 15.0302 18.5974L15.0787 18.5785C15.2994 18.4952 15.4515 18.4542 15.5934 18.4436C15.7571 18.4315 15.9115 18.4614 16.0866 18.5448C16.5647 18.7725 17.1204 18.9079 17.6102 18.9114C17.5058 19.0803 17.398 19.2482 17.288 19.4114C16.9073 19.4998 16.3182 19.3836 15.8429 19.1241C15.6208 19.0028 15.4087 18.9556 15.1876 18.9745C15.0127 18.9894 14.8431 19.0418 14.614 19.1409C14.6007 19.1467 14.5537 19.1681 14.4903 19.1969C14.3405 19.265 14.0994 19.3745 13.9968 19.4173L14.0829 19.4C13.4883 19.6293 12.9677 19.4602 12.8191 19.2148C12.5539 18.7767 11.164 18.991 10.773 19.493C10.6687 19.6268 10.3541 19.6512 9.8352 19.5217ZM10.3527 20.135C10.382 20.1651 10.4116 20.1948 10.4414 20.2239C11.7962 21.5449 13.471 22.1924 13.471 22.1924C13.471 22.1924 15.4658 21.5888 16.598 20.3179C16.6946 20.2094 16.7914 20.092 16.8876 19.9678C16.4748 19.9474 16.0209 19.813 15.6269 19.5978C15.4821 19.5187 15.3574 19.491 15.2251 19.5023C15.1082 19.5122 14.98 19.5518 14.792 19.6332C14.7869 19.6354 14.7747 19.6409 14.7566 19.6491C14.6415 19.7009 14.2918 19.8584 14.0829 19.9294L14.1691 19.912C13.4683 20.2042 12.7242 19.9735 12.434 19.5359C12.4083 19.5258 12.3679 19.5169 12.3168 19.5113C12.2003 19.4985 12.0466 19.5047 11.8858 19.5294C11.5414 19.5825 11.2407 19.7087 11.1412 19.8364C10.974 20.051 10.7118 20.1458 10.3527 20.135Z"
      fill="white" />
    <path fill-rule="evenodd" clip-rule="evenodd"
      d="M10.7204 8.82919H9.66567L10.4837 8.06286L9.66567 7.25308H10.7204L11.1657 6.46704L11.6128 7.25308H12.6657L11.8886 8.01423L12.5786 8.82919H11.6128L11.1657 9.65868L10.7204 8.82919Z"
      fill="#FECA00" />
    <path fill-rule="evenodd" clip-rule="evenodd"
      d="M15.6909 8.82919H14.6362L15.4542 8.06286L14.6362 7.25308H15.6909L16.1362 6.46704L16.5833 7.25308H17.6362L16.8591 8.01423L17.5491 8.82919H16.5833L16.1362 9.65868L15.6909 8.82919Z"
      fill="#FECA00" />
    <path fill-rule="evenodd" clip-rule="evenodd"
      d="M12.9 11.3512H11.8454L12.6634 10.5848L11.8454 9.77505H12.9L13.3454 8.98901L13.7925 9.77505H14.8454L14.0682 10.5362L14.7583 11.3512H13.7925L13.3454 12.1807L12.9 11.3512Z"
      fill="#FECA00" />
  </g>
</svg>
