<svg width="50" height="46" fill="none" xmlns="http://www.w3.org/2000/svg">
  <path
    d="M25 43.5022C37.6179 43.5022 47.8467 35.5918 47.8467 25.8338C47.8467 16.0758 37.6179 8.16534 25 8.16534C12.3821 8.16534 2.15332 16.0758 2.15332 25.8338C2.15332 35.5918 12.3821 43.5022 25 43.5022Z"
    fill="#F4F4F4" />
  <path fill-rule="evenodd" clip-rule="evenodd"
    d="M25 10.1653C12.9782 10.1653 4.15332 17.628 4.15332 25.8338C4.15332 34.0395 12.9782 41.5022 25 41.5022C37.0219 41.5022 45.8467 34.0395 45.8467 25.8338C45.8467 17.628 37.0219 10.1653 25 10.1653ZM0.15332 25.8338C0.15332 14.5235 11.7861 6.16534 25 6.16534C38.2139 6.16534 49.8467 14.5235 49.8467 25.8338C49.8467 37.144 38.2139 45.5022 25 45.5022C11.7861 45.5022 0.15332 37.144 0.15332 25.8338Z"
    fill="#2D69AA" />
  <path
    d="M16.8233 24.4959C18.18 24.4959 19.2798 23.3961 19.2798 22.0394C19.2798 20.6827 18.18 19.5829 16.8233 19.5829C15.4666 19.5829 14.3668 20.6827 14.3668 22.0394C14.3668 23.3961 15.4666 24.4959 16.8233 24.4959Z"
    fill="#2D69AA" />
  <path
    d="M32.9463 24.4959C34.303 24.4959 35.4028 23.3961 35.4028 22.0394C35.4028 20.6827 34.303 19.5829 32.9463 19.5829C31.5896 19.5829 30.4897 20.6827 30.4897 22.0394C30.4897 23.3961 31.5896 24.4959 32.9463 24.4959Z"
    fill="#2D69AA" />
  <path fill-rule="evenodd" clip-rule="evenodd"
    d="M16.4722 29.6973C16.4722 28.5927 17.3677 27.6973 18.4722 27.6973H31.5275C32.6321 27.6973 33.5275 28.5927 33.5275 29.6973C33.5275 31.7866 32.3071 33.4686 30.7585 34.5445C29.2027 35.6253 27.161 36.2297 24.9999 36.2297C22.8387 36.2297 20.797 35.6253 19.2412 34.5445C17.6926 33.4686 16.4722 31.7866 16.4722 29.6973ZM22.3131 31.6973C23.0472 32.0205 23.9659 32.2297 24.9999 32.2297C26.0339 32.2297 26.9525 32.0205 27.6866 31.6973H22.3131Z"
    fill="#2D69AA" />
  <path
    d="M22.9817 11.21C22.9817 11.21 26.6031 16.2153 26.5685 17.8414C26.5339 19.4676 26.6146 12.3864 26.0841 11.2561C25.8996 10.864 32.4964 13.4012 32.7962 13.4589C33.0961 13.5166 29.2556 10.2989 29.2556 10.2989H35.6218L32.2427 8.47669L35.4603 7.00048C35.4603 7.00048 29.9015 6.59683 29.3018 7.08121C28.702 7.56559 34.4108 4.17492 37.8131 3.77126C39.7275 3.54061 34.2148 2.65257 30.3282 4.19798C26.4416 5.75493 26.2109 6.85055 26.2109 6.85055C26.2109 6.85055 27.3296 3.87506 28.1831 2.56031C29.0365 1.24556 29.9591 0 29.9591 0C29.9591 0 27.4911 1.08409 25.888 3.77126C24.5387 6.02018 24.3311 6.78136 24.3311 6.78136C24.3311 6.78136 23.5122 4.5901 22.2782 3.32148C21.2518 2.24892 18.6915 0.0691975 18.6915 0.0691975C18.6915 0.0691975 20.7789 3.16002 21.1711 4.01345C21.5632 4.86689 22.3013 6.82749 22.3013 6.82749C22.3013 6.82749 19.6026 5.02835 17.123 4.24411C16.0966 3.92119 15.2085 3.679 13.7439 3.56367C11.9563 3.42528 10.48 3.56367 10.48 3.56367C10.48 3.56367 16.3042 5.00529 17.4575 5.69726C18.6107 6.38924 19.3719 7.04661 19.3719 7.04661L13.2133 7.01201L16.4541 8.49976L19.591 9.46852L15.6007 13.6204L22.9702 11.1985L22.9817 11.21Z"
    fill="#2D69AA" />
  <path
    d="M25 43.5021C37.6179 43.5021 47.8467 35.5917 47.8467 25.8337C47.8467 16.0757 37.6179 8.16528 25 8.16528C12.3821 8.16528 2.15332 16.0757 2.15332 25.8337C2.15332 35.5917 12.3821 43.5021 25 43.5021Z"
    fill="#F4F4F4" />
  <path fill-rule="evenodd" clip-rule="evenodd"
    d="M25 8.91528C12.6056 8.91528 2.90332 16.6578 2.90332 25.8337C2.90332 35.0096 12.6056 42.7521 25 42.7521C37.3944 42.7521 47.0967 35.0096 47.0967 25.8337C47.0967 16.6578 37.3944 8.91528 25 8.91528ZM1.40332 25.8337C1.40332 15.4936 12.1586 7.41528 25 7.41528C37.8414 7.41528 48.5967 15.4936 48.5967 25.8337C48.5967 36.1738 37.8414 44.2521 25 44.2521C12.1586 44.2521 1.40332 36.1738 1.40332 25.8337Z"
    fill="#2D69AA" />
  <path fill-rule="evenodd" clip-rule="evenodd"
    d="M17.7224 29.7203C17.7224 29.3061 18.0581 28.9703 18.4724 28.9703H31.5276C31.9418 28.9703 32.2776 29.3061 32.2776 29.7203C32.2776 33.9308 29.0668 37.4132 25 37.4132C20.9324 37.4132 17.7224 33.9185 17.7224 29.7203ZM19.264 30.4703C19.611 33.5669 22.0796 35.9132 25 35.9132C27.9217 35.9132 30.3901 33.5751 30.7362 30.4703H19.264Z"
    fill="#2D69AA" />
  <path
    d="M22.9817 11.21C22.9817 11.21 26.6031 16.2153 26.5685 17.8414C26.5339 19.4676 26.6146 12.3864 26.0841 11.2561C25.8996 10.864 32.4964 13.4012 32.7962 13.4589C33.0961 13.5166 29.2556 10.2989 29.2556 10.2989H35.6218L32.2427 8.47669L35.4603 7.00048C35.4603 7.00048 29.9015 6.59683 29.3018 7.08121C28.7021 7.56559 34.4108 4.17492 37.8131 3.77126C39.7275 3.54061 34.2148 2.65257 30.3282 4.19798C26.4416 5.75493 26.2109 6.85055 26.2109 6.85055C26.2109 6.85055 27.3296 3.87506 28.1831 2.56031C29.0365 1.24555 29.9591 0 29.9591 0C29.9591 0 27.4911 1.08409 25.888 3.77126C24.5387 6.02018 24.3311 6.78136 24.3311 6.78136C24.3311 6.78136 23.5122 4.5901 22.2782 3.32148C21.2518 2.24892 18.6915 0.0691975 18.6915 0.0691975C18.6915 0.0691975 20.7789 3.16002 21.1711 4.01345C21.5632 4.86689 22.3013 6.82749 22.3013 6.82749C22.3013 6.82749 19.6026 5.02835 17.123 4.24411C16.0966 3.92119 15.2085 3.679 13.7439 3.56367C11.9563 3.42528 10.48 3.56367 10.48 3.56367C10.48 3.56367 16.3042 5.00529 17.4575 5.69726C18.6107 6.38924 19.3719 7.04661 19.3719 7.04661L13.2133 7.01201L16.4541 8.49976L19.591 9.46852L15.6007 13.6204L22.9702 11.1985L22.9817 11.21Z"
    fill="#2D69AA" />
  <path
    d="M19.0029 24.5305C20.3596 24.5305 21.4594 23.4307 21.4594 22.074C21.4594 20.7173 20.3596 19.6175 19.0029 19.6175C17.6462 19.6175 16.5464 20.7173 16.5464 22.074C16.5464 23.4307 17.6462 24.5305 19.0029 24.5305Z"
    fill="#2D69AA" />
  <path
    d="M31.666 24.5305C33.0227 24.5305 34.1226 23.4307 34.1226 22.074C34.1226 20.7173 33.0227 19.6175 31.666 19.6175C30.3094 19.6175 29.2095 20.7173 29.2095 22.074C29.2095 23.4307 30.3094 24.5305 31.666 24.5305Z"
    fill="#2D69AA" />
  <path fill-rule="evenodd" clip-rule="evenodd"
    d="M40.7103 39.2235L36.3966 34.8125C35.8779 34.2752 35.5953 33.5653 35.5988 32.8116C35.6062 31.2523 36.8537 29.9897 38.3796 29.9972C38.3882 29.9972 38.3969 29.9972 38.4055 29.9972C39.6343 30.0032 40.3576 30.8937 40.7449 31.6258C41.1375 30.8973 41.8688 30.0142 43.1056 30.0202C43.1144 30.0203 43.1229 30.0205 43.1318 30.0205C44.6539 30.028 45.8894 31.3027 45.882 32.862C45.8784 33.6157 45.5891 34.3228 45.0672 34.8532L45.0394 34.8804L40.7103 39.2235Z"
    fill="#FF4444" />
  <path fill-rule="evenodd" clip-rule="evenodd"
    d="M39.5221 17.3109L33.2912 11.2458C32.542 10.507 32.1339 9.53089 32.1389 8.49454C32.1496 6.35053 33.9516 4.61454 36.1557 4.62474C36.1681 4.62474 36.1807 4.62474 36.193 4.62474C37.968 4.63311 39.0128 5.85752 39.5722 6.86415C40.1392 5.86242 41.1956 4.64814 42.9821 4.65646C42.9947 4.65657 43.0071 4.6568 43.0199 4.6568C45.2185 4.66716 47.0031 6.4199 46.9924 8.56391C46.9872 9.60027 46.5693 10.5725 45.8154 11.3019L45.7754 11.3392L39.5221 17.3109Z"
    fill="#FF4444" />
  <path fill-rule="evenodd" clip-rule="evenodd"
    d="M6.12893 19.6175L2.77383 16.3093C2.37042 15.9063 2.15065 15.3739 2.15334 14.8086C2.15913 13.6391 3.1294 12.6922 4.31621 12.6978C4.32292 12.6978 4.32969 12.6978 4.33634 12.6978C5.29212 12.7023 5.85467 13.3702 6.15589 13.9193C6.46121 13.3729 7.03003 12.7105 7.99202 12.7151C7.99879 12.7151 8.00543 12.7153 8.01233 12.7153C9.19623 12.7209 10.1571 13.677 10.1514 14.8464C10.1486 15.4117 9.92357 15.942 9.51763 16.3398L9.49605 16.3602L6.12893 19.6175Z"
    fill="#FF4444" />
</svg>
