<svg width="562" height="149" fill="none" xmlns="http://www.w3.org/2000/svg">
  <path fill-rule="evenodd" clip-rule="evenodd"
    d="M171.005 80.6933L184.861 79.3921C185.433 81.0359 186.231 82.2135 187.262 82.9205C188.291 83.6308 189.663 83.9832 191.377 83.9832C193.252 83.9832 194.704 83.5838 195.734 82.7837C196.534 82.1905 196.934 81.4474 196.935 80.5565C196.935 79.5518 196.408 78.7759 195.356 78.2265C194.602 77.839 192.601 77.3586 189.355 76.7884C184.507 75.9424 181.133 75.1653 179.236 74.4583C177.36 73.7272 175.771 72.5058 174.469 70.7908C173.188 69.078 172.547 67.1244 172.547 64.9312C172.547 62.5333 173.245 60.4669 174.64 58.7301C176.034 56.9943 177.955 55.7039 180.402 54.8579C182.849 53.9911 186.13 53.5566 190.245 53.5555C194.59 53.5555 197.79 53.8883 199.85 54.5493C201.929 55.2125 203.655 56.2402 205.029 57.6334C206.423 59.0278 207.577 60.9124 208.493 63.2873L195.253 64.5886C194.91 63.4241 194.337 62.5672 193.539 62.02C192.441 61.2889 191.114 60.9244 189.56 60.9233C187.982 60.9233 186.826 61.209 186.096 61.7792C185.387 62.3275 185.033 63.0017 185.033 63.8006C185.033 64.6915 185.49 65.3668 186.403 65.8232C187.318 66.2795 189.309 66.691 192.373 67.0566C197.014 67.5819 200.466 68.313 202.73 69.2488C204.994 70.1856 206.721 71.5219 207.911 73.2588C209.12 74.9946 209.727 76.9011 209.728 78.9805C209.728 81.0819 209.087 83.1263 207.808 85.1138C206.548 87.1013 204.549 88.6893 201.804 89.8768C199.083 91.0413 195.368 91.6236 190.657 91.6236C184.003 91.6236 179.259 90.6758 176.423 88.7802C173.61 86.8846 171.804 84.1901 171.005 80.6933Z"
    fill="#1A171B" />
  <path fill-rule="evenodd" clip-rule="evenodd"
    d="M213.573 54.3781H226.571V60.3056C228.516 57.8847 230.48 56.161 232.472 55.1322C234.46 54.0815 236.883 53.5573 239.742 53.5562C243.606 53.5562 246.624 54.7098 248.797 57.0168C250.992 59.302 252.09 62.8415 252.09 67.6384V90.7684H238.061V70.7565C238.061 68.4724 237.639 66.8625 236.792 65.9256C235.946 64.9658 234.758 64.4864 233.225 64.4864C231.533 64.4864 230.162 65.1267 229.11 66.405C228.058 67.6844 227.532 69.9805 227.532 73.2923V90.7684H213.573V54.3781Z"
    fill="#1A171B" />
  <path fill-rule="evenodd" clip-rule="evenodd"
    d="M269.894 72.6411C269.894 75.8861 270.546 78.2841 271.848 79.836C273.175 81.3901 274.831 82.1671 276.822 82.1671C278.833 82.1671 280.48 81.4032 281.761 79.8699C283.063 78.341 283.716 75.8861 283.716 72.5043C283.716 69.3523 283.063 67.0113 281.761 65.4802C280.459 63.9272 278.846 63.1512 276.925 63.1501C274.891 63.1501 273.208 63.9381 271.883 65.5141C270.557 67.0682 269.894 69.4442 269.894 72.6411ZM255.9 72.675C255.9 67.124 257.774 62.5569 261.524 58.9693C265.274 55.3609 270.338 53.5573 276.718 53.5562C284.013 53.5562 289.524 55.6696 293.251 59.8952C296.245 63.2989 297.744 67.4907 297.745 72.4704C297.745 78.0663 295.881 82.6575 292.153 86.245C288.45 89.8085 283.315 91.5892 276.753 91.5892C270.898 91.5892 266.166 90.1051 262.554 87.1359C258.117 83.4586 255.9 78.6387 255.9 72.675Z"
    fill="#1A171B" />
  <path fill-rule="evenodd" clip-rule="evenodd"
    d="M296.278 54.3782H309.792L315.656 77.3013L323.065 54.3782H335.652L343.335 77.3013L349.201 54.3782H362.612L349.201 90.7684H336.785L329.41 68.8719L322.276 90.7684H309.792L296.278 54.3782Z"
    fill="#1A171B" />
  <path fill-rule="evenodd" clip-rule="evenodd"
    d="M377.69 72.7266C377.69 75.813 378.265 78.0533 379.415 79.4498C380.587 80.8233 382.063 81.5095 383.844 81.5095C385.49 81.5095 386.866 80.8343 387.971 79.4837C389.098 78.1102 389.661 75.813 389.662 72.592C389.662 69.7541 389.109 67.6703 388.004 66.3417C386.922 65.0141 385.604 64.3498 384.047 64.3487C382.176 64.3487 380.641 65.0469 379.447 66.4434C378.275 67.8181 377.69 69.9117 377.69 72.7266ZM363.892 41.2395H377.791V58.4026C379.166 56.9612 380.722 55.8799 382.459 55.1586C384.217 54.4396 386.155 54.0784 388.275 54.0773C392.647 54.0773 396.266 55.6555 399.129 58.8075C401.993 61.9398 403.425 66.4434 403.425 72.3217C403.425 76.2409 402.771 79.6971 401.463 82.6926C400.155 85.6651 398.342 87.8956 396.018 89.383C393.721 90.8462 391.159 91.5784 388.343 91.5784C385.929 91.5784 383.72 91.0607 381.714 90.0243C380.203 89.2133 378.558 87.6931 376.776 85.4638V90.7674H363.892V41.2395Z"
    fill="#1A171B" />
  <path fill-rule="evenodd" clip-rule="evenodd"
    d="M419.356 72.8955C419.356 76.0956 419.998 78.4596 421.283 79.9897C422.59 81.523 424.224 82.288 426.187 82.288C428.171 82.288 429.794 81.5339 431.056 80.0247C432.342 78.5155 432.983 76.0956 432.983 72.7609C432.983 69.6527 432.342 67.3445 431.056 65.8352C429.772 64.3041 428.183 63.5391 426.288 63.5369C424.281 63.5369 422.624 64.3151 421.318 65.8692C420.01 67.4003 419.356 69.7435 419.356 72.8955ZM405.559 72.9294C405.559 67.4561 407.407 62.9525 411.106 59.4163C414.802 55.8583 419.793 54.0787 426.086 54.0776C433.277 54.0776 438.709 56.1615 442.385 60.328C445.338 63.6836 446.815 67.8173 446.816 72.7269C446.816 78.2462 444.978 82.7717 441.302 86.309C437.651 89.8211 432.59 91.5776 426.12 91.5776C420.347 91.5776 415.681 90.1155 412.119 87.1867C407.745 83.5608 405.559 78.8088 405.559 72.9294Z"
    fill="#1A171B" />
  <path fill-rule="evenodd" clip-rule="evenodd"
    d="M475.157 73.7399C473.264 74.4151 471.291 75.0138 469.24 75.5315C466.443 76.2735 464.674 77.0057 463.93 77.7269C463.163 78.47 462.779 79.3149 462.779 80.2605C462.779 81.3408 463.152 82.2327 463.896 82.9288C464.663 83.6052 465.778 83.9423 467.244 83.9423C468.776 83.9423 470.197 83.5712 471.505 82.8292C472.834 82.085 473.769 81.1854 474.312 80.1248C474.875 79.0446 475.156 77.6492 475.157 75.9364V73.7399ZM463.22 66.5111L450.065 65.1255C450.56 62.8283 451.27 61.0268 452.195 59.72C453.141 58.3925 454.496 57.2433 456.253 56.2736C457.514 55.5765 459.251 55.0358 461.46 54.6528C463.67 54.2697 466.058 54.0793 468.631 54.0782C472.756 54.0782 476.07 54.3146 478.572 54.7874C481.075 55.2383 483.16 56.1959 484.829 57.6592C486.001 58.6727 486.926 60.1151 487.602 61.9833C488.279 63.8308 488.617 65.5983 488.617 67.287V83.1324C488.617 84.8211 488.719 86.1508 488.92 87.1194C489.146 88.065 489.62 89.2809 490.342 90.7683H477.423C476.904 89.8446 476.565 89.1474 476.409 88.6735C476.25 88.1767 476.092 87.4116 475.936 86.3752C474.13 88.111 472.34 89.3488 470.558 90.0919C468.123 91.0824 465.293 91.5782 462.071 91.5782C457.786 91.5782 454.528 90.5888 452.296 88.6046C450.087 86.6225 448.981 84.1808 448.981 81.2751C448.981 78.5499 449.782 76.3096 451.385 74.5508C452.983 72.7943 455.937 71.4886 460.246 70.6327C465.408 69.5963 468.753 68.8762 470.289 68.4701C471.82 68.0422 473.444 67.4917 475.157 66.8142C475.157 65.1255 474.808 63.9435 474.109 63.2671C473.409 62.5919 472.182 62.2537 470.423 62.2537C468.167 62.2537 466.477 62.6148 465.351 63.335C464.471 63.8986 463.762 64.9569 463.22 66.5111Z"
    fill="#1A171B" />
  <path fill-rule="evenodd" clip-rule="evenodd"
    d="M494.233 54.889H507.117V60.7673C508.358 58.2227 509.631 56.4782 510.939 55.5304C512.27 54.5629 513.903 54.0792 515.843 54.0781C517.871 54.0781 520.092 54.7096 522.505 55.9704L518.243 65.7667C516.621 65.0914 515.336 64.7544 514.387 64.7544C512.584 64.7544 511.187 65.4964 510.195 66.9837C508.775 69.0774 508.064 72.9966 508.064 78.7391V90.7682H494.233V54.889Z"
    fill="#1A171B" />
  <path fill-rule="evenodd" clip-rule="evenodd"
    d="M547.81 72.7266C547.81 69.9117 547.213 67.8181 546.016 66.4434C544.822 65.0469 543.312 64.3498 541.487 64.3487C539.885 64.3487 538.544 65.0141 537.461 66.3417C536.379 67.6703 535.839 69.9008 535.839 73.0309C535.839 75.9596 536.389 78.1102 537.495 79.4837C538.621 80.8343 540.008 81.5095 541.655 81.5095C543.413 81.5095 544.878 80.8233 546.051 79.4498C547.222 78.0774 547.808 75.8359 547.81 72.7266ZM561.607 41.2395V90.7674H548.723V85.4638C546.919 87.7161 545.273 89.2374 543.785 90.0243C541.801 91.0607 539.591 91.5784 537.157 91.5784C532.265 91.5784 528.523 89.7201 525.929 86.0044C523.361 82.2877 522.076 77.772 522.076 72.4563C522.076 66.5102 523.495 61.9617 526.336 58.8075C529.198 55.6555 532.827 54.0784 537.226 54.0773C539.365 54.0773 541.306 54.4396 543.041 55.1586C544.8 55.8799 546.355 56.9612 547.708 58.4026V41.2395H561.607Z"
    fill="#1A171B" />
  <path fill-rule="evenodd" clip-rule="evenodd"
    d="M171.635 126.56L184.824 125.32C185.367 126.886 186.128 128.005 187.109 128.68C188.088 129.354 189.393 129.69 191.025 129.69C192.81 129.69 194.19 129.311 195.172 128.549C195.933 127.985 196.311 127.278 196.312 126.429C196.312 125.474 195.812 124.734 194.812 124.212C194.094 123.843 192.19 123.387 189.099 122.843C184.486 122.038 181.276 121.299 179.47 120.624C177.685 119.93 176.173 118.767 174.933 117.135C173.714 115.505 173.105 113.646 173.105 111.559C173.105 109.277 173.767 107.311 175.096 105.657C176.424 104.005 178.252 102.777 180.58 101.972C182.907 101.147 186.031 100.733 189.948 100.733C194.082 100.733 197.128 101.048 199.088 101.679C201.069 102.309 202.711 103.287 204.017 104.613C205.343 105.94 206.442 107.734 207.314 109.993L194.713 111.233C194.387 110.123 193.843 109.309 193.082 108.788C192.037 108.093 190.774 107.745 189.295 107.745C187.794 107.745 186.694 108.016 185.999 108.559C185.323 109.08 184.987 109.723 184.987 110.483C184.987 111.332 185.42 111.973 186.292 112.406C187.162 112.843 189.056 113.234 191.97 113.582C196.389 114.082 199.674 114.777 201.83 115.669C203.983 116.56 205.625 117.831 206.759 119.484C207.91 121.137 208.489 122.951 208.489 124.929C208.489 126.93 207.878 128.874 206.66 130.767C205.463 132.658 203.56 134.169 200.948 135.299C198.358 136.407 194.821 136.962 190.34 136.962C184.007 136.962 179.491 136.061 176.793 134.255C174.117 132.452 172.398 129.887 171.635 126.56Z"
    fill="#009FE3" />
  <path fill-rule="evenodd" clip-rule="evenodd"
    d="M237.999 122.614L250.632 124.05C249.936 126.679 248.792 128.962 247.204 130.896C245.617 132.809 243.581 134.3 241.101 135.364C238.641 136.429 235.508 136.961 231.7 136.962C228.021 136.962 224.954 136.626 222.495 135.952C220.057 135.257 217.958 134.148 216.195 132.624C214.433 131.082 213.05 129.278 212.049 127.211C211.048 125.146 210.548 122.409 210.548 118.994C210.548 115.43 211.157 112.463 212.375 110.092C213.268 108.354 214.486 106.8 216.032 105.429C217.576 104.038 219.164 103.006 220.798 102.33C223.386 101.265 226.705 100.734 230.754 100.734C236.41 100.734 240.718 101.745 243.679 103.765C246.659 105.788 248.75 108.745 249.946 112.636L237.445 114.298C237.053 112.822 236.334 111.712 235.29 110.972C234.268 110.212 232.886 109.832 231.145 109.831C228.946 109.831 227.163 110.625 225.791 112.212C224.442 113.777 223.769 116.158 223.769 119.353C223.769 122.201 224.442 124.365 225.791 125.842C227.141 127.321 228.858 128.061 230.949 128.061C232.689 128.061 234.146 127.614 235.323 126.722C236.519 125.832 237.411 124.462 237.999 122.614Z"
    fill="#009FE3" />
  <path fill-rule="evenodd" clip-rule="evenodd"
    d="M252.925 90.6674H266.211V105.951C268.017 104.081 269.813 102.745 271.596 101.939C273.381 101.135 275.492 100.733 277.928 100.733C281.542 100.733 284.381 101.832 286.449 104.026C288.537 106.223 289.582 109.592 289.582 114.135V136.147H276.231V117.103C276.231 114.929 275.828 113.397 275.024 112.505C274.219 111.592 273.086 111.135 271.63 111.135C270.019 111.135 268.713 111.745 267.713 112.961C266.71 114.178 266.211 116.365 266.211 119.516V136.147H252.925V90.6674Z"
    fill="#009FE3" />
  <path fill-rule="evenodd" clip-rule="evenodd"
    d="M330.03 136.147H317.626V130.538C315.775 132.842 313.905 134.483 312.012 135.463C310.142 136.441 307.834 136.929 305.091 136.929C301.437 136.929 298.564 135.843 296.474 133.669C294.407 131.473 293.375 128.102 293.375 123.559V101.515H306.726V120.56C306.726 122.734 307.126 124.276 307.932 125.189C308.736 126.103 309.868 126.559 311.327 126.559C312.915 126.559 314.209 125.952 315.211 124.734C316.233 123.517 316.744 121.332 316.745 118.179V101.515H330.03V136.147Z"
    fill="#009FE3" />
  <path fill-rule="evenodd" clip-rule="evenodd" d="M336.82 136.147H349.228V90.6669H336.82V136.147Z"
    fill="#009FE3" />
  <path fill-rule="evenodd" clip-rule="evenodd"
    d="M380.647 115.766C380.384 113.201 379.687 111.365 378.557 110.255C377.447 109.147 375.979 108.591 374.151 108.591C372.038 108.591 370.354 109.429 369.09 111.102C368.285 112.145 367.774 113.702 367.558 115.766H380.647ZM394.159 122.125H367.524C367.763 124.255 368.339 125.842 369.254 126.885C370.536 128.385 372.213 129.136 374.281 129.136C375.586 129.136 376.828 128.811 378.002 128.157C378.721 127.745 379.492 127.017 380.319 125.973L393.409 127.18C391.407 130.658 388.992 133.159 386.162 134.679C383.332 136.178 379.274 136.929 373.986 136.929C369.395 136.929 365.784 136.288 363.149 135.005C360.517 133.702 358.329 131.647 356.589 128.842C354.871 126.016 354.011 122.701 354.011 118.896C354.011 113.484 355.742 109.104 359.2 105.755C362.682 102.407 367.48 100.734 373.595 100.734C378.557 100.734 382.474 101.483 385.347 102.983C388.218 104.482 390.406 106.658 391.907 109.505C393.409 112.353 394.159 116.06 394.159 120.624V122.125Z"
    fill="#009FE3" />
  <path fill-rule="evenodd" clip-rule="evenodd"
    d="M178.809 42.459C178.809 43.4046 178.987 44.0908 179.337 44.5176C179.697 44.939 180.15 45.1491 180.695 45.1491C181.2 45.1491 181.619 44.9423 181.959 44.5286C182.303 44.1072 182.476 43.4046 182.476 42.4174C182.476 41.5473 182.307 40.9104 181.969 40.5032C181.638 40.0961 181.233 39.8925 180.758 39.8925C180.183 39.8925 179.714 40.107 179.348 40.5339C178.989 40.9552 178.809 41.5966 178.809 42.459ZM174.583 32.8148H178.841V38.0714C179.262 37.6292 179.739 37.2987 180.271 37.0776C180.81 36.8576 181.402 36.7471 182.052 36.7471C183.391 36.7471 184.499 37.2297 185.377 38.1961C186.253 39.1549 186.692 40.5339 186.692 42.3353C186.692 43.5348 186.492 44.5942 186.091 45.5114C185.69 46.422 185.135 47.1049 184.424 47.5602C183.719 48.0089 182.935 48.2322 182.073 48.2333C181.335 48.2333 180.658 48.0746 180.043 47.7572C179.58 47.5087 179.076 47.0425 178.53 46.3596V47.9848H174.583V32.8148Z"
    fill="#1A171B" />
  <path fill-rule="evenodd" clip-rule="evenodd"
    d="M188.433 47.9848H192.659V32.8147H188.433V47.9848Z" fill="#1A171B" />
  <path fill-rule="evenodd" clip-rule="evenodd"
    d="M206.731 47.9847H202.795V46.2051C202.208 46.9362 201.615 47.4571 201.012 47.7669C200.418 48.0777 199.688 48.2331 198.818 48.2331C197.656 48.2331 196.745 47.8883 196.082 47.1978C195.427 46.5017 195.098 45.4324 195.098 43.991V36.9943H199.335V43.0378C199.335 43.7284 199.463 44.2187 199.718 44.5076C199.975 44.7976 200.333 44.9421 200.796 44.9421C201.299 44.9421 201.71 44.7495 202.029 44.3631C202.352 43.9768 202.515 43.284 202.515 42.2837V36.9943H206.731V47.9847Z"
    fill="#1A171B" />
  <path fill-rule="evenodd" clip-rule="evenodd"
    d="M216.577 41.5174C216.493 40.7031 216.273 40.1209 215.914 39.7685C215.561 39.4171 215.095 39.2409 214.515 39.2409C213.845 39.2409 213.31 39.5069 212.909 40.0377C212.654 40.3693 212.492 40.8618 212.423 41.5174H216.577ZM220.865 43.5355H212.413C212.487 44.2108 212.67 44.7142 212.962 45.0459C213.368 45.5219 213.899 45.7594 214.557 45.7594C214.971 45.7594 215.364 45.6566 215.737 45.4497C215.965 45.3184 216.211 45.0875 216.474 44.7558L220.626 45.1389C219.992 46.2432 219.225 47.0356 218.328 47.5193C217.429 47.9943 216.142 48.2329 214.464 48.2329C213.008 48.2329 211.86 48.0293 211.024 47.6233C210.189 47.2085 209.494 46.5562 208.942 45.6675C208.397 44.7701 208.124 43.7183 208.124 42.5111C208.124 40.7929 208.674 39.4029 209.773 38.3402C210.876 37.2775 212.4 36.7478 214.339 36.7467C215.914 36.7467 217.156 36.9853 218.068 37.4603C218.979 37.9375 219.674 38.627 220.15 39.531C220.626 40.4339 220.865 41.6104 220.865 43.0595V43.5355Z"
    fill="#1A171B" />
  <path fill-rule="evenodd" clip-rule="evenodd"
    d="M221.994 44.0841H228.126V40.8238H221.994V44.0841Z" fill="#1A171B" />
  <path fill-rule="evenodd" clip-rule="evenodd"
    d="M234.951 32.7308V36.9948H237.272V40.0691H234.951V43.9697C234.951 44.4392 234.997 44.7489 235.086 44.901C235.225 45.1353 235.466 45.2524 235.812 45.2524C236.122 45.2524 236.557 45.1626 237.118 44.9842L237.427 47.8922C236.384 48.1198 235.41 48.2336 234.506 48.2336C233.457 48.2336 232.683 48.099 232.186 47.8298C231.687 47.5605 231.319 47.1534 231.077 46.6084C230.842 46.0568 230.725 45.167 230.725 43.939V40.0691H229.172V36.9948H230.725V32.7308H234.951Z"
    fill="#1A171B" />
  <path fill-rule="evenodd" clip-rule="evenodd"
    d="M242.989 42.5108C242.989 43.4903 243.186 44.2148 243.579 44.6832C243.98 45.1528 244.48 45.387 245.082 45.387C245.689 45.387 246.186 45.156 246.573 44.6942C246.966 44.2323 247.164 43.4903 247.164 42.4692C247.164 41.517 246.966 40.81 246.573 40.3481C246.179 39.8786 245.693 39.6444 245.113 39.6444C244.497 39.6444 243.99 39.883 243.59 40.358C243.189 40.8275 242.989 41.5455 242.989 42.5108ZM238.763 42.5206C238.763 40.845 239.33 39.4649 240.462 38.3825C241.594 37.2914 243.123 36.7474 245.051 36.7463C247.253 36.7463 248.916 37.3855 250.043 38.6605C250.948 39.6893 251.399 40.9556 251.4 42.4593C251.4 44.1492 250.838 45.5358 249.712 46.6182C248.592 47.6951 247.042 48.2336 245.06 48.2336C243.292 48.2336 241.863 47.7849 240.772 46.8874C239.433 45.7777 238.763 44.3221 238.763 42.5206Z"
    fill="#1A171B" />
  <path fill-rule="evenodd" clip-rule="evenodd"
    d="M253.46 36.9948H257.396V38.5992C257.963 37.9294 258.532 37.4544 259.106 37.171C259.687 36.8886 260.384 36.7474 261.198 36.7463C262.075 36.7463 262.77 36.9028 263.281 37.2126C263.791 37.5234 264.209 37.9852 264.533 38.5992C265.196 37.8824 265.8 37.3953 266.346 37.1403C266.891 36.8788 267.565 36.7474 268.366 36.7463C269.548 36.7463 270.468 37.0987 271.132 37.8025C271.794 38.4996 272.126 39.593 272.126 41.0825V47.9852H267.9V41.7239C267.9 41.227 267.803 40.8582 267.61 40.6174C267.326 40.2376 266.974 40.0483 266.554 40.0483C266.056 40.0483 265.655 40.2278 265.351 40.5856C265.047 40.9446 264.895 41.5203 264.895 42.3138V47.9852H260.671V41.9307C260.671 41.4481 260.642 41.1208 260.587 40.9479C260.497 40.6721 260.341 40.451 260.121 40.2858C259.9 40.1139 259.641 40.0275 259.344 40.0275C258.861 40.0275 258.465 40.2102 258.153 40.5758C257.842 40.9413 257.688 41.5411 257.688 42.3762V47.9852H253.46V36.9948Z"
    fill="#1A171B" />
  <path fill-rule="evenodd" clip-rule="evenodd"
    d="M282.142 42.7695C281.563 42.9763 280.957 43.1591 280.331 43.3178C279.472 43.5454 278.931 43.7698 278.703 43.9909C278.467 44.2185 278.351 44.4768 278.351 44.7668C278.351 45.0974 278.465 45.3699 278.694 45.5844C278.927 45.7912 279.269 45.8941 279.719 45.8941C280.187 45.8941 280.622 45.7803 281.024 45.5527C281.431 45.325 281.718 45.0492 281.883 44.7253C282.056 44.3936 282.142 43.9668 282.142 43.4426V42.7695ZM278.487 40.5554L274.456 40.1308C274.609 39.4271 274.826 38.8755 275.108 38.4749C275.399 38.0689 275.815 37.7164 276.353 37.4198C276.738 37.2064 277.27 37.0401 277.948 36.923C278.623 36.8059 279.356 36.7479 280.143 36.7468C281.406 36.7468 282.422 36.819 283.188 36.9646C283.956 37.1025 284.593 37.3958 285.104 37.8445C285.463 38.1542 285.746 38.5964 285.954 39.1677C286.162 39.7346 286.266 40.2752 286.266 40.7929V45.6457C286.266 46.1634 286.296 46.5705 286.358 46.8671C286.426 47.1571 286.573 47.5292 286.792 47.9845H282.836C282.676 47.7021 282.573 47.4887 282.525 47.3432C282.477 47.191 282.429 46.9568 282.38 46.6394C281.827 47.1702 281.278 47.55 280.733 47.7777C279.987 48.0808 279.12 48.2329 278.133 48.2329C276.822 48.2329 275.823 47.9298 275.139 47.3224C274.463 46.715 274.126 45.9674 274.126 45.0766C274.126 44.2426 274.37 43.5564 274.861 43.0179C275.351 42.4795 276.255 42.08 277.574 41.8173C279.155 41.4999 280.182 41.2799 280.651 41.1552C281.119 41.0238 281.617 40.8553 282.141 40.6485C282.141 40.1308 282.034 39.7685 281.822 39.5617C281.607 39.3548 281.231 39.2509 280.693 39.2509C280.002 39.2509 279.484 39.3614 279.139 39.5825C278.87 39.7554 278.65 40.0793 278.487 40.5554Z"
    fill="#1A171B" />
  <path fill-rule="evenodd" clip-rule="evenodd"
    d="M293.517 32.7308V36.9948H295.836V40.0691H293.517V43.9697C293.517 44.4392 293.561 44.7489 293.651 44.901C293.79 45.1353 294.031 45.2524 294.377 45.2524C294.688 45.2524 295.123 45.1626 295.682 44.9842L295.993 47.8922C294.95 48.1198 293.976 48.2336 293.072 48.2336C292.022 48.2336 291.249 48.099 290.752 47.8298C290.253 47.5605 289.885 47.1534 289.643 46.6084C289.408 46.0568 289.292 45.167 289.292 43.939V40.0691H287.737V36.9948H289.292V32.7308H293.517Z"
    fill="#1A171B" />
  <path fill-rule="evenodd" clip-rule="evenodd"
    d="M301.555 42.5108C301.555 43.4903 301.752 44.2148 302.144 44.6832C302.546 45.1528 303.045 45.387 303.647 45.387C304.254 45.387 304.753 45.156 305.139 44.6942C305.531 44.2323 305.73 43.4903 305.73 42.4692C305.73 41.517 305.531 40.81 305.139 40.3481C304.745 39.8786 304.258 39.6444 303.677 39.6444C303.063 39.6444 302.555 39.883 302.156 40.358C301.755 40.8275 301.555 41.5455 301.555 42.5108ZM297.329 42.5206C297.329 40.845 297.896 39.4649 299.027 38.3825C300.16 37.2914 301.688 36.7474 303.615 36.7463C305.819 36.7463 307.483 37.3855 308.608 38.6605C309.513 39.6893 309.966 40.9556 309.966 42.4593C309.966 44.1492 309.402 45.5358 308.277 46.6182C307.157 47.6951 305.607 48.2336 303.626 48.2336C301.857 48.2336 300.429 47.7849 299.339 46.8874C297.999 45.7777 297.329 44.3221 297.329 42.5206Z"
    fill="#1A171B" />
  <path fill-rule="evenodd" clip-rule="evenodd"
    d="M174.583 32.8148H178.841V38.0714C179.262 37.6292 179.74 37.2987 180.271 37.0787C180.81 36.8576 181.403 36.7471 182.052 36.7471C183.391 36.7471 184.5 37.2297 185.377 38.1961C186.254 39.1549 186.692 40.5339 186.692 42.3353C186.692 43.5348 186.492 44.5942 186.091 45.5114C185.69 46.422 185.135 47.1049 184.423 47.5602C183.72 48.0089 182.935 48.2322 182.072 48.2333C181.335 48.2333 180.657 48.0746 180.043 47.7572C179.58 47.5087 179.076 47.0425 178.53 46.3596V47.9848H174.583V32.8148ZM178.81 42.459C178.81 43.4046 178.987 44.0908 179.338 44.5176C179.697 44.939 180.15 45.1491 180.695 45.1491C181.2 45.1491 181.62 44.9423 181.958 44.5286C182.303 44.1072 182.476 43.4046 182.476 42.4174C182.476 41.5473 182.308 40.9104 181.969 40.5032C181.638 40.0961 181.233 39.8925 180.758 39.8925C180.183 39.8925 179.714 40.107 179.349 40.5339C178.989 40.9552 178.81 41.5966 178.81 42.459Z"
    fill="#1A171B" />
  <path fill-rule="evenodd" clip-rule="evenodd"
    d="M220.865 43.5353H212.413C212.487 44.2117 212.67 44.7151 212.962 45.0456C213.368 45.5217 213.899 45.7603 214.557 45.7603C214.971 45.7603 215.364 45.6563 215.737 45.4495C215.965 45.3181 216.21 45.0872 216.474 44.7567L220.626 45.1386C219.992 46.2429 219.225 47.0364 218.328 47.5191C217.429 47.9951 216.141 48.2326 214.464 48.2326C213.008 48.2326 211.86 48.0291 211.024 47.623C210.189 47.2082 209.494 46.556 208.942 45.6673C208.397 44.7698 208.124 43.7181 208.124 42.5109C208.124 40.7937 208.674 39.4038 209.773 38.34C210.876 37.2784 212.399 36.7476 214.338 36.7465C215.913 36.7465 217.156 36.985 218.068 37.4611C218.979 37.9372 219.674 38.6267 220.15 39.5307C220.626 40.4347 220.865 41.6102 220.865 43.0592V43.5353ZM216.577 41.5171C216.493 40.704 216.273 40.1206 215.913 39.7682C215.561 39.4169 215.095 39.2407 214.515 39.2407C213.845 39.2407 213.31 39.5066 212.909 40.0375C212.654 40.3691 212.492 40.8616 212.423 41.5171H216.577Z"
    fill="#1A171B" />
  <path fill-rule="evenodd" clip-rule="evenodd"
    d="M238.763 42.521C238.763 40.8443 239.33 39.4653 240.462 38.3818C241.594 37.2917 243.123 36.7478 245.051 36.7467C247.253 36.7467 248.916 37.3859 250.043 38.6609C250.948 39.6897 251.399 40.9548 251.4 42.4586C251.4 44.1495 250.837 45.5362 249.712 46.6186C248.592 47.6955 247.042 48.2329 245.06 48.2329C243.292 48.2329 241.863 47.7853 240.772 46.8878C239.433 45.778 238.763 44.3224 238.763 42.521ZM242.989 42.5111C242.989 43.4907 243.186 44.2152 243.579 44.6836C243.98 45.1531 244.48 45.3873 245.082 45.3873C245.689 45.3873 246.186 45.1564 246.573 44.6935C246.966 44.2316 247.164 43.4907 247.164 42.4695C247.164 41.5174 246.966 40.8104 246.573 40.3485C246.179 39.879 245.693 39.6448 245.113 39.6448C244.497 39.6448 243.99 39.8823 243.59 40.3584C243.189 40.8279 242.989 41.5447 242.989 42.5111Z"
    fill="#1A171B" />
  <path fill-rule="evenodd" clip-rule="evenodd"
    d="M278.487 40.5549L274.457 40.1302C274.609 39.4276 274.826 38.876 275.108 38.4754C275.399 38.0683 275.815 37.7159 276.353 37.4193C276.739 37.2059 277.27 37.0406 277.948 36.9224C278.623 36.8053 279.356 36.7473 280.143 36.7473C281.407 36.7473 282.422 36.8195 283.188 36.964C283.956 37.1019 284.593 37.3952 285.104 37.8439C285.463 38.1548 285.746 38.5958 285.954 39.1682C286.162 39.734 286.266 40.2758 286.266 40.7935V45.6451C286.266 46.1639 286.296 46.571 286.358 46.8676C286.426 47.1566 286.573 47.5298 286.792 47.9851H282.836C282.676 47.7016 282.572 47.4882 282.525 47.3426C282.477 47.1905 282.429 46.9574 282.38 46.64C281.827 47.1708 281.278 47.5506 280.733 47.7782C279.987 48.0803 279.12 48.2324 278.133 48.2335C276.821 48.2335 275.823 47.9292 275.139 47.3229C274.463 46.7155 274.126 45.9669 274.126 45.0771C274.126 44.2421 274.37 43.5558 274.861 43.0174C275.352 42.48 276.255 42.0794 277.574 41.8168C279.155 41.5005 280.182 41.2794 280.651 41.1546C281.12 41.0244 281.617 40.8548 282.142 40.6479C282.142 40.1302 282.034 39.768 281.822 39.5622C281.607 39.3543 281.231 39.2514 280.693 39.2514C280.002 39.2514 279.484 39.3619 279.139 39.5819C278.87 39.7548 278.65 40.0788 278.487 40.5549ZM282.142 42.7689C281.563 42.9758 280.957 43.1597 280.331 43.3173C279.472 43.5449 278.931 43.7704 278.703 43.9903C278.467 44.218 278.351 44.4763 278.351 44.7663C278.351 45.0979 278.464 45.3693 278.693 45.5838C278.927 45.7907 279.269 45.8947 279.719 45.8947C280.187 45.8947 280.622 45.7798 281.024 45.5532C281.431 45.3245 281.718 45.0487 281.883 44.7258C282.056 44.3942 282.142 43.9663 282.142 43.442V42.7689Z"
    fill="#1A171B" />
  <path fill-rule="evenodd" clip-rule="evenodd"
    d="M297.329 42.521C297.329 40.8443 297.896 39.4653 299.028 38.3818C300.16 37.2917 301.688 36.7478 303.615 36.7467C305.818 36.7467 307.483 37.3859 308.608 38.6609C309.512 39.6897 309.966 40.9548 309.966 42.4586C309.966 44.1495 309.403 45.5362 308.276 46.6186C307.158 47.6955 305.608 48.2329 303.626 48.2329C301.858 48.2329 300.428 47.7853 299.338 46.8878C297.998 45.778 297.329 44.3224 297.329 42.521ZM301.554 42.5111C301.554 43.4907 301.751 44.2152 302.145 44.6836C302.547 45.1531 303.045 45.3873 303.648 45.3873C304.254 45.3873 304.752 45.1564 305.14 44.6935C305.531 44.2316 305.729 43.4907 305.729 42.4695C305.729 41.5174 305.531 40.8104 305.14 40.3485C304.745 39.879 304.258 39.6448 303.677 39.6448C303.063 39.6448 302.556 39.8823 302.156 40.3584C301.755 40.8279 301.554 41.5447 301.554 42.5111Z"
    fill="#1A171B" />
  <path fill-rule="evenodd" clip-rule="evenodd"
    d="M106.942 28.9377L106.946 28.9279C110.297 26.5836 117.943 23.8913 117.943 23.8913C105.138 22.0734 96.9177 24.1506 96.9177 24.1506C102.635 16.4567 126.944 11.8787 126.944 11.8787C99.9403 10.5806 86.357 23.3725 86.357 23.3725C87.137 15.6775 99.1603 0.0302124 99.1603 0.0302124C82.7177 11.3599 79.9537 23.112 79.9537 23.112C79.9537 23.112 77.1908 11.3599 60.7471 0.0302124C60.7471 0.0302124 72.7726 15.6775 73.5515 23.3725C73.5515 23.3725 59.9682 10.5806 32.9648 11.8787C32.9648 11.8787 57.2743 16.4567 62.9918 24.1506C62.9918 24.1506 54.7699 22.0734 41.9655 23.8913C41.9655 23.8913 49.7185 26.6219 53.0324 28.9793L53.0423 29.0034C22.3963 37.6013 0.493652 60.38 0.493652 87.1315C0.493652 121.256 36.1385 148.92 80.1103 148.92C124.082 148.92 159.727 121.256 159.727 87.1315C159.727 60.3121 137.711 37.4831 106.942 28.9377Z"
    fill="#FEFEFE" />
  <path fill-rule="evenodd" clip-rule="evenodd"
    d="M80.0839 129.147C44.8488 129.147 16.2876 107.73 16.2876 81.3079C16.2876 59.3446 36.031 40.8518 62.9303 35.2297L50.1434 46.4609C50.1434 46.4609 58.373 42.3162 63.9754 41.0226C68.1373 40.0638 71.1883 38.7954 75.3053 38.2066C78.5699 41.6004 87.9158 52.1082 87.9158 61.2172C89.3706 51.0094 86.9265 41.7066 85.8869 38.3817C89.4725 39.0219 92.3405 40.1503 96.1266 41.0226C101.729 42.3162 109.958 46.4609 109.958 46.4609L96.7303 35.1213C104.831 36.7597 112.292 39.5659 118.778 43.2804C121.789 42.0481 126.437 42.9368 130.583 45.8381C135.15 49.0306 137.627 53.6338 136.9 57.0058C136.788 57.5979 136.593 58.1583 136.282 58.6628L136.289 58.6606C141.132 65.4013 143.88 73.1127 143.88 81.3079C143.88 107.73 115.319 129.147 80.0839 129.147ZM106.942 28.9377L106.947 28.929C110.298 26.5858 117.943 23.8924 117.943 23.8924C105.139 22.0745 96.9176 24.1517 96.9176 24.1517C102.636 16.4578 126.945 11.8787 126.945 11.8787C99.9401 10.5806 86.3568 23.3736 86.3568 23.3736C87.1368 15.6786 99.1612 0.0302124 99.1612 0.0302124C82.7186 11.3599 79.9546 23.1131 79.9546 23.1131C79.9546 23.1131 77.1906 11.3599 60.748 0.0302124C60.748 0.0302124 72.7735 15.6786 73.5535 23.3736C73.5535 23.3736 59.9691 10.5806 32.9646 11.8787C32.9646 11.8787 57.2742 16.4578 62.9917 24.1517C62.9917 24.1517 54.7709 22.0745 41.9665 23.8924C41.9665 23.8924 49.7195 26.6219 53.0345 28.9793L53.0422 29.0045C22.3973 37.6013 0.494629 60.38 0.494629 87.1315C0.494629 121.256 36.1394 148.92 80.1113 148.92C124.082 148.92 159.728 121.256 159.728 87.1315C159.728 60.3121 137.711 37.4853 106.942 28.9377Z"
    fill="#1A171B" />
  <path fill-rule="evenodd" clip-rule="evenodd"
    d="M135.664 58.7303C133.319 62.0749 127.023 61.7116 121.6 57.9171C116.178 54.1238 113.681 48.3386 116.024 44.994C118.369 41.6493 124.665 42.0127 130.089 45.8071C135.512 49.6005 138.008 55.3857 135.664 58.7303ZM106.449 28.9089L106.453 28.8991C109.804 26.5548 117.45 23.8625 117.45 23.8625C104.646 22.0446 96.4246 24.1218 96.4246 24.1218C102.141 16.4279 126.45 11.8488 126.45 11.8488C99.4471 10.5518 85.8638 23.3437 85.8638 23.3437C86.6438 15.6487 98.6671 0.00140381 98.6671 0.00140381C82.2245 11.3289 79.4605 23.0832 79.4605 23.0832C79.4605 23.0832 76.6976 11.3289 60.2539 0.00140381C60.2539 0.00140381 72.2794 15.6487 73.0594 23.3437C73.0594 23.3437 59.475 10.5518 32.4705 11.8488C32.4705 11.8488 56.7811 16.4279 62.4986 24.1218C62.4986 24.1218 54.2757 22.0446 41.4713 23.8625C41.4713 23.8625 49.2253 26.5931 52.5404 28.9483L52.5491 28.9746C21.9032 37.5714 0.000488281 60.3501 0.000488281 87.1016C0.000488281 121.226 35.6453 148.891 79.6171 148.891C123.589 148.891 159.234 121.226 159.234 87.1016C159.234 60.2822 137.218 37.4543 106.449 28.9089Z"
    fill="#009FE3" />
  <path fill-rule="evenodd" clip-rule="evenodd"
    d="M79.5903 129.117C44.3552 129.117 15.7928 107.7 15.7928 81.278C15.7928 59.3147 35.5373 40.8198 62.4367 35.2009L49.6498 46.4299C49.6498 46.4299 57.8793 42.2841 63.4818 40.9927C67.6436 40.0339 70.6947 38.7655 74.8116 38.1778C78.0763 41.5705 87.421 52.0794 87.421 61.1873C88.877 50.9806 86.4318 41.6756 85.3921 38.3529C88.9777 38.9931 91.8458 40.1204 95.633 40.9927C101.234 42.2841 109.464 46.4299 109.464 46.4299L96.2355 35.0925C104.338 36.7298 111.798 39.536 118.285 43.2505C121.294 42.0193 125.943 42.9069 130.088 45.8071C134.655 49.0018 137.134 53.6039 136.405 56.9759C136.294 57.5669 136.099 58.1284 135.787 58.6329L135.795 58.6307C140.638 65.3703 143.387 73.0828 143.387 81.278C143.387 107.7 114.824 129.117 79.5903 129.117ZM106.453 28.8991C109.803 26.5548 117.45 23.8625 117.45 23.8625C104.646 22.0446 96.425 24.1218 96.425 24.1218C102.141 16.4279 126.451 11.8488 126.451 11.8488C99.4476 10.5518 85.8643 23.3437 85.8643 23.3437C86.6432 15.6487 98.6676 0.00140381 98.6676 0.00140381C82.2239 11.3289 79.461 23.0832 79.461 23.0832C79.461 23.0832 76.697 11.3289 60.2544 0.00140381C60.2544 0.00140381 72.2788 15.6487 73.0588 23.3437C73.0588 23.3437 59.4755 10.5518 32.471 11.8488C32.471 11.8488 56.7805 16.4279 62.498 24.1218C62.498 24.1218 54.2762 22.0446 41.4718 23.8625C41.4718 23.8625 49.2258 26.5931 52.5398 28.9483L52.5485 28.9746C21.9025 37.5714 0.000976562 60.3501 0.000976562 87.1016C0.000976562 121.226 35.6458 148.891 79.6165 148.891C123.589 148.891 159.233 121.226 159.233 87.1016C159.233 60.2822 137.219 37.4543 106.449 28.9089L106.453 28.8991Z"
    fill="#1A171B" />
  <path fill-rule="evenodd" clip-rule="evenodd"
    d="M116.126 45.1069C118.47 41.7634 124.766 42.1267 130.189 45.9212C135.613 49.7134 138.108 55.4997 135.765 58.8443C133.421 62.189 127.125 61.8245 121.701 58.0323C116.279 54.2378 113.781 48.4515 116.126 45.1069Z"
    fill="#FEFEFE" />
</svg>
