<svg width="48" height="48" viewBox="0 0 48 48" fill="none" xmlns="http://www.w3.org/2000/svg">
<g id="Icons">
<g id="Functional">
<g id="Icon/Functional/Spinner/Filled/White">
<path id="Fill-6" fill-rule="evenodd" clip-rule="evenodd" d="M23.4376 0H24.3431C24.7611 0.115818 25.1769 0.237336 25.5559 0.456666C25.8057 0.641154 26.036 0.847911 26.2548 1.06777C26.3639 1.22658 26.4729 1.38534 26.582 1.54415C26.666 1.74143 26.7501 1.93875 26.8341 2.13603C26.9058 2.48588 26.9355 2.84058 26.9562 3.19634C26.9311 3.55125 26.9316 3.90617 26.956 4.26108C26.9272 4.61642 26.9279 4.9717 26.9561 5.32699C26.9312 5.6819 26.9315 6.03687 26.956 6.39178C26.9272 6.74706 26.9279 7.1024 26.9561 7.45769C26.9312 7.8126 26.9315 8.16756 26.956 8.52248C26.9356 8.8775 26.9152 9.23252 26.8948 9.58753C26.8096 9.8791 26.7018 10.1623 26.5765 10.4388C26.2498 10.9495 25.8272 11.3601 25.3011 11.6629C25.2384 11.6629 25.1889 11.6932 25.1433 11.7319C25.0981 11.724 25.0655 11.7455 25.0373 11.7773C24.8593 11.8296 24.6813 11.882 24.5032 11.9343C24.1479 11.9765 23.7926 11.9901 23.4369 11.9393C23.3313 11.9169 23.2257 11.8946 23.1201 11.8722C23.0931 11.8325 23.0542 11.8266 23.0107 11.8335C22.8695 11.7762 22.7281 11.719 22.5868 11.6618C22.0595 11.3573 21.6343 10.947 21.3112 10.4308C21.1839 10.1569 21.0836 9.87308 20.9966 9.58428C20.9759 9.23049 20.9554 8.87664 20.9348 8.52285C20.9612 8.16767 20.9615 7.81249 20.935 7.45731C20.9652 7.10224 20.9652 6.74717 20.9348 6.39215C20.9612 6.03697 20.9615 5.68179 20.935 5.32661C20.9652 4.97154 20.9652 4.61652 20.9348 4.26145C20.9612 3.90627 20.9615 3.55109 20.935 3.19592C20.9608 2.84138 20.9845 2.48662 21.0567 2.13741C21.1404 1.94072 21.2242 1.74398 21.3079 1.54729C21.4167 1.38774 21.5255 1.22818 21.6343 1.06857C21.8639 0.836191 22.1092 0.622082 22.3741 0.430668C22.7092 0.239094 23.088 0.155827 23.4376 0Z" fill="#333333"/>
<path id="Fill-8" opacity="0.2" fill-rule="evenodd" clip-rule="evenodd" d="M0 24.2366V23.4376C0.149381 23.0855 0.240479 22.7098 0.428804 22.3733C0.62075 22.1081 0.83683 21.8635 1.06735 21.6315C1.22669 21.5233 1.38603 21.4152 1.54532 21.3072C1.74217 21.2224 1.93902 21.1376 2.13587 21.0528C2.48614 20.9848 2.84106 20.957 3.19624 20.9318C3.5512 20.9573 3.90617 20.9574 4.26113 20.9318C4.61642 20.9613 4.97165 20.9612 5.32693 20.9318C5.6819 20.9572 6.03687 20.9575 6.39183 20.9318C6.74706 20.9613 7.10235 20.9612 7.45763 20.9318C7.8126 20.9572 8.16757 20.9575 8.52253 20.9318C8.87675 20.9526 9.23092 20.9736 9.58514 20.9946C10.852 21.3441 11.6572 22.1386 11.94 23.4369C11.9917 23.7926 11.9779 24.148 11.9346 24.5032C11.8406 24.8172 11.7461 25.1302 11.5811 25.4177C11.1307 26.2016 10.4438 26.6628 9.5854 26.8933C9.23108 26.914 8.8768 26.9347 8.52253 26.9554C8.16757 26.9296 7.8126 26.9299 7.45763 26.9556C7.10235 26.9257 6.74712 26.9263 6.39183 26.9554C6.03687 26.9296 5.6819 26.9299 5.32693 26.9556C4.9717 26.9257 4.61642 26.9263 4.26113 26.9554C3.90617 26.9298 3.5512 26.9298 3.19624 26.9554C2.84143 26.9286 2.48636 26.9043 2.13688 26.8319C1.93955 26.7479 1.74228 26.6638 1.54495 26.5798C1.38619 26.4708 1.22749 26.3617 1.06879 26.2526C0.852759 26.0309 0.640195 25.8063 0.45901 25.5542C0.231796 25.1409 0.0718668 24.7041 0 24.2366Z" fill="#333333"/>
<path id="Fill-10" opacity="0.4" fill-rule="evenodd" clip-rule="evenodd" d="M21.308 46.3397C21.2323 46.1635 21.1566 45.9872 21.0808 45.811C20.9915 45.4611 20.9636 45.1028 20.9349 44.7446C20.9611 44.3894 20.9614 44.0343 20.935 43.6791C20.9652 43.324 20.9652 42.9689 20.9348 42.6139C20.9612 42.2587 20.9614 41.9035 20.935 41.5483C20.9652 41.1933 20.9652 40.8382 20.9348 40.4832C20.9612 40.128 20.9614 39.7728 20.935 39.4176C20.9529 39.0627 20.9707 38.7078 20.9886 38.3529C21.3168 37.0544 22.1296 36.249 23.4368 35.9466C23.7925 35.8981 24.148 35.9086 24.5032 35.9527C24.8139 36.0353 25.1119 36.1529 25.4064 36.2801C25.8809 36.5848 26.2699 36.9751 26.576 37.4485C26.7035 37.7429 26.8251 38.0395 26.9021 38.3522L26.9561 39.4181C26.9312 39.773 26.9315 40.1279 26.956 40.4829C26.9272 40.8381 26.9279 41.1934 26.9561 41.5487C26.9312 41.9036 26.9315 42.2586 26.956 42.6136C26.9272 42.9689 26.9279 43.3242 26.9561 43.6794C26.9312 44.0344 26.9315 44.3893 26.956 44.7443C26.9309 45.1032 26.9047 45.4621 26.8082 45.8112C26.7328 45.9884 26.6575 46.1657 26.5821 46.343C26.4565 46.5201 26.331 46.6973 26.2055 46.8744C25.9934 47.0558 25.7814 47.2372 25.5693 47.4185C24.7572 47.8812 23.9056 48.0357 23.0027 47.7286C22.7872 47.6553 22.5835 47.5474 22.3744 47.4553C22.1309 47.2774 21.8996 47.0847 21.6843 46.8733C21.5589 46.6954 21.4334 46.5176 21.308 46.3397Z" fill="#333333"/>
<path id="Fill-12" opacity="0.6" fill-rule="evenodd" clip-rule="evenodd" d="M46.343 26.5819C46.1657 26.6572 45.9884 26.7325 45.8112 26.8079C45.462 26.9037 45.1024 26.9243 44.7443 26.9553C44.3893 26.9298 44.0344 26.9298 43.6794 26.9557C43.3241 26.9257 42.9689 26.9264 42.6136 26.9554C42.2587 26.9296 41.9037 26.9299 41.5487 26.9557C41.1935 26.9257 40.8382 26.9264 40.4829 26.9554C40.128 26.9296 39.773 26.9299 39.418 26.9557C39.0628 26.9368 38.7077 26.9181 38.3525 26.8993C37.5273 26.7051 36.8732 26.2582 36.3842 25.5672C36.3737 25.4998 36.3457 25.443 36.2864 25.4049C36.1547 25.1121 36.0374 24.8139 35.955 24.503C35.9157 24.1479 35.9004 23.7927 35.9492 23.4371C35.9957 23.2758 36.0319 23.1109 36.0905 22.9542C36.4884 21.8907 37.2643 21.2588 38.3525 20.9877C38.7077 20.9691 39.0628 20.9504 39.418 20.9317C39.773 20.9572 40.128 20.9576 40.4829 20.9317C40.8382 20.9613 41.1934 20.9611 41.5487 20.9317C41.9037 20.9572 42.2587 20.9576 42.6136 20.9317C42.9689 20.9613 43.3241 20.9611 43.6794 20.9317C44.0343 20.9574 44.3893 20.9574 44.7443 20.9319C45.1024 20.9628 45.462 20.9824 45.8113 21.0779L46.3691 21.3175C46.5198 21.4209 46.6706 21.5244 46.8213 21.6279C47.0544 21.8593 47.2735 22.1027 47.4628 22.3718C48.0492 23.4454 48.0355 24.5113 47.4216 25.5695C47.2395 25.7822 47.0574 25.995 46.8753 26.2077C46.6979 26.3325 46.5204 26.4572 46.343 26.5819Z" fill="#333333"/>
<path id="Fill-15" opacity="0.6" fill-rule="evenodd" clip-rule="evenodd" d="M41.2523 40.4319C41.0303 40.7299 40.7691 40.9897 40.4807 41.2229C40.3369 41.3056 40.1932 41.3885 40.0494 41.4714C39.8393 41.5419 39.6291 41.6125 39.419 41.6831C39.0653 41.7449 38.7089 41.7488 38.3516 41.7326C37.5797 41.6028 36.9424 41.2336 36.4229 40.6521C36.365 40.5872 36.2925 40.5353 36.2268 40.4774L36.2286 40.4793C35.8905 40.106 35.5373 39.7478 35.1595 39.4145C34.8243 39.0394 34.4681 38.6854 34.0938 38.3494C33.7565 37.9764 33.4037 37.6191 33.0254 37.2874C32.956 37.2092 32.8936 37.1234 32.8162 37.0542C32.2334 36.5331 31.7722 35.9347 31.5874 35.1564C31.5517 34.8012 31.5144 34.4461 31.5618 34.0889C31.6234 33.7507 31.7337 33.4281 31.8741 33.1151C32.1648 32.6248 32.5563 32.2317 33.0287 31.9165C33.3691 31.7584 33.7181 31.6259 34.0886 31.5565C34.4459 31.5218 34.8015 31.544 35.1564 31.5875C35.8327 31.7605 36.3988 32.1118 36.8665 32.6296C36.9952 32.7722 37.1451 32.8955 37.2854 33.0276C37.6199 33.4032 37.9752 33.7582 38.3498 34.0939C38.6834 34.4724 39.0439 34.8241 39.415 35.1654C39.4323 35.1831 39.4496 35.2008 39.4669 35.2185C39.7695 35.5519 40.0851 35.8725 40.4202 36.1735C40.4377 36.1906 40.4552 36.2077 40.4728 36.2248C40.5563 36.3155 40.6336 36.4129 40.7242 36.4958C41.2737 36.9992 41.6032 37.6207 41.7329 38.3516C41.7485 38.7089 41.7466 39.0655 41.6831 39.419L41.4946 40.0036C41.4138 40.1463 41.3331 40.2891 41.2523 40.4319Z" fill="#333333"/>
<path id="Fill-17" opacity="0.200753" fill-rule="evenodd" clip-rule="evenodd" d="M14.8532 10.604C14.8709 10.6214 14.8887 10.6387 14.9063 10.656C15.0394 10.7963 15.1644 10.9453 15.3069 11.0753C15.8184 11.5418 16.1453 12.1138 16.3084 12.7834C16.3486 13.1386 16.3542 13.4944 16.3237 13.8507C16.2406 14.2102 16.1229 14.5572 15.9495 14.8841C15.6731 15.3177 15.3178 15.6729 14.8862 15.9519C14.5581 16.123 14.2116 16.243 13.8515 16.3251C13.4948 16.3621 13.1387 16.3499 12.7829 16.3136C12.7163 16.2923 12.6503 16.2692 12.5832 16.2501C12.1335 16.1229 11.7233 15.9219 11.3795 15.6C11.1362 15.3722 10.8971 15.1401 10.6561 14.9099L10.6584 14.9121C10.3227 14.5364 9.96479 14.183 9.59155 13.8448L9.59331 13.8466C9.2554 13.4735 8.90181 13.1161 8.52506 12.7819C8.19082 12.4053 7.8318 12.0534 7.45947 11.7148L7.46107 11.7164C7.39661 11.645 7.33817 11.5668 7.26667 11.5031C6.68673 10.9867 6.3022 10.3585 6.16107 9.58911C6.1355 9.23313 6.14669 8.87796 6.18558 8.52347C6.38605 7.74418 6.79099 7.10643 7.46347 6.64598C7.78881 6.42324 8.15576 6.30647 8.52373 6.18745C8.93298 6.14888 9.34197 6.12693 9.74962 6.2045C10.4399 6.35116 10.9942 6.72302 11.465 7.23562C11.5417 7.3191 11.632 7.39012 11.7159 7.46688C11.7333 7.48446 11.7506 7.50199 11.7679 7.51962C12.0884 7.87443 12.4259 8.21214 12.7812 8.53199C12.7985 8.54979 12.8158 8.56753 12.833 8.58527C13.1547 8.9389 13.4914 9.27746 13.8466 9.59753C13.8636 9.61522 13.8807 9.6329 13.8978 9.65059C14.2007 9.98398 14.5169 10.3042 14.8532 10.604Z" fill="#333333"/>
<path id="Fill-19" fill-rule="evenodd" clip-rule="evenodd" d="M40.4796 6.66682C40.7708 6.90267 41.0342 7.16547 41.2575 7.46732C41.3363 7.60621 41.4152 7.74509 41.494 7.88398C41.5633 8.09755 41.6327 8.31124 41.702 8.52487C41.7394 8.87898 41.7543 9.23357 41.7256 9.58918C41.5875 10.4642 41.0646 11.1052 40.4482 11.6892C40.0947 12.0436 39.7407 12.3986 39.3872 12.7529C39.0325 13.1081 38.6779 13.4634 38.3232 13.8186C37.968 14.1743 37.6127 14.53 37.2576 14.8857C37.186 14.9513 37.1083 15.0115 37.0437 15.0833C36.5247 15.6604 35.9306 16.1198 35.1565 16.3013C34.8048 16.343 34.4525 16.3661 34.0985 16.3349C33.7261 16.2598 33.3702 16.1367 33.0285 15.9714C33.0218 15.9391 33.0003 15.9295 32.9701 15.9334C32.5717 15.668 32.2414 15.3335 31.9662 14.9431L31.9677 14.923L31.9496 14.914C31.7771 14.5757 31.6434 14.2235 31.5664 13.8508C31.5237 13.4944 31.54 13.1387 31.5771 12.7832C31.6788 12.4238 31.805 12.0741 31.993 11.7493C32.2709 11.3379 32.6639 11.0308 32.9831 10.6567C33.0246 10.6564 33.0381 10.6286 33.0447 10.5938C33.3752 10.2952 33.6921 9.98319 33.9896 9.65167C34.0649 9.61688 34.1175 9.55929 34.1549 9.48652C34.4718 9.20331 34.772 8.90343 35.0556 8.58693C35.1294 8.55054 35.185 8.49588 35.2213 8.42178C35.5373 8.13815 35.8388 7.83981 36.1216 7.52294C36.1953 7.48602 36.2507 7.43099 36.2874 7.35704C36.4214 7.22988 36.5567 7.10415 36.6892 6.97539C37.1549 6.52256 37.7214 6.27616 38.3515 6.15843C38.7085 6.1425 39.0646 6.14863 39.4186 6.20424L40.1102 6.44558C40.2333 6.51931 40.3564 6.59309 40.4796 6.66682Z" fill="#333333"/>
<path id="Fill-21" opacity="0.4" fill-rule="evenodd" clip-rule="evenodd" d="M10.6078 33.0281C10.6399 33.028 10.6561 33.0122 10.6558 32.9799C11.0322 32.6659 11.333 32.2682 11.7457 31.9946L11.752 31.9907C12.0756 31.8023 12.4241 31.6755 12.783 31.5747C13.1388 31.5355 13.4949 31.5242 13.8517 31.562C14.2233 31.6418 14.5772 31.7706 14.9139 31.9472L14.9261 31.9665L14.9489 31.9659C15.3627 32.2535 15.7048 32.6101 15.9779 33.0334C15.9911 33.0579 16.0045 33.0823 16.0177 33.1068C16.1598 33.4223 16.2638 33.7501 16.3356 34.0884C16.3673 34.4458 16.3434 34.8015 16.3019 35.1566C16.2857 35.1778 16.259 35.197 16.255 35.2202C16.1565 35.794 15.8535 36.2547 15.4593 36.6651C15.2689 36.8631 15.0763 37.059 14.8848 37.2559C14.5293 37.6104 14.1739 37.9648 13.8184 38.3192C13.4638 38.6735 13.1093 39.0277 12.7547 39.382L12.7481 39.3887C12.3951 39.7413 12.0422 40.094 11.6893 40.4466L11.6869 40.4487C11.4884 40.638 11.2957 40.834 11.09 41.0154C10.7036 41.3561 10.2527 41.5734 9.74954 41.6828C9.34003 41.7535 8.93056 41.7547 8.52104 41.6828C7.29936 41.3879 6.54553 40.6144 6.20452 39.4186C6.15263 39.0645 6.14336 38.7085 6.15791 38.3515C6.29008 37.5583 6.67829 36.9113 7.27746 36.3834C7.32957 36.3374 7.37011 36.2782 7.41598 36.2252C7.4684 36.2076 7.50249 36.1715 7.52125 36.1202C7.83785 35.8364 8.13859 35.5367 8.42083 35.2186C8.49499 35.1832 8.55002 35.1285 8.58604 35.0546C8.90169 34.7697 9.20364 34.471 9.48584 34.1527C9.53868 34.135 9.57299 34.0991 9.59057 34.0465C9.94794 33.7253 10.2887 33.3875 10.6078 33.0281Z" fill="#333333"/>
</g>
</g>
</g>
</svg>
