<svg width="230" height="207" fill="none" xmlns="http://www.w3.org/2000/svg">
  <path fill-rule="evenodd" clip-rule="evenodd"
    d="M71.257 34.3012C66.9851 32.7927 67.513 27.4126 72.0017 26.775C74.8658 26.3667 77.5365 26.1276 79.9816 26.0061C71.4281 22.9472 62.1279 21.1373 61.811 21.0741C56.9305 20.1556 57.3884 13.6003 62.3447 13.3603C79.1863 12.5506 91.6305 16.4512 99.6328 20.3247C95.707 13.4448 90.5057 6.60868 90.3647 6.42594C87.4189 2.59039 91.685 -1.89932 95.6652 0.845631C105.819 7.84896 111.601 15.0603 114.83 20.4239C118.053 15.0603 123.838 7.84896 133.993 0.845631C137.971 -1.89641 142.235 2.59039 139.293 6.42594C139.147 6.60868 133.948 13.4448 130.025 20.3247C138.023 16.4512 150.465 12.5506 167.309 13.3603C172.268 13.6003 172.723 20.1556 167.839 21.0741C167.529 21.1373 158.228 22.9472 149.674 26.0061C152.117 26.1276 154.785 26.3667 157.652 26.775C162.139 27.4126 162.675 32.7927 158.397 34.3012C158.361 34.3148 156.996 34.7989 155.159 35.5289C185.684 47.1026 207.496 71.7421 207.496 101.06C207.496 142.078 165.111 173.77 114.999 173.77C64.89 173.77 22.5047 142.078 22.5047 101.06C22.5047 71.8014 44.2267 47.1988 74.6636 35.5969C72.7464 34.829 71.2959 34.3148 71.257 34.3012Z"
    fill="#FFFFFE" />
  <path fill-rule="evenodd" clip-rule="evenodd"
    d="M144.472 36.1004L144.476 36.0926C148.203 33.4857 156.703 30.489 156.703 30.489C142.466 28.4662 133.326 30.7777 133.326 30.7777C139.683 22.2182 166.713 17.1219 166.713 17.1219C136.687 15.6765 121.583 29.9107 121.583 29.9107C122.449 21.3492 135.817 3.93564 135.817 3.93564C117.537 16.5426 114.465 29.622 114.465 29.622C114.465 29.622 111.392 16.5426 93.1074 3.93564C93.1074 3.93564 106.48 21.3492 107.347 29.9107C107.347 29.9107 92.2421 15.6765 62.2174 17.1219C62.2174 17.1219 89.2448 22.2182 95.603 30.7777C95.603 30.7777 86.4613 28.4662 72.2253 30.489C72.2253 30.489 80.8478 33.5246 84.5315 36.1471L84.5393 36.1782C50.4654 45.7427 26.1145 71.0889 26.1145 100.856C26.1145 138.829 65.7455 169.613 114.639 169.613C163.528 169.613 203.163 138.829 203.163 100.856C203.163 71.0111 178.684 45.6106 144.472 36.1004Z"
    fill="#00A3DA" />
  <path fill-rule="evenodd" clip-rule="evenodd"
    d="M114.639 167.065C67.2311 167.065 28.6617 137.363 28.6617 100.856C28.6617 73.1359 51.3948 48.1281 85.2305 38.6277C85.9101 38.4371 86.4808 37.9725 86.8074 37.3465C87.1292 36.7177 87.1769 35.9828 86.9416 35.317C86.7627 34.8271 86.4341 34.3732 86.0073 34.0699C85.1391 33.4536 84.0357 32.8209 82.8467 32.2114C83.1286 32.2075 83.4125 32.2056 83.6944 32.2056C90.7128 32.2056 94.9429 33.2388 94.9847 33.2476C95.1888 33.2991 95.395 33.3234 95.6001 33.3234C96.4401 33.3234 97.2421 32.9074 97.7205 32.19C98.3203 31.2958 98.2921 30.1226 97.6505 29.2584C96.0104 27.0491 93.2726 25.0817 90.0293 23.3613C100.277 26.9179 105.521 31.6933 105.604 31.7672C106.087 32.2182 106.714 32.4544 107.347 32.4544C107.733 32.4544 108.118 32.3679 108.476 32.19C109.427 31.7176 109.988 30.7087 109.882 29.6531C109.602 26.9081 108.259 23.4789 106.484 19.9826C110.867 25.8817 111.969 30.1449 111.986 30.2169C112.268 31.3551 113.291 32.1618 114.463 32.1618C114.469 32.1618 114.472 32.1618 114.475 32.1618C115.654 32.156 116.678 31.3512 116.946 30.2032C116.962 30.1401 118.064 25.8778 122.449 19.9796C120.67 23.476 119.326 26.9072 119.048 29.6531C118.941 30.7106 119.501 31.7254 120.457 32.1949C120.815 32.3737 121.201 32.4573 121.581 32.4573C122.219 32.4573 122.848 32.2211 123.331 31.7633C123.41 31.6894 128.656 26.914 138.904 23.3593C135.659 25.0808 132.922 27.0491 131.28 29.2584C130.636 30.1245 130.608 31.2987 131.207 32.1929C131.686 32.9113 132.489 33.3253 133.326 33.3253C133.532 33.3253 133.742 33.2991 133.949 33.2456C133.988 33.2388 138.216 32.2056 145.234 32.2056C145.516 32.2056 145.8 32.2075 146.082 32.2114C144.933 32.7985 143.867 33.408 143.015 34.0048C142.693 34.2322 142.426 34.5287 142.238 34.8737C141.866 35.5532 141.824 36.3726 142.129 37.0909C142.429 37.8044 143.039 38.3487 143.789 38.5557C177.779 48.0046 200.616 73.0417 200.616 100.856C200.616 137.363 162.047 167.065 114.639 167.065Z"
    fill="#009FE3" />
  <path fill-rule="evenodd" clip-rule="evenodd"
    d="M155.367 53.6685C157.999 49.9117 165.069 50.32 171.162 54.5832C177.252 58.8474 180.054 65.3501 177.421 69.1089C174.79 72.8677 167.719 72.4594 161.627 68.1972C155.54 63.931 152.735 57.4273 155.367 53.6685Z"
    fill="#FFFFFE" />
  <path fill-rule="evenodd" clip-rule="evenodd"
    d="M114.609 147.609C75.4287 147.609 43.6716 123.775 43.6716 94.3743C43.6716 69.937 65.624 49.3577 95.534 43.1008L81.3174 55.5999C81.3174 55.5999 90.4678 50.9838 96.6958 49.5491C101.325 48.4799 104.716 47.0676 109.294 46.4134C112.923 50.1916 123.317 61.8839 123.317 72.0191C124.933 60.6612 122.215 50.3102 121.06 46.6098C125.046 47.3203 128.236 48.5781 132.445 49.5491C138.674 50.9838 147.824 55.5999 147.824 55.5999L133.118 42.9813C142.125 44.8038 150.419 47.9269 157.632 52.0618C160.979 50.6883 166.148 51.6778 170.759 54.9049C175.836 58.4596 178.59 63.5811 177.781 67.333C177.655 67.9901 177.441 68.6161 177.093 69.176H177.102C182.485 76.676 185.541 85.2569 185.541 94.3743C185.541 123.775 153.784 147.609 114.609 147.609ZM144.472 36.1004L144.476 36.0926C148.203 33.4857 156.703 30.489 156.703 30.489C142.466 28.4662 133.326 30.7777 133.326 30.7777C139.683 22.2182 166.713 17.1219 166.713 17.1219C136.687 15.6765 121.583 29.9107 121.583 29.9107C122.449 21.3492 135.817 3.93564 135.817 3.93564C117.537 16.5426 114.465 29.622 114.465 29.622C114.465 29.622 111.392 16.5426 93.1074 3.93564C93.1074 3.93564 106.48 21.3492 107.347 29.9107C107.347 29.9107 92.2421 15.6765 62.2174 17.1219C62.2174 17.1219 89.2448 22.2182 95.603 30.7777C95.603 30.7777 86.4613 28.4662 72.2253 30.489C72.2253 30.489 80.8478 33.5246 84.5315 36.1471L84.5393 36.1782C50.4654 45.7427 26.1145 71.0889 26.1145 100.856C26.1145 138.829 65.7455 169.613 114.639 169.613C163.528 169.613 203.163 138.829 203.163 100.856C203.163 71.0111 178.684 45.6106 144.472 36.1004Z"
    fill="#1A1919" />
  <path fill-rule="evenodd" clip-rule="evenodd"
    d="M102.559 180.361V187.54H106.5V192.767H102.559V199.399C102.559 200.197 102.634 200.724 102.788 200.981C103.021 201.382 103.432 201.581 104.018 201.581C104.547 201.581 105.285 201.427 106.236 201.123L106.764 206.067C104.992 206.453 103.338 206.648 101.803 206.648C100.018 206.648 98.7063 206.418 97.8605 205.962C97.0156 205.503 96.3866 204.811 95.9773 203.885C95.5767 202.948 95.3794 201.432 95.3794 199.347V192.767H92.7408V187.54H95.3794V180.361H102.559ZM8.0771 200.331C7.47822 199.604 7.17975 198.437 7.17975 196.83C7.17975 195.364 7.48503 194.273 8.0946 193.557C8.71487 192.831 9.51402 192.468 10.4882 192.468C11.2971 192.468 11.9834 192.812 12.5473 193.505C13.1219 194.198 13.4087 195.28 13.4087 196.76C13.4087 198.437 13.1151 199.634 12.5288 200.348C11.9552 201.053 11.2377 201.405 10.3822 201.405C9.45472 201.405 8.68667 201.048 8.0771 200.331ZM7.23225 180.432H0V206.226H6.70337V203.463C7.63086 204.625 8.4864 205.416 9.27194 205.839C10.3171 206.377 11.4672 206.648 12.7223 206.648C14.1903 206.648 15.5193 206.265 16.7181 205.503C17.9256 204.729 18.8696 203.569 19.5491 202.021C20.2316 200.46 20.5709 198.661 20.5709 196.618C20.5709 193.557 19.8262 191.213 18.3358 189.582C16.8454 187.939 14.9623 187.119 12.6873 187.119C11.5839 187.12 10.5766 187.306 9.65985 187.681C8.75764 188.058 7.94877 188.619 7.23225 189.371V180.432ZM30.7091 206.226H23.5294V180.432H30.7091V206.226ZM54.6138 206.226H47.9279V203.2C46.9285 204.443 45.9203 205.327 44.8995 205.855C43.8913 206.383 42.6488 206.648 41.1691 206.648C39.1994 206.648 37.6497 206.061 36.5239 204.888C35.4097 203.703 34.8517 201.885 34.8517 199.435V187.54H42.0499V197.814C42.0499 198.988 42.2658 199.821 42.7003 200.313C43.1349 200.806 43.7435 201.053 44.53 201.053C45.3865 201.053 46.0856 200.724 46.6242 200.068C47.1754 199.411 47.4505 198.233 47.4505 196.532V187.54H54.6138V206.226ZM70.2138 192.256C70.8253 192.853 71.1986 193.845 71.3406 195.228H64.2843C64.4019 194.115 64.678 193.276 65.1116 192.714C65.7912 191.811 66.7012 191.359 67.8397 191.359C68.8245 191.359 69.6159 191.658 70.2138 192.256ZM64.2668 198.661H78.6273V197.851C78.6273 195.387 78.2228 193.388 77.412 191.852C76.6022 190.315 75.4239 189.141 73.8751 188.333C72.3264 187.524 70.2138 187.119 67.5402 187.119C64.2425 187.12 61.6564 188.022 59.7801 189.829C57.9144 191.635 56.9821 193.998 56.9821 196.917C56.9821 198.971 57.4448 200.76 58.3723 202.284C59.3105 203.797 60.4898 204.905 61.9092 205.608C63.3286 206.299 65.276 206.648 67.7512 206.648C70.6017 206.648 72.7911 206.243 74.3155 205.434C75.839 204.613 77.1427 203.264 78.2228 201.385L71.1646 200.736C70.7193 201.299 70.3023 201.693 69.9163 201.914C69.2814 202.265 68.6126 202.441 67.9087 202.441C66.7945 202.441 65.8923 202.037 65.2001 201.228C64.7072 200.665 64.3961 199.81 64.2668 198.661ZM117.217 200.612C116.548 199.815 116.213 198.585 116.213 196.917C116.213 195.277 116.553 194.055 117.235 193.259C117.914 192.449 118.778 192.045 119.822 192.045C120.807 192.045 121.635 192.444 122.303 193.24C122.971 194.027 123.304 195.228 123.304 196.848C123.304 198.585 122.971 199.843 122.303 200.63C121.646 201.417 120.802 201.809 119.769 201.809C118.747 201.809 117.898 201.411 117.217 200.612ZM111.922 189.9C109.997 191.741 109.035 194.086 109.035 196.935C109.035 199.997 110.173 202.472 112.447 204.36C114.301 205.884 116.731 206.648 119.733 206.648C123.099 206.648 125.734 205.733 127.634 203.902C129.546 202.061 130.504 199.704 130.504 196.83C130.504 194.273 129.735 192.121 128.198 190.373C126.286 188.203 123.459 187.119 119.718 187.119C116.443 187.121 113.845 188.045 111.922 189.9ZM134.004 187.54H140.692V190.268C141.653 189.131 142.622 188.32 143.595 187.84C144.579 187.36 145.765 187.12 147.149 187.119C148.639 187.119 149.819 187.382 150.685 187.91C151.555 188.439 152.264 189.224 152.816 190.268C153.942 189.048 154.968 188.222 155.895 187.786C156.822 187.341 157.966 187.12 159.325 187.119C161.335 187.119 162.9 187.716 164.026 188.912C165.151 190.097 165.714 191.957 165.714 194.49V206.226H158.536V195.58C158.536 194.736 158.371 194.108 158.044 193.698C157.561 193.053 156.963 192.732 156.246 192.731C155.402 192.731 154.722 193.037 154.206 193.647C153.69 194.256 153.432 195.235 153.432 196.583V206.226H146.253V195.932C146.253 195.111 146.204 194.554 146.111 194.261C145.959 193.791 145.695 193.417 145.32 193.135C144.943 192.842 144.504 192.696 144 192.696C143.179 192.696 142.504 193.007 141.974 193.627C141.448 194.249 141.185 195.27 141.185 196.689V206.226H134.004V187.54ZM179.65 198.291C180.72 198.022 181.746 197.71 182.731 197.359V198.501C182.731 199.394 182.584 200.12 182.291 200.683C182.009 201.235 181.523 201.704 180.83 202.09C180.151 202.477 179.411 202.673 178.614 202.673C177.852 202.673 177.27 202.496 176.872 202.143C176.486 201.779 176.291 201.316 176.291 200.754C176.291 200.26 176.489 199.821 176.888 199.434C177.276 199.059 178.196 198.679 179.65 198.291ZM169.675 192.872L176.52 193.592C176.802 192.783 177.17 192.231 177.628 191.94C178.214 191.565 179.095 191.376 180.268 191.376C181.183 191.376 181.822 191.552 182.187 191.905C182.548 192.256 182.731 192.872 182.731 193.752C181.84 194.103 180.994 194.39 180.198 194.614C179.398 194.824 177.657 195.2 174.972 195.739C172.729 196.186 171.192 196.865 170.361 197.78C169.527 198.696 169.111 199.863 169.111 201.281C169.111 202.794 169.685 204.067 170.834 205.099C171.997 206.13 173.693 206.648 175.921 206.648C177.598 206.647 179.071 206.389 180.337 205.872C181.265 205.487 182.198 204.841 183.135 203.937C183.218 204.478 183.299 204.875 183.384 205.135C183.463 205.381 183.639 205.745 183.909 206.226H190.632C190.258 205.451 190.009 204.818 189.894 204.325C189.789 203.821 189.734 203.129 189.734 202.249V193.998C189.734 193.119 189.56 192.197 189.208 191.236C188.855 190.262 188.374 189.512 187.763 188.983C186.896 188.222 185.81 187.724 184.508 187.488C183.206 187.242 181.482 187.119 179.334 187.119C177.997 187.121 176.753 187.22 175.605 187.417C174.455 187.617 173.551 187.898 172.894 188.263C171.98 188.766 171.276 189.363 170.782 190.056C170.302 190.736 169.93 191.674 169.675 192.872ZM202.056 180.361V187.54H205.997V192.767H202.056V199.399C202.056 200.197 202.132 200.724 202.285 200.981C202.519 201.382 202.931 201.581 203.516 201.581C204.044 201.581 204.783 201.427 205.735 201.123L206.262 206.067C204.489 206.453 202.837 206.648 201.3 206.648C199.516 206.648 198.201 206.418 197.356 205.962C196.513 205.503 195.886 204.811 195.475 203.885C195.075 202.948 194.876 201.432 194.876 199.347V192.767H192.238V187.54H194.876V180.361H202.056ZM216.714 200.612C216.046 199.815 215.712 198.585 215.712 196.917C215.712 195.277 216.053 194.055 216.731 193.259C217.412 192.449 218.274 192.045 219.318 192.045C220.304 192.045 221.132 192.444 221.799 193.24C222.47 194.027 222.804 195.228 222.804 196.848C222.804 198.585 222.47 199.843 221.799 200.63C221.143 201.417 220.297 201.809 219.266 201.809C218.246 201.809 217.396 201.411 216.714 200.612ZM211.417 189.9C209.493 191.741 208.531 194.086 208.531 196.935C208.531 199.997 209.67 202.472 211.946 204.36C213.799 205.884 216.228 206.648 219.232 206.648C222.597 206.648 225.232 205.733 227.131 203.902C229.045 202.061 230 199.704 230 196.83C230 194.273 229.231 192.121 227.695 190.373C225.784 188.203 222.955 187.119 219.213 187.119C215.941 187.121 213.341 188.045 211.417 189.9Z"
    fill="#FFFFFE" />
  <path fill-rule="evenodd" clip-rule="evenodd"
    d="M82.7435 201.077H93.4464V195.384H82.7435V201.077Z" fill="#FFFFFE" />
</svg>
