<svg viewBox="0 0 230 204" fill="none" xmlns="http://www.w3.org/2000/svg">
  <path fill-rule="evenodd" clip-rule="evenodd"
    d="M115.001 143.227C75.9839 143.227 44.3575 119.466 44.3575 90.1582C44.3575 65.7956 66.2203 45.2835 96.0055 39.0448L81.8474 51.5041C81.8474 51.5041 90.96 46.9056 97.1633 45.4727C98.9633 45.0573 100.575 44.5898 102.143 44.1351L102.143 44.1351L102.143 44.1351C104.591 43.4251 106.93 42.7466 109.708 42.3471C113.324 46.1108 123.673 57.7686 123.673 67.8714C125.283 56.5497 122.577 46.2302 121.428 42.542C123.695 42.9481 125.703 43.5307 127.791 44.1363C129.357 44.5905 130.967 45.0575 132.764 45.4727C138.967 46.9056 148.079 51.5041 148.079 51.5041L133.434 38.9254C142.332 40.7299 150.526 43.8144 157.671 47.8837C156.844 48.3031 156.111 48.8361 155.592 49.5803C152.97 53.3267 155.762 59.81 161.826 64.0609C167.753 68.2133 174.58 68.668 177.339 65.1919C182.635 72.6314 185.642 81.1292 185.642 90.1582C185.642 119.466 154.017 143.227 115.001 143.227ZM144.738 32.0667L144.745 32.0562C148.455 29.4579 156.92 26.469 156.92 26.469C142.743 24.4524 133.639 26.7575 133.639 26.7575C139.974 18.2223 166.891 13.1442 166.891 13.1442C136.987 11.7027 121.949 25.893 121.949 25.893C122.811 17.3597 136.126 0 136.126 0C117.918 12.5672 114.858 25.6064 114.858 25.6064C114.858 25.6064 111.797 12.5672 93.5896 0C93.5896 0 106.908 17.3597 107.77 25.893C107.77 25.893 92.7277 11.7027 62.8261 13.1442C62.8261 13.1442 89.7439 18.2223 96.0761 26.7575C96.0761 26.7575 86.9721 24.4524 72.793 26.469C72.793 26.469 81.3778 29.4981 85.0497 32.1116L85.0583 32.1432C51.1249 41.6765 26.872 66.9438 26.872 96.6186C26.872 134.47 66.3406 165.157 115.031 165.157C163.72 165.157 203.193 134.47 203.193 96.6186C203.193 66.8702 178.812 41.5476 144.738 32.0667ZM7.17975 193.256C7.17975 194.866 7.47755 196.035 8.07697 196.761C8.6869 197.478 9.45432 197.836 10.3821 197.836C11.2383 197.836 11.9551 197.483 12.5288 196.778C13.1148 196.064 13.4088 194.866 13.4088 193.187C13.4088 191.706 13.1215 190.623 12.5469 189.928C11.9837 189.235 11.2965 188.89 10.488 188.89C9.51445 188.89 8.71553 189.254 8.09511 189.982C7.48519 190.698 7.17975 191.789 7.17975 193.256ZM0 176.843H7.23224V185.791C7.94812 185.038 8.75753 184.476 9.65953 184.099C10.5759 183.724 11.5829 183.538 12.6872 183.537C14.9627 183.537 16.845 184.357 18.335 186.002C19.8259 187.634 20.5704 189.982 20.5704 193.045C20.5704 195.089 20.2316 196.891 19.5491 198.452C18.8695 200.002 17.9255 201.165 16.7171 201.939C15.5202 202.702 14.1896 203.085 12.7225 203.085C11.4674 203.085 10.3172 202.814 9.27296 202.274C8.48645 201.851 7.63122 201.058 6.70345 199.897V202.663H0V176.843ZM30.7082 202.663H23.5294V176.843H30.7082V202.663ZM54.6136 202.663H47.9273V199.632C46.9289 200.877 45.92 201.763 44.8997 202.29C43.8907 202.819 42.648 203.085 41.1685 203.085C39.1984 203.085 37.6493 202.497 36.5239 201.322C35.4091 200.138 34.8516 198.317 34.8516 195.864V183.959H42.0495V194.242C42.0495 195.417 42.2652 196.25 42.7005 196.743C43.1348 197.237 43.7438 197.483 44.5303 197.483C45.3864 197.483 46.0851 197.155 46.6235 196.497C47.1752 195.84 47.4501 194.661 47.451 192.958V183.959H54.6136V202.663ZM70.213 188.678C70.8248 189.276 71.199 190.268 71.3402 191.654H64.2836C64.402 190.541 64.6769 189.7 65.1112 189.137C65.7908 188.233 66.7004 187.78 67.8382 187.78C68.8242 187.78 69.6155 188.08 70.213 188.678ZM64.2664 195.089H78.6269V194.278C78.6269 191.812 78.2222 189.812 77.4109 188.275C76.6014 186.735 75.4236 185.561 73.8744 184.751C72.3262 183.941 70.213 183.537 67.5404 183.537C64.2416 183.538 61.6559 184.44 59.7794 186.249C57.9143 188.057 56.9808 190.422 56.9808 193.344C56.9808 195.401 57.4446 197.191 58.3724 198.716C59.3097 200.232 60.4895 201.34 61.9088 202.045C63.3272 202.736 65.2754 203.085 67.7504 203.085C70.6024 203.085 72.7901 202.679 74.3154 201.869C75.8388 201.048 77.1426 199.698 78.2222 197.817L71.1637 197.166C70.7189 197.731 70.3018 198.125 69.9161 198.347C69.2814 198.698 68.6123 198.874 67.9088 198.874C66.7949 198.874 65.892 198.469 65.199 197.66C64.7074 197.095 64.3963 196.24 64.2664 195.089ZM102.558 176.773V183.959H106.5V189.191H102.558V195.828C102.558 196.627 102.634 197.155 102.787 197.413C103.02 197.813 103.431 198.012 104.018 198.012C104.547 198.012 105.284 197.859 106.236 197.554L106.764 202.503C104.991 202.889 103.337 203.085 101.802 203.085C100.017 203.085 98.7057 202.855 97.8601 202.398C97.0144 201.939 96.3863 201.246 95.9778 200.318C95.5769 199.381 95.3784 197.865 95.3784 195.776V189.191H92.7401V183.959H95.3784V176.773H102.558ZM117.215 197.042C116.548 196.244 116.213 195.013 116.213 193.344C116.213 191.702 116.552 190.479 117.234 189.682C117.914 188.873 118.777 188.468 119.821 188.468C120.806 188.468 121.633 188.867 122.303 189.665C122.97 190.452 123.303 191.654 123.303 193.274C123.303 195.013 122.97 196.273 122.303 197.06C121.645 197.848 120.8 198.241 119.768 198.241C118.746 198.241 117.896 197.841 117.215 197.042ZM111.921 186.32C109.997 188.162 109.034 190.51 109.034 193.363C109.034 196.427 110.172 198.905 112.447 200.795C114.3 202.321 116.731 203.085 119.732 203.085C123.099 203.085 125.732 202.169 127.635 200.337C129.545 198.493 130.502 196.134 130.502 193.256C130.502 190.698 129.735 188.543 128.197 186.794C126.284 184.622 123.458 183.537 119.717 183.537C116.442 183.538 113.844 184.463 111.921 186.32ZM134.003 183.959H140.691V186.688C141.652 185.55 142.621 184.738 143.594 184.259C144.578 183.777 145.764 183.538 147.148 183.537C148.638 183.537 149.819 183.8 150.685 184.328C151.554 184.857 152.263 185.644 152.815 186.688C153.941 185.467 154.967 184.641 155.894 184.204C156.821 183.759 157.966 183.538 159.325 183.537C161.333 183.537 162.899 184.135 164.026 185.333C165.15 186.518 165.713 188.38 165.713 190.914V202.663H158.535V192.006C158.535 191.161 158.371 190.533 158.042 190.121C157.559 189.475 156.963 189.154 156.246 189.154C155.402 189.154 154.721 189.46 154.204 190.07C153.69 190.68 153.431 191.661 153.431 193.011V202.663H146.251V192.358C146.251 191.538 146.204 190.98 146.111 190.686C145.958 190.216 145.693 189.84 145.32 189.559C144.942 189.266 144.504 189.119 143.999 189.119C143.178 189.119 142.504 189.431 141.974 190.051C141.447 190.673 141.184 191.696 141.184 193.116V202.663H134.003V183.959ZM179.65 194.72C180.719 194.448 181.745 194.137 182.73 193.786V194.929C182.73 195.823 182.584 196.55 182.29 197.114C182.008 197.668 181.522 198.135 180.829 198.522C180.15 198.908 179.411 199.104 178.614 199.104C177.851 199.104 177.27 198.929 176.871 198.576C176.484 198.211 176.29 197.748 176.29 197.186C176.29 196.691 176.488 196.25 176.887 195.863C177.275 195.487 178.195 195.108 179.65 194.72ZM169.674 189.295L176.518 190.016C176.8 189.207 177.168 188.655 177.628 188.362C178.214 187.986 179.095 187.798 180.267 187.798C181.181 187.798 181.821 187.974 182.186 188.326C182.548 188.678 182.73 189.295 182.73 190.176C181.839 190.528 180.994 190.815 180.196 191.037C179.396 191.249 177.656 191.625 174.971 192.165C172.729 192.612 171.191 193.293 170.359 194.209C169.526 195.125 169.11 196.292 169.11 197.712C169.11 199.227 169.684 200.5 170.833 201.534C171.996 202.567 173.69 203.085 175.919 203.085C177.597 203.084 179.07 202.825 180.336 202.307C181.264 201.923 182.198 201.277 183.134 200.372C183.217 200.913 183.299 201.31 183.382 201.571C183.463 201.815 183.638 202.181 183.908 202.663H190.632C190.257 201.887 190.007 201.253 189.892 200.76C189.788 200.255 189.734 199.562 189.734 198.681V190.422C189.734 189.541 189.559 188.62 189.206 187.658C188.854 186.683 188.373 185.931 187.762 185.402C186.895 184.641 185.81 184.141 184.508 183.905C183.204 183.66 181.481 183.537 179.334 183.537C177.996 183.538 176.752 183.637 175.604 183.836C174.454 184.035 173.551 184.317 172.894 184.682C171.979 185.185 171.274 185.783 170.782 186.477C170.301 187.159 169.93 188.097 169.674 189.295ZM202.054 176.773V183.959H205.996V189.191H202.054V195.828C202.054 196.627 202.131 197.155 202.284 197.413C202.518 197.813 202.929 198.012 203.516 198.012C204.043 198.012 204.782 197.859 205.733 197.554L206.261 202.503C204.489 202.889 202.836 203.085 201.299 203.085C199.515 203.085 198.201 202.855 197.355 202.398C196.513 201.939 195.884 201.246 195.474 200.318C195.074 199.381 194.874 197.865 194.874 195.776V189.191H192.236V183.959H194.874V176.773H202.054ZM216.713 197.042C216.045 196.244 215.711 195.013 215.711 193.344C215.711 191.702 216.051 190.479 216.731 189.682C217.411 188.873 218.273 188.468 219.316 188.468C220.302 188.468 221.132 188.867 221.799 189.665C222.469 190.452 222.803 191.654 222.803 193.274C222.803 195.013 222.469 196.273 221.799 197.06C221.141 197.848 220.297 198.241 219.266 198.241C218.243 198.241 217.395 197.841 216.713 197.042ZM211.416 186.32C209.492 188.162 208.529 190.51 208.529 193.363C208.529 196.427 209.669 198.905 211.946 200.795C213.798 202.321 216.227 203.085 219.23 203.085C222.596 203.085 225.231 202.169 227.131 200.337C229.045 198.493 230 196.134 230 193.256C230 190.698 229.23 188.543 227.695 186.794C225.782 184.622 222.955 183.537 219.212 183.537C215.939 183.538 213.34 184.463 211.416 186.32Z"
    fill="#1A1919" />
  <path fill-rule="evenodd" clip-rule="evenodd"
    d="M80.5814 195.343H91.0039V189.814H80.5814V195.343Z" fill="#1A1919" />
</svg>
