<svg width="48" height="48" fill="none" xmlns="http://www.w3.org/2000/svg">
  <path
    d="M32.6379 1.62219C38.6153 3.93043 43.3357 8.42833 45.9313 14.2876C48.5262 20.1474 48.6853 26.6668 46.3783 32.6464C44.0707 38.6255 39.574 43.3478 33.7164 45.9441C30.6684 47.299 27.3702 47.9994 24.0347 48C14.8285 48 6.0312 42.672 2.06865 33.7252C-0.526264 27.866 -0.685347 21.346 1.62226 15.367C3.92925 9.38793 8.4259 4.66556 14.2841 2.06932C20.1418 -0.52632 26.6599 -0.685446 32.6379 1.62219ZM23.9924 1.22286C20.8178 1.22617 17.6791 1.89522 14.7789 3.18683C9.2195 5.65057 4.95149 10.1327 2.76245 15.8074C0.572796 21.4821 0.722805 27.6699 3.18586 33.2309C6.94638 41.7215 15.2967 46.7778 24.0329 46.7778C27.1983 46.7778 30.3284 46.1129 33.221 44.8272C38.781 42.3634 43.0484 37.8812 45.2381 32.2071C47.4277 26.5324 47.2771 20.3447 44.814 14.7837C42.351 9.22154 37.8701 4.95296 32.1975 2.7627C29.5808 1.74767 26.799 1.22561 23.9924 1.22286ZM22.0822 40.59L24.1872 40.7661L24.123 41.5309L22.9762 41.4353L22.9296 41.9901L23.9918 42.0784L23.9283 42.8438L22.8661 42.7549L22.8105 43.4204L23.9573 43.5166L23.8926 44.2929L21.7876 44.1174L22.0822 40.59ZM28.4231 40.2548L28.5592 41.0245L27.7063 41.1757L28.1848 43.8905L27.2382 44.0575L26.7591 41.3421L25.9032 41.4934L25.7677 40.7231L28.4231 40.2548ZM18.5316 39.6934L19.4607 39.9584L18.8909 41.9556C18.8219 42.1964 18.8171 42.384 18.877 42.5183C18.9368 42.6532 19.0542 42.7452 19.2308 42.7954C19.4195 42.8499 19.5714 42.8347 19.6875 42.7512C19.803 42.6677 19.8962 42.5032 19.9657 42.2581L20.5343 40.2651L21.4592 40.5289L20.8749 42.5776C20.7478 43.0229 20.5222 43.3321 20.1992 43.5033C19.8756 43.6758 19.4758 43.6939 18.9979 43.5578C18.5316 43.4247 18.2068 43.2032 18.0241 42.8946C17.8414 42.5855 17.8142 42.2085 17.9412 41.7632L18.5316 39.6934ZM31.6199 39.4689C32.0058 39.6456 32.3106 40.0104 32.5351 40.564C32.7583 41.1158 32.7915 41.5908 32.6355 41.9883C32.48 42.3852 32.1395 42.6901 31.6144 42.9025C31.0967 43.1125 30.6418 43.1282 30.2492 42.9509C29.8561 42.7742 29.5482 42.41 29.325 41.8582C29.1042 41.3118 29.0728 40.8393 29.2306 40.44C29.3885 40.0406 29.7296 39.7357 30.2529 39.5233C30.7779 39.3116 31.2334 39.2934 31.6199 39.4689ZM16.0855 38.4373L16.9383 38.882L15.659 41.3354L16.8736 41.9689L16.5167 42.6538L14.4493 41.5763L16.0855 38.4373ZM30.5468 40.2506C30.1004 40.4315 30.0061 40.8423 30.265 41.4825C30.522 42.1166 30.8717 42.3441 31.3156 42.1644C31.5419 42.0736 31.6773 41.9284 31.7239 41.7305C31.7711 41.5321 31.7282 41.2695 31.5963 40.944C31.4632 40.616 31.3102 40.3964 31.1366 40.2851C30.963 40.1732 30.7664 40.1623 30.5468 40.2506ZM35.5117 36.2991L37.6445 39.1228L36.9398 39.6552L36.0046 38.4173C35.9509 38.3458 35.8981 38.2736 35.8462 38.2007C35.7074 38.003 35.5707 37.804 35.436 37.6035L35.4179 37.6168L36.3784 40.0794L35.6484 40.6318L33.5313 39.0363L33.5144 39.0496C33.8029 39.3751 34.02 39.6341 34.1652 39.8265L35.0913 41.0529L34.4114 41.566L32.2786 38.7422L33.3008 37.9702L35.407 39.5282L35.4221 39.5161L34.4888 37.0717L35.5117 36.2991ZM13.499 36.4854L14.4698 37.2587C14.8485 37.56 15.085 37.8395 15.1793 38.0973C15.2743 38.355 15.2271 38.6025 15.039 38.8384C14.93 38.9839 14.7767 39.09 14.6023 39.141C14.4414 39.1875 14.2689 39.1733 14.1178 39.101L14.1027 39.1192C14.2394 39.3031 14.3041 39.478 14.2962 39.6456C14.2902 39.8138 14.2188 39.982 14.0845 40.1514C13.8849 40.4025 13.6321 40.5247 13.3272 40.518C13.0224 40.512 12.706 40.3783 12.3788 40.1175L11.2954 39.2547L13.499 36.4854ZM12.9703 38.6944L12.507 39.2753L12.7719 39.4864C13.0066 39.674 13.2026 39.6685 13.3593 39.4713C13.4319 39.3793 13.4573 39.2837 13.4337 39.1845C13.4101 39.0853 13.3387 38.9879 13.2195 38.8929L12.9703 38.6944ZM13.8008 37.6507L13.4058 38.1469L13.6321 38.3272C13.7397 38.4131 13.8408 38.4579 13.9351 38.4603C14.0295 38.4633 14.1111 38.4216 14.1807 38.3338C14.3041 38.1789 14.2478 38.0071 14.0113 37.8189L13.8008 37.6507ZM37.1418 34.2177L40.6561 35.5046L40.0023 36.3287L39.3738 36.054L38.6558 36.9598L39.0635 37.5134L38.4066 38.3411L36.3446 35.2233L37.1418 34.2177ZM10.4764 32.67L11.0795 33.5255L10.3585 34.7792L11.7842 34.5245L12.3842 35.3758L9.94717 35.6619L8.81786 36.4588L8.25956 35.6662L9.36588 34.8869L10.4764 32.67ZM37.2041 35.0781C37.2591 35.141 37.3475 35.2475 37.469 35.3988C37.59 35.55 37.8223 35.8556 38.1652 36.316L38.6358 35.7231L38.0854 35.4823C37.9267 35.4144 37.7688 35.3446 37.6118 35.2729C37.4741 35.2118 37.3381 35.1469 37.2041 35.0781ZM39.0665 30.8742L39.7633 31.2276L39.3714 32.0008L41.8296 33.249L41.3941 34.1064L38.9365 32.8582L38.5433 33.6326L37.8459 33.2793L39.0665 30.8742ZM9.34229 30.058L9.84071 31.1943C10.0355 31.6378 10.1141 31.9948 10.0778 32.267C10.0409 32.5393 9.88426 32.736 9.60844 32.857C9.44417 32.9348 9.25911 32.9573 9.08099 32.9211C8.91683 32.8873 8.77085 32.7943 8.67088 32.6597L8.6485 32.6694C8.68358 32.8951 8.65939 33.0808 8.57531 33.226C8.49063 33.3706 8.34969 33.4862 8.15189 33.5733C7.85792 33.7022 7.57726 33.6931 7.31112 33.5449C7.04437 33.3973 6.82722 33.1317 6.65785 32.7481L6.10197 31.4799L9.34229 30.058ZM26.3635 13.809C26.3635 13.809 24.7715 15.8637 24.6699 16.8693C24.6699 16.8693 26.4536 15.1976 30.0212 15.367C30.0212 15.367 26.8147 15.9769 26.0587 16.9824C26.0587 16.9824 27.1426 16.7108 28.8362 16.9479C28.8362 16.9479 27.8201 17.3098 27.3791 17.6147C31.4439 18.7328 34.3461 21.7254 34.3461 25.2491C34.3461 29.721 29.6486 33.3464 23.8454 33.3464C18.0422 33.3464 13.346 29.721 13.346 25.2491C13.346 21.7369 16.2355 18.7552 20.2778 17.6256C19.8484 17.3213 18.8213 16.9594 18.8213 16.9594C20.515 16.7223 21.5989 16.9939 21.5989 16.9939C20.8422 15.9775 17.6357 15.3785 17.6357 15.3785C21.1924 15.1982 22.9877 16.8802 22.9877 16.8802C22.8855 15.8752 21.294 13.8199 21.294 13.8199C23.4619 15.3107 23.8345 16.8354 23.8345 16.8354C23.8345 16.8354 24.1956 15.2992 26.3635 13.809ZM7.84462 31.7649L7.16474 32.0638L7.30023 32.3735C7.4212 32.6482 7.59662 32.7354 7.82647 32.6337C7.93474 32.5865 8.00189 32.5133 8.02608 32.4147C8.05209 32.3161 8.03394 32.1969 7.97285 32.0565L7.84462 31.7649ZM9.06586 31.2288L8.48518 31.4835L8.60192 31.7491C8.65636 31.8756 8.72532 31.9621 8.80758 32.0081C8.88984 32.0547 8.98118 32.0553 9.0834 32.0111C9.26487 31.9312 9.29511 31.7528 9.17414 31.4763L9.06586 31.2288ZM41.783 27.7764C42.3582 27.9301 42.7575 28.1884 42.9819 28.5521C43.2057 28.9151 43.2444 29.3713 43.098 29.9189C42.9547 30.458 42.694 30.8313 42.3171 31.0388C41.9391 31.2469 41.4624 31.2736 40.8872 31.1205C40.3186 30.9686 39.9218 30.7097 39.698 30.3436C39.4742 29.9776 39.4349 29.5214 39.5801 28.9762C39.7258 28.4287 39.9853 28.0535 40.3585 27.8508C40.7311 27.6475 41.2066 27.6227 41.783 27.7764ZM26.0363 18.4049L27.7856 19.8957C27.7856 19.8957 26.6907 19.3536 25.957 19.1842C25.4489 19.071 25.0763 18.9131 24.6021 18.8345C24.7376 19.2634 25.0648 20.4832 24.8731 21.827C24.8731 20.6296 23.6428 19.252 23.2133 18.8115C22.6713 18.8907 22.2764 19.0602 21.7229 19.1842C20.9777 19.3536 19.8938 19.8957 19.8938 19.8957L21.5765 18.4279C18.0313 19.1618 15.4231 21.5898 15.4231 24.4699C15.4231 27.9368 19.183 30.749 23.8345 30.749C28.486 30.749 32.2568 27.9482 32.2677 24.4699C32.2677 23.3971 31.9066 22.3806 31.2636 21.4997L31.281 21.5265L31.2151 21.6037C30.8533 21.9419 30.0902 21.8672 29.423 21.398C28.7001 20.8898 28.3614 20.1214 28.6778 19.6815C28.7429 19.5901 28.831 19.5196 28.9358 19.4698C28.0323 18.9653 27.0534 18.6052 26.0363 18.4049ZM40.7196 28.7263C40.5261 28.7983 40.3991 28.949 40.338 29.1777C40.2134 29.6436 40.4856 29.9655 41.1527 30.1427C41.8139 30.3194 42.2058 30.176 42.3286 29.7132C42.3915 29.4778 42.3576 29.2824 42.2276 29.1263C42.0975 28.969 41.8623 28.8455 41.5223 28.7554C41.1812 28.6646 40.9132 28.6549 40.7196 28.7263ZM41.6427 13.9893L42.2826 15.2817L40.2273 16.3006C40.387 16.3024 40.6537 16.3338 41.0281 16.3943L42.9734 16.6751L43.6702 18.0818L40.8067 17.6316L38.9256 20.4015L38.2058 18.9494L39.5486 17.1113L39.1337 16.8427L37.5507 17.6274L36.9101 16.335L41.6427 13.9893ZM5.76929 15.03L6.6022 15.8752C6.19512 16.2394 5.91869 16.5861 5.77473 16.9171C5.69973 17.0877 5.67493 17.2251 5.70033 17.3285C5.71885 17.4235 5.78252 17.5034 5.87091 17.5427C5.96587 17.5845 6.07233 17.5724 6.19028 17.5064C6.30884 17.4405 6.56349 17.2323 6.95303 16.8826C7.32503 16.5456 7.65348 16.3423 7.94019 16.2739C8.22629 16.205 8.53297 16.2425 8.8596 16.3859C9.15962 16.5172 9.39189 16.7108 9.55763 16.9661C9.72336 17.2208 9.80744 17.5209 9.80991 17.8658C9.81228 18.2107 9.72881 18.5779 9.55884 18.9658C9.41609 19.2901 9.27454 19.5515 9.133 19.7517C8.99146 19.9514 8.81242 20.145 8.59587 20.3332L7.43149 19.8225C7.6692 19.6277 7.88333 19.4111 8.07387 19.1715C8.2638 18.9325 8.40897 18.6995 8.50817 18.4733C8.59345 18.2784 8.62309 18.1205 8.59587 17.9995C8.5753 17.8881 8.50039 17.7943 8.39627 17.7496C8.33428 17.7209 8.26452 17.7134 8.19787 17.7285C8.13193 17.743 8.05632 17.7799 7.96983 17.8386C7.88393 17.8973 7.68553 18.0673 7.37523 18.3492C7.09276 18.6033 6.84899 18.7806 6.64515 18.8805C6.45349 18.9771 6.24217 19.0282 6.02757 19.0299C5.81949 19.0299 5.5969 18.9779 5.35858 18.8732C4.91339 18.6778 4.63696 18.3625 4.53111 17.9269C4.42465 17.4913 4.49663 16.9891 4.74644 16.4185C4.96722 15.9145 5.30898 15.4523 5.76929 15.03ZM8.9092 10.313L9.8153 11.0488L8.99993 12.0531L12.1937 14.6476L11.2888 15.7615L8.09504 13.167L7.27785 14.1738L6.37174 13.4381L8.9092 10.313ZM38.1036 10.1454C38.533 10.2719 38.9304 10.5242 39.2946 10.9036C39.69 11.3134 39.9881 11.807 40.1668 12.3478L39.0526 12.8094C38.9845 12.6097 38.9037 12.4144 38.8107 12.225C38.7151 12.0333 38.5902 11.8578 38.4405 11.7046C38.2046 11.4578 37.9191 11.3622 37.5864 11.4172C37.2531 11.4717 36.9101 11.6689 36.5581 12.0078C35.825 12.712 35.7276 13.3449 36.2665 13.9052C36.4299 14.0746 36.6113 14.2162 36.8109 14.3299C37.0099 14.4443 37.2198 14.5496 37.44 14.647L36.5708 15.4831C36.1232 15.2992 35.7052 15.0052 35.3175 14.6016C34.7616 14.0238 34.5027 13.4199 34.5396 12.7913C34.5765 12.1621 34.9104 11.5449 35.5407 10.9393C35.9351 10.5599 36.353 10.3015 36.7952 10.1636C37.2195 10.0259 37.6756 10.0196 38.1036 10.1454ZM13.0441 7.11599L17.4476 10.5545L16.1423 11.4257L15.3753 10.7475L13.9394 11.7052L14.2654 12.6782L12.954 13.5537L11.4521 8.17905L13.0441 7.11599ZM34.5572 7.11538L35.7669 7.90012L32.8938 12.3333L31.684 11.5479L34.5572 7.11538ZM12.7393 8.36661C12.7889 8.48157 12.8651 8.67337 12.9685 8.94322C13.0714 9.21367 13.2607 9.75398 13.5371 10.5659L14.4777 9.93912L13.8063 9.34436C13.6551 9.21367 13.4627 9.04245 13.2292 8.83008C12.9957 8.61831 12.833 8.46342 12.7393 8.36661ZM19.3603 4.57178L19.6947 5.66691L18.0446 6.17212L18.3392 7.13595L19.8611 6.67007L20.1956 7.7658L18.6743 8.23169L19.2538 10.1285L17.9025 10.5417L16.3582 5.48963L19.3603 4.57178ZM29.2554 4.79685L30.9842 5.42247C31.615 5.65057 32.0391 5.95914 32.2562 6.34819C32.474 6.73663 32.4909 7.18375 32.3082 7.68896C32.1074 8.24379 31.788 8.61287 31.3495 8.79619C30.911 8.97952 30.389 8.96137 29.7829 8.74174L29.4042 8.605L28.8072 10.2531L27.4583 9.76426L29.2554 4.79685ZM24.5319 4.10408L24.5864 5.24822L22.8625 5.3305L22.9109 6.3379L24.5005 6.26167L24.5549 7.4058L22.9659 7.48204L23.0603 9.46356L21.6491 9.53072L21.3969 4.25413L24.5319 4.10408ZM30.2129 6.36936L29.7998 7.51108L30.0454 7.60002C30.2486 7.67323 30.4295 7.67505 30.5898 7.60486C30.7513 7.53528 30.868 7.40036 30.9394 7.20069C31.0604 6.8655 30.9346 6.63074 30.5613 6.49521L30.2129 6.36936Z"
    fill="#2A69A4" />
</svg>
