<svg width="48" height="36" fill="none" xmlns="http://www.w3.org/2000/svg">
  <g clip-path="url(#clip0_644_990)">
    <path fill-rule="evenodd" clip-rule="evenodd" d="M0 0H48V36H0V0Z" fill="#F7FCFF" />
    <path fill-rule="evenodd" clip-rule="evenodd" d="M0 22V25H48V22H0Z" fill="#E31D1C" />
    <path fill-rule="evenodd" clip-rule="evenodd" d="M0 27.5V30.5H48V27.5H0Z" fill="#E31D1C" />
    <path fill-rule="evenodd" clip-rule="evenodd" d="M0 11V14H48V11H0Z" fill="#E31D1C" />
    <path fill-rule="evenodd" clip-rule="evenodd" d="M0 33V36H48V33H0Z" fill="#E31D1C" />
    <path fill-rule="evenodd" clip-rule="evenodd" d="M0 16.5V19.5H48V16.5H0Z" fill="#E31D1C" />
    <path fill-rule="evenodd" clip-rule="evenodd" d="M0 0V3H48V0H0Z" fill="#E31D1C" />
    <path fill-rule="evenodd" clip-rule="evenodd" d="M0 5.5V8.5H48V5.5H0Z" fill="#E31D1C" />
    <path d="M30 0H0V19.5H30V0Z" fill="#2E42A5" />
    <path fill-rule="evenodd" clip-rule="evenodd"
      d="M2.58314 4.40782L1.49431 5.17114L1.86191 3.81274L0.894836 2.95186H2.15796L2.58162 1.84326L3.07836 2.95186H4.15516L3.3091 3.81274L3.63664 5.17114L2.58314 4.40782ZM8.5832 4.40782L7.49438 5.17116L7.86198 3.81274L6.8949 2.95188H8.15802L8.58168 1.84328L9.07842 2.95188H10.1552L9.30916 3.81274L9.6367 5.17116L8.5832 4.40782ZM13.4944 5.17116L14.5832 4.40782L15.6367 5.17116L15.3092 3.81274L16.1552 2.95188H15.0784L14.5817 1.84328L14.158 2.95188H12.8949L13.862 3.81274L13.4944 5.17116ZM20.5832 4.40782L19.4944 5.17116L19.862 3.81274L18.8949 2.95188H20.158L20.5816 1.84328L21.0784 2.95188H22.1552L21.3092 3.81274L21.6368 5.17116L20.5832 4.40782ZM1.49437 11.1712L2.5832 10.4078L3.6367 11.1712L3.30916 9.81274L4.15522 8.95188H3.07842L2.58168 7.84328L2.15802 8.95188H0.894898L1.86197 9.81274L1.49437 11.1712ZM8.5832 10.4078L7.49438 11.1712L7.86198 9.81274L6.8949 8.95188H8.15802L8.58168 7.84328L9.07842 8.95188H10.1552L9.30916 9.81274L9.6367 11.1712L8.5832 10.4078ZM13.4944 11.1712L14.5832 10.4078L15.6367 11.1712L15.3092 9.81274L16.1552 8.95188H15.0784L14.5817 7.84328L14.158 8.95188H12.8949L13.862 9.81274L13.4944 11.1712ZM20.5832 10.4078L19.4944 11.1712L19.862 9.81274L18.8949 8.95188H20.158L20.5816 7.84328L21.0784 8.95188H22.1552L21.3092 9.81274L21.6368 11.1712L20.5832 10.4078ZM1.49437 17.1712L2.5832 16.4078L3.6367 17.1712L3.30916 15.8127L4.15522 14.9519H3.07842L2.58168 13.8433L2.15802 14.9519H0.894898L1.86197 15.8127L1.49437 17.1712ZM8.5832 16.4078L7.49438 17.1712L7.86198 15.8127L6.8949 14.9519H8.15802L8.58168 13.8433L9.07842 14.9519H10.1552L9.30916 15.8127L9.6367 17.1712L8.5832 16.4078ZM13.4944 17.1712L14.5832 16.4078L15.6367 17.1712L15.3092 15.8127L16.1552 14.9519H15.0784L14.5817 13.8433L14.158 14.9519H12.8949L13.862 15.8127L13.4944 17.1712ZM20.5832 16.4078L19.4944 17.1712L19.862 15.8127L18.8949 14.9519H20.158L20.5816 13.8433L21.0784 14.9519H22.1552L21.3092 15.8127L21.6368 17.1712L20.5832 16.4078ZM25.4944 5.17116L26.5832 4.40782L27.6368 5.17116L27.3092 3.81274L28.1552 2.95188H27.0784L26.5816 1.84328L26.158 2.95188H24.8948L25.862 3.81274L25.4944 5.17116ZM26.5832 10.4078L25.4944 11.1712L25.862 9.81274L24.8948 8.95188H26.158L26.5816 7.84328L27.0784 8.95188H28.1552L27.3092 9.81274L27.6368 11.1712L26.5832 10.4078ZM25.4944 17.1712L26.5832 16.4078L27.6368 17.1712L27.3092 15.8127L28.1552 14.9519H27.0784L26.5816 13.8433L26.158 14.9519H24.8948L25.862 15.8127L25.4944 17.1712ZM5.5832 7.40782L4.49438 8.17116L4.86198 6.81274L3.8949 5.95188H5.15802L5.58168 4.84328L6.07842 5.95188H7.15522L6.30916 6.81274L6.6367 8.17116L5.5832 7.40782ZM10.4944 8.17116L11.5832 7.40782L12.6367 8.17116L12.3092 6.81274L13.1552 5.95188H12.0784L11.5817 4.84328L11.158 5.95188H9.8949L10.862 6.81274L10.4944 8.17116ZM17.5832 7.40782L16.4944 8.17116L16.862 6.81274L15.8949 5.95188H17.158L17.5817 4.84328L18.0784 5.95188H19.1552L18.3092 6.81274L18.6367 8.17116L17.5832 7.40782ZM4.49438 14.1712L5.5832 13.4078L6.6367 14.1712L6.30916 12.8127L7.15522 11.9519H6.07842L5.58168 10.8433L5.15802 11.9519H3.8949L4.86198 12.8127L4.49438 14.1712ZM11.5832 13.4078L10.4944 14.1712L10.862 12.8127L9.8949 11.9519H11.158L11.5817 10.8433L12.0784 11.9519H13.1552L12.3092 12.8127L12.6367 14.1712L11.5832 13.4078ZM16.4944 14.1712L17.5832 13.4078L18.6367 14.1712L18.3092 12.8127L19.1552 11.9519H18.0784L17.5817 10.8433L17.158 11.9519H15.8949L16.862 12.8127L16.4944 14.1712ZM23.5832 7.40782L22.4944 8.17116L22.862 6.81274L21.8948 5.95188H23.158L23.5816 4.84328L24.0784 5.95188H25.1552L24.3092 6.81274L24.6368 8.17116L23.5832 7.40782ZM22.4944 14.1712L23.5832 13.4078L24.6368 14.1712L24.3092 12.8127L25.1552 11.9519H24.0784L23.5816 10.8433L23.158 11.9519H21.8948L22.862 12.8127L22.4944 14.1712Z"
      fill="#F7FCFF" />
  </g>
  <defs>
    <clipPath id="clip0_644_990">
      <rect width="48" height="36" fill="white" />
    </clipPath>
  </defs>
</svg>
