<svg viewBox="0 0 191 181" fill="none" xmlns="http://www.w3.org/2000/svg">
  <path fill-rule="evenodd" clip-rule="evenodd"
    d="M127.684 34.9521L127.69 34.9402C131.709 32.1063 140.88 28.8497 140.88 28.8497C125.522 26.6528 115.66 29.1637 115.66 29.1637C122.518 19.8612 151.676 14.3258 151.676 14.3258C119.286 12.7556 102.991 28.223 102.991 28.223C103.927 18.9205 118.352 0 118.352 0C98.6268 13.6977 95.313 27.909 95.313 27.909C95.313 27.909 91.9977 13.6977 72.2744 0C72.2744 0 86.6988 18.9205 87.6329 28.223C87.6329 28.223 71.3388 12.7556 38.9485 14.3258C38.9485 14.3258 68.1077 19.8612 74.9659 29.1637C74.9659 29.1637 65.1043 26.6528 49.7457 28.8497C49.7457 28.8497 59.0457 32.1524 63.0202 34.9997L63.032 35.031C26.2726 45.426 0 72.9673 0 105.312C0 146.572 42.756 180.019 95.5007 180.019C148.244 180.019 191 146.572 191 105.312C191 72.884 164.593 45.2831 127.684 34.9521Z"
    fill="#FEFEFE" />
  <path fill-rule="evenodd" clip-rule="evenodd"
    d="M162.727 71.0087C159.916 75.0527 152.363 74.6136 145.858 70.0264C139.355 65.4391 136.36 58.4436 139.172 54.3997C141.984 50.3572 149.536 50.7962 156.041 55.3835C162.546 59.9692 165.539 66.9647 162.727 71.0087ZM127.684 34.9522L127.69 34.9418C131.71 32.1064 140.88 28.8513 140.88 28.8513C125.522 26.6529 115.66 29.1653 115.66 29.1653C122.518 19.8628 151.677 14.326 151.677 14.326C119.287 12.7572 102.993 28.2232 102.993 28.2232C103.929 18.9207 118.352 0.00012207 118.352 0.00012207C98.6282 13.6979 95.3129 27.9091 95.3129 27.9091C95.3129 27.9091 91.9976 13.6979 72.2744 0.00012207C72.2744 0.00012207 86.6988 18.9207 87.6344 28.2232C87.6344 28.2232 71.3402 12.7572 38.9484 14.326C38.9484 14.326 68.1077 19.8628 74.9674 29.1653C74.9674 29.1653 65.1043 26.6529 49.7457 28.8513C49.7457 28.8513 59.0457 32.154 63.0217 35.0013L63.032 35.0311C26.2726 45.4276 0.00146484 72.9674 0.00146484 105.312C0.00146484 146.572 42.7574 180.019 95.5007 180.019C148.244 180.019 191 146.572 191 105.312C191 72.8856 164.593 45.2847 127.684 34.9522Z"
    fill="#009FE3" />
  <path fill-rule="evenodd" clip-rule="evenodd"
    d="M95.4683 156.111C53.2046 156.111 18.9445 130.216 18.9445 98.2707C18.9445 71.7147 42.6275 49.3545 74.8922 42.5599L59.5543 56.1371C59.5543 56.1371 69.4263 51.1257 76.1456 49.5643C81.1385 48.4034 84.7982 46.8703 89.7364 46.1589C93.6518 50.2609 104.861 62.9674 104.861 73.98C106.607 61.6382 103.676 50.3904 102.429 46.3717C106.73 47.1442 110.169 48.509 114.711 49.5643C121.431 51.1257 131.302 56.1371 131.302 56.1371L115.434 42.4289C125.152 44.41 134.102 47.8021 141.881 52.294C145.492 50.8042 151.069 51.8773 156.041 55.384C161.52 59.2464 164.491 64.8115 163.617 68.8882C163.484 69.6041 163.249 70.2799 162.877 70.8916L162.886 70.8871C168.695 79.0376 171.992 88.3624 171.992 98.2707C171.992 130.216 137.732 156.111 95.4683 156.111ZM127.684 34.9527L127.69 34.9408C131.71 32.1069 140.88 28.8518 140.88 28.8518C125.522 26.6534 115.66 29.1643 115.66 29.1643C122.518 19.8618 151.678 14.3265 151.678 14.3265C119.287 12.7577 102.993 28.2236 102.993 28.2236C103.929 18.9211 118.352 0.000610352 118.352 0.000610352C98.6284 13.6984 95.3131 27.9096 95.3131 27.9096C95.3131 27.9096 91.9978 13.6984 72.2745 0.000610352C72.2745 0.000610352 86.699 18.9211 87.6346 28.2236C87.6346 28.2236 71.3404 12.7577 38.9486 14.3265C38.9486 14.3265 68.1079 19.8618 74.9661 29.1643C74.9661 29.1643 65.1044 26.6534 49.7459 28.8518C49.7459 28.8518 59.0459 32.153 63.0219 35.0003L63.0322 35.0316C26.2728 45.4266 0.00164795 72.9679 0.00164795 105.312C0.00164795 146.571 42.7561 180.018 95.5008 180.018C148.244 180.018 191 146.571 191 105.312C191 72.8846 164.593 45.2852 127.684 34.9527Z"
    fill="#1D1D1B" />
</svg>
