<svg width="50" height="30" fill="none" xmlns="http://www.w3.org/2000/svg">
  <path fill-rule="evenodd" clip-rule="evenodd"
    d="M46.1782 0.648841C46.4233 0.643707 46.667 0.687605 46.895 0.777959C47.1229 0.868313 47.3305 1.0033 47.5056 1.17499C47.8619 1.52299 48.0677 2.00115 48.0779 2.50423V27.3571C48.083 27.8578 47.8918 28.3406 47.5453 28.7021C47.1991 29.0602 46.7283 29.2652 46.2345 29.2688H3.3105C3.06551 29.2739 2.82198 29.2299 2.5942 29.1395C2.36642 29.0492 2.15898 28.9143 1.98404 28.7427C1.62627 28.3918 1.42045 27.9145 1.4108 27.4135V2.56146C1.40572 2.06076 1.59691 1.57799 1.94342 1.21653C2.28957 0.858379 2.76127 0.65438 3.25419 0.649764L46.1782 0.648841Z"
    fill="#D10024" />
  <path
    d="M32.3967 11.9641H30.0456V8.98528H37.4034V11.9641H34.9886V22.2536H32.3967V11.9631V11.9641ZM19.9425 13.8102V11.1028C19.9425 11.1028 19.4994 8.98528 17.8656 8.98528H13.2123V22.2619H18.4453C18.4453 22.2619 19.9499 21.4404 19.9499 20.136V17.3391C19.9499 17.3391 19.733 15.6241 18.34 15.6241C18.7933 15.6111 19.2216 15.4108 19.5262 15.0684C19.8308 14.7259 19.984 14.2708 19.9508 13.8102H19.9425ZM17.213 17.7896V19.3496C17.2141 19.3884 17.2073 19.427 17.1932 19.4632C17.1791 19.4993 17.1579 19.5323 17.1308 19.5601C17.1039 19.5877 17.0715 19.6094 17.0358 19.6238C17 19.6383 16.9617 19.6452 16.9231 19.644H15.724V17.4619H16.924C17.3265 17.4619 17.213 17.7896 17.213 17.7896ZM17.213 12.5465V14.1065C17.2141 14.1453 17.2073 14.1839 17.1932 14.2201C17.1791 14.2562 17.1579 14.2892 17.1308 14.317C17.1039 14.3446 17.0715 14.3663 17.0358 14.3808C17 14.3952 16.9617 14.4021 16.9231 14.401H15.724V12.2271H16.924C17.3265 12.2271 17.213 12.5382 17.213 12.5382V12.5474V12.5465ZM26.7206 15.6241C26.7206 15.6241 28.3305 15.3933 28.3305 13.9828V10.8979C28.1357 9.73482 27.1111 8.90959 25.9563 8.98528H21.496V22.2619H23.9754V17.5597H25.24C25.24 17.5597 25.7062 17.4213 25.7062 17.9705V22.2619H28.3711V17.0677C28.3711 17.0677 27.7914 15.6241 26.7613 15.6241H26.7206ZM25.24 14.1785H24.0253V12.2262H25.24C25.24 12.2262 25.7477 12.3157 25.7477 12.5456V13.8102C25.7477 13.8102 25.7874 14.22 25.24 14.22V14.1785Z"
    fill="white" />
  <path
    d="M45.7692 0.692383H4.23078C2.70137 0.692383 1.46155 1.93221 1.46155 3.46161V26.5385C1.46155 28.0679 2.70137 29.3078 4.23078 29.3078H45.7692C47.2986 29.3078 48.5385 28.0679 48.5385 26.5385V3.46161C48.5385 1.93221 47.2986 0.692383 45.7692 0.692383Z"
    stroke="#EAEAEA" />
</svg>
