<svg width="49" height="30" fill="none" xmlns="http://www.w3.org/2000/svg">
  <path
    d="M46.0154 0.692383H3.62546C2.43036 0.692383 1.46154 1.6612 1.46154 2.85631V26.7007C1.46154 27.8958 2.43036 28.8646 3.62546 28.8646H46.0154C47.2105 28.8646 48.1793 27.8958 48.1793 26.7007V2.85631C48.1793 1.6612 47.2105 0.692383 46.0154 0.692383Z"
    fill="#FCC310" stroke="#EAEAEA" />
  <path d="M47.2519 22.7474H2.68421V12.8901H47.2519V22.7474Z" fill="#FCC310" />
  <path
    d="M17.0538 17.0087C16.859 17.273 16.5332 17.7325 16.3349 18.0009C16.2342 18.1374 16.0524 18.3852 16.6552 18.3852C17.2929 18.3852 19.8288 18.3852 19.8288 18.3852C19.8288 18.3852 20.3403 17.6878 20.7691 17.1045C21.3524 16.3111 20.8196 14.6602 18.7343 14.6602C16.8679 14.6602 10.5221 14.6602 10.5221 14.6602L9.09823 16.599C9.09823 16.599 16.4799 16.599 16.8588 16.599C17.2506 16.599 17.2453 16.7485 17.0538 17.0087ZM14.7223 18.8635C14.1195 18.8635 14.3014 18.6152 14.402 18.4787C14.6003 18.2103 14.9315 17.7557 15.1263 17.4913C15.318 17.2311 15.3231 17.0817 14.9308 17.0817C14.5522 17.0817 11.3815 17.0817 11.3815 17.0817L8.52182 20.9767C8.52182 20.9767 13.6293 20.9767 15.4958 20.9767C17.7991 20.9767 19.0815 19.4066 19.4768 18.8637C19.4768 18.8635 15.3598 18.8635 14.7223 18.8635ZM19.259 20.9767H23.3502L24.9011 18.8632L20.8105 18.8637C20.8092 18.8635 19.259 20.9767 19.259 20.9767ZM29.8146 14.6602L28.2454 16.7963H26.4196L27.988 14.6602H23.8982L21.1619 18.3852H31.1685L33.904 14.6602H29.8146ZM25.176 20.9767H29.2656L30.8173 18.8637H26.7277C26.7262 18.8635 25.176 20.9767 25.176 20.9767ZM2.68421 19.6971V20.1459H8.38184L8.711 19.6971H2.68421ZM9.32341 18.8635H2.68421V19.3118H8.99349L9.32341 18.8635ZM2.68421 20.9767H7.77145L8.09909 20.5304H2.68421V20.9767ZM41.2479 20.1456H47.2519V19.6968H41.5776L41.2479 20.1456ZM40.638 20.9767H47.2519V20.5304H40.9654L40.638 20.9767ZM42.189 18.8635L41.8601 19.3123H47.2519V18.8635H42.189ZM36.8322 18.3852L39.5682 14.6602H35.2366C35.2351 14.6602 32.4986 18.3852 32.4986 18.3852H36.8322ZM32.1479 18.8635C32.1479 18.8635 31.8489 19.2729 31.7036 19.4701C31.1901 20.1655 31.6443 20.9767 33.3205 20.9767C35.2569 20.9767 39.8887 20.9767 39.8887 20.9767L41.4404 18.8637L32.1479 18.8635Z"
    fill="#D50029" />
  <path fill-rule="evenodd" clip-rule="evenodd"
    d="M38.9179 7.50417C38.066 7.50417 37.375 8.18809 37.375 9.03046C37.375 9.87255 38.066 10.5565 38.9179 10.5565C39.7723 10.5565 40.463 9.87255 40.463 9.03046C40.463 8.18809 39.7723 7.50417 38.9179 7.50417ZM35.4624 13.1324L36.5618 12.0344H37.6491L36.5511 13.1324H35.4624ZM38.0191 13.1324H36.9301L38.0285 12.0344H39.1171L38.0191 13.1324ZM40.4688 13.1324L39.3691 12.0344H40.4583L41.5564 13.1324H40.4688ZM41.9358 13.1324L40.8388 12.0344H41.925L43.0234 13.1324H41.9358ZM39.1616 11.8383C36.3098 11.8358 35.2068 9.38471 35.3552 7.52492L36.193 7.263C36.0564 8.31864 36.3864 9.08124 36.6165 9.43089C36.3447 7.93573 37.4847 6.72437 38.9146 6.72437C40.2002 6.72219 41.2635 7.65274 41.2588 8.98318C41.4478 8.47545 41.5774 7.70029 41.6042 7.1603L43.5356 7.63581C43.3817 9.87474 41.6813 11.8383 39.1616 11.8383Z"
    fill="#231F20" />
  <path fill-rule="evenodd" clip-rule="evenodd"
    d="M22.4996 10.0292C22.1482 10.0292 21.9711 10.2718 21.9429 10.5889H23.0083C22.9909 10.2879 22.8508 10.0292 22.4996 10.0292ZM28.4243 10.0568C28.017 10.0568 27.82 10.4086 27.82 10.7664C27.82 11.1586 27.9473 11.5877 28.4243 11.5877C28.905 11.5877 29.0322 11.1633 29.0322 10.7664C29.0322 10.4009 28.8362 10.0568 28.4243 10.0568ZM25.8629 9.2942H25.6338V10.2786H25.8629C26.1919 10.2786 26.4859 10.1748 26.4859 9.79761C26.4859 9.42475 26.2011 9.2942 25.8629 9.2942ZM5.67625 9.2942H5.31236V11.5047H5.67625C6.22362 11.5047 6.75221 11.1024 6.75221 10.4009C6.75221 9.69491 6.22362 9.2942 5.67625 9.2942ZM8.84001 10.0292C8.48851 10.0292 8.31114 10.2718 8.28297 10.5889H9.35005C9.33099 10.2879 9.19119 10.0292 8.84001 10.0292ZM5.55026 12.0133H4.6564V8.78592H5.55026C6.55022 8.78592 7.43496 9.11915 7.43496 10.4009C7.43496 11.6811 6.55022 12.0133 5.55026 12.0133ZM8.97042 11.6153C9.27658 11.6153 9.53657 11.5047 9.77115 11.3755V11.8795C9.54265 12.0056 9.27985 12.069 8.9428 12.069C8.14787 12.069 7.68474 11.6153 7.68474 10.8344C7.68474 10.1458 8.05442 9.57582 8.8024 9.57582C9.69658 9.57582 9.94884 10.1827 9.94884 11.0166H8.28297C8.31114 11.3998 8.58333 11.6153 8.97042 11.6153ZM12.4483 12.0133H11.8532V11.6904H11.8438C11.6514 11.921 11.3818 12.069 11.0527 12.069C10.483 12.069 10.2345 11.6719 10.2345 11.1357V9.63234H10.8626V10.9038C10.8626 11.1968 10.867 11.5877 11.2696 11.5877C11.7225 11.5877 11.8202 11.1024 11.8202 10.7967V9.63234H12.4483V12.0133ZM13.9572 12.069C13.4648 12.069 13.1938 11.7699 13.1938 11.2993V10.0847H12.7318V9.63234H13.1938V9.156L13.8215 8.95743V9.63234H14.38V10.0847H13.8215V11.1968C13.8215 11.3998 13.8779 11.5877 14.1169 11.5877C14.2291 11.5877 14.3366 11.5648 14.4018 11.5255L14.4217 12.0133C14.2899 12.0515 14.1452 12.069 13.9572 12.069ZM15.4358 12.069C15.1965 12.069 14.9539 12.0261 14.7251 11.9671L14.761 11.4596C14.9583 11.558 15.165 11.6153 15.3797 11.6153C15.5386 11.6153 15.7908 11.558 15.7908 11.3247C15.7908 10.8576 14.7005 11.1772 14.7005 10.3165C14.7005 9.80225 15.1545 9.57582 15.6471 9.57582C15.9398 9.57582 16.1324 9.62333 16.3299 9.66487L16.2865 10.1322C16.095 10.0664 15.9539 10.0292 15.7251 10.0292C15.5584 10.0292 15.3562 10.0907 15.3562 10.2958C15.3562 10.673 16.4463 10.4304 16.4463 11.2914C16.4463 11.85 15.9467 12.069 15.4358 12.069ZM17.8736 12.069C17.0823 12.069 16.6855 11.5358 16.6855 10.8118C16.6855 10.1226 17.0978 9.57582 17.8515 9.57582C18.1021 9.57582 18.2856 9.60476 18.4594 9.65341L18.4022 10.1458C18.2903 10.095 18.1687 10.0568 17.9775 10.0568C17.5874 10.0568 17.3404 10.3627 17.3404 10.8118C17.3404 11.2499 17.5515 11.5877 17.9913 11.5877C18.1687 11.5877 18.3658 11.5255 18.4735 11.476L18.5003 11.9889C18.3183 12.0447 18.1304 12.069 17.8736 12.069ZM21.0399 12.0133H20.4129V10.7399C20.4129 10.4493 20.4082 10.0568 20.0057 10.0568C19.5519 10.0568 19.4536 10.5427 19.4536 10.8481V12.0133H18.8272V8.54443H19.4536V9.95414H19.463C19.6216 9.72357 19.8935 9.57582 20.2203 9.57582C20.7923 9.57582 21.0399 9.97516 21.0399 10.5116V12.0133ZM22.6303 11.6153C22.9334 11.6153 23.1962 11.5047 23.4297 11.3755V11.8795C23.2009 12.0056 22.9406 12.069 22.601 12.069C21.8064 12.069 21.343 11.6153 21.343 10.8344C21.343 10.1458 21.713 9.57582 22.4623 9.57582C23.3562 9.57582 23.6082 10.1827 23.6082 11.0166H21.9429C21.9711 11.3998 22.2416 11.6153 22.6303 11.6153ZM25.9109 10.7885H25.6338V12.0133H24.9792V8.78592H25.8079C26.5188 8.78592 27.1696 8.98882 27.1696 9.76075C27.1696 10.5135 26.6122 10.7885 25.9109 10.7885ZM28.4243 12.069C27.6285 12.069 27.1651 11.5255 27.1651 10.8391C27.1651 10.0522 27.7125 9.57582 28.4243 9.57582C29.1407 9.57582 29.6881 10.0522 29.6881 10.8391C29.6881 11.5255 29.2247 12.069 28.4243 12.069ZM30.6837 12.069C30.4443 12.069 30.2015 12.0261 29.973 11.9671L30.0089 11.4596C30.2061 11.558 30.4114 11.6153 30.6262 11.6153C30.7873 11.6153 31.0384 11.558 31.0384 11.3247C31.0384 10.8576 29.9487 11.1772 29.9487 10.3165C29.9487 9.80225 30.4023 9.57582 30.895 9.57582C31.189 9.57582 31.3802 9.62333 31.5764 9.66487L31.5352 10.1322C31.3429 10.0664 31.2028 10.0292 30.9743 10.0292C30.8063 10.0292 30.604 10.0907 30.604 10.2958C30.604 10.673 31.6941 10.4304 31.6941 11.2914C31.6941 11.85 31.1948 12.069 30.6837 12.069ZM33.1317 12.069C32.6404 12.069 32.3699 11.7699 32.3699 11.2993V10.0847H31.9066V9.63234H32.3699V9.156L32.9977 8.95743V9.63234H33.5531V10.0847H32.9977V11.1968C32.9977 11.3998 33.0527 11.5877 33.292 11.5877C33.4039 11.5877 33.5125 11.5648 33.5777 11.5255L33.5951 12.0133C33.4647 12.0515 33.3199 12.069 33.1317 12.069Z"
    fill="#231F20" />
</svg>
