<svg width="50" height="30" fill="none" xmlns="http://www.w3.org/2000/svg">
  <path
    d="M45.7692 0.692383H4.23077C2.70137 0.692383 1.46154 1.93221 1.46154 3.46161V26.5385C1.46154 28.0679 2.70137 29.3078 4.23077 29.3078H45.7692C47.2986 29.3078 48.5385 28.0679 48.5385 26.5385V3.46161C48.5385 1.93221 47.2986 0.692383 45.7692 0.692383Z"
    fill="white" stroke="#EAEAEA" />
  <path fill-rule="evenodd" clip-rule="evenodd"
    d="M26.9385 9.0646C26.8191 9.12185 26.6824 9.13147 26.5562 9.09152C26.43 9.05156 26.3238 8.96503 26.2591 8.84953C26.1928 8.7333 26.1719 8.59668 26.2004 8.46597C26.2289 8.33526 26.3047 8.21969 26.4132 8.14153L30.0354 6.01845L25.4532 3.27691C25.318 3.19 25.1607 3.1438 25 3.1438C24.8393 3.1438 24.682 3.19 24.5468 3.27691L19.9009 6.04614L25.5068 9.34153V14.0769C25.5068 14.3723 25.2723 14.6123 24.9815 14.6123C24.8409 14.6108 24.7066 14.5536 24.6082 14.4533C24.5097 14.3529 24.4551 14.2175 24.4563 14.0769V9.92306L19.3942 6.94153V12.4154C19.4015 12.7292 19.5649 13.0181 19.828 13.1815L24.5477 15.9231C24.8246 16.1003 25.1772 16.1003 25.4542 15.9231L30.1895 13.1538C30.4535 12.9904 30.6178 12.7015 30.6252 12.3877V6.94153L26.9385 9.0646Z"
    fill="#E21331" />
  <path
    d="M23.2609 21.3139C23.5351 21.2197 23.824 21.1754 24.112 21.1847C24.5089 21.1431 24.9022 21.2816 25.1902 21.5622C25.4782 21.8428 25.6305 22.2379 25.6065 22.6431C25.6692 23.4554 25.0729 24.1662 24.2754 24.2308H23.9763V25.5047H24.0492C24.4446 25.5554 24.8463 25.5156 25.224 25.3883C25.6017 25.261 25.9455 25.0495 26.2295 24.7699C26.8102 24.2013 27.1065 23.3954 27.0382 22.5785C27.0657 21.8733 26.8158 21.1854 26.3422 20.6622C26.1104 20.406 25.8299 20.1986 25.517 20.0521C25.2042 19.9056 24.8652 19.8231 24.52 19.8093H24.1212C23.3248 19.8118 22.5358 19.962 21.7942 20.2524V27.5262H23.2526L23.2618 21.3139H23.2609ZM31.3037 21.3139C31.0194 21.1864 30.7095 21.1264 30.3982 21.1385C30.2006 21.1232 30.002 21.1517 29.8167 21.2221C29.6314 21.2924 29.464 21.4029 29.3265 21.5456C29.1869 21.69 29.0801 21.8628 29.0132 22.0522C28.9463 22.2415 28.9209 22.4431 28.9388 22.6431C28.8926 23.4711 29.5129 24.181 30.3252 24.2308H30.5606C30.784 24.2511 31.0083 24.2511 31.2308 24.2308V21.3139H31.3037ZM32.6975 25.2462C31.9894 25.4194 31.2629 25.5062 30.5338 25.5047C28.7218 25.5047 27.5449 24.4893 27.5449 22.7354C27.4618 21.2585 28.5677 19.9911 30.0169 19.9016H30.3068C30.6465 19.8868 30.9862 19.9431 31.3037 20.0677V17.5754H32.7529L32.6975 25.2462ZM19.5658 21.3139C19.2816 21.1872 18.9722 21.1272 18.6612 21.1385C18.4671 21.1299 18.2734 21.1635 18.0935 21.237C17.9136 21.3105 17.7517 21.422 17.6191 21.5641C17.3486 21.853 17.2129 22.2462 17.248 22.6431C17.2018 23.4711 17.8203 24.181 18.6326 24.2308H18.8597C19.0905 24.2308 19.3212 24.2096 19.5483 24.1662V21.3139H19.5658ZM20.9966 25.2462C20.2882 25.4196 19.5613 25.5064 18.832 25.5047C17.0209 25.5047 15.844 24.4893 15.844 22.7354C15.7563 21.2631 16.8538 19.9957 18.2985 19.9016H18.6243C18.964 19.8868 19.3028 19.9441 19.6212 20.0677V17.5754H21.052V25.2462H20.9966Z"
    fill="#3B3B3A" />
</svg>
