<svg width="50" height="31" fill="none" xmlns="http://www.w3.org/2000/svg">
  <path
    d="M46.7939 1H3.20612C1.98771 1 1 1.99149 1 3.21456V28.0736C1 29.2966 1.98771 30.2881 3.20612 30.2881H46.7939C48.0123 30.2881 49 29.2966 49 28.0736V3.21456C49 1.99149 48.0123 1 46.7939 1Z"
    fill="white" stroke="#EAEAEA" />
  <path fill-rule="evenodd" clip-rule="evenodd"
    d="M41.3755 23.7284C40.8729 23.7284 40.4974 23.4969 40.4974 22.9735H40.792C40.792 23.3325 41.0329 23.512 41.3906 23.512C41.7238 23.512 41.9835 23.3552 41.9835 23.0359C41.9835 22.7477 41.6795 22.6721 41.3614 22.5824C40.9755 22.4737 40.5558 22.3556 40.5558 21.8927C40.5558 21.3797 40.9953 21.2285 41.4047 21.2285C41.8772 21.2285 42.2292 21.408 42.2433 21.9031H41.9496C41.9355 21.6197 41.7285 21.46 41.4141 21.46C41.1685 21.46 40.8692 21.5545 40.8692 21.8653C40.8692 22.1487 41.1685 22.229 41.4875 22.3131C41.8734 22.417 42.2969 22.5304 42.2969 22.9934C42.2969 23.5309 41.8734 23.7284 41.3755 23.7284Z"
    fill="#2A007C" />
  <path fill-rule="evenodd" clip-rule="evenodd"
    d="M35.7106 12.8541L37.0734 14.3242L38.3864 12.8541H41.1901L38.4494 15.8679L41.2278 18.9064H38.3101L36.9595 17.424L35.6212 18.9064H32.8052L35.5581 15.8802L32.8052 12.8541H35.7106ZM27.3953 9.37354V18.9064H32.8052V16.7759H29.6871V14.8977H32.8052V12.8532H29.6871V11.4974H32.8052V9.37354H27.3953Z"
    fill="#FF5900" />
  <path fill-rule="evenodd" clip-rule="evenodd"
    d="M23.7294 17.4552C22.8871 17.4552 22.3647 16.688 22.3647 15.8868C22.3647 15.0318 22.8193 14.2099 23.7294 14.2099C24.6706 14.2099 25.0471 15.0318 25.0471 15.8878C25.0471 16.6984 24.649 17.4552 23.7294 17.4552ZM15.6203 14.9269C15.7643 14.3223 16.2443 13.9255 16.8438 13.9255C17.5035 13.9255 17.9591 14.31 18.0795 14.9269H15.6203ZM25.113 9.37354V13.2755H25.0875C24.5821 12.7067 23.9515 12.5093 23.2193 12.5093C21.7191 12.5093 20.5887 13.5069 20.1915 14.8259C19.7398 13.3728 18.5727 12.4819 16.8419 12.4819C15.4377 12.4819 14.328 13.0988 13.7492 14.104V12.8541H10.8447V11.4983H14.0137V9.37354H8.25743V18.9064H10.8457V14.8995H13.4264C13.3468 15.2071 13.3069 15.5237 13.3078 15.8415C13.3078 17.8293 14.8607 19.2257 16.8428 19.2257C18.5097 19.2257 19.609 18.4604 20.1897 17.065H17.9694C17.6701 17.4845 17.4424 17.6082 16.8419 17.6082C16.1464 17.6082 15.5468 17.0149 15.5468 16.311H20.0645C20.2603 17.8907 21.5186 19.2531 23.2438 19.2531C23.9883 19.2531 24.6706 18.8941 25.0875 18.2894H25.112V18.9073H27.3944V9.37354H25.113ZM27.3963 23.6728V20.2564H29.3257V20.5115H27.7144V21.7709H29.2579V22.026H27.7144V23.4167H29.3981V23.6718L27.3963 23.6728ZM29.6278 23.6728L30.569 22.4455L29.6767 21.2853H30.0381L30.7666 22.2329L31.481 21.2853H31.8424L30.936 22.4455L31.881 23.6728H31.5139L30.7327 22.6571L29.9901 23.6728H29.6278ZM34.0325 22.4786C34.0325 21.9684 33.8141 21.4686 33.2363 21.4686C32.6904 21.4686 32.4927 21.9079 32.4927 22.4786C32.4927 23.0492 32.6904 23.4876 33.2363 23.4876C33.8141 23.4876 34.0325 22.9887 34.0325 22.4786ZM32.4937 24.5684H32.1991V21.9986C32.1991 21.7624 32.1991 21.5215 32.184 21.2853H32.4739L32.4833 21.6443C32.6668 21.3609 32.9078 21.2286 33.2701 21.2286C34.0231 21.2286 34.345 21.8371 34.345 22.4786C34.345 23.121 34.0221 23.7285 33.2701 23.7285C32.9313 23.7285 32.6678 23.6019 32.4937 23.3279V24.5684ZM35.8584 21.5064C35.3708 21.5064 35.2014 21.9079 35.2014 22.3227V23.6728H34.9068V21.9873C34.9068 21.7567 34.9021 21.5215 34.8927 21.2853H35.1826L35.2014 21.6292C35.3473 21.3562 35.5883 21.2286 35.9111 21.2286C35.9553 21.2286 36.0024 21.2333 36.0466 21.2381V21.5262C35.9788 21.5168 35.9252 21.5064 35.8584 21.5064ZM36.4165 22.3142H37.8725C37.8725 21.8465 37.6466 21.4459 37.1835 21.4459C36.7638 21.4459 36.4739 21.7577 36.4165 22.3142ZM36.4071 22.5305C36.4071 23.069 36.6668 23.5112 37.2024 23.5112C37.6165 23.5112 37.8104 23.2419 37.8819 22.9746H38.1624C38.0306 23.4744 37.7181 23.7285 37.1638 23.7285C36.4203 23.7285 36.0927 23.1909 36.0927 22.522C36.0927 21.838 36.4344 21.2286 37.2014 21.2286C37.9788 21.2286 38.1859 21.8937 38.1859 22.5305H36.4071ZM39.3341 23.7285C38.8334 23.7285 38.4579 23.497 38.4579 22.9736H38.7516C38.7516 23.3326 38.9925 23.5121 39.3501 23.5121C39.6833 23.5121 39.9431 23.3553 39.9431 23.036C39.9431 22.7478 39.6391 22.6722 39.3219 22.5825C38.936 22.4738 38.5153 22.3557 38.5153 21.8928C38.5153 21.3798 38.9539 21.2286 39.3643 21.2286C39.8367 21.2286 40.1897 21.4081 40.2028 21.9032H39.9092C39.8951 21.6198 39.6871 21.4601 39.3737 21.4601C39.128 21.4601 38.8287 21.5546 38.8287 21.8654C38.8287 22.1488 39.128 22.2291 39.4461 22.3132C39.832 22.4171 40.2565 22.5305 40.2565 22.9935C40.2565 23.531 39.833 23.7285 39.3341 23.7285Z"
    fill="#2A007C" />
</svg>
