<svg width="50" height="31" fill="none" xmlns="http://www.w3.org/2000/svg">
  <path
    d="M46.7939 1H3.20612C1.98771 1 1 1.99149 1 3.21456V28.0736C1 29.2966 1.98771 30.2881 3.20612 30.2881H46.7939C48.0123 30.2881 49 29.2966 49 28.0736V3.21456C49 1.99149 48.0123 1 46.7939 1Z"
    fill="white" stroke="#EAEAEA" />
  <path
    d="M43.1045 18.608C43.1045 18.1066 42.749 17.7395 42.2593 17.7395C41.7703 17.7395 41.4144 18.1066 41.4144 18.608C41.4144 19.1085 41.7703 19.475 42.2593 19.475C42.749 19.475 43.1045 19.1079 43.1045 18.608ZM42.0372 18.6525V19.2198H41.8539V17.9689H42.3093C42.5761 17.9689 42.6986 18.0855 42.6986 18.3127C42.6986 18.4526 42.604 18.5634 42.4822 18.5795V18.5848C42.5879 18.6017 42.6268 18.696 42.6486 18.8687C42.6652 18.9806 42.6874 19.1746 42.7273 19.2202H42.5105C42.46 19.1026 42.4651 18.9362 42.4263 18.7969C42.3941 18.691 42.3376 18.6523 42.2162 18.6523H42.0382V18.6529L42.0372 18.6525ZM42.2644 18.4908C42.4423 18.4908 42.4932 18.3961 42.4932 18.3125C42.4932 18.2136 42.4423 18.1355 42.2644 18.1355H42.0372V18.4912H42.2644V18.4908ZM41.2129 18.608C41.2129 17.9903 41.7032 17.5728 42.2585 17.5728C42.8153 17.5728 43.3051 17.9903 43.3051 18.608C43.3051 19.2244 42.8155 19.6424 42.2585 19.6424C41.7032 19.6424 41.2129 19.2244 41.2129 18.608Z"
    fill="#FF5A00" />
  <path
    d="M37.5892 19.4621L36.3837 18.1102L35.1888 19.4621H32.6746L35.1319 16.7013L32.6746 13.9398H35.2673L36.485 15.2813L37.6567 13.9398H40.1587L37.7136 16.6897L40.1927 19.4621H37.5892ZM27.8466 19.4621V10.7627H32.6746V12.7018H29.8917V13.9398H32.6746V15.8056H29.8917V17.5181H32.6746V19.4621H27.8466Z"
    fill="#FF5A00" />
  <path
    d="M25.8091 10.7627V14.3229H25.7865C25.3356 13.8047 24.7721 13.6241 24.1186 13.6241C22.7795 13.6241 21.7707 14.5351 21.4166 15.7385C21.0127 14.4122 19.9712 13.5993 18.4271 13.5993C17.1728 13.5993 16.1827 14.1621 15.6655 15.0793V13.9396H13.0734V12.702H15.9024V10.7631H10.7627V19.4621H13.0734V15.8056H15.3765C15.3055 16.0868 15.2701 16.3757 15.2709 16.6657C15.2709 18.4795 16.657 19.7541 18.4267 19.7541C19.9142 19.7541 20.8953 19.0551 21.4138 17.7825H19.4334C19.1658 18.1655 18.9624 18.2786 18.4269 18.2786C17.8061 18.2786 17.2704 17.7368 17.2704 17.0953H21.3027C21.4776 18.5363 22.6003 19.7787 24.1412 19.7787C24.8058 19.7787 25.4143 19.4519 25.7863 18.8997H25.8087V19.4633H27.846V10.7631H25.8091V10.7627ZM17.3347 15.8317C17.4634 15.2789 17.892 14.9176 18.4269 14.9176C19.0159 14.9176 19.4226 15.2677 19.5294 15.8317H17.3347ZM24.5727 18.1382C23.822 18.1382 23.3555 17.4388 23.3555 16.7082C23.3555 15.9272 23.7614 15.177 24.5727 15.177C25.4145 15.177 25.7499 15.9277 25.7499 16.7082C25.7499 17.4482 25.3948 18.1382 24.5727 18.1382Z"
    fill="#29007C" />
</svg>
