<svg width="50" height="30" fill="none" xmlns="http://www.w3.org/2000/svg">
  <path
    d="M45.7692 0.692383H4.23078C2.70137 0.692383 1.46155 1.93221 1.46155 3.46161V26.5385C1.46155 28.0679 2.70137 29.3078 4.23078 29.3078H45.7692C47.2986 29.3078 48.5385 28.0679 48.5385 26.5385V3.46161C48.5385 1.93221 47.2986 0.692383 45.7692 0.692383Z"
    fill="white" stroke="#EAEAEA" />
  <path fill-rule="evenodd" clip-rule="evenodd"
    d="M42.3889 12.7311C42.7369 12.7311 43.2345 12.8078 43.5336 12.9093L43.9056 10.9062C43.4186 10.8446 42.9286 10.8107 42.4379 10.8047C40.0997 10.8047 39.0059 12.2244 39.0059 13.8222C39.0059 15.901 41.0948 15.8751 41.0948 16.7881C41.0948 17.2191 40.7717 17.473 40.1256 17.473C39.652 17.473 39.0308 17.3715 38.6579 17.1933L38.2591 19.3238C38.6819 19.4253 39.304 19.4751 39.9262 19.4751C42.016 19.4751 43.4579 18.0555 43.4579 16.3321C43.4579 14.3032 41.3689 14.2782 41.3689 13.3653C41.3689 13.0108 41.6422 12.7311 42.3889 12.7311ZM31.792 10.8296C28.5585 10.8296 26.4936 13.2896 26.4936 16.3062C26.4936 18.157 27.4637 19.4751 29.9265 19.4751C30.8957 19.4751 31.9166 19.2979 32.7373 18.9176L33.508 14.7601H31.3693L30.8966 17.2948C30.6973 17.3456 30.4988 17.3456 30.2994 17.3456C29.2296 17.3456 28.8566 16.7373 28.8566 15.9259C28.8566 14.4555 29.752 12.8835 31.5926 12.8835C32.0911 12.8835 32.6634 12.985 33.1849 13.1373C33.2302 13.1655 33.2814 13.1828 33.3345 13.1881C33.4831 13.2638 33.6576 13.3145 33.7573 13.3911L34.2049 11.1342C33.4152 10.9394 32.6054 10.8372 31.792 10.8296Z"
    fill="#1F2457" />
  <path fill-rule="evenodd" clip-rule="evenodd"
    d="M15.5736 10.8296L15.0013 13.6948H19.0065C15.6982 18.6896 9.13048 17.8533 7.38956 15.7736C5.89694 13.9994 7.19017 10.9311 11.6182 9.05542C7.2151 10.4243 4.75325 13.9994 6.22094 16.4077C7.86217 19.1456 12.9871 20.2616 17.5379 18.9434C20.5729 17.8533 21.8671 16.3311 22.3397 15.5206L21.5929 19.4751H24.5782L26.1954 10.8554H15.5736V10.8296Z"
    fill="#F8B515" />
  <path fill-rule="evenodd" clip-rule="evenodd"
    d="M35.1501 10.8296L33.508 19.4502H37.4385L37.8363 17.2948H36.0455L37.2889 10.8296H35.1501Z"
    fill="#1F2457" />
</svg>
