<svg width="48" height="30" fill="none" xmlns="http://www.w3.org/2000/svg">
  <path
    d="M44.6019 0.777832H2.97269C1.82186 0.777832 0.888916 1.71077 0.888916 2.86161V27.1385C0.888916 28.2893 1.82186 29.2223 2.97269 29.2223H44.6019C45.7527 29.2223 46.6857 28.2893 46.6857 27.1385V2.86161C46.6857 1.71077 45.7527 0.777832 44.6019 0.777832Z"
    fill="white" stroke="#EAEAEA" />
  <path fill-rule="evenodd" clip-rule="evenodd"
    d="M25.1917 12.6119C25.4475 12.3655 25.7314 12.1853 26.0681 12.1076C26.5698 11.9918 27.057 12.0528 27.5131 12.2875C27.9199 12.497 28.1228 12.8741 28.2356 13.3082C28.2909 13.5216 28.319 13.7392 28.3191 13.9601C28.3198 14.9431 28.3203 15.9261 28.3205 16.9092C28.3205 17.0724 28.2904 17.1028 28.1332 17.1028C27.6645 17.1027 27.1958 17.1024 26.727 17.1017C26.5685 17.1015 26.5382 17.0708 26.5377 16.9096C26.5356 16.1568 26.5342 15.4041 26.5315 14.6513C26.5309 14.5139 26.5267 14.3766 26.4994 14.241C26.4154 13.8228 26.2333 13.6559 25.7619 13.7133C25.3931 13.7582 25.2143 13.9676 25.1784 14.3475C25.156 14.5843 25.1598 14.8212 25.16 15.0583C25.1605 15.6804 25.1627 16.3025 25.1637 16.9246C25.164 17.0713 25.1356 17.1014 24.9939 17.1016C24.5117 17.1022 24.0294 17.1022 23.5472 17.1016C23.4147 17.1014 23.3849 17.0725 23.3849 16.9391C23.3843 15.4233 23.3843 13.9075 23.3846 12.3917C23.3846 12.2515 23.4153 12.2216 23.5509 12.2215C24.0163 12.2211 24.4816 12.2209 24.947 12.2206C25.1484 12.2205 25.1684 12.2419 25.1622 12.4427C25.1606 12.4967 25.1507 12.553 25.1917 12.6119ZM16.8967 17.2316C16.2858 17.2387 15.6885 17.146 15.1008 16.981C14.9791 16.9468 14.9583 16.912 14.9891 16.7876C15.0821 16.4118 15.1759 16.0362 15.2703 15.6608C15.3005 15.5406 15.3358 15.5204 15.4519 15.565C15.8696 15.7254 16.2967 15.8453 16.744 15.8785C16.9495 15.8938 17.155 15.8973 17.3596 15.8668C17.4197 15.8578 17.4773 15.8387 17.5317 15.81C17.6142 15.7665 17.659 15.7 17.6547 15.6033C17.6505 15.5091 17.5965 15.4505 17.516 15.4182C17.3646 15.3575 17.2051 15.3306 17.0443 15.31C16.6666 15.2617 16.2905 15.2059 15.9302 15.071C15.3961 14.8709 15.0633 14.4917 14.9931 13.914C14.9239 13.3455 15.1538 12.8966 15.6036 12.5626C15.9357 12.316 16.3174 12.1999 16.7176 12.1353C17.5352 12.0034 18.3436 12.0783 19.1477 12.2467C19.3061 12.2798 19.3163 12.3046 19.2795 12.4659C19.2018 12.8067 19.1255 13.1478 19.0492 13.489C19.0159 13.6379 18.9842 13.6589 18.8383 13.6145C18.4235 13.488 18.0027 13.3971 17.5673 13.4003C17.4059 13.4016 17.2437 13.409 17.086 13.4519C17.06 13.459 17.0338 13.466 17.0089 13.4761C16.9167 13.5136 16.8559 13.5743 16.8614 13.6846C16.8668 13.7927 16.9359 13.8429 17.0261 13.8666C17.2122 13.9156 17.4024 13.9433 17.5925 13.9704C17.977 14.0252 18.3556 14.1029 18.7149 14.2592C19.3914 14.5534 19.5827 15.0718 19.5077 15.7275C19.4367 16.3487 19.0672 16.7317 18.5216 16.9627C18.0274 17.172 17.5064 17.2261 16.9776 17.2316C16.9506 17.2319 16.9236 17.2316 16.8967 17.2316ZM19.8428 14.1027C19.8429 13.1784 19.8428 12.2541 19.8429 11.3298C19.8429 11.1502 19.8659 11.1265 20.0388 11.1265C20.504 11.1263 20.9692 11.1263 21.4344 11.1265C21.6007 11.1265 21.6231 11.1489 21.6225 11.3138C21.6218 11.5578 21.6212 11.8017 21.6203 12.0457C21.6198 12.2088 21.6339 12.225 21.7913 12.2248C22.2195 12.2244 22.6476 12.2228 23.0757 12.2218C23.2301 12.2213 23.245 12.247 23.1712 12.3864C22.9555 12.794 22.738 13.2007 22.5254 13.61C22.475 13.7069 22.4093 13.7504 22.3005 13.7458C22.1289 13.7387 21.9568 13.7428 21.7849 13.7415C21.6451 13.7405 21.62 13.764 21.62 13.9086C21.6201 14.8879 21.621 15.8672 21.6214 16.8464C21.6215 17.0991 21.621 17.0987 21.3766 17.0992C20.9383 17.1002 20.5001 17.1016 20.0619 17.103C19.869 17.1035 19.8428 17.0767 19.8427 16.8757C19.8427 15.9514 19.8427 15.0271 19.8428 14.1027ZM36.5799 12.7394C36.6691 12.6402 36.7373 12.5557 36.8199 12.4849C37.0702 12.2701 37.3652 12.1778 37.6852 12.1581C37.8264 12.1494 37.9682 12.1496 38.1095 12.1654C38.2064 12.1762 38.2551 12.2292 38.2525 12.3287C38.2403 12.7993 38.2287 13.2698 38.2146 13.7404C38.2117 13.837 38.176 13.8583 38.0712 13.8332C37.7846 13.7647 37.4972 13.7539 37.2103 13.826C36.8491 13.9167 36.6323 14.1761 36.5957 14.5526C36.5661 14.8578 36.582 15.1638 36.5804 15.4694C36.5778 15.9402 36.5822 16.411 36.583 16.8818C36.5833 17.0779 36.5579 17.1032 36.3694 17.1029C35.9143 17.1021 35.4591 17.1014 35.0039 17.1005C34.8375 17.1002 34.8151 17.0785 34.8151 16.9134C34.8151 15.4082 34.8152 13.903 34.8155 12.3978C34.8155 12.2441 34.8391 12.2208 34.9927 12.2207C35.4647 12.2205 35.9366 12.2205 36.4086 12.2207C36.5722 12.2208 36.584 12.2351 36.5804 12.4061C36.5781 12.5085 36.5799 12.611 36.5799 12.7394ZM6.00424 15.66C5.44095 15.6564 5.03505 15.2361 5.03505 14.6565C5.03505 14.0545 5.44205 13.6385 6.02446 13.6452C6.58841 13.6518 6.97032 14.078 6.96478 14.6946C6.95978 15.2477 6.54609 15.6635 6.00424 15.66ZM8.62727 13.5013C8.17679 12.2574 6.81867 11.6998 5.64837 12.2776C5.4806 12.3605 5.32678 12.4644 5.18341 12.5854C5.1591 12.606 5.13597 12.6473 5.09947 12.628C5.06457 12.6095 5.08376 12.5659 5.08204 12.5336C5.0795 12.4857 5.08221 12.4374 5.08286 12.3893C5.08487 12.2408 5.06761 12.2213 4.92338 12.2222C4.42435 12.2252 3.92531 12.2315 3.42628 12.2307C3.34143 12.2305 3.32081 12.2538 3.32109 12.339C3.32409 13.3324 3.32302 14.3257 3.32302 15.3191H3.31925C3.31925 16.1337 3.31937 16.9483 3.31917 17.7629C3.31908 17.9588 3.31761 18.1547 3.31744 18.3506C3.31736 18.4475 3.35993 18.4897 3.46085 18.489C3.96669 18.4854 4.47257 18.4849 4.97837 18.4897C5.06465 18.4905 5.07462 18.4578 5.07421 18.3838C5.07162 17.8923 5.07269 17.4008 5.07339 16.9093C5.07343 16.8832 5.05945 16.8471 5.08356 16.8327C5.11259 16.8154 5.14023 16.8435 5.1641 16.861C5.61687 17.1935 6.12677 17.2822 6.67079 17.2331C8.12057 17.1023 8.80156 15.8134 8.8522 14.8625C8.8773 14.3913 8.78634 13.9405 8.62727 13.5013ZM41.1128 15.6639C40.543 15.6654 40.1538 15.2528 40.1542 14.648C40.1547 14.0595 40.537 13.6622 41.104 13.6609C41.6781 13.6597 42.0797 14.0673 42.0795 14.6511C42.0793 15.2469 41.6826 15.6625 41.1128 15.6639ZM43.7604 10.8506C43.7604 10.7008 43.7605 10.7011 43.6165 10.7485C43.6007 10.7537 43.5831 10.7532 43.5667 10.7565C43.1172 10.8453 42.6678 10.9339 42.2186 11.0235C42.0536 11.0564 42.0324 11.0856 42.0331 11.2581C42.0348 11.6361 42.036 12.0142 42.0362 12.3922C42.0362 12.421 42.0522 12.4599 42.0227 12.4771C41.9919 12.4951 41.9679 12.4617 41.9441 12.4444C41.8589 12.3825 41.7713 12.3247 41.6765 12.2792C41.2581 12.0783 40.8174 12.0297 40.3643 12.0949C39.7397 12.1849 39.1893 12.4394 38.8202 12.9742C38.1432 13.9551 38.0916 15.0085 38.6029 16.073C39.2488 17.4177 41.0482 17.5874 41.9355 16.7327C41.9617 16.7075 41.9921 16.6868 42.0348 16.6525C42.0348 16.7727 42.0346 16.8721 42.0349 16.9715C42.0352 17.0809 42.0587 17.101 42.1676 17.1011C42.6598 17.1014 43.1521 17.0993 43.6442 17.1077C43.746 17.1094 43.7628 17.0817 43.7626 16.9854C43.7598 14.9405 43.7604 12.8955 43.7604 10.8506ZM31.5529 15.66C31.0028 15.6605 30.5952 15.2357 30.5914 14.6582C30.5877 14.0723 30.9895 13.6473 31.5492 13.6452C32.1237 13.643 32.5245 14.0605 32.5248 14.6612C32.525 15.2424 32.1191 15.6595 31.5529 15.66ZM33.117 12.4106C32.6742 12.1801 32.1988 12.0809 31.7044 12.0622C31.3558 12.0522 31.0115 12.0887 30.674 12.1786C30.056 12.3432 29.5248 12.6481 29.1518 13.1933C28.8117 13.6903 28.6992 14.2539 28.7291 14.8472C28.7782 15.8228 29.2339 16.5302 30.1112 16.9393C30.7889 17.2554 31.4971 17.318 32.2255 17.1763C32.7618 17.072 33.2505 16.8627 33.6551 16.4797C34.1141 16.0452 34.3389 15.4969 34.3983 14.8684C34.4923 13.8749 34.0844 12.9142 33.117 12.4106ZM11.9555 15.6599C11.4079 15.6585 10.9789 15.2208 10.9822 14.6665C10.9857 14.0695 11.392 13.6435 11.9566 13.6452C12.5216 13.6468 12.9244 14.0686 12.9242 14.6583C12.924 15.237 12.5137 15.6613 11.9555 15.6599ZM14.7489 14.0529C14.6014 13.2053 14.0857 12.6498 13.3281 12.323C12.6783 12.0427 11.9978 11.9942 11.3053 12.1261C10.7757 12.227 10.2921 12.4316 9.8887 12.8048C9.34373 13.3087 9.13143 13.9559 9.11806 14.6877C9.12266 14.7631 9.12643 14.8386 9.13205 14.9139C9.19996 15.8251 9.62485 16.498 10.4333 16.901C11.197 17.2816 11.997 17.3318 12.8173 17.1312C13.3934 16.9903 13.8928 16.7156 14.2719 16.242C14.7898 15.5949 14.8867 14.8452 14.7489 14.0529Z"
    fill="#01A0D7" />
</svg>
