<svg width="50" height="30" fill="none" xmlns="http://www.w3.org/2000/svg">
  <path fill-rule="evenodd" clip-rule="evenodd"
    d="M17.1972 3.01214C15.0797 4.2186 13.8806 10.2583 13.8806 14.9429C13.8806 19.6275 15.0068 25.6672 17.2055 26.8811C19.2262 28.0137 24.6917 26.3475 29.812 23.4352C34.2723 20.9734 38.2812 17.2968 38.2812 14.9512C38.2812 12.7441 34.2077 8.87922 29.8526 6.42568C25.8354 4.19368 21.3991 2.69276 18.8071 2.69276C18.2532 2.66506 17.7022 2.77214 17.1972 3.00383"
    fill="white" />
  <path fill-rule="evenodd" clip-rule="evenodd"
    d="M13.0277 1.74097H39.1508V28.0459H13.0277V1.74097Z" fill="white" />
  <path
    d="M45.7692 0.692383H4.23078C2.70137 0.692383 1.46155 1.93221 1.46155 3.46161V26.5385C1.46155 28.0679 2.70137 29.3078 4.23078 29.3078H45.7692C47.2986 29.3078 48.5385 28.0679 48.5385 26.5385V3.46161C48.5385 1.93221 47.2986 0.692383 45.7692 0.692383Z"
    fill="white" stroke="#EAEAEA" />
  <path fill-rule="evenodd" clip-rule="evenodd"
    d="M18.7111 1.74105C21.8421 1.74105 26.8978 3.7672 30.2385 5.64566C33.9335 7.74658 39.0945 11.9641 39.0945 14.8857C39.0945 17.9706 33.7646 22.0977 30.2385 24.1164C27.0188 25.9044 22.0508 28.0626 18.8154 28.0626C18.0931 28.0948 17.374 27.9483 16.7218 27.6361C14.1705 26.1758 12.9954 19.9967 12.9954 14.8857C12.9769 12.3223 13.2751 9.7672 13.8806 7.27951C14.5812 4.60443 15.5551 2.81551 16.6978 2.12597C17.3292 1.84175 18.0194 1.7099 18.7111 1.74105Z"
    fill="#A6ACB2" />
  <path fill-rule="evenodd" clip-rule="evenodd"
    d="M17.1972 3.01214C15.0797 4.2186 13.8806 10.2583 13.8806 14.9429C13.8806 19.6275 15.0068 25.6672 17.2055 26.8811C19.2262 28.0137 24.6917 26.3475 29.812 23.4352C34.2723 20.9734 38.2812 17.2968 38.2812 14.9512C38.2812 12.7441 34.2077 8.87922 29.8526 6.42568C25.8354 4.19368 21.3991 2.69276 18.8071 2.69276C18.2532 2.66506 17.7022 2.77214 17.1972 3.00383"
    fill="url(#paint0_radial_123_4792)" />
  <path
    d="M34.3766 17.1821V11.7175C34.6545 11.8588 34.912 12.0388 35.141 12.2511C35.272 12.3983 35.3463 12.5875 35.3505 12.7846V17.1166H34.3766M32.5656 17.1166V14.8772C32.5656 14.376 32.3883 14.1628 32.0025 14.1628C31.8385 14.1606 31.678 14.2093 31.5428 14.3021L31.1883 14.5163V17.0428H30.1268V13.4741C30.1245 13.4482 30.1324 13.4223 30.149 13.4021C30.157 13.3922 30.1669 13.384 30.1782 13.378C30.1894 13.372 30.2018 13.3683 30.2145 13.3671H31.108V13.6541C31.229 13.5692 31.3591 13.4972 31.4948 13.4418C31.716 13.3467 31.9546 13.2989 32.1954 13.3015C33.0003 13.3015 33.4102 13.7695 33.4102 14.6474V17.0188H32.5333"
    fill="white" />
  <path
    d="M26.6154 15.1966C26.3923 15.0622 26.1424 14.9784 25.8834 14.9511C25.7989 14.943 25.717 14.9179 25.6425 14.8772C25.3286 14.8034 25.0785 14.7378 25.0785 14.5569C25.0785 14.376 25.2557 14.2698 25.4975 14.2698C25.9258 14.2809 26.3505 14.364 26.7529 14.5163H26.8258V13.8018C26.8258 13.8018 26.8258 13.6957 26.7529 13.6957C26.3961 13.5675 26.0214 13.4955 25.6425 13.4824C25.2366 13.4609 24.8348 13.5731 24.4988 13.8018C24.3592 13.9037 24.2477 14.0392 24.1746 14.1958C24.1015 14.3523 24.0692 14.5248 24.0806 14.6972C24.0806 15.5169 24.748 15.648 25.3683 15.7957H25.4726C25.7551 15.8695 26.0689 15.9351 26.0689 16.1566C26.0677 16.2238 26.0417 16.2882 25.996 16.3375C25.8748 16.4239 25.7256 16.4618 25.5778 16.4437C25.1166 16.4127 24.6602 16.3303 24.2172 16.1981V16.9117C24.2172 16.9117 24.2172 17.0188 24.2892 17.0188C24.6972 17.1452 25.12 17.2163 25.5446 17.2311C26.6246 17.2311 27.1554 16.8055 27.1554 16.0255C27.09 15.696 26.9032 15.4031 26.632 15.2049M18.5818 15.3443C18.5818 14.8772 18.3003 14.4498 17.5434 14.4498H17.1003V16.1483H17.5194C17.6466 16.1655 17.776 16.1555 17.899 16.1189C18.022 16.0823 18.1358 16.0199 18.2329 15.936C18.3311 15.851 18.4107 15.7466 18.4666 15.6294C18.5226 15.5121 18.5536 15.3846 18.5578 15.2548M16.0222 13.6135C16.0236 13.5861 16.035 13.5601 16.0542 13.5404C16.0734 13.5207 16.0991 13.5086 16.1265 13.5064H17.4871C17.834 13.4604 18.1868 13.5156 18.5031 13.6655C18.8193 13.8153 19.0855 14.0534 19.2695 14.3511C19.457 14.6515 19.5563 14.9985 19.5563 15.3526C19.5563 15.7067 19.457 16.0537 19.2695 16.3541C19.0855 16.6518 18.8193 16.8899 18.5031 17.0398C18.1868 17.1896 17.834 17.2448 17.4871 17.1988H17.068V18.9877C16.7845 18.855 16.526 18.6745 16.3037 18.4541C16.1726 18.3069 16.0983 18.1177 16.0942 17.9206V13.6375M28.6609 12.5391C28.363 12.6671 28.0904 12.8475 27.856 13.0717C27.7249 13.2189 27.6506 13.4081 27.6465 13.6052V15.9849C27.5948 16.3357 27.7018 16.6929 27.9382 16.9541C28.1745 17.2163 28.5142 17.3538 28.8622 17.3298C29.1142 17.3575 29.3698 17.3095 29.5951 17.1914C29.5951 17.1914 29.6671 17.1914 29.6671 17.0843V16.4104C29.5314 16.4594 29.3902 16.4954 29.2489 16.5175C28.9351 16.5175 28.7255 16.3791 28.7255 15.8372V14.376H29.6025V13.6624C29.6048 13.6365 29.5968 13.6106 29.5803 13.5904C29.5721 13.5806 29.562 13.5725 29.5505 13.5666C29.5391 13.5608 29.5266 13.5573 29.5138 13.5563H28.7089V12.5963M22.6554 15.336C22.6554 14.6224 22.3009 14.3437 21.8505 14.3437C21.3991 14.3437 21.0455 14.664 21.0455 15.336C21.0455 16.0098 21.3991 16.3292 21.8505 16.3292C22.3009 16.3292 22.6554 16.0089 22.6554 15.336ZM23.6938 15.336C23.7141 15.5954 23.6782 15.856 23.5885 16.1003C23.4988 16.3445 23.3575 16.5665 23.1742 16.7511C22.9932 16.9333 22.7741 17.0732 22.5326 17.1605C22.2911 17.2478 22.0332 17.2804 21.7775 17.256C21.5244 17.2756 21.27 17.2393 21.0323 17.1498C20.7947 17.0604 20.5796 16.9198 20.4022 16.7381C20.2227 16.5539 20.0847 16.3336 19.9971 16.0918C19.9096 15.85 19.8746 15.5924 19.8945 15.336C19.8206 14.3538 20.5406 13.4944 21.5043 13.416H21.7775C22.0308 13.3965 22.2852 13.4329 22.5229 13.5226C22.7605 13.6122 22.9756 13.7529 23.1529 13.9348C23.5148 14.304 23.7003 14.8163 23.6615 15.336"
    fill="#383792" />
  <path
    d="M21.7785 8.7314H21.7046C21.5585 8.61832 21.4287 8.48569 21.3188 8.33725V8.2311C21.4406 8.0714 21.5818 7.92833 21.7378 7.80371H21.8098C21.9668 7.92833 22.1071 8.0714 22.2289 8.2311C22.2474 8.2551 22.2474 8.28925 22.2289 8.31325C22.1181 8.46094 21.9889 8.59386 21.8421 8.70648L21.7785 8.7314ZM20.1677 11.4065C20.0957 11.4065 20.0957 11.4065 20.0634 11.3326C20.067 11.2943 20.067 11.2556 20.0634 11.2173C19.9258 10.8572 19.7495 10.3228 19.6766 10.1188C19.6481 10.0583 19.633 9.99233 19.6322 9.92544C19.6314 9.85856 19.645 9.79228 19.672 9.7311C19.6984 9.67065 19.7377 9.61671 19.7871 9.57302C19.8366 9.52934 19.8949 9.49697 19.9581 9.47817L20.3126 9.3711L20.6994 9.26494H20.7714C20.8618 9.26586 20.9431 9.32033 20.9809 9.4034C21.1083 9.69325 21.2135 9.99233 21.2948 10.2988H20.8037C20.7317 10.1179 20.6994 9.97848 20.6265 9.83079H20.5545L20.3772 9.90463C20.3611 9.91103 20.3464 9.92062 20.334 9.93283C20.3216 9.94505 20.3118 9.95963 20.3052 9.97571C20.2919 10.0082 20.2919 10.0447 20.3052 10.0772C20.3052 10.0772 20.6588 11.0696 20.7631 11.3899V11.4637H20.6911L20.2 11.3899L20.1677 11.4065ZM21.5929 11.4065C21.52 11.4065 21.52 11.3326 21.52 11.2994V9.10156H22.1477C22.1569 9.12556 22.1569 9.1514 22.1477 9.1754V11.3077C22.1477 11.3077 22.1477 11.4148 22.0757 11.4148L21.5929 11.4056V11.4065ZM23.0172 11.4065H22.9452V11.3326C23.0495 11.0123 23.404 10.0191 23.404 10.0191C23.412 10.003 23.4167 9.98552 23.4178 9.9676C23.4189 9.94968 23.4164 9.93172 23.4105 9.91479C23.4044 9.89797 23.395 9.88257 23.3828 9.86955C23.3706 9.85652 23.3558 9.84616 23.3394 9.8391L23.1621 9.76525H23.0901L22.9129 10.2332H22.4218V10.1594C22.5031 9.85017 22.6083 9.54833 22.7357 9.25663C22.7558 9.21742 22.7856 9.18401 22.8223 9.1596C22.859 9.1352 22.9013 9.12062 22.9452 9.11725H23.0172L23.404 9.2234L23.7585 9.33048C23.8729 9.36094 23.9708 9.43756 24.0298 9.54279C24.0889 9.6471 24.1037 9.77171 24.0723 9.88802V9.9711C23.9747 10.3475 23.8453 10.715 23.6855 11.0696C23.6855 11.1434 23.6855 11.2089 23.6135 11.2505C23.5406 11.2911 23.6135 11.3243 23.5083 11.3243H23.0901L23.0172 11.4065ZM20.2157 12.5382C20.1975 12.5393 20.1792 12.5365 20.1622 12.53C20.1451 12.5235 20.1297 12.5133 20.1169 12.5003C20.104 12.4869 20.094 12.471 20.0877 12.4535C20.0813 12.436 20.0787 12.4174 20.08 12.3988V11.9723C20.0776 11.9267 20.0932 11.882 20.1234 11.8477C20.1383 11.8312 20.1563 11.8178 20.1764 11.8083C20.1966 11.7987 20.2184 11.7933 20.2406 11.7923H23.356C23.3795 11.7912 23.4031 11.795 23.425 11.8036C23.447 11.8122 23.4669 11.8253 23.4834 11.8422C23.5002 11.8593 23.5133 11.8797 23.5219 11.9021C23.5304 11.9244 23.5343 11.9484 23.5332 11.9723V12.3665C23.5332 12.4726 23.5332 12.5049 23.3957 12.5049H20.2406L20.2157 12.5382Z"
    fill="white" />
  <defs>
    <radialGradient id="paint0_radial_123_4792" cx="0" cy="0" r="1" gradientUnits="userSpaceOnUse"
      gradientTransform="translate(491.45 872.054) scale(1704.04 1704.01)">
      <stop stop-color="#FFC328" />
      <stop offset="1" stop-color="#F26E23" />
    </radialGradient>
  </defs>
</svg>
