<svg width="50" height="30" fill="none" xmlns="http://www.w3.org/2000/svg">
  <path
    d="M45.7692 0.692383H4.23078C2.70137 0.692383 1.46155 1.93221 1.46155 3.46161V26.5385C1.46155 28.0679 2.70137 29.3078 4.23078 29.3078H45.7692C47.2986 29.3078 48.5385 28.0679 48.5385 26.5385V3.46161C48.5385 1.93221 47.2986 0.692383 45.7692 0.692383Z"
    fill="white" stroke="#EAEAEA" />
  <path
    d="M5.20831 11.6928C5.06523 11.6928 4.96277 11.7315 4.90369 11.8081C4.81785 11.9245 4.85754 12.0823 4.85939 12.0897C4.92585 12.2983 5.85077 13.9054 6.13323 14.3928L6.36769 14.8146C6.46554 12.8438 7.88892 11.69 7.88892 11.69M7.32862 15.1903C7.32862 17.2063 8.93569 18.8457 10.912 18.8457C12.5828 18.8457 14.1215 18.0103 15.9012 16.1355C16.7006 15.2946 18.8458 12.7838 19.2677 12.2891C19.4625 12.0712 19.4292 11.9198 19.4062 11.8645C19.3711 11.7832 19.2852 11.7315 19.1818 11.7306H15.4L15.2431 11.9558C14.6246 12.8383 12.9815 15.1857 12.8172 15.4081L12.6455 15.6491C12.2302 16.2417 11.8018 16.8537 10.9138 16.8537C10.0388 16.8537 9.30585 16.1189 9.28 15.2152C9.26708 14.7814 9.44154 14.3475 9.75723 14.0217C9.90617 13.8645 10.0857 13.7394 10.2848 13.6542C10.4838 13.5689 10.6982 13.5253 10.9148 13.526C11.2258 13.5315 11.8102 13.6275 12.2255 14.1943L12.3391 14.3494L13.4837 12.6491L13.3877 12.5678C12.7868 12.0694 11.8212 11.5349 10.912 11.5349C8.93569 11.5349 7.32862 13.1752 7.32862 15.1903Z"
    fill="#FFDD00" />
  <path
    d="M6.25695 14.2709L5.03849 12.0888C5.03849 12.0888 4.98865 12.0168 5.03111 11.9309C5.03111 11.9309 5.04957 11.8571 5.18526 11.8617H7.4708C7.4708 11.8617 6.51357 12.8005 6.25695 14.2709ZM8.37726 11.5193L5.23142 11.5156C5.23142 11.5156 4.88157 11.4971 4.74772 11.7417C4.74772 11.7417 4.58342 12.0011 4.79111 12.3463L6.50895 15.4229C6.50895 15.4229 6.26895 13.0322 8.37726 11.5183V11.5193ZM19.1653 12.1977C18.8293 12.5919 16.6231 15.1774 15.8053 16.0396C14.0514 17.8839 12.5431 18.7073 10.913 18.7073C9.01142 18.7073 7.46434 17.1288 7.46434 15.1903C7.46434 13.2519 9.01142 11.6734 10.913 11.6734C11.7493 11.6734 12.6917 12.1663 13.3111 12.6805L12.317 14.0909C12.1549 13.8724 11.9439 13.6949 11.7009 13.5726C11.4579 13.4503 11.1896 13.3866 10.9176 13.3866C10.6824 13.3856 10.4496 13.4328 10.2334 13.5252C10.0171 13.6176 9.82213 13.7533 9.66034 13.9239C9.3188 14.2765 9.13142 14.7482 9.14342 15.2199C9.17203 16.1965 9.96588 16.9922 10.9148 16.9922C11.872 16.9922 12.3419 16.3229 12.7563 15.7303L12.9271 15.4913C13.1034 15.2503 15.004 12.5337 15.4711 11.8682L19.1819 11.8691C19.2308 11.8691 19.2816 11.9014 19.2862 11.9605C19.2899 12.0122 19.2954 12.0491 19.1643 12.1968L19.1653 12.1977ZM15.2957 11.5239C15.2717 11.5599 12.8523 15.0186 12.6557 15.2854L12.4803 15.5309C12.0788 16.1051 11.6985 16.6479 10.9148 16.6479C10.1468 16.6479 9.50434 16.0017 9.48126 15.2088C9.47111 14.8322 9.62342 14.4519 9.90126 14.1657C10.1773 13.8823 10.5446 13.7236 10.9111 13.7309C11.1887 13.7321 11.4601 13.813 11.6931 13.9638C11.9261 14.1147 12.1109 14.3292 12.2256 14.582L12.2348 14.5977L12.293 14.7214L13.7634 12.6251C13.1154 12.0002 11.945 11.3291 10.913 11.3291C8.82495 11.3291 7.12649 13.0608 7.12649 15.1903C7.12649 17.3199 8.82495 19.0516 10.913 19.0516C13.1542 19.0516 14.9163 17.4685 16.0471 16.2786C16.9351 15.3436 19.4394 12.4017 19.4643 12.3722L19.4625 12.3703C19.684 12.0906 19.6277 11.8682 19.5908 11.7823C19.5566 11.7051 19.5005 11.6396 19.4295 11.594C19.3584 11.5484 19.2755 11.5246 19.1911 11.5257H19.1819L15.3003 11.5239H15.2957ZM25.012 14.8276C24.7905 15.0297 24.4591 14.9845 24.1582 14.9891H23.5166V13.9008L24.6419 13.9063C24.8357 13.9313 25.0517 14.0226 25.1163 14.234C25.1754 14.4297 25.1616 14.6771 25.012 14.8276ZM26.7594 13.6137C26.4733 12.9842 25.8077 12.8476 25.1902 12.8079L21.7831 12.8023V18.0362L23.5065 18.0306L23.512 16.1383L25.1708 16.1273C25.684 16.1023 26.153 15.9611 26.5037 15.5679C26.9431 15.0602 26.9874 14.234 26.7594 13.6137ZM30.4536 16.8565C30.2708 17.21 29.9062 17.3457 29.5203 17.3051C29.3643 17.2862 29.2169 17.2232 29.0954 17.1235C28.9739 17.0237 28.8834 16.8914 28.8345 16.742C28.696 16.2879 28.7108 15.6879 29.0468 15.3316C29.2831 15.0943 29.668 15.0639 29.9791 15.1497C30.1425 15.2051 30.2957 15.3159 30.4037 15.4719C30.641 15.8549 30.6557 16.454 30.4536 16.8565ZM32.1714 15.542C31.9148 14.7519 31.1006 14.4251 30.3742 14.3337C29.4216 14.2433 28.4099 14.2737 27.6696 14.8322C27.0613 15.3113 26.968 16.1466 27.16 16.8565C27.4757 17.8193 28.4883 18.0759 29.3773 18.1165C30.2856 18.1414 31.1643 18.0703 31.8206 17.4611C32.2997 16.9728 32.3745 16.1826 32.1714 15.542ZM33.2265 14.7039C33.1141 14.79 33.0235 14.9014 32.9622 15.0291C32.901 15.1567 32.8707 15.2971 32.8739 15.4386C32.8739 15.5189 32.8831 15.602 32.9016 15.686C33.0271 16.226 33.5893 16.3599 34.0406 16.466L34.1006 16.4808L34.5206 16.5574C34.8013 16.6036 35.0902 16.6516 35.356 16.7531C35.4308 16.7956 35.5046 16.8731 35.5046 16.97C35.505 16.9768 35.5047 16.9836 35.5037 16.9903V16.9996C35.5037 17.1131 35.4114 17.2137 35.3173 17.2534C35.0625 17.342 34.6794 17.3642 34.397 17.2174C34.2419 17.1214 34.2123 16.9451 34.2077 16.7808H32.8074C32.8062 16.8017 32.8056 16.8226 32.8056 16.8436C32.8056 17.2746 33.0114 17.6383 33.3677 17.8266C33.9659 18.1386 34.697 18.1266 35.5231 18.0814C36.0216 18.0094 36.6446 17.9199 36.988 17.3891C37.1542 17.1103 37.1514 16.6783 36.9788 16.4273C36.6797 16.0451 36.2348 15.9509 35.8065 15.8596L35.5157 15.794L34.7948 15.6223L34.7551 15.6094C34.6556 15.5838 34.5628 15.5372 34.4828 15.4728C34.4477 15.4423 34.4339 15.3897 34.4274 15.3454C34.4211 15.284 34.4372 15.2224 34.4726 15.1719C34.5028 15.1302 34.5445 15.0984 34.5926 15.0805C34.7549 15.0251 34.9285 15.0111 35.0976 15.0399C35.1744 15.0524 35.2488 15.0767 35.3182 15.1119C35.453 15.1876 35.477 15.3389 35.4825 15.4534L36.9391 15.4423C36.9262 15.1442 36.8403 14.9171 36.6742 14.7528C36.329 14.4048 35.8674 14.3393 35.3846 14.2986C34.6674 14.2848 33.8542 14.2682 33.2265 14.7039ZM40.0859 14.2885L41.009 14.2986L41.02 15.1756L40.0914 15.1848L40.0859 16.7116C40.0913 16.7826 40.1146 16.8511 40.1535 16.9108C40.1923 16.9705 40.2456 17.0194 40.3083 17.0531C40.5456 17.1399 40.8566 17.1297 41.1086 17.0993L41.1133 17.9762C40.4422 18.1266 39.5625 18.2374 38.921 17.93C38.5563 17.7334 38.4622 17.3263 38.452 16.9331V15.194L37.529 15.1848L37.5243 14.3134L38.4474 14.2977L38.4566 13.6331L40.0766 13.1042"
    fill="#231F20" />
</svg>
