<svg width="49" height="30" fill="none" xmlns="http://www.w3.org/2000/svg">
  <path
    d="M45.6219 0.962158H3.57569C2.40326 0.962158 1.45282 1.9126 1.45282 3.08503V26.9148C1.45282 28.0872 2.40326 29.0376 3.57569 29.0376H45.6219C46.7943 29.0376 47.7447 28.0872 47.7447 26.9148V3.08503C47.7447 1.9126 46.7943 0.962158 45.6219 0.962158Z"
    fill="#F6E025" stroke="#EAEAEA" />
  <path fill-rule="evenodd" clip-rule="evenodd"
    d="M37.442 19.9503L37.931 17.6038H3.69072L3.20166 19.9494L37.442 19.9503Z" fill="white" />
  <path fill-rule="evenodd" clip-rule="evenodd"
    d="M39.7505 10.8484H43.5289L42.9456 13.6931H45.745L44.9979 17.2713H42.1994L41.6632 19.9503H38.5613L38.747 19.0265H40.8934L41.4531 16.372H44.2516L44.6256 14.5933H41.8036L42.3859 11.7731H40.4976L39.9135 14.5933H38.9807L39.7505 10.8484Z"
    fill="#FF2A0C" />
  <path
    d="M14.2335 13.8116H13.2074L13.1838 13.8352L11.6913 17.1291L11.6678 13.8596V13.8116H10.4089V13.8352L8.98519 17.1291L8.86927 13.8596V13.8116H7.88934V13.8587L8.16919 18.3617V18.4097H9.33568L9.35832 18.3617L10.8509 14.9492L10.8744 18.3617V18.4097H12.0635L12.0871 18.3617L14.1873 13.8823L14.2326 13.8116M15.4697 13.8116H14.4436V13.8352L13.5108 18.3381L13.4872 18.4097H14.5133V18.3617L15.4462 13.8587L15.4697 13.8116ZM20.4373 13.7166C19.6675 13.7166 18.7582 14.096 18.7582 15.1384C18.7582 15.8258 19.2246 16.0867 19.6448 16.3239C19.9709 16.5141 20.2516 16.679 20.2516 17.0104C20.2516 17.4615 19.8549 17.6752 19.4582 17.6752C19.0842 17.6752 18.712 17.5095 18.385 17.3673L18.3389 17.3428V17.3899L18.1052 18.1724L18.0826 18.1959L18.1287 18.2195C18.5952 18.3852 19.0145 18.4803 19.4112 18.4803C20.0641 18.4803 20.5776 18.3146 20.881 17.9831C21.1609 17.7223 21.2777 17.3673 21.2777 16.9163C21.2777 16.1818 20.7642 15.8729 20.3449 15.6366C20.0415 15.4473 19.7616 15.2806 19.7616 14.9963C19.7616 14.9012 19.8078 14.807 19.8785 14.7354C20.0179 14.5697 20.2743 14.5226 20.4608 14.5226C20.7642 14.5226 21.0912 14.6168 21.371 14.759L21.4181 14.7834L21.4407 14.7354L21.6509 13.9774V13.9538L21.6038 13.9303C21.2777 13.7881 20.881 13.7166 20.4373 13.7166ZM18.4557 13.9538L18.4321 13.9303C18.1052 13.7872 17.7076 13.7166 17.2656 13.7166C16.4723 13.7166 15.563 14.096 15.563 15.1384C15.563 15.8258 16.0294 16.0867 16.4487 16.3239C16.7757 16.5141 17.0791 16.679 17.0791 17.0104C17.0791 17.4615 16.6824 17.6752 16.2857 17.6752C15.8899 17.6752 15.5159 17.5095 15.2134 17.3673L15.1663 17.3428L15.1428 17.3899L14.9091 18.1724V18.1959L14.9562 18.2195C15.4 18.3852 15.8429 18.4803 16.2151 18.4803C16.869 18.4803 17.3825 18.3146 17.7085 17.9831C17.9648 17.7223 18.1052 17.3673 18.1052 16.9163C18.1052 16.1818 17.569 15.8729 17.1724 15.6366C16.8463 15.4473 16.5891 15.2806 16.5891 14.9963C16.5844 14.9004 16.618 14.8066 16.6824 14.7354C16.8454 14.5697 17.0791 14.5226 17.2892 14.5226C17.569 14.5226 17.896 14.6168 18.1749 14.759L18.222 14.7834L18.2447 14.7354L18.4557 13.9774V13.9538ZM6.51274 13.7166C5.74293 13.7166 4.83364 14.096 4.83364 15.1384C4.83364 15.8258 5.30006 16.0867 5.72029 16.3239C6.04632 16.5141 6.34972 16.679 6.34972 17.0104C6.34972 17.4615 5.92949 17.6752 5.53282 17.6752C5.16059 17.6752 4.78746 17.5095 4.48315 17.3673L4.43787 17.3428L4.41342 17.3899L4.18066 18.1724V18.1959L4.20421 18.2195C4.67063 18.3852 5.09085 18.4803 5.48663 18.4803C6.13961 18.4803 6.65312 18.3146 6.97915 17.9831C7.23636 17.7223 7.35319 17.3673 7.35319 16.9163C7.35319 16.1818 6.83968 15.8729 6.42036 15.6366C6.11697 15.4473 5.83712 15.2806 5.83712 14.9963C5.83712 14.9012 5.88331 14.807 5.95395 14.7354C6.09342 14.5697 6.34972 14.5226 6.53629 14.5226C6.83968 14.5226 7.16663 14.6168 7.44648 14.759L7.49266 14.7834L7.51621 14.7354L7.72632 13.9774V13.9538L7.67923 13.9303C7.35319 13.7881 6.97915 13.7166 6.51274 13.7166ZM24.5426 14.5923H24.7754C24.9855 14.5923 25.173 14.6883 25.2889 14.807C25.4066 14.9247 25.4755 15.0913 25.4755 15.2806C25.4755 15.8023 24.9629 16.0867 24.4955 16.0867H24.2401L24.5426 14.5923ZM24.52 13.8116H23.7275V13.8352L22.7703 18.3381V18.4097H23.7502V18.3617C23.7502 18.3617 24.0536 16.9878 24.0762 16.8927H24.5435C25.1494 16.8927 25.6856 16.679 26.0352 16.3239C26.3386 16.016 26.4789 15.6356 26.4789 15.162C26.4789 14.807 26.3856 14.5226 26.1529 14.3089C25.7553 13.8832 25.0335 13.8116 24.52 13.8116ZM28.4379 17.6987C28.2197 17.7 28.01 17.6146 27.8546 17.4615C27.669 17.2713 27.5512 16.9633 27.5512 16.6328C27.5512 15.9916 27.8084 15.3286 28.1825 14.9256C28.2991 14.8026 28.4402 14.7054 28.5966 14.64C28.753 14.5747 28.9214 14.5427 29.0909 14.5461C29.3481 14.5461 29.5346 14.6168 29.6976 14.7834C29.8842 14.9727 29.9775 15.2571 29.9775 15.6121C29.9775 16.4661 29.4413 17.6987 28.4379 17.6987ZM30.491 14.2382C30.1641 13.9067 29.6976 13.7401 29.1144 13.7401C28.3219 13.7401 27.7613 14.0009 27.2487 14.5932C26.7953 15.1583 26.5484 15.8612 26.5487 16.5857C26.5487 17.1535 26.7352 17.6507 27.0613 18.0076C27.3873 18.3155 27.8311 18.5039 28.3455 18.5039C29.1379 18.5039 29.7909 18.2195 30.2564 17.7223C30.7341 17.159 30.9986 16.4457 31.0036 15.7072C31.0036 15.0678 30.8406 14.5932 30.491 14.2382ZM33.1962 13.741C32.4264 13.741 31.4936 14.1196 31.4936 15.1393C31.4936 15.8258 31.9826 16.1102 32.3802 16.3475C32.7298 16.5377 33.0096 16.7034 33.0096 17.0349C33.0096 17.4859 32.613 17.6987 32.2172 17.6987C31.8196 17.6987 31.47 17.5321 31.144 17.3908L31.1204 17.3664H31.0978L31.0742 17.4144L30.8641 18.1724L30.8406 18.2195H30.8641L30.8877 18.243C31.3296 18.4097 31.7743 18.5039 32.1701 18.5039C32.8004 18.5039 33.313 18.3146 33.64 17.9831C33.8954 17.7223 34.0358 17.3908 34.0358 16.9398C34.0358 16.2062 33.5232 15.8974 33.1029 15.6356C32.7769 15.4708 32.5197 15.3051 32.5197 15.0198C32.5197 14.9021 32.5668 14.807 32.6365 14.7354C32.7995 14.5461 33.1256 14.5461 33.2189 14.5461C33.5232 14.5461 33.8492 14.6168 34.1064 14.7599L34.1526 14.7834L34.1761 14.807V14.7363L34.3853 14.0009L34.4089 13.9783V13.9538H34.3627C34.0367 13.8116 33.64 13.741 33.1962 13.741ZM38.1638 13.8116H34.6661V13.8352L34.5031 14.5461V14.5932H35.7384L34.9459 18.3381V18.4097H35.9485L35.9721 18.3852V18.3617C35.9721 18.3617 36.7183 14.7834 36.7645 14.5932H38.0243V14.5697L38.1638 13.8587L38.1873 13.8116H38.1638Z"
    fill="black" />
</svg>
