<svg width="50" height="30" fill="none" xmlns="http://www.w3.org/2000/svg">
  <path
    d="M45.7692 0.692383H4.23076C2.70136 0.692383 1.46153 1.93221 1.46153 3.46161V26.5385C1.46153 28.0679 2.70136 29.3078 4.23076 29.3078H45.7692C47.2986 29.3078 48.5385 28.0679 48.5385 26.5385V3.46161C48.5385 1.93221 47.2986 0.692383 45.7692 0.692383Z"
    fill="white" stroke="#EAEAEA" />
  <path fill-rule="evenodd" clip-rule="evenodd"
    d="M16.2038 10.5069L16.2987 20.7105L18.7195 23.5424L25.9822 27.1833L34.906 23.0479L36.7573 18.8675L36.5674 5.33732L29.827 5.15752L22.802 6.23632L16.3939 9.74243L16.2038 10.5069Z"
    fill="#301506" />
  <path
    d="M26.6021 3.13281C22.3717 3.13281 18.6817 3.9086 15.6338 5.43809V17.6659C15.6338 20.2388 16.6547 22.3903 18.5856 23.8892C20.3784 25.2819 25.9229 27.5769 26.6023 27.8556C27.2466 27.59 32.8569 25.2596 34.6212 23.8892C36.551 22.3911 37.5721 20.239 37.5721 17.6659V5.43809C34.5238 3.9084 30.8342 3.13281 26.6021 3.13281ZM32.8661 5.50064C34.1276 5.51626 35.3663 5.59006 36.5637 5.69544V17.6658C36.5637 19.9661 35.6823 21.8243 33.9816 23.1508C32.4622 24.3357 27.8807 26.2795 26.6023 26.8131C25.3068 26.2723 20.7138 24.3039 19.2218 23.1513C17.5311 21.8474 16.6412 19.9452 16.6412 17.6662V10.6718C21.4996 6.45246 27.3997 5.43294 32.8661 5.50064ZM26.8881 11.0745C25.8472 11.0745 25.0074 11.2948 24.316 11.7175V23.4948H26.225V19.6899C26.4155 19.7431 26.692 19.7929 27.0838 19.7929C29.2014 19.7929 30.4185 17.9851 30.4185 15.3457C30.4185 12.7114 29.1652 11.0745 26.8881 11.0745ZM33.4111 11.0745C32.1556 11.109 30.8426 11.9702 30.8506 13.4302C30.8539 14.3916 31.1353 15.1105 32.7086 15.9848C33.5483 16.4515 33.8866 16.7591 33.9011 17.3262C33.9171 17.9566 33.4571 18.3368 32.7572 18.3342C32.1481 18.3296 31.4201 18.0096 30.9326 17.5986V19.2622C31.5303 19.5998 32.2762 19.8229 33.0297 19.8229C34.9157 19.8229 35.7578 18.5613 35.7942 17.4053C35.83 16.3517 35.5226 15.5545 33.9278 14.6671C33.216 14.2718 32.6539 14.012 32.6727 13.3542C32.6914 12.7121 33.2543 12.4865 33.7949 12.4911C34.4617 12.4966 35.1067 12.8464 35.5048 13.233V11.662C35.1693 11.4172 34.4589 11.0441 33.4111 11.0745ZM17.616 11.2574V16.9383C17.616 18.8535 18.5727 19.823 20.4608 19.823C21.6291 19.823 22.6076 19.567 23.3364 19.0977V11.2574H21.4316V18.0691C21.224 18.2039 20.916 18.29 20.5285 18.29C19.654 18.29 19.5234 17.5306 19.5234 17.0183V11.2575L17.616 11.2574ZM26.9009 12.5299C28.0082 12.5299 28.4671 13.3671 28.4671 15.3917C28.4671 17.3672 27.9422 18.3216 26.8441 18.3216C26.5856 18.3216 26.3609 18.261 26.2244 18.2123V12.6608C26.3791 12.5878 26.6419 12.5299 26.9009 12.5299Z"
    fill="#FAB80A" />
</svg>
