<svg width="602" height="159" fill="none" xmlns="http://www.w3.org/2000/svg">
  <path fill-rule="evenodd" clip-rule="evenodd"
    d="M17.4734 86.7975C17.4734 115.013 49.0756 137.888 88.063 137.888C127.05 137.888 158.65 115.013 158.65 86.7975C158.65 78.1058 155.645 69.9239 150.354 62.7629C147.597 66.1084 140.775 65.6697 134.852 61.6722C128.793 57.58 126.002 51.3389 128.622 47.7315C129.142 47.0161 129.875 46.5025 130.701 46.0986C123.562 42.181 115.374 39.2106 106.481 37.4742L121.117 49.5838C121.117 49.5838 112.011 45.1576 105.812 43.7777C104.018 43.3784 102.411 42.9291 100.847 42.4922C98.7599 41.9088 96.7515 41.3475 94.4843 40.9569C95.6332 44.5081 98.3361 54.4413 96.728 65.3406C96.728 55.6155 86.3869 44.3922 82.7741 40.7687C79.9977 41.1532 77.66 41.8065 75.2138 42.4901C73.6477 42.9277 72.0371 43.3778 70.2385 43.7777C64.0398 45.1576 54.9344 49.5838 54.9344 49.5838L69.0821 37.5889C39.3196 43.5945 17.4734 63.3425 17.4734 86.7975ZM117.784 30.8616L117.779 30.8716C151.826 39.9996 176.188 64.3771 176.188 93.0162C176.188 129.457 136.745 159 88.0932 159C39.4391 159 0 129.457 0 93.0162C0 64.4494 24.2345 40.123 58.1432 30.9452L58.1344 30.9152C54.4651 28.3986 45.8869 25.4831 45.8869 25.4831C60.0547 23.5411 69.1513 25.7598 69.1513 25.7598C62.8255 17.543 35.9271 12.6543 35.9271 12.6543C65.8066 11.267 80.8363 24.9284 80.8363 24.9284C79.9743 16.7128 66.6673 0 66.6673 0C84.8605 12.0984 87.9195 24.6517 87.9195 24.6517C87.9195 24.6517 90.9773 12.0984 109.172 0C109.172 0 95.866 16.7128 95.0053 24.9284C95.0053 24.9284 110.032 11.267 139.914 12.6543C139.914 12.6543 113.017 17.543 106.687 25.7598C106.687 25.7598 115.784 23.5411 129.95 25.4831C129.95 25.4831 121.492 28.36 117.784 30.8616ZM375.407 81.672V69.3605H362.642V81.672H357.951V90.6329H362.642V101.915C362.642 105.494 362.994 108.09 363.705 109.697C364.434 111.286 365.551 112.471 367.054 113.259C368.558 114.041 370.889 114.435 374.063 114.435C376.793 114.435 379.734 114.1 382.885 113.439L381.946 104.961C380.255 105.482 378.944 105.745 378.004 105.745C376.961 105.745 376.23 105.404 375.814 104.718C375.541 104.276 375.407 103.373 375.407 102.005V90.6329H382.417V81.672H375.407ZM207.419 103.604C206.353 102.357 205.822 100.356 205.822 97.5995C205.822 95.0854 206.364 93.2144 207.45 91.9879C208.552 90.7414 209.973 90.1182 211.704 90.1182C213.143 90.1182 214.363 90.7102 215.365 91.8981C216.388 93.086 216.898 94.942 216.898 97.4786C216.896 100.356 216.375 102.407 215.334 103.633C214.313 104.84 213.038 105.444 211.516 105.444C209.867 105.444 208.502 104.83 207.419 103.604ZM205.916 69.4814H193.057V113.712H204.976V108.974C206.626 110.964 208.146 112.322 209.544 113.046C211.4 113.971 213.445 114.435 215.677 114.435C218.286 114.435 220.651 113.779 222.78 112.471C224.928 111.145 226.606 109.154 227.815 106.498C229.029 103.824 229.632 100.739 229.632 97.2368C229.632 91.9879 228.307 87.9667 225.657 85.1709C223.007 82.3538 219.66 80.9465 215.615 80.9465C213.652 80.949 211.862 81.2694 210.232 81.9126C208.627 82.5557 207.19 83.5205 205.916 84.8094V69.4814ZM247.657 113.71H234.892V69.4814H247.657V113.71ZM290.161 113.712H278.271V108.521C276.497 110.654 274.704 112.171 272.889 113.075C271.096 113.98 268.885 114.435 266.255 114.435C262.752 114.435 259.999 113.429 257.997 111.417C256.015 109.385 255.023 106.268 255.023 102.066V81.672H267.822V99.286C267.822 101.3 268.206 102.729 268.978 103.571C269.751 104.418 270.834 104.84 272.234 104.84C273.755 104.84 274.996 104.276 275.954 103.15C276.935 102.025 277.424 100.005 277.425 97.0872V81.672H290.161V113.712ZM317.898 89.7554C318.984 90.7813 319.649 92.4802 319.901 94.8548H307.355C307.565 92.9452 308.054 91.5055 308.826 90.542C310.034 88.9913 311.653 88.2173 313.676 88.2173C315.429 88.2173 316.834 88.7308 317.898 89.7554ZM307.324 100.739H332.857V99.3496C332.857 95.124 332.137 91.6974 330.696 89.0649C329.257 86.4273 327.16 84.4167 324.407 83.0282C321.654 81.6421 317.898 80.9465 313.144 80.9465C307.281 80.949 302.682 82.4959 299.346 85.5934C296.03 88.6909 294.37 92.742 294.37 97.7504C294.37 101.272 295.193 104.338 296.843 106.952C298.512 109.547 300.608 111.447 303.131 112.652C305.655 113.837 309.118 114.435 313.519 114.435C318.587 114.435 322.479 113.74 325.191 112.352C327.899 110.944 330.217 108.631 332.137 105.41L319.588 104.297C318.796 105.263 318.055 105.939 317.369 106.317C316.24 106.919 315.05 107.222 313.799 107.222C311.819 107.222 310.213 106.529 308.982 105.142C308.108 104.175 307.553 102.71 307.324 100.739ZM336.263 102.336H354.787V92.8317H336.263V102.336ZM399.684 97.7504C399.684 100.609 400.282 102.719 401.468 104.084C402.679 105.455 404.19 106.137 406.007 106.137C407.843 106.137 409.344 105.464 410.513 104.115C411.699 102.765 412.294 100.609 412.294 97.6295C412.294 94.8548 411.699 92.7943 410.513 91.4444C409.323 90.0795 407.852 89.3952 406.102 89.3952C404.246 89.3952 402.71 90.0882 401.502 91.4768C400.289 92.843 399.684 94.9371 399.684 97.7504ZM386.922 97.7803C386.922 92.8941 388.632 88.8717 392.055 85.7168C395.474 82.537 400.093 80.9503 405.914 80.9465C412.567 80.9465 417.594 82.8088 420.994 86.5283C423.727 89.5248 425.094 93.2144 425.094 97.5995C425.094 102.528 423.391 106.569 419.993 109.727C416.613 112.865 411.929 114.435 405.943 114.435C400.605 114.435 396.285 113.126 392.99 110.513C388.944 107.273 386.922 103.03 386.922 97.7803ZM443.208 81.672H431.319V113.712H444.084V97.3577C444.084 94.9246 444.553 93.1745 445.49 92.1088C446.43 91.0455 447.628 90.512 449.089 90.512C449.987 90.512 450.768 90.7626 451.436 91.2649C452.103 91.7486 452.574 92.3905 452.844 93.1957C453.009 93.6981 453.096 94.6541 453.096 96.0601V113.712H465.859V97.177C465.859 94.8648 466.32 93.1857 467.236 92.1399C468.153 91.0954 469.364 90.5706 470.866 90.5706C472.14 90.5731 473.201 91.1228 474.059 92.2284C474.643 92.934 474.935 94.0097 474.935 95.4568V113.712H487.698V93.5871C487.698 89.2444 486.698 86.0546 484.697 84.0241C482.695 81.9724 479.91 80.9465 476.339 80.9465C473.922 80.949 471.888 81.3292 470.24 82.0921C468.591 82.84 466.767 84.2547 464.766 86.3475C463.783 84.5564 462.522 83.2102 460.978 82.304C459.438 81.4003 457.338 80.9465 454.69 80.9465C452.228 80.949 450.12 81.3604 448.37 82.1855C446.639 83.0082 444.918 84.398 443.208 86.3475V81.672ZM517.955 98.507C516.202 99.1078 514.379 99.6413 512.477 100.105C509.89 100.769 508.256 101.42 507.566 102.064C506.856 102.729 506.505 103.483 506.505 104.329C506.505 105.292 506.849 106.086 507.536 106.71C508.246 107.315 509.277 107.616 510.634 107.616C512.052 107.616 513.367 107.282 514.575 106.618C515.807 105.956 516.67 105.153 517.172 104.206C517.694 103.241 517.955 101.996 517.955 100.465V98.507ZM506.91 92.0477L494.741 90.8124C495.196 88.7607 495.855 87.1515 496.71 85.9836C497.586 84.7969 498.838 83.7723 500.465 82.9098C501.633 82.2853 503.239 81.8029 505.285 81.4601C507.326 81.121 509.538 80.9503 511.916 80.9465C515.733 80.9465 518.797 81.1584 521.115 81.581C523.429 81.9849 525.359 82.84 526.902 84.145C527.988 85.05 528.843 86.3376 529.47 88.0079C530.095 89.657 530.406 91.235 530.406 92.742V106.891C530.406 108.4 530.502 109.587 530.689 110.452C530.895 111.296 531.336 112.383 532.004 113.712H520.05C519.569 112.886 519.257 112.262 519.114 111.841C518.965 111.396 518.821 110.714 518.672 109.786C517.007 111.337 515.346 112.444 513.699 113.103C511.447 113.99 508.828 114.433 505.845 114.435C501.882 114.435 498.87 113.547 496.802 111.778C494.759 110.008 493.736 107.827 493.736 105.232C493.736 102.8 494.477 100.799 495.959 99.2287C497.439 97.6606 500.172 96.4952 504.158 95.7298C508.933 94.8049 512.028 94.1605 513.449 93.799C514.867 93.4163 516.369 92.9252 517.955 92.3207C517.955 90.8124 517.63 89.7554 516.986 89.1534C516.338 88.5488 515.2 88.2472 513.575 88.2472C511.49 88.2472 509.924 88.5713 508.882 89.2145C508.066 89.7155 507.411 90.6616 506.91 92.0477ZM552.314 81.672V69.3605H539.548V81.672H534.856V90.6329H539.548V101.915C539.548 105.494 539.902 108.09 540.613 109.697C541.343 111.286 542.46 112.471 543.96 113.259C545.461 114.041 547.798 114.435 550.971 114.435C553.702 114.435 556.643 114.1 559.791 113.439L558.854 104.961C557.163 105.482 555.85 105.745 554.911 105.745C553.871 105.745 553.137 105.404 552.721 104.718C552.45 104.276 552.314 103.373 552.314 102.005V90.6329H559.322V81.672H552.314ZM576.595 97.7504C576.595 100.609 577.189 102.719 578.376 104.084C579.588 105.455 581.099 106.137 582.915 106.137C584.748 106.137 586.252 105.464 587.418 104.115C588.611 102.765 589.204 100.609 589.204 97.6295C589.204 94.8548 588.611 92.7943 587.418 91.4444C586.232 90.0795 584.759 89.3952 583.006 89.3952C581.149 89.3952 579.618 90.0882 578.409 91.4768C577.201 92.843 576.595 94.9371 576.595 97.7504ZM563.828 97.7803C563.828 92.8941 565.538 88.8717 568.958 85.7168C572.38 82.537 577 80.9503 582.82 80.9465C589.473 80.9465 594.502 82.8088 597.902 86.5283C600.632 89.5248 602 93.2144 602 97.5995C602 102.528 600.301 106.569 596.899 109.727C593.521 112.865 588.836 114.435 582.854 114.435C577.513 114.435 573.194 113.126 569.9 110.513C565.853 107.273 563.828 103.03 563.828 97.7803Z"
    fill="#1D1D1B" />
</svg>
