<svg viewBox="0 0 566 160" fill="none" xmlns="http://www.w3.org/2000/svg">
  <path fill-rule="evenodd" clip-rule="evenodd"
    d="M352.957 69.4149V81.7348H359.548V90.704H352.957V102.083C352.957 103.454 353.084 104.357 353.34 104.8C353.732 105.486 354.418 105.828 355.399 105.828C356.283 105.828 357.517 105.564 359.105 105.044L359.988 113.527C357.027 114.19 354.26 114.524 351.695 114.524C348.711 114.524 346.518 114.13 345.103 113.348C343.692 112.559 342.641 111.372 341.956 109.781C341.287 108.175 340.956 105.576 340.956 101.995V90.704H336.545V81.7348H340.956V69.4149H352.957ZM193.514 97.676C193.514 100.434 194.012 102.438 195.015 103.685C196.034 104.913 197.317 105.526 198.867 105.526C200.299 105.526 201.497 104.923 202.457 103.714C203.436 102.487 203.927 100.434 203.928 97.555C203.928 95.0164 203.448 93.159 202.486 91.9689C201.544 90.7813 200.397 90.1888 199.045 90.1888C197.417 90.1888 196.081 90.8125 195.044 92.06C194.024 93.2887 193.514 95.1612 193.514 97.676ZM181.513 69.5359H193.603V84.8759C194.799 83.586 196.151 82.6217 197.66 81.9768C199.193 81.3331 200.876 81.0112 202.721 81.01C206.524 81.01 209.672 82.4184 212.164 85.2376C214.654 88.0357 215.9 92.06 215.9 97.313C215.9 100.818 215.333 103.906 214.191 106.583C213.055 109.24 211.478 111.231 209.458 112.559C207.456 113.868 205.232 114.524 202.781 114.524C200.681 114.524 198.759 114.06 197.013 113.135C195.698 112.41 194.269 111.05 192.718 109.059V113.801H181.513V69.5359ZM220.846 113.801H232.847V69.5359H220.846V113.801ZM261.632 113.801H272.809V81.7348H260.836V97.1646C260.834 100.084 260.375 102.105 259.452 103.231C258.552 104.357 257.385 104.923 255.953 104.923C254.638 104.923 253.621 104.5 252.893 103.653C252.167 102.808 251.806 101.378 251.806 99.3638V81.7348H239.773V102.146C239.773 106.351 240.705 109.472 242.568 111.504C244.45 113.516 247.04 114.524 250.333 114.524C252.806 114.524 254.883 114.069 256.571 113.163C258.277 112.259 259.963 110.739 261.632 108.605V113.801ZM300.771 94.9291C300.535 92.5527 299.909 90.8524 298.888 89.827C297.889 88.7991 296.565 88.2864 294.918 88.2864C293.016 88.2864 291.495 89.0611 290.358 90.6129C289.632 91.5772 289.173 93.018 288.976 94.9291H300.771ZM312.952 100.818H288.945C289.162 102.792 289.683 104.256 290.506 105.224C291.663 106.613 293.172 107.305 295.035 107.305C296.21 107.305 297.33 107.003 298.39 106.401C299.035 106.022 299.733 105.345 300.476 104.379L312.275 105.491C310.47 108.716 308.292 111.031 305.744 112.44C303.195 113.828 299.537 114.524 294.771 114.524C290.634 114.524 287.376 113.927 285.005 112.74C282.632 111.534 280.66 109.633 279.092 107.036C277.541 104.419 276.768 101.351 276.768 97.827C276.768 92.8147 278.327 88.7604 281.445 85.6605C284.582 82.5606 288.905 81.0112 294.417 81.01C298.888 81.01 302.419 81.7048 305.009 83.0932C307.597 84.4829 309.567 86.4963 310.92 89.1347C312.275 91.7693 312.952 95.1998 312.952 99.4275V100.818ZM333.571 102.416H316.156V92.9045H333.571V102.416ZM377.461 104.165C376.344 102.798 375.784 100.687 375.784 97.827C375.784 95.0102 376.351 92.9157 377.491 91.5485C378.629 90.1588 380.072 89.4653 381.816 89.4653C383.464 89.4653 384.846 90.1501 385.964 91.5161C387.079 92.8658 387.639 94.9291 387.639 97.706C387.639 100.687 387.079 102.845 385.964 104.196C384.866 105.546 383.454 106.22 381.728 106.22C380.021 106.22 378.6 105.536 377.461 104.165ZM368.61 85.784C365.392 88.9413 363.783 92.9669 363.783 97.8569C363.783 103.111 365.686 107.358 369.489 110.6C372.587 113.214 376.649 114.524 381.668 114.524C387.295 114.524 391.699 112.954 394.877 109.813C398.073 106.653 399.673 102.608 399.673 97.676C399.673 93.2887 398.387 89.595 395.819 86.5961C392.621 82.8737 387.894 81.01 381.642 81.01C376.169 81.0137 371.824 82.6017 368.61 85.784ZM405.526 81.7348H416.704V86.4152C418.311 84.4629 419.93 83.0733 421.557 82.2487C423.203 81.4229 425.186 81.0112 427.5 81.01C429.989 81.01 431.963 81.4641 433.412 82.3685C434.863 83.2754 436.048 84.6226 436.972 86.4152C438.855 84.322 440.57 82.9049 442.118 82.1564C443.669 81.3929 445.581 81.0112 447.854 81.01C451.212 81.01 453.829 82.0366 455.712 84.09C457.594 86.1221 458.533 89.3143 458.533 93.6605V113.801H446.533V95.5316C446.533 94.0833 446.259 93.0068 445.71 92.302C444.903 91.1942 443.906 90.6441 442.708 90.6416C441.297 90.6416 440.159 91.1668 439.295 92.2122C438.434 93.2588 438.002 94.9391 438.002 97.2531V113.801H426.001V96.1354C426.001 94.727 425.919 93.7715 425.764 93.2688C425.509 92.4629 425.067 91.8192 424.441 91.3364C423.812 90.8325 423.077 90.583 422.234 90.583C420.86 90.583 419.733 91.1169 418.85 92.1797C417.968 93.2475 417.528 95.0002 417.528 97.434V113.801H405.526V81.7348ZM481.831 100.182C483.619 99.7194 485.334 99.1855 486.982 98.5829V100.544C486.982 102.075 486.735 103.322 486.245 104.288C485.773 105.236 484.961 106.038 483.804 106.701C482.668 107.366 481.431 107.702 480.098 107.702C478.824 107.702 477.853 107.399 477.185 106.794C476.54 106.17 476.216 105.374 476.216 104.411C476.216 103.563 476.547 102.808 477.213 102.144C477.862 101.499 479.399 100.848 481.831 100.182ZM465.156 90.8836L476.597 92.1211C477.068 90.7327 477.684 89.7859 478.451 89.2844C479.43 88.6407 480.904 88.3163 482.864 88.3163C484.393 88.3163 485.462 88.6182 486.072 89.2232C486.677 89.827 486.982 90.8836 486.982 92.393C485.491 92.9981 484.078 93.4896 482.745 93.8713C481.409 94.2343 478.498 94.8792 474.011 95.8048C470.262 96.5695 467.692 97.7372 466.301 99.3065C464.907 100.879 464.212 102.88 464.212 105.314C464.212 107.91 465.172 110.094 467.094 111.866C469.037 113.636 471.87 114.524 475.594 114.524C478.401 114.523 480.862 114.08 482.981 113.192C484.529 112.532 486.09 111.424 487.655 109.874C487.795 110.801 487.933 111.482 488.071 111.928C488.206 112.349 488.5 112.975 488.951 113.801H500.19C499.563 112.47 499.146 111.383 498.953 110.539C498.779 109.673 498.688 108.485 498.688 106.975V92.8147C498.688 91.3065 498.396 89.7272 497.808 88.0756C497.219 86.4052 496.415 85.1166 495.393 84.211C493.943 82.9049 492.128 82.0491 489.953 81.6449C487.773 81.222 484.893 81.01 481.303 81.01C479.068 81.0137 476.987 81.1846 475.069 81.5239C473.147 81.8657 471.636 82.3485 470.538 82.9747C469.008 83.838 467.831 84.8634 467.007 86.051C466.203 87.2198 465.583 88.8291 465.156 90.8836ZM519.286 69.4149V81.7348H525.875V90.704H519.286V102.083C519.286 103.454 519.413 104.357 519.668 104.8C520.059 105.486 520.749 105.828 521.727 105.828C522.609 105.828 523.844 105.564 525.434 105.044L526.317 113.527C523.355 114.19 520.591 114.524 518.024 114.524C515.04 114.524 512.843 114.13 511.431 113.348C510.021 112.559 508.971 111.372 508.285 109.781C507.616 108.175 507.284 105.576 507.284 101.995V90.704H502.872V81.7348H507.284V69.4149H519.286ZM543.79 104.165C542.673 102.798 542.115 100.687 542.115 97.827C542.115 95.0102 542.684 92.9157 543.819 91.5485C544.957 90.1588 546.397 89.4653 548.144 89.4653C549.791 89.4653 551.176 90.1501 552.291 91.5161C553.413 92.8658 553.969 94.9291 553.969 97.706C553.969 100.687 553.413 102.845 552.291 104.196C551.195 105.546 549.781 106.22 548.057 106.22C546.35 106.22 544.929 105.536 543.79 104.165ZM534.935 85.784C531.719 88.9413 530.111 92.9669 530.111 97.8569C530.111 103.111 532.015 107.358 535.819 110.6C538.917 113.214 542.977 114.524 547.999 114.524C553.624 114.524 558.03 112.954 561.204 109.813C564.404 106.653 566 102.608 566 97.676C566 93.2887 564.715 89.595 562.147 86.5961C558.949 82.8737 554.223 81.01 547.967 81.01C542.496 81.0137 538.15 82.6017 534.935 85.784Z"
    fill="#1A1919" />
  <path fill-rule="evenodd" clip-rule="evenodd"
    d="M110.735 30.8958L110.741 30.8858C114.227 28.3822 122.179 25.503 122.179 25.503C108.86 23.5595 100.307 25.78 100.307 25.78C106.259 17.5567 131.548 12.6642 131.548 12.6642C103.454 11.2745 89.3238 24.9479 89.3238 24.9479C90.1346 16.7259 102.643 0 102.643 0C85.5365 12.1078 82.6631 24.671 82.6631 24.671C82.6631 24.671 79.7862 12.1078 62.681 0C62.681 0 75.1929 16.7259 76.0024 24.9479C76.0024 24.9479 61.8716 11.2745 33.7787 12.6642C33.7787 12.6642 59.0687 17.5567 65.0172 25.78C65.0172 25.78 56.464 23.5595 43.1426 25.503C43.1426 25.503 51.2071 28.4208 54.6578 30.9395L54.6651 30.9694C22.7849 40.1544 0 64.4998 0 93.0891C0 129.56 37.0799 159.125 82.8248 159.125C128.567 159.125 165.652 129.56 165.652 93.0891C165.652 64.4275 142.747 40.0309 110.735 30.8958Z"
    fill="#00A3DA" />
  <path fill-rule="evenodd" clip-rule="evenodd"
    d="M82.8248 156.678C38.4704 156.678 2.38348 128.153 2.38348 93.0891C2.38348 66.4634 23.6552 42.4448 55.3105 33.3209C55.9462 33.1388 56.481 32.6934 56.7848 32.0896C57.0887 31.4871 57.1337 30.7823 56.91 30.1424C56.7472 29.6708 56.436 29.2355 56.0386 28.946C55.2242 28.3498 54.1947 27.7447 53.0813 27.1584C53.3451 27.1547 53.6089 27.1535 53.8726 27.1535C60.4385 27.1535 64.3972 28.1439 64.4361 28.1527C64.6282 28.2026 64.8214 28.2263 65.0123 28.2263C65.7987 28.2263 66.5486 27.8283 66.9983 27.136C67.5562 26.2765 67.5307 25.1513 66.9303 24.3217C65.3951 22.201 62.8366 20.3099 59.8004 18.657C69.3867 22.0701 74.2959 26.6607 74.3713 26.7343C74.8246 27.1647 75.4105 27.3905 76.0024 27.3905C76.3634 27.3905 76.7244 27.3081 77.0599 27.136C77.9484 26.6844 78.4734 25.7151 78.375 24.7009C78.1149 22.0638 76.8569 18.7705 75.1941 15.4111C79.2963 21.0783 80.3282 25.1725 80.3452 25.2411C80.6053 26.3351 81.5643 27.1098 82.6607 27.1098C82.6667 27.1098 82.668 27.1098 82.674 27.1098C83.7753 27.106 84.7306 26.3314 84.9846 25.2299C84.9992 25.1663 86.0299 21.0746 90.1309 15.4086C88.4693 18.7655 87.2113 22.0638 86.9488 24.7009C86.8528 25.7176 87.3766 26.6906 88.2688 27.1435C88.6042 27.3119 88.9652 27.3955 89.3214 27.3955C89.9169 27.3955 90.5064 27.1672 90.9574 26.7281C91.0315 26.6595 95.9395 22.0676 105.529 18.6558C102.492 20.3086 99.9299 22.1998 98.3935 24.3217C97.7919 25.1525 97.7676 26.2815 98.3267 27.1422C98.7764 27.8308 99.5251 28.2275 100.307 28.2275C100.502 28.2275 100.699 28.2026 100.893 28.1527C100.928 28.1439 104.883 27.1535 111.451 27.1535C111.715 27.1535 111.98 27.1547 112.244 27.1584C111.169 27.7235 110.171 28.3074 109.373 28.8824C109.073 29.0995 108.825 29.3839 108.647 29.7145C108.301 30.3706 108.259 31.1565 108.544 31.8439C108.827 32.5312 109.397 33.0527 110.097 33.2548C141.898 42.3275 163.267 66.3748 163.267 93.0891C163.267 128.153 127.18 156.678 82.8248 156.678Z"
    fill="#009FE3" />
  <path fill-rule="evenodd" clip-rule="evenodd"
    d="M82.7968 137.995C46.1399 137.995 16.4281 115.103 16.4281 86.8655C16.4281 63.3921 36.9681 43.6299 64.9503 37.6184L51.6496 49.6227C51.6496 49.6227 60.21 45.1917 66.0381 43.812C70.3712 42.7866 73.5436 41.4318 77.8244 40.7994C81.2216 44.427 90.944 55.6591 90.944 65.3918C92.4561 54.484 89.9146 44.5418 88.834 40.989C92.563 41.6738 95.5458 42.8776 99.4851 43.812C105.312 45.1917 113.874 49.6227 113.874 49.6227L100.113 37.5036C108.541 39.2563 116.301 42.2552 123.052 46.2233C126.183 44.9073 131.016 45.8566 135.33 48.9578C140.081 52.3683 142.658 57.2883 141.901 60.8934C141.784 61.5247 141.582 62.1247 141.26 62.6623L141.265 62.6611C146.304 69.8639 149.162 78.1071 149.162 86.8655C149.162 115.103 119.453 137.995 82.7968 137.995ZM110.735 30.8958L110.741 30.8858C114.227 28.3822 122.179 25.503 122.179 25.503C108.86 23.5595 100.307 25.78 100.307 25.78C106.259 17.5567 131.548 12.6642 131.548 12.6642C103.454 11.2745 89.3238 24.9479 89.3238 24.9479C90.1346 16.7259 102.643 0 102.643 0C85.5365 12.1078 82.6631 24.671 82.6631 24.671C82.6631 24.671 79.7862 12.1078 62.681 0C62.681 0 75.1929 16.7259 76.0024 24.9479C76.0024 24.9479 61.8716 11.2745 33.7787 12.6642C33.7787 12.6642 59.0687 17.5567 65.0172 25.78C65.0172 25.78 56.464 23.5595 43.1426 25.503C43.1426 25.503 51.2071 28.4208 54.6578 30.9395L54.6651 30.9694C22.7849 40.1544 0 64.4998 0 93.0891C0 129.56 37.0799 159.125 82.8248 159.125C128.567 159.125 165.652 129.56 165.652 93.0891C165.652 64.4275 142.747 40.0309 110.735 30.8958Z"
    fill="#1A1919" />
  <path fill-rule="evenodd" clip-rule="evenodd"
    d="M120.931 47.7689C123.394 44.1588 130.009 44.5517 135.708 48.6459C141.407 52.7426 144.03 58.9873 141.567 62.5975C139.103 66.2076 132.488 65.8159 126.788 61.7205C121.092 57.6251 118.468 51.3791 120.931 47.7689Z"
    fill="#FFFFFE" />
</svg>
