<svg viewBox="0 0 191 174" fill="none" xmlns="http://www.w3.org/2000/svg">
  <path fill-rule="evenodd" clip-rule="evenodd"
    d="M95.4666 150.374C53.2015 150.374 18.9424 125.427 18.9424 94.6569C18.9424 69.078 42.6253 47.5419 74.8899 40.9925L59.5529 54.0735C59.5529 54.0735 69.4238 49.2465 76.1435 47.7417C81.139 46.6243 84.7963 45.1481 89.7331 44.4602C93.6496 48.4119 104.86 60.6514 104.86 71.2571C106.603 59.3709 103.673 48.5383 102.428 44.6655C106.726 45.4104 110.167 46.7249 114.708 47.7417C121.428 49.2465 131.3 54.0735 131.3 54.0735L115.433 40.8675C125.074 42.761 133.95 46.0004 141.689 50.2728C140.794 50.7132 139.999 51.2733 139.436 52.0536C136.595 55.9875 139.621 62.7938 146.189 67.2565C152.61 71.6159 160.005 72.0944 162.994 68.4459C168.73 76.2554 171.988 85.1782 171.988 94.6569C171.988 125.427 137.732 150.374 95.4666 150.374ZM127.681 33.667L127.686 33.6561C131.706 30.9279 140.875 27.7905 140.875 27.7905C125.519 25.6727 115.656 28.0923 115.656 28.0923C122.519 19.1315 151.677 13.8001 151.677 13.8001C119.283 12.2872 102.993 27.1856 102.993 27.1856C103.926 18.2262 118.35 0 118.35 0C98.6259 13.1938 95.3111 26.8838 95.3111 26.8838C95.3111 26.8838 91.9949 13.1938 72.2721 0C72.2721 0 86.6979 18.2262 87.6323 27.1856C87.6323 27.1856 71.339 12.2872 38.9476 13.8001C38.9476 13.8001 68.1074 19.1315 74.9649 28.0923C74.9649 28.0923 65.1036 25.6727 49.7447 27.7905C49.7447 27.7905 59.0441 30.97 63.0219 33.7146L63.0314 33.7472C26.272 43.7561 0 70.2851 0 101.439C0 141.179 42.7549 173.397 95.4993 173.397C148.241 173.397 191 141.179 191 101.439C191 70.2063 164.59 43.6215 127.681 33.667Z"
    fill="#1A1919" />
</svg>
