<svg width="473" height="174" fill="none" xmlns="http://www.w3.org/2000/svg">
  <path fill-rule="evenodd" clip-rule="evenodd"
    d="M219.503 172.695H224.114V37.2549H219.503V172.695Z" fill="#FEFEFE" />
  <path fill-rule="evenodd" clip-rule="evenodd"
    d="M273.097 61.5917H276.013C281.449 61.5917 284.167 59.1937 284.167 54.3978C284.167 50.4421 281.5 48.4624 276.171 48.4624H273.097V61.5917ZM273.097 73.2659V94.1787H257.537V36.7094H276.407C292.058 36.7094 299.885 42.3704 299.885 53.6904C299.885 60.347 296.628 65.4972 290.115 69.1386L306.897 94.1787H289.249L277.037 73.2659H273.097Z"
    fill="#FEFEFE" />
  <path fill-rule="evenodd" clip-rule="evenodd"
    d="M349.582 94.1782H315.388V36.71H349.582V49.1706H330.949V58.2115H348.203V70.672H330.949V81.521H349.582V94.1782Z"
    fill="#FEFEFE" />
  <path fill-rule="evenodd" clip-rule="evenodd"
    d="M417.495 94.1782H397.089L376.053 53.691H375.699C376.197 60.0585 376.447 64.9207 376.447 68.2741V94.1782H362.659V36.71H382.986L403.943 76.6463H404.181C403.812 70.8561 403.628 66.2042 403.628 62.6919V36.71H417.495V94.1782Z"
    fill="#FEFEFE" />
  <path fill-rule="evenodd" clip-rule="evenodd"
    d="M456.998 94.1782H441.437V49.4061H427.375V36.71H471.022V49.4061H456.998V94.1782Z"
    fill="#FEFEFE" />
  <path fill-rule="evenodd" clip-rule="evenodd"
    d="M273.097 140.108H276.013C281.449 140.108 284.167 137.71 284.167 132.914C284.167 128.958 281.5 126.979 276.171 126.979H273.097V140.108ZM273.097 151.782V172.695H257.537V115.225H276.407C292.058 115.225 299.885 120.887 299.885 132.206C299.885 138.863 296.628 144.013 290.115 147.655L306.897 172.695H289.249L277.037 151.782H273.097Z"
    fill="#FEFEFE" />
  <mask id="mask0_47_4232" style="mask-type:luminance" maskUnits="userSpaceOnUse" x="0" y="0"
    width="473" height="174">
    <path fill-rule="evenodd" clip-rule="evenodd" d="M0 173.072H472.09V0H0V173.072Z" fill="white" />
  </mask>
  <g mask="url(#mask0_47_4232)">
    <path fill-rule="evenodd" clip-rule="evenodd"
      d="M325.625 172.694H341.264V115.226H325.625V172.694Z" fill="#FEFEFE" />
    <path fill-rule="evenodd" clip-rule="evenodd"
      d="M396.186 143.292C396.186 138.025 395.143 134.121 393.054 131.577C390.968 129.037 387.796 127.765 383.541 127.765H379.01V159.958H382.478C387.205 159.958 390.671 158.589 392.877 155.851C395.083 153.113 396.186 148.927 396.186 143.292ZM412.338 142.742C412.338 152.333 409.691 159.723 404.399 164.911C399.107 170.1 391.669 172.694 382.084 172.694H363.451V115.225H383.384C392.627 115.225 399.765 117.584 404.793 122.301C409.822 127.018 412.338 133.831 412.338 142.742Z"
      fill="#FEFEFE" />
    <path fill-rule="evenodd" clip-rule="evenodd"
      d="M465.259 172.694H431.066V115.226H465.259V127.687H446.627V136.728H463.88V149.188H446.627V160.037H465.259V172.694Z"
      fill="#FEFEFE" />
    <path fill-rule="evenodd" clip-rule="evenodd"
      d="M465.362 171.956C463.496 171.956 461.988 171.466 460.88 170.497C459.744 169.502 459.169 168.103 459.169 166.339C459.169 164.564 459.719 163.16 460.803 162.166C461.872 161.19 463.406 160.695 465.362 160.695C467.237 160.695 468.717 161.193 469.761 162.174C470.817 163.168 471.35 164.569 471.35 166.339C471.35 168.079 470.802 169.469 469.718 170.47C468.65 171.456 467.183 171.956 465.362 171.956Z"
      fill="#1D1D1B" />
    <path fill-rule="evenodd" clip-rule="evenodd"
      d="M465.362 159.958C463.213 159.958 461.511 160.518 460.305 161.624C459.061 162.762 458.43 164.348 458.43 166.338C458.43 168.326 459.091 169.91 460.393 171.051C461.64 172.141 463.312 172.694 465.362 172.694C467.377 172.694 469.01 172.128 470.22 171.011C471.46 169.866 472.089 168.293 472.089 166.338C472.089 164.358 471.477 162.777 470.269 161.639C469.083 160.523 467.433 159.958 465.362 159.958ZM465.362 161.433C467.053 161.433 468.349 161.859 469.254 162.711C470.159 163.562 470.611 164.773 470.611 166.338C470.611 167.872 470.146 169.07 469.215 169.93C468.285 170.789 467.001 171.22 465.362 171.22C463.672 171.22 462.34 170.794 461.367 169.942C460.394 169.091 459.907 167.889 459.907 166.338C459.907 164.773 460.372 163.562 461.304 162.711C462.234 161.859 463.586 161.433 465.362 161.433Z"
      fill="#FEFEFE" />
    <path fill-rule="evenodd" clip-rule="evenodd"
      d="M296.621 123.075V109.062L284.524 86.4019H296.522L302.129 98.5333L307.783 86.4019H319.738L307.633 108.774V123.075H296.621Z"
      fill="#FEFEFE" />
    <path fill-rule="evenodd" clip-rule="evenodd"
      d="M320.897 85.7107H318.578H308.224H307.342L306.969 86.5096L302.132 96.8912L297.334 86.5131L296.964 85.7107H296.078H285.676H283.372L284.455 87.7395L295.93 109.235V122.385V123.766H297.312H306.942H308.324V122.385V108.949L319.796 87.7463L320.897 85.7107ZM318.578 87.0914L306.942 108.601V122.385H297.312V108.89L285.676 87.0914H296.078L302.126 100.176L308.224 87.0914H318.578Z"
      fill="#1D1D1B" />
    <path fill-rule="evenodd" clip-rule="evenodd"
      d="M340.029 95.047C335.66 95.047 333.535 98.2016 333.535 104.69C333.535 111.112 335.645 114.236 339.981 114.236C342.182 114.236 343.757 113.518 344.799 112.042C345.88 110.51 346.428 108.037 346.428 104.69C346.428 101.328 345.872 98.8325 344.775 97.2758C343.717 95.7773 342.165 95.047 340.029 95.047ZM339.981 123.558C334.262 123.558 329.799 121.918 326.718 118.683C323.645 115.46 322.088 110.735 322.088 104.641C322.088 98.613 323.638 93.9235 326.694 90.7072C329.758 87.4817 334.245 85.8461 340.029 85.8461C345.83 85.8461 350.305 87.4703 353.331 90.674C356.346 93.8652 357.874 98.581 357.874 104.69C357.874 110.78 356.338 115.496 353.307 118.706C350.265 121.926 345.782 123.558 339.981 123.558Z"
      fill="#FEFEFE" />
    <path fill-rule="evenodd" clip-rule="evenodd"
      d="M339.982 113.546C337.512 113.546 334.228 112.628 334.228 104.69C334.228 96.6651 337.54 95.7382 340.03 95.7382C341.923 95.7382 343.29 96.3714 344.21 97.6743C345.222 99.111 345.735 101.472 345.735 104.69C345.735 107.892 345.23 110.232 344.234 111.645C343.331 112.924 341.94 113.546 339.982 113.546ZM340.03 85.1555C334.048 85.1555 329.393 86.8642 326.192 90.2325C323.011 93.5825 321.397 98.4298 321.397 104.642C321.397 110.919 323.019 115.804 326.217 119.16C329.435 122.536 334.066 124.248 339.982 124.248C345.979 124.248 350.633 122.543 353.811 119.179C356.966 115.839 358.567 110.965 358.567 104.69C358.567 98.4001 356.974 93.5242 353.835 90.2005C350.673 86.8528 346.029 85.1555 340.03 85.1555ZM339.982 114.926C342.401 114.926 344.195 114.098 345.364 112.439C346.534 110.782 347.119 108.199 347.119 104.69C347.119 101.165 346.526 98.5624 345.341 96.88C344.155 95.1987 342.385 94.3575 340.03 94.3575C335.24 94.3575 332.845 97.8023 332.845 104.69C332.845 111.514 335.224 114.926 339.982 114.926ZM340.03 86.5362C345.659 86.5362 349.925 88.0734 352.829 91.1469C355.732 94.2214 357.183 98.735 357.183 104.69C357.183 110.629 355.724 115.143 352.804 118.233C349.884 121.323 345.61 122.869 339.982 122.869C334.433 122.869 330.179 121.315 327.219 118.209C324.259 115.102 322.781 110.581 322.781 104.642C322.781 98.7682 324.251 94.282 327.195 91.1823C330.139 88.0849 334.417 86.5362 340.03 86.5362Z"
      fill="#1D1D1B" />
    <path fill-rule="evenodd" clip-rule="evenodd"
      d="M381.683 123.558C376.698 123.558 372.797 122.251 370.089 119.674C367.37 117.09 365.992 113.348 365.992 108.552V86.4013H376.979V107.804C376.979 110.122 377.397 111.801 378.223 112.796C379.028 113.765 380.207 114.236 381.829 114.236C383.571 114.236 384.782 113.773 385.531 112.822C386.308 111.833 386.702 110.129 386.702 107.756V86.4013H397.641V108.336C397.641 113.126 396.247 116.904 393.5 119.562C390.755 122.214 386.779 123.558 381.683 123.558Z"
      fill="#FEFEFE" />
    <path fill-rule="evenodd" clip-rule="evenodd"
      d="M398.332 85.7107H396.949H387.393H386.009V87.0914V107.756C386.009 110.514 385.452 111.801 384.985 112.395C384.378 113.169 383.345 113.545 381.828 113.545C380.425 113.545 379.421 113.157 378.756 112.355C378.046 111.501 377.67 109.928 377.67 107.804V87.0914V85.7107H376.288H366.683H365.3V87.0914V108.552C365.3 113.542 366.751 117.452 369.612 120.173C372.454 122.878 376.515 124.248 381.683 124.248C386.966 124.248 391.103 122.839 393.98 120.057C396.868 117.263 398.332 113.319 398.332 108.335V87.0914V85.7107ZM396.949 87.0914V108.335C396.949 112.954 395.638 116.531 393.018 119.066C390.396 121.6 386.619 122.868 381.683 122.868C376.861 122.868 373.154 121.636 370.566 119.174C367.976 116.712 366.683 113.172 366.683 108.552V87.0914H376.288V107.804C376.288 110.298 376.755 112.11 377.691 113.236C378.626 114.364 380.005 114.926 381.828 114.926C383.779 114.926 385.195 114.367 386.073 113.247C386.953 112.129 387.393 110.298 387.393 107.756V87.0914H396.949Z"
      fill="#1D1D1B" />
    <path fill-rule="evenodd" clip-rule="evenodd"
      d="M419.306 101.682C422.251 101.682 423.622 100.497 423.622 97.955C423.622 96.6852 423.185 94.9982 419.404 94.9982H418.207V101.682H419.306ZM427.038 123.075L419.538 110.232H418.207V123.075H407.269V86.4019H419.548C429.574 86.4019 434.659 90.1429 434.659 97.5196C434.659 101.631 432.74 104.894 428.949 107.23L439.568 123.075H427.038Z"
      fill="#FEFEFE" />
    <path fill-rule="evenodd" clip-rule="evenodd"
      d="M418.899 95.6895H419.403C422.931 95.6895 422.931 97.1627 422.931 97.9548C422.931 99.5332 422.492 100.992 419.305 100.992H418.899V95.6895ZM419.548 85.7102H407.96H406.576V87.0909V122.386V123.765H407.96H417.516H418.899V122.386V110.923H419.141L426.24 123.081L426.64 123.765H427.435H438.274H440.863L439.424 121.619L429.915 107.43C433.523 104.992 435.351 101.665 435.351 97.5205C435.351 87.7596 426.757 85.7102 419.548 85.7102ZM417.516 102.372H419.305C422.644 102.372 424.315 100.899 424.315 97.9548C424.315 95.5249 422.677 94.3087 419.403 94.3087H417.516V102.372ZM419.548 87.0909C429.161 87.0909 433.967 90.5678 433.967 97.5205C433.967 101.608 431.967 104.77 427.967 107.007L438.274 122.386H427.435L419.935 109.542H417.516V122.386H407.96V87.0909H419.548Z"
      fill="#1D1D1B" />
    <path fill-rule="evenodd" clip-rule="evenodd"
      d="M92.6262 150.091C51.6182 150.091 18.3786 125.191 18.3786 94.4789C18.3786 68.9474 41.3562 47.4529 72.6612 40.9151L57.7796 53.9723C57.7796 53.9723 67.3589 49.1536 73.8776 47.6517C78.7251 46.5362 82.2737 45.0629 87.0628 44.376C90.8634 48.3204 101.739 60.5375 101.739 71.1236C103.432 59.2597 100.588 48.4461 99.3798 44.5806C103.55 45.3258 106.888 46.6356 111.295 47.6517C117.815 49.1536 127.393 53.9723 127.393 53.9723L111.999 40.7905C121.352 42.681 129.964 45.9133 137.474 50.1788C136.604 50.6177 135.833 51.1766 135.287 51.9561C132.531 55.8822 135.467 62.676 141.839 67.1301C148.069 71.4814 155.245 71.9591 158.144 68.3165C163.71 76.1127 166.87 85.0175 166.87 94.4789C166.87 125.191 133.633 150.091 92.6262 150.091ZM123.881 33.6036L123.888 33.5921C127.788 30.8685 136.683 27.7379 136.683 27.7379C121.783 25.6245 112.214 28.0396 112.214 28.0396C118.873 19.0948 147.164 13.7743 147.164 13.7743C115.734 12.2633 99.9284 27.1333 99.9284 27.1333C100.834 18.1907 114.828 -0.000686646 114.828 -0.000686646C95.6914 13.1685 92.4762 26.8338 92.4762 26.8338C92.4762 26.8338 89.2575 13.1685 70.1217 -0.000686646C70.1217 -0.000686646 84.119 18.1907 85.0251 27.1333C85.0251 27.1333 69.2157 12.2633 37.7882 13.7743C37.7882 13.7743 66.0806 19.0948 72.7345 28.0396C72.7345 28.0396 63.1666 25.6245 48.2644 27.7379C48.2644 27.7379 57.287 30.9119 61.146 33.6504L61.1552 33.6824C25.4907 43.6731 0 70.1521 0 101.249C0 140.915 41.4822 173.073 92.6572 173.073C143.83 173.073 185.317 140.915 185.317 101.249C185.317 70.0744 159.693 43.5394 123.881 33.6036Z"
      fill="#FEFEFE" />
  </g>
</svg>
