<svg width="230" height="231" fill="none" xmlns="http://www.w3.org/2000/svg">
  <path fill-rule="evenodd" clip-rule="evenodd"
    d="M220.359 133.753C220.359 135.175 219.207 136.326 217.786 136.326C216.365 136.326 215.213 135.175 215.213 133.753C215.213 132.332 216.365 131.181 217.786 131.181C219.207 131.181 220.359 132.332 220.359 133.753Z"
    fill="#009EE2" />
  <path fill-rule="evenodd" clip-rule="evenodd"
    d="M15.0866 133.753C15.0866 135.175 13.9345 136.326 12.514 136.326C11.0927 136.326 9.94055 135.175 9.94055 133.753C9.94055 132.332 11.0927 131.181 12.514 131.181C13.9345 131.181 15.0866 132.332 15.0866 133.753Z"
    fill="#009EE2" />
  <mask id="mask0_47_4503" style="mask-type:luminance" maskUnits="userSpaceOnUse" x="0" y="89"
    width="25" height="20">
    <path fill-rule="evenodd" clip-rule="evenodd" d="M0 89.9111H24.578V108.48H0V89.9111Z"
      fill="white" />
  </mask>
  <g mask="url(#mask0_47_4503)">
    <path fill-rule="evenodd" clip-rule="evenodd"
      d="M10.2984 100.7L10.4701 99.603C10.7912 97.5577 10.0481 96.3933 8.2394 96.1098C6.74817 95.876 5.84491 96.762 5.53036 98.7676L5.34856 99.9234L10.2984 100.7ZM14.6999 101.39L22.5839 102.626L21.6662 108.48L-0.000244141 105.082L1.11367 97.9841C2.0364 92.0957 4.63216 89.4855 8.90024 90.155C11.4094 90.5489 13.1589 92.0784 14.148 94.7434L24.578 89.9111L23.5369 96.5499L14.9323 99.9082L14.6999 101.39Z"
      fill="#FEFEFE" />
  </g>
  <path fill-rule="evenodd" clip-rule="evenodd"
    d="M31.1473 73.7444L26.2667 85.815L5.9342 77.5948L10.8148 65.5236L15.2243 67.3055L12.5636 73.8837L15.7625 75.1772L18.2255 69.0861L22.6335 70.868L20.1705 76.9599L24.0093 78.5118L26.6693 71.9336L31.1473 73.7444Z"
    fill="#FEFEFE" />
  <path fill-rule="evenodd" clip-rule="evenodd"
    d="M46.0319 51.5405L41.4284 57.8005L24.2356 55.1001L24.1555 55.2091C26.226 56.4954 27.7771 57.5184 28.8081 58.2766L36.7721 64.1334L33.6613 68.3625L15.993 55.3699L20.5793 49.1338L37.5852 51.7339L37.6379 51.6617C35.7751 50.4648 34.3034 49.47 33.2241 48.6764L25.2355 42.8016L28.3637 38.548L46.0319 51.5405Z"
    fill="#FEFEFE" />
  <path fill-rule="evenodd" clip-rule="evenodd"
    d="M58.1972 41.1347L53.6174 44.8942L42.7762 31.6881L38.6373 35.0861L35.5625 31.3411L48.41 20.795L51.4841 24.54L47.3567 27.9286L58.1972 41.1347Z"
    fill="#FEFEFE" />
  <path fill-rule="evenodd" clip-rule="evenodd"
    d="M79.6394 14.0729L80.5211 5.15004L86.5805 3.02899L84.186 18.0279L87.0162 26.1124L81.3817 28.0848L78.6107 20.1698L67.3258 9.76947L73.4134 7.63831L79.6394 14.0729Z"
    fill="#009EE2" />
  <path fill-rule="evenodd" clip-rule="evenodd"
    d="M101.232 11.7011C101.608 15.9245 103.265 17.9056 106.203 17.6437C107.697 17.511 108.759 16.8999 109.391 15.8091C110.021 14.719 110.24 13.0885 110.047 10.9162C109.853 8.73528 109.344 7.15675 108.519 6.18063C107.694 5.20524 106.554 4.78175 105.1 4.91089C102.141 5.17422 100.852 7.43812 101.232 11.7011ZM116.263 10.3629C116.59 14.0386 115.937 16.9129 114.304 18.9863C112.672 21.059 110.117 22.2501 106.64 22.5596C103.214 22.8648 100.501 22.1376 98.5025 20.378C96.5034 18.6184 95.3404 15.9 95.0136 12.2242C94.6896 8.58882 95.3512 5.73189 96.9983 3.65196C98.6453 1.57276 101.202 0.378762 104.669 0.0699826C108.145 -0.239518 110.864 0.4776 112.827 2.22061C114.79 3.96363 115.934 6.67771 116.263 10.3629Z"
    fill="#009EE2" />
  <path fill-rule="evenodd" clip-rule="evenodd"
    d="M144.852 3.46475L142.505 16.4551C141.995 19.2796 140.8 21.3227 138.921 22.5838C137.041 23.8449 134.596 24.2027 131.585 23.6588C128.642 23.1278 126.517 21.9662 125.21 20.1749C123.903 18.3843 123.504 16.0764 124.014 13.2519L126.385 0.128784L132.245 1.18787L129.957 13.8529C129.682 15.3787 129.767 16.5374 130.213 17.3288C130.659 18.1209 131.439 18.618 132.551 18.8186C133.742 19.0336 134.667 18.8474 135.327 18.2602C135.986 17.6736 136.457 16.603 136.738 15.0476L139.021 2.41144L144.852 3.46475Z"
    fill="#009EE2" />
  <path fill-rule="evenodd" clip-rule="evenodd"
    d="M157.511 18.3224L158.518 18.7892C160.397 19.66 161.72 19.2653 162.489 17.6053C163.125 16.2353 162.522 15.1228 160.68 14.2693L159.618 13.7766L157.511 18.3224ZM155.636 22.364L152.28 29.6044L146.904 27.1118L156.129 7.21503L162.648 10.2379C168.055 12.7449 169.85 15.9582 168.033 19.8779C166.965 22.1822 165.013 23.4432 162.179 23.6611L163.956 35.0181L157.859 32.1915L156.998 22.9952L155.636 22.364Z"
    fill="#009EE2" />
  <path fill-rule="evenodd" clip-rule="evenodd"
    d="M189.203 39.8443L189.978 40.6394C191.423 42.1205 192.801 42.2229 194.111 40.9452C195.192 39.8912 195.023 38.6366 193.607 37.1836L192.789 36.346L189.203 39.8443ZM186.013 42.9552L180.3 48.5276L176.163 44.2855L191.863 28.9728L196.88 34.1168C201.041 38.3834 201.576 42.0245 198.484 45.0409C196.665 46.8149 194.392 47.299 191.666 46.4946L189.287 57.7405L184.595 52.9299L187.061 44.0287L186.013 42.9552Z"
    fill="#FEFEFE" />
  <path fill-rule="evenodd" clip-rule="evenodd"
    d="M191.634 61.8963L210.022 49.9456L213.268 54.9387L194.879 66.8895L191.634 61.8963Z"
    fill="#FEFEFE" />
  <path fill-rule="evenodd" clip-rule="evenodd"
    d="M213.594 80.3067C215.465 79.573 216.707 78.6582 217.319 77.5638C217.932 76.4694 217.943 75.1679 217.35 73.6601L216.721 72.0541L205.284 76.5415L205.766 77.7701C206.423 79.4461 207.392 80.4835 208.671 80.8839C209.951 81.2843 211.592 81.0924 213.594 80.3067ZM216.035 85.9557C212.628 87.2918 209.635 87.3841 207.055 86.232C204.476 85.0784 202.52 82.8037 201.186 79.4057L198.595 72.8001L219.011 64.7906L221.784 71.8564C223.069 75.1332 223.224 77.9916 222.248 80.4323C221.271 82.8722 219.201 84.7133 216.035 85.9557Z"
    fill="#FEFEFE" />
  <path fill-rule="evenodd" clip-rule="evenodd"
    d="M208.291 108.654L206.443 95.765L228.152 92.6527L230 105.541L225.293 106.216L224.285 99.1926L220.871 99.6825L221.803 106.186L217.096 106.861L216.164 100.357L212.065 100.945L213.073 107.968L208.291 108.654Z"
    fill="#FEFEFE" />
  <path fill-rule="evenodd" clip-rule="evenodd"
    d="M26.7704 167.267C26.3549 166.56 25.8059 166.186 25.1219 166.147C24.438 166.108 23.5694 166.398 22.5175 167.015L21.8062 167.434C20.6078 168.137 19.8431 168.806 19.5141 169.44C19.1844 170.074 19.2371 170.762 19.6736 171.503C20.0228 172.099 20.5949 172.377 21.3899 172.34C22.1856 172.301 23.1733 171.936 24.3558 171.242C26.7098 169.86 27.5143 168.535 26.7704 167.267ZM31.8278 166.785C32.7649 168.38 32.8393 170.039 32.0522 171.759C31.2643 173.48 29.6894 175.034 27.3267 176.421C24.9466 177.818 22.8039 178.442 20.9 178.289C18.9961 178.138 17.5504 177.22 16.5627 175.539C16.2438 174.995 16.0187 174.479 15.8874 173.987C15.7554 173.497 15.6955 173.024 15.7071 172.571C15.7193 172.117 15.8376 171.529 16.0627 170.806L15.8809 170.495L13.9741 170.536L11.6569 166.59L31.7852 154.773L34.7547 159.83L30.2009 162.504C29.6577 162.823 28.6866 163.312 27.2877 163.972L27.3945 164.153C28.442 164.198 29.3222 164.443 30.0357 164.889C30.7492 165.334 31.3466 165.966 31.8278 166.785Z"
    fill="#FEFEFE" />
  <path fill-rule="evenodd" clip-rule="evenodd"
    d="M29.9926 192.871L26.1437 188.445L43.7578 173.129L47.606 177.555L29.9926 192.871Z"
    fill="#FEFEFE" />
  <path fill-rule="evenodd" clip-rule="evenodd"
    d="M46.75 207.972L47.4837 205.856L47.2118 205.643C46.3446 205.951 45.4384 205.998 44.4948 205.782C43.5504 205.566 42.6154 205.092 41.6884 204.361C40.2202 203.203 39.4136 201.876 39.2701 200.38C39.1251 198.884 39.6654 197.358 40.8926 195.804L47.7485 187.112L52.3535 190.745L46.6029 198.035C45.9153 198.907 45.5185 199.663 45.4132 200.306C45.3071 200.949 45.5373 201.494 46.1029 201.94C46.895 202.565 47.7067 202.698 48.5371 202.341C49.3667 201.983 50.3674 201.062 51.5376 199.578L56.1462 193.737L60.7511 197.369L50.2245 210.713L46.75 207.972Z"
    fill="#FEFEFE" />
  <path fill-rule="evenodd" clip-rule="evenodd"
    d="M72.3772 207.667C71.7517 207.375 71.1363 207.328 70.531 207.526C69.9257 207.724 69.3904 208.227 68.925 209.037L73.4933 211.166C73.8215 210.415 73.8872 209.723 73.6909 209.09C73.4947 208.458 73.0568 207.983 72.3772 207.667ZM66.9411 220.144C64.3756 218.948 62.7011 217.338 61.9191 215.312C61.137 213.287 61.3326 211.014 62.5071 208.494C63.7198 205.893 65.3084 204.203 67.2708 203.424C69.2338 202.646 71.4342 202.825 73.8727 203.961C76.1929 205.043 77.7036 206.484 78.4034 208.283C79.1039 210.083 78.9236 212.12 77.863 214.395L76.76 216.76L67.2571 212.33C66.8913 213.208 66.8913 214.03 67.2571 214.796C67.6221 215.563 68.3176 216.184 69.342 216.662C70.2749 217.097 71.1752 217.409 72.0417 217.598C72.9082 217.787 73.8987 217.882 75.0126 217.882L73.2314 221.703C72.1983 221.74 71.2005 221.633 70.2366 221.382C69.2713 221.131 68.1733 220.718 66.9411 220.144Z"
    fill="#FEFEFE" />
  <path fill-rule="evenodd" clip-rule="evenodd"
    d="M84.499 220.168L85.6266 215.626L93.8519 217.667L92.725 222.209L84.499 220.168Z"
    fill="#FEFEFE" />
  <path fill-rule="evenodd" clip-rule="evenodd"
    d="M109.045 225.852C109.832 225.917 110.789 225.8 111.918 225.502L111.566 229.763C110.751 230.037 109.98 230.216 109.256 230.302C108.531 230.387 107.691 230.39 106.735 230.312C104.771 230.149 103.395 229.551 102.608 228.518C101.82 227.485 101.509 225.971 101.674 223.978L102.25 216.997L100.203 216.827L100.548 212.462L102.621 212.633L102.916 209.225L108.784 209.709L108.503 213.103L112.659 213.446L112.297 217.826L108.141 217.484L107.596 224.076C107.505 225.173 107.988 225.764 109.045 225.852Z"
    fill="#FEFEFE" />
  <path fill-rule="evenodd" clip-rule="evenodd"
    d="M125.213 221.311C125.385 222.76 125.71 223.842 126.188 224.556C126.666 225.269 127.361 225.571 128.275 225.463C129.179 225.356 129.771 224.9 130.054 224.096C130.336 223.292 130.39 222.165 130.218 220.715C130.047 219.275 129.729 218.21 129.264 217.52C128.8 216.83 128.11 216.54 127.197 216.649C126.303 216.755 125.706 217.195 125.405 217.972C125.104 218.748 125.041 219.86 125.213 221.311ZM136.146 220.01C136.475 222.771 135.988 225.012 134.688 226.732C133.387 228.453 131.4 229.472 128.729 229.79C126.167 230.095 124.035 229.547 122.333 228.148C120.631 226.749 119.62 224.705 119.3 222.013C118.972 219.263 119.461 217.037 120.763 215.336C122.067 213.636 124.059 212.626 126.741 212.306C128.399 212.109 129.906 212.288 131.261 212.841C132.615 213.396 133.716 214.289 134.563 215.523C135.41 216.757 135.938 218.252 136.146 220.01Z"
    fill="#FEFEFE" />
  <path fill-rule="evenodd" clip-rule="evenodd"
    d="M167.078 218.16L163.454 209.66C163.003 208.602 162.52 207.87 162.005 207.464C161.489 207.06 160.919 206.99 160.293 207.256C159.466 207.609 159.009 208.223 158.925 209.095C158.84 209.969 159.12 211.16 159.763 212.669L162.87 219.954L157.46 222.26L153.836 213.76C153.386 212.703 152.909 211.968 152.407 211.556C151.906 211.145 151.347 211.071 150.731 211.333C149.884 211.694 149.429 212.335 149.364 213.253C149.299 214.172 149.632 215.487 150.361 217.199L153.28 224.043L147.884 226.343L141.218 210.709L145.289 208.974L146.789 210.617L147.106 210.481C147.214 209.587 147.581 208.785 148.206 208.072C148.833 207.36 149.646 206.79 150.649 206.362C152.904 205.401 154.778 205.412 156.273 206.394L156.701 206.212C156.867 205.38 157.267 204.615 157.899 203.915C158.53 203.216 159.319 202.665 160.267 202.261C162.117 201.473 163.684 201.364 164.971 201.935C166.258 202.506 167.314 203.757 168.137 205.69L172.474 215.86L167.078 218.16Z"
    fill="#FEFEFE" />
  <path fill-rule="evenodd" clip-rule="evenodd"
    d="M184.625 202.019C185.176 201.571 185.505 201.013 185.613 200.345C185.72 199.677 185.547 199.064 185.092 198.506L184.259 197.482L183.25 198.381C181.797 199.653 181.497 200.814 182.349 201.86C183.006 202.667 183.765 202.72 184.625 202.019ZM190.424 202.251L188.13 201.216L188.038 201.292C188.044 202.551 187.842 203.579 187.433 204.375C187.025 205.172 186.316 205.981 185.308 206.802C184.068 207.812 182.786 208.235 181.467 208.072C180.148 207.908 178.938 207.151 177.839 205.802C176.697 204.398 176.335 202.955 176.754 201.474C177.172 199.992 178.274 198.454 180.058 196.859L182.199 195L182.048 194.813C181.164 193.727 180.187 193.621 179.116 194.491C178.155 195.274 177.198 196.594 176.248 198.452L172.49 196.52C173.382 194.479 174.998 192.505 177.34 190.599C179.031 189.223 180.681 188.576 182.29 188.659C183.898 188.742 185.315 189.536 186.54 191.041L193.576 199.684L190.424 202.251Z"
    fill="#FEFEFE" />
  <path fill-rule="evenodd" clip-rule="evenodd"
    d="M202.682 183.031C203.184 182.421 203.635 181.567 204.033 180.47L207.333 183.189C207.093 184.015 206.801 184.75 206.458 185.394C206.115 186.038 205.639 186.731 205.028 187.472C203.776 188.992 202.5 189.781 201.202 189.839C199.904 189.897 198.483 189.29 196.94 188.017L191.534 183.562L190.226 185.149L186.776 182.324L188.096 180.739L185.509 178.606L189.272 174.041L191.899 176.206L194.551 172.988L197.944 175.783L195.292 179.001L200.397 183.208C201.246 183.908 202.008 183.849 202.682 183.031Z"
    fill="#FEFEFE" />
  <path fill-rule="evenodd" clip-rule="evenodd"
    d="M208.162 167.138C209.454 167.82 210.528 168.168 211.386 168.18C212.245 168.193 212.889 167.793 213.319 166.98C213.745 166.175 213.707 165.428 213.206 164.739C212.705 164.05 211.809 163.365 210.518 162.682C209.237 162.004 208.179 161.661 207.347 161.651C206.515 161.641 205.884 162.042 205.454 162.856C205.034 163.652 205.057 164.394 205.525 165.082C205.992 165.771 206.872 166.456 208.162 167.138ZM213.308 157.404C215.766 158.703 217.333 160.377 218.009 162.425C218.685 164.474 218.395 166.688 217.137 169.066C215.932 171.347 214.269 172.79 212.151 173.395C210.032 174 207.776 173.669 205.38 172.403C202.931 171.109 201.376 169.441 200.718 167.402C200.06 165.363 200.361 163.15 201.623 160.763C202.404 159.286 203.407 158.149 204.633 157.349C205.859 156.549 207.22 156.152 208.716 156.156C210.213 156.161 211.743 156.577 213.308 157.404Z"
    fill="#FEFEFE" />
  <path fill-rule="evenodd" clip-rule="evenodd"
    d="M87.2958 81.6143C84.5406 80.641 84.8804 77.1702 87.7763 76.7582C89.6232 76.4949 91.3467 76.3405 92.9231 76.2626C87.4069 74.2887 81.4073 73.1214 81.2032 73.0803C78.0548 72.488 78.3506 68.2589 81.5473 68.1037C92.4101 67.5821 100.438 70.0978 105.599 72.5969C103.067 68.1586 99.7119 63.7476 99.621 63.6301C97.7207 61.1562 100.473 58.2589 103.039 60.03C109.589 64.5485 113.319 69.2003 115.401 72.6611C117.48 69.2003 121.212 64.5485 127.762 60.03C130.329 58.261 133.078 61.1562 131.181 63.6301C131.087 63.7476 127.732 68.1586 125.203 72.5969C130.362 70.0978 138.387 67.5821 149.252 68.1037C152.45 68.2589 152.745 72.488 149.594 73.0803C149.394 73.1214 143.395 74.2887 137.877 76.2626C139.453 76.3405 141.173 76.4949 143.023 76.7582C145.917 77.1702 146.262 80.641 143.504 81.6143C143.48 81.6229 142.599 81.9353 141.415 82.4057C161.104 89.8734 175.174 105.77 175.174 124.684C175.174 151.147 147.834 171.593 115.51 171.593C83.1886 171.593 55.8494 151.147 55.8494 124.684C55.8494 105.807 69.8599 89.9354 89.4933 82.4504C88.256 81.9548 87.321 81.6229 87.2958 81.6143Z"
    fill="#FEFEFE" />
  <path fill-rule="evenodd" clip-rule="evenodd"
    d="M115.259 154.715C89.9864 154.715 69.5024 139.339 69.5024 120.37C69.5024 104.604 83.663 91.3277 102.955 87.2912L93.7856 95.3548C93.7856 95.3548 99.6877 92.3774 103.704 91.4511C106.691 90.7614 108.878 89.8502 111.83 89.4288C114.171 91.8659 120.876 99.4093 120.876 105.948C121.918 98.6208 120.165 91.9424 119.42 89.5551C121.992 90.0139 124.048 90.8256 126.763 91.4511C130.781 92.3774 136.684 95.3548 136.684 95.3548L127.197 87.214C132.961 88.3806 138.268 90.3768 142.894 93.013C145.056 91.9178 148.587 92.4943 151.737 94.699C155.665 97.4499 157.473 101.645 155.774 104.071C155.735 104.125 155.676 104.161 155.635 104.213C159.064 109.028 161.011 114.528 161.011 120.37C161.011 139.339 140.528 154.715 115.259 154.715ZM134.521 82.7749L134.523 82.7699C136.928 81.0875 142.411 79.154 142.411 79.154C133.228 77.8496 127.331 79.3409 127.331 79.3409C131.433 73.8182 148.867 70.5306 148.867 70.5306C129.499 69.5977 119.758 78.7817 119.758 78.7817C120.315 73.2583 128.939 62.0233 128.939 62.0233C117.147 70.1576 115.166 78.5949 115.166 78.5949C115.166 78.5949 113.184 70.1576 101.39 62.0233C101.39 62.0233 110.016 73.2583 110.575 78.7817C110.575 78.7817 100.832 69.5977 81.4647 70.5306C81.4647 70.5306 98.8992 73.8182 103 79.3409C103 79.3409 97.1035 77.8496 87.9202 79.154C87.9202 79.154 93.4818 81.1127 95.8576 82.8045L95.8633 82.8254C73.8845 88.9953 58.1779 105.348 58.1779 124.552C58.1779 149.051 83.7409 168.911 115.278 168.911C146.813 168.911 172.378 149.051 172.378 124.552C172.378 105.298 156.589 88.9101 134.521 82.7749Z"
    fill="#1D1D1B" />
  <path fill-rule="evenodd" clip-rule="evenodd"
    d="M149.016 93.2359C149.307 93.3528 149.6 93.4855 149.892 93.6284C149.599 93.4855 149.308 93.3521 149.016 93.2359Z"
    fill="#009EE2" />
  <path fill-rule="evenodd" clip-rule="evenodd"
    d="M145.587 103.482C141.66 100.73 139.851 96.5343 141.548 94.1095C141.885 93.6283 142.36 93.2835 142.895 93.0122C142.894 93.0129 142.894 93.0129 142.894 93.0129C138.268 90.3767 132.961 88.3805 127.197 87.2139L136.684 95.3547C136.684 95.3547 130.781 92.3773 126.763 91.451C124.048 90.8255 121.992 90.0139 119.42 89.555C120.165 91.9423 121.918 98.6207 120.876 105.948C120.876 99.4093 114.171 91.8658 111.83 89.4288C108.878 89.8501 106.691 90.7613 103.704 91.451C99.687 92.3773 93.7856 95.3547 93.7856 95.3547L102.955 87.2911C83.6623 91.3276 69.5024 104.604 69.5024 120.37C69.5024 139.338 89.9865 154.715 115.259 154.715C140.528 154.715 161.011 139.338 161.011 120.37C161.011 114.528 159.064 109.028 155.635 104.213C153.851 106.464 149.427 106.169 145.587 103.482Z"
    fill="#009EE2" />
  <path fill-rule="evenodd" clip-rule="evenodd"
    d="M150.373 93.8661C150.832 94.1143 151.289 94.3855 151.737 94.6994C151.288 94.3855 150.832 94.1135 150.373 93.8661Z"
    fill="#009EE2" />
  <path fill-rule="evenodd" clip-rule="evenodd"
    d="M147.724 92.8098C147.95 92.8704 148.175 92.9331 148.403 93.0103C148.175 92.9338 147.95 92.8696 147.724 92.8098Z"
    fill="#009EE2" />
  <path fill-rule="evenodd" clip-rule="evenodd"
    d="M146.689 92.5882C146.793 92.6048 146.893 92.6113 146.998 92.6315C146.893 92.612 146.793 92.6041 146.689 92.5882Z"
    fill="#009EE2" />
</svg>
