<svg width="562" height="158" fill="none" xmlns="http://www.w3.org/2000/svg">
  <path fill-rule="evenodd" clip-rule="evenodd"
    d="M173.387 83.7685L187.162 82.4735C187.731 84.1105 188.525 85.2813 189.55 85.9849C190.572 86.6918 191.936 87.0425 193.641 87.0425C195.504 87.0425 196.948 86.645 197.972 85.8488C198.767 85.2585 199.165 84.52 199.166 83.6324C199.166 82.6325 198.642 81.8603 197.596 81.3136C196.847 80.928 194.857 80.4499 191.629 79.8824C186.81 79.0405 183.455 78.2683 181.569 77.5637C179.705 76.8361 178.126 75.6206 176.831 73.9139C175.557 72.2094 174.92 70.2653 174.92 68.0826C174.92 65.6963 175.614 63.64 177.001 61.9115C178.387 60.1841 180.296 58.9 182.729 58.0581C185.16 57.1955 188.423 56.7631 192.515 56.762C196.835 56.762 200.016 57.0931 202.063 57.751C204.131 58.411 205.847 59.4337 207.212 60.8202C208.598 62.2078 209.746 64.0833 210.657 66.4467L197.494 67.7417C197.153 66.5829 196.583 65.7301 195.789 65.1855C194.698 64.4579 193.379 64.0953 191.834 64.0942C190.265 64.0942 189.116 64.3784 188.39 64.947C187.685 65.4915 187.333 66.1635 187.333 66.9586C187.333 67.8441 187.787 68.5161 188.696 68.9703C189.605 69.4245 191.584 69.834 194.631 70.1977C199.244 70.7205 202.676 71.4481 204.927 72.3804C207.179 73.3127 208.894 74.6415 210.077 76.3699C211.28 78.0973 211.884 79.9946 211.885 82.064C211.885 84.1563 211.248 86.1897 209.976 88.1676C208.723 90.1466 206.735 91.7258 204.007 92.9076C201.302 94.0664 197.608 94.6469 192.925 94.6469C186.309 94.6469 181.592 93.7026 178.774 91.8162C175.977 89.9309 174.181 87.2494 173.387 83.7685Z"
    fill="#FFFFFE" />
  <path fill-rule="evenodd" clip-rule="evenodd"
    d="M215.707 57.5811H228.631V63.4799C230.563 61.0707 232.516 59.3553 234.496 58.3315C236.472 57.2859 238.882 56.7631 241.724 56.762C245.566 56.762 248.566 57.9111 250.726 60.2059C252.91 62.48 254 66.0034 254 70.7772V93.7941H240.053V73.8802C240.053 71.6071 239.633 70.005 238.792 69.0727C237.95 68.1175 236.769 67.6404 235.246 67.6404C233.562 67.6404 232.2 68.2776 231.154 69.5497C230.107 70.8229 229.585 73.1079 229.585 76.4037V93.7941H215.707V57.5811Z"
    fill="#FFFFFE" />
  <path fill-rule="evenodd" clip-rule="evenodd"
    d="M271.701 75.7557C271.701 78.985 272.349 81.3713 273.644 82.9157C274.963 84.4623 276.61 85.2356 278.589 85.2356C280.588 85.2356 282.225 84.4754 283.499 82.9495C284.793 81.4279 285.443 78.985 285.443 75.6195C285.443 72.4817 284.793 70.1531 283.499 68.6283C282.204 67.0839 280.601 66.3106 278.691 66.3106C276.667 66.3106 274.996 67.0948 273.679 68.6631C272.36 70.2097 271.701 72.5732 271.701 75.7557ZM257.788 75.7894C257.788 70.2653 259.652 65.7203 263.38 62.15C267.108 58.5591 272.142 56.7631 278.485 56.762C285.738 56.762 291.217 58.8663 294.923 63.0704C297.899 66.4587 299.389 70.6301 299.39 75.5858C299.39 81.1546 297.537 85.7235 293.83 89.2938C290.149 92.8389 285.044 94.6121 278.52 94.6121C272.7 94.6121 267.994 93.1352 264.404 90.1803C259.993 86.5208 257.788 81.7242 257.788 75.7894Z"
    fill="#FFFFFE" />
  <path fill-rule="evenodd" clip-rule="evenodd"
    d="M297.932 57.5811H311.367L317.197 80.3932L324.563 57.5811H337.077L344.715 80.3932L350.546 57.5811H363.88L350.546 93.7941H338.203L330.871 72.0046L323.778 93.7941H311.367L297.932 57.5811Z"
    fill="#FFFFFE" />
  <path fill-rule="evenodd" clip-rule="evenodd"
    d="M378.87 75.8406C378.87 78.912 379.442 81.1415 380.586 82.5313C381.749 83.8981 383.219 84.581 384.988 84.581C386.625 84.581 387.992 83.909 389.091 82.565C390.211 81.1981 390.771 78.912 390.772 75.7067C390.772 72.8825 390.222 70.8088 389.124 69.4865C388.048 68.1654 386.738 67.5043 385.19 67.5032C383.33 67.5032 381.805 68.1981 380.618 69.5878C379.452 70.9558 378.87 73.0393 378.87 75.8406ZM365.153 44.5059H378.97V61.5859C380.337 60.1515 381.884 59.0754 383.611 58.3576C385.359 57.6421 387.285 57.2826 389.394 57.2816C393.741 57.2816 397.337 58.8521 400.185 61.9888C403.031 65.106 404.456 69.5878 404.456 75.4376C404.456 79.3379 403.804 82.7774 402.505 85.7584C401.204 88.7165 399.401 90.9362 397.092 92.4164C394.807 93.8725 392.261 94.6012 389.46 94.6012C387.061 94.6012 384.864 94.086 382.87 93.0546C381.368 92.2475 379.732 90.7347 377.961 88.5161V93.7941H365.153V44.5059Z"
    fill="#FFFFFE" />
  <path fill-rule="evenodd" clip-rule="evenodd"
    d="M420.294 76.0084C420.294 79.193 420.933 81.5456 422.209 83.0693C423.51 84.5941 425.135 85.3554 427.085 85.3554C429.058 85.3554 430.672 84.605 431.925 83.1031C433.204 81.6011 433.842 79.193 433.842 75.8744C433.842 72.7812 433.204 70.4853 431.925 68.9823C430.649 67.4585 429.069 66.6972 427.186 66.6961C425.191 66.6961 423.543 67.4694 422.245 69.016C420.944 70.5397 420.294 72.8716 420.294 76.0084ZM406.578 76.0432C406.578 70.5964 408.414 66.1135 412.091 62.5944C415.766 59.0536 420.729 57.2826 426.984 57.2816C434.134 57.2816 439.535 59.3564 443.189 63.5017C446.125 66.8421 447.594 70.9558 447.595 75.8406C447.595 81.3332 445.766 85.8379 442.113 89.3569C438.483 92.852 433.451 94.6012 427.018 94.6012C421.28 94.6012 416.639 93.1461 413.098 90.2304C408.75 86.6221 406.578 81.8941 406.578 76.0432Z"
    fill="#FFFFFE" />
  <path fill-rule="evenodd" clip-rule="evenodd"
    d="M475.77 76.8492C473.889 77.5212 471.926 78.1169 469.887 78.631C467.107 79.3705 465.348 80.0992 464.608 80.8158C463.846 81.5565 463.465 82.3973 463.465 83.3383C463.465 84.4133 463.835 85.301 464.575 85.9937C465.337 86.6657 466.447 87.0022 467.903 87.0022C469.427 87.0022 470.839 86.633 472.14 85.8934C473.461 85.1539 474.391 84.2586 474.93 83.2033C475.49 82.1272 475.769 80.7396 475.77 79.0351V76.8492ZM463.903 69.6543L450.824 68.2765C451.316 65.9904 452.022 64.1976 452.941 62.8972C453.882 61.575 455.23 60.4325 456.977 59.4675C458.231 58.7737 459.958 58.2356 462.153 57.8534C464.35 57.4732 466.725 57.2826 469.282 57.2816C473.384 57.2816 476.678 57.5179 479.166 57.9884C481.654 58.4361 483.727 59.3891 485.386 60.8463C486.552 61.8549 487.471 63.2904 488.144 65.1496C488.816 66.988 489.152 68.747 489.152 70.4276V86.1962C489.152 87.8768 489.254 89.2001 489.454 90.1629C489.678 91.105 490.149 92.3151 490.867 93.7941H478.023C477.507 92.876 477.171 92.1822 477.015 91.7095C476.857 91.2161 476.701 90.4548 476.544 89.4234C474.751 91.1508 472.97 92.3815 471.198 93.1221C468.778 94.1067 465.963 94.6012 462.76 94.6012C458.5 94.6012 455.261 93.6155 453.043 91.642C450.846 89.6695 449.748 87.2396 449.748 84.348C449.748 81.6349 450.543 79.4054 452.137 77.6562C453.726 75.9082 456.662 74.6088 460.946 73.756C466.078 72.7257 469.404 72.009 470.931 71.6049C472.452 71.1791 474.068 70.6301 475.77 69.9571C475.77 68.2765 475.424 67.1002 474.729 66.4271C474.033 65.7551 472.813 65.4186 471.064 65.4186C468.821 65.4186 467.141 65.778 466.021 66.4936C465.146 67.0556 464.442 68.1077 463.903 69.6543Z"
    fill="#FFFFFE" />
  <path fill-rule="evenodd" clip-rule="evenodd"
    d="M494.735 58.0897H507.545V63.9384C508.778 61.4072 510.043 59.6701 511.344 58.7279C512.667 57.764 514.291 57.2826 516.22 57.2816C518.236 57.2816 520.445 57.9111 522.843 59.1647L518.606 68.9147C516.993 68.2427 515.716 67.9062 514.773 67.9062C512.98 67.9062 511.591 68.6457 510.605 70.1248C509.194 72.2094 508.486 76.1096 508.486 81.8244V93.7941H494.735V58.0897Z"
    fill="#FFFFFE" />
  <path fill-rule="evenodd" clip-rule="evenodd"
    d="M548.001 75.8406C548.001 73.0393 547.408 70.9558 546.218 69.5878C545.031 68.1981 543.529 67.5043 541.715 67.5032C540.121 67.5032 538.789 68.1654 537.712 69.4865C536.637 70.8088 536.1 73.0284 536.1 76.1434C536.1 79.058 536.647 81.1981 537.746 82.565C538.867 83.909 540.244 84.581 541.881 84.581C543.63 84.581 545.087 83.8981 546.252 82.5313C547.416 81.1655 548 78.9349 548.001 75.8406ZM561.717 44.5059V93.7941H548.908V88.5161C547.115 90.7576 545.479 92.2715 544 93.0546C542.026 94.086 539.83 94.6012 537.41 94.6012C532.546 94.6012 528.826 92.7518 526.248 89.0542C523.694 85.3554 522.416 80.8616 522.416 75.5716C522.416 69.6543 523.826 65.1278 526.653 61.9888C529.497 58.8521 533.106 57.2826 537.478 57.2816C539.606 57.2816 541.535 57.6421 543.26 58.3576C545.008 59.0754 546.554 60.1515 547.9 61.5859V44.5059H561.717Z"
    fill="#FFFFFE" />
  <path fill-rule="evenodd" clip-rule="evenodd"
    d="M174.014 129.413L187.125 128.18C187.666 129.737 188.422 130.852 189.396 131.523C190.371 132.193 191.668 132.529 193.291 132.529C195.064 132.529 196.438 132.151 197.412 131.394C198.169 130.831 198.546 130.128 198.547 129.283C198.547 128.332 198.049 127.596 197.055 127.077C196.342 126.709 194.449 126.255 191.376 125.714C186.79 124.914 183.599 124.178 181.803 123.507C180.028 122.816 178.525 121.658 177.292 120.034C176.08 118.412 175.474 116.563 175.474 114.485C175.474 112.214 176.134 110.258 177.454 108.612C178.774 106.967 180.592 105.745 182.906 104.945C185.22 104.124 188.326 103.712 192.219 103.712C196.33 103.712 199.358 104.026 201.306 104.652C203.275 105.279 204.909 106.254 206.206 107.573C207.525 108.894 208.619 110.678 209.484 112.927L196.957 114.161C196.632 113.057 196.091 112.246 195.336 111.727C194.296 111.035 193.042 110.689 191.571 110.689C190.078 110.689 188.984 110.959 188.293 111.499C187.622 112.019 187.287 112.658 187.287 113.414C187.287 114.258 187.719 114.896 188.585 115.329C189.451 115.762 191.333 116.152 194.231 116.497C198.622 116.995 201.889 117.688 204.032 118.574C206.173 119.462 207.806 120.728 208.932 122.372C210.078 124.016 210.652 125.823 210.653 127.79C210.653 129.781 210.046 131.717 208.834 133.599C207.645 135.482 205.753 136.986 203.156 138.11C200.582 139.213 197.065 139.765 192.609 139.765C186.314 139.765 181.823 138.867 179.142 137.071C176.481 135.276 174.771 132.724 174.014 129.413Z"
    fill="#009FE3" />
  <path fill-rule="evenodd" clip-rule="evenodd"
    d="M239.991 125.486L252.55 126.914C251.859 129.532 250.722 131.804 249.142 133.729C247.564 135.633 245.541 137.116 243.075 138.175C240.63 139.234 237.515 139.764 233.73 139.765C230.071 139.765 227.022 139.43 224.577 138.758C222.153 138.068 220.067 136.965 218.314 135.449C216.562 133.914 215.187 132.118 214.192 130.062C213.196 128.006 212.701 125.281 212.701 121.884C212.701 118.337 213.305 115.384 214.517 113.025C215.404 111.296 216.615 109.749 218.152 108.384C219.686 107 221.266 105.973 222.89 105.301C225.463 104.241 228.763 103.712 232.788 103.712C238.411 103.712 242.696 104.718 245.638 106.729C248.601 108.742 250.679 111.684 251.869 115.556L239.44 117.211C239.05 115.742 238.336 114.637 237.298 113.901C236.282 113.145 234.907 112.766 233.177 112.765C230.991 112.765 229.219 113.556 227.854 115.135C226.513 116.692 225.843 119.061 225.843 122.24C225.843 125.076 226.513 127.229 227.854 128.699C229.196 130.171 230.904 130.907 232.982 130.907C234.712 130.907 236.162 130.462 237.331 129.575C238.52 128.689 239.407 127.326 239.991 125.486Z"
    fill="#009FE3" />
  <path fill-rule="evenodd" clip-rule="evenodd"
    d="M254.831 93.695H268.039V108.904C269.835 107.043 271.619 105.714 273.393 104.911C275.168 104.112 277.265 103.712 279.689 103.712C283.282 103.712 286.104 104.805 288.159 106.989C290.236 109.174 291.275 112.529 291.275 117.05V138.953H278.002V120.002C278.002 117.838 277.601 116.313 276.801 115.427C276.001 114.518 274.875 114.063 273.426 114.063C271.825 114.063 270.527 114.67 269.532 115.881C268.536 117.092 268.039 119.267 268.039 122.404V138.953H254.831V93.695Z"
    fill="#009FE3" />
  <path fill-rule="evenodd" clip-rule="evenodd"
    d="M331.487 138.953H319.155V133.372C317.315 135.666 315.456 137.299 313.573 138.273C311.714 139.246 309.421 139.732 306.694 139.732C303.061 139.732 300.205 138.652 298.127 136.489C296.072 134.304 295.046 130.949 295.046 126.427V104.491H308.318V123.442C308.318 125.606 308.716 127.142 309.518 128.049C310.318 128.958 311.442 129.412 312.892 129.412C314.472 129.412 315.758 128.808 316.753 127.596C317.771 126.385 318.279 124.211 318.28 121.073V104.491H331.487V138.953Z"
    fill="#009FE3" />
  <path fill-rule="evenodd" clip-rule="evenodd" d="M338.238 138.953H350.574V93.695H338.238V138.953Z"
    fill="#009FE3" />
  <path fill-rule="evenodd" clip-rule="evenodd"
    d="M381.81 118.671C381.548 116.118 380.856 114.292 379.731 113.187C378.629 112.084 377.169 111.531 375.352 111.531C373.251 111.531 371.576 112.365 370.321 114.03C369.519 115.07 369.012 116.617 368.796 118.671H381.81ZM395.244 124.999H368.762C369.001 127.12 369.573 128.699 370.482 129.737C371.759 131.229 373.424 131.976 375.481 131.976C376.778 131.976 378.012 131.653 379.181 131.003C379.896 130.592 380.662 129.868 381.485 128.829L394.498 130.03C392.508 133.492 390.106 135.98 387.293 137.493C384.48 138.986 380.446 139.732 375.188 139.732C370.623 139.732 367.033 139.094 364.414 137.817C361.797 136.52 359.622 134.476 357.893 131.684C356.183 128.872 355.328 125.573 355.328 121.786C355.328 116.4 357.048 112.042 360.487 108.709C363.948 105.377 368.72 103.712 374.798 103.712C379.731 103.712 383.627 104.458 386.483 105.95C389.337 107.443 391.512 109.607 393.005 112.44C394.498 115.275 395.244 118.964 395.244 123.507V124.999Z"
    fill="#009FE3" />
  <path fill-rule="evenodd" clip-rule="evenodd"
    d="M181.146 45.7191C181.146 46.6602 181.321 47.3431 181.671 47.7689C182.028 48.1872 182.479 48.3963 183.02 48.3963C183.522 48.3963 183.939 48.1904 184.276 47.7787C184.619 47.3605 184.791 46.6602 184.791 45.6778C184.791 44.813 184.623 44.178 184.287 43.7728C183.958 43.3688 183.555 43.1662 183.083 43.1662C182.512 43.1662 182.045 43.3786 181.682 43.8033C181.324 44.2227 181.146 44.862 181.146 45.7191ZM176.944 36.1216H181.177V41.3528C181.595 40.9138 182.07 40.5838 182.599 40.3649C183.135 40.1449 183.724 40.0349 184.37 40.0349C185.701 40.0349 186.803 40.5152 187.675 41.4769C188.547 42.431 188.982 43.8033 188.982 45.5961C188.982 46.7909 188.784 47.8441 188.385 48.7568C187.987 49.6629 187.435 50.3426 186.727 50.7957C186.027 51.2422 185.248 51.4655 184.389 51.4655C183.656 51.4655 182.982 51.3076 182.372 50.9917C181.911 50.7445 181.41 50.2816 180.868 49.602V51.2183H176.944V36.1216Z"
    fill="#FFFFFE" />
  <path fill-rule="evenodd" clip-rule="evenodd"
    d="M190.714 51.2183H194.915V36.1216H190.714V51.2183Z" fill="#FFFFFE" />
  <path fill-rule="evenodd" clip-rule="evenodd"
    d="M208.905 51.2182H204.992V49.4473C204.408 50.1759 203.817 50.6933 203.22 51.0015C202.629 51.3119 201.902 51.4655 201.038 51.4655C199.883 51.4655 198.976 51.1224 198.318 50.4351C197.667 49.7424 197.34 48.6783 197.34 47.2439V40.2821H201.552V46.2964C201.552 46.9825 201.678 47.4705 201.933 47.758C202.187 48.0466 202.543 48.1904 203.004 48.1904C203.505 48.1904 203.913 47.9987 204.229 47.6142C204.552 47.2298 204.714 46.5403 204.714 45.5449V40.2821H208.905V51.2182Z"
    fill="#FFFFFE" />
  <path fill-rule="evenodd" clip-rule="evenodd"
    d="M218.693 44.7825C218.61 43.9722 218.391 43.3928 218.034 43.042C217.685 42.6913 217.221 42.5171 216.643 42.5171C215.978 42.5171 215.446 42.7807 215.048 43.31C214.793 43.64 214.632 44.1301 214.563 44.7825H218.693ZM222.957 46.7909H214.553C214.628 47.4629 214.81 47.9639 215.1 48.2939C215.504 48.7677 216.032 49.004 216.686 49.004C217.098 49.004 217.489 48.9017 217.859 48.6958C218.085 48.5651 218.329 48.3353 218.591 48.0053L222.719 48.3865C222.088 49.4854 221.326 50.274 220.434 50.7554C219.542 51.2281 218.261 51.4655 216.592 51.4655C215.145 51.4655 214.004 51.2629 213.173 50.8578C212.342 50.4461 211.653 49.7969 211.103 48.9115C210.562 48.0195 210.289 46.9728 210.289 45.7715C210.289 44.0615 210.837 42.6783 211.928 41.6207C213.026 40.5631 214.54 40.0349 216.468 40.0349C218.034 40.0349 219.269 40.2723 220.177 40.745C221.082 41.2188 221.772 41.9061 222.246 42.8046C222.719 43.7042 222.957 44.8751 222.957 46.3171V46.7909Z"
    fill="#FFFFFE" />
  <path fill-rule="evenodd" clip-rule="evenodd" d="M224.079 47.3365H230.175V44.092H224.079V47.3365Z"
    fill="#FFFFFE" />
  <path fill-rule="evenodd" clip-rule="evenodd"
    d="M236.96 36.0388V40.2821H239.269V43.3405H236.96V47.2233C236.96 47.6894 237.006 47.9987 237.095 48.1501C237.233 48.3832 237.472 48.4998 237.816 48.4998C238.125 48.4998 238.558 48.4104 239.115 48.2318L239.423 51.1257C238.386 51.3522 237.417 51.4655 236.519 51.4655C235.476 51.4655 234.707 51.3315 234.211 51.0636C233.717 50.7957 233.351 50.3916 233.109 49.8492C232.875 49.2992 232.761 48.4137 232.761 47.1917V43.3405H231.215V40.2821H232.761V36.0388H236.96Z"
    fill="#FFFFFE" />
  <path fill-rule="evenodd" clip-rule="evenodd"
    d="M244.951 45.7715C244.951 46.7462 245.148 47.4673 245.538 47.9334C245.937 48.4007 246.435 48.6337 247.033 48.6337C247.636 48.6337 248.132 48.4039 248.515 47.9432C248.906 47.4836 249.102 46.7462 249.102 45.7301C249.102 44.7825 248.906 44.0789 248.515 43.6193C248.123 43.1521 247.64 42.919 247.063 42.9179C246.452 42.9179 245.947 43.1553 245.55 43.6291C245.151 44.0963 244.951 44.8097 244.951 45.7715ZM240.75 45.7813C240.75 44.1127 241.314 42.7404 242.44 41.6621C243.565 40.5773 245.085 40.0349 247.002 40.0349C249.191 40.0349 250.846 40.6699 251.964 41.9398C252.864 42.9625 253.314 44.2227 253.315 45.7192C253.315 47.4019 252.755 48.7819 251.635 49.859C250.523 50.9297 248.982 51.4655 247.011 51.4655C245.254 51.4655 243.833 51.019 242.748 50.127C241.417 49.0215 240.75 47.5729 240.75 45.7813Z"
    fill="#FFFFFE" />
  <path fill-rule="evenodd" clip-rule="evenodd"
    d="M255.363 40.2821H259.276V41.8777C259.839 41.2123 260.405 40.7385 260.976 40.4575C261.553 40.1754 262.246 40.0349 263.055 40.0349C263.928 40.0349 264.618 40.1896 265.127 40.4989C265.633 40.8071 266.049 41.2678 266.371 41.8777C267.031 41.1644 267.631 40.6808 268.173 40.4259C268.715 40.1656 269.385 40.0349 270.181 40.0349C271.357 40.0349 272.272 40.3856 272.932 41.0849C273.589 41.7786 273.919 42.8667 273.919 44.3501V51.2183H269.719V44.9884C269.719 44.4939 269.622 44.1268 269.43 43.8861C269.148 43.5082 268.798 43.3209 268.38 43.3198C267.886 43.3198 267.487 43.4984 267.184 43.8556C266.882 44.2129 266.731 44.7858 266.731 45.5754V51.2183H262.531V45.1942C262.531 44.7139 262.503 44.3882 262.447 44.2161C262.358 43.9417 262.203 43.7217 261.985 43.5561C261.765 43.3851 261.508 43.3002 261.212 43.3002C260.732 43.3002 260.338 43.4821 260.028 43.8458C259.719 44.2096 259.566 44.8065 259.566 45.6375V51.2183H255.363V40.2821Z"
    fill="#FFFFFE" />
  <path fill-rule="evenodd" clip-rule="evenodd"
    d="M283.878 46.0285C283.301 46.2343 282.7 46.4162 282.076 46.5742C281.223 46.8007 280.685 47.024 280.459 47.244C280.225 47.4705 280.109 47.7276 280.109 48.0162C280.109 48.3451 280.221 48.6163 280.449 48.8298C280.682 49.0356 281.022 49.138 281.47 49.138C281.933 49.138 282.367 49.0247 282.767 48.7982C283.17 48.5716 283.456 48.2972 283.619 47.9748C283.793 47.6448 283.878 47.22 283.878 46.6983V46.0285ZM280.244 43.8241L276.237 43.4026C276.389 42.7022 276.604 42.1533 276.885 41.7547C277.173 41.3506 277.587 40.9999 278.121 40.7047C278.506 40.4913 279.033 40.3268 279.708 40.2103C280.379 40.0937 281.108 40.0349 281.89 40.0349C283.147 40.0349 284.155 40.1068 284.918 40.2517C285.681 40.3889 286.315 40.6808 286.823 41.1262C287.18 41.4356 287.461 41.8745 287.668 42.4441C287.875 43.0072 287.977 43.5463 287.977 44.0615V48.8908C287.977 49.4059 288.008 49.8111 288.069 50.1063C288.137 50.3949 288.283 50.7652 288.501 51.2183H284.567C284.409 50.9373 284.306 50.7238 284.258 50.58C284.21 50.4286 284.162 50.1956 284.114 49.8797C283.565 50.408 283.019 50.7859 282.476 51.0124C281.735 51.3141 280.874 51.4655 279.891 51.4655C278.588 51.4655 277.595 51.1638 276.916 50.5593C276.244 49.9549 275.907 49.211 275.907 48.3244C275.907 47.4945 276.151 46.8116 276.639 46.2757C277.126 45.7399 278.026 45.3423 279.337 45.0809C280.909 44.7651 281.929 44.5462 282.394 44.422C282.861 44.2913 283.356 44.1236 283.878 43.9166C283.878 43.4026 283.771 43.042 283.56 42.8362C283.345 42.6304 282.973 42.5269 282.437 42.5269C281.751 42.5269 281.235 42.6369 280.891 42.8569C280.624 43.029 280.406 43.3503 280.244 43.8241Z"
    fill="#FFFFFE" />
  <path fill-rule="evenodd" clip-rule="evenodd"
    d="M295.186 36.0388V40.2821H297.493V43.3405H295.186V47.2233C295.186 47.6894 295.23 47.9987 295.319 48.1501C295.457 48.3832 295.697 48.4998 296.042 48.4998C296.352 48.4998 296.783 48.4104 297.338 48.2318L297.648 51.1257C296.611 51.3522 295.643 51.4655 294.744 51.4655C293.7 51.4655 292.932 51.3315 292.437 51.0636C291.943 50.7957 291.576 50.3916 291.335 49.8492C291.101 49.2992 290.985 48.4137 290.985 47.1917V43.3405H289.44V40.2821H290.985V36.0388H295.186Z"
    fill="#FFFFFE" />
  <path fill-rule="evenodd" clip-rule="evenodd"
    d="M303.177 45.7715C303.177 46.7462 303.373 47.4673 303.763 47.9334C304.164 48.4007 304.66 48.6337 305.257 48.6337C305.861 48.6337 306.356 48.4039 306.742 47.9432C307.131 47.4836 307.328 46.7462 307.328 45.7301C307.328 44.7825 307.131 44.0789 306.742 43.6193C306.349 43.1521 305.865 42.919 305.288 42.9179C304.677 42.9179 304.172 43.1553 303.775 43.6291C303.376 44.0963 303.177 44.8097 303.177 45.7715ZM298.976 45.7813C298.976 44.1127 299.539 42.7404 300.666 41.6621C301.791 40.5773 303.31 40.0349 305.226 40.0349C307.416 40.0349 309.071 40.6699 310.19 41.9398C311.089 42.9625 311.54 44.2227 311.54 45.7192C311.54 47.4019 310.979 48.7819 309.86 49.859C308.748 50.9297 307.207 51.4655 305.237 51.4655C303.479 51.4655 302.058 51.019 300.974 50.127C299.642 49.0215 298.976 47.5729 298.976 45.7813Z"
    fill="#FFFFFE" />
  <path fill-rule="evenodd" clip-rule="evenodd"
    d="M176.944 36.1216H181.177V41.3528C181.595 40.9138 182.07 40.5838 182.599 40.3649C183.135 40.1449 183.724 40.0349 184.37 40.0349C185.701 40.0349 186.803 40.5152 187.675 41.4769C188.547 42.431 188.982 43.8033 188.982 45.5961C188.982 46.7909 188.784 47.8441 188.385 48.7568C187.987 49.6629 187.435 50.3426 186.727 50.7957C186.027 51.2422 185.248 51.4655 184.389 51.4655C183.656 51.4655 182.982 51.3076 182.372 50.9917C181.911 50.7445 181.41 50.2816 180.868 49.602V51.2183H176.944V36.1216ZM181.146 45.7191C181.146 46.6602 181.321 47.3431 181.671 47.7689C182.028 48.1872 182.479 48.3963 183.02 48.3963C183.522 48.3963 183.939 48.1904 184.276 47.7787C184.619 47.3605 184.791 46.6602 184.791 45.6778C184.791 44.813 184.623 44.178 184.287 43.7728C183.958 43.3688 183.555 43.1662 183.083 43.1662C182.512 43.1662 182.045 43.3786 181.682 43.8033C181.324 44.2227 181.146 44.862 181.146 45.7191Z"
    fill="#FFFFFE" />
  <path fill-rule="evenodd" clip-rule="evenodd"
    d="M222.957 46.7909H214.553C214.628 47.4629 214.81 47.9639 215.1 48.2939C215.504 48.7677 216.032 49.004 216.686 49.004C217.098 49.004 217.489 48.9017 217.859 48.6958C218.085 48.5651 218.329 48.3353 218.591 48.0053L222.719 48.3865C222.088 49.4854 221.326 50.274 220.434 50.7554C219.542 51.2281 218.261 51.4655 216.592 51.4655C215.145 51.4655 214.004 51.2629 213.173 50.8578C212.342 50.4461 211.653 49.7969 211.103 48.9115C210.562 48.0195 210.289 46.9728 210.289 45.7715C210.289 44.0615 210.837 42.6783 211.928 41.6207C213.026 40.5631 214.54 40.0349 216.468 40.0349C218.034 40.0349 219.269 40.2723 220.177 40.745C221.082 41.2188 221.772 41.9061 222.246 42.8046C222.719 43.7042 222.957 44.8751 222.957 46.3171V46.7909ZM218.693 44.7825C218.61 43.9722 218.391 43.3928 218.034 43.042C217.685 42.6913 217.221 42.5171 216.643 42.5171C215.978 42.5171 215.446 42.7807 215.048 43.31C214.793 43.64 214.632 44.1301 214.563 44.7825H218.693Z"
    fill="#FFFFFE" />
  <path fill-rule="evenodd" clip-rule="evenodd"
    d="M240.75 45.7813C240.75 44.1127 241.314 42.7404 242.44 41.6621C243.565 40.5773 245.085 40.0349 247.002 40.0349C249.191 40.0349 250.846 40.6699 251.964 41.9398C252.864 42.9625 253.314 44.2227 253.315 45.7192C253.315 47.4019 252.755 48.7819 251.635 49.859C250.523 50.9297 248.982 51.4655 247.011 51.4655C245.254 51.4655 243.833 51.019 242.748 50.127C241.417 49.0215 240.75 47.5729 240.75 45.7813ZM244.951 45.7715C244.951 46.7462 245.148 47.4673 245.538 47.9334C245.937 48.4007 246.435 48.6337 247.033 48.6337C247.636 48.6337 248.132 48.4039 248.515 47.9432C248.906 47.4836 249.102 46.7462 249.102 45.7301C249.102 44.7825 248.906 44.0789 248.515 43.6193C248.123 43.1521 247.64 42.919 247.063 42.9179C246.452 42.9179 245.947 43.1553 245.55 43.6291C245.151 44.0963 244.951 44.8097 244.951 45.7715Z"
    fill="#FFFFFE" />
  <path fill-rule="evenodd" clip-rule="evenodd"
    d="M280.244 43.8241L276.237 43.4026C276.389 42.7022 276.604 42.1533 276.885 41.7547C277.173 41.3506 277.587 40.9999 278.121 40.7047C278.506 40.4913 279.033 40.3268 279.708 40.2103C280.379 40.0937 281.108 40.0349 281.89 40.0349C283.147 40.0349 284.155 40.1068 284.918 40.2517C285.681 40.3889 286.315 40.6808 286.823 41.1262C287.18 41.4356 287.461 41.8745 287.668 42.4441C287.875 43.0072 287.977 43.5463 287.977 44.0615V48.8908C287.977 49.4059 288.008 49.8111 288.069 50.1063C288.137 50.3949 288.283 50.7652 288.501 51.2183H284.567C284.409 50.9373 284.306 50.7238 284.258 50.58C284.21 50.4286 284.162 50.1956 284.114 49.8797C283.565 50.408 283.019 50.7859 282.476 51.0124C281.735 51.3141 280.874 51.4655 279.891 51.4655C278.588 51.4655 277.595 51.1638 276.916 50.5593C276.244 49.9549 275.907 49.211 275.907 48.3244C275.907 47.4945 276.151 46.8116 276.639 46.2757C277.126 45.7399 278.026 45.3423 279.337 45.0809C280.909 44.7651 281.929 44.5462 282.394 44.422C282.861 44.2913 283.356 44.1236 283.878 43.9166C283.878 43.4026 283.771 43.042 283.56 42.8362C283.345 42.6304 282.973 42.5269 282.437 42.5269C281.751 42.5269 281.235 42.6369 280.891 42.8569C280.624 43.029 280.406 43.3503 280.244 43.8241ZM283.878 46.0285C283.301 46.2343 282.7 46.4162 282.076 46.5742C281.223 46.8007 280.685 47.024 280.459 47.244C280.225 47.4705 280.109 47.7276 280.109 48.0162C280.109 48.3451 280.221 48.6163 280.449 48.8298C280.682 49.0356 281.022 49.138 281.47 49.138C281.933 49.138 282.367 49.0247 282.767 48.7982C283.17 48.5716 283.456 48.2972 283.619 47.9748C283.793 47.6448 283.878 47.22 283.878 46.6983V46.0285Z"
    fill="#FFFFFE" />
  <path fill-rule="evenodd" clip-rule="evenodd"
    d="M298.976 45.7813C298.976 44.1127 299.539 42.7404 300.666 41.6621C301.791 40.5773 303.31 40.0349 305.226 40.0349C307.416 40.0349 309.071 40.6699 310.19 41.9398C311.089 42.9625 311.54 44.2227 311.54 45.7192C311.54 47.4019 310.979 48.7819 309.86 49.859C308.748 50.9297 307.207 51.4655 305.237 51.4655C303.479 51.4655 302.058 51.019 300.974 50.127C299.642 49.0215 298.976 47.5729 298.976 45.7813ZM303.177 45.7715C303.177 46.7462 303.373 47.4673 303.763 47.9334C304.164 48.4007 304.66 48.6337 305.257 48.6337C305.861 48.6337 306.356 48.4039 306.742 47.9432C307.131 47.4836 307.328 46.7462 307.328 45.7301C307.328 44.7825 307.131 44.0789 306.742 43.6193C306.349 43.1521 305.865 42.919 305.288 42.9179C304.677 42.9179 304.172 43.1553 303.775 43.6291C303.376 44.0963 303.177 44.8097 303.177 45.7715Z"
    fill="#FFFFFE" />
  <path fill-rule="evenodd" clip-rule="evenodd"
    d="M82.9942 131.988C47.9651 131.988 19.5688 110.674 19.5688 84.3806C19.5688 62.5225 39.1974 44.1192 65.9404 38.5254L53.2278 49.7011C53.2278 49.7011 61.4095 45.5765 66.9794 44.2902C71.1171 43.3361 74.1514 42.0738 78.2434 41.4878C81.489 44.8653 90.7805 55.3222 90.7805 64.3872C92.2269 54.2287 89.797 44.9709 88.7634 41.6621C92.3282 42.2993 95.1796 43.4222 98.9437 44.2902C104.514 45.5765 112.694 49.7011 112.694 49.7011L99.5438 38.4175C107.598 40.048 115.015 42.8406 121.464 46.5371C124.457 45.3108 129.078 46.1951 133.2 49.0825C137.74 52.2595 140.204 56.8405 139.48 60.1961C139.368 60.7854 139.175 61.3419 138.866 61.8451L138.873 61.8418C143.687 68.551 146.42 76.2251 146.42 84.3806C146.42 110.674 118.024 131.988 82.9942 131.988ZM109.696 32.2639L109.701 32.2551C113.033 29.9222 120.633 27.2429 120.633 27.2429C107.904 25.4338 99.7301 27.501 99.7301 27.501C105.415 19.8443 129.584 15.2873 129.584 15.2873C102.736 13.9956 89.2307 26.7255 89.2307 26.7255C90.0061 19.0688 101.961 3.49622 101.961 3.49622C85.6136 14.7711 82.8657 26.4674 82.8657 26.4674C82.8657 26.4674 80.1189 14.7711 63.7708 3.49622C63.7708 3.49622 75.7263 19.0688 76.5018 26.7255C76.5018 26.7255 62.9964 13.9956 36.1489 15.2873C36.1489 15.2873 60.3171 19.8443 66.0024 27.501C66.0024 27.501 57.8284 25.4338 45.0984 27.2429C45.0984 27.2429 52.8063 29.9592 56.1021 32.3042L56.1108 32.3303C25.643 40.8855 3.86768 63.554 3.86768 90.176C3.86768 124.136 39.3053 151.666 83.0215 151.666C126.737 151.666 162.175 124.136 162.175 90.176C162.175 63.4864 140.287 40.7701 109.696 32.2639Z"
    fill="#1A1919" />
  <path fill-rule="evenodd" clip-rule="evenodd"
    d="M43.5517 31.1268C39.7354 29.7795 40.2091 24.9709 44.2205 24.4013C46.7778 24.0375 49.1619 23.8229 51.3457 23.7162C43.7053 20.9835 35.3973 19.3629 35.1152 19.3095C30.7586 18.4883 31.1638 12.6287 35.5933 12.4163C50.6377 11.6909 61.7557 15.1795 68.9016 18.6375C65.3979 12.4925 60.7483 6.38134 60.623 6.21905C57.9927 2.7926 61.8015 -1.21764 65.3576 1.23512C74.4269 7.49118 79.596 13.9346 82.4768 18.7279C85.3587 13.9346 90.5277 7.49118 99.596 1.23512C103.152 -1.21655 106.962 2.7926 104.332 6.21905C104.207 6.38134 99.5568 12.4936 96.053 18.6375C103.199 15.1795 114.317 11.6909 129.361 12.4163C133.791 12.6287 134.196 18.4883 129.837 19.3095C129.557 19.3629 121.248 20.9835 113.608 23.7162C115.793 23.8229 118.176 24.0375 120.735 24.4013C124.744 24.9709 125.221 29.7806 121.401 31.1268C121.368 31.1387 120.147 31.5722 118.51 32.2246C145.781 42.565 165.264 64.5843 165.264 90.7794C165.264 127.429 127.398 155.748 82.6325 155.748C37.8664 155.748 0 127.429 0 90.7794C0 64.6344 19.4097 42.6499 46.5959 32.2834C44.8838 31.5995 43.5899 31.1398 43.5517 31.1268Z"
    fill="#FFFFFE" />
  <path fill-rule="evenodd" clip-rule="evenodd"
    d="M138.251 61.9115C135.92 65.24 129.661 64.8795 124.269 61.1034C118.878 57.3273 116.396 51.5701 118.726 48.2427C121.057 44.9132 127.316 45.2759 132.708 49.0509C138.1 52.827 140.582 58.5831 138.251 61.9115ZM109.206 32.2344L109.211 32.2257C112.542 29.8917 120.143 27.2124 120.143 27.2124C107.414 25.4033 99.2399 27.4705 99.2399 27.4705C104.923 19.8149 129.091 15.2568 129.091 15.2568C102.245 13.9662 88.7406 26.6961 88.7406 26.6961C89.516 19.0394 101.471 3.4668 101.471 3.4668C85.1224 14.7406 82.3745 26.438 82.3745 26.438C82.3745 26.438 79.6277 14.7406 63.2796 3.4668C63.2796 3.4668 75.2351 19.0394 76.0106 26.6961C76.0106 26.6961 62.5052 13.9662 35.6577 15.2568C35.6577 15.2568 59.827 19.8149 65.5112 27.4705C65.5112 27.4705 57.3372 25.4033 44.6072 27.2124C44.6072 27.2124 52.3151 29.9309 55.6109 32.2747L55.6196 32.2998C25.1518 40.8561 3.37646 63.5246 3.37646 90.1466C3.37646 124.105 38.814 151.637 82.5302 151.637C126.246 151.637 161.684 124.105 161.684 90.1466C161.684 63.4559 139.797 40.7385 109.206 32.2344Z"
    fill="#009FE3" />
  <path fill-rule="evenodd" clip-rule="evenodd"
    d="M82.503 131.958C47.4728 131.958 19.0776 110.644 19.0776 84.3501C19.0776 62.4931 38.7062 44.0887 65.4492 38.497L52.7366 49.6706C52.7366 49.6706 60.9194 45.546 66.4882 44.2608C70.627 43.3056 73.6602 42.0444 77.7522 41.4595C80.9978 44.8348 90.2882 55.2939 90.2882 64.3578C91.7368 54.2004 89.3058 44.9404 88.2711 41.6338C91.837 42.2698 94.6873 43.3928 98.4525 44.2608C104.021 45.546 112.204 49.6706 112.204 49.6706L99.0515 38.3892C107.107 40.0186 114.524 42.8112 120.973 46.5077C123.965 45.2824 128.587 46.1646 132.708 49.0509C137.248 52.2312 139.713 56.81 138.987 60.1656C138.877 60.7549 138.685 61.3125 138.374 61.8146L138.382 61.8124C143.197 68.5205 145.928 76.1957 145.928 84.3501C145.928 110.644 117.532 131.958 82.503 131.958ZM109.206 32.2344L109.211 32.2257C112.542 29.8917 120.143 27.2124 120.143 27.2124C107.414 25.4033 99.2399 27.4705 99.2399 27.4705C104.923 19.8149 129.091 15.2568 129.091 15.2568C102.245 13.9662 88.7406 26.6961 88.7406 26.6961C89.516 19.0394 101.471 3.4668 101.471 3.4668C85.1224 14.7406 82.3745 26.438 82.3745 26.438C82.3745 26.438 79.6277 14.7406 63.2796 3.4668C63.2796 3.4668 75.2351 19.0394 76.0106 26.6961C76.0106 26.6961 62.5052 13.9662 35.6577 15.2568C35.6577 15.2568 59.827 19.8149 65.5112 27.4705C65.5112 27.4705 57.3372 25.4033 44.6072 27.2124C44.6072 27.2124 52.3151 29.9309 55.6109 32.2747L55.6196 32.2998C25.1518 40.8561 3.37646 63.5246 3.37646 90.1466C3.37646 124.105 38.814 151.637 82.5302 151.637C126.246 151.637 161.684 124.105 161.684 90.1466C161.684 63.4559 139.797 40.7385 109.206 32.2344Z"
    fill="#1A1919" />
  <path fill-rule="evenodd" clip-rule="evenodd"
    d="M118.827 48.3549C121.157 45.0276 127.416 45.3891 132.809 49.1641C138.201 52.9391 140.682 58.6974 138.351 62.0248C136.02 65.3543 129.761 64.9916 124.369 61.2166C118.979 57.4406 116.496 51.6833 118.827 48.3549Z"
    fill="#FFFFFE" />
</svg>
