<svg viewBox="0 0 230 202" fill="none" xmlns="http://www.w3.org/2000/svg">
  <path fill-rule="evenodd" clip-rule="evenodd"
    d="M144.739 31.8956L144.745 31.8851C148.456 29.3007 156.919 26.3287 156.919 26.3287C142.743 24.3219 133.639 26.6147 133.639 26.6147C139.973 18.1251 166.892 13.075 166.892 13.075C136.987 11.6403 121.948 25.7548 121.948 25.7548C122.811 17.2671 136.125 0 136.125 0C117.918 12.5002 114.858 25.4697 114.858 25.4697C114.858 25.4697 111.796 12.5002 93.5891 0C93.5891 0 106.907 17.2671 107.769 25.7548C107.769 25.7548 92.7267 11.6403 62.8256 13.075C62.8256 13.075 89.7442 18.1251 96.076 26.6147C96.076 26.6147 86.972 24.3219 72.7929 26.3287C72.7929 26.3287 81.3766 29.3406 85.0491 31.9402L85.0576 31.9716C51.1248 41.4541 26.8722 66.5875 26.8722 96.1029C26.8722 133.754 66.3398 164.275 115.031 164.275C163.719 164.275 203.192 133.754 203.192 96.1029C203.192 66.5134 178.812 41.3268 144.739 31.8956Z"
    fill="#009FE3" />
  <path fill-rule="evenodd" clip-rule="evenodd"
    d="M115.001 142.463C75.984 142.463 44.3579 118.829 44.3579 89.6771C44.3579 65.4444 66.2204 45.0419 96.0049 38.8364L81.8476 51.2292C81.8476 51.2292 90.9601 46.6552 97.1631 45.23C101.775 44.1715 105.152 42.7729 109.708 42.1211C113.323 45.8656 123.672 57.4603 123.672 67.5091C125.282 56.2479 122.577 45.9844 121.426 42.3149C125.395 43.0218 128.57 44.2665 132.763 45.23C138.967 46.6552 148.079 51.2292 148.079 51.2292L133.433 38.7177C142.403 40.5267 150.663 43.6233 157.848 47.7194C161.181 46.3607 166.326 47.3412 170.917 50.5423C175.975 54.0635 178.717 59.1421 177.911 62.8648C177.787 63.5166 177.572 64.1361 177.229 64.6919L177.236 64.69C182.599 72.1249 185.641 80.6354 185.641 89.6771C185.641 118.829 154.017 142.463 115.001 142.463ZM144.739 31.8956L144.745 31.8851C148.456 29.3007 156.919 26.3287 156.919 26.3287C142.743 24.3219 133.639 26.6147 133.639 26.6147C139.973 18.1251 166.892 13.075 166.892 13.075C136.987 11.6403 121.948 25.7548 121.948 25.7548C122.811 17.2671 136.125 0 136.125 0C117.918 12.5002 114.858 25.4697 114.858 25.4697C114.858 25.4697 111.796 12.5002 93.5891 0C93.5891 0 106.907 17.2671 107.769 25.7548C107.769 25.7548 92.7267 11.6403 62.8256 13.075C62.8256 13.075 89.7442 18.1251 96.076 26.6147C96.076 26.6147 86.972 24.3219 72.7929 26.3287C72.7929 26.3287 81.3766 29.3406 85.0491 31.9402L85.0576 31.9716C51.1248 41.4541 26.8722 66.5875 26.8722 96.1029C26.8722 133.754 66.3398 164.275 115.031 164.275C163.719 164.275 203.192 133.754 203.192 96.1029C203.192 66.5134 178.812 41.3268 144.739 31.8956Z"
    fill="#1A1919" />
  <path fill-rule="evenodd" clip-rule="evenodd"
    d="M155.591 49.3156C158.214 45.5891 165.253 45.9949 171.32 50.2211C177.385 54.4493 180.177 60.8961 177.556 64.6226C174.933 68.3509 167.893 67.9462 161.825 63.719C155.763 59.4908 152.969 53.0421 155.591 49.3156Z"
    fill="#FFFFFE" />
  <path fill-rule="evenodd" clip-rule="evenodd"
    d="M7.17912 192.225C7.17912 193.826 7.47766 194.989 8.07757 195.711C8.68697 196.424 9.45464 196.78 10.3815 196.78C11.2383 196.78 11.9548 196.43 12.5291 195.728C13.1148 195.017 13.4086 193.826 13.4096 192.155C13.4096 190.682 13.1214 189.605 12.5462 188.915C11.9832 188.225 11.297 187.882 10.4877 187.882C9.5134 187.882 8.71445 188.244 8.09463 188.967C7.48524 189.68 7.17912 190.765 7.17912 192.225ZM0 175.898H7.23219V184.799C7.94773 184.051 8.7571 183.491 9.6603 183.117C10.5758 182.743 11.5833 182.557 12.6874 182.557C14.9619 182.557 16.8451 183.373 18.3349 185.009C19.8257 186.633 20.5707 188.967 20.5707 192.015C20.5707 194.048 20.2314 195.84 19.549 197.393C18.8695 198.935 17.9255 200.091 16.7172 200.861C15.5202 201.62 14.1895 202 12.7224 202C11.4667 202 10.3171 201.731 9.27267 201.194C8.48605 200.773 7.63119 199.985 6.70335 198.83V201.581H0V175.898Z"
    fill="#1A1919" />
  <path fill-rule="evenodd" clip-rule="evenodd"
    d="M23.5286 201.581H30.7086V175.898H23.5286V201.581Z" fill="#1A1919" />
  <path fill-rule="evenodd" clip-rule="evenodd"
    d="M54.6134 201.581H47.9271V198.567C46.9282 199.805 45.9198 200.687 44.8991 201.21C43.8907 201.737 42.6482 202 41.1688 202C39.1985 202 37.6499 201.416 36.524 200.249C35.4094 199.07 34.8521 197.259 34.8521 194.819V182.977H42.0493V193.205C42.0493 194.374 42.2654 195.203 42.6994 195.693C43.1354 196.184 43.7438 196.43 44.5304 196.43C45.3863 196.43 46.0847 196.101 46.624 195.449C47.1756 194.795 47.4504 193.623 47.4504 191.928V182.977H54.6134V201.581Z"
    fill="#1A1919" />
  <path fill-rule="evenodd" clip-rule="evenodd"
    d="M71.34 190.631C71.1979 189.253 70.8245 188.266 70.2132 187.671C69.6161 187.075 68.8247 186.778 67.8391 186.778C66.7009 186.778 65.791 187.228 65.1115 188.128C64.6774 188.687 64.4017 189.523 64.2841 190.631H71.34ZM78.6272 194.048H64.2661C64.395 195.193 64.7078 196.043 65.1997 196.605C65.8915 197.41 66.7947 197.813 67.9083 197.813C68.6115 197.813 69.2816 197.638 69.9156 197.288C70.3013 197.067 70.7183 196.675 71.1647 196.115L78.2216 196.761C77.1421 198.632 75.839 199.975 74.315 200.791C72.7901 201.598 70.6018 202 67.751 202C65.2755 202 63.3279 201.654 61.9082 200.966C60.4894 200.265 59.3104 199.163 58.3721 197.656C57.4443 196.139 56.9818 194.358 56.9818 192.313C56.9818 189.406 57.9144 187.053 59.7795 185.254C61.6561 183.456 64.2424 182.557 67.5396 182.557C70.2132 182.557 72.3257 182.959 73.8743 183.765C75.4229 184.57 76.6019 185.738 77.4113 187.27C78.2216 188.799 78.6272 190.789 78.6272 193.242V194.048Z"
    fill="#1A1919" />
  <path fill-rule="evenodd" clip-rule="evenodd"
    d="M80.5426 194.976H90.9601V189.457H80.5426V194.976Z" fill="#1A1919" />
  <path fill-rule="evenodd" clip-rule="evenodd"
    d="M102.559 175.829V182.977H106.5V188.181H102.559V194.783C102.559 195.578 102.633 196.101 102.787 196.359C103.02 196.757 103.431 196.956 104.018 196.956C104.547 196.956 105.284 196.803 106.235 196.5L106.764 201.422C104.991 201.806 103.338 202 101.802 202C100.018 202 98.706 201.772 97.8597 201.318C97.0152 200.861 96.3859 200.173 95.9775 199.249C95.5766 198.317 95.3785 196.809 95.3785 194.731V188.181H92.74V182.977H95.3785V175.829H102.559Z"
    fill="#1A1919" />
  <path fill-rule="evenodd" clip-rule="evenodd"
    d="M116.213 192.313C116.213 193.972 116.548 195.197 117.216 195.99C117.897 196.787 118.747 197.183 119.769 197.183C120.801 197.183 121.645 196.792 122.302 196.008C122.969 195.225 123.305 193.972 123.305 192.243C123.305 190.631 122.969 189.435 122.302 188.652C121.634 187.859 120.806 187.462 119.822 187.462C118.777 187.462 117.914 187.865 117.234 188.67C116.552 189.464 116.213 190.679 116.213 192.313ZM109.034 192.331C109.034 189.493 109.996 187.158 111.92 185.326C113.843 183.479 116.442 182.558 119.716 182.557C123.457 182.557 126.284 183.636 128.198 185.797C129.734 187.537 130.502 189.68 130.502 192.225C130.502 195.088 129.545 197.434 127.634 199.267C125.733 201.09 123.099 202 119.733 202C116.73 202 114.3 201.242 112.447 199.723C110.172 197.843 109.034 195.379 109.034 192.331Z"
    fill="#1A1919" />
  <path fill-rule="evenodd" clip-rule="evenodd"
    d="M134.004 182.977H140.691V185.692C141.653 184.56 142.621 183.752 143.594 183.274C144.578 182.797 145.764 182.557 147.149 182.557C148.638 182.557 149.818 182.819 150.685 183.345C151.554 183.87 152.263 184.653 152.815 185.692C153.941 184.477 154.967 183.655 155.893 183.221C156.821 182.778 157.965 182.557 159.325 182.557C161.333 182.557 162.899 183.152 164.025 184.343C165.15 185.522 165.713 187.374 165.713 189.895V201.581H158.535V190.981C158.535 190.141 158.37 189.516 158.042 189.106C157.559 188.464 156.963 188.145 156.246 188.144C155.402 188.144 154.721 188.449 154.205 189.055C153.689 189.663 153.43 190.638 153.43 191.981V201.581H146.252V191.332C146.252 190.516 146.204 189.961 146.111 189.668C145.958 189.201 145.694 188.828 145.319 188.547C144.942 188.255 144.504 188.11 143.998 188.11C143.177 188.11 142.503 188.42 141.974 189.037C141.447 189.656 141.184 190.673 141.184 192.085V201.581H134.004V182.977Z"
    fill="#1A1919" />
  <path fill-rule="evenodd" clip-rule="evenodd"
    d="M182.731 192.752C181.745 193.101 180.719 193.411 179.649 193.68C178.195 194.066 177.275 194.443 176.887 194.818C176.489 195.203 176.291 195.642 176.291 196.133C176.291 196.692 176.484 197.153 176.871 197.516C177.27 197.867 177.85 198.042 178.613 198.042C179.411 198.042 180.15 197.848 180.829 197.462C181.521 197.077 182.007 196.612 182.291 196.062C182.584 195.502 182.731 194.778 182.731 193.889V192.752ZM176.518 189.002L169.674 188.285C169.929 187.093 170.301 186.16 170.781 185.482C171.274 184.792 171.978 184.197 172.894 183.696C173.55 183.333 174.454 183.053 175.605 182.854C176.752 182.657 177.997 182.558 179.334 182.557C181.48 182.557 183.203 182.68 184.508 182.924C185.809 183.159 186.894 183.655 187.762 184.413C188.373 184.938 188.855 185.687 189.206 186.656C189.558 187.614 189.733 188.531 189.733 189.406V197.621C189.733 198.497 189.787 199.187 189.892 199.688C190.008 200.179 190.257 200.809 190.632 201.581H183.908C183.639 201.102 183.462 200.738 183.382 200.495C183.298 200.236 183.217 199.84 183.134 199.303C182.197 200.202 181.263 200.846 180.336 201.228C179.069 201.742 177.598 202 175.918 202C173.691 202 171.996 201.486 170.834 200.458C169.684 199.43 169.11 198.163 169.11 196.656C169.11 195.245 169.526 194.083 170.359 193.172C171.191 192.261 172.728 191.584 174.97 191.14C177.655 190.602 179.396 190.229 180.196 190.019C180.993 189.797 181.838 189.511 182.731 189.161C182.731 188.285 182.548 187.671 182.186 187.321C181.821 186.971 181.181 186.796 180.266 186.796C179.094 186.796 178.213 186.983 177.627 187.356C177.169 187.648 176.8 188.197 176.518 189.002Z"
    fill="#1A1919" />
  <path fill-rule="evenodd" clip-rule="evenodd"
    d="M202.054 175.829V182.977H205.997V188.181H202.054V194.783C202.054 195.578 202.131 196.101 202.284 196.359C202.517 196.757 202.93 196.956 203.515 196.956C204.043 196.956 204.781 196.803 205.732 196.5L206.26 201.422C204.489 201.806 202.835 202 201.3 202C199.515 202 198.201 201.772 197.355 201.318C196.513 200.861 195.884 200.173 195.474 199.249C195.074 198.317 194.874 196.809 194.874 194.731V188.181H192.235V182.977H194.874V175.829H202.054Z"
    fill="#1A1919" />
  <path fill-rule="evenodd" clip-rule="evenodd"
    d="M215.711 192.313C215.711 193.972 216.045 195.197 216.713 195.99C217.394 196.787 218.243 197.183 219.265 197.183C220.296 197.183 221.141 196.792 221.797 196.008C222.468 195.225 222.802 193.972 222.802 192.243C222.802 190.631 222.468 189.435 221.797 188.652C221.131 187.859 220.303 187.462 219.316 187.462C218.273 187.462 217.411 187.865 216.73 188.67C216.051 189.464 215.711 190.679 215.711 192.313ZM208.529 192.331C208.529 189.493 209.492 187.158 211.416 185.326C213.34 183.479 215.939 182.558 219.212 182.557C222.954 182.557 225.782 183.636 227.694 185.797C229.229 187.537 230 189.68 230 192.225C230 195.088 229.044 197.434 227.129 199.267C225.231 201.09 222.595 202 219.23 202C216.227 202 213.798 201.242 211.945 199.723C209.669 197.843 208.529 195.379 208.529 192.331Z"
    fill="#1A1919" />
</svg>
