<svg width="230" height="204" fill="none" xmlns="http://www.w3.org/2000/svg">
  <path fill-rule="evenodd" clip-rule="evenodd"
    d="M44.3066 90.2497C44.3066 119.587 75.8966 143.372 114.869 143.372C153.84 143.372 185.428 119.587 185.428 90.2497C185.428 81.2115 182.425 72.705 177.136 65.258C174.379 68.7376 167.561 68.2825 161.64 64.1258C155.583 59.8706 152.794 53.3808 155.413 49.6305C155.932 48.8856 156.664 48.3521 157.49 47.9323C150.354 43.8588 142.169 40.7712 133.281 38.9649L147.909 51.5563C147.909 51.5563 138.808 46.9531 132.612 45.5188C130.817 45.1032 129.208 44.6357 127.644 44.181L127.644 44.181L127.644 44.1809C125.559 43.5748 123.553 42.9916 121.288 42.5851C122.436 46.2771 125.139 56.6071 123.531 67.9402C123.531 57.8272 113.194 46.1575 109.582 42.39C106.808 42.7899 104.471 43.4691 102.026 44.1798L102.026 44.1798C100.46 44.6349 98.8498 45.1029 97.0517 45.5188C90.8555 46.9531 81.7534 51.5563 81.7534 51.5563L95.8952 39.0844C66.1443 45.3295 44.3066 65.8623 44.3066 90.2497ZM144.579 32.0887L144.572 32.0992C178.607 41.5897 202.96 66.938 202.96 96.7165C202.96 134.607 163.532 165.324 114.898 165.324C66.2644 165.324 26.8412 134.607 26.8412 96.7165C26.8412 67.0117 51.0662 41.7188 84.9606 32.1757L84.9521 32.1442C81.2843 29.528 72.7094 26.4958 72.7094 26.4958C86.8722 24.4772 95.9658 26.7846 95.9658 26.7846C89.6409 18.2408 62.754 13.1575 62.754 13.1575C92.6212 11.7146 107.646 25.9192 107.646 25.9192C106.785 17.3773 93.4822 0 93.4822 0C111.668 12.58 114.726 25.6323 114.726 25.6323C114.726 25.6323 117.783 12.58 135.97 0C135.97 0 122.67 17.3773 121.809 25.9192C121.809 25.9192 136.83 11.7146 166.7 13.1575C166.7 13.1575 139.813 18.2408 133.486 26.7846C133.486 26.7846 142.58 24.4772 156.74 26.4958C156.74 26.4958 148.285 29.4878 144.579 32.0887ZM8.0677 196.961C7.46896 196.234 7.1715 195.063 7.1715 193.452C7.1715 191.983 7.47659 190.891 8.08581 190.174C8.70553 189.446 9.50353 189.081 10.476 189.081C11.2835 189.081 11.97 189.427 12.5325 190.121C13.1064 190.816 13.3934 191.9 13.3934 193.382C13.3934 195.063 13.0998 196.263 12.5144 196.978C11.9414 197.683 11.2254 198.036 10.3702 198.036C9.44346 198.036 8.67692 197.678 8.0677 196.961ZM7.22394 177.023H0V202.868H6.69575V200.1C7.62246 201.262 8.47671 202.055 9.26231 202.479C10.3053 203.019 11.4542 203.291 12.7079 203.291C14.1733 203.291 15.5023 202.907 16.6979 202.143C17.9049 201.369 18.8478 200.205 19.5267 198.653C20.2083 197.091 20.5468 195.287 20.5468 193.241C20.5468 190.174 19.8031 187.824 18.3139 186.191C16.8257 184.544 14.9456 183.723 12.6726 183.723C11.5696 183.724 10.5637 183.91 9.64844 184.286C8.74748 184.663 7.93899 185.226 7.22394 185.979V177.023ZM23.5023 202.868H30.6729V177.023H23.5023V202.868ZM47.8723 202.868H54.5509V184.145H47.3965V193.154C47.3956 194.858 47.121 196.039 46.5699 196.697C46.0322 197.355 45.3343 197.683 44.4791 197.683C43.6935 197.683 43.0853 197.437 42.6515 196.942C42.2167 196.449 42.0012 195.615 42.0012 194.439V184.145H34.8116V196.063C34.8116 198.518 35.3684 200.341 36.482 201.527C37.606 202.703 39.1534 203.291 41.1212 203.291C42.599 203.291 43.8403 203.025 44.8481 202.495C45.8673 201.967 46.875 201.081 47.8723 199.834V202.868ZM71.2583 191.849C71.1172 190.461 70.7435 189.468 70.1324 188.869C69.5355 188.27 68.7451 187.97 67.7603 187.97C66.6238 187.97 65.7152 188.423 65.0364 189.329C64.6026 189.892 64.328 190.734 64.2098 191.849H71.2583ZM78.5366 195.287H64.1926C64.3223 196.439 64.6331 197.295 65.1241 197.86C65.8163 198.67 66.7182 199.076 67.8308 199.076C68.5335 199.076 69.2018 198.9 69.8358 198.548C70.221 198.326 70.6377 197.931 71.0819 197.366L78.1324 198.017C77.0541 199.9 75.7517 201.252 74.2301 202.073C72.7065 202.884 70.5213 203.291 67.6726 203.291C65.2004 203.291 63.2545 202.942 61.8377 202.249C60.42 201.544 59.2416 200.435 58.3054 198.917C57.3787 197.391 56.9153 195.599 56.9153 193.54C56.9153 190.615 57.8478 188.248 59.7107 186.437C61.5851 184.627 64.1679 183.724 67.4628 183.723C70.1324 183.723 72.2432 184.127 73.7896 184.938C75.337 185.749 76.5135 186.924 77.322 188.466C78.1324 190.004 78.5366 192.006 78.5366 194.475V195.287ZM90.8574 196.22H80.451V190.666H90.8574V196.22ZM102.44 176.952V184.145H106.378V189.383H102.44V196.026C102.44 196.827 102.516 197.355 102.669 197.613C102.902 198.013 103.313 198.213 103.899 198.213C104.427 198.213 105.163 198.059 106.114 197.754L106.641 202.708C104.871 203.095 103.218 203.291 101.685 203.291C99.9024 203.291 98.5924 203.06 97.7477 202.603C96.903 202.143 96.2756 201.45 95.8676 200.522C95.4671 199.583 95.2688 198.066 95.2688 195.975V189.383H92.6336V184.145H95.2688V176.952H102.44ZM117.081 197.242C116.414 196.443 116.08 195.211 116.08 193.54C116.08 191.896 116.418 190.673 117.1 189.874C117.779 189.064 118.641 188.659 119.684 188.659C120.668 188.659 121.493 189.058 122.162 189.857C122.829 190.645 123.162 191.849 123.162 193.47C123.162 195.211 122.829 196.472 122.162 197.26C121.506 198.049 120.662 198.442 119.63 198.442C118.61 198.442 117.761 198.042 117.081 197.242ZM111.792 186.509C109.87 188.353 108.909 190.703 108.909 193.559C108.909 196.626 110.046 199.106 112.318 200.999C114.169 202.526 116.596 203.291 119.595 203.291C122.958 203.291 125.588 202.374 127.488 200.54C129.396 198.694 130.352 196.333 130.352 193.452C130.352 190.891 129.586 188.734 128.05 186.983C126.139 184.809 123.316 183.723 119.58 183.723C116.309 183.724 113.713 184.65 111.792 186.509ZM133.849 184.145H140.53V186.877C141.49 185.738 142.458 184.926 143.429 184.446C144.412 183.964 145.597 183.724 146.98 183.723C148.467 183.723 149.647 183.987 150.512 184.514C151.379 185.044 152.088 185.832 152.64 186.877C153.764 185.655 154.789 184.828 155.715 184.391C156.641 183.946 157.784 183.724 159.142 183.723C161.148 183.723 162.712 184.321 163.838 185.52C164.961 186.707 165.522 188.571 165.522 191.108V202.868H158.353V192.201C158.353 191.355 158.189 190.726 157.861 190.314C157.378 189.668 156.782 189.346 156.066 189.346C155.224 189.346 154.543 189.652 154.027 190.262C153.513 190.873 153.255 191.855 153.255 193.206V202.868H146.083V192.553C146.083 191.732 146.036 191.174 145.943 190.879C145.791 190.409 145.526 190.033 145.153 189.751C144.775 189.458 144.338 189.311 143.833 189.311C143.013 189.311 142.34 189.624 141.811 190.244C141.285 190.867 141.022 191.891 141.022 193.312V202.868H133.849V184.145ZM179.444 194.917C180.512 194.646 181.537 194.334 182.521 193.982V195.127C182.521 196.022 182.375 196.749 182.081 197.313C181.799 197.868 181.313 198.336 180.621 198.723C179.943 199.11 179.205 199.306 178.408 199.306C177.647 199.306 177.066 199.13 176.668 198.777C176.281 198.412 176.088 197.948 176.088 197.386C176.088 196.891 176.285 196.449 176.684 196.062C177.072 195.685 177.99 195.305 179.444 194.917ZM169.479 189.487L176.316 190.209C176.597 189.399 176.965 188.846 177.424 188.553C178.009 188.177 178.889 187.988 180.06 187.988C180.973 187.988 181.612 188.164 181.977 188.517C182.338 188.869 182.521 189.487 182.521 190.368C181.63 190.721 180.786 191.008 179.989 191.231C179.19 191.443 177.452 191.819 174.77 192.36C172.531 192.808 170.995 193.489 170.163 194.406C169.331 195.323 168.915 196.491 168.915 197.912C168.915 199.429 169.489 200.703 170.637 201.738C171.799 202.772 173.491 203.291 175.717 203.291C177.393 203.29 178.864 203.031 180.129 202.512C181.056 202.128 181.989 201.481 182.924 200.575C183.007 201.116 183.089 201.514 183.172 201.775C183.253 202.02 183.427 202.386 183.697 202.868H190.413C190.038 202.092 189.789 201.457 189.674 200.963C189.57 200.458 189.516 199.764 189.516 198.883V190.615C189.516 189.733 189.341 188.812 188.988 187.848C188.638 186.872 188.157 186.119 187.547 185.59C186.68 184.828 185.596 184.328 184.296 184.092C182.993 183.846 181.273 183.723 179.128 183.723C177.792 183.724 176.549 183.823 175.402 184.022C174.254 184.222 173.352 184.504 172.696 184.869C171.781 185.373 171.078 185.972 170.586 186.666C170.105 187.349 169.734 188.288 169.479 189.487ZM201.822 176.952V184.145H205.76V189.383H201.822V196.026C201.822 196.827 201.898 197.355 202.052 197.613C202.286 198.013 202.696 198.213 203.282 198.213C203.809 198.213 204.547 198.059 205.497 197.754L206.024 202.708C204.254 203.095 202.603 203.291 201.068 203.291C199.286 203.291 197.973 203.06 197.129 202.603C196.288 202.143 195.659 201.45 195.249 200.522C194.85 199.583 194.651 198.066 194.651 195.975V189.383H192.015V184.145H194.651V176.952H201.822ZM216.465 197.242C215.797 196.443 215.463 195.211 215.463 193.54C215.463 191.896 215.803 190.673 216.482 189.874C217.161 189.064 218.022 188.659 219.064 188.659C220.049 188.659 220.878 189.058 221.544 189.857C222.214 190.645 222.547 191.849 222.547 193.47C222.547 195.211 222.214 196.472 221.544 197.26C220.887 198.049 220.044 198.442 219.014 198.442C217.993 198.442 217.145 198.042 216.465 197.242ZM211.173 186.509C209.251 188.353 208.29 190.703 208.29 193.559C208.29 196.626 209.428 199.106 211.702 200.999C213.553 202.526 215.978 203.291 218.979 203.291C222.34 203.291 224.973 202.374 226.87 200.54C228.782 198.694 229.736 196.333 229.736 193.452C229.736 190.891 228.967 188.734 227.433 186.983C225.523 184.809 222.699 183.723 218.961 183.723C215.691 183.724 213.095 184.65 211.173 186.509Z"
    fill="#FFFFFE" />
</svg>
