<svg width="566" height="151" fill="none" xmlns="http://www.w3.org/2000/svg">
  <path fill-rule="evenodd" clip-rule="evenodd"
    d="M16.4285 82.0991C16.4285 108.787 46.1408 130.424 82.7967 130.424C119.453 130.424 149.163 108.787 149.163 82.0991C149.163 73.8779 146.337 66.1389 141.362 59.3655C138.77 62.5299 132.357 62.1149 126.788 58.3338C121.091 54.4632 118.467 48.5599 120.93 45.1478C121.419 44.4711 122.109 43.9853 122.885 43.6033C116.173 39.8977 108.475 37.0881 100.114 35.4457L113.874 46.8998C113.874 46.8998 105.312 42.7132 99.4843 41.408C97.7978 41.0303 96.2863 40.6054 94.8166 40.1921C92.854 39.6403 90.9657 39.1093 88.8341 38.7399C89.9143 42.0989 92.4556 51.4944 90.9436 61.8037C90.9436 52.605 81.2209 41.9892 77.8242 38.5619C75.2138 38.9256 73.0159 39.5435 70.716 40.19C69.2435 40.604 67.7293 41.0297 66.0382 41.408C60.2102 42.7132 51.6493 46.8998 51.6493 46.8998L64.9509 35.5542C36.9683 41.2347 16.4285 59.9137 16.4285 82.0991ZM110.74 29.1911L110.736 29.2005C142.747 37.8344 165.651 60.8923 165.651 87.9812C165.651 122.45 128.567 150.393 82.8251 150.393C37.0807 150.393 0 122.45 0 87.9812C0 60.9607 22.7853 37.9511 54.6662 29.2701L54.6579 29.2418C51.208 26.8614 43.1428 24.1037 43.1428 24.1037C56.4633 22.2668 65.016 24.3654 65.016 24.3654C59.0685 16.5934 33.7786 11.9693 33.7786 11.9693C61.8713 10.6571 76.0022 23.579 76.0022 23.579C75.1918 15.8082 62.6805 0 62.6805 0C79.7858 11.4435 82.6619 23.3173 82.6619 23.3173C82.6619 23.3173 85.5368 11.4435 102.643 0C102.643 0 90.1331 15.8082 89.3239 23.579C89.3239 23.579 103.452 10.6571 131.547 11.9693C131.547 11.9693 106.259 16.5934 100.307 24.3654C100.307 24.3654 108.86 22.2668 122.179 24.1037C122.179 24.1037 114.227 26.8248 110.74 29.1911ZM352.957 77.2511V65.606H340.956V77.2511H336.545V85.727H340.956V96.3982C340.956 99.7831 341.287 102.239 341.956 103.759C342.641 105.262 343.691 106.383 345.104 107.128C346.518 107.868 348.71 108.24 351.694 108.24C354.261 108.24 357.026 107.924 359.988 107.298L359.106 99.2797C357.516 99.7725 356.283 100.021 355.399 100.021C354.418 100.021 353.731 99.6982 353.34 99.0498C353.084 98.6312 352.957 97.7776 352.957 96.4831V85.727H359.548V77.2511H352.957ZM195.015 97.9957C194.013 96.8167 193.513 94.9232 193.513 92.3164C193.513 89.9384 194.023 88.1687 195.044 87.0085C196.081 85.8295 197.416 85.24 199.044 85.24C200.397 85.24 201.544 85.8 202.486 86.9236C203.448 88.0472 203.927 89.8028 203.927 92.2021C203.926 94.9232 203.436 96.8639 202.456 98.0228C201.497 99.1653 200.298 99.7359 198.867 99.7359C197.317 99.7359 196.033 99.1559 195.015 97.9957ZM193.602 65.7203H181.512V107.556H192.718V103.075C194.269 104.958 195.699 106.242 197.013 106.927C198.758 107.802 200.681 108.24 202.779 108.24C205.232 108.24 207.456 107.62 209.458 106.383C211.478 105.129 213.055 103.246 214.192 100.733C215.333 98.2044 215.9 95.2864 215.9 91.9734C215.9 87.0085 214.654 83.2051 212.163 80.5605C209.671 77.896 206.524 76.5649 202.721 76.5649C200.876 76.5672 199.192 76.8702 197.66 77.4786C196.151 78.087 194.799 78.9995 193.602 80.2186V65.7203ZM232.847 107.555H220.845V65.7203H232.847V107.555ZM272.809 107.556H261.63V102.647C259.962 104.664 258.276 106.099 256.57 106.954C254.884 107.81 252.806 108.24 250.333 108.24C247.039 108.24 244.451 107.289 242.568 105.386C240.705 103.464 239.773 100.515 239.773 96.5408V77.2511H251.806V93.9116C251.806 95.8169 252.167 97.1681 252.893 97.9651C253.62 98.7656 254.638 99.1653 255.954 99.1653C257.384 99.1653 258.551 98.6312 259.452 97.5666C260.374 96.5019 260.834 94.5919 260.835 91.8319V77.2511H272.809V107.556ZM298.887 84.8969C299.908 85.8673 300.534 87.4742 300.771 89.7203H288.975C289.173 87.914 289.632 86.5523 290.358 85.6409C291.494 84.1742 293.016 83.442 294.918 83.442C296.566 83.442 297.888 83.9278 298.887 84.8969ZM288.946 95.2864H312.952V93.9718C312.952 89.9749 312.275 86.7338 310.921 84.2438C309.567 81.749 307.596 79.8472 305.007 78.5338C302.419 77.2228 298.887 76.5649 294.417 76.5649C288.905 76.5672 284.581 78.0304 281.445 80.9602C278.327 83.8901 276.767 87.7218 276.767 92.4591C276.767 95.7898 277.541 98.6902 279.092 101.163C280.66 103.617 282.631 105.414 285.004 106.554C287.377 107.675 290.633 108.24 294.77 108.24C299.536 108.24 303.195 107.583 305.744 106.27C308.29 104.939 310.47 102.751 312.275 99.7041L300.476 98.6513C299.732 99.565 299.035 100.204 298.39 100.562C297.329 101.132 296.21 101.418 295.034 101.418C293.172 101.418 291.662 100.763 290.505 99.4506C289.683 98.5357 289.161 97.1504 288.946 95.2864ZM316.155 96.7967H333.571V87.8067H316.155V96.7967ZM375.783 92.4591C375.783 95.1626 376.345 97.1586 377.46 98.4496C378.598 99.7466 380.019 100.391 381.728 100.391C383.454 100.391 384.865 99.7548 385.964 98.4791C387.079 97.2023 387.639 95.1626 387.639 92.3447C387.639 89.7203 387.079 87.7714 385.964 86.4945C384.845 85.2035 383.462 84.5562 381.816 84.5562C380.071 84.5562 378.628 85.2117 377.492 86.5251C376.352 87.8173 375.783 89.7981 375.783 92.4591ZM363.784 92.4874C363.784 87.8657 365.391 84.061 368.61 81.0769C371.824 78.0693 376.167 76.5684 381.64 76.5649C387.895 76.5649 392.622 78.3263 395.818 81.8445C398.388 84.6788 399.673 88.1687 399.673 92.3164C399.673 96.9782 398.072 100.801 394.877 103.787C391.699 106.756 387.295 108.24 381.667 108.24C376.649 108.24 372.587 107.002 369.489 104.531C365.685 101.467 363.784 97.4534 363.784 92.4874ZM416.704 77.2511H405.526V107.556H417.527V92.0877C417.527 89.7863 417.968 88.131 418.85 87.1229C419.734 86.1172 420.86 85.6126 422.233 85.6126C423.077 85.6126 423.812 85.8496 424.44 86.3247C425.067 86.7822 425.509 87.3894 425.764 88.151C425.919 88.6261 426 89.5304 426 90.8604V107.556H438.001V91.9168C438.001 89.7297 438.434 88.1416 439.295 87.1524C440.157 86.1644 441.296 85.668 442.708 85.668C443.905 85.6704 444.903 86.1903 445.71 87.2361C446.259 87.9034 446.533 88.9209 446.533 90.2897V107.556H458.533V88.5212C458.533 84.4135 457.593 81.3965 455.712 79.4758C453.829 77.5352 451.211 76.5649 447.853 76.5649C445.581 76.5672 443.669 76.9268 442.119 77.6484C440.569 78.3558 438.854 79.694 436.973 81.6735C436.048 79.9793 434.863 78.706 433.411 77.8488C431.963 76.994 429.989 76.5649 427.499 76.5649C425.184 76.5672 423.202 76.9563 421.557 77.7368C419.93 78.515 418.311 79.8296 416.704 81.6735V77.2511ZM486.981 93.1748C485.333 93.743 483.618 94.2477 481.831 94.6862C479.398 95.3147 477.862 95.9301 477.213 96.5396C476.546 97.1681 476.216 97.8814 476.216 98.6819C476.216 99.5921 476.539 100.343 477.185 100.934C477.852 101.506 478.822 101.791 480.098 101.791C481.431 101.791 482.667 101.475 483.803 100.847C484.961 100.221 485.773 99.4612 486.245 98.5652C486.736 97.6526 486.981 96.4748 486.981 95.027V93.1748ZM476.597 87.0651L465.155 85.8967C465.583 83.9561 466.202 82.434 467.007 81.3292C467.83 80.2068 469.007 79.2377 470.537 78.4218C471.635 77.8311 473.145 77.3749 475.068 77.0506C476.987 76.7299 479.067 76.5684 481.303 76.5649C484.892 76.5649 487.772 76.7653 489.952 77.165C492.127 77.547 493.942 78.3558 495.393 79.5902C496.414 80.4462 497.218 81.6641 497.807 83.244C498.395 84.8038 498.688 86.2964 498.688 87.7218V101.105C498.688 102.533 498.778 103.655 498.954 104.473C499.147 105.271 499.562 106.299 500.19 107.556H488.951C488.499 106.776 488.205 106.185 488.071 105.787C487.931 105.366 487.795 104.721 487.655 103.844C486.09 105.31 484.528 106.357 482.98 106.981C480.862 107.819 478.4 108.239 475.595 108.24C471.869 108.24 469.037 107.401 467.093 105.728C465.172 104.053 464.21 101.99 464.21 99.5355C464.21 97.2353 464.907 95.343 466.3 93.8574C467.692 92.3742 470.261 91.2718 474.009 90.5479C478.498 89.6731 481.408 89.0636 482.744 88.7216C484.078 88.3597 485.49 87.8951 486.981 87.3233C486.981 85.8967 486.676 84.8969 486.07 84.3275C485.461 83.7557 484.391 83.4703 482.863 83.4703C480.902 83.4703 479.43 83.7769 478.451 84.3852C477.683 84.8592 477.068 85.7541 476.597 87.0651ZM519.285 77.2511V65.606H507.283V77.2511H502.871V85.727H507.283V96.3982C507.283 99.7831 507.615 102.239 508.284 103.759C508.97 105.262 510.021 106.383 511.431 107.128C512.842 107.868 515.039 108.24 518.023 108.24C520.59 108.24 523.355 107.924 526.315 107.298L525.434 99.2797C523.844 99.7725 522.61 100.021 521.727 100.021C520.749 100.021 520.059 99.6982 519.667 99.0498C519.413 98.6312 519.285 97.7776 519.285 96.4831V85.727H525.874V77.2511H519.285ZM542.114 92.4591C542.114 95.1626 542.673 97.1586 543.789 98.4496C544.928 99.7466 546.349 100.391 548.056 100.391C549.78 100.391 551.194 99.7548 552.29 98.4791C553.412 97.2023 553.969 95.1626 553.969 92.3447C553.969 89.7203 553.412 87.7714 552.29 86.4945C551.175 85.2035 549.79 84.5562 548.142 84.5562C546.396 84.5562 544.956 85.2117 543.819 86.5251C542.684 87.8173 542.114 89.7981 542.114 92.4591ZM530.111 92.4874C530.111 87.8657 531.719 84.061 534.934 81.0769C538.151 78.0693 542.495 76.5684 547.967 76.5649C554.222 76.5649 558.95 78.3263 562.147 81.8445C564.714 84.6788 566 88.1687 566 92.3164C566 96.9782 564.403 100.801 561.204 103.787C558.028 106.756 553.624 108.24 547.999 108.24C542.977 108.24 538.917 107.002 535.819 104.531C532.014 101.467 530.111 97.4534 530.111 92.4874Z"
    fill="#FFFFFE" />
</svg>
