<svg width="48" height="36" fill="none" xmlns="http://www.w3.org/2000/svg">
  <path d="M0 0H48V36H0V0Z" fill="#FFD018" />
  <path d="M0 0H16V36H0V0Z" fill="#2E42A5" />
  <path d="M31.9999 0H47.9999V36H31.9999V0ZM18.6105 11.9579H23.9532V18.7789H18.6105V11.9579Z"
    fill="#E31D1C" />
  <path
    d="M25.0385 12.6292V18.683V12.6292ZM26.5918 12.6292V18.683V12.6292ZM28.145 12.6292V18.683V12.6292Z"
    fill="black" />
  <path fill-rule="evenodd" clip-rule="evenodd"
    d="M25.366 12.6292V18.683H24.7111V12.6292H25.366ZM26.9192 12.6292V18.683H26.2643V12.6292H26.9192ZM27.8175 18.683V12.6292H28.4725V18.683H27.8175Z"
    fill="#D80027" />
  <path
    d="M23.1485 18.6924V24.7462V18.6924ZM21.904 18.6924V24.7462V18.6924ZM20.6596 18.7017V23.745V18.7017ZM19.3777 18.7017V23.1088V18.7017Z"
    fill="black" />
  <path fill-rule="evenodd" clip-rule="evenodd"
    d="M22.138 18.6924V24.7462H21.6701V18.6924H22.138ZM23.3824 18.6924V24.7462H22.9146V18.6924H23.3824ZM19.1438 23.1088V18.7017H19.6116V23.1088H19.1438ZM20.8935 18.7017V23.745H20.4257V18.7017H20.8935Z"
    fill="#D80027" />
  <path d="M18.7041 15.6607L21.2866 12.6292L23.9532 15.6514L21.324 18.683L18.7041 15.6607Z"
    fill="#FFDA44" />
  <path
    d="M17.048 10.9731V19.6C17.048 22.8094 19.6024 24.6714 21.5953 25.6351C21.5205 25.7661 23.9439 26.4117 23.9439 26.4117C23.9439 26.4117 26.3673 25.7661 26.2924 25.6351C28.2948 24.6714 30.8398 22.8188 30.8398 19.6V10.9731H17.048ZM29.2024 19.6C29.2024 21.1813 28.2667 22.3509 26.1334 23.7076C25.3287 24.2223 24.4959 24.5498 23.9532 24.7369C23.4105 24.5498 22.5778 24.2223 21.7731 23.7076C19.6398 22.3509 18.7041 21.0878 18.7041 19.6V12.6293H29.2024V19.6Z"
    fill="#BC8B00" />
  <path
    d="M24.7391 19.6748H27.4994V20.4795H24.7391V19.6748ZM24.7391 21.3216H27.4994V22.1263H24.7391V21.3216Z"
    fill="#D80027" />
</svg>
