<svg width="48" height="36" fill="none" xmlns="http://www.w3.org/2000/svg">
  <g clip-path="url(#clip0_644_938)">
    <path fill-rule="evenodd" clip-rule="evenodd" d="M0 0H48V36H0V0Z" fill="#2E42A5" />
    <path
      d="M15.44 26.9566L13.7999 28.4722L13.9623 26.245L11.7548 25.9078L13.5974 24.646L12.4847 22.7098L14.62 23.3638L15.44 21.2866L16.26 23.3638L18.3953 22.7098L17.2826 24.646L19.1252 25.9078L16.9177 26.245L17.0801 28.4722L15.44 26.9566Z"
      fill="#F7FCFF" />
    <path
      d="M30.08 18.9934L28.9866 20.0038L29.0948 18.519L27.6232 18.2941L28.8516 17.453L28.1098 16.1622L29.5334 16.5982L30.08 15.2134L30.6266 16.5982L32.0502 16.1622L31.3084 17.453L32.5368 18.2941L31.0652 18.519L31.1734 20.0038L30.08 18.9934Z"
      fill="#F7FCFF" />
    <path
      d="M32.64 8.32688L31.5466 9.33732L31.6548 7.85248L30.1832 7.62762L31.4116 6.7865L30.6698 5.49568L32.0934 5.93166L32.64 4.54688L33.1866 5.93166L34.6102 5.49568L33.8684 6.7865L35.0968 7.62762L33.6252 7.85248L33.7334 9.33732L32.64 8.32688Z"
      fill="#F7FCFF" />
    <path
      d="M39.04 13.6599L37.9466 14.6703L38.055 13.1855L36.5832 12.9606L37.8116 12.1195L37.0698 10.8287L38.4934 11.2647L39.04 9.87988L39.5868 11.2647L41.0102 10.8287L40.2684 12.1195L41.4968 12.9606L40.0252 13.1855L40.1334 14.6703L39.04 13.6599Z"
      fill="#F7FCFF" />
    <path
      d="M33.92 28.9934L32.8266 30.0038L32.9348 28.519L31.4632 28.2942L32.6916 27.453L31.9498 26.1622L33.3734 26.5982L33.92 25.2134L34.4666 26.5982L35.8902 26.1622L35.1484 27.453L36.3768 28.2942L34.9052 28.519L35.0134 30.0038L33.92 28.9934Z"
      fill="#F7FCFF" />
    <path
      d="M38.4 20.6782L37.289 21.2624L37.5012 20.0252L36.6026 19.1492L37.8446 18.9687L38.4 17.8433L38.9554 18.9687L40.1976 19.1492L39.2988 20.0252L39.511 21.2624L38.4 20.6782Z"
      fill="#F7FCFF" />
    <path fill-rule="evenodd" clip-rule="evenodd" d="M0 0V18H24V0H0Z" fill="#2E42A5" />
    <mask id="mask0_644_938" style="mask-type:luminance" maskUnits="userSpaceOnUse" x="0" y="0"
      width="24" height="18">
      <path fill-rule="evenodd" clip-rule="evenodd" d="M0 0V18H24V0H0Z" fill="white" />
    </mask>
    <g mask="url(#mask0_644_938)">
      <path
        d="M-2.67212 16.7141L2.60914 18.9476L24.12 2.42842L26.9058 -0.890691L21.2582 -1.63721L12.4845 5.4814L5.42248 10.2777L-2.67212 16.7141Z"
        fill="white" />
      <path d="M-1.94904 18.2788L0.741526 19.575L25.9056 -1.19922H22.1276L-1.94904 18.2788Z"
        fill="#F50100" />
      <path
        d="M26.6724 16.7141L21.3912 18.9476L-0.119706 2.42842L-2.90546 -0.890691L2.7421 -1.63721L11.5159 5.4814L18.5779 10.2777L26.6724 16.7141Z"
        fill="white" />
      <path
        d="M26.4924 17.8371L23.8018 19.1333L13.0866 10.2388L9.90984 9.245L-3.17348 -0.879395H0.604385L13.6804 9.0047L17.1536 10.1963L26.4924 17.8371Z"
        fill="#F50100" />
      <path fill-rule="evenodd" clip-rule="evenodd"
        d="M14.8332 -1.5H9.16656V6H-2.00006V12H9.16656V19.5H14.8332V12H26V6H14.8332V-1.5Z"
        fill="#F50100" />
      <path fill-rule="evenodd" clip-rule="evenodd"
        d="M9.16656 6H-2.00006V12H9.16656V19.5H14.8332V12H26V6H14.8332V-1.5H9.16656V6ZM11.1666 0.5V8H-6.19888e-05V10H11.1666V17.5H12.8332V10H24V8H12.8332V0.5H11.1666Z"
        fill="white" />
    </g>
    <path fill-rule="evenodd" clip-rule="evenodd" d="M24 10.5H0V7.5H24V10.5Z" fill="#F50100" />
    <path fill-rule="evenodd" clip-rule="evenodd" d="M10.5 18V0H13.5V18H10.5Z" fill="#F50100" />
  </g>
  <defs>
    <clipPath id="clip0_644_938">
      <rect width="48" height="36" fill="white" />
    </clipPath>
  </defs>
</svg>
