<svg width="48" height="36" fill="none" xmlns="http://www.w3.org/2000/svg">
  <path fill-rule="evenodd" clip-rule="evenodd" d="M12 0H37.5V36H12V0Z" fill="#F7FCFF" />
  <path fill-rule="evenodd" clip-rule="evenodd"
    d="M21.4934 12.6038L23.9595 9L24 30H22.9723L23.6028 24.8031C23.6028 24.8031 16.6854 26.0737 17.2572 25.4328C17.8291 24.7919 18.1585 23.6161 18.1585 23.6161L12 19.4218C12 19.4218 12.9715 19.4093 13.7618 18.9295C14.5521 18.4497 12.9715 15.604 12.9715 15.604L16.0808 16.0658L17.2572 14.7607L19.6032 17.2671H20.6577L19.6032 11.526L21.4934 12.6038ZM24 30V9L26.5066 12.6038L28.3968 11.526L27.3423 17.2671H28.3968L30.7428 14.7607L31.9192 16.0658L35.0285 15.604C35.0285 15.604 33.4479 18.4497 34.2382 18.9295C35.0285 19.4093 36 19.4218 36 19.4218L29.8415 23.6161C29.8415 23.6161 30.1709 24.7919 30.7428 25.4328C31.3146 26.0737 24.3972 24.8031 24.3972 24.8031L25.0277 30H24Z"
    fill="#E31D1C" />
  <path fill-rule="evenodd" clip-rule="evenodd" d="M36 0H48V36H36V0Z" fill="#E31D1C" />
  <path fill-rule="evenodd" clip-rule="evenodd" d="M0 0H12V36H0V0Z" fill="#E31D1C" />
</svg>
