<svg width="48" height="36" fill="none" xmlns="http://www.w3.org/2000/svg">
  <path fill-rule="evenodd" clip-rule="evenodd" d="M0 0H48V36H0V0Z" fill="#E31D1C" />
  <path fill-rule="evenodd" clip-rule="evenodd"
    d="M22.5235 6.82245L21.0083 7.7372L21.3539 5.95215L20.092 4.61622L21.8006 4.54399L22.5235 2.8772L23.2464 4.54399H24.952L23.6931 5.95215L24.0721 7.7372L22.5235 6.82245Z"
    fill="#FECA00" />
  <path fill-rule="evenodd" clip-rule="evenodd"
    d="M10.5262 14.4108L6.20494 16.7372L7.19059 12.1975L3.59204 8.7999L8.46467 8.6162L10.5262 4.3772L12.5877 8.6162H17.452L13.8618 12.1975L14.9427 16.7372L10.5262 14.4108Z"
    fill="#FECA00" />
  <path fill-rule="evenodd" clip-rule="evenodd"
    d="M25.5235 12.8224L24.0083 13.7372L24.3539 11.9522L23.092 10.6162L24.8006 10.544L25.5235 8.8772L26.2464 10.544H27.952L26.6931 11.9522L27.0721 13.7372L25.5235 12.8224Z"
    fill="#FECA00" />
  <path fill-rule="evenodd" clip-rule="evenodd"
    d="M24.0235 18.8224L22.5083 19.7372L22.8539 17.9522L21.592 16.6162L23.3006 16.544L24.0235 14.8772L24.7464 16.544H26.452L25.1931 17.9522L25.5721 19.7372L24.0235 18.8224Z"
    fill="#FECA00" />
  <path fill-rule="evenodd" clip-rule="evenodd"
    d="M19.5235 23.3224L18.0083 24.2372L18.3539 22.4522L17.092 21.1162L18.8006 21.044L19.5235 19.3772L20.2464 21.044H21.952L20.6931 22.4522L21.0721 24.2372L19.5235 23.3224Z"
    fill="#FECA00" />
</svg>
