<svg width="48" height="36" fill="none" xmlns="http://www.w3.org/2000/svg">
  <path fill-rule="evenodd" clip-rule="evenodd" d="M0 0V36H48V0H0Z" fill="#F7FCFF" />
  <mask id="mask0_123_4963" style="mask-type:luminance" maskUnits="userSpaceOnUse" x="0" y="0"
    width="48" height="36">
    <path fill-rule="evenodd" clip-rule="evenodd" d="M0 0V36H48V0H0Z" fill="white" />
  </mask>
  <g mask="url(#mask0_123_4963)">
    <path fill-rule="evenodd" clip-rule="evenodd"
      d="M11.3995 21.4813C10.7573 21.0349 11.0462 20.0557 11.0462 20.0557C11.0462 20.0557 11.9995 20.5973 12.3336 20.8488C12.6678 21.1002 12.9089 22.1376 12.9089 22.1376C12.9089 22.1376 12.0416 21.9276 11.3995 21.4813ZM13.1157 22.8814C13.0833 22.5985 13.1626 22.3457 13.1626 22.3457C13.1626 22.3457 13.9673 22.7756 14.2494 22.9752C14.5315 23.1748 14.735 23.9982 14.735 23.9982C14.735 23.9982 14.0029 23.8316 13.4609 23.4773C13.2638 23.3484 13.1706 23.1637 13.1318 22.9807C12.9699 23.0303 12.5572 23.1379 12.1314 23.0969C11.5846 23.0444 11.19 22.2771 11.19 22.2771C11.19 22.2771 11.9362 22.274 12.2311 22.3142C12.4609 22.3455 12.9228 22.7182 13.1157 22.8814ZM15.6533 24.3453C15.6533 24.3453 15.7112 25.1514 16.2947 25.3161C16.8782 25.4808 17.5596 25.4101 17.5596 25.4101C17.5596 25.4101 17.1044 24.6995 16.7955 24.5995C16.4867 24.4996 15.6533 24.3453 15.6533 24.3453ZM19.1121 26.5032C18.5088 26.4423 18.3118 25.6585 18.3118 25.6585C18.3118 25.6585 19.1593 25.6657 19.4809 25.7105C19.8024 25.7553 20.3741 26.3761 20.3741 26.3761C20.3741 26.3761 19.7153 26.564 19.1121 26.5032ZM20.1832 25.052C20.1832 25.052 20.1015 25.9924 20.7075 26.3077C21.3135 26.6229 22.0683 26.6883 22.0683 26.6883C22.0683 26.6883 21.7002 25.7723 21.3817 25.5907C21.0633 25.4091 20.1832 25.052 20.1832 25.052ZM20.6071 27.4533C19.9377 27.5897 19.4094 26.8074 19.4094 26.8074C19.4094 26.8074 20.3181 26.5311 20.6798 26.4718C21.0416 26.4125 21.9042 26.8928 21.9042 26.8928C21.9042 26.8928 21.2764 27.317 20.6071 27.4533ZM15.7672 25.7653C15.7672 25.7653 16.0844 26.5086 16.6897 26.4744C17.295 26.4401 17.9163 26.1515 17.9163 26.1515C17.9163 26.1515 17.2545 25.6277 16.9299 25.6338C16.6054 25.6398 15.7672 25.7653 15.7672 25.7653ZM17.5244 24.9142C16.9831 24.6412 17.08 23.8389 17.08 23.8389C17.08 23.8389 17.8687 24.1493 18.1528 24.3064C18.4369 24.4634 18.7481 25.2479 18.7481 25.2479C18.7481 25.2479 18.0658 25.1872 17.5244 24.9142ZM14.4746 21.9794C14.4746 21.9794 14.4759 22.9706 14.8834 23.358C15.2909 23.7454 15.7797 23.8806 15.7797 23.8806C15.7797 23.8806 15.4907 22.876 15.2756 22.6555C15.0606 22.435 14.4746 21.9794 14.4746 21.9794ZM12.9806 24.1693C12.9806 24.1693 13.5892 24.9617 14.216 24.921C14.8429 24.8803 15.3929 24.5676 15.3929 24.5676C15.3929 24.5676 14.5011 24.0123 14.1605 24.0209C13.8198 24.0295 12.9806 24.1693 12.9806 24.1693ZM13.1272 23.989C12.7939 24.0195 12.4818 23.6042 12.4818 23.6042C12.4818 23.6042 12.9293 23.5177 13.1103 23.5083C13.2913 23.499 13.757 23.7836 13.757 23.7836C13.757 23.7836 13.4606 23.9585 13.1272 23.989ZM13.4047 20.7818C13.4047 20.7818 13.0498 21.1613 13.1378 21.4843C13.2257 21.8072 13.4494 22.0688 13.4494 22.0688C13.4494 22.0688 13.6488 21.5607 13.6082 21.3841C13.5675 21.2075 13.4047 20.7818 13.4047 20.7818ZM16.343 24.1251C16.1366 24.0476 16.1844 23.7983 16.1844 23.7983C16.1844 23.7983 16.4862 23.8843 16.5943 23.9292C16.7024 23.9741 16.813 24.2127 16.813 24.2127C16.813 24.2127 16.5493 24.2026 16.343 24.1251ZM15.2715 25.0865C15.2715 25.0865 15.2237 25.3357 15.43 25.4132C15.6364 25.4907 15.9001 25.5008 15.9001 25.5008C15.9001 25.5008 15.7894 25.2623 15.6813 25.2173C15.5732 25.1724 15.2715 25.0865 15.2715 25.0865ZM19.2342 25.4132C19.0279 25.3357 19.0757 25.0865 19.0757 25.0865C19.0757 25.0865 19.3774 25.1724 19.4855 25.2173C19.5936 25.2623 19.7043 25.5008 19.7043 25.5008C19.7043 25.5008 19.4406 25.4907 19.2342 25.4132ZM18.3149 26.6609C18.3149 26.6609 18.2671 26.9101 18.4734 26.9876C18.6798 27.0651 18.9434 27.0752 18.9434 27.0752C18.9434 27.0752 18.8328 26.8366 18.7247 26.7917C18.6166 26.7468 18.3149 26.6609 18.3149 26.6609ZM22.396 28.3683L21.7275 27.8115C22.144 27.5707 22.573 27.3791 22.9399 27.2352C22.839 27.1657 22.7477 27.1135 22.6739 27.0881V26.9058C22.6739 26.9058 22.9236 26.9706 23.2977 27.1022C23.6717 26.9706 23.9214 26.9058 23.9214 26.9058V27.0881C23.8477 27.1135 23.7564 27.1657 23.6554 27.2352C24.0224 27.3791 24.4514 27.5707 24.8678 27.8115L24.1993 28.3683C24.1993 28.3683 23.7404 27.8898 23.2977 27.514C22.8549 27.8898 22.396 28.3683 22.396 28.3683ZM35.5492 20.0557C35.5492 20.0557 35.838 21.0349 35.1959 21.4813C34.5537 21.9276 33.6865 22.1376 33.6865 22.1376C33.6865 22.1376 33.9275 21.1002 34.2617 20.8488C34.5959 20.5973 35.5492 20.0557 35.5492 20.0557ZM33.4796 22.8814C33.512 22.5985 33.4327 22.3457 33.4327 22.3457C33.4327 22.3457 32.628 22.7756 32.346 22.9752C32.0639 23.1748 31.8604 23.9982 31.8604 23.9982C31.8604 23.9982 32.5924 23.8316 33.1345 23.4773C33.3316 23.3484 33.4248 23.1637 33.4636 22.9807C33.6254 23.0303 34.0381 23.1379 34.4639 23.0969C35.0108 23.0444 35.4053 22.2771 35.4053 22.2771C35.4053 22.2771 34.6592 22.274 34.3642 22.3142C34.1344 22.3455 33.6726 22.7182 33.4796 22.8814ZM30.9423 24.3453C30.9423 24.3453 30.8844 25.1514 30.3009 25.3161C29.7174 25.4808 29.036 25.4101 29.036 25.4101C29.036 25.4101 29.4912 24.6995 29.8 24.5995C30.1089 24.4996 30.9423 24.3453 30.9423 24.3453ZM27.4835 26.5032C28.0867 26.4423 28.2837 25.6585 28.2837 25.6585C28.2837 25.6585 27.4362 25.6657 27.1147 25.7105C26.7931 25.7553 26.2215 26.3761 26.2215 26.3761C26.2215 26.3761 26.8802 26.564 27.4835 26.5032ZM26.4123 25.052C26.4123 25.052 26.4941 25.9924 25.8881 26.3077C25.2821 26.6229 24.5272 26.6883 24.5272 26.6883C24.5272 26.6883 24.8954 25.7723 25.2138 25.5907C25.5323 25.4091 26.4123 25.052 26.4123 25.052ZM25.9885 27.4533C26.6578 27.5897 27.1861 26.8074 27.1861 26.8074C27.1861 26.8074 26.2775 26.5311 25.9157 26.4718C25.5539 26.4125 24.6913 26.8928 24.6913 26.8928C24.6913 26.8928 25.3191 27.317 25.9885 27.4533ZM30.8284 25.7653C30.8284 25.7653 30.5112 26.5086 29.9059 26.4744C29.3005 26.4401 28.6793 26.1515 28.6793 26.1515C28.6793 26.1515 29.341 25.6277 29.6656 25.6338C29.9902 25.6398 30.8284 25.7653 30.8284 25.7653ZM29.0709 24.9142C29.6123 24.6412 29.5153 23.8389 29.5153 23.8389C29.5153 23.8389 28.7267 24.1493 28.4426 24.3064C28.1585 24.4634 27.8472 25.2479 27.8472 25.2479C27.8472 25.2479 28.5296 25.1872 29.0709 24.9142ZM32.1209 21.9794C32.1209 21.9794 32.1196 22.9706 31.7121 23.358C31.3047 23.7454 30.8159 23.8806 30.8159 23.8806C30.8159 23.8806 31.1049 22.876 31.3199 22.6555C31.535 22.435 32.1209 21.9794 32.1209 21.9794ZM33.6149 24.1693C33.6149 24.1693 33.0063 24.9617 32.3795 24.921C31.7527 24.8803 31.2026 24.5676 31.2026 24.5676C31.2026 24.5676 32.0944 24.0123 32.4351 24.0209C32.7757 24.0295 33.6149 24.1693 33.6149 24.1693ZM33.4683 23.989C33.8017 24.0195 34.1137 23.6042 34.1137 23.6042C34.1137 23.6042 33.6662 23.5177 33.4853 23.5083C33.3043 23.499 32.8386 23.7836 32.8386 23.7836C32.8386 23.7836 33.135 23.9585 33.4683 23.989ZM33.1907 20.7818C33.1907 20.7818 33.5455 21.1613 33.4576 21.4843C33.3696 21.8072 33.1459 22.0688 33.1459 22.0688C33.1459 22.0688 32.9465 21.5607 32.9872 21.3841C33.0278 21.2075 33.1907 20.7818 33.1907 20.7818ZM30.2524 24.1251C30.4587 24.0476 30.4109 23.7983 30.4109 23.7983C30.4109 23.7983 30.1092 23.8843 30.0011 23.9292C29.893 23.9741 29.7823 24.2127 29.7823 24.2127C29.7823 24.2127 30.046 24.2026 30.2524 24.1251ZM31.3241 25.0865C31.3241 25.0865 31.3719 25.3357 31.1655 25.4132C30.9592 25.4907 30.6955 25.5008 30.6955 25.5008C30.6955 25.5008 30.8061 25.2623 30.9142 25.2173C31.0223 25.1724 31.3241 25.0865 31.3241 25.0865ZM27.3611 25.4132C27.5675 25.3357 27.5197 25.0865 27.5197 25.0865C27.5197 25.0865 27.218 25.1724 27.1098 25.2173C27.0017 25.2623 26.8911 25.5008 26.8911 25.5008C26.8911 25.5008 27.1548 25.4907 27.3611 25.4132ZM28.2805 26.6609C28.2805 26.6609 28.3283 26.9101 28.1219 26.9876C27.9156 27.0651 27.6519 27.0752 27.6519 27.0752C27.6519 27.0752 27.7625 26.8366 27.8706 26.7917C27.9788 26.7468 28.2805 26.6609 28.2805 26.6609Z"
      fill="#006B49" />
    <path fill-rule="evenodd" clip-rule="evenodd"
      d="M41.709 4.52563C41.709 4.52563 42.2283 5.19292 41.709 5.19292C41.1898 5.19292 39.8694 5.91493 39.8694 5.91493C39.8694 5.91493 39.2414 6.8523 38.4807 7.06438C37.72 7.27645 37.4634 8.064 36.3499 8.39224C35.2364 8.72048 35.1226 8.81009 35.1226 9.1423C35.1226 9.47451 35.3125 10.0371 34.5521 10.0371C33.7917 10.0371 33.2543 8.9725 32.8428 10.0371C32.4313 11.1017 32.0145 11.4138 32.5845 12.0651C33.1544 12.7164 33.9095 13.34 34.2308 13.7161C34.5521 14.0923 36.6949 15.193 35.1226 15.193C33.5504 15.193 34.3408 14.1967 33.1304 14.5606C31.9201 14.9246 32.615 15.4614 31.6899 15.193C30.7649 14.9246 30.1482 14.6796 29.8611 14.8021C29.5741 14.9246 29.113 14.1217 29.113 15.193C29.113 16.2643 29.9763 15.83 28.1253 17.0134C26.2744 18.1968 26.642 17.8698 25.7924 17.8698C24.9428 17.8698 24.6443 18.4055 24.0778 18.4055C23.5114 18.4055 23.5805 18.4055 22.9425 18.4055C22.3044 18.4055 22.988 17.7278 21.9 18.4055C20.812 19.0831 20.4222 19.218 20.4222 19.4784C20.4222 19.7388 20.4222 20.4292 20.4222 20.4292C20.4222 20.4292 19.4254 20.9995 19.4254 20.4292C19.4254 19.8589 19.1181 19.7129 18.7048 19.4784C18.2915 19.2439 17.4656 19.4127 16.5836 19.4784C15.7016 19.5441 14.7044 18.5888 13.9387 18.5888C13.1731 18.5888 13.0306 17.8698 12.8212 17.8698C12.6117 17.8698 13.0397 17.2553 12.1481 16.7039C11.2566 16.1525 10.9446 16.084 10.9446 15.193C10.9446 14.302 10.5352 14.0583 10.5352 13.5169C10.5352 12.9755 10.9714 13.7161 11.8963 13.7161C12.8212 13.7161 12.8818 13.1432 13.9387 12.6041C14.9957 12.0651 15.3544 11.7701 16.2356 12.0651C17.1169 12.3601 17.9843 13.4593 18.7048 12.4043C19.4254 11.3492 19.4254 10.1427 19.4254 9.53361C19.4254 8.92448 18.9992 8.75099 20.1496 9.1423C21.2999 9.53361 21.9691 9.53361 23.8808 9.53361C25.7924 9.53361 28.0781 10.1588 28.7825 9.53361C29.4869 8.90847 30.2399 8.39224 32.0675 8.39224C33.8951 8.39224 34.4922 7.494 35.7211 7.06438C36.9501 6.63475 35.1377 7.54298 37.8944 6.36795C40.6511 5.19292 41.709 4.52563 41.709 4.52563Z"
      fill="#F57A01" />
  </g>
</svg>
