<svg width="48" height="36" fill="none" xmlns="http://www.w3.org/2000/svg">
  <path fill-rule="evenodd" clip-rule="evenodd" d="M0 0V36H48V0H0Z" fill="#FFB400" />
  <mask id="mask0_123_5031" style="mask-type:luminance" maskUnits="userSpaceOnUse" x="0" y="0"
    width="48" height="36">
    <path fill-rule="evenodd" clip-rule="evenodd" d="M0 0V36H48V0H0Z" fill="white" />
  </mask>
  <g mask="url(#mask0_123_5031)">
    <path fill-rule="evenodd" clip-rule="evenodd" d="M0 0V9H48V0H0Z" fill="#C51918" />
    <path fill-rule="evenodd" clip-rule="evenodd" d="M0 27V36H48V27H0Z" fill="#C51918" />
    <rect x="7.51211" y="15.408" width="1.68" height="8.736" fill="#F1F9FF" />
    <path fill-rule="evenodd" clip-rule="evenodd"
      d="M9.86404 13.896H6.84004V14.736H7.34404V15.408H9.36004V14.736H9.86404V13.896Z"
      fill="#C88A02" />
    <path fill-rule="evenodd" clip-rule="evenodd"
      d="M9.36004 24.6481H9.86404V25.4881H6.84004V24.6481H7.34404V23.9761H9.36004V24.6481Z"
      fill="#C88A02" />
    <path fill-rule="evenodd" clip-rule="evenodd"
      d="M8.35207 14.0641C8.71767 14.0641 8.75483 13.9264 8.97052 13.7208C9.13801 13.5611 9.52807 13.3631 9.52807 13.1401C9.52807 12.6298 9.00156 12.2161 8.35207 12.2161C7.70259 12.2161 7.17607 12.6298 7.17607 13.1401C7.17607 13.3886 7.44469 13.5547 7.6478 13.7208C7.86178 13.8957 8.01886 14.0641 8.35207 14.0641Z"
      fill="#AD1619" />
    <path fill-rule="evenodd" clip-rule="evenodd"
      d="M6.84004 25.488H9.86404V26.832C9.86404 26.832 9.48604 26.664 9.10804 26.664C8.73004 26.664 8.35204 26.832 8.35204 26.832C8.35204 26.832 7.97404 26.664 7.59604 26.664C7.21804 26.664 6.84004 26.832 6.84004 26.832V25.488Z"
      fill="#005BBF" />
    <mask id="mask1_123_5031" style="mask-type:luminance" maskUnits="userSpaceOnUse" x="6" y="25"
      width="4" height="2">
      <path fill-rule="evenodd" clip-rule="evenodd"
        d="M6.84004 25.488H9.86404V26.832C9.86404 26.832 9.48604 26.664 9.10804 26.664C8.73004 26.664 8.35204 26.832 8.35204 26.832C8.35204 26.832 7.97404 26.664 7.59604 26.664C7.21804 26.664 6.84004 26.832 6.84004 26.832V25.488Z"
        fill="white" />
    </mask>
    <g mask="url(#mask1_123_5031)">
      <path
        d="M6.81268 26.5681L6.74668 26.4071C7.01905 26.2859 7.29239 26.2251 7.56614 26.2251C7.743 26.2251 7.83536 26.2498 7.99236 26.3196C8.13028 26.381 8.20176 26.4001 8.35259 26.4001C8.50342 26.4001 8.5749 26.381 8.71281 26.3196C8.86982 26.2498 8.96218 26.2251 9.13904 26.2251C9.41279 26.2251 9.68613 26.2859 9.9585 26.4071L9.8925 26.5681C9.64056 26.4559 9.3896 26.4001 9.13904 26.4001C8.98822 26.4001 8.91673 26.4192 8.77882 26.4806C8.62181 26.5504 8.52945 26.5751 8.35259 26.5751C8.17573 26.5751 8.08337 26.5504 7.92636 26.4806C7.78845 26.4192 7.71696 26.4001 7.56614 26.4001C7.31558 26.4001 7.06462 26.4559 6.81268 26.5681Z"
        fill="white" />
      <path
        d="M6.81268 26.0639L6.74668 25.903C7.01905 25.7818 7.29239 25.7209 7.56614 25.7209C7.743 25.7209 7.83536 25.7456 7.99236 25.8155C8.13028 25.8769 8.20176 25.8959 8.35259 25.8959C8.50342 25.8959 8.5749 25.8769 8.71281 25.8155C8.86982 25.7456 8.96218 25.7209 9.13904 25.7209C9.41279 25.7209 9.68613 25.7818 9.9585 25.903L9.8925 26.0639C9.64056 25.9518 9.3896 25.8959 9.13904 25.8959C8.98822 25.8959 8.91673 25.915 8.77882 25.9764C8.62181 26.0463 8.52945 26.0709 8.35259 26.0709C8.17573 26.0709 8.08337 26.0463 7.92636 25.9764C7.78845 25.915 7.71696 25.8959 7.56614 25.8959C7.31558 25.8959 7.06462 25.9518 6.81268 26.0639Z"
        fill="white" />
    </g>
    <rect x="23.9761" y="15.408" width="1.68" height="8.736" fill="#F1F9FF" />
    <path fill-rule="evenodd" clip-rule="evenodd"
      d="M26.328 13.896H23.304V14.736H23.8079V15.408H25.8239V14.736H26.328V13.896Z" fill="#C88A02" />
    <path fill-rule="evenodd" clip-rule="evenodd"
      d="M25.824 24.6481H26.328V25.4881H23.304V24.6481H23.808V23.9761H25.824V24.6481Z"
      fill="#C88A02" />
    <path fill-rule="evenodd" clip-rule="evenodd"
      d="M24.816 14.0641C25.1816 14.0641 25.2188 13.9264 25.4345 13.7208C25.602 13.5611 25.992 13.3631 25.992 13.1401C25.992 12.6298 25.4655 12.2161 24.816 12.2161C24.1666 12.2161 23.64 12.6298 23.64 13.1401C23.64 13.3886 23.9087 13.5547 24.1118 13.7208C24.3257 13.8957 24.4828 14.0641 24.816 14.0641Z"
      fill="#AD1619" />
    <path fill-rule="evenodd" clip-rule="evenodd"
      d="M23.304 25.488H26.328V26.832C26.328 26.832 25.95 26.664 25.572 26.664C25.194 26.664 24.816 26.832 24.816 26.832C24.816 26.832 24.438 26.664 24.06 26.664C23.682 26.664 23.304 26.832 23.304 26.832V25.488Z"
      fill="#005BBF" />
    <mask id="mask2_123_5031" style="mask-type:luminance" maskUnits="userSpaceOnUse" x="23" y="25"
      width="4" height="2">
      <path fill-rule="evenodd" clip-rule="evenodd"
        d="M23.304 25.488H26.328V26.832C26.328 26.832 25.95 26.664 25.572 26.664C25.194 26.664 24.816 26.832 24.816 26.832C24.816 26.832 24.438 26.664 24.06 26.664C23.682 26.664 23.304 26.832 23.304 26.832V25.488Z"
        fill="white" />
    </mask>
    <g mask="url(#mask2_123_5031)">
      <path
        d="M23.2765 26.5681L23.2105 26.4071C23.4829 26.2859 23.7562 26.2251 24.03 26.2251C24.2068 26.2251 24.2992 26.2498 24.4562 26.3196C24.5941 26.381 24.6656 26.4001 24.8164 26.4001C24.9672 26.4001 25.0387 26.381 25.1766 26.3196C25.3336 26.2498 25.426 26.2251 25.6029 26.2251C25.8766 26.2251 26.1499 26.2859 26.4223 26.4071L26.3563 26.5681C26.1044 26.4559 25.8534 26.4001 25.6029 26.4001C25.452 26.4001 25.3805 26.4192 25.2426 26.4806C25.0856 26.5504 24.9933 26.5751 24.8164 26.5751C24.6395 26.5751 24.5472 26.5504 24.3902 26.4806C24.2523 26.4192 24.1808 26.4001 24.03 26.4001C23.7794 26.4001 23.5284 26.4559 23.2765 26.5681Z"
        fill="white" />
      <path
        d="M23.2765 26.0639L23.2105 25.903C23.4829 25.7818 23.7562 25.7209 24.03 25.7209C24.2068 25.7209 24.2992 25.7456 24.4562 25.8155C24.5941 25.8769 24.6656 25.8959 24.8164 25.8959C24.9672 25.8959 25.0387 25.8769 25.1766 25.8155C25.3336 25.7456 25.426 25.7209 25.6029 25.7209C25.8766 25.7209 26.1499 25.7818 26.4223 25.903L26.3563 26.0639C26.1044 25.9518 25.8534 25.8959 25.6029 25.8959C25.452 25.8959 25.3805 25.915 25.2426 25.9764C25.0856 26.0463 24.9933 26.0709 24.8164 26.0709C24.6395 26.0709 24.5472 26.0463 24.3902 25.9764C24.2523 25.915 24.1808 25.8959 24.03 25.8959C23.7794 25.8959 23.5284 25.9518 23.2765 26.0639Z"
        fill="white" />
    </g>
    <path fill-rule="evenodd" clip-rule="evenodd"
      d="M7.48203 23.5198C7.78492 23.1526 7.95429 22.8186 7.95429 22.4637C7.95429 22.24 7.88772 22.0468 7.77108 21.8889L7.79078 21.8801C7.78897 21.8809 8.12307 21.7353 8.23938 21.6795C8.45561 21.5758 8.6461 21.466 8.83184 21.3309C8.95042 21.2447 9.10929 21.1508 9.35149 21.0207C9.39332 20.9982 9.50665 20.9381 9.57901 20.8997L9.64053 20.867C9.75824 20.8042 9.84589 20.7561 9.92733 20.7089C10.1811 20.5617 10.3488 20.44 10.477 20.2774C10.7808 19.8922 10.7177 19.37 10.292 19.0801C10.0835 18.9381 9.80205 18.8567 9.3895 18.7925L9.30422 18.7793C9.1633 18.7576 8.89248 18.7157 8.79947 18.7011C8.60205 18.6701 8.4259 18.6411 8.26884 18.6137C9.30169 18.4418 10.7765 18.505 11.4253 18.84L12.0419 17.6457C10.7199 16.9632 7.70766 17.0329 6.58247 17.8078C5.75717 18.3761 5.86792 19.2353 6.7266 19.6052C7.0854 19.7598 7.55314 19.8624 8.41872 20.0015C8.27366 20.0856 8.1534 20.1625 8.04136 20.244C7.92772 20.3266 7.80597 20.3968 7.6583 20.4676C7.58769 20.5014 7.37864 20.5932 7.28275 20.6353L7.28266 20.6354L7.28265 20.6354L7.23447 20.6566C6.53504 20.9746 6.19559 21.4146 6.29703 22.2088L6.35194 22.6387L6.45043 22.669L7.48203 23.5198ZM6.61751 22.4088L6.61538 22.415L6.61701 22.4106L6.61751 22.4088ZM25.0591 22.4637C25.0591 22.8186 25.2285 23.1526 25.5314 23.5198L26.563 22.669L26.6615 22.6387L26.7164 22.2088C26.8178 21.4146 26.4784 20.9746 25.779 20.6566L25.7308 20.6354C25.6349 20.5933 25.4258 20.5015 25.3551 20.4676C25.2075 20.3968 25.0857 20.3266 24.9721 20.244C24.86 20.1625 24.7398 20.0856 24.5947 20.0015C25.4603 19.8624 25.928 19.7598 26.2868 19.6052C27.1455 19.2353 27.2563 18.3761 26.431 17.8078C25.3058 17.0329 22.2936 16.9632 20.9715 17.6458L21.5881 18.84C22.2369 18.505 23.7117 18.4419 24.7446 18.6137C24.5875 18.6412 24.4114 18.6701 24.214 18.7011C24.121 18.7157 23.8505 18.7575 23.7095 18.7793L23.7094 18.7793L23.6239 18.7925C23.2114 18.8567 22.9299 18.9382 22.7214 19.0801C22.2957 19.37 22.2326 19.8922 22.5364 20.2774C22.6647 20.44 22.8323 20.5617 23.0861 20.7089C23.1675 20.7561 23.2552 20.8042 23.3729 20.867L23.4346 20.8998L23.4351 20.9C23.5074 20.9385 23.6202 20.9983 23.6619 21.0207C23.9041 21.1508 24.063 21.2447 24.1816 21.3309C24.3673 21.466 24.5578 21.5758 24.774 21.6795C24.8904 21.7353 25.2245 21.8809 25.2226 21.8801L25.2424 21.8889C25.1257 22.0468 25.0591 22.24 25.0591 22.4637Z"
      fill="#AD1619" />
    <path
      d="M8.88514 18.6001L9.38102 18.7027V19.4418C8.85288 19.8632 7.51211 20.5734 7.51211 20.5734V18.6001H8.88514Z"
      fill="#F1F9FF" />
    <path
      d="M24.4719 18.6001L23.976 18.7027V19.4418C24.5042 19.8632 25.8449 20.5734 25.8449 20.5734V18.6001H24.4719Z"
      fill="#F1F9FF" />
    <path fill-rule="evenodd" clip-rule="evenodd"
      d="M22.164 10.8092V10.5632C21.2999 9.94302 20.395 9.63293 19.4493 9.63293C18.5427 9.23172 17.625 9.07598 16.6962 9.16571C16.6965 9.16284 16.6966 9.16138 16.6966 9.16138C15.3002 9.02474 13.8928 9.63293 13.8928 9.63293C12.4743 9.63293 11.1781 10.5632 11.1781 10.5632V10.8092L12.8725 12.5109C12.8725 12.5109 13.3495 14.1489 16.6897 13.764V13.7681C16.6897 13.7681 18.9012 13.7078 19.0566 13.6561C19.1183 13.6356 19.1822 13.6169 19.2476 13.5978C19.6807 13.4714 20.1752 13.327 20.4696 12.511L22.164 10.8092ZM16.6897 9.24136C16.6414 9.8091 16.3663 13.2228 16.6897 13.7524V9.24136Z"
      fill="#AD1619" />
    <path fill-rule="evenodd" clip-rule="evenodd"
      d="M12.4707 12.2244L12.4718 12.2192L11.2797 11.0977L11.3949 10.9754L12.5134 12.0278L12.542 11.8961C12.725 11.9359 12.8588 11.9505 12.9368 11.9423V11.714L13.1847 11.8481C13.3067 11.9141 13.4813 11.9319 13.7114 11.8945C13.8804 11.867 13.9944 11.6707 14.0316 11.2526L14.1069 10.4084L14.3594 11.2175C14.4736 11.5836 14.6479 11.7449 14.896 11.7449C15.1383 11.7449 15.2357 11.6561 15.2464 11.4322L15.2769 10.7971L15.5641 11.3644C15.6676 11.5687 15.8103 11.6614 16.0132 11.6614C16.3033 11.6614 16.4972 11.4195 16.4972 11.0399H16.5026H16.8332H16.8386C16.8386 11.4195 17.0324 11.6614 17.3226 11.6614C17.5255 11.6614 17.6681 11.5687 17.7716 11.3644L18.0588 10.7971L18.0893 11.4322C18.1001 11.6561 18.1975 11.7449 18.4398 11.7449C18.6879 11.7449 18.8621 11.5836 18.9764 11.2175L19.2288 10.4084L19.3041 11.2526C19.3414 11.6707 19.4554 11.867 19.6243 11.8945C19.8544 11.9319 20.0291 11.9141 20.151 11.8481L20.399 11.714V11.9423C20.4769 11.9505 20.6107 11.9359 20.7937 11.8961L20.8469 12.1406L22.0853 10.9754L22.2004 11.0977L20.6595 12.5475C20.4347 12.9615 20.3214 13.2348 20.3214 13.3484C20.3214 13.5215 19.8709 13.6243 18.9915 13.7299C18.3025 13.8126 17.4894 13.8682 16.8244 13.8765V13.8775L16.7401 13.8773L16.6558 13.8775V13.8765C15.9907 13.8682 15.1777 13.8126 14.4887 13.7299C13.6093 13.6243 13.1587 13.5215 13.1587 13.3484C13.1587 13.3269 13.1547 13.2996 13.1466 13.2668C13.058 13.1539 12.9957 12.9694 12.9542 12.8029C12.9153 12.7249 12.8707 12.6397 12.8207 12.5475L12.4793 12.2263L12.4707 12.2244ZM20.729 12.2515C20.4537 12.3002 20.255 12.2953 20.1495 12.2094C19.9846 12.2574 19.7912 12.262 19.5704 12.2261C19.3345 12.1877 19.1703 12.0308 19.0715 11.7706C18.9424 11.935 18.7793 12.0364 18.5839 12.0693C19.659 12.2217 20.4122 12.436 20.4122 12.436C20.4122 12.436 20.3936 12.5954 20.3484 12.7827C20.3962 12.6847 20.4528 12.5757 20.5184 12.4554L20.5346 12.4344L20.729 12.2515ZM18.0766 12.0054C17.983 11.9589 17.9084 11.8916 17.8544 11.8047C17.7742 11.8755 17.6831 11.9273 17.5818 11.9593C17.7509 11.9722 17.9162 11.9878 18.0766 12.0054ZM16.9888 11.9266C16.8579 11.8661 16.7491 11.7693 16.6679 11.6452C16.5872 11.7684 16.4793 11.8648 16.3497 11.9253C16.4265 11.923 16.5038 11.9214 16.5814 11.9205V11.9198L16.6488 11.92L16.7162 11.9198V11.9205C16.8076 11.9216 16.8985 11.9236 16.9888 11.9266ZM12.9334 12.4229L12.7768 12.2755C12.9648 12.2942 13.1039 12.2765 13.1862 12.2094C13.3511 12.2574 13.5445 12.262 13.7654 12.2261C14.0012 12.1877 14.1655 12.0308 14.2643 11.7706C14.3896 11.9302 14.5471 12.0305 14.7351 12.0662C13.8081 12.1965 13.1165 12.3737 12.9334 12.4229ZM15.7467 11.9569C15.5839 11.969 15.4245 11.9837 15.2695 12.0002C15.3582 11.9539 15.4293 11.8884 15.4813 11.8047C15.5596 11.8739 15.6483 11.9248 15.7467 11.9569ZM19.8797 13.3517C19.9974 13.4068 20.0918 13.3517 20.1664 13.2462C20.16 13.2754 20.1559 13.3017 20.1543 13.3254C20.1444 13.3318 20.1293 13.3396 20.1095 13.3479C20.0542 13.3712 19.9696 13.396 19.8597 13.421C19.6436 13.4703 19.336 13.5194 18.9714 13.5631C18.2596 13.6486 17.413 13.7048 16.7401 13.7093C16.0671 13.7048 15.2206 13.6486 14.5087 13.5631C14.1442 13.5194 13.8366 13.4703 13.6205 13.421C13.5284 13.4 13.4541 13.3792 13.3999 13.3593C13.4059 13.3571 13.4119 13.3545 13.418 13.3517C13.785 13.1799 16.2117 13.0188 16.6488 12.991C17.086 13.0188 19.5127 13.1799 19.8797 13.3517ZM20.3424 13.3209C20.3419 13.3213 20.3411 13.3222 20.3402 13.3234L20.3414 13.3217L20.3424 13.3209Z"
      fill="#C88A02" />
    <path fill-rule="evenodd" clip-rule="evenodd"
      d="M16.6684 8.02069C16.9468 8.02069 17.1724 7.79505 17.1724 7.5167C17.1724 7.23834 16.9468 7.0127 16.6684 7.0127C16.3901 7.0127 16.1644 7.23834 16.1644 7.5167C16.1644 7.79505 16.3901 8.02069 16.6684 8.02069Z"
      fill="#005BBF" />
    <path fill-rule="evenodd" clip-rule="evenodd"
      d="M16.3408 10.4952C16.3515 10.5505 16.3683 10.602 16.3895 10.6479C16.3245 10.623 16.2472 10.6086 16.1643 10.6086C15.9324 10.6086 15.7443 10.7215 15.7443 10.8606C15.7443 10.9998 15.9324 11.1126 16.1643 11.1126C16.3947 11.1126 16.5817 11.0014 16.5843 10.8635C16.5869 11.0014 16.7739 11.1126 17.0043 11.1126C17.2362 11.1126 17.4243 10.9998 17.4243 10.8606C17.4243 10.7215 17.2362 10.6086 17.0043 10.6086C16.9459 10.6086 16.8903 10.6158 16.8398 10.6287C16.8519 10.5598 16.8514 10.4808 16.8355 10.399C16.7913 10.1713 16.6446 10.0083 16.508 10.0348C16.3714 10.0614 16.2965 10.2675 16.3408 10.4952ZM16.5843 10.8578L16.5841 10.8529L16.5845 10.8531L16.5843 10.8578ZM13.8694 10.8159C13.8482 10.77 13.8314 10.7185 13.8207 10.6632C13.7764 10.4355 13.8513 10.2294 13.9879 10.2028C14.1245 10.1763 14.2711 10.3393 14.3154 10.567C14.3313 10.6488 14.3318 10.7278 14.3196 10.7967C14.3702 10.7838 14.4258 10.7766 14.4842 10.7766C14.7161 10.7766 14.9042 10.8895 14.9042 11.0286C14.9042 11.1678 14.7161 11.2806 14.4842 11.2806C14.2539 11.2806 14.0669 11.1694 14.0642 11.0316C14.0615 11.1694 13.8745 11.2806 13.6442 11.2806C13.4123 11.2806 13.2242 11.1678 13.2242 11.0286C13.2242 10.8895 13.4123 10.7766 13.6442 10.7766C13.7271 10.7766 13.8043 10.791 13.8694 10.8159ZM14.064 11.021L14.0642 11.0257L14.0643 11.0211L14.064 11.021ZM18.6802 11.1606C18.908 11.1926 19.1084 11.1088 19.1307 10.973C19.1147 11.1097 19.2843 11.2455 19.512 11.2775C19.7417 11.3098 19.9436 11.2242 19.963 11.0864C19.9823 10.9486 19.8118 10.8107 19.5821 10.7784C19.5243 10.7703 19.4683 10.7696 19.4165 10.7753C19.4381 10.7088 19.4486 10.6305 19.4442 10.5473C19.4321 10.3157 19.3096 10.1338 19.1706 10.1411C19.0316 10.1484 18.9288 10.3421 18.9409 10.5737C18.9439 10.63 18.9534 10.6833 18.968 10.7317C18.907 10.698 18.8325 10.673 18.7504 10.6615C18.5207 10.6292 18.3188 10.7148 18.2994 10.8526C18.28 10.9904 18.4505 11.1283 18.6802 11.1606ZM19.1324 10.962L19.1321 10.9618L19.1317 10.9659L19.1324 10.962ZM20.7307 11.6358C20.9355 11.7447 21.1545 11.7334 21.2199 11.6105L21.2233 11.6036C21.2435 11.625 21.2674 11.6405 21.2947 11.6489C21.4278 11.6896 21.5906 11.5427 21.6585 11.3209C21.7263 11.0991 21.6734 10.8863 21.5403 10.8456C21.4072 10.8049 21.2443 10.9517 21.1765 11.1735C21.16 11.2275 21.1506 11.2808 21.1478 11.3313C21.102 11.2788 21.0405 11.2298 20.9673 11.1908C20.7625 11.0819 20.5435 11.0933 20.4782 11.2162C20.4128 11.3391 20.5259 11.527 20.7307 11.6358ZM12.4874 11.6873C12.2825 11.7962 12.0636 11.7849 11.9982 11.662C11.997 11.6598 11.9959 11.6575 11.9948 11.6553C11.9747 11.6765 11.9509 11.692 11.9237 11.7003C11.7906 11.741 11.6277 11.5942 11.5599 11.3724C11.4921 11.1505 11.545 10.9377 11.6781 10.897C11.8112 10.8563 11.9741 11.0032 12.0419 11.225C12.0583 11.2788 12.0677 11.3321 12.0705 11.3825C12.1163 11.3301 12.1777 11.2811 12.2507 11.2423C12.4556 11.1334 12.6745 11.1447 12.7399 11.2676C12.8052 11.3905 12.6922 11.5784 12.4874 11.6873Z"
      fill="#C88A02" />
    <path fill-rule="evenodd" clip-rule="evenodd"
      d="M16.4805 6.11499H16.8305V6.33611H17.0591V6.68611H16.8305V7.38611H17.0591V7.73611H16.2482V7.38611H16.4805V6.68611H16.2482V6.33611H16.4805V6.11499Z"
      fill="#C88A02" />
    <rect x="16.4161" y="8.01611" width="0.671999" height="2.184" fill="#C88A02" />
    <path
      d="M13.7111 8.38202L13.7082 8.55C12.2185 8.52399 11.364 8.74138 11.1471 9.17466C10.9229 9.6226 10.9646 10.1671 11.2788 10.814L11.1277 10.8874C10.7924 10.1972 10.7467 9.59934 10.9969 9.09945C11.2545 8.58489 12.1584 8.35492 13.7111 8.38202Z"
      fill="white" />
    <path
      d="M13.9993 9.87167L13.9132 10.0159C13.5888 9.82221 13.4264 9.49165 13.4264 9.0361C13.4264 8.38138 13.7637 7.99744 14.5097 7.73471C14.9858 7.56702 15.6363 7.63577 16.4628 7.93544L16.4055 8.09338C15.6121 7.8057 14.9981 7.74081 14.5655 7.89317C13.8812 8.13416 13.5944 8.46067 13.5944 9.0361C13.5944 9.43586 13.7293 9.71043 13.9993 9.87167Z"
      fill="white" />
    <path
      d="M11.4906 10.5562L11.1735 10.6676C10.8446 9.73106 10.9385 9.09504 11.5006 8.82068C11.9958 8.57893 12.7176 8.48054 13.6695 8.51912L13.6559 8.85484C12.7547 8.81832 12.0841 8.90972 11.648 9.12263C11.2786 9.30293 11.211 9.76041 11.4906 10.5562Z"
      fill="#C88A02" />
    <path
      d="M15.1942 8.15827C14.426 8.15827 14.1105 8.34537 13.9303 8.8978C13.8155 9.24985 13.9269 9.55032 14.288 9.8308L14.082 10.0962C13.6143 9.73306 13.4495 9.28833 13.6109 8.79358C13.8406 8.08956 14.2913 7.82227 15.1942 7.82227C15.786 7.82227 16.2471 7.97775 16.5681 8.29419L16.6182 8.34354V9.96349H16.2822V8.48715C16.0314 8.26939 15.6713 8.15827 15.1942 8.15827Z"
      fill="#C88A02" />
    <path
      d="M19.5739 8.54999L19.5768 8.71797C21.0664 8.69196 21.9209 8.90935 22.1378 9.34262C22.3621 9.79057 22.3204 10.3351 22.0062 10.9819L22.1573 11.0553C22.4925 10.3652 22.5383 9.76731 22.2881 9.26742C22.0305 8.75286 21.1265 8.52288 19.5739 8.54999Z"
      fill="white" />
    <path
      d="M19.0478 9.90658L19.1339 10.0508C19.4583 9.85712 19.6207 9.52656 19.6207 9.07101C19.6207 8.41629 19.2834 8.03236 18.5374 7.76962C18.0612 7.60193 17.4108 7.67068 16.5843 7.97035L16.6415 8.12829C17.435 7.84062 18.0489 7.77572 18.4816 7.92808C19.1658 8.16907 19.4527 8.49558 19.4527 9.07101C19.4527 9.47078 19.3178 9.74534 19.0478 9.90658Z"
      fill="white" />
    <path
      d="M21.899 10.7242L22.216 10.8355C22.5449 9.89903 22.451 9.26301 21.889 8.98865C21.3937 8.7469 20.6719 8.64851 19.72 8.68709L19.7336 9.02281C20.6349 8.98629 21.3054 9.07768 21.7416 9.2906C22.1109 9.4709 22.1785 9.92838 21.899 10.7242Z"
      fill="#C88A02" />
    <path
      d="M18.1763 8.18414C18.9445 8.18414 19.26 8.37125 19.4402 8.92368C19.555 9.27573 19.4437 9.5762 19.0825 9.85668L19.2886 10.1221C19.7562 9.75894 19.921 9.31421 19.7596 8.81946C19.5299 8.11544 19.0793 7.84814 18.1763 7.84814C17.5845 7.84814 17.1234 8.00363 16.8024 8.32007L16.7524 8.36942V9.98937H17.0884V8.51303C17.3391 8.29527 17.6992 8.18414 18.1763 8.18414Z"
      fill="#C88A02" />
    <path opacity="0.3" fill-rule="evenodd" clip-rule="evenodd"
      d="M11.2082 13.896H22.1282V23.7072C22.1282 23.7072 21.317 27 16.6682 27C12.0193 27 11.2082 23.6204 11.2082 23.6204V13.896Z"
      fill="#E1E5E8" />
    <mask id="mask3_123_5031" style="mask-type:luminance" maskUnits="userSpaceOnUse" x="11" y="13"
      width="12" height="14">
      <path fill-rule="evenodd" clip-rule="evenodd"
        d="M11.2082 13.896H22.1282V23.7072C22.1282 23.7072 21.317 27 16.6682 27C12.0193 27 11.2082 23.6204 11.2082 23.6204V13.896Z"
        fill="white" />
    </mask>
    <g mask="url(#mask3_123_5031)">
      <rect x="11.2083" y="19.9441" width="5.544" height="6.552" fill="#FFC034" />
      <rect x="11.8803" y="20.28" width="0.672" height="6.216" fill="#AD1619" />
      <rect x="14.2323" y="20.28" width="0.672" height="6.216" fill="#AD1619" />
      <rect x="13.0563" y="20.28" width="0.672" height="6.216" fill="#AD1619" />
      <rect x="15.4083" y="20.28" width="0.672" height="6.216" fill="#AD1619" />
      <rect x="11.2083" y="13.728" width="5.544" height="6.384" fill="#AD1619" />
      <rect x="16.5842" y="19.7759" width="5.544" height="6.384" fill="#AD1619" />
      <rect x="16.5842" y="13.896" width="5.88" height="6.216" fill="#F1F9FF" />
      <path fill-rule="evenodd" clip-rule="evenodd"
        d="M13.5602 14.3999H14.0642V15.7937H14.4001V15.0968H14.9041V15.7937H15.4082V16.6648H14.9041V16.6648H14.9041V18.2328H15.4082V19.1039H12.3842V18.2328H12.8881V16.6648H12.3842V15.7937H12.7203V15.0968H13.2243V15.7937H13.5602V14.3999Z"
        fill="#C88A02" />
      <path fill-rule="evenodd" clip-rule="evenodd"
        d="M19.243 15.4898C19.2367 15.4919 19.234 15.4928 19.2407 15.4951C19.3031 15.5176 19.394 15.5939 19.507 15.7533C19.4631 15.7847 19.3897 15.8229 19.2954 15.8585C19.2044 15.8927 19.1034 15.9217 19.0021 15.9446C18.9414 15.9583 18.8958 15.9667 18.8736 15.9701L18.8807 16.0172C18.7694 15.9577 18.6501 15.8523 18.5203 15.6946C18.3896 15.5356 18.2665 15.4215 18.1434 15.3367C18.119 15.3199 18.0876 15.3006 18.0575 15.2827L18.0735 15.2418L17.6051 15.0557C17.4793 15.3724 17.4674 15.5048 17.6754 15.6445C17.6819 15.6489 17.7034 15.6611 17.7298 15.6761C17.7739 15.7012 17.8317 15.734 17.8577 15.7519C17.9412 15.8094 18.0297 15.8915 18.1311 16.0148C18.3957 16.3364 18.6757 16.5283 18.9646 16.5723L18.9992 16.8006C19.0309 16.7958 19.0654 16.7899 19.1021 16.7828C19.1681 16.8978 19.2307 17.0049 19.2899 17.1041C19.2764 17.1047 19.2631 17.1056 19.25 17.107C18.9708 17.1359 18.8249 17.3627 18.9123 17.651C18.9435 17.754 18.9832 17.8557 19.0389 17.9826L19.0961 18.1127C18.8617 18.0465 18.7382 18.0215 18.6415 18.0242C18.3861 18.0314 18.294 18.2163 18.3276 18.4306L18.8255 18.3525C18.8329 18.3994 18.7704 18.5247 18.6558 18.528C18.6925 18.527 18.8238 18.5574 19.0824 18.6334C19.4296 18.7353 19.7082 18.6525 19.6883 18.3079C19.6836 18.2272 19.6591 18.1468 19.6143 18.038C19.5917 17.9833 19.4969 17.7721 19.5003 17.7798C19.4745 17.721 19.453 17.6694 19.4349 17.6218C19.4899 17.6327 19.5577 17.6498 19.6368 17.673C19.6426 17.6747 19.6485 17.6765 19.6545 17.6782C19.6748 17.7074 19.6944 17.7348 19.7132 17.7605C19.7895 17.8647 19.7936 17.8932 19.776 17.9415C19.7685 17.961 19.7624 17.9779 19.7577 17.9947C19.7476 18.031 19.7441 18.0666 19.7509 18.1056C19.7703 18.2153 19.8468 18.2774 19.9963 18.3465L20.1374 18.0416C20.1241 18.0354 20.1124 18.0297 20.1023 18.0245C20.1226 17.9554 20.1267 17.8871 20.1103 17.8143C20.1577 17.8247 20.1976 17.8299 20.2363 17.8299V17.3259C20.22 17.3259 20.1873 17.3164 19.8999 17.2263C19.8548 17.2122 19.816 17.2003 19.7786 17.1893C19.7607 17.1841 19.7433 17.1791 19.7262 17.1743C19.6406 17.0371 19.5453 16.8779 19.4403 16.6968C19.4899 16.6811 19.5405 16.6638 19.5914 16.6446C19.8543 16.5456 20.0639 16.4194 20.2061 16.2376C20.4261 15.9563 20.4261 15.6011 20.2005 15.2792C19.8049 14.7148 19.3394 14.5472 18.9396 14.7069C18.8807 14.7304 18.8335 14.7575 18.7976 14.7841L19.2968 15.4597C19.2777 15.4738 19.2631 15.4822 19.2512 15.4869C19.2481 15.4882 19.2453 15.4891 19.243 15.4898Z"
        fill="#C37C9C" />
      <path d="M19.4685 14.6925L19.8126 14.3242L20.5349 14.999L20.1908 15.3673L19.4685 14.6925Z"
        fill="#C88A02" />
      <path fill-rule="evenodd" clip-rule="evenodd"
        d="M21.5404 24.2101V20.532H17.3404V24.1793L17.347 24.2077C17.5597 25.1136 18.2837 25.572 19.4404 25.572C20.596 25.572 21.3199 25.1255 21.5334 24.2392L21.5404 24.2101ZM19.4402 25.068C18.5121 25.068 18.0053 24.7554 17.8442 24.1199V21.036H21.0362V24.1491C20.8755 24.7638 20.3686 25.068 19.4402 25.068Z"
        fill="#FFC034" />
      <path fill-rule="evenodd" clip-rule="evenodd"
        d="M19.6137 20.8394H19.2637V22.5069L17.8839 21.0062L17.6366 21.2337L18.8844 22.5908H17.7538V23.0948H18.6222H18.9119L17.6367 24.4818L17.884 24.7092L19.2637 23.2086V25.1577H19.6137V23.384L20.8321 24.7092L21.0795 24.4818L19.8042 23.0948H21.2276V22.5908H19.8318L21.0795 21.2337L20.8322 21.0062L19.6137 22.3315V20.8394Z"
        fill="#FFC034" />
      <path fill-rule="evenodd" clip-rule="evenodd"
        d="M20.2243 26.1641C20.2243 26.1641 16.666 26.4439 16.666 24.1489C16.666 24.1489 16.6321 26.1641 12.9166 26.1641V27.9758H20.2243V26.1641Z"
        fill="#F1F9FF" />
      <path fill-rule="evenodd" clip-rule="evenodd"
        d="M16.6683 21.2881C17.3641 21.2881 17.9283 20.6864 17.9283 19.9441C17.9283 19.2018 17.3641 18.6001 16.6683 18.6001C15.9724 18.6001 15.4083 19.2018 15.4083 19.9441C15.4083 20.6864 15.9724 21.2881 16.6683 21.2881Z"
        fill="#005BBF" stroke="#AD1619" stroke-width="0.729167" />
    </g>
  </g>
</svg>
