<svg width="48" height="36" fill="none" xmlns="http://www.w3.org/2000/svg">
  <mask id="mask0_97_4220" style="mask-type:luminance" maskUnits="userSpaceOnUse" x="0" y="0"
    width="48" height="36">
    <path fill-rule="evenodd" clip-rule="evenodd" d="M0 0V36H48V0H0Z" fill="white" />
  </mask>
  <g mask="url(#mask0_97_4220)">
    <path
      d="M-5.34448 33.4284L5.21806 37.8956L48.24 4.85709L53.8114 -1.78113L42.5162 -3.27417L24.9688 10.963L10.8447 20.5556L-5.34448 33.4284Z"
      fill="white" />
    <path d="M-3.89832 36.5581L1.48281 39.1505L51.8108 -2.39795H44.2552L-3.89832 36.5581Z"
      fill="#F50100" />
    <path
      d="M53.345 33.4284L42.7824 37.8956L-0.239411 4.85709L-5.81091 -1.78113L5.48421 -3.27417L23.0318 10.963L37.1558 20.5556L53.345 33.4284Z"
      fill="white" />
    <path
      d="M52.9846 35.6742L47.6034 38.2666L26.1732 20.4776L19.8197 18.49L-6.34695 -1.75879H1.20877L27.3608 18.0094L34.3072 20.3926L52.9846 35.6742Z"
      fill="#F50100" />
    <path fill-rule="evenodd" clip-rule="evenodd"
      d="M29.6666 -3H18.3333V12H-2.95862V24H18.3333V39H29.6666V24H51.0414V12H29.6666V-3Z"
      fill="#F50100" />
    <mask id="mask1_97_4220" style="mask-type:luminance" maskUnits="userSpaceOnUse" x="-3" y="-3"
      width="55" height="42">
      <path fill-rule="evenodd" clip-rule="evenodd"
        d="M29.6666 -3H18.3333V12H-2.95862V24H18.3333V39H29.6666V24H51.0414V12H29.6666V-3Z"
        fill="white" />
    </mask>
    <g mask="url(#mask1_97_4220)">
      <path
        d="M18.3333 -3V-5H16.3333V-3H18.3333ZM29.6666 -3H31.6666V-5H29.6666V-3ZM18.3333 12V14H20.3332V12H18.3333ZM-2.95862 12V10H-4.95862V12H-2.95862ZM-2.95862 24H-4.95862V26H-2.95862V24ZM18.3333 24H20.3332V22H18.3333V24ZM18.3333 39H16.3333V41H18.3333V39ZM29.6666 39V41H31.6666V39H29.6666ZM29.6666 24V22H27.6666V24H29.6666ZM51.0414 24V26H53.0414V24H51.0414ZM51.0414 12H53.0414V10H51.0414V12ZM29.6666 12H27.6666V14H29.6666V12ZM18.3333 -1H29.6666V-5H18.3333V-1ZM20.3332 12V-3H16.3333V12H20.3332ZM-2.95862 14H18.3333V10H-2.95862V14ZM-0.958616 24V12H-4.95862V24H-0.958616ZM18.3333 22H-2.95862V26H18.3333V22ZM20.3332 39V24H16.3333V39H20.3332ZM29.6666 37H18.3333V41H29.6666V37ZM27.6666 24V39H31.6666V24H27.6666ZM51.0414 22H29.6666V26H51.0414V22ZM49.0414 12V24H53.0414V12H49.0414ZM29.6666 14H51.0414V10H29.6666V14ZM27.6666 -3V12H31.6666V-3H27.6666Z"
        fill="white" />
    </g>
  </g>
</svg>
