<svg width="48" height="32" fill="none" xmlns="http://www.w3.org/2000/svg">
  <path fill-rule="evenodd" clip-rule="evenodd" d="M0 20H48V32H0V20Z" fill="#C51918" />
  <path fill-rule="evenodd" clip-rule="evenodd"
    d="M23.6104 0.899902H21.3999V3.0999H22.491L22.4132 9.1499H19.1894V6.3999H20.2946V4.1999H18.0841V5.29989H16.9788V4.1999H14.7683V6.3999H15.8736V9.1499H13.5428V11.3499H15.8736V11.3499H14.6482V17.9499H13.5428V20.1499H34.5428V17.9499H32.3324V11.3499H19.1894V11.3499H34.5428V9.1499H32.3761L32.4307 6.3999H33.5579V4.1999H31.3474V5.29989H30.2421V4.1999H28.0316V6.3999H29.1149L29.0603 9.1499H25.729L25.8068 3.0999H26.9263V0.899902H24.7157V1.99989H23.6104V0.899902Z"
    fill="#DB000B" />
  <path
    d="M17.1159 9.15248C17.1159 8.84727 17.3633 8.59985 17.6685 8.59985C17.9737 8.59985 18.2212 8.84728 18.2212 9.15248V11.8999H17.1159V9.15248Z"
    fill="#272727" />
  <path fill-rule="evenodd" clip-rule="evenodd"
    d="M16.2238 16.1899C16.2238 15.4651 16.8114 14.8774 17.5363 14.8774H18.2271C18.952 14.8774 19.5396 15.4651 19.5396 16.1899V19.2774H16.2238V16.1899Z"
    fill="#272727" />
  <path fill-rule="evenodd" clip-rule="evenodd"
    d="M28.3817 16.1899C28.3817 15.4651 28.9693 14.8774 29.6942 14.8774H30.385C31.1099 14.8774 31.6975 15.4651 31.6975 16.1899V19.2774H28.3817V16.1899Z"
    fill="#272727" />
  <path fill-rule="evenodd" clip-rule="evenodd"
    d="M21.7501 15.0901C21.7501 14.3652 22.3377 13.7776 23.0626 13.7776H24.8586C25.5835 13.7776 26.1711 14.3652 26.1711 15.0901V20.3776H21.7501V15.0901Z"
    fill="#272727" />
  <path
    d="M23.7475 9.15248C23.7475 8.84727 23.9949 8.59985 24.3001 8.59985C24.6053 8.59985 24.8528 8.84728 24.8528 9.15248V11.8999H23.7475V9.15248Z"
    fill="#272727" />
  <path
    d="M30.3788 9.15248C30.3788 8.84727 30.6263 8.59985 30.9315 8.59985C31.2367 8.59985 31.4841 8.84728 31.4841 9.15248V11.8999H30.3788V9.15248Z"
    fill="#272727" />
  <path fill-rule="evenodd" clip-rule="evenodd"
    d="M24.7835 18.7957L24.5123 19.2937L24.0072 18.54L19.8689 21.3135L24.4827 23.5092L28.5518 20.8483L24.7835 18.7957ZM22.8937 21.0919L24.225 20.1997L25.6314 20.9657L24.3666 21.7928L22.8937 21.0919Z"
    fill="#E8AA00" />
  <path fill-rule="evenodd" clip-rule="evenodd"
    d="M21.5367 26.7998H23.7473V28.9998H21.5367V26.7998Z" fill="#E8AA00" />
  <path fill-rule="evenodd" clip-rule="evenodd" d="M22.8 22.9998H25.4232V28.9998H22.8V22.9998Z"
    fill="#E8AA00" />
</svg>
