<svg width="48" height="36" fill="none" xmlns="http://www.w3.org/2000/svg">
  <path fill-rule="evenodd" clip-rule="evenodd" d="M0 0V36H48V0H0Z" fill="#EA1A1A" />
  <mask id="mask0_123_5220" style="mask-type:luminance" maskUnits="userSpaceOnUse" x="0" y="0"
    width="48" height="36">
    <path fill-rule="evenodd" clip-rule="evenodd" d="M0 0V36H48V0H0Z" fill="white" />
  </mask>
  <g mask="url(#mask0_123_5220)">
    <path fill-rule="evenodd" clip-rule="evenodd"
      d="M23.8042 17.3622C23.8042 17.3622 15.1197 9.6173 25.483 5.10474C25.483 5.10474 28.4968 8.42966 26.2358 12.1624C25.4941 13.3866 24.8684 14.2608 24.3983 14.9178C23.4351 16.2638 23.1244 16.6979 23.8042 17.3622ZM10.9871 11.8013C10.3906 23.0886 21.201 18.7832 21.201 18.7832C20.3033 19.0941 20.0539 18.6221 19.2807 17.1593C18.9032 16.445 18.4008 15.4945 17.6371 14.2835C15.3092 10.5921 10.9871 11.8013 10.9871 11.8013ZM27.3572 17.7406C27.3572 17.7406 38.505 21.078 31.029 29.5555C31.029 29.5555 26.89 27.8197 27.3572 23.481C27.5105 22.0584 27.7067 21.0017 27.8543 20.2075C28.1566 18.5797 28.2542 18.0546 27.3572 17.7406ZM24.427 20.3426C24.427 20.3426 26.4256 31.8061 15.5005 28.9091C15.5005 28.9091 15.203 24.431 19.2927 22.9093C20.6342 22.4101 21.6673 22.1131 22.4437 21.89L22.4437 21.89L22.4438 21.8899L22.4438 21.8899C24.0344 21.4327 24.5474 21.2853 24.427 20.3426ZM38.218 15.413C31.3847 6.40974 25.9107 16.6778 25.9107 16.6778C26.3955 15.8605 26.8907 16.0598 28.4254 16.6774C29.175 16.979 30.1726 17.3805 31.5381 17.8121C35.699 19.1271 38.218 15.413 38.218 15.413Z"
      fill="white" />
    <path d="M15.2417 15.312C15.2417 15.312 17.4254 18.7487 21.0015 18.7487" stroke="#EA1A1A"
      stroke-width="0.5" />
    <path d="M23.7905 10.5754C23.7905 10.5754 21.8308 14.1908 23.5097 17.3483" stroke="#EA1A1A"
      stroke-width="0.5" />
    <path d="M33.1648 14.6423C33.1648 14.6423 28.5895 13.9487 26.1966 16.6063" stroke="#EA1A1A"
      stroke-width="0.5" />
    <path d="M30.4926 23.0176C30.4926 23.0176 29.5795 18.481 26.2638 17.1413" stroke="#EA1A1A"
      stroke-width="0.5" />
    <path d="M20.9 25.48C20.9 25.48 24.8507 23.0704 24.9755 19.4964" stroke="#EA1A1A"
      stroke-width="0.5" />
  </g>
</svg>
