<svg width="48" height="36" fill="none" xmlns="http://www.w3.org/2000/svg">
  <path fill-rule="evenodd" clip-rule="evenodd" d="M0 0V36H48V0H0Z" fill="#F7FCFF" />
  <mask id="mask0_123_5235" style="mask-type:luminance" maskUnits="userSpaceOnUse" x="0" y="0"
    width="48" height="36">
    <path fill-rule="evenodd" clip-rule="evenodd" d="M0 0V36H48V0H0Z" fill="white" />
  </mask>
  <g mask="url(#mask0_123_5235)">
    <path fill-rule="evenodd" clip-rule="evenodd" d="M0 0V12H48V0H0Z" fill="#E31D1C" />
    <path fill-rule="evenodd" clip-rule="evenodd" d="M0 24V36H48V24H0Z" fill="#3D58DB" />
    <rect x="15.115" y="9.59619" width="17.1" height="6" fill="#E31D1C" />
    <path
      d="M15.4124 12.8774H31.7174C31.7567 13.8622 31.7672 16.2709 31.767 18.5425C31.7669 19.7943 31.7636 20.9993 31.7603 21.8914C31.7587 22.3374 31.7571 22.7052 31.7558 22.9614L31.7544 23.258L31.7539 23.3358L31.7539 23.3433C31.7522 23.3547 31.7495 23.3721 31.7457 23.3952C31.7378 23.4422 31.7252 23.5126 31.7063 23.603C31.6685 23.7838 31.6058 24.0444 31.507 24.358C31.3093 24.9861 30.9685 25.8221 30.397 26.6565C29.2618 28.3139 27.2046 29.9856 23.4748 29.9856C19.7465 29.9856 17.7746 28.3122 16.7219 26.6572C16.1913 25.8229 15.8907 24.9866 15.723 24.3577C15.6393 24.0438 15.589 23.7829 15.5598 23.6018C15.5453 23.5113 15.5359 23.4409 15.5303 23.3938C15.5276 23.3703 15.5257 23.3526 15.5245 23.3412L15.5239 23.3347L15.5237 23.3195L15.5228 23.2423L15.5192 22.9478L15.5065 21.8848C15.4959 20.9984 15.4819 19.8004 15.4678 18.5537C15.4425 16.3034 15.4171 13.8973 15.4124 12.8774Z"
      fill="#F7FCFF" stroke="#E31D1C" stroke-width="0.5625" />
    <mask id="mask1_123_5235" style="mask-type:luminance" maskUnits="userSpaceOnUse" x="15" y="12"
      width="18" height="19">
      <path
        d="M15.4124 12.8774H31.7174C31.7567 13.8622 31.7672 16.2709 31.767 18.5425C31.7669 19.7943 31.7636 20.9993 31.7603 21.8914C31.7587 22.3374 31.7571 22.7052 31.7558 22.9614L31.7544 23.258L31.7539 23.3358L31.7539 23.3433C31.7522 23.3547 31.7495 23.3721 31.7457 23.3952C31.7378 23.4422 31.7252 23.5126 31.7063 23.603C31.6685 23.7838 31.6058 24.0444 31.507 24.358C31.3093 24.9861 30.9685 25.8221 30.397 26.6565C29.2618 28.3139 27.2046 29.9856 23.4748 29.9856C19.7465 29.9856 17.7746 28.3122 16.7219 26.6572C16.1913 25.8229 15.8907 24.9866 15.723 24.3577C15.6393 24.0438 15.589 23.7829 15.5598 23.6018C15.5453 23.5113 15.5359 23.4409 15.5303 23.3938C15.5276 23.3703 15.5257 23.3526 15.5245 23.3412L15.5239 23.3347L15.5237 23.3195L15.5228 23.2423L15.5192 22.9478L15.5065 21.8848C15.4959 20.9984 15.4819 19.8004 15.4678 18.5537C15.4425 16.3034 15.4171 13.8973 15.4124 12.8774Z"
        fill="white" stroke="white" stroke-width="0.5625" />
    </mask>
    <g mask="url(#mask1_123_5235)">
      <path fill-rule="evenodd" clip-rule="evenodd"
        d="M15.7478 13.5601H18.9119V16.7729H15.7478V13.5601ZM18.9119 16.7729H22.0759V19.9858H18.9119V16.7729ZM22.0759 23.1986H18.9119V26.4115H22.0759V23.1986ZM15.7478 19.9858H18.9119V23.1986H15.7478V19.9858ZM25.24 13.5601H22.0759V16.7729H25.24V13.5601ZM28.4041 13.5601H31.5681V16.7729H28.4041V13.5601ZM31.5681 26.4115H28.4041V29.6244H31.5681V26.4115ZM22.0759 26.4115H25.24V29.6244H22.0759V26.4115ZM28.4041 16.7729H25.24V19.9858H28.4041V16.7729ZM25.24 23.1986H28.4041V26.4115H25.24V23.1986ZM25.24 19.9858H22.0759V23.1986H25.24V19.9858ZM28.4041 19.9858H31.5681V23.1986H28.4041V19.9858ZM18.9119 26.4115H15.7478V29.6244H18.9119V26.4115Z"
        fill="#F50100" />
    </g>
    <path fill-rule="evenodd" clip-rule="evenodd"
      d="M15.6797 12.2441C15.6797 12.2441 16.6584 11.7213 17.4931 11.4519C18.3278 11.1825 18.9876 11.0353 18.9876 11.0353L17.7457 6.4572L15.2582 5.52783L13.8494 7.84998L15.6797 12.2441Z"
      fill="#56C6F5" stroke="white" stroke-width="0.15" />
    <path fill-rule="evenodd" clip-rule="evenodd"
      d="M21.8112 10.6138C21.8112 10.6138 22.6458 10.5393 23.5228 10.5564C24.3997 10.5734 25.1416 10.5796 25.1416 10.5796L25.5699 6.06542L23.6914 4.36834L21.6034 6.1053L21.8112 10.6138Z"
      fill="#56C6F5" stroke="white" stroke-width="0.15" />
    <path
      d="M18.8467 10.9557L18.8683 11.0291L18.9412 11.006L18.9186 10.9345L18.9412 11.006L18.9413 11.006L18.9414 11.006L18.9419 11.0058L18.9439 11.0052L18.952 11.0026L18.9835 10.9928C19.011 10.9843 19.0509 10.9721 19.1006 10.9572C19.2001 10.9273 19.3388 10.8867 19.4956 10.8435C19.8103 10.7569 20.1941 10.6612 20.4804 10.6214C20.7692 10.5813 21.1243 10.5525 21.4082 10.5337C21.5499 10.5243 21.6734 10.5175 21.7616 10.5129C21.8056 10.5107 21.8408 10.509 21.8649 10.5079L21.8926 10.5067L21.8997 10.5064L21.9015 10.5063L21.9019 10.5063L21.902 10.5063L21.9021 10.5063L21.9805 10.5031L21.9737 10.4249L21.5953 6.03828L21.5923 6.00369L21.564 5.98358L19.5199 4.53187L19.4673 4.49451L19.4225 4.54095L17.5648 6.46682L17.5345 6.49822L17.5468 6.54007L18.8467 10.9557Z"
      fill="#2E42A5" stroke="white" stroke-width="0.15" />
    <mask id="mask2_123_5235" style="mask-type:luminance" maskUnits="userSpaceOnUse" x="17" y="4"
      width="6" height="8">
      <path
        d="M18.8467 10.9557L18.8683 11.0291L18.9412 11.006L18.9186 10.9345L18.9412 11.006L18.9413 11.006L18.9414 11.006L18.9419 11.0058L18.9439 11.0052L18.952 11.0026L18.9835 10.9928C19.011 10.9843 19.0509 10.9721 19.1006 10.9572C19.2001 10.9273 19.3388 10.8867 19.4956 10.8435C19.8103 10.7569 20.1941 10.6612 20.4804 10.6214C20.7692 10.5813 21.1243 10.5525 21.4082 10.5337C21.5499 10.5243 21.6734 10.5175 21.7616 10.5129C21.8056 10.5107 21.8408 10.509 21.8649 10.5079L21.8926 10.5067L21.8997 10.5064L21.9015 10.5063L21.9019 10.5063L21.902 10.5063L21.9021 10.5063L21.9805 10.5031L21.9737 10.4249L21.5953 6.03828L21.5923 6.00369L21.564 5.98358L19.5199 4.53187L19.4673 4.49451L19.4225 4.54095L17.5648 6.46682L17.5345 6.49822L17.5468 6.54007L18.8467 10.9557Z"
        fill="white" stroke="white" stroke-width="0.15" />
    </mask>
    <g mask="url(#mask2_123_5235)">
    </g>
    <path
      d="M28.2655 10.954L28.2451 11.0296L28.1704 11.006L28.1931 10.9345L28.1704 11.006L28.1704 11.006L28.1703 11.006L28.1698 11.0058L28.1677 11.0052L28.1596 11.0026L28.1282 10.9928C28.1007 10.9843 28.0608 10.9721 28.0111 10.9572C27.9116 10.9273 27.7729 10.8867 27.6161 10.8435C27.3014 10.7569 26.9176 10.6612 26.6312 10.6214C26.3424 10.5813 25.9874 10.5525 25.7035 10.5337C25.5618 10.5243 25.4382 10.5175 25.3501 10.5129C25.3061 10.5107 25.2709 10.509 25.2467 10.5079L25.2191 10.5067L25.212 10.5064L25.2102 10.5063L25.2097 10.5063L25.2096 10.5063L25.2096 10.5063L25.1312 10.5031L25.138 10.4249L25.5164 6.03828L25.5194 6.00369L25.5477 5.98358L27.5917 4.53187L27.6458 4.49346L27.6906 4.54245L29.4421 6.46105L29.4698 6.49143L29.4591 6.53116L28.2655 10.954Z"
      fill="#2E42A5" stroke="white" stroke-width="0.15" />
    <mask id="mask3_123_5235" style="mask-type:luminance" maskUnits="userSpaceOnUse" x="25" y="4"
      width="5" height="8">
      <path
        d="M28.2655 10.954L28.2451 11.0296L28.1704 11.006L28.1931 10.9345L28.1704 11.006L28.1704 11.006L28.1703 11.006L28.1698 11.0058L28.1677 11.0052L28.1596 11.0026L28.1282 10.9928C28.1007 10.9843 28.0608 10.9721 28.0111 10.9572C27.9116 10.9273 27.7729 10.8867 27.6161 10.8435C27.3014 10.7569 26.9176 10.6612 26.6312 10.6214C26.3424 10.5813 25.9874 10.5525 25.7035 10.5337C25.5618 10.5243 25.4382 10.5175 25.3501 10.5129C25.3061 10.5107 25.2709 10.509 25.2467 10.5079L25.2191 10.5067L25.212 10.5064L25.2102 10.5063L25.2097 10.5063L25.2096 10.5063L25.2096 10.5063L25.1312 10.5031L25.138 10.4249L25.5164 6.03828L25.5194 6.00369L25.5477 5.98358L27.5917 4.53187L27.6458 4.49346L27.6906 4.54245L29.4421 6.46105L29.4698 6.49143L29.4591 6.53116L28.2655 10.954Z"
        fill="white" stroke="white" stroke-width="0.15" />
    </mask>
    <g mask="url(#mask3_123_5235)">
    </g>
    <path
      d="M31.7537 12.1596L31.7213 12.2342L31.6496 12.1959L31.6849 12.1298L31.6496 12.1959L31.6496 12.1959L31.6494 12.1958L31.6489 12.1956L31.6469 12.1945L31.6387 12.1901L31.6065 12.1733C31.5784 12.1586 31.5371 12.1372 31.485 12.1107C31.3807 12.0578 31.233 11.9844 31.0593 11.9026C30.7114 11.7387 30.2614 11.5422 29.8485 11.409C29.4328 11.2748 29.0606 11.1711 28.7923 11.1009C28.6582 11.0658 28.5501 11.0391 28.4757 11.0212C28.4384 11.0122 28.4096 11.0055 28.3901 11.001L28.3681 10.9959L28.3625 10.9946L28.3611 10.9943L28.3608 10.9942L28.3607 10.9942L28.3607 10.9942L28.2832 10.9769L28.3049 10.9005L29.5739 6.43669L29.5843 6.40021L29.6198 6.38694L32.1073 5.45758L32.1654 5.43584L32.1977 5.48893L33.6065 7.81108L33.6266 7.84425L33.6112 7.87984L31.7537 12.1596Z"
      fill="#56C6F5" stroke="white" stroke-width="0.15" />
    <mask id="mask4_123_5235" style="mask-type:luminance" maskUnits="userSpaceOnUse" x="28" y="5"
      width="6" height="8">
      <path
        d="M31.7537 12.1596L31.7213 12.2342L31.6496 12.1959L31.6849 12.1298L31.6496 12.1959L31.6496 12.1959L31.6494 12.1958L31.6489 12.1956L31.6469 12.1945L31.6387 12.1901L31.6065 12.1733C31.5784 12.1586 31.5371 12.1372 31.485 12.1107C31.3807 12.0578 31.233 11.9844 31.0593 11.9026C30.7114 11.7387 30.2614 11.5422 29.8485 11.409C29.4328 11.2748 29.0606 11.1711 28.7923 11.1009C28.6582 11.0658 28.5501 11.0391 28.4757 11.0212C28.4384 11.0122 28.4096 11.0055 28.3901 11.001L28.3681 10.9959L28.3625 10.9946L28.3611 10.9943L28.3608 10.9942L28.3607 10.9942L28.3607 10.9942L28.2832 10.9769L28.3049 10.9005L29.5739 6.43669L29.5843 6.40021L29.6198 6.38694L32.1073 5.45758L32.1654 5.43584L32.1977 5.48893L33.6065 7.81108L33.6266 7.84425L33.6112 7.87984L31.7537 12.1596Z"
        fill="white" stroke="white" stroke-width="0.15" />
    </mask>
    <g mask="url(#mask4_123_5235)">
    </g>
  </g>
</svg>
