<svg width="48" height="36" fill="none" xmlns="http://www.w3.org/2000/svg">
  <path fill-rule="evenodd" clip-rule="evenodd" d="M0 0V36H48V0H0Z" fill="#E31D1C" />
  <mask id="mask0_123_5301" style="mask-type:luminance" maskUnits="userSpaceOnUse" x="0" y="0"
    width="48" height="36">
    <path fill-rule="evenodd" clip-rule="evenodd" d="M0 0V36H48V0H0Z" fill="white" />
  </mask>
  <g mask="url(#mask0_123_5301)">
    <path fill-rule="evenodd" clip-rule="evenodd"
      d="M9.12483 5.97531C9.12215 5.91735 9.19254 5.8903 9.23111 5.93365C9.72524 6.48905 11.7473 8.68175 12.8726 8.68175C14.1612 8.68175 19.2215 4.41778 20.7173 5.11239C22.213 5.807 25.2414 13.0694 25.2414 13.0694L23.2679 15.5448L20.7173 14.1534L20.2352 8.68175C20.2352 8.68175 15.3256 11.207 12.8726 10.2904L11.4937 11.4491C11.4937 11.4491 10.1658 8.81956 9.64286 8.0153C9.23014 7.38052 9.14316 6.37213 9.12483 5.97531Z"
      fill="#F7FCFF" />
    <path fill-rule="evenodd" clip-rule="evenodd"
      d="M12.3927 12.1868L11.553 12.6955L11.7134 11.618L11.0341 10.8549L11.9729 10.6977L12.3927 9.71729L12.8126 10.6977L13.7514 10.8549L13.072 11.618L13.2324 12.6955L12.3927 12.1868Z"
      fill="#FECA00" />
    <path fill-rule="evenodd" clip-rule="evenodd"
      d="M19.5188 5.59047C19.5188 5.34392 19.7187 5.14404 19.9653 5.14404H20.1605C20.4071 5.14404 20.607 5.34392 20.607 5.59047V8.35615C20.607 8.60271 20.4071 8.80258 20.1605 8.80258H19.9653C19.7187 8.80258 19.5188 8.60271 19.5188 8.35615L19.5188 5.59047Z"
      fill="#FECA00" />
    <path fill-rule="evenodd" clip-rule="evenodd"
      d="M38.0387 7.76756C38.0892 7.79601 38.0749 7.87004 38.0177 7.87978C37.2848 8.0045 34.3538 8.55736 33.7574 9.5117C33.0746 10.6044 34.0091 17.1554 32.6274 18.0558C31.2457 18.9562 23.482 17.6758 23.482 17.6758L22.4285 14.6905L24.9602 13.2648L29.8559 15.7555C29.8559 15.7555 30.316 10.2538 32.3932 8.65926L32.1413 6.87585C32.1413 6.87585 35.075 7.14313 36.0341 7.12585C36.7912 7.11222 37.6924 7.57282 38.0387 7.76756Z"
      fill="#F7FCFF" />
    <path fill-rule="evenodd" clip-rule="evenodd"
      d="M31.0394 7.24734L31.0529 6.26564L31.8818 6.97265L32.8889 6.80094L32.5247 7.68041L33.1337 8.55598L32.0798 8.39251L31.449 9.10535L31.1618 8.12486L30.163 7.68984L31.0394 7.24734Z"
      fill="#FECA00" />
    <path fill-rule="evenodd" clip-rule="evenodd"
      d="M32.9875 16.8795C33.1921 17.0064 33.2592 17.2727 33.1392 17.4815L32.9956 17.7311C32.8668 17.955 32.5755 18.0232 32.3607 17.8797L29.8501 16.2029C29.678 16.088 29.6075 15.8699 29.6796 15.6759L29.7459 15.4981C29.8442 15.2338 30.1599 15.1258 30.3995 15.2744L32.9875 16.8795Z"
      fill="#FECA00" />
    <path fill-rule="evenodd" clip-rule="evenodd"
      d="M22.0923 31.5998C22.0424 31.6294 21.9855 31.5799 22.0056 31.5255C22.264 30.8285 23.2508 28.0137 22.7225 27.0201C22.1175 25.8824 15.977 23.4162 15.8881 21.7694C15.7992 20.1227 20.7898 14.0393 20.7898 14.0393L23.9019 14.6196L23.8708 17.5249L19.266 20.5193C19.266 20.5193 23.8005 23.6687 24.1428 26.2649L25.8132 26.9384C25.8132 26.9384 24.1149 29.3454 23.6503 30.1847C23.2836 30.8471 22.4341 31.3973 22.0923 31.5998Z"
      fill="#F7FCFF" />
    <path fill-rule="evenodd" clip-rule="evenodd"
      d="M26.0424 25.7985L26.8858 26.3011L25.8591 26.6654L25.5042 27.6234L24.9247 26.8683L23.862 26.9579L24.5305 26.1269L24.2286 25.2242L25.2213 25.4657L26.0974 24.8183L26.0424 25.7985Z"
      fill="#FECA00" />
    <path fill-rule="evenodd" clip-rule="evenodd"
      d="M16.4883 22.4995C16.2433 22.593 15.9708 22.4562 15.8995 22.2038L15.8106 21.8894C15.7481 21.6682 15.8638 21.4356 16.0779 21.3521L18.8525 20.2693C19.0528 20.1912 19.2804 20.2669 19.3939 20.4495L19.5809 20.7502C19.7291 20.9885 19.6232 21.3029 19.361 21.403L16.4883 22.4995Z"
      fill="#FECA00" />
    <path
      d="M20.4938 14.6475C20.3071 14.5822 20.2074 14.3743 20.2711 14.1831C20.3348 13.9918 20.6339 13.6724 20.8205 13.7376L23.4242 14.6475C23.5586 14.6944 23.653 14.8184 23.6648 14.9633L23.8977 17.8191C23.9141 18.0204 23.6208 18.1833 23.4242 18.2001C23.2277 18.2169 23.055 18.0673 23.0386 17.866L22.823 15.4101L20.4938 14.6475Z"
      fill="#FECA00" />
    <path
      d="M25.0207 13.1514C25.1763 13.0273 25.4542 13.1712 25.5754 13.3306C25.6966 13.49 25.6687 13.7199 25.513 13.844L23.7094 15.6926C23.5538 15.8168 23.2038 15.5746 23.0826 15.4152C22.9614 15.2558 22.927 14.8215 23.0826 14.6974L25.0207 13.1514Z"
      fill="#FECA00" />
  </g>
</svg>
