<svg width="48" height="36" fill="none" xmlns="http://www.w3.org/2000/svg">
  <path fill-rule="evenodd" clip-rule="evenodd" d="M0 0H24.576V36H0V0Z" fill="white" />
  <mask id="mask0_123_5437" style="mask-type:luminance" maskUnits="userSpaceOnUse" x="0" y="0"
    width="25" height="36">
    <path fill-rule="evenodd" clip-rule="evenodd" d="M0 0H24.576V36H0V0Z" fill="white" />
  </mask>
  <g mask="url(#mask0_123_5437)">
  </g>
  <mask id="path-3-inside-1_123_5437" fill="white">
    <path fill-rule="evenodd" clip-rule="evenodd"
      d="M14.2079 9H8.06391V13.4888C7.3872 13.6456 6.88379 14.2396 6.88379 14.9484C6.88379 14.9656 6.88409 14.9829 6.88468 15H1.91992V21H7.03593C7.23433 21.4011 7.61016 21.7027 8.06391 21.8079V27H14.2079V21.8271C14.7049 21.7448 15.1206 21.4293 15.3329 21H20.3519V15H15.4842C15.4848 14.9829 15.4851 14.9656 15.4851 14.9484C15.4851 14.2061 14.933 13.5897 14.2079 13.4696V9Z" />
  </mask>
  <path fill-rule="evenodd" clip-rule="evenodd"
    d="M14.2079 9H8.06391V13.4888C7.3872 13.6456 6.88379 14.2396 6.88379 14.9484C6.88379 14.9656 6.88409 14.9829 6.88468 15H1.91992V21H7.03593C7.23433 21.4011 7.61016 21.7027 8.06391 21.8079V27H14.2079V21.8271C14.7049 21.7448 15.1206 21.4293 15.3329 21H20.3519V15H15.4842C15.4848 14.9829 15.4851 14.9656 15.4851 14.9484C15.4851 14.2061 14.933 13.5897 14.2079 13.4696V9Z"
    fill="#A0A0A0" />
  <path
    d="M8.06391 9V8.5H7.56391V9H8.06391ZM14.2079 9H14.7079V8.5H14.2079V9ZM8.06391 13.4888L8.17675 13.9759L8.56391 13.8862V13.4888H8.06391ZM6.88468 15V15.5H7.4023L7.38438 14.9827L6.88468 15ZM1.91992 15V14.5H1.41992V15H1.91992ZM1.91992 21H1.41992V21.5H1.91992V21ZM7.03593 21L7.48409 20.7783L7.34642 20.5H7.03593V21ZM8.06391 21.8079H8.56391V21.4105L8.17675 21.3208L8.06391 21.8079ZM8.06391 27H7.56391V27.5H8.06391V27ZM14.2079 27V27.5H14.7079V27H14.2079ZM14.2079 21.8271L14.1262 21.3338L13.7079 21.4032V21.8271H14.2079ZM15.3329 21V20.5H15.0225L14.8848 20.7783L15.3329 21ZM20.3519 21V21.5H20.8519V21H20.3519ZM20.3519 15H20.8519V14.5H20.3519V15ZM15.4842 15L14.9845 14.9827L14.9666 15.5H15.4842V15ZM14.2079 13.4696H13.7079V13.8935L14.1262 13.9628L14.2079 13.4696ZM8.06391 9.5H14.2079V8.5H8.06391V9.5ZM8.56391 13.4888V9H7.56391V13.4888H8.56391ZM7.38379 14.9484C7.38379 14.485 7.71403 14.0831 8.17675 13.9759L7.95106 13.0017C7.06037 13.2081 6.38379 13.9941 6.38379 14.9484H7.38379ZM7.38438 14.9827C7.38399 14.9713 7.38379 14.9599 7.38379 14.9484H6.38379C6.38379 14.9714 6.38419 14.9944 6.38498 15.0173L7.38438 14.9827ZM1.91992 15.5H6.88468V14.5H1.91992V15.5ZM2.41992 21V15H1.41992V21H2.41992ZM7.03593 20.5H1.91992V21.5H7.03593V20.5ZM8.17675 21.3208C7.86839 21.2493 7.61587 21.0447 7.48409 20.7783L6.58776 21.2217C6.85278 21.7574 7.35193 22.1562 7.95106 22.295L8.17675 21.3208ZM8.56391 27V21.8079H7.56391V27H8.56391ZM14.2079 26.5H8.06391V27.5H14.2079V26.5ZM13.7079 21.8271V27H14.7079V21.8271H13.7079ZM14.2896 22.3204C14.9455 22.2117 15.4975 21.795 15.7811 21.2217L14.8848 20.7783C14.7437 21.0636 14.4642 21.2778 14.1262 21.3338L14.2896 22.3204ZM20.3519 20.5H15.3329V21.5H20.3519V20.5ZM19.8519 15V21H20.8519V15H19.8519ZM15.4842 15.5H20.3519V14.5H15.4842V15.5ZM14.9851 14.9484C14.9851 14.9599 14.9849 14.9713 14.9845 14.9827L15.9839 15.0173C15.9847 14.9944 15.9851 14.9714 15.9851 14.9484H14.9851ZM14.1262 13.9628C14.6225 14.0451 14.9851 14.4632 14.9851 14.9484H15.9851C15.9851 13.9489 15.2434 13.1343 14.2896 12.9763L14.1262 13.9628ZM13.7079 9V13.4696H14.7079V9H13.7079Z"
    fill="#FECA00" mask="url(#path-3-inside-1_123_5437)" />
  <path fill-rule="evenodd" clip-rule="evenodd" d="M23.4239 0H47.9999V36H23.4239V0Z" fill="#E31D1C" />
  <mask id="mask1_123_5437" style="mask-type:luminance" maskUnits="userSpaceOnUse" x="23" y="0"
    width="25" height="36">
    <path fill-rule="evenodd" clip-rule="evenodd" d="M23.4239 0H47.9999V36H23.4239V0Z" fill="white" />
  </mask>
  <g mask="url(#mask1_123_5437)">
  </g>
</svg>
