<svg width="48" height="36" fill="none" xmlns="http://www.w3.org/2000/svg">
  <path fill-rule="evenodd" clip-rule="evenodd" d="M0 0V36H48V0H0Z" fill="#F7FCFF" />
  <mask id="mask0_123_5654" style="mask-type:luminance" maskUnits="userSpaceOnUse" x="0" y="0"
    width="48" height="36">
    <path fill-rule="evenodd" clip-rule="evenodd" d="M0 0V36H48V0H0Z" fill="white" />
  </mask>
  <g mask="url(#mask0_123_5654)">
    <path fill-rule="evenodd" clip-rule="evenodd" d="M0 0V18H48V0H0Z" fill="#E31D1C" />
    <path fill-rule="evenodd" clip-rule="evenodd"
      d="M13.3028 15.8843C13.3028 15.8843 9.06425 14.1796 9.06425 9.56099C9.06425 4.94238 13.3028 3.29271 13.3028 3.29271C11.2428 2.77121 5.77661 3.23765 5.77661 9.56099C5.77661 15.8843 11.1602 17.0768 13.3028 15.8843ZM14.3887 15.1209L15.6046 14.3869L16.8473 15.1209L16.5432 13.6885L17.5534 12.5585H16.1847L15.6046 11.2209L15.0245 12.5585L13.6534 12.6164L14.666 13.6885L14.3887 15.1209ZM20.024 14.3049L18.8081 15.0389L19.0855 13.6065L18.0729 12.5344L19.444 12.4765L20.024 11.1389L20.6041 12.4765H21.9729L20.9626 13.6065L21.2668 15.0389L20.024 14.3049ZM16.9309 8.65478L18.1468 7.92072L19.3896 8.65478L19.0854 7.22233L20.0957 6.09232H18.7269L18.1468 4.75478L17.5668 6.09232L16.1957 6.15029L17.2083 7.22233L16.9309 8.65478ZM14.0548 10.8339L12.8389 11.568L13.1162 10.1355L12.1036 9.0635L13.4747 9.00553L14.0548 7.66798L14.6349 9.00553H16.0036L14.9934 10.1355L15.2975 11.568L14.0548 10.8339ZM20.8765 11.5022L22.0924 10.7681L23.3351 11.5022L23.031 10.0698L24.0412 8.93975H22.6725L22.0924 7.6022L21.5123 8.93975L20.1412 8.99772L21.1538 10.0698L20.8765 11.5022Z"
      fill="#F1F9FF" />
  </g>
</svg>
