<svg width="48" height="36" fill="none" xmlns="http://www.w3.org/2000/svg">
  <path fill-rule="evenodd" clip-rule="evenodd" d="M0 0V36H48V0H0Z" fill="#3D58DB" />
  <mask id="mask0_123_5682" style="mask-type:luminance" maskUnits="userSpaceOnUse" x="0" y="0"
    width="48" height="36">
    <path fill-rule="evenodd" clip-rule="evenodd" d="M0 0V36H48V0H0Z" fill="white" />
  </mask>
  <g mask="url(#mask0_123_5682)">
    <path fill-rule="evenodd" clip-rule="evenodd" d="M0 0V12H48V0H0Z" fill="#F7FCFF" />
    <path fill-rule="evenodd" clip-rule="evenodd" d="M0 24V36H48V24H0Z" fill="#E31D1C" />
    <path
      d="M23.4061 9.04565L23.6547 9.0192L23.6309 8.79565H23.4061H9.51742H9.28371L9.26799 9.02883L9.51742 9.04565C9.26799 9.02883 9.26799 9.02887 9.26798 9.02894L9.26796 9.02924L9.26789 9.03038L9.26759 9.03486L9.26641 9.05252L9.26186 9.12141C9.25791 9.18184 9.25215 9.27072 9.24493 9.38463C9.23049 9.61246 9.21023 9.94046 9.1869 10.3414C9.14026 11.1433 9.08133 12.2373 9.03225 13.4056C8.93456 15.7308 8.87402 18.3846 9.03499 19.5942C9.35421 21.993 10.8074 27.3 16.3682 29.702L16.4691 29.7456L16.5694 29.7007C21.8677 27.3316 23.6467 22.5609 24.058 19.5956C24.2643 18.1081 24.1606 15.4531 24.0093 13.1935C23.9333 12.0587 23.8447 11.0154 23.775 10.2559C23.7402 9.87615 23.7102 9.56719 23.6888 9.35308C23.6781 9.24603 23.6696 9.16268 23.6637 9.10603L23.657 9.04147L23.6553 9.02491L23.6548 9.02068L23.6547 9.0196L23.6547 9.01931C23.6547 9.01925 23.6547 9.0192 23.4061 9.04565Z"
      fill="#E31D1C" stroke="white" stroke-width="0.5" />
    <mask id="mask1_123_5682" style="mask-type:luminance" maskUnits="userSpaceOnUse" x="8" y="8"
      width="17" height="23">
      <path
        d="M23.4061 9.04565L23.6547 9.0192L23.6309 8.79565H23.4061H9.51742H9.28371L9.26799 9.02883L9.51742 9.04565C9.26799 9.02883 9.26799 9.02887 9.26798 9.02894L9.26796 9.02924L9.26789 9.03038L9.26759 9.03486L9.26641 9.05252L9.26186 9.12141C9.25791 9.18184 9.25215 9.27072 9.24493 9.38463C9.23049 9.61246 9.21023 9.94046 9.1869 10.3414C9.14026 11.1433 9.08133 12.2373 9.03225 13.4056C8.93456 15.7308 8.87402 18.3846 9.03499 19.5942C9.35421 21.993 10.8074 27.3 16.3682 29.702L16.4691 29.7456L16.5694 29.7007C21.8677 27.3316 23.6467 22.5609 24.058 19.5956C24.2643 18.1081 24.1606 15.4531 24.0093 13.1935C23.9333 12.0587 23.8447 11.0154 23.775 10.2559C23.7402 9.87615 23.7102 9.56719 23.6888 9.35308C23.6781 9.24603 23.6696 9.16268 23.6637 9.10603L23.657 9.04147L23.6553 9.02491L23.6548 9.02068L23.6547 9.0196L23.6547 9.01931C23.6547 9.01925 23.6547 9.0192 23.4061 9.04565Z"
        fill="white" stroke="white" stroke-width="0.5" />
    </mask>
    <g mask="url(#mask1_123_5682)">
      <path fill-rule="evenodd" clip-rule="evenodd"
        d="M14.7938 9.88477C14.7938 9.88477 15.1036 10.3567 15.2422 11.0783C15.3809 11.7999 15.4048 12.6208 15.4048 12.6208L13.0587 12.2591V14.9305L15.4704 14.5479L15.3983 17.3492C15.3983 17.3492 15.0918 17.4424 14.3548 17.3492C13.6177 17.256 12.1656 16.8658 12.1656 16.8658V19.4163C12.1656 19.4163 13.6409 18.9444 14.3548 18.8361C15.0686 18.7278 15.3983 18.8361 15.3983 18.8361L15.4216 21.2818H17.8137L17.7904 18.8361C17.7904 18.8361 18.5432 18.7202 19.3385 18.8456C20.1337 18.9711 20.8881 19.4163 20.8881 19.4163V16.8658C20.8881 16.8658 20.1238 17.2465 19.403 17.3413C18.6822 17.436 17.7904 17.3492 17.7904 17.3492L17.8625 14.5479C17.8625 14.5479 18.28 14.4446 18.8399 14.5206C19.3997 14.5966 20.1004 14.9305 20.1004 14.9305V12.2591C20.1004 12.2591 19.4174 12.6307 18.8801 12.6981C18.3428 12.7655 17.7969 12.6208 17.7969 12.6208C17.7969 12.6208 17.8168 11.7595 17.9324 11.1242C18.0479 10.4888 18.3751 9.88477 18.3751 9.88477H14.7938Z"
        fill="#F7FCFF" />
      <path fill-rule="evenodd" clip-rule="evenodd"
        d="M10.3463 24.3681C10.3463 24.3681 11.0056 22.9532 12.0783 22.6842C13.151 22.4151 14.2758 23.5261 14.2758 23.5261C14.2758 23.5261 14.9626 21.2815 16.6368 21.2815C18.3109 21.2815 18.8985 23.5261 18.8985 23.5261C18.8985 23.5261 19.6128 22.6842 20.6399 22.6842C21.6671 22.6842 22.6188 24.3681 22.6188 24.3681C22.6188 24.3681 19.5506 29.9382 16.4825 29.9382C13.4144 29.9382 10.3463 24.3681 10.3463 24.3681Z"
        fill="#2E42A5" />
    </g>
  </g>
</svg>
